<svg width="226" height="40" viewBox="0 0 226 40" fill="none" xmlns="http://www.w3.org/2000/svg">
<path d="M17.9509 12.8856C21.1075 12.8856 24.1206 13.5567 26.5599 14.6305L25.125 23.2212C23.5467 22.4159 21.5379 22.0132 19.6727 22.0132C16.3725 22.0132 12.9289 23.2212 12.355 26.577C11.9246 29.53 14.3638 30.7381 17.5204 30.7381C20.1031 30.7381 22.3988 30.2012 24.4076 29.3958L22.8293 38.6577C19.9596 39.5973 17.2334 40 14.3638 40C5.6113 40 -1.13242 35.4362 0.158931 26.4428C1.59376 16.7782 10.3462 12.8856 17.9509 12.8856Z" fill="#2B2C3A"/>
<path d="M44.6385 2.2821L42.4862 15.0339C44.6385 13.8259 47.2212 12.8863 49.5169 12.8863C56.6911 12.8863 59.2738 17.987 58.4129 22.9535L55.6867 39.0611H43.7776L46.2168 24.43C46.5037 22.9535 45.6428 22.2823 44.3515 22.2823C42.9167 22.2823 41.7688 22.9535 40.9079 23.7589L38.4687 39.0611H26.5596L32.7294 2.2821H44.6385V2.2821Z" fill="#2B2C3A"/>
<path d="M77.0623 13.02C88.9714 13.02 91.4106 21.8791 88.5409 28.9933H71.7534C72.3273 31.2752 75.3405 32.2148 78.7841 32.2148C81.9407 32.2148 84.9539 31.6779 87.1061 31.0067L85.8148 38.6578C83.0886 39.4632 80.0754 39.8659 76.0579 39.8659C67.8793 39.8659 59.4138 35.5706 60.9921 25.5033C62.5705 16.3757 70.8925 13.02 77.0623 13.02ZM76.9188 20.2684C74.3361 20.2684 72.6143 22.1476 72.3273 23.8926H79.645C80.2189 22.1476 79.5015 20.2684 76.9188 20.2684Z" fill="#2B2C3A"/>
<path d="M109.349 12.8856C112.505 12.8856 115.518 13.5567 117.958 14.6305L116.523 23.2212C114.944 22.4159 112.936 22.0132 111.07 22.0132C107.77 22.0132 104.327 23.2212 103.753 26.577C103.322 29.53 105.761 30.7381 108.918 30.7381C111.501 30.7381 113.797 30.2012 115.805 29.3958L114.227 38.6577C111.357 39.5973 108.631 40 105.761 40C97.009 40 90.2653 35.4362 91.5566 26.4428C92.9915 16.7782 101.887 12.8856 109.349 12.8856Z" fill="#2B2C3A"/>
<path d="M153.827 13.8259L143.065 26.9804L149.235 39.0611H137.039L133.165 30.6046H131.156L129.721 39.0611H117.812L123.982 2.2821H135.891L132.591 21.8797H134.313L140.483 13.8259H153.827V13.8259Z" fill="#2B2C3A"/>
<path d="M151.533 39.0609L155.838 13.8257H167.747L163.442 39.0609H151.533ZM162.581 11.2753C159.138 11.2753 156.268 9.12762 156.985 4.9665C157.559 1.47653 160.429 0 163.586 0C167.029 0 169.899 2.14768 169.182 6.3088C168.608 9.79877 165.738 11.2753 162.581 11.2753Z" fill="#6197FF"/>
<path d="M219.831 14.3621L199.313 24.9662L199.6 22.9528C200.461 18.1205 197.879 12.8856 190.991 12.8856C188.552 12.8856 185.969 13.5567 183.53 15.0332C180.804 17.1809 178.078 19.3286 175.352 25.7716C175.352 25.7716 176.5 19.3286 182.239 14.899L182.382 13.6909H172.195L167.891 39.0604H179.8L182.382 23.6239C183.1 23.087 184.391 22.2816 185.826 22.2816C187.117 22.2816 187.978 22.9528 187.691 24.4293L186.4 32.3489C186.4 32.7516 186.256 33.02 186.256 33.4227C186.256 37.0469 189.27 40 193.287 40H193.431H193.574C194.865 40 196.013 39.7315 197.161 39.1946L225.714 24.5635L219.831 14.3621Z" fill="#6197FF"/>
</svg>
