<svg width="12" height="15" viewBox="0 0 12 15" fill="none" xmlns="http://www.w3.org/2000/svg">
<path d="M9.9375 0.777344H2.0625C1.32422 0.777344 0.75 1.35156 0.75 2.08984V13.9023C0.75 14.3672 1.13281 14.7773 1.625 14.7773H4.6875V12.5898C4.6875 11.8516 5.26172 11.2773 6 11.2773C6.71094 11.2773 7.3125 11.8516 7.3125 12.5898V14.7773H10.375C10.8398 14.7773 11.25 14.3672 11.25 13.9023V2.08984C11.25 1.35156 10.6484 0.777344 9.9375 0.777344ZM4.25 9.0625C4.25 9.30859 4.03125 9.5 3.8125 9.5H2.9375C2.69141 9.5 2.5 9.30859 2.5 9.0625V8.1875C2.5 7.96875 2.69141 7.75 2.9375 7.75H3.8125C4.03125 7.75 4.25 7.96875 4.25 8.1875V9.0625ZM6.875 9.0625C6.875 9.30859 6.65625 9.5 6.4375 9.5H5.5625C5.31641 9.5 5.125 9.30859 5.125 9.0625V8.1875C5.125 7.96875 5.31641 7.75 5.5625 7.75H6.4375C6.65625 7.75 6.875 7.96875 6.875 8.1875V9.0625ZM7.50391 4.96094H6.68359V5.78125C6.68359 5.91797 6.57422 6 6.46484 6H5.50781C5.39844 6 5.28906 5.91797 5.28906 5.78125V4.96094H4.46875C4.33203 4.96094 4.25 4.85156 4.25 4.74219V3.78516C4.25 3.67578 4.33203 3.56641 4.46875 3.56641H5.28906V2.74609C5.28906 2.60938 5.39844 2.52734 5.50781 2.52734H6.46484C6.57422 2.52734 6.68359 2.60938 6.68359 2.74609V3.56641H7.50391C7.64062 3.56641 7.75 3.67578 7.75 3.78516V4.74219C7.75 4.85156 7.64062 4.96094 7.50391 4.96094ZM9.5 9.0625C9.5 9.30859 9.28125 9.5 9.0625 9.5H8.1875C7.94141 9.5 7.75 9.30859 7.75 9.0625V8.1875C7.75 7.96875 7.94141 7.75 8.1875 7.75H9.0625C9.28125 7.75 9.5 7.96875 9.5 8.1875V9.0625Z" fill="#2B2C3A" fill-opacity="0.5"/>
</svg>
