<svg width="52" height="52" viewBox="0 0 52 52" fill="none" xmlns="http://www.w3.org/2000/svg">
<g clip-path="url(#clip0_8772_39569)">
<rect width="52" height="52" rx="26" fill="#FFD585"/>
<g clip-path="url(#clip1_8772_39569)">
<path d="M13.2046 25.6704C13.1573 25.4282 13.0818 25.1928 12.9797 24.9695C12.8745 24.8254 12.3195 24.9347 11.5683 24.0996C10.8172 23.2644 10.2048 22.4044 9.70721 22.0763C9.20963 21.7482 9.18092 21.6041 9.47277 21.5444C9.66555 21.5387 9.85738 21.5746 10.0361 21.6499C10.2148 21.7252 10.3765 21.8382 10.511 21.9819C10.9081 22.305 11.4679 23.0308 11.7119 22.9363C11.4767 22.628 11.2226 22.3357 10.9512 22.0614C10.6536 21.6768 10.3864 21.2678 10.1522 20.8385C9.97514 20.6099 10.3244 20.3066 10.7311 20.7093C11.1377 21.1119 11.3626 21.4848 11.5683 21.614C11.7741 21.7433 12.3434 22.3547 12.5252 22.3895C12.3558 22.0286 12.1607 21.6813 11.9415 21.3505C11.6906 20.9512 11.4759 20.5285 11.3004 20.0879C11.1952 19.8443 11.4631 19.5908 11.8937 20.1127C12.1286 20.4167 12.3428 20.7372 12.5348 21.0722C12.6305 21.1666 13.1998 21.8079 13.2811 21.9272C13.2117 21.6652 13.1271 21.4079 13.0276 21.1567C12.908 20.8982 12.7453 20.4756 12.6496 20.2569C12.5539 20.0382 12.6161 19.6405 13.085 20.0282C13.379 20.3105 13.6193 20.6478 13.7931 21.0225C14.0075 21.2741 14.1997 21.5453 14.3672 21.8327C14.4646 22.047 14.5993 22.2408 14.7643 22.4044C14.7975 22.1577 14.8896 21.9236 15.0322 21.7234C15.2284 21.5196 15.6351 21.3506 15.7882 21.5792C15.9413 21.8079 15.4485 22.2105 15.3576 22.6679C15.2667 23.1252 15.3576 23.334 15.2523 23.687C15.2097 23.8151 15.1422 23.9327 15.0542 24.0327C14.9662 24.1328 14.8594 24.213 14.7404 24.2686C14.7883 24.4758 14.8709 24.6727 14.9844 24.8502C14.9844 24.8502 14.7404 25.6953 13.2046 25.6704Z" fill="#FDC088"/>
<g style="mix-blend-mode:multiply" opacity="0.6">
<path d="M14.5965 23.8361C14.4346 23.8449 14.2725 23.823 14.1181 23.7714C13.8119 23.7068 13.6779 23.8659 13.4435 24.01C13.3179 24.0814 13.1794 24.1244 13.0368 24.1364C12.8942 24.1484 12.7507 24.1291 12.6158 24.0796C12.4851 24.0569 12.3631 23.9968 12.2635 23.906C12.1639 23.8152 12.0905 23.6974 12.0518 23.5658C12.013 23.4341 12.0104 23.2938 12.0441 23.1607C12.0778 23.0276 12.1465 22.9068 12.2426 22.812C12.5866 22.4906 12.9952 22.2529 13.4387 22.1161C13.6827 22.0514 14.5917 21.9172 14.3956 22.4491C14.3297 22.5969 14.2512 22.7383 14.1611 22.8717C14.1028 22.9722 14.0777 23.0898 14.0898 23.2065C14.1019 23.3232 14.1505 23.4326 14.2281 23.5179C14.1181 23.0208 14.5248 22.7225 14.8836 22.464C14.8266 22.2423 14.8452 22.007 14.9362 21.7979C14.8304 21.9842 14.7605 22.1902 14.7305 22.4044C14.5654 22.2408 14.4308 22.047 14.3334 21.8327C14.3334 21.7929 14.2855 21.7482 14.2616 21.7035C14.2377 21.6587 14.2616 21.7283 14.2616 21.7382C14.174 21.8265 14.064 21.8869 13.9445 21.9124C13.825 21.938 13.701 21.9276 13.587 21.8824C13.4678 21.7802 13.3742 21.6494 13.3142 21.5014C13.2542 21.3534 13.2296 21.1924 13.2425 21.0324C12.9985 20.8981 13.0225 20.6993 12.8693 20.411C12.7737 20.2469 12.678 20.0133 12.7593 19.8691C12.5823 19.8691 12.5727 20.1028 12.6349 20.2569C12.6971 20.411 12.8933 20.8981 13.0129 21.1566C13.1124 21.4079 13.1971 21.6652 13.2665 21.9271C13.2436 21.8934 13.218 21.8618 13.1899 21.8327C13.1892 21.8943 13.1685 21.9538 13.1311 22.0016C13.0938 22.0494 13.042 22.0827 12.9842 22.0962C12.8939 22.1423 12.7902 22.1516 12.6936 22.1221C12.5971 22.0927 12.5146 22.0266 12.4627 21.9371C12.3813 21.8029 12.0799 21.3505 12.1134 21.2511C11.8933 21.1666 11.7976 20.754 11.5919 20.4308C11.4719 20.2785 11.4016 20.0905 11.391 19.894C11.3854 19.8661 11.3854 19.8373 11.391 19.8094C11.3633 19.816 11.3375 19.8293 11.3158 19.8484C11.2941 19.8674 11.2772 19.8917 11.2664 19.9189C11.2556 19.9462 11.2513 19.9758 11.2538 20.0052C11.2563 20.0346 11.2656 20.063 11.2809 20.0878C11.4565 20.5285 11.6711 20.9512 11.922 21.3505C12.1412 21.6812 12.3363 22.0285 12.5057 22.3895C12.4195 22.355 12.34 22.3045 12.2713 22.2403C12.2904 22.2932 12.2904 22.3515 12.2713 22.4044C12.2187 22.5684 11.9268 22.643 11.7929 22.5883C11.5961 22.4833 11.4232 22.3358 11.2857 22.1558C11.184 22.068 11.1175 21.9439 11.0991 21.8078H11.0465C10.702 21.6339 10.5298 21.1815 10.3193 20.8733C10.2448 20.785 10.1966 20.6762 10.1805 20.5601C10.1583 20.5741 10.1395 20.5931 10.1253 20.6158C10.1112 20.6384 10.1022 20.6641 10.099 20.6909C10.0958 20.7177 10.0984 20.7448 10.1067 20.7704C10.1151 20.7959 10.1288 20.8192 10.147 20.8385C10.3813 21.2678 10.6485 21.6767 10.946 22.0614C11.2174 22.3357 11.4715 22.6279 11.7067 22.9363H11.6685C11.6206 23.6869 10.6446 22.6927 10.5106 22.5684L9.9126 22.0365C9.74514 21.8923 9.49635 21.7979 9.34325 21.6438L9.30976 21.5941C9.21886 21.6786 9.30976 21.8178 9.70208 22.0663C10.1805 22.3944 10.8216 23.2544 11.5632 24.0896C12.3048 24.9247 12.8694 24.8154 12.9746 24.9595C13.0766 25.1828 13.1522 25.4182 13.1995 25.6605C14.7353 25.6853 14.9697 24.8402 14.9697 24.8402C14.8562 24.6627 14.7736 24.4658 14.7257 24.2586C14.8447 24.203 14.9515 24.1228 15.0395 24.0228C15.1275 23.9227 15.195 23.8051 15.2376 23.677C15.283 23.5157 15.3024 23.3477 15.295 23.1799C15.2525 23.3479 15.1638 23.4994 15.0397 23.616C14.9157 23.7325 14.7617 23.8089 14.5965 23.8361Z" fill="#D9AE91"/>
</g>
<g style="mix-blend-mode:multiply" opacity="0.6">
<path d="M14.3622 24.8055C14.0751 24.8851 13.6445 25.1287 13.3527 24.9895C13.0608 24.8503 13.4579 24.6365 13.5632 24.5719C13.7171 24.4406 13.9022 24.3547 14.099 24.3233C14.3102 24.3205 14.521 24.3056 14.7306 24.2786C14.9403 24.175 15.1093 23.9994 15.209 23.7815C15.1684 23.8271 15.1253 23.8703 15.0798 23.9107C14.7258 24.214 14.3048 24.0947 13.8885 24.0798C13.75 24.2594 13.5697 24.3994 13.3645 24.4864C13.1594 24.5734 12.9363 24.6045 12.7163 24.5769C12.4877 24.5523 12.2722 24.4537 12.1005 24.2949C11.9288 24.1361 11.8094 23.9252 11.7595 23.692C11.773 23.4294 11.8549 23.1755 11.9964 22.9575C12.138 22.7395 12.3339 22.5655 12.5632 22.4542C12.8982 22.2164 13.2638 22.0289 13.6493 21.8974H13.611C13.509 21.9259 13.4096 21.9642 13.3144 22.0118C12.966 22.1576 12.6258 22.3235 12.2953 22.5089C12.0824 22.6317 11.8979 22.8013 11.7547 23.006C11.7042 23.1079 11.6397 23.2017 11.5633 23.2844C11.4581 23.3788 11.2954 23.5081 11.1901 23.3888C9.85528 21.9571 9.43425 21.8229 9.27637 21.7234C9.39053 21.8627 9.52838 21.979 9.68304 22.0665C10.1615 22.3946 10.8026 23.2546 11.5442 24.0897C12.2858 24.9248 12.8503 24.8155 12.9556 24.9596C13.0576 25.1829 13.1331 25.4183 13.1804 25.6606C14.7162 25.6854 14.9507 24.8403 14.9507 24.8403C14.9058 24.7784 14.8673 24.7118 14.8358 24.6415L14.3622 24.8055Z" fill="#D9AE91"/>
</g>
<path d="M40.8153 39.1372C40.2108 39.1184 39.6065 39.1785 39.0164 39.3162C38.9519 39.2512 38.8752 39.2007 38.7911 39.1679C38.707 39.135 38.6173 39.1204 38.5276 39.1251C38.4378 39.1298 38.35 39.1535 38.2695 39.1949C38.1889 39.2364 38.1175 39.2946 38.0595 39.3659C37.7114 39.0176 37.3913 38.6402 37.1026 38.2374C36.7284 38.5875 36.3059 38.8773 35.8491 39.0974C36.3276 39.7785 36.696 40.211 36.7151 40.2308C36.7342 40.2507 36.4424 40.6882 36.6194 41.3096C36.7964 41.931 37.9782 41.9906 38.1361 42.0552C38.4202 42.3626 38.6115 42.7497 38.6863 43.1688C38.825 43.6957 39.3082 43.9393 39.4374 43.482C39.4665 43.0257 39.379 42.5695 39.1838 42.1596C39.5007 42.4633 39.7905 42.7961 40.0498 43.1539C40.4613 43.7206 41.0067 43.1787 40.6861 42.5673C40.4154 42.1126 40.0667 41.7133 39.6575 41.3891C40.0401 41.4221 40.4055 41.5687 40.7101 41.8117C41.1311 42.1895 41.7387 42.8059 42.0019 42.4032C42.265 42.0006 41.8535 41.409 41.2459 41.061C40.83 40.835 40.3982 40.6423 39.9541 40.4844C40.3247 40.5904 40.7179 40.573 41.0785 40.4347C41.3182 40.4985 41.5365 40.6291 41.71 40.8125C42.0449 41.1058 42.5329 41.3643 42.7147 40.897C42.8965 40.4297 41.5569 39.2167 40.8153 39.1372Z" fill="#F5AE80"/>
<path d="M40.8153 39.1372C40.2108 39.1184 39.6065 39.1785 39.0164 39.3162C38.9519 39.2512 38.8752 39.2007 38.7911 39.1679C38.707 39.135 38.6173 39.1204 38.5276 39.1251C38.4378 39.1298 38.35 39.1535 38.2695 39.1949C38.1889 39.2364 38.1175 39.2946 38.0595 39.3659C37.7114 39.0176 37.3913 38.6402 37.1026 38.2374C36.7284 38.5875 36.3059 38.8773 35.8491 39.0974C36.3276 39.7785 36.696 40.211 36.7151 40.2308C36.7342 40.2507 36.4424 40.6882 36.6194 41.3096C36.7964 41.931 37.9782 41.9906 38.1361 42.0552C38.4202 42.3626 38.6115 42.7497 38.6863 43.1688C38.825 43.6957 39.3082 43.9393 39.4374 43.482C39.4665 43.0257 39.379 42.5695 39.1838 42.1596C39.5007 42.4633 39.7905 42.7961 40.0498 43.1539C40.4613 43.7206 41.0067 43.1787 40.6861 42.5673C40.4154 42.1126 40.0667 41.7133 39.6575 41.3891C40.0401 41.4221 40.4055 41.5687 40.7101 41.8117C41.1311 42.1895 41.7387 42.8059 42.0019 42.4032C42.265 42.0006 41.8535 41.409 41.2459 41.061C40.83 40.835 40.3982 40.6423 39.9541 40.4844C40.3247 40.5904 40.7179 40.573 41.0785 40.4347C41.3182 40.4985 41.5365 40.6291 41.71 40.8125C42.0449 41.1058 42.5329 41.3643 42.7147 40.897C42.8965 40.4297 41.5569 39.2167 40.8153 39.1372Z" fill="#F5AE80"/>
<g style="mix-blend-mode:multiply">
<g style="mix-blend-mode:multiply">
<path d="M37.8964 39.2018C37.6032 38.9013 37.3313 38.579 37.0831 38.2374C36.7089 38.5875 36.2864 38.8773 35.8296 39.0974C36.2171 39.6343 36.5185 40.0121 36.6382 40.1612C37.1393 39.9769 37.5769 39.6432 37.8964 39.2018Z" fill="#D9AE91"/>
</g>
</g>
<g style="mix-blend-mode:multiply" opacity="0.5">
<g style="mix-blend-mode:multiply" opacity="0.4">
<path d="M41.6571 39.6741C41.5723 39.5603 41.4493 39.484 41.3126 39.4603C41.1822 39.4313 41.0488 39.4196 40.9155 39.4255C40.6476 39.4255 40.3892 39.4554 40.1404 39.4703C40.0161 39.4703 39.8965 39.4703 39.7864 39.4703C39.6814 39.4805 39.5757 39.4805 39.4706 39.4703H39.3319L39.2123 39.4305C39.1485 39.4061 39.0875 39.3744 39.0305 39.3361L38.8678 39.2466L39.0209 39.3559L39.2027 39.4603L39.3223 39.5051L39.4611 39.5449C39.5663 39.5449 39.6716 39.5449 39.7864 39.5449C39.9059 39.5523 40.0257 39.5523 40.1452 39.5449C40.3892 39.5449 40.6524 39.5449 40.9155 39.515C41.0426 39.4976 41.1712 39.4976 41.2983 39.515C41.4126 39.5344 41.5163 39.5962 41.5901 39.689C41.6619 39.7785 41.5901 39.9028 41.5423 39.9922C41.4758 40.074 41.4003 40.1474 41.3174 40.211C41.1899 40.3073 41.0518 40.3874 40.906 40.4496L40.7337 40.5043H40.7816L40.9107 40.4744C41.0656 40.427 41.2125 40.3549 41.3461 40.2607C41.4373 40.2006 41.5196 40.1269 41.5901 40.042C41.6333 39.9923 41.6644 39.9326 41.681 39.868C41.6883 39.8336 41.6883 39.798 41.681 39.7636C41.6778 39.7326 41.6697 39.7024 41.6571 39.6741Z" fill="#A5693C"/>
</g>
<g style="mix-blend-mode:multiply" opacity="0.4">
<path d="M39.6189 40.2756L39.5759 40.2458V40.3005C39.5336 40.4289 39.4723 40.5496 39.3941 40.6584C39.351 40.7098 39.3029 40.7564 39.2505 40.7976L39.174 40.8473L39.0783 40.8821H38.9874H38.8869C38.8217 40.8893 38.756 40.8893 38.6908 40.8821C38.5565 40.8586 38.4249 40.8203 38.2985 40.7677C38.4185 40.8397 38.5472 40.8949 38.6812 40.9318C38.7489 40.9486 38.8176 40.9602 38.8869 40.9666H38.9922H39.1022C39.1366 40.958 39.1702 40.9464 39.2027 40.9318C39.2362 40.9149 39.2683 40.8949 39.2984 40.8722C39.3597 40.8333 39.4133 40.7827 39.4563 40.723C39.537 40.6204 39.5972 40.5021 39.6333 40.375C39.7096 40.4272 39.7936 40.4659 39.8821 40.4894C39.8892 40.6726 39.8599 40.8554 39.796 41.0263C39.7716 41.089 39.7411 41.1489 39.7051 41.2052C39.6735 41.2588 39.6366 41.3087 39.595 41.3544C39.5687 41.388 39.5399 41.4196 39.5089 41.4488L39.4754 41.4886H39.5185C39.5472 41.4637 39.5902 41.4488 39.6333 41.409C39.6552 41.3905 39.676 41.3706 39.6955 41.3494C39.7202 41.327 39.7427 41.302 39.7625 41.2748C39.7848 41.2445 39.8056 41.213 39.8247 41.1804C39.8426 41.1466 39.8585 41.1117 39.8725 41.076C39.9231 40.9452 39.9412 40.8033 39.9251 40.6634C39.9213 40.6126 39.9117 40.5626 39.8964 40.5142L40.0017 40.5391C40.1433 40.5688 40.2881 40.5788 40.4323 40.5689C40.2897 40.5573 40.1486 40.5307 40.0113 40.4894C39.8683 40.4454 39.7351 40.3728 39.6189 40.2756Z" fill="#A5693C"/>
</g>
<g style="mix-blend-mode:multiply" opacity="0.4">
<path d="M38.1502 39.2814C38.1141 39.2934 38.0789 39.3084 38.045 39.3261L37.9493 39.3858L37.8488 39.4753C37.8162 39.5042 37.7858 39.5358 37.7579 39.5697C37.734 39.5988 37.7131 39.6304 37.6957 39.6641C37.6736 39.6953 37.6544 39.7286 37.6383 39.7636L37.7292 39.694L37.8153 39.6194L37.9062 39.5349L38.0785 39.3708L38.1502 39.2814Z" fill="#A5693C"/>
</g>
</g>
<g style="mix-blend-mode:multiply" opacity="0.6">
<g style="mix-blend-mode:multiply" opacity="0.6">
<path d="M39.844 39.52C40.2172 39.52 40.5999 39.4255 40.9731 39.4454H40.7674C40.5042 39.4454 40.2315 39.4454 39.9684 39.4454C39.8057 39.4454 39.49 39.4454 39.3656 39.2764C39.155 39.3112 39.0163 39.346 39.0163 39.346L38.9541 39.3012C39.0319 39.3778 39.125 39.4355 39.2268 39.4702C39.4297 39.5139 39.6371 39.5306 39.844 39.52Z" fill="#D9AE91"/>
</g>
</g>
<g style="mix-blend-mode:multiply" opacity="0.6">
<g style="mix-blend-mode:multiply" opacity="0.6">
<path d="M42.6237 40.9319C42.5345 40.9719 42.4349 40.9795 42.3411 40.9533C42.2473 40.9271 42.1648 40.8688 42.1069 40.7877C41.9249 40.6346 41.7805 40.4387 41.6859 40.216C41.6808 40.1988 41.6819 40.1803 41.6889 40.1638C41.696 40.1474 41.7085 40.1342 41.7242 40.1266C41.8629 39.9227 41.7768 39.7736 41.6094 39.6642C41.6218 39.703 41.6218 39.7448 41.6094 39.7836C41.6122 39.795 41.6122 39.8069 41.6094 39.8183C41.5663 40.1265 41.0592 40.226 40.8247 40.2707C40.6194 40.3363 40.4009 40.3432 40.1921 40.2907C39.9833 40.2382 39.792 40.1283 39.6382 39.9725C39.4369 40.0709 39.2123 40.106 38.9921 40.0733C38.7719 40.0406 38.5657 39.9416 38.399 39.7885C38.2699 39.6692 38.1024 39.4753 38.1933 39.2914L38.2364 39.2119C38.163 39.2553 38.098 39.3126 38.045 39.3809C37.6968 39.0326 37.3768 38.6552 37.0881 38.2524C36.7139 38.6025 36.2914 38.8923 35.8346 39.1124C36.313 39.7935 36.6814 40.226 36.7006 40.2459C36.7197 40.2657 36.4279 40.7032 36.6049 41.3246C36.7819 41.946 37.9637 42.0056 38.1215 42.0703C38.4056 42.3776 38.5969 42.7648 38.6717 43.1838C38.8105 43.7107 39.2937 43.9543 39.4229 43.497C39.452 43.0407 39.3645 42.5845 39.1693 42.1747C39.4861 42.4784 39.776 42.8111 40.0353 43.1689C40.2937 43.5218 40.5855 43.4423 40.7051 43.1689C40.509 43.323 40.3654 43.0148 40.2697 42.8557C40.1341 42.6253 39.9736 42.4119 39.7913 42.2194C39.6956 42.1249 39.5425 41.9907 39.5186 41.8466C39.4755 41.603 39.6334 41.5234 39.8152 41.5384C39.7577 41.4832 39.697 41.4317 39.6334 41.3842C40.016 41.4172 40.3814 41.5639 40.686 41.8068C41.107 42.1846 41.7146 42.801 41.9778 42.3983C41.996 42.3689 42.0104 42.3372 42.0208 42.3039L41.9538 42.3387C41.7625 42.3934 41.528 42.0355 41.4371 41.9112C41.237 41.58 40.9273 41.336 40.5664 41.2252C40.3919 41.1834 40.2285 41.1019 40.0879 40.9866C39.887 40.8126 40.0353 40.5889 40.3654 40.6435L39.9396 40.4795C40.3102 40.5855 40.7034 40.5681 41.0639 40.4298C41.3036 40.4936 41.522 40.6243 41.6955 40.8076C42.0304 41.1009 42.5184 41.3594 42.7002 40.8921C42.7002 40.8921 42.7002 40.8673 42.7002 40.8523C42.6815 40.8851 42.6551 40.9124 42.6237 40.9319Z" fill="#D9AE91"/>
</g>
</g>
<g style="mix-blend-mode:multiply" opacity="0.6">
<g style="mix-blend-mode:multiply" opacity="0.6">
<path d="M40.1931 43.2582C39.9204 42.94 39.7386 42.5523 39.4516 42.264C39.332 42.1397 39.1167 41.9309 39.2841 41.7669C39.4516 41.6028 39.552 41.5879 39.6525 41.4189C39.7404 41.268 39.7928 41.0977 39.8056 40.9218C39.6853 41.17 39.5088 41.3843 39.2913 41.5462C39.0738 41.7081 38.8218 41.8128 38.5569 41.8514C38.0306 41.9558 38.5569 41.8215 38.9109 41.5481C39.2224 41.2995 39.4269 40.9333 39.4803 40.5291C39.4283 40.6407 39.3536 40.7393 39.2615 40.8182C39.1693 40.8971 39.0618 40.9543 38.9464 40.9859C38.8309 41.0176 38.7103 41.0229 38.5927 41.0015C38.4751 40.9801 38.3633 40.9326 38.265 40.8621C37.9684 40.6732 37.6191 40.4247 37.6622 40.017C37.6734 39.8923 37.7093 39.7714 37.7678 39.6618C37.8262 39.5523 37.906 39.4566 38.0019 39.3807C37.657 39.0434 37.3371 38.6795 37.045 38.2921C36.6708 38.6421 36.2483 38.9319 35.7915 39.152C36.2699 39.8331 36.6383 40.2656 36.6575 40.2855C36.6766 40.3053 36.3848 40.7428 36.5618 41.3642C36.7388 41.9856 37.9206 42.0452 38.0784 42.1099C38.3626 42.4173 38.5538 42.8043 38.6286 43.2234C38.753 43.7205 39.1645 43.9442 39.3367 43.6459C39.2784 43.6703 39.2133 43.6703 39.1549 43.6459C39.0868 43.6078 39.0285 43.5531 38.9852 43.4864C38.9418 43.4197 38.9147 43.3431 38.9061 43.2632C38.8453 43.0165 38.7502 42.7804 38.6239 42.5622C38.5377 42.4032 38.3368 41.9856 38.7004 42.0353C39.064 42.085 39.1789 42.3435 39.2745 42.6169C39.198 42.3932 39.1262 42.2242 39.1262 42.2242C39.443 42.5279 39.7329 42.8607 39.9922 43.2184C40.0278 43.2798 40.0757 43.3324 40.1327 43.3727C40.1897 43.4131 40.2543 43.4401 40.3223 43.4521C40.2649 43.3991 40.2206 43.3326 40.1931 43.2582Z" fill="#D9AE91"/>
</g>
</g>
<path d="M20.1369 38.3766C20.1369 38.3766 24.1605 40.9566 29.2272 38.2275C30.0711 40.1201 30.648 42.1292 30.94 44.1928C31.4998 47.8267 31.8969 56.7598 32.5859 59.5237C32.2394 59.7497 31.8464 59.8873 31.4389 59.9254C31.0315 59.9634 30.6212 59.9007 30.2415 59.7424C30.2415 59.7424 25.4188 44.3718 24.5002 43.5416C24.5002 43.5416 22.8879 49.5318 23.7299 60.0705C22.7286 60.3113 21.6777 60.1812 20.7588 59.7027C20.7588 59.7027 17.3763 44.0437 20.1369 38.3766Z" fill="#17293B"/>
<g style="mix-blend-mode:multiply" opacity="0.3">
<path d="M31.964 59.3995C31.6673 59.3995 31.5573 58.8129 31.4855 58.614C31.0684 57.1573 30.7486 55.6724 30.5287 54.1699C30.4043 53.449 30.2703 52.7382 30.0933 52.0273C29.9164 51.4677 29.8307 50.8813 29.8397 50.2924C29.8339 50.0927 29.8836 49.8956 29.9829 49.7245C30.0822 49.5535 30.2268 49.4158 30.3995 49.328C30.7284 49.19 31.0783 49.1143 31.4329 49.1043C31.2607 47.1606 31.0932 45.3859 30.9066 44.1879C30.6146 42.1242 30.0377 40.1151 29.1938 38.2225C24.1271 40.9517 20.1035 38.3717 20.1035 38.3717C18.8404 40.9616 18.8643 45.6444 19.2662 49.9643C19.9073 50.0737 20.5628 50.1084 20.7015 50.9585C20.7558 51.4419 20.767 51.9295 20.735 52.4151C20.7191 53.0608 20.7463 53.7069 20.8163 54.3488C20.9646 55.87 21.2948 57.3315 21.5053 58.8576C21.5053 59.0316 21.5962 59.3547 21.4192 59.4641C21.2421 59.5734 20.9407 59.4889 20.6824 59.3845C20.7254 59.5884 20.7541 59.7027 20.7541 59.7027C21.673 60.1812 22.7239 60.3113 23.7252 60.0706C22.8832 49.5318 24.4955 43.5416 24.4955 43.5416C25.4046 44.3718 30.2368 59.7425 30.2368 59.7425C30.6165 59.9007 31.0268 59.9634 31.4342 59.9254C31.8417 59.8874 32.2347 59.7497 32.5812 59.5237C32.5524 59.4144 32.5285 59.305 32.5046 59.1807C32.3478 59.3051 32.1604 59.3809 31.964 59.3995Z" fill="#17293B"/>
</g>
<g style="mix-blend-mode:multiply" opacity="0.6">
<path d="M23.4047 40.723C23.4478 40.5341 23.5435 40.4247 23.7157 40.4645C24.0608 40.5715 24.4178 40.6316 24.7778 40.6435C25.1271 40.6435 25.462 40.5788 25.8065 40.5391C25.8572 40.5276 25.9101 40.5347 25.9563 40.5592C26.0025 40.5837 26.0392 40.624 26.0601 40.6733C26.3328 41.3295 26.2419 42.1149 26.2993 42.8109C26.371 43.7106 26.438 44.6154 26.5146 45.5102C26.5768 46.2708 26.6198 47.0313 26.6964 47.7869C26.7825 48.6668 27.1222 49.4871 28.1317 49.4025C29.2602 49.2711 30.368 48.9904 31.4281 48.5674C31.2798 46.8424 31.1219 45.2765 30.9497 44.1879C30.6577 42.1242 30.0808 40.1151 29.2369 38.2225C24.1702 40.9517 20.1465 38.3717 20.1465 38.3717C18.9552 40.8175 18.9074 45.1324 19.2423 49.2385C19.5914 49.4064 19.955 49.5396 20.3283 49.6362C20.8725 49.7611 21.4238 49.8491 21.979 49.8997C22.577 49.9444 23.3042 49.8649 23.5147 49.1639C23.5898 48.8891 23.6269 48.6045 23.6248 48.3188C23.5578 47.1109 23.5291 45.888 23.4669 44.675C23.4143 43.8896 23.2803 41.235 23.4047 40.723Z" fill="#17293B"/>
</g>
<g style="mix-blend-mode:multiply" opacity="0.5">
<path d="M20.9601 51.4158C20.8692 48.637 21.0127 45.8382 21.1802 43.0644C21.1802 43.0395 21.1514 43.0345 21.1514 43.0644C20.8979 45.7536 20.7877 48.4554 20.8213 51.1574C20.8213 53.8964 21.338 56.6504 21.7782 59.3448H21.8165C21.582 56.6802 21.0271 54.0804 20.9601 51.4158Z" fill="#021626"/>
</g>
<g style="mix-blend-mode:multiply" opacity="0.5">
<path d="M30.7631 56.0638C30.4951 54.6768 30.2176 53.2948 29.9641 51.9029C29.7105 50.511 29.4139 49.1639 29.122 47.8565C28.8302 46.5491 28.5574 45.3162 28.1651 43.9939C28.1651 43.9641 28.1077 43.9939 28.1173 43.9939C28.4091 45.2864 28.7058 46.4795 28.9785 47.7968C29.2512 49.1141 29.5813 50.5359 29.8205 51.888C30.0598 53.2402 30.3468 54.5674 30.6195 55.9047C30.7439 56.5261 30.8492 57.1375 30.9784 57.7539C31.1075 58.3703 31.3707 59.797 31.3611 59.7424C31.1362 57.8086 30.8922 56.71 30.7631 56.0638Z" fill="#021626"/>
</g>
<path d="M23.4575 25.407L22.3954 26.605C22.3954 26.605 21.8356 32.0732 24.2852 31.9838C26.7349 31.8943 27.1176 28.5636 27.1176 26.605L26.3138 25.2976L23.4575 25.407Z" fill="#FDC088"/>
<g style="mix-blend-mode:multiply">
<g style="mix-blend-mode:multiply">
<path d="M23.4575 25.407L22.3954 26.605C22.3954 26.605 21.8356 32.0732 24.2852 31.9838C26.7349 31.8943 27.1176 28.5636 27.1176 26.605L26.3138 25.2976L23.4575 25.407Z" fill="#D9AE91"/>
</g>
</g>
<path d="M23.0747 25.9837C23.0747 25.9837 23.7015 27.9125 24.5435 27.7286C25.3856 27.5446 26.7444 26.0583 26.7444 26.0583C26.7444 26.0583 27.5146 27.3309 27.5816 30.5323C27.6486 33.7337 28.0601 38.486 28.0601 38.486C28.0601 38.486 24.4957 41.7918 20.8835 38.4512C20.9074 38.4512 20.5581 27.4054 23.0747 25.9837Z" fill="#60BFBB"/>
<g style="mix-blend-mode:multiply" opacity="0.5">
<path d="M23.2945 38.8638C23.2275 38.327 23.218 37.7802 23.1988 37.2383C23.1606 36.0601 23.1223 34.882 23.1462 33.7038C23.1701 32.5257 23.2323 31.3227 23.2515 30.1296C23.2515 29.1801 23.3759 27.9721 23.395 27.2712C23.395 27.2215 23.4668 27.1966 23.5098 27.2215C23.7682 27.3806 23.9883 27.8081 24.2897 27.8578C24.8112 27.9523 25.414 27.4054 25.792 27.0923C25.8303 27.0624 26.0121 26.9481 26.0121 27.0028C26.0121 27.4154 26.0408 27.9672 26.0121 28.3897C25.9547 29.0061 25.9594 29.6176 25.9547 30.234C25.9547 31.6508 25.835 33.0526 25.8159 34.4694C25.8063 35.9138 25.8734 37.3576 26.0169 38.7942C26.0169 39.0726 26.0838 39.346 26.1269 39.6244C26.8389 39.3684 27.5015 38.983 28.0837 38.486C28.0837 38.486 27.6627 33.7237 27.6053 30.5323C27.5479 27.3408 26.768 26.0583 26.768 26.0583C26.768 26.0583 25.4044 27.5496 24.5672 27.7286C23.7299 27.9075 23.0984 25.9837 23.0984 25.9837C20.5818 27.4054 20.931 38.4512 20.931 38.4512C21.6408 39.1431 22.5167 39.6239 23.4668 39.8432C23.3998 39.5151 23.3519 39.1919 23.2945 38.8638Z" fill="#5FA2BB"/>
</g>
<path d="M20.9075 37.8645C20.9075 37.8645 24.4384 40.6633 28.9501 37.5016L29.1606 39.1371C29.1606 39.1371 24.0508 41.8613 20.7305 38.8488L20.9075 37.8645Z" fill="#4D2A11"/>
<g style="mix-blend-mode:multiply" opacity="0.4">
<path d="M28.9501 37.5016C24.4384 40.6633 20.9075 37.8645 20.9075 37.8645L20.7305 38.8587C24.0508 41.8712 29.1606 39.1471 29.1606 39.1471L28.9501 37.5016ZM26.0124 39.9872C25.9072 40.0866 25.7015 40.0717 25.5771 40.0816C25.2996 40.0816 25.0269 40.1264 24.7541 40.1363C24.3078 40.1536 23.861 40.1136 23.4241 40.017C23.1657 39.9524 22.9983 39.8778 22.9456 39.5845C22.9114 39.4934 22.9018 39.3943 22.9178 39.298C22.9338 39.2016 22.9749 39.1116 23.0365 39.0377C23.0411 39.0174 23.0532 38.9997 23.0702 38.9885C23.0872 38.9774 23.1078 38.9736 23.1275 38.9781C23.6877 39.1186 24.2667 39.1606 24.8403 39.1023C25.1551 39.0336 25.4755 38.9954 25.7971 38.988C26.2469 39.0129 26.2756 39.7337 26.0124 39.9772V39.9872Z" fill="#4D2A11"/>
</g>
<path d="M15.4148 24.4625C15.4148 24.4625 16.1133 26.8237 16.8166 27.6937C17.7934 27.4955 18.7534 27.2163 19.6872 26.8585C21.1895 26.2769 22.3426 25.7301 22.8688 25.8643C22.8688 25.8643 23.1846 25.7898 23.0794 26.2968C22.9741 26.8039 22.4861 35.2448 22.6248 37.959C22.7636 40.6732 23.2899 46.2061 23.3951 47.2997C23.5004 48.3934 23.8736 50.1681 21.2613 49.7853C18.649 49.4025 17.8357 48.4033 17.7974 48.0404C17.7591 47.6775 17.6251 43.2085 17.6586 40.0867C17.6921 36.9648 18.85 31.1884 18.9504 30.7161C18.0272 31.1323 17.0653 31.4488 16.0798 31.6606C15.209 31.7302 13.8455 32.6549 12.4102 25.6953L15.4148 24.4625Z" fill="#F3F3F3"/>
<path d="M15.4148 24.4625C15.4148 24.4625 16.1133 26.8237 16.8166 27.6937C17.7934 27.4955 18.7534 27.2163 19.6872 26.8585C21.1895 26.2769 22.3426 25.7301 22.8688 25.8643C22.8688 25.8643 23.1846 25.7898 23.0794 26.2968C22.9741 26.8039 22.4861 35.2448 22.6248 37.959C22.7636 40.6732 23.2899 46.2061 23.3951 47.2997C23.5004 48.3934 23.8736 50.1681 21.2613 49.7853C18.649 49.4025 17.8357 48.4033 17.7974 48.0404C17.7591 47.6775 17.6251 43.2085 17.6586 40.0867C17.6921 36.9648 18.85 31.1884 18.9504 30.7161C18.0272 31.1323 17.0653 31.4488 16.0798 31.6606C15.209 31.7302 13.8455 32.6549 12.4102 25.6953L15.4148 24.4625Z" fill="#F3F3F3"/>
<g style="mix-blend-mode:multiply" opacity="0.5">
<path d="M15.3862 24.4874C15.5202 25.5164 16.0848 26.446 16.4866 27.3806C16.563 27.5343 16.6028 27.7048 16.6028 27.8777C16.6028 28.0507 16.563 28.2211 16.4866 28.3748C16.4718 28.4088 16.459 28.4436 16.4484 28.4792C16.5069 28.347 16.574 28.2191 16.6493 28.0965C16.678 28.0418 16.7785 28.0418 16.7928 28.0965C16.8359 28.4345 16.8503 28.7775 16.8742 29.1155C16.86 28.8322 16.9043 28.5489 17.0041 28.2849C17.104 28.0208 17.257 27.7819 17.4531 27.5844L17.5344 27.5248C17.0943 27.6341 16.8215 27.6839 16.8215 27.6839C16.1182 26.8139 15.4197 24.4526 15.4197 24.4526H15.391L15.3862 24.4874Z" fill="#91959C"/>
</g>
<g style="mix-blend-mode:multiply" opacity="0.5">
<path d="M22.6199 37.9741C22.4811 35.2499 22.9691 26.8239 23.0744 26.3119C23.1796 25.7998 22.8734 25.8595 22.8734 25.8595C22.7379 25.8285 22.5975 25.8285 22.462 25.8595C22.1934 26.0017 21.9372 26.1681 21.6965 26.3566C20.3903 27.4403 20.0124 27.2315 20.4286 28.0567C20.6152 28.4445 20.9645 29.051 21.1606 29.4238C21.2127 29.512 21.2327 29.6166 21.2169 29.7188C21.2011 29.8209 21.1506 29.9138 21.0745 29.9805C20.7587 30.3882 19.8449 31.1637 19.5865 31.616C19.4669 31.8348 19.6583 31.8745 19.7971 32.1131C20.3541 33.149 20.8557 34.2162 21.2994 35.3096C21.7366 36.4928 22.0791 37.7116 22.3232 38.9534C22.5456 40.0158 22.6896 41.0944 22.7538 42.1796C22.8064 42.8855 22.8926 43.5865 22.9213 44.2973C22.9596 45.3313 23.0026 47.3397 21.7156 47.6528C20.8865 47.7765 20.0407 47.6361 19.2899 47.2502C18.9948 47.1677 18.7255 47.0064 18.5089 46.7822C18.2924 46.5581 18.1361 46.279 18.0555 45.9726C17.9162 45.0772 17.8601 44.1699 17.8881 43.2634C17.8881 41.772 17.9455 40.395 17.979 39.197C18.0555 36.6269 18.4574 35.2201 18.8737 32.7097C19.0476 31.4777 19.3115 30.2612 19.6631 29.0708C19.928 28.2733 20.2314 27.4902 20.5721 26.7245C20.3712 26.9879 19.5818 28.519 19.376 28.9515C19.1703 29.384 19.089 29.9457 18.7493 30.08C18.1363 30.3524 17.4936 30.546 16.8355 30.6566C16.2853 30.7411 15.8069 30.9499 15.2997 30.6566C14.7926 30.3633 14.5294 29.6326 14.2759 29.0659C13.8704 28.1777 13.5499 27.2503 13.319 26.297C13.1898 25.6855 13.008 25.5016 13.6013 25.2431C13.7093 25.1939 13.8133 25.1357 13.9123 25.0691L12.3765 25.7153C13.8118 32.6749 15.1753 31.7453 16.0461 31.6807C17.0316 31.4688 17.9935 31.1523 18.9167 30.7362C18.8163 31.2084 17.6632 36.9848 17.6249 40.1067C17.5867 43.2286 17.7302 47.7026 17.7637 48.0605C17.7972 48.4184 18.6057 49.4424 21.2276 49.8053C23.8494 50.1682 23.4667 48.3886 23.3614 47.3198C23.2562 46.251 22.7634 40.6983 22.6199 37.9741Z" fill="#91959C"/>
</g>
<path d="M26.3279 25.6953C26.3279 25.6953 26.0791 32.5952 26.2179 37.1288C26.3566 41.6625 26.9547 47.1207 27.0934 47.9907C27.2322 48.8606 27.6197 49.0843 28.6675 49.0446C29.9659 48.983 31.2517 48.7525 32.495 48.3586C33.2318 48.0305 33.7868 47.9907 33.1217 45.7785C32.4567 43.5664 31.4807 40.7279 31.2367 39.9275C30.9927 39.1272 31.0262 38.9333 30.9592 37.6359C30.8922 36.3384 30.7104 32.6996 30.7104 32.6996C30.7104 32.6996 35.2939 40.1065 35.6431 40.4346C36.7274 39.8231 37.7459 39.0932 38.6812 38.2573C38.6812 38.2573 34.9111 33.0227 34.2078 31.934C33.5045 30.8453 31.4472 27.5395 30.3803 26.774C29.3134 26.0084 26.7441 25.223 26.3279 25.6953Z" fill="#F3F3F3"/>
<g style="mix-blend-mode:multiply" opacity="0.5">
<path d="M36.2699 39.7785C36.2451 39.7876 36.2181 39.7876 36.1933 39.7785C35.777 39.3339 35.4081 38.8439 35.0929 38.317C34.6942 37.7172 34.3035 37.1107 33.9207 36.4976C33.2031 35.3542 32.4328 34.2208 31.7869 33.0178C31.2654 32.0634 30.7583 32.1181 30.1889 27.7087C30.5812 30.8206 30.5717 34.3352 30.6673 35.2548C30.7417 36.164 30.7705 37.0766 30.7535 37.9889C30.7535 38.8638 29.1985 36.3485 28.9354 35.911C29.2155 36.5924 29.5483 37.2491 29.9306 37.8746C30.3948 38.6339 30.7873 39.4379 31.1027 40.2756C31.4041 41.1867 31.6502 42.1164 31.8395 43.0595C32.0357 43.9294 32.2797 44.7795 32.4902 45.6444C32.6337 46.241 32.5668 46.6735 31.9448 46.8673C31.4188 47.0193 30.8808 47.1224 30.3372 47.1755C29.9018 47.2302 29.476 47.3446 29.0407 47.3744C28.7212 47.4295 28.3932 47.3667 28.1136 47.1969C27.834 47.0271 27.6203 46.761 27.5096 46.4448C27.1365 45.4506 26.7776 41.1009 26.7011 39.9824C26.6082 38.9118 26.6695 37.8328 26.8829 36.781C27.1727 35.6793 27.5854 34.6166 28.1125 33.6144C28.4965 32.8239 28.9214 32.0556 29.3851 31.3127C29.0882 30.9202 28.7686 30.5467 28.4283 30.1942C28.4181 30.1798 28.4127 30.1624 28.4127 30.1445C28.4127 30.1267 28.4181 30.1093 28.4283 30.0948C28.8265 29.4659 29.3324 28.9183 29.921 28.4792C29.1746 27.3985 28.3001 26.4197 27.3183 25.5661C26.8398 25.4916 26.4619 25.5114 26.3279 25.6656C26.3279 25.6656 26.0791 32.5655 26.2179 37.0991C26.3566 41.6328 26.9547 47.091 27.0934 47.961C27.2322 48.8309 27.6197 49.0546 28.6675 49.0148C29.9659 48.9532 31.2517 48.7228 32.495 48.3288C33.2318 48.0008 33.7868 47.961 33.1217 45.7488C32.4567 43.5367 31.4807 40.6982 31.2367 39.8978C30.9927 39.0975 31.0262 38.9036 30.9592 37.6062C30.8922 36.3087 30.7104 32.6699 30.7104 32.6699C30.7104 32.6699 35.2939 40.0768 35.6431 40.4049C36.7274 39.7934 37.7459 39.0635 38.6812 38.2276L38.6525 38.1778C37.9467 38.8415 37.142 39.3821 36.2699 39.7785Z" fill="#91959C"/>
</g>
<path d="M23.4428 25.7897C23.4428 25.7897 22.8735 30.3333 22.6008 37.3923C22.6008 37.3923 22.0936 35.9954 21.797 34.9067C21.3852 33.6658 20.7772 32.5049 19.998 31.4717C20.5326 30.8557 21.1186 30.2901 21.7491 29.7815C21.7491 29.7815 20.7157 27.8776 20.3138 27.5495C20.3282 27.5296 22.8304 25.2031 23.4428 25.7897Z" fill="#F3F3F3"/>
<path d="M26.2228 36.8854C26.2228 36.8854 27.3998 33.5249 29.1461 31.2929C29.1461 31.2929 28.2179 30.3285 27.7969 29.9656C27.7969 29.9656 29.0025 28.8372 29.4762 28.3301C28.7095 27.3082 27.8681 26.3493 26.9596 25.4618C26.0027 24.6614 26.1558 25.3872 26.1558 26.5853C26.1558 27.7833 25.9405 32.0734 26.2228 36.8854Z" fill="#F3F3F3"/>
<g style="mix-blend-mode:multiply" opacity="0.5">
<path d="M22.6198 27.6241C23.3806 28.0467 24.3661 28.4841 25.2513 28.2356C26.1564 27.8897 26.9979 27.3853 27.7391 26.7443C28.0788 26.4907 28.4137 26.2471 28.7391 25.9638C28.2018 25.7648 27.645 25.6281 27.0789 25.5562L26.9545 25.4518C26.4761 25.0342 26.2655 25.0292 26.189 25.2927L23.4571 25.3971L23.2035 25.6854C22.9932 25.6915 22.787 25.7477 22.6007 25.8495C21.997 25.9483 21.4083 26.1288 20.8496 26.3863C21.411 26.8415 22.0026 27.2552 22.6198 27.6241Z" fill="#91959C"/>
</g>
<path d="M17.8785 20.4856C17.2463 18.9492 16.7311 17.3635 16.3379 15.7432C16.0496 14.5885 15.8401 13.414 15.7112 12.2286C15.7112 12.0148 15.2327 11.8906 15.2327 11.8906C15.2327 11.8906 15.4672 11.2592 15.8164 11.1648L14.9265 11.0206C15.2435 10.4609 15.7587 10.0523 16.3619 9.88223C15.7329 9.47324 15.2052 8.91643 14.8213 8.25668C14.8213 8.25668 15.7782 8.86316 16.3858 8.71899C16.9934 8.57483 17.9216 7.82419 19.5052 7.02384C21.0888 6.2235 23.3327 4.53829 27.7822 4.64766C29.4137 4.69737 31.3753 5.47286 31.8872 7.29229C32.5089 7.23816 33.1347 7.26992 33.7484 7.38674C34.777 7.58061 35.4755 11.0902 36.2458 11.5525H35.6382C35.6382 11.5525 36.2219 12.0496 36.2889 12.3728C36.0418 12.3292 35.7895 12.3292 35.5425 12.3728L35.9205 12.7108C35.9205 12.7108 35.1741 12.9494 35.0784 13.3372C34.7083 14.8114 34.4129 16.3048 34.1933 17.8112C34.1215 18.8501 30.5572 21.7334 30.2749 21.8328C29.9926 21.9322 17.8785 20.4856 17.8785 20.4856Z" fill="#30160A"/>
<g style="mix-blend-mode:screen" opacity="0.5">
<g style="mix-blend-mode:screen" opacity="0.5">
<path d="M22.0411 6.0644C21.5244 6.34279 21.0507 6.70071 20.5531 7.00395C19.8594 7.42152 17.1706 9.98661 15.7305 8.91286C16.5677 9.53424 17.716 9.51932 18.7399 9.55909C17.8919 10.016 16.9821 10.3361 16.0415 10.5086C16.7709 10.7206 17.5337 10.7797 18.2853 10.6826C17.6892 10.9075 17.0717 11.0658 16.4433 11.1548C17.12 11.4678 17.8322 11.6899 18.5628 11.816C20.2612 12.1693 21.9963 12.2929 23.7252 12.1838C25.6772 11.985 28.8923 11.2145 30.342 9.69828C29.7336 9.57961 29.1182 9.50322 28.5 9.46962C28.079 9.41493 27.0647 9.26579 27.1843 8.63943C27.3757 7.70487 28.7057 7.54579 30.4281 8.14232C29.4043 6.96914 28.878 7.29724 28.4809 6.93435C28.0024 6.48695 30.275 6.43725 30.6004 6.83493C29.8492 5.87551 30.232 5.62696 31.1889 6.33782C30.7428 5.85061 30.2052 5.46376 29.6093 5.20124C29.0135 4.93873 28.3721 4.80614 27.7249 4.81169C25.7583 4.71606 23.801 5.14744 22.0411 6.0644Z" fill="#30160A"/>
</g>
</g>
<g style="mix-blend-mode:screen" opacity="0.5">
<g style="mix-blend-mode:screen" opacity="0.5">
<path d="M27.2702 10.449C27.0693 10.449 26.3134 10.4988 26.2464 10.1906C26.189 9.96685 26.4378 9.77794 26.5574 9.63875C26.7535 9.40511 26.7918 9.14165 26.4043 9.08696C26.2001 9.08794 25.9964 9.06627 25.7967 9.02234C25.7343 8.99948 25.6785 8.96061 25.6345 8.90936C25.5905 8.85811 25.5596 8.79612 25.5448 8.72916C25.5301 8.66221 25.5318 8.59247 25.5499 8.52639C25.568 8.46032 25.6018 8.40007 25.6483 8.35123C26.4569 7.40175 27.6817 7.42163 28.8013 7.32221C28.3704 7.18012 27.9472 7.01418 27.5334 6.8251C27.3803 6.73065 27.1985 6.53677 27.4042 6.37273C27.5593 6.27353 27.733 6.20983 27.9137 6.18583C28.0943 6.16182 28.2779 6.17808 28.452 6.23354C28.3763 6.1872 28.3122 6.12301 28.2648 6.04615C28.2174 5.96929 28.1881 5.88192 28.1793 5.79112C28.1793 5.19955 29.2031 5.32383 29.5093 5.39839C29.9116 5.4839 30.2989 5.63313 30.6576 5.84083C29.8021 5.20309 28.7777 4.85582 27.7248 4.84661C25.7577 4.75252 23.8004 5.18562 22.0409 6.1043C21.883 6.18881 21.7299 6.27828 21.5625 6.37273C22.0935 6.12914 22.6102 5.87563 23.1509 5.65193C23.8428 5.39486 24.5628 5.22788 25.2943 5.15481C25.9484 5.0469 26.6166 5.07393 27.2607 5.23435C27.4568 5.30395 27.5908 5.49284 27.4186 5.66186C27.1034 5.87134 26.7437 5.99762 26.3708 6.02972C25.9832 6.11423 25.6005 6.19377 25.2177 6.29816C24.5814 6.47215 24.3039 7.05377 25.189 6.89966C25.6724 6.73532 26.1936 6.73532 26.677 6.89966C26.6889 6.90654 26.6989 6.91663 26.7059 6.92887C26.7128 6.94111 26.7165 6.95506 26.7165 6.96927C26.7165 6.98347 26.7128 6.99743 26.7059 7.00967C26.6989 7.02191 26.6889 7.03199 26.677 7.03887C25.2799 7.87402 23.4379 7.70997 22.2371 8.94777C22.1605 9.03228 21.9165 9.2709 22.1509 9.33552C22.3478 9.37634 22.5496 9.38473 22.749 9.36037C22.9308 9.36037 23.1126 9.31564 23.2944 9.29078C23.7107 9.24604 24.3566 9.11679 24.7297 9.36534C25.1029 9.6139 24.8493 9.98176 24.6053 10.1756C24.3324 10.3353 24.0759 10.5235 23.8398 10.7374C23.6102 11.0108 24.4809 11.0058 24.6245 11.0356C24.768 11.0655 25.2656 10.971 25.1747 11.1549C24.9642 11.5725 22.8495 11.8758 22.1509 11.8807C20.2339 11.8608 18.3241 11.6325 16.4527 11.1997H16.4097C17.0863 11.5126 17.7985 11.7348 18.5292 11.8608C20.2275 12.2141 21.9627 12.3378 23.6915 12.2287C25.5718 12.0398 28.6147 11.319 30.1313 9.93204C29.2205 10.3014 28.2476 10.4772 27.2702 10.449Z" fill="#30160A"/>
</g>
</g>
<g style="mix-blend-mode:screen" opacity="0.5">
<g style="mix-blend-mode:screen" opacity="0.5">
<path d="M33.7342 8.12733C33.7474 8.14127 33.7547 8.16001 33.7547 8.17953C33.7547 8.19905 33.7474 8.21779 33.7342 8.23173C33.5071 8.31509 33.2667 8.35222 33.0261 8.3411C32.8683 8.3411 32.5812 8.3411 32.4616 8.46538C32.342 8.58965 32.586 8.69902 32.6434 8.74376C32.7001 8.77591 32.7484 8.82213 32.7838 8.87832C32.8192 8.93451 32.8407 8.99891 32.8464 9.06581C32.8521 9.13272 32.8417 9.20004 32.8163 9.2618C32.7909 9.32356 32.7513 9.37784 32.7008 9.41982C32.6051 9.52918 31.9449 9.54908 32.1027 9.73798C32.2231 9.93599 32.2675 10.1737 32.2271 10.4041C32.1937 10.8266 31.9114 10.8117 31.6626 10.6427C31.5813 11.9054 32.2941 12.9543 33.1601 13.7845C33.0739 13.623 32.9956 13.4571 32.9257 13.2873C32.7442 12.9596 32.683 12.5746 32.7534 12.2036C32.9352 11.6767 33.6768 12.3478 34.0835 12.7008C33.806 12.1191 33.3898 11.5524 33.5189 10.8863C33.5219 10.8747 33.5274 10.864 33.5349 10.8549C33.5424 10.8458 33.5518 10.8386 33.5624 10.8338C33.573 10.829 33.5845 10.8268 33.596 10.8273C33.6075 10.8278 33.6188 10.8309 33.629 10.8366C33.8012 10.941 34.6385 11.806 34.5619 11.2144C34.5237 10.8465 34.3179 10.4041 34.4375 10.0362C34.4407 10.0253 34.446 10.0152 34.4532 10.0066C34.4604 9.99804 34.4693 9.99116 34.4793 9.98644C34.4892 9.98173 34.5001 9.9793 34.511 9.97931C34.522 9.97933 34.5328 9.98179 34.5428 9.98653C34.9877 10.1953 35.093 10.6924 35.4279 11.0156C35.5627 11.1427 35.7067 11.2591 35.8585 11.3635C35.2126 10.429 34.5811 7.74953 33.7055 7.58548C33.4716 7.53876 33.2351 7.50722 32.9974 7.49103C33.2796 7.65276 33.5296 7.86868 33.7342 8.12733Z" fill="#30160A"/>
</g>
</g>
<path d="M17.9693 18.2586C17.9693 18.2586 17.3139 17.5576 16.7589 17.8261C16.2039 18.0945 16.1848 19.6057 16.8737 20.3116C17.0361 20.4194 17.2231 20.4804 17.4157 20.4882C17.6082 20.4961 17.7993 20.4506 17.9693 20.3564V18.2586Z" fill="#FDC088"/>
<g style="mix-blend-mode:multiply">
<path d="M17.4385 17.8708C17.4799 17.9501 17.509 18.0356 17.5246 18.1243C17.5246 18.2536 17.5629 18.5121 17.4576 18.6214C17.3524 18.7308 17.2041 18.6662 17.0701 18.6214C16.9923 18.5897 16.9096 18.5729 16.8261 18.5717C16.6443 18.5717 16.6634 18.7755 16.6539 18.8899C16.6554 18.9701 16.6281 19.0481 16.5773 19.1086C16.5773 19.1434 16.4912 19.1683 16.4577 19.1086C16.4081 19.0435 16.3708 18.9693 16.3477 18.8899C16.3501 19.4117 16.5375 19.9143 16.8739 20.3017C17.0363 20.4094 17.2234 20.4704 17.4159 20.4782C17.6085 20.4861 17.7995 20.4406 17.9696 20.3464V18.2387C17.812 18.0881 17.6329 17.964 17.4385 17.8708Z" fill="#D9AE91"/>
</g>
<path d="M32.7246 18.4276L32.8634 20.3664C32.8634 20.3664 33.0978 20.5354 33.8442 20.0532C34.5905 19.571 34.7293 18.5966 34.7293 17.9454C34.7293 17.2942 33.5858 16.638 32.9351 18.2835L32.7246 18.4276Z" fill="#FDC088"/>
<path d="M34.1742 18.3431C33.5475 18.2338 33.2939 19.0092 33.4135 19.5312C33.4135 19.5404 33.417 19.5493 33.4233 19.5558C33.4296 19.5623 33.4381 19.566 33.447 19.566C33.4559 19.566 33.4644 19.5623 33.4707 19.5558C33.477 19.5493 33.4805 19.5404 33.4805 19.5312C33.5236 19.0341 33.5618 18.4276 34.1742 18.3779V18.3431Z" fill="#A5693C"/>
<g style="mix-blend-mode:multiply">
<path d="M34.6863 18.3082C34.6432 18.358 34.5763 18.3082 34.5571 18.2734C34.361 17.7763 33.8873 17.9106 33.6002 18.2138C33.5285 18.2884 33.3371 18.4822 33.2271 18.358C33.117 18.2337 33.1553 17.9702 33.2271 17.7366C33.111 17.9065 33.0146 18.09 32.94 18.2834L32.7295 18.4275L32.8682 20.3663C32.8682 20.3663 33.1027 20.5353 33.849 20.0531C34.1204 19.8453 34.3409 19.5742 34.493 19.2616C34.6451 18.9491 34.7244 18.6038 34.7246 18.2536L34.6863 18.3082Z" fill="#D9AE91"/>
</g>
<path d="M17.5485 12.1342C21.9724 13.3466 26.6778 12.702 30.6481 10.3396C30.6481 10.3396 30.4616 11.7464 33.2604 14.6545C33.2604 14.6545 33.0738 17.5577 32.9351 18.2834C32.976 18.5448 33.0303 18.8036 33.0977 19.0589C33.1887 19.3771 33.6575 21.7483 30.5094 23.7119C27.3613 25.6755 26.4044 26.2273 24.9834 26.2273C23.5625 26.2273 20.7444 25.0889 19.089 23.9753C17.4336 22.8618 17.4336 21.7483 17.6537 20.4956C17.8738 19.2429 17.7685 18.7805 17.515 17.3737C17.2614 15.9669 16.649 14.7341 16.8356 13.7895C16.9585 13.1918 17.2014 12.6277 17.5485 12.1342Z" fill="#FDC088"/>
<path d="M24.4143 21.2661C23.9288 21.1097 23.5141 20.776 23.247 20.3266C23.0747 19.9488 23.4288 19.7649 23.6919 19.6306C23.8638 19.542 24.0106 19.4084 24.1177 19.2429L24.0842 19.2131C23.7158 19.6058 22.8833 19.576 23.0508 20.3117C23.18 20.9082 23.8737 21.2512 24.4 21.3059L24.4143 21.2661Z" fill="#A5693C"/>
<path d="M21.7495 22.1361C21.7495 22.1361 21.5725 22.3299 21.6059 22.4343C21.6394 22.5387 22.7733 22.827 24.6393 22.2454C26.0534 21.858 27.4067 21.262 28.6581 20.4757C28.6581 20.4757 27.7922 21.5296 24.601 22.3796C22.9264 22.8221 22.0078 22.8072 21.6059 22.6928C21.2041 22.5785 21.295 22.4045 21.7495 22.1361Z" fill="#A5693C"/>
<g style="mix-blend-mode:multiply">
<path d="M20.9599 14.3463C20.8554 14.289 20.74 14.2565 20.622 14.2511C20.504 14.2457 20.3863 14.2676 20.2774 14.3151C20.1685 14.3627 20.0711 14.4347 19.9922 14.5261C19.9134 14.6174 19.8549 14.7258 19.8212 14.8434C19.751 15.1694 19.7268 15.5044 19.7495 15.8376C19.7658 15.937 19.8108 16.0289 19.8786 16.1011C20.0174 16.2154 20.2709 15.7482 20.3571 15.6736C20.4569 15.562 20.5773 15.4724 20.7111 15.4101C21.1608 15.1914 21.6249 15.5593 21.9646 15.9072C21.842 15.2692 21.4806 14.7078 20.9599 14.3463Z" fill="#D9AE91"/>
</g>
<g style="mix-blend-mode:multiply">
<path d="M26.8113 13.7299C26.4756 14.155 26.2691 14.674 26.218 15.2213C26.1797 15.5195 26.3137 15.6836 26.5673 15.2461C26.6409 15.052 26.7616 14.881 26.9174 14.7495C27.0733 14.618 27.2592 14.5305 27.4572 14.4955C28.0169 14.4955 28.1557 14.7888 28.4858 15.092C28.6102 15.2014 28.9977 15.3903 29.0743 15.0174C29.105 14.9087 29.105 14.7931 29.0743 14.6844C29.0001 14.5018 28.8966 14.3337 28.7681 14.1873C28.237 13.5907 27.5098 13.0688 26.8113 13.7299Z" fill="#D9AE91"/>
</g>
<g style="mix-blend-mode:multiply">
<path d="M25.194 20.4408C24.6294 20.3861 23.9883 20.5352 23.4525 20.3016C22.9166 20.068 23.4525 19.6703 23.8065 19.3969C23.2707 19.6007 22.5961 19.9785 22.4908 20.5452C22.3855 21.1119 23.1941 21.43 23.6056 21.5692C23.8615 21.6796 24.1416 21.7153 24.4157 21.6723C24.6897 21.6294 24.9472 21.5095 25.1605 21.3256C25.2897 21.2063 25.7155 20.8633 25.6389 20.6396C25.5624 20.4159 25.328 20.4557 25.194 20.4408Z" fill="#D9AE91"/>
</g>
<g style="mix-blend-mode:multiply" opacity="0.6">
<path d="M32.9207 18.2834C33.0595 17.5577 33.2461 14.6545 33.2461 14.6545C30.4472 11.7464 30.6338 10.3396 30.6338 10.3396C26.6635 12.702 21.9581 13.3466 17.5341 12.1342C17.4018 12.3172 17.285 12.5118 17.1849 12.7158C17.2115 12.6899 17.2403 12.6666 17.271 12.6462C17.4698 12.5439 17.6872 12.4862 17.9089 12.4768C18.1306 12.4673 18.3517 12.5064 18.558 12.5915C19.8743 13.0098 21.2435 13.2209 22.6199 13.2179C24.0288 13.175 25.4277 12.958 26.7871 12.5716C27.4627 12.3783 28.1207 12.1238 28.7535 11.811C29.2349 11.5175 29.7317 11.252 30.2415 11.0157C30.2575 11.01 30.2749 11.0104 30.2906 11.0168C30.3064 11.0231 30.3195 11.0351 30.3276 11.0505C30.519 11.478 30.6434 11.9353 30.806 12.3778C30.9687 12.8202 31.2462 13.3272 31.4376 13.8144C31.7992 14.7297 32.0142 15.7003 32.0739 16.6877C32.1039 17.1121 32.0435 17.5381 31.8969 17.9355C31.7204 18.346 31.6385 18.7937 31.6577 19.2429C31.7433 20.1362 31.5396 21.0337 31.0787 21.793C30.4851 22.6066 29.7357 23.2836 28.8779 23.7815C28.0239 24.4332 27.0738 24.9369 26.0647 25.2728C25.1737 25.5185 24.2398 25.5441 23.3376 25.3474C22.3279 25.054 21.3619 24.6174 20.467 24.0499C19.711 23.6025 18.6489 23.0557 18.2326 22.1957C17.8786 21.4799 18.07 20.7441 18.2326 19.9985C18.4814 18.7408 17.9073 17.6471 17.4911 16.5187C17.268 15.9461 17.0732 15.3621 16.9074 14.7689C16.8287 14.4273 16.8012 14.0752 16.826 13.7249C16.826 13.7249 16.826 13.7498 16.826 13.7647C16.6394 14.7092 17.2471 15.942 17.5054 17.3489C17.7638 18.7557 17.8547 19.213 17.6442 20.4707C17.4337 21.7284 17.4337 22.8469 19.0795 23.9505C20.7253 25.0541 23.5529 26.2024 24.9739 26.2024C26.3948 26.2024 27.3661 25.6456 30.4998 23.687C33.6336 21.7284 33.1791 19.3522 33.0882 19.0341C33.02 18.787 32.9641 18.5365 32.9207 18.2834Z" fill="#D9AE91"/>
</g>
<path d="M28.6149 14.2717C28.3805 13.8045 27.8398 13.2775 27.3231 13.4615C26.7298 13.6504 26.5672 14.2519 26.4141 14.8186C26.4141 14.8186 26.4141 14.8534 26.4571 14.8186C26.4622 14.8216 26.468 14.8232 26.4739 14.8232C26.4797 14.8232 26.4855 14.8216 26.4906 14.8186C26.6844 14.4365 27.006 14.1412 27.3949 13.9884C27.9164 13.7746 28.3517 14.2369 28.6627 14.58C28.6962 14.6148 28.7488 14.58 28.7393 14.5253C28.7066 14.4364 28.6649 14.3514 28.6149 14.2717Z" fill="#262212"/>
<path d="M21.4864 15.1566C21.4864 14.9777 21.1467 14.6198 21.0606 14.5353C20.962 14.4223 20.8343 14.3412 20.6927 14.3016C20.551 14.2619 20.4014 14.2654 20.2616 14.3115C19.8692 14.4557 19.8358 15.0473 19.8692 15.4052C19.8669 15.4333 19.8669 15.4616 19.8692 15.4897C19.8692 15.4897 19.898 15.4897 19.9027 15.4897C19.9745 15.1268 20.0893 14.8435 20.4673 14.7639C20.6526 14.7382 20.8411 14.7681 21.0107 14.85C21.1802 14.9319 21.3237 15.0624 21.4242 15.2262C21.4398 15.2219 21.4539 15.213 21.4649 15.2007C21.4759 15.1884 21.4833 15.1731 21.4864 15.1566Z" fill="#262212"/>
<path d="M21.7063 18.184C21.7972 18.87 21.7063 19.4566 21.4623 19.4914C21.2183 19.5262 20.9839 18.9943 20.8929 18.2984C20.802 17.6024 20.893 17.0208 21.137 16.986C21.381 16.9512 21.6154 17.4881 21.7063 18.184Z" fill="#150E00"/>
<path d="M21.4957 17.498C21.5723 17.7516 21.5388 17.9951 21.4288 18.025C21.3187 18.0548 21.1656 17.8808 21.0938 17.6223C21.0221 17.3638 21.046 17.1252 21.1608 17.0854C21.2757 17.0457 21.4383 17.2346 21.4957 17.498Z" fill="white"/>
<path d="M28.0166 17.5428C28.0166 18.2387 27.8492 18.8054 27.6195 18.8104C27.3899 18.8154 27.2033 18.2536 27.1937 17.5577C27.1842 16.8617 27.3612 16.29 27.5861 16.2851C27.8109 16.2801 28.0071 16.8468 28.0166 17.5428Z" fill="#150E00"/>
<path d="M27.8875 16.8367C27.9305 17.1002 27.8875 17.3339 27.7583 17.3339C27.6291 17.3339 27.5143 17.1549 27.4712 16.8865C27.4282 16.618 27.4712 16.3893 27.6004 16.3893C27.7296 16.3893 27.8444 16.5683 27.8875 16.8367Z" fill="white"/>
<path d="M21.668 22.7077C21.7545 22.8312 21.8328 22.9608 21.9024 23.0954C22.1321 23.5329 22.5148 24.4774 22.8832 24.6613C23.6254 24.9956 24.4471 25.0909 25.2419 24.9347C26.2152 24.6958 27.139 24.2765 27.969 23.6969C28.1311 23.574 28.2632 23.4133 28.3546 23.2276C28.446 23.042 28.4942 22.8367 28.4953 22.6281C28.5883 21.94 28.6203 21.2445 28.591 20.5502C28.3326 20.7988 27.2992 21.6638 24.6008 22.3796C23.0076 22.8021 22.0938 22.8071 21.668 22.7077Z" fill="#33000C"/>
<path d="M28.6149 20.5502C28.3566 20.7988 27.3231 21.6638 24.6247 22.3796C23.8454 22.6081 23.042 22.7366 22.2325 22.7624C22.3546 23.1641 22.6 23.5133 22.9311 23.7566C22.8544 24.0494 22.8269 24.3538 22.8497 24.6564C22.8608 24.6586 22.8722 24.6586 22.8832 24.6564C23.6254 24.9906 24.4471 25.0859 25.2419 24.9298C26.2152 24.6908 27.139 24.2715 27.969 23.692C28.1311 23.569 28.2632 23.4083 28.3546 23.2227C28.446 23.037 28.4942 22.8317 28.4953 22.6232C28.596 21.9374 28.636 21.2436 28.6149 20.5502Z" fill="white"/>
<g style="mix-blend-mode:multiply">
<path d="M28.6149 20.5502C28.3566 20.7988 27.3231 21.6638 24.6247 22.3796C23.8454 22.6081 23.042 22.7366 22.2325 22.7624C22.3546 23.1641 22.6 23.5133 22.9311 23.7566C22.8544 24.0494 22.8269 24.3538 22.8497 24.6564C22.8608 24.6586 22.8722 24.6586 22.8832 24.6564C23.6254 24.9906 24.4471 25.0859 25.2419 24.9298C26.2152 24.6908 27.139 24.2715 27.969 23.692C28.1311 23.569 28.2632 23.4083 28.3546 23.2227C28.446 23.037 28.4942 22.8317 28.4953 22.6232C28.596 21.9374 28.636 21.2436 28.6149 20.5502ZM27.725 23.4782C26.639 24.2587 25.2515 24.9298 23.8975 24.7856C23.5626 24.7508 23.199 24.6017 23.2421 24.2189C23.2851 23.8361 23.242 23.851 23.5435 23.7964C24.9584 23.6118 26.3398 23.2132 27.6437 22.6132C27.7824 22.5536 28.213 22.3349 28.3135 22.5735C28.4283 22.8767 27.9068 23.334 27.7011 23.4782H27.725ZM28.3709 21.9869C28.376 21.9959 28.3786 22.0062 28.3786 22.0167C28.3786 22.0272 28.376 22.0375 28.3709 22.0465C27.8912 22.4562 27.3336 22.7561 26.7347 22.9264C25.7737 23.3102 24.7654 23.5512 23.7396 23.6423C23.5317 23.6834 23.317 23.6662 23.1177 23.5925C22.9406 23.4732 22.6392 23.0407 22.8737 23.0109C23.242 22.9612 23.7253 22.817 24.0793 22.7325C24.4334 22.648 24.8305 22.5337 25.2037 22.4094C26.0106 22.1455 26.7987 21.8232 27.5624 21.445C27.8494 21.3009 28.0408 21.2014 28.2322 21.107C28.4236 21.0125 28.5001 21.7334 28.347 21.962L28.3709 21.9869Z" fill="#CCCAC7"/>
</g>
<g style="mix-blend-mode:multiply">
<path d="M22.9312 23.7368C22.9312 23.7368 25.2085 23.8611 28.1605 22.2455C28.1605 22.2654 25.309 24.2091 22.9312 23.7368Z" fill="#93918D"/>
</g>
<g style="mix-blend-mode:screen" opacity="0.5">
<path d="M21.6726 59.6628C21.6726 59.6628 20.6775 53.2501 20.6775 50.8888C20.7078 50.6366 20.6949 50.3808 20.6392 50.1332C20.5483 49.9841 20.3282 50.0537 20.1895 50.0338C20.4331 53.2798 20.9292 56.5 21.6726 59.6628Z" fill="#17293B"/>
</g>
<g style="mix-blend-mode:screen" opacity="0.5">
<path d="M31.5382 59.6977C31.5382 59.6977 30.476 52.6636 30.0311 50.347C29.9885 49.9956 29.9132 49.6493 29.8062 49.313C29.7153 49.154 29.6675 49.313 29.5239 49.2782C29.5239 49.2782 30.5287 54.5774 31.5382 59.6977Z" fill="#17293B"/>
</g>
<g style="mix-blend-mode:multiply">
<path d="M24.9356 36.0153C24.8495 35.3889 24.4572 32.973 24.2802 32.0384C24.3026 32.0153 24.3195 31.9871 24.3294 31.956C24.3394 31.925 24.3422 31.8919 24.3376 31.8594C24.3256 31.6121 24.2631 31.3703 24.1542 31.15C24.0453 30.9297 23.8925 30.7361 23.706 30.5819C23.352 30.3383 22.8831 30.3134 22.1081 30.4974L21.577 26.3564C21.5757 26.3269 21.5685 26.298 21.5559 26.2715C21.5432 26.245 21.5255 26.2215 21.5037 26.2026C21.4819 26.1836 21.4565 26.1695 21.4292 26.1612C21.4019 26.1529 21.3733 26.1506 21.3451 26.1544C21.3169 26.1581 21.2897 26.168 21.2654 26.1832C21.241 26.1985 21.2199 26.2188 21.2035 26.2429C21.1871 26.2671 21.1757 26.2945 21.1699 26.3234C21.1642 26.3524 21.1644 26.3822 21.1703 26.4111L21.711 30.6465C21.3883 30.7429 21.1038 30.944 20.8989 31.2203C20.6941 31.4967 20.5796 31.8338 20.5723 32.1826C20.5748 32.2158 20.5848 32.2479 20.6014 32.2764C20.618 32.3049 20.6408 32.3289 20.668 32.3466C20.668 33.2514 20.778 36.065 20.8641 36.7908C20.9646 37.6607 21.3043 37.4818 21.955 37.5514C21.955 37.8546 21.9884 37.8894 22.242 37.8894C22.4956 37.8894 22.6343 37.8894 22.6343 37.5017C22.6343 37.1139 22.6678 36.9151 22.4477 36.8803C22.368 36.8706 22.2872 36.8819 22.2128 36.9132C22.1384 36.9445 22.0728 36.9947 22.0219 37.0592C22.0219 37.0592 21.2564 37.0592 21.1703 36.4925C21.0746 35.6027 20.9407 33.2215 20.8976 32.3416C20.9246 32.3211 20.9465 32.2941 20.9615 32.263C20.9765 32.2319 20.9841 32.1975 20.9837 32.1627C20.9837 32.1229 20.9837 31.2679 22.0554 30.9796C22.7874 30.7857 23.2132 30.7807 23.4907 30.9796C23.6278 31.1039 23.7386 31.2565 23.816 31.4277C23.8934 31.5988 23.9358 31.7847 23.9405 31.9738C23.946 32.0066 23.9588 32.0376 23.9779 32.0644C23.997 32.0911 24.0219 32.1129 24.0505 32.1279C24.151 32.8387 24.4141 34.6781 24.529 35.6922C24.6007 36.3981 24.529 36.5919 24.1558 36.756L23.8831 36.8405C23.8406 36.7872 23.7824 36.75 23.7175 36.7348C23.6526 36.7195 23.5846 36.7269 23.5242 36.756C23.285 36.8405 23.2707 36.9996 23.3376 37.4271C23.4046 37.8546 23.663 37.7452 23.9357 37.6905C24.2084 37.6359 24.1558 37.6011 24.0697 37.2332C24.8304 36.9349 25.0361 36.7958 24.9356 36.0153Z" fill="#A1A5AB"/>
</g>
<path d="M20.6775 31.6805C20.6775 31.6805 20.845 35.0609 20.9646 36.1545C21.0507 36.7212 21.8162 36.7213 21.8162 36.7213C21.867 36.6567 21.9327 36.6065 22.0071 36.5752C22.0815 36.5439 22.1623 36.5326 22.242 36.5423C22.4621 36.5771 22.4286 36.756 22.4286 37.1637C22.4286 37.5713 22.2946 37.5514 22.0363 37.5514C21.7779 37.5514 21.7636 37.5166 21.7492 37.2134C21.1033 37.1438 20.7588 37.3228 20.6584 36.4528C20.5579 35.5829 20.4526 31.7253 20.4526 31.7253L20.6775 31.6805Z" fill="#D6D8DB"/>
<path d="M23.7923 31.4816C23.7923 31.4816 24.1654 34.0666 24.3233 35.3442C24.3903 36.0501 24.3233 36.244 23.9454 36.403L23.6726 36.4925C23.6316 36.4388 23.5745 36.4008 23.5104 36.3846C23.4463 36.3684 23.3788 36.3749 23.3186 36.403C23.0794 36.4925 23.0602 36.6516 23.1272 37.0791C23.1942 37.5066 23.4526 37.3973 23.7253 37.3426C23.998 37.2879 23.9454 37.2531 23.8592 36.8852C24.6295 36.6168 24.8161 36.4776 24.73 35.6972C24.6439 34.9167 24.0123 31.3773 24.0123 31.3773L23.7923 31.4816Z" fill="#D6D8DB"/>
<path d="M21.7156 30.5272C21.6654 30.5288 21.6164 30.5108 21.5784 30.4768C21.5403 30.4427 21.5159 30.3951 21.5099 30.3432L20.9597 26.078C20.9573 26.0244 20.9744 25.9719 21.0076 25.9308C21.0407 25.8897 21.0876 25.863 21.1388 25.8561C21.19 25.8493 21.2418 25.8626 21.284 25.8936C21.3261 25.9246 21.3556 25.9709 21.3664 26.0233L21.9118 30.2886C21.9186 30.3446 21.9038 30.4011 21.8706 30.4458C21.8375 30.4905 21.7886 30.5198 21.7348 30.5272H21.7156Z" fill="#3F3E3D"/>
<path d="M20.5725 32.0484C20.5468 32.049 20.5211 32.0444 20.4971 32.0348C20.473 32.0251 20.4511 32.0107 20.4324 31.9922C20.4137 31.9737 20.3988 31.9516 20.3883 31.9271C20.3779 31.9027 20.3722 31.8763 20.3716 31.8495C20.382 31.455 20.5258 31.0768 20.7778 30.7814C21.0297 30.486 21.3738 30.2922 21.7495 30.2339C22.6155 30.0052 23.1274 30.0152 23.5054 30.2787C23.6905 30.4338 23.8421 30.6277 23.9501 30.8479C24.0581 31.0681 24.1201 31.3094 24.1321 31.5562C24.1394 31.6118 24.1254 31.6681 24.0931 31.713C24.0607 31.758 24.0127 31.7879 23.9594 31.7964C23.906 31.8048 23.8516 31.7912 23.8078 31.7584C23.7641 31.7255 23.7345 31.6761 23.7254 31.6209C23.7216 31.4317 23.6796 31.2454 23.6021 31.0742C23.5247 30.9029 23.4135 30.7504 23.2757 30.6266C23.0078 30.4427 22.582 30.4477 21.8404 30.6266C20.7495 30.915 20.7687 31.77 20.7687 31.8098C20.77 31.8656 20.7502 31.9198 20.7135 31.9607C20.6769 32.0016 20.6263 32.0259 20.5725 32.0285V32.0484Z" fill="#3F3E3D"/>
<g style="mix-blend-mode:multiply">
<path d="M29.7728 31.3276C29.7728 30.9746 29.6962 29.8363 29.591 28.683C29.5392 27.8354 29.4369 26.992 29.2848 26.1576C29.2178 26.1576 28.9403 26.0135 28.8686 26.0035C28.8686 26.0035 29.0791 26.3267 29.0886 26.3515C29.1173 26.4509 29.0217 26.5802 28.9212 26.6995C29.1596 28.2246 29.3066 29.7636 29.3613 31.3077C29.0542 31.4183 28.7923 31.6339 28.6185 31.9193C28.4447 32.2046 28.3692 32.5429 28.4045 32.8786C28.4045 33.7535 28.9355 34.4544 29.5719 34.4445C30.2082 34.4345 30.7105 33.7286 30.701 32.8537C30.7204 32.5302 30.6411 32.2086 30.4745 31.9347C30.3079 31.6607 30.0623 31.4482 29.7728 31.3276Z" fill="#A1A5AB"/>
</g>
<path d="M28.7299 26.4857C28.9741 28.0603 29.1227 29.6492 29.1748 31.2431C29.1773 31.298 29.2001 31.3499 29.2384 31.3879C29.2767 31.4258 29.3276 31.447 29.3806 31.4469C29.4343 31.4443 29.4849 31.42 29.5216 31.3791C29.5582 31.3382 29.578 31.284 29.5767 31.2282C29.5767 31.2282 29.5145 29.8412 29.3854 28.4742C29.1222 25.5611 28.8304 25.4915 28.6438 25.4368C28.5529 25.4368 28.3854 25.4368 28.2419 25.6754C28.2323 25.8296 28.5864 26.0781 28.7299 26.4857Z" fill="#3F3E3D"/>
<path d="M30.4901 32.6448C30.4901 33.5148 30.0117 34.2257 29.361 34.2356C28.7103 34.2455 28.2079 33.5397 28.1984 32.6697C28.1888 31.7998 28.6768 31.0839 29.3275 31.0789C29.9782 31.074 30.4805 31.7699 30.4901 32.6448Z" fill="#D6D8DB"/>
<path d="M29.8921 32.7692C29.8921 33.3608 29.5954 33.843 29.227 33.843C28.8586 33.843 28.562 33.3458 28.562 32.7692C28.562 32.1925 28.8586 31.6954 29.227 31.6954C29.5954 31.6954 29.8921 32.1776 29.8921 32.7692Z" fill="#EBECF1"/>
<g style="mix-blend-mode:multiply" opacity="0.5">
<path d="M29.4428 32.7693C29.4428 32.9582 29.3471 33.1173 29.2275 33.1173C29.1079 33.1173 29.0122 32.9582 29.0122 32.7693C29.0122 32.5804 29.1079 32.4213 29.2275 32.4213C29.3471 32.4213 29.4428 32.5754 29.4428 32.7693Z" fill="#A1A5AB"/>
</g>
</g>
</g>
<defs>
<clipPath id="clip0_8772_39569">
<rect width="52" height="52" rx="26" fill="white"/>
</clipPath>
<clipPath id="clip1_8772_39569">
<rect width="33.4286" height="58.5" fill="white" transform="translate(9.28564 4.64288)"/>
</clipPath>
</defs>
</svg>
