<svg width="52" height="52" viewBox="0 0 52 52" fill="none" xmlns="http://www.w3.org/2000/svg">
<g clip-path="url(#clip0_8772_39432)">
<rect width="52" height="52" rx="26" fill="#FF88B1"/>
<g style="mix-blend-mode:multiply" opacity="0.26">
<path style="mix-blend-mode:multiply" opacity="0.26" d="M53.8568 38.4807V53.8571H33.9538L18.5566 35.0617L22.4904 19.0431L28.7096 8.43768L53.8568 38.4807Z" fill="url(#paint0_linear_8772_39432)"/>
</g>
<g style="mix-blend-mode:multiply" opacity="0.26">
<path style="mix-blend-mode:multiply" opacity="0.26" d="M27.277 11.5188L25.4544 9.00721L25.4518 13.2634L22.207 8.65881L21.011 14.878L18.9388 11.927L17.709 15.346L17.7662 22.6572L29.7184 14.826L27.277 11.5188Z" fill="url(#paint1_linear_8772_39432)"/>
</g>
<path d="M31.6138 21.5522C33.0802 21.8876 35.2694 21.0036 35.5424 20.9854C35.8154 20.9672 36.7618 22.2854 36.3848 22.6702C36.0078 23.055 32.4536 23.2604 31.6138 21.5522Z" fill="#CC0500"/>
<g style="mix-blend-mode:multiply" opacity="0.36">
<path d="M32.4277 22.3764C33.7823 23.1564 36.0833 22.9718 36.3849 22.6702C36.4311 22.6089 36.461 22.537 36.4719 22.4611C36.4828 22.3852 36.4744 22.3078 36.4473 22.236C35.9507 22.3634 35.3891 22.5974 35.1681 22.5922C34.5129 22.5766 34.0761 21.9942 33.6913 21.4742C33.5665 21.5002 33.4313 21.5236 33.3143 21.5444L32.4277 22.3764Z" fill="#A12252"/>
</g>
<path d="M29.3779 18.1489C28.8579 17.5587 27.5345 17.4599 26.8169 16.3289C26.4425 15.7361 26.1513 14.5869 25.8055 14.0487C25.2439 13.1725 24.3339 13.7627 24.2455 14.5687C24.1779 15.2993 25.3557 17.7485 25.7795 18.3491C26.4451 19.2617 28.2235 19.3527 29.3779 18.1489Z" fill="#00A4DD"/>
<g style="mix-blend-mode:multiply" opacity="0.3">
<path d="M27.6359 19.0171C28.0544 18.6242 28.3018 18.0827 28.3249 17.5091C27.7155 17.2688 27.1909 16.8535 26.8169 16.3157C26.4867 15.7957 26.2215 14.8467 25.9303 14.2591C25.8426 14.3623 25.7795 14.4841 25.7457 14.6153C25.5715 15.2679 26.0629 15.9153 26.2657 16.4691C26.4165 16.8799 26.5413 17.9277 25.7457 17.7691C25.3063 17.6807 24.7993 16.4171 24.7993 16.4171C25.0739 17.0817 25.4026 17.7225 25.7821 18.3333C26.1565 18.8533 26.8741 19.1081 27.6359 19.0171Z" fill="#004056"/>
</g>
<path d="M16.4533 24.9061C15.5121 25.9461 15.6343 28.6813 15.9073 30.0099C16.2453 31.6479 17.4205 33.4393 18.3591 34.8277C20.4648 37.964 23.3427 40.5052 26.7155 42.2065C28.1169 42.9345 30.1137 43.5715 31.7309 43.2621C33.4859 42.9267 34.9315 40.6829 35.6101 39.0475C37.4301 34.6275 37.3495 30.6859 35.2955 26.3855C33.9591 23.5879 32.2535 22.4049 29.4507 21.1179C27.2277 20.0961 23.7645 19.7321 21.4531 20.4887C20.3883 20.8192 19.3957 21.3485 18.5281 22.0487C17.8339 22.6285 17.3035 23.5619 16.4533 24.9061Z" fill="#FF5252"/>
<g style="mix-blend-mode:multiply" opacity="0.36">
<path d="M35.2957 26.3855C33.9593 23.5879 32.2537 22.4049 29.4509 21.1179C27.2279 20.0961 23.7647 19.7321 21.4533 20.4887L21.3025 20.5433C21.116 21.2304 21.1097 21.9539 21.2843 22.6441C21.9499 25.0569 24.6643 25.1817 26.4245 26.2269C30.7223 28.7645 33.1845 34.6977 31.2553 39.4323C30.3271 41.7229 28.8373 42.2611 27.0121 42.3547C28.3901 43.0177 30.2257 43.5507 31.7311 43.2621C33.4861 42.9267 34.9317 40.6829 35.6103 39.0475C37.4329 34.6353 37.3497 30.6859 35.2957 26.3855Z" fill="#A12252"/>
</g>
<g style="mix-blend-mode:multiply" opacity="0.36">
<path d="M27.0224 22.1216C26.947 24.7528 31.7284 24.5474 33.213 25.2936C33.6836 25.5328 35.1474 26.7366 34.7314 25.4886C34.2114 23.9598 32.3108 22.4206 29.846 22.0358L27.0224 22.1216Z" fill="#A12252"/>
</g>
<g style="mix-blend-mode:multiply" opacity="0.36">
<path d="M30.0435 43.2882C30.3882 43.3333 30.736 43.3498 31.0835 43.3376C33.6055 42.1156 35.2643 39.331 35.7635 35.3972C36.0911 32.7712 35.9481 29.893 35.0771 27.4282C34.6143 26.1282 34.0371 25.0024 33.0283 24.0014C32.5551 23.5386 31.7283 22.8886 31.2265 23.6166C30.7247 24.3446 31.5073 25.616 31.7855 26.266C33.0439 29.2222 34.1489 32.3422 34.2217 35.5922C34.2971 39.6794 32.9477 42.269 30.0435 43.2882Z" fill="#A12252"/>
</g>
<path d="M18.3203 23.3671C18.8403 21.4587 20.1741 19.3683 19.9089 17.3013C19.6333 15.1459 20.4965 13.9915 20.3665 11.7893C20.2677 10.1201 19.7815 9.04893 21.3467 8.57053C22.9769 8.07133 22.0643 10.0629 22.5219 10.8091C23.4501 12.3301 24.1313 10.9911 23.8219 9.75613C23.5827 8.83313 23.7907 7.78793 24.9789 8.50033C26.1047 9.17373 25.2727 10.1565 25.6757 10.5933C26.6377 11.6333 26.6013 7.94913 26.9081 7.64493C27.2149 7.34073 29.1129 7.88153 28.8789 8.53413C28.5019 9.57413 28.0391 10.2605 29.6589 12.0571C31.2787 13.8537 31.7779 16.9789 31.6661 19.0407C31.6011 20.2289 28.6787 21.2195 28.5929 19.5971C28.4343 16.6487 26.0995 12.4887 25.2961 17.3897C25.1089 18.5337 26.2425 19.7765 25.8005 20.9205C25.3585 22.0645 24.7917 22.6521 23.6295 23.1565C21.5001 24.0743 19.3733 24.0119 18.3203 23.3671Z" fill="#CC0500"/>
<path d="M27.9583 19.5035C26.2501 19.5633 27.1783 22.3141 27.7789 23.0369C28.1968 23.5484 28.7555 23.9262 29.3857 24.1237C34.9887 25.5407 32.7007 23.3437 33.2155 23.8481C33.8031 24.4357 33.9487 25.8371 34.8093 24.7295C35.5893 23.7155 33.5301 21.5835 32.8411 21.0063C31.4215 19.8155 29.4819 19.1343 27.9583 19.5035Z" fill="#FF9FA8"/>
<g style="mix-blend-mode:multiply" opacity="0.57">
<path d="M22.0957 8.70295C21.8357 8.39355 20.5981 8.74715 20.3953 9.33995C20.1015 10.2005 22.3427 9.00975 22.0957 8.70295Z" fill="#5C0500"/>
</g>
<g style="mix-blend-mode:multiply" opacity="0.57">
<path d="M24.8438 8.55223C24.355 8.32343 24.1704 8.37803 23.9832 8.57563C23.7232 8.83563 24.2432 9.94583 24.9348 9.76643C25.6862 9.57143 25.3326 8.77843 24.8438 8.55223Z" fill="#5C0500"/>
</g>
<g style="mix-blend-mode:multiply" opacity="0.57">
<path d="M27.1081 7.69677C26.7181 8.08937 28.3041 8.69517 28.7097 8.43777C29.1153 8.18037 27.3733 7.43417 27.1081 7.69677Z" fill="#5C0500"/>
</g>
<g style="mix-blend-mode:multiply" opacity="0.36">
<path d="M15.9932 30.2439C16.2194 30.7795 16.6068 31.5933 17.2256 31.6063C17.8444 31.6193 17.5558 30.8653 20.2416 30.0177C21.1334 29.7369 21.0216 28.4187 21.24 27.6179C21.474 26.7287 22.8624 26.8925 23.1952 26.1593C23.3642 25.7797 23.1952 25.2831 23.3694 24.8749C23.5436 24.4667 23.983 24.3757 23.8452 23.7595C21.2634 22.9483 17.717 26.0371 16.417 28.0209L15.9932 30.2439Z" fill="#A12252"/>
</g>
<g style="mix-blend-mode:multiply" opacity="0.36">
<path d="M24.2012 24.7372C24.0296 25.1922 24.6146 25.9202 24.9812 26.1204C25.418 26.357 26.1954 26.3804 26.705 26.3804C27.3389 26.4171 27.9737 26.328 28.573 26.1183C29.1723 25.9086 29.7242 25.5823 30.1968 25.1584C31.2368 24.238 30.7948 22.9978 31.2368 21.807C31.4448 21.248 32.2456 20.8034 31.9206 20.208C31.6606 19.7504 30.943 19.5658 30.4958 19.428C27.0768 18.44 28.2624 25.0648 24.2012 24.7372Z" fill="#A12252"/>
</g>
<g style="mix-blend-mode:screen" opacity="0.46">
<path d="M23.4369 28.0209C21.7183 28.5409 20.4417 30.4597 19.9295 32.0847C19.0741 34.7887 20.4495 37.1573 22.5737 38.7875C23.9101 39.8067 26.2631 41.5929 28.0545 41.0417C30.6233 40.2487 31.1277 36.4241 30.6857 34.1803C30.3347 32.4019 29.4741 30.5949 28.1897 29.3391C27.3369 28.5019 25.5897 27.3839 23.4369 28.0209Z" fill="#FF5252"/>
</g>
<g style="mix-blend-mode:screen" opacity="0.43">
<path d="M22.4229 29.6459C18.9961 30.5143 20.8473 35.8547 22.6127 37.4121C23.3147 38.0309 24.7629 38.8889 25.6027 38.3039C26.9287 37.3835 26.3645 34.9239 26.1851 33.5823C25.8809 31.3151 24.9319 29.4821 22.4229 29.6459Z" fill="#FF5252"/>
</g>
<g style="mix-blend-mode:multiply" opacity="0.36">
<path d="M29.6434 12.057C28.0314 10.2604 28.4942 9.57661 28.8634 8.53401C28.8711 8.51122 28.8763 8.48769 28.879 8.46381C28.5176 8.70821 28.047 8.91361 27.9144 9.20741C27.4958 10.1174 28.0418 11.173 28.5774 11.8386C29.9086 13.4896 30.6574 15.4786 30.4442 17.6314C30.3844 18.2528 30.0906 19.4514 30.2258 20.3406C30.6585 20.2164 31.05 19.9785 31.3594 19.6516C31.3958 19.4462 31.427 19.259 31.4634 19.1316C31.5284 18.8898 31.5908 18.6376 31.6558 18.3828C31.6454 16.347 31.0916 13.6664 29.6434 12.057Z" fill="#A12252"/>
</g>
<g style="mix-blend-mode:multiply" opacity="0.36">
<path d="M22.8003 11.6774C22.8801 11.6914 22.9622 11.6795 23.0347 11.6435C23.1072 11.6074 23.1663 11.5492 23.2033 11.4772C23.0031 11.4252 22.7717 11.2172 22.5221 10.8142C22.1945 10.2786 22.5715 9.1008 22.2075 8.664C22.2231 9.1502 21.7629 9.1372 21.5705 9.5116C21.2299 10.1616 22.0437 11.6592 22.8003 11.6774Z" fill="#A12252"/>
</g>
<path d="M28.9336 19.8414C31.349 20.1768 33.793 17.0048 34.495 17.0048C34.8902 17.0048 36.016 19.6048 35.366 19.7582C34.716 19.9116 33.5772 20.9672 32.5788 21.4092C31.4972 21.8772 29.0922 21.3572 28.9336 19.8414Z" fill="#CC0500"/>
<g style="mix-blend-mode:multiply" opacity="0.36">
<path d="M35.168 18.2943C34.767 18.7819 34.3077 19.2185 33.8004 19.5943C33.3142 19.9193 32.7968 20.1923 32.217 19.9687C31.8575 19.8105 31.5494 19.5547 31.3278 19.2303C31.0837 19.3703 30.83 19.4928 30.5686 19.5969L29.9082 20.4367C30.7194 20.9385 31.3772 21.5209 32.386 21.4559H32.4666L32.5784 21.4117C33.5872 20.9697 34.7156 19.9089 35.3656 19.7607C35.7114 19.6801 35.5528 18.9001 35.2668 18.2007C35.233 18.2371 35.1992 18.2631 35.168 18.2943Z" fill="#A12252"/>
</g>
<g style="mix-blend-mode:multiply" opacity="0.36">
<path d="M25.4571 10.9572C25.5018 10.9802 25.5509 10.9935 25.6012 10.9961C25.6514 10.9988 25.7017 10.9908 25.7486 10.9726C25.7955 10.9544 25.838 10.9265 25.8734 10.8907C25.9087 10.8549 25.9361 10.812 25.9537 10.7648C25.8395 10.7407 25.7379 10.676 25.6677 10.5828C25.3089 10.1928 25.9277 9.36604 25.2647 8.71344C25.3689 8.9028 25.4327 9.11175 25.4519 9.32704C25.4207 9.88344 24.4509 10.5932 25.4571 10.9572Z" fill="#A12252"/>
</g>
<g style="mix-blend-mode:multiply" opacity="0.36">
<path d="M28.7153 16.3912C28.3123 15.2446 26.7419 13.2712 25.3769 13.9732C24.1263 14.6284 24.1003 16.7526 23.8611 17.8914C23.5881 19.1914 23.5075 20.6864 22.6625 21.8226C22.3476 22.23 21.9227 22.5385 21.4379 22.7118C21.3833 22.2906 21.2923 21.8694 21.2481 21.4586C21.1493 20.4784 21.2793 19.7686 22.0281 19.1498C22.6937 18.6064 23.5023 18.0136 23.8481 17.1608C24.0431 16.6694 24.1939 15.1952 23.5881 14.9352C23.2007 14.7714 22.4181 15.1952 22.0671 15.3408C21.4145 15.6008 20.7905 15.918 20.1457 16.178L19.8727 16.815C19.8727 16.9736 19.8935 17.1322 19.9143 17.3012C20.1743 19.3682 18.8509 21.4612 18.3257 23.367C19.3787 24.0118 21.5055 24.0742 23.6193 23.1564C24.7815 22.652 25.3613 22.0306 25.7903 20.9204C26.2193 19.8102 25.0987 18.5336 25.2859 17.3896C26.0893 12.4886 28.4241 16.6486 28.5827 19.597C28.58 19.7709 28.6339 19.9409 28.7361 20.0815C28.8383 20.2221 28.9833 20.3258 29.1495 20.377C29.2459 19.9438 29.2818 19.4993 29.2561 19.0562C29.1967 18.1476 29.0148 17.2511 28.7153 16.3912Z" fill="#A12252"/>
</g>
<g style="mix-blend-mode:multiply" opacity="0.57">
<path d="M35.5402 21.0764C35.2126 21.404 36.0056 22.8028 36.3358 22.6364C36.666 22.47 35.7144 20.8996 35.5402 21.0764Z" fill="#5C0500"/>
</g>
<path d="M15.7098 24.7891C15.7905 23.7095 15.9399 22.6361 16.157 21.5755C16.3832 20.2443 16.8486 18.9365 16.7264 17.5455C16.625 16.3729 16.0686 14.1499 16.4222 12.9643C16.7186 11.9685 17.7872 11.0117 18.8636 11.8697C19.7528 12.5769 19.0092 14.6569 19.4642 15.6267C20.4184 15.7567 21.2842 14.2357 22.2618 14.0667C23.6632 13.8431 24.0818 15.4993 23.7204 16.6901C23.411 17.7301 22.6076 18.0161 21.6664 18.4087C20.226 19.0119 19.9348 19.0847 19.9972 20.8189C20.0284 21.6821 20.1454 22.4725 20.096 23.3123C19.9452 25.7771 18.4138 25.3689 15.7098 24.7891Z" fill="#00B1FF"/>
<g style="mix-blend-mode:multiply" opacity="0.69">
<path d="M22.5944 14.2489C21.271 14.2489 21.4269 17.3689 22.5501 17.5353C23.9177 17.7407 24.1518 14.3373 22.5944 14.2489Z" fill="#004056"/>
</g>
<path d="M27.9583 19.5035C26.2501 19.5633 27.1783 22.3141 27.7789 23.0369C28.1968 23.5484 28.7555 23.9262 29.3857 24.1237C34.9887 25.5407 32.7007 23.3437 33.2155 23.8481C33.8031 24.4357 33.9487 25.8371 34.8093 24.7295C35.5893 23.7155 33.5301 21.5835 32.8411 21.0063C31.4215 19.8155 29.4819 19.1343 27.9583 19.5035Z" fill="#FF9FA8"/>
<g style="mix-blend-mode:multiply" opacity="0.36">
<path d="M33.2158 23.8481C33.8034 24.4357 33.949 25.8371 34.8096 24.7295C35.5896 23.7155 33.5304 21.5835 32.8414 21.0063C31.8795 20.1857 30.71 19.6459 29.4614 19.4463C29.9502 19.7479 30.6964 19.7739 31.18 20.0859C31.9314 20.5721 33.0806 21.3859 33.6604 22.1269C34.5704 23.3047 33.3276 23.7389 32.6204 23.6271C31.4426 23.4399 30.4832 23.8481 29.542 22.9355C28.8036 22.2153 28.1588 22.2569 27.332 22.2413C27.4418 22.5257 27.5906 22.7934 27.774 23.0369C28.1919 23.5484 28.7505 23.9262 29.3808 24.1237C34.989 25.5407 32.701 23.3333 33.2158 23.8481Z" fill="#A12252"/>
</g>
<path d="M24.2535 25.2364C23.6711 24.2588 24.2691 23.198 24.9425 21.0608C25.6757 18.7364 26.1593 17.5716 28.6137 16.1702C30.5429 15.0678 32.9713 14.3112 33.1585 16.3236C33.4367 19.3344 28.9231 18.4036 28.1353 21.3078C27.7843 22.6078 28.2991 23.9416 27.7219 25.1428C27.0355 26.5728 25.0543 26.5806 24.2535 25.2364Z" fill="#00B1FF"/>
<g style="mix-blend-mode:multiply" opacity="0.57">
<path d="M34.5314 17.1582C34.1544 17.14 34.9656 19.571 35.3816 19.597C35.6988 19.6178 34.8772 17.1738 34.5314 17.1582Z" fill="#5C0500"/>
</g>
<g style="mix-blend-mode:screen" opacity="0.43">
<path d="M17.5038 11.8308C16.7238 12.4002 16.5028 13.253 16.6198 14.1708C16.781 15.4344 16.989 16.6512 17.0462 17.9512C17.0549 18.853 16.9035 19.7491 16.599 20.598C16.391 21.2584 16.079 21.7862 16.6406 22.2646C16.9188 22.4986 17.4856 23.1798 17.7664 22.6598C18.0472 22.1398 17.9874 21.3598 18.0264 20.8112C18.1061 20.107 18.1261 19.3972 18.0862 18.6896C17.9536 17.101 17.5168 15.5696 17.522 13.955C17.5188 13.5191 17.5563 13.0839 17.6338 12.655C17.6814 12.5175 17.6945 12.3704 17.6718 12.2267C17.6492 12.0829 17.5915 11.947 17.5038 11.8308Z" fill="#92CEFF"/>
</g>
<g style="mix-blend-mode:screen" opacity="0.43">
<path d="M21.466 14.5972C21.0983 14.9633 20.6921 15.2885 20.2544 15.567C19.7916 15.8868 19.4744 15.8868 19.555 16.5368C19.5992 16.8826 19.7578 17.6574 20.2674 17.2674C20.439 17.1348 20.5144 16.8826 20.6522 16.724C20.842 16.5056 21.1878 16.438 21.3516 16.2534C21.5154 16.0688 21.44 15.7334 21.4296 15.5176C21.4047 15.2105 21.4169 14.9015 21.466 14.5972Z" fill="#92CEFF"/>
</g>
<g style="mix-blend-mode:screen" opacity="0.43">
<path d="M32.1262 15.2237C30.5298 15.2237 29.066 16.0037 27.7946 16.9319C26.9666 17.543 26.2926 18.3389 25.8264 19.2563C25.2388 20.4315 25.0464 21.6977 24.6226 22.9353C24.4432 23.4735 24.2456 23.9285 24.3158 24.4953C24.3626 24.8697 24.5368 25.5067 24.9658 25.5899C25.3584 25.3299 25.2986 24.4511 25.3454 24.0299C25.4754 22.8677 25.5274 20.5771 26.9834 18.5855C29.157 15.6371 31.8194 15.6085 32.6098 15.3771L32.1262 15.2237Z" fill="#92CEFF"/>
</g>
<g style="mix-blend-mode:multiply" opacity="0.3">
<path d="M33.1586 16.3237C33.1437 16.0586 33.0613 15.8018 32.9194 15.5775C32.8186 15.8245 32.6501 16.0381 32.4332 16.1937C31.4582 16.8957 30.0022 16.9295 28.9336 17.6861C27.6544 18.5935 27.2202 19.9221 26.8822 21.3599C26.604 22.5325 26.5962 23.9885 26.0398 25.0441C25.9251 25.265 25.7611 25.4567 25.5605 25.6041C25.3598 25.7515 25.128 25.8508 24.8828 25.8943C25.1127 26.0521 25.3739 26.1584 25.6487 26.206C25.9234 26.2536 26.2052 26.2413 26.4748 26.17C26.7444 26.0986 26.9954 25.9699 27.2106 25.7927C27.4259 25.6154 27.6003 25.3937 27.722 25.1429C28.2992 23.9417 27.7844 22.6157 28.1354 21.3079C28.9232 18.3907 33.4368 19.3345 33.1586 16.3237Z" fill="#004056"/>
</g>
<g style="mix-blend-mode:multiply" opacity="0.3">
<path d="M23.4112 17.3298C23.2983 17.4526 23.1587 17.5478 23.0032 17.6082C22.8477 17.6686 22.6804 17.6925 22.5142 17.6782C22.2984 17.6574 22.0826 17.4598 21.8772 17.5144C21.7342 17.5534 21.5262 17.868 21.3858 17.959C20.676 18.4244 19.5372 18.0864 18.9288 18.6428C18.219 19.2928 18.6012 20.5018 18.557 21.352C18.497 22.6822 18.1304 23.9804 17.4858 25.1454C19.0822 25.4054 19.9818 25.1714 20.0858 23.3254C20.1352 22.4856 20.0182 21.6952 19.987 20.832C19.9246 19.0978 20.2158 19.012 21.6562 18.4218C22.3738 18.1228 23.0108 17.8836 23.4112 17.3298Z" fill="#004056"/>
</g>
<g style="mix-blend-mode:multiply" opacity="0.3">
<path d="M19.1625 15.6372C19.2531 15.6121 19.3404 15.5764 19.4225 15.5306C19.0611 14.5218 19.7215 12.564 18.8635 11.8906C18.6435 11.7037 18.371 11.5893 18.0835 11.563C18.2644 12.0488 18.3722 12.5588 18.4033 13.0762C18.444 13.6723 18.4064 14.271 18.2915 14.8572C18.1875 15.4916 18.4475 15.84 19.1625 15.6372Z" fill="#004056"/>
</g>
<path d="M15.3329 22.1373C13.9497 24.8205 12.9149 28.5645 15.9127 31.0579C16.5653 31.5987 17.3531 31.5779 17.9277 30.7797C18.2579 30.3221 18.1019 30.0543 18.0447 29.7527C17.9537 29.2691 18.6531 30.5093 19.0847 30.4183C20.3275 30.1583 20.4549 29.3783 20.5615 28.2161C20.7071 26.6171 21.3129 27.3477 22.2099 26.7289C22.8963 26.2583 22.9171 25.7305 22.7065 24.8647C22.5869 24.3655 23.8089 24.0067 23.6165 23.5647C23.3877 23.0447 19.6957 22.7301 18.9885 23.3047C17.2283 24.7113 17.3271 21.8487 15.3329 22.1373Z" fill="#FF9FA8"/>
<g style="mix-blend-mode:multiply" opacity="0.36">
<path d="M23.614 23.5672C23.3852 23.0472 19.6932 22.7326 18.986 23.3072C17.3844 24.5916 17.3246 22.3374 15.8218 22.1346C16.4374 22.4456 16.9442 22.9361 17.2752 23.5412C17.7562 24.3524 17.9564 24.4382 18.9392 24.1392C19.571 23.9442 20.5694 23.4996 21.105 24.1808C21.885 25.1766 20.5356 25.6628 19.8544 25.8214C19.5112 26.6976 19.9038 27.6414 19.7478 28.58C19.5008 30.0828 18.1878 30.296 17.5976 28.8842C17.6626 29.6278 17.9564 30.6444 17.3168 31.0682C17.101 31.2112 16.8462 31.2866 16.2768 31.2866C16.8462 31.5648 17.4676 31.4322 17.9408 30.7666C18.271 30.309 18.115 30.0412 18.0578 29.7396C17.9668 29.256 18.6662 30.4962 19.0978 30.4052C20.3406 30.1452 20.468 29.3652 20.5746 28.203C20.7202 26.604 21.326 27.3346 22.223 26.7158C22.9094 26.2452 22.9302 25.7174 22.7196 24.8516C22.5844 24.3576 23.8064 23.9988 23.614 23.5672Z" fill="#A12252"/>
</g>
<g style="mix-blend-mode:screen" opacity="0.43">
<path d="M15.6504 22.8055C14.0124 24.1965 14.0176 27.3685 15.0914 29.0455C15.3384 29.4303 15.8714 30.1037 16.3914 30.0023C17.1428 29.8567 16.5812 29.1885 16.7528 28.6165C17.1038 27.4231 18.552 29.5707 19.1266 27.9119C19.3632 27.2307 18.6794 26.6509 18.7262 26.0919C18.7886 25.3431 19.7896 25.4445 19.7298 24.7919C18.9784 24.4123 18.201 25.2495 17.3898 24.9089C16.368 24.4773 16.8308 23.0421 15.6504 22.8055Z" fill="#FF9797"/>
</g>
<g style="mix-blend-mode:screen" opacity="0.43">
<path d="M29.846 19.9558C29.209 20.2392 28.9724 20.6864 29.3754 21.2792C29.7446 21.8252 30.3062 21.7446 30.8184 22.0592C31.3306 22.3738 31.5984 22.8392 32.2406 23.029C33.2468 23.3306 33.4808 22.8392 32.901 22.0306C32.2458 21.1206 31.1538 20.1092 29.846 19.9558Z" fill="#FF9797"/>
</g>
<g style="mix-blend-mode:screen" opacity="0.43">
<path d="M34.1204 17.4573C33.3867 17.9073 32.7402 18.486 32.212 19.1655C31.6062 20.0859 33.6836 19.4671 34.0762 18.9055C34.4012 18.4141 33.98 17.6783 34.1204 17.4573Z" fill="#FF9797"/>
</g>
<g style="mix-blend-mode:screen" opacity="0.43">
<path d="M35.0904 21.2662C34.4872 21.3026 33.5044 21.6328 34.4092 22.2204C34.599 22.3452 35.0904 22.5636 35.2776 22.3088C35.4648 22.054 35.054 21.6614 35.1476 21.3806L35.0904 21.2662Z" fill="#FF9797"/>
</g>
<g style="mix-blend-mode:screen" opacity="0.43">
<path d="M20.4962 9.80805C20.517 10.5542 20.6496 11.3082 20.6106 12.0882C20.582 12.6576 20.2544 13.6482 20.4962 14.1682C20.8082 14.8416 21.5206 14.2826 21.6662 13.7418C21.8352 13.1048 21.3437 12.2676 21.2241 11.6306C21.1591 11.2926 21.1618 9.21005 20.4962 9.80805Z" fill="#FF9797"/>
</g>
<g style="mix-blend-mode:screen" opacity="0.43">
<path d="M23.9153 9.63635C24.1077 10.328 24.1961 11.0378 23.8191 11.6904C23.5123 12.2104 22.8545 12.7304 23.1197 13.396C23.3277 13.916 24.3287 14.6596 24.6017 13.8536C24.8071 13.2504 24.6823 12.1662 24.7421 11.5448C24.7811 11.1652 24.8461 10.6088 24.6459 10.276C24.4145 9.89375 24.0427 9.85735 23.9153 9.63635Z" fill="#FF9797"/>
</g>
<g style="mix-blend-mode:screen" opacity="0.43">
<path d="M26.9392 8.26624C26.8118 8.85904 26.9159 9.49344 26.7625 10.0628C26.6273 10.5646 26.2294 10.9026 25.9538 11.3342C25.7959 11.5442 25.7052 11.7971 25.6938 12.0596C25.6938 12.5458 25.7406 12.4314 26.0942 12.6004C26.7344 12.8685 27.329 13.2343 27.857 13.6846C28.2366 14.0382 28.7046 15.2004 29.261 15.099C29.3936 13.539 27.5918 12.8812 27.272 11.5188C27.0198 10.4372 27.7245 9.10604 26.9392 8.26624Z" fill="#FF9797"/>
</g>
<g style="mix-blend-mode:screen" opacity="0.43">
<path d="M22.4909 19.0433C21.6251 19.4905 21.1571 20.9413 21.3495 21.8357C21.7213 23.5647 22.5481 21.3157 22.6911 20.6683C22.8133 20.1119 22.9355 19.4333 22.4909 19.0433Z" fill="#FF9797"/>
</g>
<g style="mix-blend-mode:screen" opacity="0.43">
<path d="M15.2522 23.5463C14.6932 24.0403 14.0822 26.2685 14.8284 26.8197C15.6604 27.4333 16.0036 25.1219 16.0504 24.6279C16.0894 24.1885 16.0218 23.4033 15.2522 23.5463Z" fill="#FF9797"/>
</g>
<g style="mix-blend-mode:screen" opacity="0.77">
<path d="M17.1686 17.4572C17.0958 15.788 16.7214 14.2228 16.9216 12.551C16.9216 12.5328 16.8956 12.5302 16.8878 12.551C16.3366 14.1734 16.8384 15.7984 16.8878 17.4624C16.944 18.4191 16.8732 19.379 16.6772 20.3172C16.5394 20.8996 16.2741 21.4378 16.5367 22.0098C16.5398 22.0158 16.5444 22.0208 16.5502 22.0244C16.5559 22.0279 16.5625 22.0298 16.5692 22.0298C16.576 22.0298 16.5826 22.0279 16.5883 22.0244C16.5941 22.0208 16.5987 22.0158 16.6017 22.0098C16.9033 20.4628 17.2388 19.0172 17.1686 17.4572Z" fill="#92CEFF"/>
</g>
<g style="mix-blend-mode:screen" opacity="0.77">
<path d="M21.6351 14.4517C21.3387 14.5557 21.1671 14.8807 20.9253 15.0731C20.5743 15.3539 20.1661 15.5437 19.8203 15.8271C19.4745 16.1105 19.0403 16.7137 19.6175 17.0023C19.6265 17.0084 19.6373 17.0111 19.6482 17.0101C19.659 17.0091 19.6691 17.0043 19.6768 16.9966C19.6845 16.9889 19.6893 16.9788 19.6903 16.9679C19.6914 16.9571 19.6886 16.9463 19.6825 16.9373C19.3367 16.2431 20.1479 15.8713 20.6263 15.5463C21.0354 15.2562 21.3798 14.8844 21.6377 14.4543C21.6377 14.4543 21.6377 14.4491 21.6351 14.4517Z" fill="#92CEFF"/>
</g>
<g style="mix-blend-mode:screen" opacity="0.77">
<path d="M29.2845 16.178C28.1041 16.3496 27.0381 17.6028 26.3647 18.518C25.5197 19.6542 25.1687 21.066 24.9659 22.4466C25.5561 21.352 25.6653 20.1066 26.3673 19.038C27.0693 17.9694 28.0963 16.7812 29.3131 16.3314C29.3232 16.3295 29.3328 16.3256 29.3414 16.32C29.35 16.3145 29.3574 16.3072 29.3632 16.2988C29.369 16.2903 29.3731 16.2808 29.3752 16.2708C29.3773 16.2608 29.3774 16.2504 29.3755 16.2404C29.3737 16.2303 29.3698 16.2207 29.3642 16.2121C29.3586 16.2035 29.3514 16.1961 29.343 16.1903C29.3345 16.1845 29.325 16.1804 29.315 16.1783C29.305 16.1762 29.2946 16.1761 29.2845 16.178Z" fill="#92CEFF"/>
</g>
<g style="mix-blend-mode:screen" opacity="0.77">
<path d="M15.3588 23.5074C14.7296 23.9936 14.142 25.3872 14.5788 26.1334C14.5839 26.141 14.5912 26.1467 14.5998 26.15C14.6083 26.1532 14.6176 26.1537 14.6264 26.1514C14.6353 26.1491 14.6432 26.1442 14.6491 26.1372C14.655 26.1303 14.6586 26.1217 14.6594 26.1126C14.7166 25.6524 14.6594 25.2234 14.7998 24.7632C14.953 24.3327 15.1463 23.9175 15.377 23.523C15.377 23.523 15.377 23.5022 15.3588 23.5074Z" fill="#92CEFF"/>
</g>
<g style="mix-blend-mode:screen" opacity="0.77">
<path d="M19.3317 29.3652C18.9599 29.6616 18.4919 29.8072 18.1123 29.4276C17.9279 29.1965 17.7733 28.9432 17.6521 28.6736C17.6521 28.6736 17.6339 28.6736 17.6365 28.6736C17.7613 29.087 17.8965 29.5784 18.3255 29.763C18.516 29.8422 18.7288 29.8491 18.9241 29.7826C19.1194 29.7161 19.2837 29.5806 19.3863 29.4016C19.4071 29.3704 19.3603 29.3418 19.3317 29.3652Z" fill="#92CEFF"/>
</g>
<g style="mix-blend-mode:screen" opacity="0.77">
<path d="M21.2685 24.9347C21.2685 24.9139 21.2321 24.9009 21.2139 24.9191C21.1333 24.9997 21.0943 25.1115 21.0189 25.1973C20.9146 25.3108 20.7926 25.4065 20.6575 25.4807C20.5364 25.5666 20.3986 25.626 20.253 25.6551C20.1074 25.6843 19.9573 25.6824 19.8125 25.6497C19.8125 25.6497 19.8125 25.6497 19.8125 25.6497C19.9867 25.9097 20.4339 25.7537 20.6471 25.6497C20.8603 25.5457 21.3829 25.2233 21.2685 24.9347Z" fill="#92CEFF"/>
</g>
<g style="mix-blend-mode:screen" opacity="0.77">
<path d="M33.0387 23.3253C31.9337 23.3253 30.8859 23.8921 29.8875 23.1069C29.2765 22.6259 29.0166 22.3269 28.2236 22.1423C28.2236 22.1423 28.2106 22.1423 28.2236 22.1579C28.7694 22.391 29.2635 22.7304 29.677 23.1563C29.9155 23.3768 30.2049 23.5348 30.5193 23.6165C31.3461 23.8349 32.2432 23.6165 33.0362 23.3565C33.0385 23.3547 33.0405 23.3525 33.042 23.3499C33.0434 23.3473 33.0443 23.3444 33.0445 23.3415C33.0448 23.3385 33.0444 23.3355 33.0434 23.3327C33.0424 23.33 33.0408 23.3274 33.0387 23.3253Z" fill="#92CEFF"/>
</g>
<g style="mix-blend-mode:screen" opacity="0.77">
<path d="M34.1984 17.4416C33.7304 17.5586 33.2572 18.0032 32.9114 18.3256C32.6254 18.5856 32.1652 18.96 32.1522 19.3838C32.4476 19.0251 32.7654 18.6856 33.1038 18.3672C33.4366 18.0656 33.9826 17.8628 34.2322 17.4884C34.2556 17.4572 34.2244 17.4338 34.1984 17.4416Z" fill="#FF94AB"/>
</g>
<g style="mix-blend-mode:screen" opacity="0.77">
<path d="M35.0746 21.2766C34.7704 21.1518 34.331 21.43 34.123 21.638C34.1112 21.6521 34.1044 21.6698 34.104 21.6882C34.1036 21.7066 34.1095 21.7246 34.1208 21.7392C34.132 21.7538 34.1479 21.7641 34.1658 21.7684C34.1838 21.7727 34.2026 21.7707 34.2192 21.7628C34.3602 21.6793 34.5139 21.6195 34.6742 21.586C34.8201 21.5635 34.9631 21.5251 35.1006 21.4716C35.189 21.4248 35.1526 21.3104 35.0746 21.2766Z" fill="#FF94AB"/>
</g>
<g style="mix-blend-mode:screen" opacity="0.77">
<path d="M20.7616 11.9973C20.7434 11.2771 20.551 10.5803 20.4782 9.86528C20.4782 9.85228 20.4574 9.85228 20.4574 9.86528C20.4418 10.7233 20.6004 11.5735 20.5562 12.4289C20.525 13.0191 20.226 13.7133 20.5822 14.2489C20.5838 14.2528 20.5861 14.2564 20.589 14.2594C20.5919 14.2625 20.5954 14.2649 20.5993 14.2666C20.6031 14.2683 20.6073 14.2692 20.6115 14.2693C20.6157 14.2694 20.6199 14.2686 20.6238 14.2671C20.6278 14.2655 20.6313 14.2632 20.6344 14.2603C20.6374 14.2574 20.6399 14.2539 20.6416 14.25C20.6432 14.2462 20.6442 14.242 20.6442 14.2378C20.6443 14.2336 20.6436 14.2294 20.642 14.2255C20.4678 13.5131 20.7798 12.7201 20.7616 11.9973Z" fill="#FF94AB"/>
</g>
<g style="mix-blend-mode:screen" opacity="0.77">
<path d="M23.9365 9.65728C23.9365 9.63128 23.8871 9.65728 23.8949 9.67548C24.0346 10.1915 24.0489 10.7336 23.9365 11.2563C23.9365 11.2875 23.9755 11.3239 24.0015 11.2927C24.3421 10.8507 24.1367 10.1071 23.9365 9.65728Z" fill="#FF94AB"/>
</g>
<g style="mix-blend-mode:screen" opacity="0.77">
<path d="M26.8924 8.26355C26.8924 8.26355 26.8742 8.26355 26.8716 8.26355C26.7962 8.65355 26.8378 9.06435 26.7962 9.45955C26.7269 9.96721 26.5572 10.456 26.297 10.8974C26.297 10.926 26.297 10.9727 26.3412 10.9571C27.2096 10.6035 27.1498 8.97595 26.8924 8.26355Z" fill="#FF94AB"/>
</g>
<g style="mix-blend-mode:screen" opacity="0.77">
<path d="M24.9969 8.59106C24.9761 8.59106 24.9683 8.61446 24.9839 8.62486C25.2647 8.84066 25.5585 9.24106 25.3089 9.59986C25.1165 9.87546 24.7759 9.77926 24.4951 9.79226C24.8149 9.90926 25.2751 9.88586 25.4207 9.53226C25.4769 9.35068 25.4648 9.15484 25.3868 8.98154C25.3087 8.80823 25.1701 8.66937 24.9969 8.59106Z" fill="#FF94AB"/>
</g>
<g style="mix-blend-mode:screen" opacity="0.77">
<path d="M28.4497 7.91003C28.5329 8.06083 28.8501 8.15703 28.8059 8.36243C28.7617 8.56783 28.4757 8.57563 28.3223 8.60163C28.4913 8.62243 28.7799 8.57303 28.8423 8.39103C28.9411 8.15703 28.5849 8.03483 28.4497 7.91003Z" fill="#FF94AB"/>
</g>
<g style="mix-blend-mode:screen" opacity="0.77">
<path d="M35.5064 19.194C35.4635 18.6589 35.2932 18.1419 35.0098 17.686C35.0098 17.686 35.0098 17.686 35.0098 17.686C35.0098 17.686 35.756 19.6386 35.34 19.6022C35.3367 19.604 35.334 19.6067 35.3321 19.6099C35.3302 19.6131 35.3292 19.6167 35.3292 19.6204C35.3292 19.6242 35.3302 19.6278 35.3321 19.631C35.334 19.6342 35.3367 19.6368 35.34 19.6386C35.548 19.7556 35.5116 19.2954 35.5064 19.194Z" fill="#FF94AB"/>
</g>
<g style="mix-blend-mode:screen" opacity="0.77">
<path d="M36.1926 21.7889H36.1796C36.2394 22.0073 36.4266 22.1659 36.4032 22.4129C36.3746 22.7145 36.1094 22.6885 35.9326 22.5247C36.034 22.6729 36.2602 22.7847 36.3928 22.6105C36.5722 22.3713 36.3642 21.9813 36.1926 21.7889Z" fill="#FF94AB"/>
</g>
<g style="mix-blend-mode:screen" opacity="0.77">
<path d="M35.436 21.0686C35.215 21.2766 35.436 21.6926 35.5582 21.9032C35.5582 21.9032 35.579 21.9032 35.5764 21.9032C35.5348 21.5886 35.2982 21.391 35.436 21.0686Z" fill="#FF94AB"/>
</g>
<g style="mix-blend-mode:screen" opacity="0.77">
<path d="M34.4791 17.9355C34.4063 17.7015 34.2633 17.3297 34.4167 17.1113C34.4186 17.1088 34.4195 17.1057 34.4192 17.1026C34.419 17.0995 34.4177 17.0965 34.4155 17.0943C34.4133 17.0921 34.4103 17.0908 34.4072 17.0905C34.4041 17.0903 34.401 17.0912 34.3985 17.0931C34.2191 17.2283 34.2815 17.5221 34.3231 17.7119C34.4184 18.1573 34.5696 18.5888 34.7729 18.9963C34.7758 18.9996 34.7796 19.002 34.7839 19.0029C34.7882 19.0039 34.7927 19.0035 34.7968 19.0018C34.8008 19 34.8042 18.9971 34.8065 18.9933C34.8087 18.9895 34.8097 18.9851 34.8093 18.9807C34.7131 18.6271 34.5831 18.2865 34.4791 17.9355Z" fill="#FF94AB"/>
</g>
<g style="mix-blend-mode:screen" opacity="0.77">
<path d="M27.6543 8.41696C27.4645 8.32076 26.6845 7.93336 27.0225 7.63696C27.0407 7.63696 27.0225 7.60056 27.0043 7.60316C26.7885 7.65776 26.8769 7.90736 26.9679 8.03476C27.1409 8.24314 27.3823 8.38321 27.6491 8.42996C27.6491 8.42996 27.6621 8.42216 27.6543 8.41696Z" fill="#FF94AB"/>
</g>
<g style="mix-blend-mode:screen" opacity="0.77">
<path d="M24.2614 8.33121C23.692 8.28441 23.6478 9.39461 24.1314 9.52981C24.1314 9.52981 24.147 9.52981 24.1314 9.51421C23.7778 9.17621 23.7154 8.50021 24.2614 8.33121Z" fill="#FF94AB"/>
</g>
<g style="mix-blend-mode:screen" opacity="0.77">
<path d="M20.4654 9.65729C20.2288 9.56109 20.3952 9.31669 20.4654 9.19969C20.596 8.9961 20.7817 8.8338 21.001 8.73169C21.001 8.73169 21.001 8.73169 21.001 8.73169C20.6968 8.75509 20.3848 9.13469 20.2964 9.41029C20.208 9.68589 20.6214 9.83149 20.8164 9.64169C20.8164 9.64169 20.8164 9.61829 20.8164 9.62349C20.7073 9.67685 20.5826 9.68886 20.4654 9.65729Z" fill="#FF94AB"/>
</g>
<g style="mix-blend-mode:screen" opacity="0.77">
<path d="M18.3098 11.6462C17.9848 11.42 17.4232 11.693 17.1606 11.9062C16.7514 12.2461 16.4858 12.7281 16.417 13.2556C16.417 13.2556 16.4326 13.2556 16.4326 13.2556C16.5366 12.382 17.4232 11.5682 18.3072 11.6748C18.3176 11.6774 18.3202 11.654 18.3098 11.6462Z" fill="#92CEFF"/>
</g>
<g style="mix-blend-mode:screen" opacity="0.77">
<path d="M22.4336 14.1422C21.9864 14.1084 21.625 14.5608 21.4976 14.9482C21.406 15.2558 21.3781 15.5789 21.4156 15.8977C21.4532 16.2164 21.5554 16.5242 21.716 16.802C21.7185 16.8079 21.7231 16.8126 21.7289 16.815C21.7348 16.8174 21.7414 16.8174 21.7472 16.815C21.7531 16.8126 21.7578 16.808 21.7602 16.8021C21.7626 16.7963 21.7626 16.7897 21.7602 16.7838C21.5652 15.9128 21.3052 14.5166 22.4362 14.163C22.4492 14.1604 22.4466 14.1448 22.4336 14.1422Z" fill="#92CEFF"/>
</g>
<g style="mix-blend-mode:screen" opacity="0.77">
<path d="M23.6763 15.1926C23.9155 15.9726 23.5411 16.802 23.1563 17.4494C23.1547 17.4531 23.1545 17.4573 23.1556 17.4612C23.1567 17.4652 23.1591 17.4686 23.1624 17.471C23.1657 17.4734 23.1697 17.4746 23.1738 17.4745C23.1778 17.4743 23.1818 17.4728 23.1849 17.4702C23.5132 17.1092 23.7204 16.6547 23.7777 16.1702C23.8401 15.8634 23.8791 15.4604 23.6763 15.1926Z" fill="#92CEFF"/>
</g>
<g style="mix-blend-mode:screen" opacity="0.77">
<path d="M22.137 36.7414C21.6482 35.6 20.9566 34.6614 20.694 33.403C20.5315 32.742 20.5315 32.0515 20.694 31.3906C20.8994 30.6678 21.3648 30.2726 21.9342 29.8306C21.9363 29.8276 21.9376 29.8241 21.9377 29.8204C21.9378 29.8168 21.9368 29.8132 21.9348 29.8101C21.9329 29.807 21.93 29.8046 21.9267 29.8031C21.9233 29.8017 21.9196 29.8013 21.916 29.802C20.5458 30.1608 20.2182 31.7494 20.356 32.9688C20.4938 34.1882 21.0398 36.0368 22.0486 36.8168C22.0596 36.8227 22.0722 36.8251 22.0847 36.8238C22.0972 36.8224 22.1089 36.8174 22.1185 36.8092C22.128 36.8011 22.1349 36.7903 22.1382 36.7782C22.1415 36.7661 22.1411 36.7532 22.137 36.7414Z" fill="#FF94AB"/>
</g>
<g style="mix-blend-mode:screen" opacity="0.77">
<path d="M20.616 23.8663C20.1529 23.7788 19.6754 23.8056 19.225 23.9443C18.783 24.0925 18.7622 24.1679 18.2292 24.1731C17.6078 24.1731 17.4726 24.0431 17.1502 23.5335C16.768 22.9303 16.5314 22.3713 15.767 22.2335C15.767 22.2335 15.754 22.2335 15.767 22.2465C16.8642 22.5065 16.807 23.7337 17.6598 24.2797C17.7932 24.3691 17.9459 24.4259 18.1053 24.4453C18.2648 24.4647 18.4266 24.4463 18.5776 24.3915C18.9078 24.3031 19.1886 24.0899 19.5292 24.0171C19.8698 23.9443 20.2598 23.9729 20.6212 23.9157C20.6245 23.9153 20.6276 23.9143 20.6305 23.9128C20.6333 23.9112 20.6359 23.9091 20.6379 23.9066C20.64 23.9041 20.6415 23.9011 20.6424 23.898C20.6433 23.8949 20.6437 23.8916 20.6433 23.8884C20.643 23.8851 20.642 23.882 20.6404 23.8791C20.6389 23.8762 20.6368 23.8737 20.6342 23.8717C20.6317 23.8696 20.6288 23.8681 20.6257 23.8671C20.6225 23.8662 20.6193 23.8659 20.616 23.8663Z" fill="#FF94AB"/>
</g>
<g style="mix-blend-mode:screen" opacity="0.77">
<path d="M31.9782 22.9926C31.5752 22.7872 31.4009 22.3998 31.0499 22.1424C30.6989 21.885 30.3427 21.9084 30.0099 21.7498C29.4561 21.4898 28.8581 19.831 29.8565 19.9168C29.8747 19.9168 29.8851 19.8882 29.8565 19.8804C28.9855 19.4878 29.1103 20.8502 29.2923 21.2948C29.3709 21.5004 29.5004 21.6826 29.6687 21.8245C29.8369 21.9664 30.0384 22.0632 30.2543 22.106C30.5182 22.1605 30.7684 22.2675 30.9901 22.4206C31.1357 22.5402 31.2267 22.7144 31.3645 22.8418C31.4415 22.9196 31.5335 22.981 31.635 23.0221C31.7365 23.0633 31.8453 23.0833 31.9548 23.081C31.9654 23.0814 31.9759 23.0782 31.9845 23.0719C31.9931 23.0656 31.9993 23.0565 32.002 23.0462C32.0048 23.0359 32.0039 23.0249 31.9995 23.0152C31.9952 23.0054 31.9877 22.9974 31.9782 22.9926Z" fill="#FF94AB"/>
</g>
<g style="mix-blend-mode:screen" opacity="0.77">
<path d="M19.2251 27.1136C19.2215 27.1053 19.2155 27.0981 19.2079 27.0932C19.2002 27.0882 19.1913 27.0855 19.1822 27.0855C19.1731 27.0855 19.1642 27.0882 19.1566 27.0932C19.149 27.0981 19.143 27.1053 19.1393 27.1136C19.0145 27.566 18.9105 28.177 18.3827 28.3252C17.9927 28.437 17.6287 28.1354 17.2361 28.3044C17.2179 28.3044 17.2361 28.3434 17.2361 28.3434C17.7821 28.3434 18.2631 28.7568 18.7571 28.3434C19.0717 28.0938 19.4253 27.5166 19.2251 27.1136Z" fill="#FF94AB"/>
</g>
<g style="mix-blend-mode:screen" opacity="0.77">
<path d="M33.928 26.2166C34.094 26.2461 34.2644 26.238 34.4268 26.193C34.5892 26.148 34.7395 26.0672 34.8666 25.9566C34.8666 25.9566 34.8666 25.941 34.8666 25.9566C34.11 26.3726 33.2468 25.7954 32.4954 25.6264C32.0649 25.5271 31.6155 25.5468 31.1954 25.6836C31.0498 25.5328 30.7144 25.564 30.5324 25.6108C29.963 25.759 29.3208 26.2478 28.8996 25.5562C28.8996 25.5562 28.8762 25.5562 28.884 25.5562C28.9579 25.7211 29.0899 25.8531 29.2549 25.9269C29.4198 26.0007 29.6062 26.0113 29.7784 25.9566C30.0202 25.9072 30.249 25.8058 30.4882 25.7486C30.6217 25.7059 30.7633 25.6952 30.9016 25.7174C30.9332 25.7272 30.9637 25.7402 30.9926 25.7564C30.067 26.1828 30.2126 27.085 30.8938 27.7142L30.9796 27.7896C30.9731 27.7914 30.9671 27.7951 30.9625 27.8001C30.9579 27.8052 30.9548 27.8114 30.9536 27.8182C30.873 28.2082 31.2136 28.45 31.3618 28.7724C31.6218 29.2924 31.1018 29.6122 31.1486 30.114C31.1486 30.1374 31.1902 30.1478 31.1954 30.114C31.2578 29.7032 31.6426 29.4354 31.614 29.0012C31.5854 28.567 31.1772 28.2706 31.0628 27.852C31.5438 28.2342 32.1522 28.5046 32.3628 29.1182C32.6046 29.8176 32.3264 30.5976 32.459 31.3204C32.576 31.96 32.9582 32.3604 33.4054 32.792C33.5027 32.8885 33.5939 32.9909 33.6784 33.0988C33.6576 33.0988 33.6342 33.1144 33.6446 33.1378C33.8708 33.6942 33.7928 34.0062 33.5198 34.5314C33.3553 34.8196 33.2501 35.1378 33.2104 35.4674H33.2286C33.2754 34.872 34.084 34.131 33.941 33.4992C34.331 34.2324 34.2816 35.0384 33.941 35.9172C33.941 35.938 33.9696 35.9536 33.9774 35.9328C34.4974 34.8252 34.4038 33.7462 33.551 32.8336C32.8256 32.0536 32.4772 31.5024 32.5604 30.4156C32.5786 30.1712 32.6072 29.9268 32.6124 29.6902C32.6787 29.8414 32.7663 29.9823 32.8724 30.1088C32.9798 30.2161 33.0974 30.3128 33.2234 30.3974C33.345 30.4768 33.444 30.5863 33.511 30.7152C33.5779 30.844 33.6105 30.988 33.6056 31.1332C33.6056 31.1332 33.6238 31.1488 33.6264 31.1332C33.6659 30.9849 33.6589 30.8281 33.6064 30.6839C33.5539 30.5397 33.4583 30.4152 33.3326 30.3272C33.1055 30.169 32.9156 29.9631 32.7762 29.724C32.6982 29.5706 32.654 29.412 32.5812 29.2664C32.5531 29.0946 32.495 28.9292 32.4096 28.7776C32.1704 28.3668 31.7466 28.1172 31.3696 27.8364C30.925 27.501 30.4856 27.1162 30.6286 26.5364C30.7716 25.9566 31.3358 25.811 31.8714 25.7824C32.407 25.7538 33.1194 26.0996 33.7642 26.2062C33.6325 26.3572 33.5101 26.5161 33.3976 26.682C33.2982 26.8096 33.2525 26.971 33.2702 27.1318C33.3125 27.3306 33.4093 27.5138 33.5498 27.6608C33.6904 27.8077 33.869 27.9127 34.0658 27.9638C34.0693 27.9638 34.0726 27.9624 34.075 27.9599C34.0775 27.9575 34.0788 27.9542 34.0788 27.9508C34.0788 27.9473 34.0775 27.944 34.075 27.9416C34.0726 27.9391 34.0693 27.9378 34.0658 27.9378C33.6602 27.7012 33.1194 27.189 33.5458 26.7132C33.6732 26.5572 33.889 26.4142 33.928 26.2166Z" fill="#EEC39C"/>
</g>
<g style="mix-blend-mode:screen" opacity="0.77">
<path d="M28.8971 37.5578C28.726 37.3062 28.4797 37.1151 28.1934 37.0119C27.9072 36.9087 27.5956 36.8987 27.3033 36.9832C26.6767 37.1366 26.1593 37.2432 25.5639 36.8844C25.3007 36.7186 25.0699 36.5062 24.8827 36.2578C24.8258 36.0105 24.7385 35.7712 24.6227 35.5454C24.3289 35.0254 23.8271 34.7446 23.3487 34.4144C22.1111 33.5564 21.5521 32.4384 21.7237 31.128C21.7469 31.3776 21.8269 31.6187 21.9577 31.8326C22.3009 32.3526 23.0965 32.4644 23.6425 32.6126V32.5892C23.1433 32.35 22.3867 32.233 22.0825 31.739C21.8857 31.3461 21.8105 30.9034 21.8667 30.4676C21.9109 30.3246 21.9577 30.1816 22.0175 30.0334C22.4647 28.9128 23.1797 27.6336 22.9171 26.3934C22.9171 26.3934 22.9015 26.3934 22.8989 26.3934C22.3789 28.8894 20.0103 31.9782 22.5817 34.144C22.9031 34.3903 23.2372 34.6194 23.5827 34.8304C23.562 34.8281 23.5411 34.8281 23.5203 34.8304C23.5136 34.8322 23.5073 34.8353 23.5019 34.8396C23.4964 34.8438 23.4918 34.8491 23.4884 34.8552C23.485 34.8613 23.4829 34.8679 23.4821 34.8748C23.4813 34.8817 23.482 34.8887 23.4839 34.8954C23.5701 35.1482 23.5701 35.4225 23.4839 35.6754C23.4154 35.8681 23.3811 36.0714 23.3825 36.276C23.417 36.5196 23.5116 36.7507 23.6578 36.9487C23.8039 37.1466 23.9971 37.305 24.2197 37.4096C24.2197 37.4096 24.2327 37.4096 24.2197 37.4096C23.9181 37.1054 23.5671 36.679 23.5801 36.2188C23.6312 35.9447 23.7042 35.6751 23.7985 35.4128C23.8334 35.2754 23.8334 35.1315 23.7985 34.9942C24.0479 35.1731 24.2606 35.3981 24.4251 35.6572C24.8047 36.2838 24.8255 37.056 25.1323 37.7164C25.468 38.3607 25.9972 38.8835 26.6455 39.2114C27.0902 39.4294 27.4898 39.7293 27.8233 40.0954C28.0165 40.3655 28.2477 40.6064 28.5097 40.8104C28.5565 40.8416 28.6033 40.774 28.5669 40.735C28.1067 40.2358 27.8077 39.6586 27.2149 39.3076C26.3283 38.7876 25.5275 38.356 25.1557 37.3212C25.0695 37.0583 24.9975 36.791 24.9399 36.5204C25.1761 36.8463 25.4997 37.0987 25.8733 37.2484C26.1123 37.345 26.3702 37.3859 26.6273 37.368C27.5191 37.2874 27.9975 36.8298 28.8633 37.5916C28.8678 37.5961 28.8739 37.5986 28.8802 37.5986C28.8866 37.5986 28.8927 37.5961 28.8971 37.5916C28.9016 37.5871 28.9041 37.581 28.9041 37.5747C28.9041 37.5683 28.9016 37.5623 28.8971 37.5578Z" fill="#EEC39C"/>
</g>
<g style="mix-blend-mode:screen" opacity="0.77">
<path d="M22.5426 27.8754C22.1915 28.5704 21.9102 29.2985 21.7028 30.049C21.4974 30.7094 21.5442 31.3334 21.4818 32.012C21.4818 32.0276 21.5 32.0276 21.5052 32.012C21.7444 31.4218 21.6586 30.712 21.8562 30.088C22.0928 29.3522 22.3554 28.6242 22.553 27.878C22.5556 27.8754 22.5452 27.8702 22.5426 27.8754Z" fill="#FF94AB"/>
</g>
<g style="mix-blend-mode:screen" opacity="0.77">
<path d="M23.6971 34.9189C23.6477 35.4649 23.1979 36.1773 23.5411 36.6973C23.5432 36.7018 23.547 36.7052 23.5516 36.7069C23.5562 36.7087 23.5614 36.7085 23.5658 36.7064C23.5703 36.7043 23.5738 36.7006 23.5755 36.6959C23.5772 36.6913 23.577 36.6862 23.5749 36.6817C23.476 36.3452 23.4842 35.9863 23.5983 35.6547C23.679 35.4182 23.7126 35.1682 23.6971 34.9189Z" fill="#FF94AB"/>
</g>
<g style="mix-blend-mode:screen" opacity="0.77">
<path d="M26.8431 39.2348C26.4765 38.9488 26.0631 38.7746 25.7355 38.4184C25.2857 37.914 25.2155 37.3004 25.0049 36.6868C25.1375 37.316 25.1973 37.914 25.6133 38.4314C25.9245 38.8269 26.3462 39.121 26.8249 39.2764C26.8405 39.2972 26.8639 39.2504 26.8431 39.2348Z" fill="#FF94AB"/>
</g>
<g style="mix-blend-mode:screen" opacity="0.77">
<path d="M22.7378 34.1882C22.5064 33.9022 22.2178 33.6942 21.9942 33.3874C21.7803 33.0933 21.6233 32.7617 21.5314 32.4098H21.5132C21.6068 33.1014 22.0332 33.9204 22.7066 34.2298C22.7121 34.2339 22.719 34.2357 22.7259 34.2347C22.7327 34.2338 22.7388 34.2301 22.743 34.2246C22.7471 34.2191 22.7489 34.2121 22.7479 34.2053C22.7469 34.1985 22.7433 34.1923 22.7378 34.1882Z" fill="#FF94AB"/>
</g>
<g style="mix-blend-mode:screen" opacity="0.77">
<path d="M28.0936 37.1184C27.7946 36.9182 27.5086 36.9806 27.1784 37.0898C26.9169 37.192 26.6379 37.2416 26.3573 37.2358C26.0767 37.23 25.8 37.1689 25.543 37.056C25.8386 37.2701 26.1946 37.3848 26.5596 37.3836C26.7308 37.3713 26.8992 37.3327 27.0588 37.2692C27.3827 37.1498 27.7316 37.1149 28.0728 37.1678C28.0786 37.168 28.0844 37.1665 28.0893 37.1634C28.0942 37.1603 28.0981 37.1557 28.1003 37.1503C28.1026 37.1449 28.1032 37.139 28.1019 37.1333C28.1007 37.1276 28.0978 37.1224 28.0936 37.1184Z" fill="#FF94AB"/>
</g>
<g style="mix-blend-mode:screen" opacity="0.77">
<path d="M30.8496 25.8631C30.8496 25.8631 30.8496 25.8397 30.8496 25.8475C30.3946 26.1647 30.0384 27.2099 30.7872 27.4335C30.8262 27.4335 30.8496 27.3945 30.8262 27.3659C30.6208 27.1241 30.4466 26.9551 30.4934 26.6093C30.5403 26.3322 30.6636 26.0738 30.8496 25.8631Z" fill="#FF94AB"/>
</g>
<g style="mix-blend-mode:screen" opacity="0.77">
<path d="M31.1617 28.3591C31.307 28.5379 31.3917 28.7582 31.4035 28.9883C31.4035 29.1807 31.3411 29.3627 31.3359 29.5525C31.3363 29.559 31.3387 29.5653 31.3428 29.5704C31.3469 29.5756 31.3526 29.5793 31.3589 29.581C31.3652 29.5827 31.372 29.5824 31.3781 29.5801C31.3843 29.5778 31.3895 29.5736 31.3931 29.5681C31.4961 29.3699 31.5293 29.1428 31.4873 28.9234C31.4453 28.704 31.3306 28.5052 31.1617 28.3591Z" fill="#FF94AB"/>
</g>
<g style="mix-blend-mode:screen" opacity="0.77">
<path d="M32.1001 28.5332C32.2087 28.8667 32.2905 29.2084 32.3445 29.555C32.3469 29.8444 32.373 30.1331 32.4225 30.4182C32.4241 30.4228 32.4271 30.4268 32.431 30.4296C32.435 30.4324 32.4397 30.4339 32.4446 30.4339C32.4495 30.4339 32.4542 30.4324 32.4582 30.4296C32.4621 30.4268 32.4651 30.4228 32.4667 30.4182C32.5344 30.0954 32.5368 29.7624 32.4739 29.4387C32.4109 29.1149 32.2838 28.8071 32.1001 28.5332Z" fill="#FF94AB"/>
</g>
<g style="mix-blend-mode:screen" opacity="0.77">
<path d="M33.7799 33.3433C33.7761 33.3376 33.7706 33.3333 33.7642 33.3311C33.7578 33.3288 33.7509 33.3287 33.7444 33.3308C33.7379 33.3328 33.7323 33.3369 33.7284 33.3425C33.7245 33.348 33.7225 33.3547 33.7227 33.3615C33.7505 33.472 33.7653 33.5855 33.7669 33.6995C33.7669 33.8035 33.7435 33.9049 33.7513 34.0089C33.7536 34.0138 33.7572 34.0181 33.7618 34.021C33.7664 34.024 33.7718 34.0255 33.7773 34.0255C33.7827 34.0255 33.7881 34.024 33.7927 34.021C33.7973 34.0181 33.801 34.0138 33.8033 34.0089C33.9385 33.8373 33.8371 33.5331 33.7799 33.3433Z" fill="#FF94AB"/>
</g>
<g style="mix-blend-mode:screen" opacity="0.77">
<path d="M33.4991 26.6273C33.2911 26.7183 33.1793 27.1785 33.4055 27.3059C33.4211 27.3059 33.4445 27.3059 33.4367 27.2825C33.3816 27.1793 33.3581 27.062 33.3692 26.9455C33.3803 26.829 33.4255 26.7183 33.4991 26.6273Z" fill="#FF94AB"/>
</g>
<g style="mix-blend-mode:multiply" opacity="0.36">
<path d="M23.0134 26.2685H22.9978C22.912 27.0485 22.9978 27.8857 22.7196 28.6501C22.5168 29.2169 22.1216 29.6901 21.9266 30.2647C21.6952 30.9563 21.807 31.6999 22.522 32.0197C22.5454 32.0197 22.574 32.0015 22.5506 31.9807C21.4248 31.0213 22.3452 29.9553 22.7924 28.9231C23.159 28.0807 23.0784 27.1629 23.0134 26.2685Z" fill="#A12252"/>
</g>
<g style="mix-blend-mode:multiply" opacity="0.36">
<path d="M25.0624 36.6973C25.0026 37.5267 25.5824 38.2313 26.2168 38.7019C26.5496 38.9437 26.9266 39.1205 27.2568 39.3571C27.8048 39.7827 28.2874 40.2864 28.6894 40.8521C28.6894 40.8521 28.7102 40.8521 28.7076 40.8521C28.0186 38.9827 25.2574 38.8423 25.0624 36.6973Z" fill="#A12252"/>
</g>
<g style="mix-blend-mode:multiply" opacity="0.36">
<path d="M24.2611 37.3681C23.8893 36.9885 23.6865 36.6609 23.7411 36.1175C23.8054 35.7458 23.835 35.3689 23.8295 34.9917C23.6969 35.8107 23.3719 36.8897 24.2481 37.4071C24.2522 37.4064 24.2561 37.4045 24.2593 37.4018C24.2625 37.399 24.2649 37.3955 24.2662 37.3915C24.2675 37.3875 24.2678 37.3832 24.2669 37.3791C24.266 37.375 24.264 37.3712 24.2611 37.3681Z" fill="#A12252"/>
</g>
<g style="mix-blend-mode:multiply" opacity="0.36">
<path d="M25.4858 36.5725C25.8446 36.9755 26.2658 37.0561 26.7858 37.0405C27.6932 37.0119 28.3822 36.8013 28.9984 37.6567C29.0192 37.6853 29.0764 37.6697 29.0608 37.6307C28.4654 36.0967 26.4842 37.4903 25.4858 36.5725Z" fill="#A12252"/>
</g>
<g style="mix-blend-mode:multiply" opacity="0.36">
<path d="M33.949 32.9142C33.689 32.5216 33.3614 32.2018 33.078 31.83C32.6386 31.2528 32.6854 30.6522 32.5866 29.9866C32.5658 30.738 32.4982 31.2866 32.9636 31.9236C33.6968 32.9298 34.5886 33.7436 34.2142 35.106C34.2116 35.1163 34.2128 35.1271 34.2175 35.1366C34.2222 35.146 34.2302 35.1535 34.2399 35.1576C34.2497 35.1617 34.2606 35.1621 34.2706 35.1589C34.2807 35.1556 34.2893 35.1489 34.2948 35.1398C34.6796 34.3884 34.3858 33.5772 33.949 32.9142Z" fill="#A12252"/>
</g>
<g style="mix-blend-mode:multiply" opacity="0.36">
<path d="M32.5369 28.8166C32.3185 28.3434 31.8739 28.1146 31.4683 27.8182C31.1329 27.5712 30.7169 27.1994 30.7377 26.734C30.7663 26.1542 31.3643 25.954 31.8245 25.8448C31.2083 25.7876 30.5011 26.2192 30.6025 26.9134C30.7351 27.8364 31.9337 28.242 32.4849 28.866C32.5005 28.8972 32.5369 28.8504 32.5369 28.8166Z" fill="#A12252"/>
</g>
<g style="mix-blend-mode:multiply" opacity="0.36">
<path d="M34.8068 26.1022C34.5273 26.0597 34.2421 26.1234 34.0072 26.2808C33.7724 26.4382 33.605 26.6778 33.538 26.9524C33.4184 27.4724 33.798 27.8312 34.1958 28.0938C34.2166 28.0938 34.2348 28.0808 34.227 28.0626C34.0502 27.6778 33.5562 27.5426 33.6446 27.0408C33.7538 26.396 34.2686 26.2374 34.8068 26.1022Z" fill="#A12252"/>
</g>
<g style="mix-blend-mode:multiply" opacity="0.36">
<path d="M31.6583 29.0117C31.6411 28.826 31.5861 28.6458 31.4967 28.4821C31.4072 28.3185 31.2853 28.1748 31.1383 28.0601C31.1383 28.0601 31.1383 28.0601 31.1383 28.0601C31.4113 28.4111 31.6791 28.9441 31.4815 29.3835C31.3827 29.5993 31.1929 29.7813 31.2423 30.0309C31.2446 30.0358 31.2482 30.0401 31.2529 30.043C31.2575 30.046 31.2628 30.0475 31.2683 30.0475C31.2738 30.0475 31.2791 30.046 31.2838 30.043C31.2884 30.0401 31.292 30.0358 31.2943 30.0309C31.4347 29.7397 31.6947 29.3679 31.6583 29.0117Z" fill="#A12252"/>
</g>
<g style="mix-blend-mode:multiply" opacity="0.36">
<path d="M17.5767 28.9205C17.5611 29.3599 17.6469 29.7993 17.6287 30.2387C17.6427 30.4847 17.5617 30.7267 17.4025 30.9147C17.1711 31.1513 16.8435 31.1279 16.5445 31.2007C16.5185 31.2007 16.5159 31.2527 16.5445 31.2579C16.7741 31.3105 17.0149 31.2777 17.222 31.1658C17.4292 31.0538 17.5885 30.8703 17.6703 30.6495C17.8237 30.0983 17.6027 29.4743 17.5767 28.9205Z" fill="#A12252"/>
</g>
<g style="mix-blend-mode:multiply" opacity="0.36">
<path d="M19.9349 25.928C19.9349 25.928 19.9349 25.928 19.9193 25.928C19.5319 27.1474 20.3275 28.788 19.2199 29.711C19.2127 29.7152 19.2074 29.722 19.2052 29.7301C19.203 29.7381 19.2041 29.7467 19.2082 29.7539C19.2124 29.7612 19.2192 29.7665 19.2273 29.7687C19.2353 29.7709 19.2439 29.7698 19.2511 29.7656C20.5927 29.4172 19.7451 26.8536 19.9349 25.928Z" fill="#A12252"/>
</g>
<g style="mix-blend-mode:multiply" opacity="0.36">
<path d="M21.6017 26.9264C20.9179 26.7626 20.5928 27.3008 20.5096 27.9014C20.3926 28.7386 20.1197 30.9044 18.7755 30.3636C18.7625 30.3636 18.7573 30.3636 18.7755 30.3818C19.4983 30.9148 20.1274 30.0386 20.403 29.4354C20.5474 29.0985 20.6352 28.7401 20.663 28.3746C20.6692 28.1186 20.7032 27.8641 20.7645 27.6154C20.9101 27.176 21.1987 27.0954 21.6017 26.981C21.6173 26.9732 21.6303 26.9316 21.6017 26.9264Z" fill="#A12252"/>
</g>
<g style="mix-blend-mode:multiply" opacity="0.36">
<path d="M22.9559 24.3783C22.6231 24.5213 22.6049 24.8281 22.6465 25.1583C22.6958 25.39 22.7219 25.6261 22.7245 25.8629C22.6763 26.1419 22.57 26.4077 22.4125 26.6429C22.4082 26.6516 22.4071 26.6614 22.4093 26.6708C22.4115 26.6802 22.417 26.6885 22.4246 26.6944C22.4323 26.7002 22.4418 26.7032 22.4514 26.7028C22.461 26.7024 22.4703 26.6987 22.4775 26.6923C22.6088 26.5958 22.7165 26.4708 22.7926 26.3267C22.8687 26.1827 22.9112 26.0232 22.9169 25.8603C22.9455 25.3403 22.6205 24.8489 22.9793 24.3939C22.9767 24.3861 22.9663 24.3731 22.9559 24.3783Z" fill="#A12252"/>
</g>
<g style="mix-blend-mode:multiply" opacity="0.36">
<path d="M23.6971 23.6712C23.6763 23.4424 23.4631 23.1824 23.2109 23.2682C23.2109 23.2682 23.2109 23.2682 23.2109 23.2838C23.3955 23.3982 23.5827 23.4632 23.5619 23.7232C23.5537 23.8165 23.5214 23.906 23.4683 23.9832C23.4111 24.0638 23.3201 24.1106 23.2707 24.1964C23.2551 24.2224 23.2707 24.2458 23.3019 24.251C23.5671 24.2822 23.7205 23.8792 23.6971 23.6712Z" fill="#A12252"/>
</g>
<g style="mix-blend-mode:multiply" opacity="0.36">
<path d="M20.6991 23.7831C20.6991 23.7831 20.6861 23.7831 20.6991 23.7831C20.9591 24.0431 21.3127 24.2693 21.3621 24.6723C21.3807 24.8745 21.3336 25.0773 21.2277 25.2506C21.1219 25.4239 20.9629 25.5585 20.7745 25.6343C20.7459 25.6473 20.7615 25.6889 20.7745 25.6889C21.2061 25.7149 21.4687 25.2339 21.4895 24.8543C21.5311 24.3031 21.0969 24.0587 20.6991 23.7831Z" fill="#A12252"/>
</g>
<g style="mix-blend-mode:multiply" opacity="0.36">
<path d="M21.9058 8.61719C21.664 8.49239 21.2506 8.72899 21.0426 8.84859C20.7495 8.98437 20.5217 9.22999 20.4082 9.53239C20.4082 9.57139 20.455 9.58699 20.4706 9.54799C20.616 9.25634 20.8656 9.02992 21.17 8.91359C21.3092 8.84251 21.4556 8.78672 21.6068 8.74719C21.7096 8.73387 21.8102 8.70676 21.9058 8.66659C21.9101 8.66407 21.9137 8.66046 21.9162 8.65613C21.9187 8.6518 21.92 8.64689 21.92 8.64189C21.92 8.63689 21.9187 8.63198 21.9162 8.62765C21.9137 8.62331 21.9101 8.61971 21.9058 8.61719Z" fill="#A12252"/>
</g>
<g style="mix-blend-mode:multiply" opacity="0.36">
<path d="M24.9191 8.60158C24.8437 8.38838 24.5057 8.34158 24.3159 8.38838C24.2215 8.41928 24.1363 8.47366 24.0686 8.54641C24.0008 8.61917 23.9527 8.70793 23.9285 8.80438C23.9008 8.90228 23.8953 9.00514 23.9124 9.10544C23.9295 9.20575 23.9688 9.30097 24.0273 9.38418C24.0938 9.47729 24.1875 9.54752 24.2955 9.58523C24.4035 9.62294 24.5206 9.62628 24.6305 9.59478C24.4615 9.49598 24.2743 9.48558 24.1495 9.31658C24.1037 9.25122 24.0735 9.17617 24.0614 9.09727C24.0492 9.01837 24.0553 8.93772 24.0793 8.86158C24.0955 8.78999 24.1295 8.72364 24.1782 8.66865C24.2268 8.61366 24.2885 8.57182 24.3575 8.54698C24.5577 8.48458 24.6981 8.64838 24.8775 8.64578C24.8836 8.64764 24.89 8.64777 24.8961 8.64616C24.9023 8.64455 24.9078 8.64125 24.9121 8.63665C24.9165 8.63204 24.9194 8.62632 24.9207 8.62012C24.9219 8.61392 24.9214 8.6075 24.9191 8.60158Z" fill="#A12252"/>
</g>
<g style="mix-blend-mode:multiply" opacity="0.36">
<path d="M28.0704 7.86071C27.8858 7.70991 26.9758 7.46291 27.046 7.92831C27.0954 8.26631 27.5374 8.26371 27.7948 8.27931V8.25591C27.618 8.20651 27.2904 8.15711 27.1916 7.98291C27.0928 7.80871 27.4516 7.79051 27.5634 7.81131C27.7197 7.86516 27.8822 7.89922 28.047 7.91271C28.073 7.91011 28.0938 7.87891 28.0704 7.86071Z" fill="#A12252"/>
</g>
<g style="mix-blend-mode:multiply" opacity="0.36">
<path d="M34.5472 17.2492C34.5395 17.2428 34.5304 17.2382 34.5206 17.236C34.5109 17.2338 34.5007 17.234 34.491 17.2366C34.4813 17.2391 34.4724 17.2439 34.465 17.2507C34.4575 17.2574 34.4519 17.2658 34.4484 17.2752C34.4038 17.4475 34.4147 17.6295 34.4796 17.7952C34.5139 17.9613 34.5941 18.1144 34.711 18.2372C34.724 18.2372 34.7396 18.2372 34.7396 18.219C34.7238 18.0769 34.6806 17.9391 34.6122 17.8134C34.5566 17.6803 34.5326 17.5362 34.542 17.3922C34.7086 17.6114 34.8515 17.8476 34.9684 18.0968C34.9684 18.0968 34.9892 18.0968 34.9866 18.0968C34.9438 17.7716 34.7883 17.4716 34.5472 17.2492Z" fill="#A12252"/>
</g>
<g style="mix-blend-mode:multiply" opacity="0.36">
<path d="M35.5086 21.1803C35.4955 21.1771 35.4817 21.1791 35.47 21.1859C35.4584 21.1927 35.4498 21.2038 35.4462 21.2167C35.4163 21.3682 35.4298 21.525 35.4852 21.6691C35.5125 21.8043 35.5849 21.9263 35.6906 22.0149C35.6946 22.0172 35.6992 22.0184 35.7038 22.0184C35.7084 22.0184 35.713 22.0171 35.717 22.0147C35.7209 22.0123 35.7242 22.0089 35.7264 22.0048C35.7286 22.0008 35.7297 21.9962 35.7296 21.9915C35.7087 21.8751 35.6673 21.7633 35.6074 21.6613C35.5633 21.5433 35.5422 21.418 35.545 21.2921C35.6481 21.3197 35.7428 21.3724 35.8206 21.4455C35.8216 21.4471 35.8229 21.4484 35.8244 21.4494C35.826 21.4504 35.8277 21.4511 35.8295 21.4515C35.8313 21.4519 35.8332 21.4519 35.835 21.4515C35.8368 21.4512 35.8385 21.4504 35.8401 21.4494C35.8416 21.4484 35.8429 21.4471 35.844 21.4455C35.845 21.444 35.8457 21.4423 35.8461 21.4405C35.8464 21.4387 35.8464 21.4368 35.8461 21.435C35.8457 21.4332 35.845 21.4315 35.844 21.4299C35.8119 21.3647 35.7648 21.308 35.7064 21.2646C35.6481 21.2212 35.5803 21.1923 35.5086 21.1803Z" fill="#A12252"/>
</g>
<g style="mix-blend-mode:multiply" opacity="0.36">
<path d="M35.7949 22.5687C35.6427 22.5686 35.4912 22.5905 35.3451 22.6337C35.0922 22.6949 34.8256 22.6636 34.5938 22.5453C34.5938 22.5453 34.5938 22.5453 34.5938 22.5453C34.7462 22.6799 34.9442 22.7515 35.1476 22.7455C35.3747 22.7529 35.6003 22.7056 35.8054 22.6077C35.8184 22.6025 35.8183 22.5713 35.7949 22.5687Z" fill="#A12252"/>
</g>
<g style="mix-blend-mode:multiply" opacity="0.36">
<path d="M35.1632 19.4619C34.8122 19.3345 34.5574 19.4827 34.2714 19.6933C33.689 20.1249 33.2444 20.3849 32.4956 20.4031C32.4956 20.4031 32.4956 20.4031 32.4956 20.4187C33.403 21.0219 34.352 19.7583 35.1658 19.5659C35.1767 19.5621 35.1862 19.5549 35.1928 19.5454C35.1994 19.5359 35.2028 19.5245 35.2025 19.513C35.2022 19.5014 35.1982 19.4902 35.1912 19.481C35.1841 19.4718 35.1743 19.4652 35.1632 19.4619Z" fill="#A12252"/>
</g>
<g style="mix-blend-mode:multiply" opacity="0.36">
<path d="M28.98 12.0543C28.3222 11.0507 27.8386 9.90933 28.5666 8.82513C27.29 9.36333 28.1142 11.5239 28.9358 12.1089C28.9592 12.1245 28.9982 12.0829 28.98 12.0543Z" fill="#A12252"/>
</g>
<g style="mix-blend-mode:multiply" opacity="0.36">
<path d="M25.7122 10.8948C25.525 10.809 25.3014 10.77 25.2338 10.5438C25.201 10.3207 25.2529 10.0935 25.3794 9.90679C25.395 9.88079 25.3559 9.84699 25.3351 9.87299C25.2437 9.97208 25.1766 10.0911 25.1392 10.2206C25.1017 10.3501 25.0949 10.4866 25.1194 10.6192C25.1557 10.7393 25.2364 10.8411 25.345 10.9038C25.4537 10.9666 25.5821 10.9857 25.7044 10.9572C25.7126 10.9582 25.721 10.9559 25.7276 10.9508C25.7341 10.9457 25.7384 10.9382 25.7395 10.9299C25.7405 10.9216 25.7382 10.9133 25.7331 10.9067C25.7279 10.9001 25.7204 10.8958 25.7122 10.8948Z" fill="#A12252"/>
</g>
<g style="mix-blend-mode:multiply" opacity="0.36">
<path d="M23.0055 11.5292C22.5167 11.5292 22.2463 11.212 22.0227 10.8116C21.8932 10.5742 21.8188 10.3108 21.8048 10.0408C21.7909 9.77074 21.8378 9.50104 21.9421 9.25159C21.9421 9.25159 21.9421 9.25159 21.9421 9.25159C21.4715 9.77159 21.5703 10.51 21.9005 11.0716C22.1189 11.4486 22.6103 12.0102 23.0679 11.6488C23.1095 11.615 23.0653 11.5266 23.0055 11.5292Z" fill="#A12252"/>
</g>
<g style="mix-blend-mode:multiply" opacity="0.36">
<path d="M28.0704 16.1572C27.6882 15.1016 26.3856 14.0356 25.4002 15.073C24.2848 16.2508 24.511 18.3698 24.9114 19.7712C24.9114 19.776 24.9133 19.7806 24.9167 19.784C24.9201 19.7874 24.9248 19.7894 24.9296 19.7894C24.9344 19.7894 24.9391 19.7874 24.9425 19.784C24.9459 19.7806 24.9478 19.776 24.9478 19.7712C24.9608 18.5128 24.7216 17.2518 25.2286 16.048C25.4496 15.528 25.8474 14.8702 26.5286 15.008C27.0824 15.1224 27.6102 15.8062 27.9586 16.2196C27.9683 16.2314 27.9818 16.2395 27.9968 16.2424C28.0118 16.2452 28.0273 16.2427 28.0407 16.2353C28.054 16.2278 28.0643 16.2159 28.0698 16.2016C28.0752 16.1873 28.0754 16.1716 28.0704 16.1572Z" fill="#A12252"/>
</g>
<g style="mix-blend-mode:multiply" opacity="0.36">
<path d="M29.2505 12.1533C29.4358 12.5993 29.6485 13.0335 29.8875 13.4533C30.1241 13.9343 30.2593 14.4933 30.5453 14.9379C30.556 14.9542 30.5716 14.9668 30.5898 14.9738C30.608 14.9809 30.628 14.982 30.6469 14.9772C30.6658 14.9723 30.6828 14.9616 30.6953 14.9466C30.7079 14.9317 30.7154 14.9131 30.7169 14.8937C30.8261 13.9629 29.9031 12.7461 29.2505 12.1533Z" fill="#A12252"/>
</g>
<g style="mix-blend-mode:multiply" opacity="0.36">
<path d="M35.7767 32.6048C35.7221 30.9668 35.9327 28.5644 34.9057 27.1448C34.9057 27.1292 34.8641 27.1448 34.8745 27.1448C35.5687 28.8244 35.4465 30.7848 35.4829 32.5788C35.5037 33.5616 35.4543 34.5288 35.3945 35.5064C35.3269 36.6322 34.9213 37.5864 34.7211 38.6732C34.7211 38.7174 34.7809 38.7564 34.8017 38.707C35.1657 37.849 35.5817 36.9936 35.6675 36.055C35.7768 34.9084 35.8133 33.756 35.7767 32.6048Z" fill="#A12252"/>
</g>
<g style="mix-blend-mode:multiply" opacity="0.34">
<path d="M23.3617 14.8805C23.0653 14.5711 22.5817 14.1941 22.1683 14.5321C21.6483 14.9611 21.5677 15.9309 21.7757 16.5289C21.7757 16.5549 21.8329 16.5627 21.8381 16.5289C21.9421 15.9829 21.8017 15.4369 22.0981 14.9273C22.2697 14.6413 22.4803 14.4957 22.8105 14.6413C22.9873 14.7193 23.1485 14.8337 23.3305 14.9013C23.3338 14.9033 23.3377 14.9043 23.3416 14.9042C23.3455 14.9041 23.3493 14.9029 23.3526 14.9007C23.3559 14.8985 23.3584 14.8955 23.36 14.8919C23.3616 14.8883 23.3622 14.8844 23.3617 14.8805Z" fill="#004056"/>
</g>
<g style="mix-blend-mode:multiply" opacity="0.34">
<path d="M22.4231 17.6756C21.5963 18.1956 20.0831 18.3464 19.4695 19.1602C19.1783 19.5424 19.2095 20.039 19.2095 20.494C19.1894 21.319 19.2373 22.1443 19.3525 22.9614C19.3588 22.9839 19.3722 23.0037 19.3907 23.0178C19.4093 23.0318 19.4319 23.0395 19.4552 23.0395C19.4785 23.0395 19.5012 23.0318 19.5197 23.0178C19.5383 23.0037 19.5517 22.9839 19.5579 22.9614C19.658 22.348 19.6894 21.7254 19.6515 21.105C19.6255 20.455 19.3187 19.7114 19.7685 19.1576C20.4055 18.3776 21.7081 18.3958 22.4829 17.751C22.5245 17.7172 22.4699 17.647 22.4231 17.6756Z" fill="#004056"/>
</g>
<g style="mix-blend-mode:multiply" opacity="0.34">
<path d="M19.0168 13.6379C19.055 13.0365 18.9041 12.4383 18.5852 11.9271C18.5811 11.9203 18.5749 11.915 18.5676 11.9121C18.5603 11.9091 18.5522 11.9086 18.5445 11.9107C18.5369 11.9127 18.5301 11.9172 18.5253 11.9235C18.5204 11.9297 18.5177 11.9374 18.5176 11.9453C18.5436 12.5953 18.6086 13.2271 18.58 13.8823C18.5592 14.4023 18.463 14.9223 18.671 15.3955C18.6764 15.4052 18.6843 15.4134 18.6939 15.419C18.7035 15.4247 18.7144 15.4277 18.7256 15.4277C18.7367 15.4277 18.7477 15.4247 18.7573 15.419C18.7669 15.4134 18.7748 15.4052 18.7802 15.3955C19.0298 14.8755 19.0168 14.2047 19.0168 13.6379Z" fill="#004056"/>
</g>
<g style="mix-blend-mode:multiply" opacity="0.34">
<path d="M32.6539 16.763C31.8776 17.3897 31.0206 17.9091 30.1059 18.3074C29.3519 18.674 28.6369 19.1108 28.2001 19.8466C27.7246 20.7204 27.4093 21.6723 27.2693 22.6572C27.0899 23.7362 27.2329 24.9972 26.5049 25.889C26.4581 25.9462 26.5179 26.0398 26.5881 25.9956C27.2563 25.5874 27.4019 24.836 27.5007 24.1028C27.6228 22.8665 27.9177 21.6535 28.3769 20.4992C28.8813 19.3448 29.8771 18.8846 30.9327 18.3282C31.6347 17.9616 32.3601 17.5482 32.6773 16.7682C32.6955 16.7604 32.6669 16.75 32.6539 16.763Z" fill="#004056"/>
</g>
<g style="mix-blend-mode:multiply" opacity="0.34">
<path d="M26.0994 15.4397C26.0994 15.4215 26.0656 15.4397 26.063 15.4397C26.0162 15.7907 26.2034 16.1339 26.323 16.4563C26.4723 16.8373 26.4906 17.2571 26.375 17.6497C26.3727 17.6604 26.3735 17.6715 26.3773 17.6818C26.3811 17.692 26.3878 17.701 26.3966 17.7076C26.4054 17.7141 26.4158 17.7181 26.4267 17.7189C26.4377 17.7197 26.4486 17.7173 26.4582 17.7121C27.2694 17.3247 26.4036 15.9155 26.0994 15.4397Z" fill="#004056"/>
</g>
<g style="mix-blend-mode:multiply" opacity="0.34">
<path d="M26.3312 15.2603C26.092 14.8573 25.6994 15.6789 25.65 15.8297C25.4686 16.3977 25.3997 16.9956 25.4472 17.5899C25.4494 17.5982 25.4543 17.6056 25.4611 17.6108C25.4679 17.6161 25.4763 17.6189 25.4849 17.6189C25.4935 17.6189 25.5018 17.6161 25.5087 17.6108C25.5155 17.6056 25.5204 17.5982 25.5226 17.5899C25.572 17.1635 25.6188 16.7423 25.7072 16.3211C25.7478 16.072 25.8249 15.8302 25.936 15.6035C26.0452 15.4111 26.1596 15.4215 26.3182 15.3149C26.3227 15.3123 26.3266 15.3087 26.3297 15.3045C26.3328 15.3003 26.335 15.2955 26.3363 15.2904C26.3375 15.2853 26.3376 15.28 26.3368 15.2748C26.3359 15.2697 26.334 15.2647 26.3312 15.2603Z" fill="#004056"/>
</g>
<g style="mix-blend-mode:multiply" opacity="0.36">
<path d="M33.317 23.9885C33.3144 23.9777 33.3086 23.9679 33.3004 23.9605C33.2921 23.953 33.2818 23.9483 33.2708 23.9469C33.2597 23.9454 33.2486 23.9474 33.2387 23.9525C33.2288 23.9577 33.2208 23.9657 33.2156 23.9755C32.342 25.3457 29.937 23.9209 28.689 23.7441C29.2038 24.0145 33.7824 25.6941 33.317 23.9885Z" fill="#A12252"/>
</g>
<g style="mix-blend-mode:multiply" opacity="0.36">
<path d="M34.617 25.0569C34.6145 25.0443 34.6077 25.0329 34.5977 25.0249C34.5877 25.0168 34.5752 25.0125 34.5624 25.0127C34.4636 25.0127 34.4428 25.0907 34.3596 25.1271C34.3109 25.1403 34.2596 25.1406 34.2108 25.1278C34.1619 25.115 34.1173 25.0897 34.0814 25.0543C33.9283 24.9317 33.7896 24.7921 33.668 24.6383C33.7404 24.8932 33.9007 25.1142 34.1204 25.2623C34.1682 25.2936 34.2226 25.3137 34.2794 25.3209C34.3361 25.3281 34.3938 25.3223 34.448 25.3039C34.5286 25.2701 34.6404 25.1739 34.617 25.0569Z" fill="#A12252"/>
</g>
<g style="mix-blend-mode:multiply" opacity="0.36">
<path d="M33.6083 22.0929C33.6026 22.0912 33.5965 22.0914 33.5908 22.0933C33.5852 22.0953 33.5803 22.099 33.5769 22.1038C33.5735 22.1087 33.5716 22.1145 33.5717 22.1205C33.5717 22.1265 33.5736 22.1323 33.5771 22.1371C33.7253 22.2619 33.9593 22.3529 34.0191 22.5505C34.0306 22.652 34.018 22.7549 33.9823 22.8506C33.9466 22.9464 33.8889 23.0324 33.8137 23.1017C33.5577 23.3525 33.2691 23.5676 32.9557 23.7413C33.1936 23.705 33.4204 23.6161 33.6196 23.4812C33.8188 23.3463 33.9855 23.1687 34.1075 22.9613C34.1579 22.8734 34.1845 22.7738 34.1844 22.6725C34.1844 22.5711 34.1578 22.4716 34.1073 22.3837C34.0568 22.2959 33.9841 22.2228 33.8966 22.1717C33.809 22.1207 33.7096 22.0935 33.6083 22.0929Z" fill="#A12252"/>
</g>
</g>
<defs>
<linearGradient id="paint0_linear_8772_39432" x1="42.1698" y1="44.1903" x2="11.5288" y2="6.06389" gradientUnits="userSpaceOnUse">
<stop stop-color="white"/>
<stop offset="0.39" stop-color="#3D4396"/>
<stop offset="0.86" stop-color="#2A4090"/>
</linearGradient>
<linearGradient id="paint1_linear_8772_39432" x1="22.3916" y1="16.8696" x2="17.7584" y2="10.7128" gradientUnits="userSpaceOnUse">
<stop stop-color="white"/>
<stop offset="0.39" stop-color="#3D5996"/>
<stop offset="0.86" stop-color="#2A3B90"/>
</linearGradient>
<clipPath id="clip0_8772_39432">
<rect width="52" height="52" rx="26" fill="white"/>
</clipPath>
</defs>
</svg>
