<svg width="20" height="26" viewBox="0 0 20 26" fill="none" xmlns="http://www.w3.org/2000/svg">
<path d="M5.49947 4.0459V2.83391C5.49947 2.62012 5.66736 2.44681 5.87447 2.44681H8.46048C8.46048 1.56814 9.14983 1 10.0002 1C10.8506 1 11.5399 1.56814 11.5399 2.44681H14.1257C14.3328 2.44681 14.5007 2.62012 14.5007 2.83391V4.0459M5.49947 4.0459V5.25789C5.49947 5.47167 5.66736 5.64498 5.87447 5.64498H14.1257C14.3328 5.64498 14.5007 5.47167 14.5007 5.25789V4.0459M5.49947 4.0459L3.25001 4.04584C2.00736 4.04584 1 5.0857 1 6.36843V22.6774C1 23.9601 2.00736 25 3.25001 25H16.75C17.9927 25 19 23.9601 19 22.6774V6.36843C19 5.0857 17.9927 4.04584 16.75 4.04584L14.5007 4.0459" stroke="#6197FF"/>
<path d="M9.15625 9.02112L16.6631 9.02112" stroke="#6197FF" stroke-linecap="round"/>
<path d="M9.15625 11.0389L16.6631 11.0389" stroke="#6197FF" stroke-linecap="round"/>
<path d="M3.3374 11.0029L6.91783 11.0029" stroke="#6197FF" stroke-linecap="round"/>
<path d="M5.12799 9.32092L5.12799 12.6854" stroke="#6197FF" stroke-linecap="round"/>
<path d="M9.15625 13.0568L16.6631 13.0568" stroke="#6197FF" stroke-linecap="round"/>
<path d="M3.3374 15.0746L16.663 15.0746" stroke="#6197FF" stroke-linecap="round"/>
<path d="M3.3374 17.0923L16.663 17.0923" stroke="#6197FF" stroke-linecap="round"/>
<path d="M3.3374 19.1101L16.663 19.1101" stroke="#6197FF" stroke-linecap="round"/>
<path d="M3.3374 21.1277L16.663 21.1277" stroke="#6197FF" stroke-linecap="round"/>
<path d="M10.411 2.48617C10.411 2.71232 10.2274 2.89618 10.0002 2.89618C9.77299 2.89618 9.58936 2.71232 9.58936 2.48617C9.58936 2.26003 9.77299 2.07617 10.0002 2.07617C10.2274 2.07617 10.411 2.26003 10.411 2.48617Z" stroke="#6197FF" stroke-width="0.5"/>
</svg>
