<svg width="18" height="25" viewBox="0 0 18 25" fill="none" xmlns="http://www.w3.org/2000/svg">
<path d="M12.8552 9.03534C12.8552 11.0853 11.1425 12.7706 9.00035 12.7706C6.85817 12.7706 5.14551 11.0853 5.14551 9.03534C5.14551 6.98542 6.85817 5.30005 9.00035 5.30005C11.1425 5.30005 12.8552 6.98542 12.8552 9.03534Z" stroke="#FF6197"/>
<path d="M17.5 8.78431C17.5 9.95104 16.9069 11.4569 15.9621 13.0881C15.0277 14.7014 13.7918 16.3665 12.5959 17.8325C10.7092 20.1453 7.29078 20.1453 5.40405 17.8325C4.20819 16.3665 2.97229 14.7014 2.03786 13.0881C1.09306 11.4569 0.5 9.95104 0.5 8.78431C0.5 4.22038 4.29408 0.5 9 0.5C13.7059 0.5 17.5 4.22038 17.5 8.78431Z" stroke="#FF6197"/>
<path d="M4.93555 24H13.0646" stroke="#FF6197" stroke-linecap="round"/>
</svg>
