<svg width="14" height="15" viewBox="0 0 14 15" fill="none" xmlns="http://www.w3.org/2000/svg">
<path d="M7 9.0625C8.91406 9.0625 10.5 7.50391 10.5 5.5625V2.55469C10.5 2.19922 10.2539 1.87109 9.92578 1.73438L7.60156 0.886719C7.41016 0.804688 7.19141 0.75 7 0.75C6.78125 0.75 6.5625 0.804688 6.37109 0.886719L4.04688 1.73438C3.71875 1.87109 3.5 2.19922 3.5 2.55469V5.5625C3.5 7.50391 5.05859 9.0625 7 9.0625ZM5.90625 2.71875C5.90625 2.63672 5.96094 2.58203 6.04297 2.58203H6.61719V1.98047C6.61719 1.92578 6.67188 1.84375 6.75391 1.84375H7.21875C7.30078 1.84375 7.35547 1.92578 7.35547 1.98047V2.58203H7.95703C8.01172 2.58203 8.09375 2.63672 8.09375 2.71875V3.18359C8.09375 3.26562 8.01172 3.32031 7.95703 3.32031H7.35547V3.89453C7.35547 3.97656 7.30078 4.03125 7.21875 4.03125H6.75391C6.67188 4.03125 6.61719 3.97656 6.61719 3.89453V3.32031H6.04297C5.96094 3.32031 5.90625 3.26562 5.90625 3.18359V2.71875ZM4.8125 5.125H9.1875V5.5625C9.1875 6.79297 8.20312 7.75 7 7.75C5.76953 7.75 4.8125 6.79297 4.8125 5.5625V5.125ZM9.81641 9.30859L7 12.125L4.15625 9.30859C2.24219 9.9375 0.875 11.7148 0.875 13.8203C0.875 14.3398 1.28516 14.75 1.80469 14.75H12.168C12.6875 14.75 13.0977 14.3398 13.0977 13.8203C13.0977 11.7148 11.7305 9.9375 9.81641 9.30859Z" fill="#2B2C3A" fill-opacity="0.5"/>
</svg>
