<svg width="18" height="19" viewBox="0 0 18 19" fill="none" xmlns="http://www.w3.org/2000/svg">
<path d="M9 0.25C4.00781 0.25 0 4.29297 0 9.25C0 14.2422 4.00781 18.25 9 18.25C13.957 18.25 18 14.2422 18 9.25C18 4.29297 13.957 0.25 9 0.25ZM9 16.5625C4.95703 16.5625 1.6875 13.293 1.6875 9.25C1.6875 5.24219 4.95703 1.9375 9 1.9375C13.0078 1.9375 16.3125 5.24219 16.3125 9.25C16.3125 13.293 13.0078 16.5625 9 16.5625ZM9 12.0625C8.36719 12.0625 7.875 12.5547 7.875 13.1875C7.875 13.8203 8.33203 14.3125 9 14.3125C9.59766 14.3125 10.125 13.8203 10.125 13.1875C10.125 12.5547 9.59766 12.0625 9 12.0625ZM10.1602 4.75H8.36719C6.99609 4.75 5.90625 5.83984 5.90625 7.21094C5.90625 7.66797 6.29297 8.05469 6.75 8.05469C7.20703 8.05469 7.59375 7.66797 7.59375 7.21094C7.59375 6.78906 7.91016 6.4375 8.33203 6.4375H10.125C10.582 6.4375 10.9688 6.78906 10.9688 7.21094C10.9688 7.49219 10.8281 7.73828 10.582 7.87891L8.57812 9.07422C8.29688 9.25 8.15625 9.53125 8.15625 9.8125V10.375C8.15625 10.832 8.54297 11.2188 9 11.2188C9.45703 11.2188 9.84375 10.832 9.84375 10.375V10.3047L11.4258 9.32031C12.1641 8.86328 12.6211 8.05469 12.6211 7.21094C12.6562 5.83984 11.5664 4.75 10.1602 4.75Z" fill="#2B2C3A" fill-opacity="0.5"/>
</svg>
