<svg width="25" height="24" viewBox="0 0 25 24" fill="none" xmlns="http://www.w3.org/2000/svg">
<path opacity="0.5" d="M12 10.5C10.5938 10.5 9.5 11.625 9.5 13C9.5 14.4063 10.5938 15.5 12 15.5C13.375 15.5 14.5 14.4063 14.5 13C14.5 11.625 13.375 10.5 12 10.5ZM12 14.5C11.1562 14.5 10.5 13.8438 10.5 13C10.5 12.1875 11.1562 11.5 12 11.5C12.8125 11.5 13.5 12.1875 13.5 13C13.5 13.8438 12.8125 14.5 12 14.5ZM19 6H14V5C14 4.46875 13.5313 4 13 4H11C10.4375 4 10 4.46875 10 5V6H5C3.875 6 3 6.90625 3 8V18C3 19.125 3.875 20 5 20H19C20.0938 20 21 19.125 21 18V8C21 6.90625 20.0938 6 19 6ZM11 5H13V8H11V5ZM15 19H9V18.3438C9 18.0625 9.0625 17.7813 9.21875 17.5625C9.4375 17.2188 9.84375 17 10.3125 17C10.8125 17 11.0625 17.25 12 17.25C12.9063 17.25 13.1563 17 13.6563 17C14.125 17 14.5313 17.2188 14.75 17.5625C14.9063 17.7813 15 18.0625 15 18.3438V19ZM20 18C20 18.5625 19.5312 19 19 19H16V18.3438C16 17.8438 15.8438 17.375 15.5938 17C15.1563 16.3438 14.4063 16 13.6563 16C12.9688 16 12.7813 16.25 12 16.25C11.1875 16.25 11 16 10.3125 16C9.5625 16 8.84375 16.3438 8.40625 17C8.15625 17.375 8 17.8438 8 18.3438V19H5C4.4375 19 4 18.5625 4 18V8C4 7.46875 4.4375 7 5 7H10V9H14V7H19C19.5312 7 20 7.46875 20 8V18Z" fill="#040E16" stroke="#040E16" stroke-width="0.3"/>
</svg>
