<svg width="115" height="115" viewBox="0 0 115 115" fill="none" xmlns="http://www.w3.org/2000/svg">
<circle cx="57.5" cy="57.5" r="57.5" fill="white" fill-opacity="0.2"/>
<circle cx="57.5" cy="57.5" r="46" fill="white" fill-opacity="0.5"/>
<circle cx="57.5" cy="57.5" r="34.5" fill="white"/>
<g filter="url(#filter0_dd_10596_48185)">
<path d="M79.884 49.6651C79.5095 46.7285 78.0495 42.73 73.2251 40.3813C67.8638 37.766 63.6835 39.3572 61.1233 41.1519C59.3968 42.3624 58.1784 43.8049 57.5001 44.7288C56.4929 43.3524 55.27 42.1448 53.8777 41.1519C51.3136 39.3557 47.1395 37.7613 41.7759 40.3813C36.9514 42.7331 35.4914 46.7285 35.1162 49.6651C34.4169 55.1362 36.9281 61.5072 41.2203 65.1574C46.7572 69.8656 56.9204 78.7318 57.0222 78.8212C57.1543 78.9364 57.3242 79 57.5001 79C57.676 79 57.8459 78.9364 57.9779 78.8212C58.0805 78.7318 68.243 69.8656 73.7807 65.1574C78.0728 61.5072 80.5826 55.1369 79.884 49.6651Z" fill="url(#paint0_linear_10596_48185)"/>
</g>
<path d="M43.9801 58.4813C44.0798 58.4815 44.1771 58.451 44.2585 58.394C44.34 58.3369 44.4015 58.2563 44.4347 58.163L45.1938 55.9345L47.2031 65.4596C47.2263 65.5686 47.287 65.6663 47.375 65.7356C47.4629 65.805 47.5725 65.8418 47.6848 65.8396C47.7972 65.8374 47.9052 65.7964 47.9904 65.7236C48.0755 65.6509 48.1323 65.5509 48.1511 65.4411L50.3741 52.4254L52.0431 60.0417C52.0653 60.1422 52.1195 60.2329 52.1978 60.3005C52.276 60.368 52.3741 60.4087 52.4776 60.4166C52.581 60.4245 52.6843 60.3991 52.772 60.3442C52.8597 60.2893 52.9273 60.2078 52.9646 60.1118L54.2444 56.8176L54.8248 58.1908C54.8613 58.2778 54.923 58.3521 55.0021 58.4044C55.0812 58.4566 55.1742 58.4844 55.2692 58.4844H58.8621C58.9626 58.4844 59.0606 58.4534 59.1424 58.3955C59.2241 58.3376 59.2856 58.2558 59.3182 58.1615L60.0812 55.9623L62.0851 65.4588C62.1078 65.5663 62.167 65.6628 62.2529 65.7321C62.3387 65.8014 62.446 65.8393 62.5568 65.8395H62.5661C62.6784 65.8374 62.7865 65.7965 62.8717 65.7237C62.9568 65.651 63.0136 65.551 63.0323 65.4411L65.2553 52.4254L66.9251 60.0417C66.9472 60.1422 67.0015 60.2329 67.0797 60.3005C67.158 60.368 67.2561 60.4087 67.3595 60.4166C67.463 60.4245 67.5662 60.3991 67.6539 60.3442C67.7417 60.2893 67.8092 60.2078 67.8466 60.1118L69.1263 56.8176L69.706 58.1908C69.7428 58.2777 69.8047 58.352 69.8839 58.4042C69.9631 58.4564 70.0561 58.4843 70.1512 58.4844H78.5428C78.6749 58.1684 78.8 57.8494 78.915 57.5281H70.4721L69.5529 55.3535C69.5163 55.2666 69.4545 55.1923 69.3754 55.1401C69.2964 55.0878 69.2035 55.06 69.1085 55.0599H69.1015C69.0049 55.0616 68.9111 55.0918 68.8321 55.1468C68.753 55.2017 68.6923 55.2788 68.6578 55.3682L67.5257 58.2817L65.6679 49.8054C65.6449 49.6964 65.584 49.5989 65.4957 49.53C65.4075 49.4611 65.2976 49.4252 65.1854 49.4286C65.0731 49.431 64.9651 49.472 64.8801 49.5447C64.795 49.6174 64.7381 49.7172 64.7192 49.827L62.507 62.7895L60.6671 54.0674C60.6468 53.9633 60.5922 53.8689 60.5119 53.7989C60.4316 53.7289 60.3301 53.6873 60.2234 53.6807C60.1167 53.6741 60.0108 53.7028 59.9224 53.7623C59.8339 53.8219 59.7679 53.9089 59.7347 54.0097L58.514 57.5289H55.5901L54.6709 55.3535C54.6344 55.2665 54.5727 55.1922 54.4936 55.1399C54.4145 55.0877 54.3215 55.0599 54.2265 55.0599H54.2195C54.1231 55.0615 54.0293 55.0918 53.9504 55.1467C53.8714 55.2016 53.8109 55.2788 53.7766 55.3682L52.6437 58.2809L50.7859 49.8054C50.7632 49.6963 50.7024 49.5985 50.6141 49.5296C50.5258 49.4606 50.4157 49.4249 50.3034 49.4286C50.191 49.4307 50.0829 49.4716 49.9978 49.5444C49.9127 49.6171 49.8558 49.7171 49.8372 49.827L47.6251 62.7895L45.7851 54.0674C45.7635 53.9653 45.7088 53.873 45.6294 53.8046C45.55 53.7361 45.4502 53.6953 45.3452 53.6884C45.2402 53.6814 45.1358 53.7086 45.0479 53.7659C44.96 53.8232 44.8933 53.9075 44.8581 54.0058L43.639 57.4225L36.078 57.5111C36.1946 57.8379 36.3202 58.1612 36.4549 58.4813H43.9801Z" fill="white"/>
<defs>
<filter id="filter0_dd_10596_48185" x="33" y="39" width="49" height="46" filterUnits="userSpaceOnUse" color-interpolation-filters="sRGB">
<feFlood flood-opacity="0" result="BackgroundImageFix"/>
<feColorMatrix in="SourceAlpha" type="matrix" values="0 0 0 0 0 0 0 0 0 0 0 0 0 0 0 0 0 0 127 0" result="hardAlpha"/>
<feMorphology radius="2" operator="erode" in="SourceAlpha" result="effect1_dropShadow_10596_48185"/>
<feOffset dy="4"/>
<feGaussianBlur stdDeviation="2"/>
<feColorMatrix type="matrix" values="0 0 0 0 0.0941176 0 0 0 0 0.152941 0 0 0 0 0.294118 0 0 0 0.08 0"/>
<feBlend mode="normal" in2="BackgroundImageFix" result="effect1_dropShadow_10596_48185"/>
<feColorMatrix in="SourceAlpha" type="matrix" values="0 0 0 0 0 0 0 0 0 0 0 0 0 0 0 0 0 0 127 0" result="hardAlpha"/>
<feMorphology radius="2" operator="erode" in="SourceAlpha" result="effect2_dropShadow_10596_48185"/>
<feOffset dy="2"/>
<feGaussianBlur stdDeviation="2"/>
<feColorMatrix type="matrix" values="0 0 0 0 0.0941176 0 0 0 0 0.152941 0 0 0 0 0.294118 0 0 0 0.12 0"/>
<feBlend mode="normal" in2="effect1_dropShadow_10596_48185" result="effect2_dropShadow_10596_48185"/>
<feBlend mode="normal" in="SourceGraphic" in2="effect2_dropShadow_10596_48185" result="shape"/>
</filter>
<linearGradient id="paint0_linear_10596_48185" x1="35" y1="39" x2="87.5619" y2="60.5922" gradientUnits="userSpaceOnUse">
<stop stop-color="#FF6197"/>
<stop offset="1" stop-color="#FFC961"/>
</linearGradient>
</defs>
</svg>
