<svg width="90" height="84" viewBox="0 0 90 84" fill="none" xmlns="http://www.w3.org/2000/svg">
<g clip-path="url(#clip0_9005_37556)">
<path d="M35.7566 0.728489C36.3226 0.328534 36.9805 0.0838221 37.6667 0.0180051C38.3529 -0.0478119 39.0442 0.0674924 39.6738 0.352781C39.8601 0.424484 40.0224 0.54901 40.1412 0.711588C40.1977 0.79413 40.2244 0.893894 40.217 0.994126C40.2096 1.09436 40.1685 1.18896 40.1006 1.26201C39.9971 1.33612 39.8743 1.37731 39.7477 1.38036C39.4391 1.41981 39.0991 1.44984 38.8478 1.26387C39.2584 1.36357 39.6499 1.5318 40.0064 1.76169C40.3371 1.97584 40.6531 2.26889 40.7454 2.65775C40.7743 2.75642 40.7651 2.86259 40.7196 2.95455C40.6069 3.14241 40.3371 3.10298 40.132 3.04286L38.9938 2.71036C39.7155 3.13468 40.2433 3.83132 40.4628 4.649C40.5178 4.82129 40.5274 5.00529 40.4905 5.18252C40.4699 5.27 40.4235 5.34895 40.3574 5.40874C40.2913 5.46853 40.2088 5.50628 40.1209 5.51688C40.0318 5.50548 39.9459 5.47578 39.8684 5.42961C39.7909 5.38343 39.7234 5.32175 39.6701 5.24827C39.0677 4.61457 38.4666 3.98025 37.8667 3.3453C38.1767 3.62651 38.386 4.00449 38.4617 4.41982C38.5079 4.68658 38.3767 5.0698 38.1162 5.00781C37.9462 4.96648 37.8852 4.75985 37.8261 4.59078C37.6638 4.16773 37.352 3.82152 36.9518 3.61998C36.5516 3.41844 36.0917 3.37609 35.6624 3.50122C35.2443 3.65888 34.8991 3.96932 34.6941 4.37192C34.4891 4.77452 34.4391 5.24035 34.5538 5.67844C34.2582 4.68281 33.9773 4.04223 34.2545 2.98462C34.4843 2.07897 35.015 1.28193 35.7566 0.728489Z" fill="#E38D49"/>
<path d="M21.7787 7.72048C20.7735 8.02668 19.9661 8.47189 19.3101 9.30784C18.81 9.92848 18.5203 10.6967 18.4842 11.4982C18.4796 11.537 18.4834 11.5763 18.4956 11.6133C18.5077 11.6504 18.5278 11.6842 18.5544 11.7124C18.6302 11.7744 18.7392 11.7387 18.8297 11.6936C19.0916 11.5594 19.3203 11.3667 19.4986 11.13C19.2168 11.5995 19.0092 12.1111 18.8833 12.646C18.7835 13.1851 18.8833 13.79 19.2529 14.1883C19.3014 14.2483 19.3612 14.2978 19.4287 14.3339C19.4963 14.37 19.5703 14.392 19.6464 14.3987C19.8043 14.3818 19.9495 14.3029 20.0511 14.1789C20.8493 13.3636 20.8216 12.0317 21.411 11.0492C21.2373 11.4094 21.162 11.8103 21.1929 12.2102C21.2096 12.398 21.2909 12.6141 21.4701 12.6235C21.6142 12.6235 21.7196 12.4882 21.7898 12.3586C22.0384 11.8899 22.1846 11.3721 22.2184 10.8407C22.1436 11.2265 22.1436 11.6234 22.2184 12.0092C22.224 12.0662 22.2481 12.1197 22.2868 12.1613C22.3829 12.2459 22.5307 12.1613 22.6101 12.0505C22.837 11.7269 22.988 11.3549 23.0517 10.9628C23.1149 10.5749 23.2247 10.1964 23.3788 9.8357C23.4579 9.65434 23.5776 9.49433 23.7284 9.36842C23.8792 9.24252 24.0569 9.15421 24.2472 9.11058C24.6168 9.05235 25.8547 9.20265 25.9101 9.59714C25.2524 8.06425 23.2365 7.27527 21.7787 7.72048Z" fill="#E38D49"/>
<path d="M52.4803 31.6024C50.2039 31.3131 47.9054 31.6964 45.6142 31.8147C43.3231 31.933 40.8989 31.7452 38.9828 30.464C37.0667 29.1829 35.8879 26.5191 36.8856 24.4245C37.6857 22.7451 39.7182 21.5166 39.5186 19.6624C39.3449 18.0563 37.4732 16.901 37.6709 15.2986C37.8391 13.9235 39.4004 13.2435 40.1432 12.0826C41.128 10.544 40.5127 8.51332 40.7196 6.69114C41.0652 3.54834 44.3042 1.05554 47.3714 1.58528C51.5915 -0.0321375 56.6764 2.64853 57.5726 7.14199C57.8331 8.43818 57.7795 9.82079 58.3116 11.0249C59.2891 13.1984 62.1216 14.797 61.5544 17.117C61.1626 18.7175 59.1856 19.7207 59.2503 21.3682C59.2891 22.3938 60.1261 23.1734 60.6231 24.0676C61.6671 25.9461 61.1442 28.4221 59.7935 30.0789C58.4428 31.7358 54.5719 31.8692 52.4803 31.6024Z" fill="#AE564E"/>
<path d="M44.5482 27.152C42.8982 27.8188 40.9821 27.7155 39.4282 28.5834C39.5446 27.2515 38.9533 25.3486 38.9533 25.3486C38.9533 25.3486 38.5967 22.5176 39.9603 22.8257C41.3572 23.1413 42.2201 23.9829 42.8982 24.6911C43.0682 24.8677 44.7071 27.0881 44.5482 27.152Z" fill="#FFC961"/>
<path d="M56.7782 54.3965L45.1155 54.6726C44.7848 44.2129 40.1433 27.755 40.1433 27.755C40.1433 27.755 47.4048 25.4651 47.6949 24.7945C48.2732 23.4532 47.9462 17.8439 47.9462 17.8439L53.0698 20.2334C53.0698 20.2334 52.7558 25.0049 53.4782 25.3411C55.4017 26.2334 57.957 27.1746 57.957 27.1746C58.9197 30.5728 61.0871 33.695 61.7005 37.1628C61.8176 37.6489 61.8414 38.1534 61.7707 38.6487C61.6414 39.2761 61.2164 39.8134 60.8616 40.3544C58.4227 43.9649 57.1939 50.1528 56.7782 54.3965Z" fill="#FFCCA9"/>
<g opacity="0.49">
<g opacity="0.49">
<path opacity="0.49" d="M50.0853 24.2479L49.1763 23.504L49.313 24.3738L50.0853 24.2479Z" fill="#C77D4F"/>
<path opacity="0.49" d="M51.6927 19.1044L54.1797 21.137L53.8028 18.7606L51.6927 19.1044Z" fill="#DE8B58"/>
</g>
</g>
<g opacity="0.24">
<path opacity="0.24" d="M52.7164 22.5609C52.8051 22.5609 52.9012 22.5402 52.9788 22.5252C53.0231 21.7081 53.0693 20.0643 53.0693 20.0643L47.9604 17.6974C47.9604 17.6974 48.0251 18.7343 48.0602 20.0286C49.1892 21.6104 50.8466 22.7225 52.7164 22.5609Z" fill="#994F49"/>
</g>
<path d="M62.7278 45.2801L69.9153 62.4725L67.6667 64.0505C67.6667 64.0505 59.6495 52.3678 58.7977 47.0535C57.9459 41.7391 62.7278 45.2801 62.7278 45.2801Z" fill="#FFCCA9"/>
<path d="M67.5116 63.2686C66.5028 65.2392 70.6823 66.3118 72.1752 68.8291C72.3452 69.1165 72.7295 69.449 72.9383 69.2048C72.9848 69.144 73.0153 69.0723 73.027 68.9962C73.0979 68.6442 73.0707 68.2791 72.9487 67.942C72.8266 67.6048 72.6144 67.3089 72.336 67.0876C73.9185 67.2904 75.3976 67.9965 76.5617 69.1052C76.7926 69.325 77.1659 69.6312 77.3858 69.4001C77.8569 68.9023 76.0111 66.9205 74.7306 66.4452C76.1478 66.5072 77.7442 68.8441 78.0879 68.6994C78.5369 68.5116 78.1322 67.7395 77.8551 67.3375C77.2121 66.4095 76.4194 65.8854 75.3237 65.1584C76.521 65.5022 78.2043 67.3488 78.4537 67.1308C79.106 66.5673 77.8163 65.5134 77.1419 64.9743C76.3176 64.3165 75.3553 63.8607 74.3297 63.6424C72.7425 63.3062 70.9317 63.1408 69.6827 62.0889L67.5116 63.2686Z" fill="#FFCCA9"/>
<path d="M45.8382 12.9692C45.8031 12.43 44.9642 12.3211 44.6095 12.7231C44.2547 13.1251 44.2639 13.73 44.3194 14.2673C44.3843 15.1248 44.7778 15.9221 45.4151 16.4877C46.0728 17.0719 47.1685 17.1734 47.4475 16.3299L45.8382 12.9692Z" fill="#FFCCA9"/>
<path d="M50.6509 5.67287C54.9838 4.88201 57.3285 7.36354 57.5207 12.3492C57.6703 16.2735 56.1146 19.7751 53.7994 20.4607C50.4569 21.4526 46.9407 17.6429 46.1961 14.1094C45.1946 9.36231 48.3967 6.08615 50.6509 5.67287Z" fill="#FFCCA9"/>
<path d="M53.0753 17.2635C52.9704 17.2828 52.8641 17.2935 52.7575 17.2954C52.5014 17.304 52.2467 17.253 52.0129 17.1462C51.7791 17.0394 51.5724 16.8797 51.4087 16.6793C51.3935 16.6598 51.3823 16.6375 51.3757 16.6136C51.3691 16.5898 51.3672 16.5648 51.3701 16.5402C51.373 16.5156 51.3807 16.4918 51.3927 16.4702C51.4047 16.4486 51.4208 16.4296 51.4401 16.4144C51.4592 16.399 51.4812 16.3876 51.5046 16.3809C51.5281 16.3742 51.5527 16.3722 51.5769 16.3752C51.6011 16.3782 51.6245 16.386 51.6457 16.3982C51.667 16.4104 51.6856 16.4268 51.7006 16.4463C51.8295 16.601 51.9913 16.7239 52.1737 16.8056C52.3562 16.8873 52.5546 16.9257 52.7538 16.9179C52.9531 16.921 53.1504 16.8778 53.3307 16.7916C53.511 16.7053 53.6695 16.5782 53.7941 16.42C53.8086 16.4 53.827 16.3832 53.848 16.3704C53.8691 16.3577 53.8924 16.3494 53.9166 16.3459C53.9408 16.3424 53.9655 16.3438 53.9892 16.3501C54.0129 16.3564 54.0351 16.3674 54.0546 16.3825C54.0938 16.4124 54.1197 16.4569 54.1266 16.5062C54.1336 16.5555 54.1209 16.6056 54.0915 16.6455C53.8415 16.9743 53.4785 17.195 53.0753 17.2635Z" fill="#E66C61"/>
<path d="M50.5903 10.418C50.5535 10.4398 50.5118 10.4512 50.4692 10.4512C50.4267 10.4512 50.385 10.4398 50.3482 10.418C49.9555 10.1986 49.5059 10.1073 49.0604 10.1564C48.6149 10.2054 48.195 10.3925 47.8575 10.6923C47.8338 10.7134 47.8062 10.7295 47.7764 10.7398C47.7465 10.75 47.7149 10.7541 47.6834 10.7518C47.652 10.7495 47.6213 10.741 47.5931 10.7265C47.565 10.7121 47.5399 10.6922 47.5194 10.6678C47.4778 10.6186 47.4569 10.5547 47.4614 10.49C47.4659 10.4252 47.4954 10.3649 47.5434 10.3222C48.9883 9.05606 50.5773 9.98593 50.594 9.99533C50.6486 10.0289 50.6881 10.0829 50.704 10.1458C50.7199 10.2087 50.7109 10.2754 50.679 10.3316C50.6577 10.368 50.627 10.3979 50.5903 10.418Z" fill="#774B42"/>
<path d="M53.6369 9.90699C53.5911 9.90385 53.5473 9.88684 53.5112 9.85814C53.4858 9.83904 53.4644 9.81504 53.4482 9.78751C53.4319 9.75999 53.4212 9.72947 53.4165 9.69771C53.4119 9.66596 53.4135 9.63359 53.4212 9.60246C53.4288 9.57132 53.4425 9.54203 53.4613 9.51626C53.7828 9.08043 54.5385 8.40791 56.0112 8.78362H56.05C56.081 8.7871 56.1111 8.79687 56.1384 8.81233C56.1658 8.82779 56.1898 8.84865 56.209 8.87367C56.2283 8.8987 56.2425 8.92739 56.2507 8.95806C56.2589 8.98873 56.261 9.02075 56.2569 9.05226C56.2477 9.11669 56.2147 9.17513 56.1645 9.21563C56.1144 9.25613 56.051 9.27564 55.9871 9.27018L55.8929 9.2495C54.9894 9.01843 54.2817 9.20818 53.8475 9.79992C53.8241 9.8344 53.7926 9.86231 53.7557 9.88103C53.7189 9.89975 53.678 9.90867 53.6369 9.90699Z" fill="#774B42"/>
<path d="M46.6227 15.3097C46.2643 14.269 46.2347 14.2445 46.0684 13.1719C45.9021 12.0992 46.0093 11.0924 46.6227 10.2001C47.1253 9.4693 48.1342 9.39039 48.9601 8.54317C50.1334 7.3409 51.2439 3.14238 48.5093 3.01464C47.0995 2.94889 45.4421 3.57819 44.4443 4.69404C43.4466 5.80989 43.0752 7.66965 43.4225 9.13867C43.6886 10.2658 43.3819 11.7536 43.9454 12.7624C44.5478 13.0611 45.6804 13.9571 46.6227 15.3097Z" fill="#AE564E"/>
<path d="M57.5263 13.326C57.9125 11.0154 58.6201 7.75051 57.0274 4.81623C55.4347 1.88195 49.875 0.478702 48.5705 3.35286C47.266 6.22703 54.0341 7.20197 55.7045 7.63592C57.1364 8.01162 57.2695 10.3824 57.4339 11.9941L57.5263 13.326Z" fill="#AE564E"/>
<path d="M44.8311 14.4399C44.9501 14.5733 45.0869 14.689 45.2375 14.7837C45.3828 14.8722 45.5413 14.9356 45.7069 14.9716L45.8916 15.0129L45.729 15.1275C45.601 15.2227 45.5023 15.353 45.4445 15.5032C45.3835 15.666 45.3651 15.842 45.3909 16.0142C45.298 15.847 45.2716 15.6501 45.317 15.4638C45.3602 15.2687 45.4718 15.0964 45.6311 14.9791L45.6625 15.135C45.4746 15.0928 45.2992 15.0059 45.1507 14.8814C45.0084 14.7649 44.8982 14.6128 44.8311 14.4399Z" fill="#AD6C58"/>
<path d="M52.4487 12.4054C52.4487 12.4054 52.227 13.6903 52.7702 14.4117C53.3134 15.133 53.9213 14.8062 54.1024 14.5357C54.1587 14.4342 54.1932 14.3218 54.2036 14.2058C54.214 14.0898 54.2 13.9729 54.1626 13.8628C54.1252 13.7527 54.0653 13.6519 53.9868 13.5671C53.9082 13.4824 53.8129 13.4155 53.707 13.371C53.003 13.0441 52.7684 13.0291 52.4487 12.4054Z" fill="#FFBE8C"/>
<path d="M45.7012 25.6642C45.7012 25.6642 47.22 31.3449 51.5215 30.9016C55.823 30.4582 54.3115 25.5853 54.3115 25.5853L59.7419 27.5578C59.7419 27.5578 60.6011 30.4582 61.5564 33.1164C62.5116 35.7745 62.3601 36.4452 60.2316 40.1252C58.5889 42.9637 56.7782 54.4021 56.7782 54.4021L45.1155 54.6726L40.1433 27.7531L45.7012 25.6642Z" fill="#FF6197"/>
<path d="M40.1434 27.6405C40.1434 27.6405 37.7248 31.0801 36.3556 37.6681C35.5073 41.7217 34.1498 45.6474 32.3165 49.3489C32.3165 49.3489 34.3675 51.8023 37.2019 51.8323C37.2019 51.8323 44.5631 38.6224 44.6758 33.263C44.7885 27.9035 40.1434 27.6405 40.1434 27.6405Z" fill="#FF6197"/>
<path d="M59.7417 27.6369C59.7417 27.6369 61.7538 29.6732 62.2231 36.389C62.698 43.2024 64.6732 50.138 64.6732 50.138C64.6732 50.138 62.31 52.2814 59.4996 51.917C59.4996 51.917 53.9879 37.8035 54.5976 32.4797C55.2074 27.156 59.7417 27.6369 59.7417 27.6369Z" fill="#FF6197"/>
<path d="M54.9872 16.1626C54.9872 16.1626 52.5076 17.2296 50.5657 16.0029C50.5657 16.0029 50.8003 18.4976 52.6425 18.5765C54.6842 18.6611 54.9872 16.1626 54.9872 16.1626Z" fill="#994F49"/>
<path d="M54.4847 16.3317C54.4746 16.4875 54.4543 16.6425 54.4237 16.7956C54.0062 17.0417 53.5461 17.038 53.0805 17.0849C52.9094 17.1065 52.7373 17.1178 52.5649 17.1187C52.0699 17.0811 51.5846 16.9592 51.1293 16.7581C51.1293 16.6097 51.1293 16.45 51.1515 16.2941C52.4171 16.8013 53.7733 16.5383 54.4847 16.3317Z" fill="white"/>
<path d="M51.4156 18.0187C51.5478 17.8707 51.7089 17.7523 51.8887 17.6712C52.3293 17.4486 52.8271 17.3705 53.3132 17.4476C53.6576 17.5085 53.978 17.6674 54.2371 17.906C54.041 18.1346 53.7955 18.3139 53.5198 18.43C53.2441 18.546 52.9457 18.5955 52.6481 18.5747C52.1812 18.5619 51.7382 18.3621 51.4156 18.0187Z" fill="#FD4E4C"/>
<path d="M42.3179 40.7713C43.5041 38.2578 43.8085 35.4074 43.1807 32.6936L42.3179 40.7713Z" fill="#FF6197"/>
<path d="M60.1761 128.762C57.9588 129.848 55.372 130.149 53.092 129.234C52.5949 120.78 52.4637 112.327 52.3325 103.858L52.194 94.8509C52.0849 87.7688 51.4309 81.6392 51.3218 74.5627C49.7513 93.8872 46.2924 111.339 40.8509 129.925C38.5431 130.143 36.0764 129.579 34.1641 128.249C35.5277 117.957 36.422 109.049 37.7837 98.7564C38.1237 96.1941 38.4637 93.6261 38.508 91.0412C38.5616 87.983 38.2013 84.9341 38.0756 81.8777C37.6663 71.4657 39.976 61.1291 44.7699 51.9188C48.53 54.6878 52.9515 54.4511 57.1495 52.3828C63.0991 63.4906 63.9343 77.512 62.9051 90.117C61.8759 102.722 60.3738 116.114 60.1761 128.762Z" fill="#6197FF"/>
<path d="M51.4525 77.9665L50.9906 77.912C51.0128 77.7241 51.035 77.5043 51.059 77.2827C51.3472 74.5776 51.7833 70.4861 53.6624 69.0059L53.9469 69.3816C52.2249 70.7397 51.7833 74.8688 51.5209 77.3372C51.4969 77.5551 51.4747 77.7673 51.4525 77.9665Z" fill="#517ED6"/>
<path d="M51.392 54.1993C48.9856 54.1869 46.6354 53.4588 44.6312 52.1047L44.9102 51.729C44.9657 51.7722 50.5254 55.8975 57.0404 52.1761L57.2695 52.5875C55.4816 53.6355 53.4557 54.1911 51.392 54.1993Z" fill="#517ED6"/>
<path d="M53.1879 13.0666C53.2878 13.0156 53.3976 12.9876 53.5094 12.9846C53.6212 12.9817 53.7322 13.0039 53.8346 13.0497C54.0574 13.1388 54.2367 13.3136 54.3335 13.5362C54.424 13.7614 54.424 14.0137 54.3335 14.2388C54.2967 14.3462 54.2368 14.444 54.1582 14.5249C54.0795 14.6058 53.9841 14.6679 53.8789 14.7066C53.9923 14.5486 54.0659 14.3648 54.0933 14.1712C54.1178 14.0002 54.0967 13.8257 54.0323 13.6659C53.962 13.5078 53.8509 13.3721 53.7108 13.2732C53.5553 13.1627 53.376 13.0918 53.1879 13.0666Z" fill="#D87B56"/>
<path d="M50.7484 12.5219C50.7484 12.5219 50.815 13.3316 49.5604 13.3729C48.3058 13.4143 47.7792 12.5783 47.7792 12.5783C47.9521 12.3327 48.1792 12.1317 48.4423 11.9914C48.7054 11.8511 48.9972 11.7754 49.2943 11.7705C49.5796 11.7595 49.8629 11.8227 50.1174 11.9542C50.3718 12.0857 50.5891 12.2811 50.7484 12.5219Z" fill="white"/>
<path d="M53.7919 12.1839C53.7919 12.1839 54.0284 12.8658 55.27 12.6892C56.484 12.5164 56.5801 11.4963 56.5801 11.4963C56.3761 11.3032 56.1269 11.1662 55.8563 11.0985C55.5856 11.0307 55.3024 11.0345 55.0335 11.1093C54.7539 11.1667 54.4932 11.2954 54.276 11.4834C54.0588 11.6713 53.8922 11.9124 53.7919 12.1839Z" fill="white"/>
<path d="M50.7711 12.4355C50.7711 12.4355 50.7323 13.2583 49.9655 13.3485C49.0897 13.4537 49.0416 11.825 49.0416 11.825C49.3573 11.7593 49.6845 11.7813 49.9888 11.8888C50.2931 11.9962 50.5634 12.1851 50.7711 12.4355Z" fill="#507CA1"/>
<path d="M56.5817 11.466C56.5817 11.466 56.456 12.4616 55.7982 12.5687C54.928 12.7077 54.8744 11.1523 54.8744 11.1523C54.8744 11.1523 55.8537 10.7353 56.5817 11.466Z" fill="#507CA1"/>
<path d="M50.7193 12.4974C50.687 12.5017 50.6542 12.4957 50.6254 12.4802C50.5966 12.4647 50.5732 12.4405 50.5585 12.411C50.5456 12.3847 50.2315 11.7873 49.3113 11.8474C48.3283 11.9131 47.9126 12.4917 47.896 12.5161C47.8711 12.551 47.8339 12.5747 47.7921 12.5821C47.7503 12.5894 47.7074 12.58 47.6724 12.5556C47.6553 12.5434 47.6407 12.5279 47.6295 12.51C47.6182 12.492 47.6106 12.472 47.607 12.4511C47.6034 12.4301 47.6039 12.4087 47.6085 12.3879C47.613 12.3672 47.6216 12.3475 47.6336 12.3302C47.6539 12.3001 48.1491 11.6013 49.2966 11.5224C50.444 11.4435 50.8357 12.2287 50.8523 12.2625C50.8708 12.3014 50.8734 12.3462 50.8596 12.387C50.8457 12.4278 50.8165 12.4614 50.7784 12.4805C50.7603 12.4909 50.74 12.4967 50.7193 12.4974Z" fill="#272C3A"/>
<path d="M53.8156 12.1538C53.79 12.1571 53.7639 12.1539 53.7398 12.1444C53.7203 12.1369 53.7024 12.1255 53.6872 12.111C53.6719 12.0964 53.6597 12.079 53.6511 12.0596C53.6425 12.0403 53.6378 12.0194 53.6372 11.9981C53.6365 11.9769 53.64 11.9557 53.6474 11.9359C53.7673 11.6618 53.9511 11.4215 54.1829 11.2359C54.4147 11.0503 54.6876 10.9249 54.9778 10.8708C56.1197 10.6341 56.6407 11.2615 56.6647 11.2878C56.6783 11.3043 56.6884 11.3233 56.6946 11.3438C56.7008 11.3642 56.7029 11.3858 56.7009 11.4071C56.6988 11.4284 56.6926 11.4491 56.6826 11.468C56.6726 11.4869 56.659 11.5035 56.6426 11.517C56.61 11.5441 56.5681 11.557 56.5262 11.5528C56.4843 11.5485 56.4457 11.5276 56.419 11.4944C56.4024 11.4757 55.9866 10.9929 55.0425 11.1882C54.8049 11.2314 54.5812 11.3323 54.3904 11.4825C54.1996 11.6326 54.0474 11.8275 53.9468 12.0505C53.9364 12.0783 53.9187 12.1027 53.8955 12.1209C53.8724 12.1391 53.8447 12.1505 53.8156 12.1538Z" fill="#272C3A"/>
<path d="M35.9006 52.1027C35.9006 52.1027 21.2576 51.6781 24.14 44.9342C25.9064 40.8014 31.141 42.787 35.2576 44.0137C39.3743 45.2404 40.616 46.7733 40.616 46.7733L35.9006 52.1027Z" fill="#FFBE8C"/>
<path d="M32.2069 41.3501L31.9735 42.2395L41.0497 44.7017L41.2831 43.8123L32.2069 41.3501Z" fill="#D4F0FF"/>
<path d="M39.5812 55.5424C39.5812 55.5424 38.4856 56.3727 38.2657 57.0452C38.0458 57.7177 38.7535 59.1586 39.2708 60.0772C39.7882 60.9958 39.9175 62.3126 40.8783 63.4999C41.913 64.7791 42.896 65.3934 44.2375 64.6458C45.5419 63.9188 44.9266 62.0158 44.9266 62.0158L39.5812 55.5424Z" fill="#49516B"/>
<path d="M36.3791 41.0778C36.3791 41.0778 45.6694 43.7077 48.7089 47.2431C51.7483 50.7785 39.9156 58.3396 39.9156 58.3396L39.9304 55.287C39.9304 55.287 44.7991 49.7134 44.485 49.0709C44.1709 48.4285 37.1626 47.756 34.6922 45.6652C32.2218 43.5743 32.6505 41.2299 36.3791 41.0778Z" fill="#8D4059"/>
<path d="M43.0203 56.0291C43.0203 56.0291 43.5118 59.2471 44.2472 60.4719C44.9826 61.6967 45.5406 63.0455 43.9811 63.765C42.4217 64.4844 40.7033 61.9503 39.9827 59.8501C39.2621 57.7499 38.8149 56.4856 39.5817 55.5426C40.3485 54.5996 41.8803 54.5188 41.8803 54.5188L43.0203 56.0291Z" fill="#8D4059"/>
<path d="M41.3754 60.7423C43.0254 63.0679 44.2468 60.3327 44.2468 60.3327C44.2468 60.3327 45.1059 61.5989 45.0487 62.7373C44.9914 63.8757 43.7996 64.8619 42.2974 64.0241C40.7953 63.1862 40.01 60.3233 39.5259 59.4198C39.0418 58.5162 38.3415 56.9288 39.1083 55.9858C39.6259 55.387 40.2791 54.9254 41.0114 54.6407C40.6142 55.1555 39.8899 55.8036 39.9139 56.8631C39.9379 57.9226 40.8026 59.9326 41.3754 60.7423Z" fill="#FF6197"/>
<path d="M40.3114 59.4068C40.3114 59.4068 41.7896 57.408 43.6631 58.2327L43.7573 58.9127C43.7573 58.9127 41.6122 58.646 40.8158 60.2277L40.3114 59.4068Z" fill="#FF6197"/>
<path d="M16.2841 13.5796C16.2362 12.8803 16.3235 12.1783 16.5409 11.5132C16.9844 10.3504 17.8343 9.63466 17.6495 9.15188C17.437 8.58832 16.6167 9.49001 16.1012 10.3504C16.1012 10.3504 15.4748 9.33971 15.5857 8.21447C15.6965 7.08922 15.9164 6.60456 15.5857 6.26643C15.2549 5.92829 14.8466 7.16626 14.7376 8.06608C14.6664 8.48675 14.654 8.91552 14.7006 9.33973C14.5831 8.84754 14.5211 8.34335 14.5158 7.8369C14.5158 7.08549 14.6267 5.93957 14.2202 5.71415C13.8137 5.48872 13.7047 6.97465 13.6308 7.8369C13.5866 8.36883 13.5866 8.90358 13.6308 9.43551C13.6308 9.43551 13.4737 8.42486 13.4349 7.86318C13.385 7.16249 13.5088 6.62523 13.2871 6.36035C13.0654 6.09548 12.8049 6.72104 12.7476 7.65843C12.6987 8.31811 12.7316 8.98143 12.8455 9.63277C12.5351 9.10114 12.5628 7.62086 12.2561 7.63401C12.0159 7.6434 11.9771 8.30841 12.0103 8.9828C12.0681 9.9247 12.3199 10.8437 12.7494 11.6804C13.1784 12.3956 13.5244 13.159 13.7804 13.9553C14.0391 14.8156 16.4707 13.6923 16.4707 13.6923L16.2841 13.5796Z" fill="#FFCCA9"/>
<path d="M16.1623 10.3392C15.7341 10.4548 15.3518 10.703 15.0685 11.0493C14.7816 11.3921 14.6055 11.8165 14.564 12.2647C14.4984 12.0314 14.4984 11.7841 14.564 11.5508C14.6292 11.3134 14.7439 11.093 14.9003 10.9046C15.0559 10.7158 15.2501 10.5639 15.4694 10.4594C15.6847 10.3541 15.9248 10.3124 16.1623 10.3392Z" fill="#E2B18F"/>
<path d="M15.1683 9.01303C14.7036 9.0268 14.2448 9.12213 13.8121 9.29481C13.3801 9.47051 12.9812 9.72094 12.6332 10.035C12.9152 9.63662 13.3057 9.33097 13.7566 9.1558C14.2035 8.96967 14.6941 8.92005 15.1683 9.01303Z" fill="#E2B18F"/>
<path d="M35.4018 18.3473C35.1628 19.8252 35.3179 21.3412 35.8508 22.7374C35.8508 22.7374 35.74 23.9735 33.75 23.9735C31.76 23.9735 31.0967 22.9629 31.0967 22.9629C31.0967 22.9629 32.2053 21.2722 31.9799 18.2402L35.4018 18.3473Z" fill="#FFCCA9"/>
<path d="M39.1899 38.3292C40.0379 28.7486 40.5036 22.9872 40.5036 22.9872C40.5036 22.9872 36.8581 22.2771 35.8086 21.9483C35.5995 22.361 35.281 22.706 34.8892 22.9443C34.4974 23.1827 34.0478 23.3049 33.5913 23.2971C33.1214 23.302 32.6604 23.166 32.2661 22.9061C31.8717 22.6462 31.5615 22.2738 31.3741 21.8356C31.3741 21.8356 26.5091 23.1844 21.8658 20.2633C17.2225 17.3422 16.4502 13.401 16.4502 13.401L13.5751 13.8518C13.5751 13.8518 14.2495 19.9496 19.1182 23.8851C23.9869 27.8206 27.7581 28.3034 27.7581 28.3034L28.1073 38.4137C28.1073 38.4137 32.3386 39.6667 33.6892 39.6554C35.112 39.6442 39.1899 38.3292 39.1899 38.3292Z" fill="#FFC961"/>
<path d="M35.8084 21.9447C35.8084 21.9447 35.3298 23.2935 33.5911 23.2935C33.118 23.3142 32.6503 23.1845 32.253 22.9226C31.8557 22.6607 31.5484 22.2796 31.3739 21.832L30.4149 22.0574C30.4149 22.0574 30.8584 24.3117 33.5117 24.4188C36.165 24.5259 36.7193 22.1645 36.7193 22.1645L35.8084 21.9447Z" fill="#FF6197"/>
<path d="M16.4664 13.3185L13.5822 13.852L13.7762 15.0054L16.7251 14.3667L16.4664 13.3185Z" fill="#FF6197"/>
<g opacity="0.24">
<path opacity="0.24" d="M35.3815 20.9474C35.254 20.085 35.2608 19.2076 35.4018 18.3475L31.9706 18.2291C32.0417 19.1307 31.9895 20.0379 31.8154 20.9248C32.977 21.2824 34.2156 21.2902 35.3815 20.9474Z" fill="#994F49"/>
</g>
<path d="M39.0232 10.9026C39.0232 10.9026 39.4611 7.29015 36.6933 5.07911C33.8847 2.82486 30.1247 5.32333 30.1247 5.32333C30.1247 5.32333 25.875 6.11606 24.8698 9.84684C23.8646 13.5776 28.6539 17.5338 28.6539 17.5338L39.0232 10.9026Z" fill="#E38D49"/>
<path d="M25.6975 7.12873C26.5696 7.41239 25.3076 8.65787 25.3076 8.65787C25.3076 8.65787 26.7063 7.88954 26.7137 8.8213C26.7137 9.70234 25.2558 9.18385 25.2558 9.18385C25.2558 9.18385 26.2629 10.3617 25.3815 10.5683C24.3708 10.8069 24.5667 9.34728 24.5667 9.34728C24.5667 9.34728 23.9329 10.6754 23.2437 10.0424C22.5157 9.37359 24.0548 8.84384 24.0548 8.84384C24.0548 8.84384 22.1924 8.63907 22.7282 7.82002C23.264 7.00098 24.3024 8.37045 24.3024 8.37045C24.3024 8.37045 23.519 6.98972 24.1361 6.81689C24.7533 6.64406 24.866 8.04546 24.866 8.04546C24.866 8.04546 25.0526 6.92022 25.6975 7.12873Z" fill="#B3E2FF"/>
<path d="M25.193 8.70495C25.1888 8.64175 25.1723 8.57999 25.1446 8.52327C25.1168 8.46655 25.0783 8.41597 25.0313 8.37442C24.9842 8.33288 24.9296 8.30119 24.8704 8.28118C24.8113 8.26118 24.7489 8.25326 24.6867 8.25786C24.6246 8.26215 24.5638 8.27888 24.508 8.3071C24.4522 8.33532 24.4025 8.37447 24.3616 8.4223C24.3208 8.47013 24.2896 8.52569 24.2699 8.5858C24.2502 8.64591 24.2425 8.70939 24.247 8.77258C24.2512 8.83579 24.2676 8.89752 24.2954 8.95424C24.3232 9.01096 24.3617 9.06154 24.4087 9.10309C24.4558 9.14463 24.5104 9.17632 24.5695 9.19633C24.6287 9.21633 24.6911 9.22427 24.7532 9.21967C24.8154 9.21538 24.8761 9.19863 24.9319 9.17041C24.9877 9.14219 25.0375 9.10306 25.0783 9.05523C25.1192 9.0074 25.1504 8.95182 25.17 8.89171C25.1897 8.83159 25.1975 8.76814 25.193 8.70495Z" fill="#FF4545"/>
<path d="M30.1563 7.32223C34.6684 5.13561 36.6233 7.68291 37.1868 8.73113C37.6247 9.55581 38.1107 10.9572 38.7592 12.2327C39.5814 13.8746 39.5297 18.5822 35.5664 19.7112C32.1075 20.6955 29.5521 19.003 28.2162 16.0236C27.139 13.6229 25.7662 9.44873 30.1563 7.32223Z" fill="#FFCCA9"/>
<path d="M33.7981 14.5696C33.8652 14.3582 33.9704 14.1613 34.1085 13.9891C34.1444 13.9421 34.1839 13.8981 34.2268 13.8576C34.2762 13.814 34.3316 13.7779 34.3912 13.7506C34.5153 13.6935 34.6549 13.6815 34.7866 13.7167C34.9075 13.7554 35.0183 13.8212 35.1107 13.9094C35.2031 13.9975 35.2749 14.1057 35.3206 14.2258C35.4104 14.4395 35.4367 14.6753 35.3964 14.904C35.28 14.7161 35.1931 14.5283 35.0786 14.3592C34.9865 14.211 34.8543 14.0929 34.6979 14.0192C34.6254 13.989 34.5463 13.9793 34.4688 13.991C34.4278 13.9955 34.3878 14.0069 34.3506 14.0248C34.3095 14.051 34.2706 14.0805 34.2342 14.1131C34.0751 14.2511 33.9291 14.4039 33.7981 14.5696Z" fill="#D87B56"/>
<path d="M36.8267 10.0404C36.6899 9.59895 34.7184 9.85255 34.8792 10.4161C34.9734 10.7467 36.9283 10.3692 36.8267 10.0404Z" fill="#E38D49"/>
<path d="M31.1928 11.9209C31.4737 12.3135 29.6796 13.279 29.4449 12.9691C29.2103 12.6591 30.8972 11.5057 31.1928 11.9209Z" fill="#E38D49"/>
<path d="M34.9713 6.49944C35.7104 6.89581 36.5733 7.54389 37.111 9.11434L35.5367 9.45249L34.1713 7.65472L35.0194 9.53325C35.0194 9.53325 33.5098 10.1213 31.8173 10.9365C31.6658 11.0098 30.7733 9.3285 30.7733 9.3285C30.7733 9.3285 31.2039 11.1244 31.1189 11.1676C30.9507 11.254 30.7807 11.3442 30.6126 11.4381C30.5313 11.4851 30.0915 10.6698 30.0102 10.7167C29.9289 10.7637 30.2079 11.6748 30.1285 11.7236C29.5228 12.0936 28.9357 12.4942 28.3695 12.924C28.3695 12.924 27.2608 11.1657 28.1718 9.40176C29.0827 7.63782 32.8945 5.38922 34.9713 6.49944Z" fill="#E38D49"/>
<path d="M37.3812 8.86828C38.1055 9.97098 38.4899 11.2653 38.8594 12.5352C39.2142 11.0323 38.6451 9.46377 37.8894 8.12624C37.5274 7.43357 37.0475 6.81156 36.4722 6.28903C35.6014 5.58637 34.5203 5.20786 33.4087 5.21639C32.3029 5.23002 31.2147 5.49987 30.2269 6.00539C30.44 6.55768 30.6531 7.1087 30.8662 7.65849C30.7572 7.37483 34.0757 6.71922 34.4803 6.76994C35.6666 6.89205 36.7512 7.90835 37.3812 8.86828Z" fill="#E38D49"/>
<path d="M30.8915 7.5815C30.082 7.90685 29.3761 8.45216 28.8508 9.15783C28.3255 9.86349 28.0011 10.7024 27.913 11.5828C27.8727 12.287 27.935 12.9935 28.0978 13.6792C28.3042 14.6808 28.6138 15.6574 29.0216 16.5929C27.9555 15.988 27.2756 14.8496 26.8728 13.6774C26.3185 12.0768 26.2187 10.2565 26.9116 8.71427C27.6045 7.17199 28.7593 6.40555 30.3095 6.03735L30.8915 7.5815Z" fill="#E38D49"/>
<g style="mix-blend-mode:darken" opacity="0.23">
<g style="mix-blend-mode:darken" opacity="0.23">
<path d="M29.1995 16.9315L29.1676 16.8635C29.1754 16.8598 29.1821 16.8542 29.1874 16.8473C29.1926 16.8404 29.1961 16.8324 29.1976 16.8239C29.1917 16.8596 29.1923 16.8961 29.1995 16.9315Z" fill="#514247"/>
</g>
</g>
<path d="M29.0144 16.5495C28.7785 16.2404 28.4566 16.0107 28.0905 15.8901C27.9541 15.8323 27.8061 15.8087 27.6589 15.8211C27.5116 15.8335 27.3695 15.8817 27.2443 15.9615C26.9431 16.1982 26.9764 16.6227 27.0965 16.9421C27.3702 17.6592 27.8973 18.2467 28.5746 18.5896C28.6898 18.6625 28.8265 18.6917 28.9608 18.6722C29.1936 18.6159 29.3026 18.351 29.3304 18.1293C29.3581 17.9076 29.3655 17.6616 29.5391 17.4962L29.0144 16.5495Z" fill="#FFCCA9"/>
<path d="M27.6195 16.5099C27.8874 16.7589 28.2281 16.912 28.5896 16.9457L28.7558 16.9589L28.6357 17.0772C28.5141 17.2028 28.4296 17.3607 28.3921 17.5327C28.3545 17.7048 28.3653 17.8842 28.4233 18.0503C28.3128 17.8856 28.2631 17.6864 28.2831 17.4881C28.303 17.2898 28.3913 17.105 28.5323 16.9664L28.5785 17.0979C28.3844 17.0834 28.1965 17.0226 28.0299 16.9204C27.8632 16.8183 27.7227 16.6776 27.6195 16.5099Z" fill="#AD5858"/>
<path d="M38.5323 12.4055C38.476 12.0212 38.5345 11.6285 38.7004 11.2784C38.7546 11.1401 38.8403 11.0169 38.9505 10.919C39.0607 10.821 39.1922 10.751 39.3342 10.7148C39.7037 10.6566 39.9901 10.9741 40.1343 11.2784C40.4553 11.9755 40.5087 12.7694 40.2839 13.5045C40.2577 13.64 40.1834 13.761 40.0751 13.8445C39.8756 13.9779 39.6114 13.8745 39.434 13.743C39.2566 13.6115 39.0774 13.4444 38.839 13.4594L38.5323 12.4055Z" fill="#FFCCA9"/>
<path d="M39.4653 11.3574C39.5135 11.5492 39.5166 11.7499 39.4742 11.9431C39.4318 12.1364 39.3452 12.3167 39.2214 12.4695L39.1585 12.3455C39.3546 12.3372 39.5472 12.3999 39.7022 12.5223C39.8571 12.6447 39.9643 12.8191 40.0048 13.0143C39.9268 12.8568 39.8067 12.7248 39.6584 12.6335C39.51 12.5421 39.3394 12.4951 39.1659 12.4977H38.9996L39.105 12.3662C39.3282 12.0778 39.4545 11.7242 39.4653 11.3574Z" fill="#AD5858"/>
<g style="mix-blend-mode:darken" opacity="0.14">
<g style="mix-blend-mode:darken" opacity="0.14">
<path d="M29.9733 5.34229C30.6555 5.66959 31.2514 6.15698 31.712 6.76433C30.9046 6.30033 30.0657 5.82508 29.1788 5.58274C29.4395 5.48893 29.7047 5.40867 29.9733 5.34229Z" fill="black"/>
</g>
</g>
<path d="M36.2502 2.53944C37.1223 2.8231 35.8603 4.06856 35.8603 4.06856C35.8603 4.06856 37.259 3.30024 37.2664 4.23199C37.2664 5.11302 35.8086 4.59456 35.8086 4.59456C35.8086 4.59456 36.8156 5.7724 35.9342 5.97904C34.9235 6.21761 35.1194 4.75799 35.1194 4.75799C35.1194 4.75799 34.4856 6.0861 33.7964 5.45304C33.0684 4.78428 34.6076 4.25454 34.6076 4.25454C34.6076 4.25454 32.7451 4.04979 33.2809 3.23075C33.8168 2.41171 34.8552 3.78114 34.8552 3.78114C34.8552 3.78114 34.0699 2.40042 34.6889 2.22759C35.3079 2.05477 35.4187 3.45616 35.4187 3.45616C35.4187 3.45616 35.6053 2.33092 36.2502 2.53944Z" fill="#B3E2FF"/>
<path d="M35.7457 4.11555C35.7415 4.05217 35.725 3.99028 35.6971 3.93343C35.6693 3.87658 35.6306 3.8259 35.5833 3.78433C35.5361 3.74276 35.4812 3.71112 35.4219 3.69123C35.3625 3.67135 35.2999 3.6636 35.2376 3.66846C35.1756 3.67298 35.1151 3.6899 35.0595 3.71822C35.0039 3.74655 34.9544 3.78572 34.9137 3.83352C34.8731 3.88132 34.8421 3.93682 34.8225 3.99681C34.8029 4.05681 34.7952 4.12013 34.7997 4.18317C34.8039 4.24638 34.8204 4.30811 34.8482 4.36483C34.8759 4.42155 34.9144 4.47216 34.9615 4.5137C35.0085 4.55525 35.0632 4.58691 35.1223 4.60692C35.1814 4.62692 35.2438 4.63486 35.306 4.63026C35.3682 4.62597 35.4289 4.60925 35.4847 4.58103C35.5405 4.55281 35.5902 4.51365 35.6311 4.46582C35.6719 4.41799 35.7031 4.36243 35.7228 4.30232C35.7425 4.24221 35.7503 4.17873 35.7457 4.11555Z" fill="#FF4545"/>
<path d="M39.4415 36.6386C39.4181 36.6382 39.395 36.6329 39.3737 36.6231C39.3524 36.6133 39.3333 36.5991 39.3176 36.5815C39.3018 36.5639 39.2898 36.5433 39.2822 36.5208C39.2746 36.4983 39.2716 36.4745 39.2733 36.4508C39.3121 35.1358 39.9514 26.1395 40.4226 24.7418C40.4299 24.7197 40.4414 24.6992 40.4565 24.6816C40.4716 24.664 40.4901 24.6497 40.5107 24.6393C40.5313 24.629 40.5537 24.623 40.5767 24.6215C40.5996 24.6201 40.6226 24.6233 40.6443 24.631C40.6866 24.6483 40.7212 24.6809 40.7413 24.7225C40.7615 24.7641 40.7657 24.8118 40.7533 24.8564C40.3099 26.1714 39.6687 34.8465 39.6207 36.462C39.621 36.4858 39.6165 36.5093 39.6075 36.5313C39.5985 36.5532 39.5852 36.573 39.5684 36.5895C39.5517 36.6061 39.5318 36.6189 39.5099 36.6274C39.4881 36.6358 39.4648 36.6396 39.4415 36.6386Z" fill="#D4A03B"/>
<path d="M27.834 28.4895C27.7912 28.4897 27.7498 28.4736 27.7181 28.4444C27.6863 28.4152 27.6663 28.3751 27.6622 28.3317C27.4941 26.8627 27.3093 26.2033 26.5351 25.1908C26.5211 25.1724 26.5108 25.1514 26.5048 25.129C26.4989 25.1066 26.4973 25.0832 26.5002 25.0602C26.5031 25.0371 26.5105 25.0149 26.5219 24.9948C26.5332 24.9746 26.5484 24.957 26.5665 24.9428C26.5844 24.9283 26.6049 24.9175 26.6269 24.9111C26.6489 24.9047 26.672 24.9029 26.6947 24.9057C26.7174 24.9085 26.7393 24.9159 26.7592 24.9274C26.7791 24.9389 26.7965 24.9544 26.8104 24.9729C27.6289 26.0436 27.8359 26.7725 28.0077 28.2922C28.0109 28.3376 27.9967 28.3825 27.9681 28.4175C27.9395 28.4525 27.8988 28.4749 27.8544 28.4801L27.834 28.4895Z" fill="#D4A03B"/>
<path d="M35.3592 57.1146C35.3592 57.1146 34.3559 58.0539 34.2081 58.7452C34.0603 59.4365 34.9121 60.7947 35.5218 61.6532C36.1316 62.5117 36.3976 63.806 37.4748 64.8824C38.6389 66.0452 39.681 66.5486 40.9374 65.662C42.1569 64.7978 41.3476 62.9625 41.3476 62.9625L35.3592 57.1146Z" fill="#49516B"/>
<path d="M30.7586 43.0255C30.7586 43.0255 40.9653 44.9041 44.3225 48.1201C47.6798 51.3362 35.8952 59.8648 35.8952 59.8648L35.6217 56.8253C35.6217 56.8253 40.6826 51.0863 40.3093 50.4777C39.9361 49.869 32.1573 49.5948 29.5077 47.7575C26.8581 45.9203 27.0613 43.544 30.7586 43.0255Z" fill="#8D4059"/>
<path d="M38.8294 57.2272C38.8294 57.2272 39.6516 60.3737 40.5108 61.5121C41.3699 62.6505 42.0647 63.9317 40.5884 64.8165C39.1121 65.7013 37.1424 63.3643 36.2075 61.3543C35.2725 59.3443 34.6942 58.1326 35.3594 57.1126C36.0245 56.0925 37.5378 55.8464 37.5378 55.8464L38.8294 57.2272Z" fill="#8D4059"/>
<path d="M37.6837 62.0926C39.5665 64.2247 40.4977 61.375 40.4977 61.375C40.4977 61.375 41.4826 62.5416 41.5435 63.68C41.6045 64.8184 40.5236 65.9342 38.9438 65.2561C37.364 64.5779 36.2831 61.8221 35.714 60.973C35.1449 60.1239 34.2784 58.6248 34.9417 57.6048C35.605 56.5847 36.0965 56.3292 36.0965 56.3292C35.7547 56.8815 35.7011 57.3399 35.8341 58.3956C35.9672 59.4514 37.0296 61.3506 37.6837 62.0926Z" fill="#FF6197"/>
<path d="M36.4886 60.8715C36.4886 60.8715 37.7525 58.7262 39.6981 59.3442L39.8626 60.0111C39.8626 60.0111 37.7026 59.9736 37.0744 61.6342L36.4886 60.8715Z" fill="#FF6197"/>
<path d="M36.6565 60.9149C36.617 60.9049 36.576 60.9031 36.5358 60.9096C36.4957 60.9161 36.4572 60.9307 36.4227 60.9526C36.3882 60.9745 36.3584 61.0032 36.3351 61.0371C36.3118 61.071 36.2954 61.1092 36.2869 61.1497C36.2768 61.1897 36.2748 61.2313 36.2809 61.2722C36.2871 61.313 36.3013 61.3521 36.3227 61.3872C36.3441 61.4223 36.3722 61.4527 36.4055 61.4764C36.4387 61.5001 36.4763 61.5168 36.5161 61.5254C36.5554 61.5354 36.5963 61.5373 36.6364 61.5309C36.6764 61.5245 36.7148 61.5101 36.7493 61.4883C36.7837 61.4666 36.8135 61.4381 36.837 61.4044C36.8604 61.3708 36.8769 61.3327 36.8856 61.2924C36.8954 61.2523 36.8973 61.2106 36.8911 61.1698C36.8849 61.1289 36.8706 61.0898 36.8493 61.0546C36.8279 61.0194 36.7999 60.9889 36.7668 60.9649C36.7337 60.9409 36.6962 60.9239 36.6565 60.9149Z" fill="#FFC82D"/>
<path d="M31.0283 49.1984L30.9101 48.742C31.4533 48.5973 31.7434 47.9492 31.7083 47.4026C31.6695 46.7545 31.2852 46.1571 30.9544 45.7119C30.8657 45.5917 30.7696 45.4714 30.681 45.3512C30.3369 44.9403 30.0428 44.4887 29.8051 44.0062C29.521 43.3091 29.3948 42.556 29.4356 41.8026C29.4731 40.0562 29.9888 38.3551 30.9249 36.8903L31.3147 37.1495C30.4268 38.5394 29.9373 40.1533 29.9012 41.8102C29.8638 42.4933 29.9774 43.1763 30.2338 43.8089C30.4573 44.2573 30.732 44.6772 31.0523 45.06C31.1466 45.1821 31.2371 45.3042 31.3332 45.4357C31.7027 45.9354 32.1314 46.6079 32.1794 47.3838C32.2182 48.0976 31.8321 48.9862 31.0283 49.1984Z" fill="#D17742"/>
<path d="M28.4102 45.7591C27.4531 45.0809 26.9321 43.749 27.091 42.3645C27.2388 41.0496 27.9132 39.8755 28.4842 38.9963L28.874 39.2556C28.3308 40.0915 27.6915 41.2074 27.5548 42.419C27.418 43.6307 27.8578 44.7916 28.6763 45.3702L28.4102 45.7591Z" fill="#D17742"/>
<path d="M35.6308 49.5461C35.6308 49.5461 39.2135 49.8147 40.4552 49.2737C41.6968 48.7327 43.0641 48.5805 43.1879 49.0332C43.3117 49.486 40.9245 50.4065 40.9245 50.4065C40.9245 50.4065 42.6373 50.8705 43.9104 50.491C45.1835 50.1115 45.6602 50.0815 45.784 50.4046C45.9078 50.7277 44.8601 51.466 43.8402 51.5881C42.8202 51.7102 41.9075 51.7515 41.9075 51.7515C41.9075 51.7515 43.2341 52.069 44.2504 52.0107C45.1964 51.9562 45.9355 51.6012 46.0297 52.022C46.124 52.4428 45.1059 52.888 43.9972 52.9782C43.1608 53.0247 42.3221 53.0084 41.4881 52.9293C41.4881 52.9293 42.6466 53.5042 43.4559 53.4591C44.4721 53.4009 45.141 53.1792 45.3036 53.6C45.4662 54.0208 43.8365 54.4942 42.8535 54.327C42.2774 54.2277 41.6963 54.1605 41.113 54.126C41.113 54.126 42.4064 54.528 43.2859 54.5336C44.0601 54.5336 44.3945 54.7027 43.9825 55.0559C43.5704 55.409 42.678 55.4672 41.5361 55.1366C40.3942 54.806 38.3765 54.1974 37.521 53.7766C36.6655 53.3558 34.5647 51.9131 34.5647 51.9131L35.6308 49.5461Z" fill="#FFBE8C"/>
<path d="M32.4494 13.6473C32.4494 13.6473 32.6841 14.3988 31.5163 14.705C30.3486 15.0112 29.6797 14.3499 29.6797 14.3499C29.7895 14.0818 29.9598 13.8437 30.1768 13.6548C30.3937 13.4659 30.6513 13.3314 30.9287 13.2623C31.1935 13.1897 31.4721 13.1871 31.7382 13.2544C32.0042 13.3218 32.249 13.457 32.4494 13.6473Z" fill="white"/>
<path d="M35.2281 12.6667C35.2281 12.6667 35.5977 13.2528 36.7192 12.8151C37.8186 12.3868 37.693 11.4118 37.693 11.4118C37.4611 11.2758 37.1989 11.2022 36.9312 11.198C36.6634 11.1937 36.3991 11.2589 36.1631 11.3874C35.9132 11.5024 35.6963 11.6802 35.5327 11.904C35.3691 12.1278 35.2643 12.3903 35.2281 12.6667Z" fill="white"/>
<path d="M32.4511 13.5607C32.4511 13.5607 32.5879 14.3403 31.8968 14.5939C31.0986 14.8832 30.7069 13.3691 30.7069 13.3691C30.9879 13.2392 31.298 13.1885 31.6048 13.2222C31.9117 13.2559 32.204 13.3728 32.4511 13.5607Z" fill="#AE564E"/>
<path d="M37.6989 11.3836C37.6989 11.3836 37.7913 12.3435 37.1982 12.5859C36.411 12.909 36.0415 11.4587 36.0415 11.4587C36.0415 11.4587 36.8526 10.8576 37.6989 11.3836Z" fill="#AE564E"/>
<path d="M32.4159 13.6324C32.3862 13.6427 32.3541 13.6438 32.3238 13.6354C32.2935 13.627 32.2664 13.6096 32.2459 13.5854C32.2293 13.5629 31.8099 13.0726 30.9526 13.3318C30.0453 13.608 29.7793 14.241 29.7682 14.2711C29.7607 14.2901 29.7495 14.3074 29.7354 14.322C29.7213 14.3366 29.7045 14.3483 29.686 14.3563C29.6675 14.3643 29.6476 14.3686 29.6274 14.3688C29.6073 14.369 29.5873 14.3651 29.5686 14.3575C29.5499 14.3498 29.5329 14.3385 29.5185 14.3242C29.5042 14.3099 29.4927 14.2928 29.4848 14.274C29.4769 14.2551 29.4727 14.2349 29.4725 14.2144C29.4723 14.1939 29.4761 14.1736 29.4836 14.1546C29.4966 14.1227 29.8107 13.36 30.8639 13.0275C31.9171 12.695 32.4529 13.3525 32.4769 13.3806C32.5022 13.4129 32.5141 13.4541 32.51 13.4952C32.5058 13.5363 32.486 13.574 32.4547 13.6004C32.4435 13.613 32.4304 13.6238 32.4159 13.6324Z" fill="#994F49"/>
<path d="M35.2433 12.6328C35.2196 12.6384 35.1949 12.6384 35.1712 12.6328C35.1313 12.6268 35.0953 12.6051 35.0708 12.5725C35.0463 12.5399 35.0353 12.4989 35.04 12.4581C35.0947 12.1752 35.2163 11.91 35.3943 11.6855C35.5723 11.461 35.8014 11.2839 36.0618 11.1695C37.0799 10.6961 37.7026 11.1695 37.7247 11.1901C37.7407 11.2028 37.754 11.2185 37.764 11.2365C37.7739 11.2544 37.7803 11.2741 37.7827 11.2945C37.7851 11.315 37.7835 11.3357 37.778 11.3555C37.7725 11.3753 37.7632 11.3938 37.7506 11.4099C37.7258 11.4424 37.6893 11.4636 37.6492 11.4689C37.609 11.4742 37.5684 11.4631 37.5363 11.4381C37.516 11.4231 37.0263 11.0624 36.1838 11.4531C35.9702 11.545 35.7818 11.6882 35.6347 11.8705C35.4876 12.0527 35.3863 12.2686 35.3394 12.4995C35.3368 12.5285 35.3266 12.5563 35.3096 12.5798C35.2927 12.6033 35.2697 12.6216 35.2433 12.6328Z" fill="#994F49"/>
<path d="M57.9213 47.9925H57.8955C57.8508 47.983 57.8111 47.957 57.7842 47.9196C57.7572 47.8821 57.7449 47.8358 57.7495 47.7897L58.9098 40.1215C59.0804 39.1501 59.1835 38.1677 59.2184 37.1816C59.2413 34.9216 58.5503 32.7137 57.2469 30.8828C57.2333 30.864 57.2235 30.8426 57.2181 30.8199C57.2127 30.7972 57.2118 30.7737 57.2154 30.7506C57.219 30.7275 57.2271 30.7054 57.2392 30.6856C57.2512 30.6657 57.2671 30.6485 57.2857 30.6349C57.324 30.6097 57.3701 30.5998 57.4151 30.6071C57.4601 30.6144 57.5009 30.6383 57.5296 30.6743C58.8761 32.567 59.5886 34.8496 59.5621 37.1853C59.5267 38.1884 59.4224 39.1877 59.2498 40.1759L58.0895 47.8441C58.0811 47.8841 58.0602 47.9202 58.0298 47.947C57.9995 47.9738 57.9614 47.9897 57.9213 47.9925Z" fill="#D94D7D"/>
<path d="M42.6208 41.861C42.5801 41.859 42.5412 41.8433 42.5101 41.8165C42.479 41.7896 42.4575 41.7531 42.449 41.7125C42.0663 39.4018 41.9782 37.0505 42.1866 34.7169C42.1929 34.6717 42.2151 34.6304 42.2491 34.6007C42.2831 34.571 42.3266 34.5549 42.3714 34.5553C42.4158 34.5617 42.4564 34.5843 42.4856 34.6188C42.5149 34.6534 42.5308 34.6976 42.5303 34.7432C42.3249 37.0468 42.4125 39.3678 42.7908 41.6487C42.7955 41.6946 42.7834 41.7406 42.7568 41.7781C42.7303 41.8155 42.6911 41.8416 42.6467 41.8516L42.6208 41.861Z" fill="#D94D7D"/>
<path d="M36.4772 15.8225C36.4772 15.8225 34.6462 17.0398 32.9204 16.3429C32.9204 16.3429 33.4618 18.3022 34.9529 18.0956C36.59 17.8664 36.4772 15.8225 36.4772 15.8225Z" fill="#994F49"/>
<path d="M36.1007 16.0348C36.1145 16.1595 36.12 16.285 36.1173 16.4105C35.818 16.6697 35.4503 16.7336 35.0845 16.8407C34.9496 16.8782 34.8147 16.9177 34.678 16.9421C34.2767 16.9841 33.8714 16.9574 33.4788 16.8632C33.464 16.743 33.4419 16.6153 33.4308 16.4875C34.5154 16.7111 35.5612 16.3053 36.1007 16.0348Z" fill="white"/>
<path d="M33.885 17.8308C33.9705 17.6942 34.0824 17.5766 34.2139 17.4852C34.5349 17.242 34.9223 17.1061 35.3225 17.0963C35.6047 17.0955 35.8813 17.1756 36.1207 17.3274C35.9968 17.5392 35.8261 17.7189 35.6222 17.8523C35.4182 17.9856 35.1866 18.069 34.9456 18.0957C34.5716 18.1527 34.1905 18.0575 33.885 17.8308Z" fill="#FD4E4C"/>
<path d="M39.2951 37.2474C39.151 39.3532 41.1428 40.6456 42.9998 41.5811C44.8567 42.5167 46.6453 43.6682 47.2661 45.682C46.3922 45.8999 45.9727 45.3232 45.193 44.8592C44.4133 44.3952 43.1975 44.2355 42.8076 45.0602C42.7005 45.2894 42.6857 45.5524 42.5896 45.7872C42.2478 46.6175 41.1003 46.7039 40.2596 46.4165C39.4189 46.1291 38.6096 45.605 37.7283 45.6876C36.7213 45.7816 35.9508 46.6494 35.4704 47.5549C34.99 48.4603 34.6833 49.471 34.0495 50.2731C32.721 51.9525 29.9845 52.208 28.3752 50.8029C26.897 49.5086 26.291 47.0927 24.4063 46.5837C23.6063 46.3676 22.6307 46.5236 22.0653 45.9093C21.8464 45.6504 21.7121 45.3287 21.681 44.9888C21.4518 43.1929 23.0316 41.7277 24.532 40.7546C26.0323 39.7815 27.7692 38.7408 28.1535 36.975L39.2951 37.2474Z" fill="#FFC961"/>
<path d="M27.4733 47.8949C27.4465 47.8951 27.42 47.8889 27.3959 47.8768C27.3718 47.8648 27.3509 47.8471 27.3347 47.8253C27.3205 47.8068 27.3102 47.7856 27.3042 47.7629C27.2982 47.7402 27.2967 47.7166 27.2998 47.6933C27.3029 47.67 27.3105 47.6477 27.3222 47.6274C27.3339 47.6072 27.3495 47.5895 27.368 47.5755C27.9648 47.1134 28.5653 46.5517 28.4914 45.8848C28.4323 45.3457 27.9556 44.9042 27.0317 44.5323C26.2926 44.2336 25.4519 43.8973 25.1674 43.1046C24.9826 42.5842 25.0953 41.9324 25.4741 41.3594C25.9268 40.6775 26.6086 40.2323 27.2682 39.7871C27.44 39.6744 27.61 39.5616 27.7763 39.4452C28.7741 38.7426 29.297 38.0006 29.3302 37.2379C29.3304 37.2141 29.3354 37.1906 29.345 37.1689C29.3546 37.1472 29.3685 37.1278 29.3859 37.1119C29.4033 37.096 29.4238 37.0839 29.446 37.0765C29.4682 37.0691 29.4917 37.0665 29.515 37.0688C29.5382 37.0698 29.5609 37.0754 29.5818 37.0854C29.6028 37.0954 29.6216 37.1096 29.6371 37.1271C29.6526 37.1447 29.6645 37.1651 29.6721 37.1874C29.6797 37.2096 29.6828 37.2332 29.6813 37.2567C29.6425 38.1377 29.0679 38.9718 27.9759 39.7401C27.8077 39.8585 27.6341 39.973 27.4604 40.0876C26.8303 40.5065 26.1781 40.9386 25.766 41.5623C25.4482 42.0413 25.3484 42.573 25.4963 42.9862C25.7291 43.6306 26.4866 43.9255 27.1592 44.2035C28.2198 44.6299 28.7685 45.1672 28.8424 45.851C28.9348 46.6926 28.2586 47.3407 27.5823 47.8648C27.5503 47.887 27.5119 47.8976 27.4733 47.8949Z" fill="#D4A03B"/>
<path d="M37.2716 43.6003C37.2377 43.6004 37.2045 43.5903 37.1762 43.5712C37.148 43.5522 37.1259 43.525 37.1127 43.4932C36.9192 43.0525 36.6081 42.6757 36.2147 42.4056C36.0672 42.2973 35.8992 42.2212 35.7214 42.182C35.4408 42.1575 35.1584 42.1953 34.8936 42.2929C34.8234 42.3135 34.7551 42.3323 34.6849 42.3492C33.6113 42.6254 32.5267 42.4356 31.7877 41.8439C30.9747 41.1939 30.5238 38.594 31.0486 37.6304C31.0728 37.5908 31.1105 37.5617 31.1546 37.5489C31.1986 37.5361 31.2458 37.5403 31.2869 37.5608C31.3255 37.5857 31.3537 37.6243 31.366 37.669C31.3783 37.7138 31.3738 37.7616 31.3534 37.8032C30.9118 38.6034 31.3276 41.0286 31.9964 41.5602C32.6653 42.0919 33.6224 42.2478 34.5925 41.9998L34.7939 41.9453C35.1078 41.8307 35.4434 41.7902 35.775 41.827C36.0007 41.8737 36.2142 41.9685 36.4014 42.105C36.8498 42.4129 37.2045 42.8424 37.425 43.3448C37.4413 43.3884 37.441 43.4366 37.4243 43.48C37.4075 43.5234 37.3755 43.5589 37.3345 43.5796C37.3149 43.5903 37.2936 43.5973 37.2716 43.6003Z" fill="#D4A03B"/>
<path d="M39.3393 36.4677C39.3393 36.4677 34.2082 37.6512 28.0147 36.2329L27.9371 37.4934C27.9371 37.4934 29.855 38.3256 33.6059 38.3256C37.3567 38.3256 39.3338 37.7301 39.3338 37.7301L39.3393 36.4677Z" fill="#FF6197"/>
</g>
<defs>
<clipPath id="clip0_9005_37556">
<rect width="90" height="84" fill="white"/>
</clipPath>
</defs>
</svg>
