<svg width="56" height="56" viewBox="0 0 56 56" fill="none" xmlns="http://www.w3.org/2000/svg">
<g clip-path="url(#clip0_12164_1817)">
<rect width="56" height="56" rx="28" fill="#EEE3E3"/>
<path style="mix-blend-mode:multiply" opacity="0.26" d="M65.1108 34.3328V59.3508H34.0784L13.5 32L42 9L65.1108 34.3328Z" fill="url(#paint0_linear_12164_1817)"/>
<path d="M40.8106 25.918C40.3978 23.6614 40.2594 21.3636 40.3984 19.0742C40.4255 17.6861 40.6201 16.3062 40.9781 14.9641C41.0876 14.6248 41.2872 14.2087 41.474 13.7926C40.7937 13.4427 40.0434 13.2481 39.2778 13.2228C38.3503 13.178 34.2154 15.5595 33.4103 15.7132C29.7649 16.4174 29.6426 14.9321 26.2548 15.329C23.1997 15.7445 20.099 15.6992 17.0575 15.1946C16.5318 15.6862 16.033 16.2055 15.5633 16.7503C15.1679 17.1745 14.8202 17.6404 14.5264 18.1395C14.842 18.9078 14.3009 19.772 14.7582 20.5339C14.945 20.8348 15.267 21.078 15.4409 21.3917C15.5866 21.6968 15.6488 22.0347 15.6213 22.3712C15.5514 23.4924 15.6689 24.6173 15.9691 25.7003C16.1945 26.3405 16.5552 26.9807 16.787 27.6657C16.9258 27.9784 16.9975 28.3163 16.9975 28.658C16.9975 28.9997 16.9258 29.3377 16.787 29.6503C16.6015 29.9598 16.34 30.2175 16.027 30.3994C17.4182 32.0703 18.4809 34.0357 20.5355 35.4057C22.384 36.6349 21.2246 36.174 22.9958 35.7002C24.0456 35.4249 25.2307 34.1125 26.3578 34.0997C27.4849 34.0869 28.1419 35.2649 29.0951 36.1356C30.0483 37.0062 31.3365 37.6848 32.2188 38.4403L32.3283 38.5555C33.4812 38.4595 34.5181 38.0113 34.692 37.019C34.75 36.6925 35.2137 36.9742 35.3747 36.7117C35.8385 35.9563 37.0364 35.8347 37.9896 35.4826C38.9429 35.1304 38.9107 33.9141 38.6788 32.8577C38.4469 31.8014 38.1571 30.6747 38.8269 30.0473C39.2778 29.6311 40.1151 29.4967 40.4178 28.9973C40.7205 28.498 40.4693 27.845 40.3598 27.2368C40.268 26.9992 40.2628 26.7372 40.3452 26.4963C40.4275 26.2553 40.5922 26.0507 40.8106 25.918Z" fill="url(#paint1_radial_12164_1817)"/>
<g style="mix-blend-mode:multiply" opacity="0.55">
<path d="M34.7368 18.5329C34.8676 19.3036 35.0046 20.0811 35.1415 20.8722C35.1634 21.0893 35.2412 21.295 35.3657 21.4656C35.5089 21.6429 35.7953 21.7384 35.9198 21.602C36.0138 21.1847 35.9855 20.7457 35.8389 20.347C36.3429 20.3376 36.8399 20.2153 37.2992 19.9878C37.7586 19.7602 38.1706 19.4323 38.51 19.024C38.7424 18.6452 39.0095 18.2932 39.307 17.9736C39.5031 17.8099 39.7342 17.7038 39.9784 17.6656C40.2225 17.6274 40.4715 17.6583 40.7017 17.7554C40.7864 17.8018 40.8658 17.859 40.9383 17.9259C40.9449 17.6091 40.9804 17.2938 41.0441 16.9847C40.8537 16.851 40.6428 16.7562 40.4215 16.7051C40.3343 16.3231 40.2534 15.9344 40.1724 15.5525L41.4737 15.6957C41.4508 15.2308 41.2762 14.7903 40.9818 14.4544C40.8469 14.2688 40.6615 14.1351 40.4526 14.0725C40.2347 14.0247 39.3754 14.2907 39.0455 14.1134C38.9209 14.2294 38.7964 14.3317 38.6656 14.434C38.7279 14.5226 38.7964 14.6113 38.8524 14.6999C38.9895 14.9796 39.1913 15.2149 39.4377 15.382L39.5436 15.4229C39.4013 16.1872 39.1087 16.9083 38.6861 17.5361C38.2635 18.1639 37.7211 18.6833 37.0966 19.058C36.5923 19.3718 35.733 19.5286 35.3221 18.9557C35.1478 18.758 34.8925 18.376 34.7368 18.5329Z" fill="#D48E9C"/>
</g>
<g style="mix-blend-mode:multiply" opacity="0.55">
<path d="M41.1931 25.5947C41.1513 25.4875 41.1151 25.3781 41.0847 25.2671C40.7174 25.174 40.3783 24.9918 40.0969 24.7365C39.8156 24.4812 39.6005 24.1605 39.4705 23.8023C39.3878 23.4475 39.391 23.0779 39.4798 22.7246C39.5686 22.3713 39.7405 22.0447 39.9809 21.7723C40.156 21.6036 40.292 21.3981 40.3791 21.1705C40.4662 20.9428 40.5024 20.6986 40.4849 20.4553C40.3701 19.9413 39.5024 19.4338 39.1578 19.7679C39.5279 20.738 38.8006 21.5538 37.9392 22.0035C37.1164 22.4148 36.2159 22.6448 35.2978 22.6781C34.7543 22.7251 34.2081 22.6253 33.7155 22.389C33.0419 21.9291 32.548 21.2478 32.3183 20.4617L31.6803 18.9713C31.6501 18.9008 31.6352 18.8248 31.6366 18.7481C31.6379 18.6715 31.6555 18.596 31.6881 18.5267C31.7207 18.4574 31.7676 18.3958 31.8256 18.3462C31.8837 18.2966 31.9516 18.26 32.0248 18.2389C32.8834 18.0544 33.6469 17.5639 34.1749 16.8577C34.4682 16.3646 34.718 15.8465 34.9214 15.3094C34.9193 15.2902 34.9193 15.2708 34.9214 15.2516C34.5871 15.2403 34.2542 15.2016 33.9261 15.136C33.2881 16.1189 32.5288 17.1147 31.2783 17.4937L31.1571 17.5322C31.5041 16.7944 31.7714 16.0212 31.9546 15.2259C31.5952 15.3171 31.2275 15.3709 30.8572 15.3865C30.8542 15.4422 30.8542 15.4979 30.8572 15.5536C30.6042 17.058 29.8956 18.4469 28.8283 19.5302C28.5618 19.8417 28.2215 20.0805 27.839 20.2242C27.4564 20.368 27.044 20.4121 26.6399 20.3525C26.5046 20.3329 26.3769 20.2775 26.2699 20.1919C26.1533 20.0766 26.079 19.9248 26.0593 19.7615C25.9317 18.9135 26.6016 18.104 26.1231 17.3459C25.6446 16.5879 24.6238 16.6264 23.8326 16.7356C21.9186 16.9926 20.0492 17.3331 18.2308 16.8127C18.0023 16.7716 17.7987 16.6426 17.663 16.453C17.634 16.3851 17.6198 16.3117 17.6215 16.2378C17.6231 16.1639 17.6406 16.0913 17.6727 16.0248C17.7048 15.9583 17.7508 15.8996 17.8074 15.8527C17.8641 15.8057 17.9302 15.7716 18.0012 15.7527C18.3018 15.6696 18.6192 15.6696 18.9199 15.7527C21.019 16.2153 23.386 16.9027 25.3001 16.0097C25.7267 15.7159 26.2392 15.5756 26.7548 15.6114C26.267 15.4539 25.8079 15.2174 25.3958 14.9111C25.0091 15.006 24.6296 15.1284 24.2601 15.2773C23.6072 15.5795 22.9083 15.7685 22.1929 15.8362C21.1657 15.8684 20.1768 15.4187 19.1879 15.1938C18.1989 14.969 17.0569 15.0653 16.5911 15.8362C16.479 16.0112 16.4337 16.2212 16.4635 16.4273C16.5213 16.6911 16.6793 16.9216 16.9038 17.0697C16.7538 17.2236 16.6633 17.4264 16.6486 17.6415C16.4805 18.1945 16.5168 18.79 16.7506 19.3182C16.9153 19.5679 17.1317 19.7788 17.385 19.9363C17.6384 20.0938 17.9226 20.1941 18.2181 20.2304C19.0953 20.2936 19.9769 20.2111 20.8276 19.9863C22.2608 19.7643 23.7209 19.7861 25.147 20.0506C25.2488 20.2992 25.4085 20.5196 25.6127 20.693C25.393 20.7585 25.206 20.9054 25.0895 21.1041C24.859 21.4448 24.6945 21.8262 24.6046 22.2284C24.2091 24.0208 25.2427 26.083 25.9253 28.1708H25.8807C25.7084 28.4342 25.8807 28.8454 26.1997 29.1024C26.3702 29.692 26.4688 30.3004 26.4932 30.914C26.1104 30.914 25.7339 30.9911 25.3639 31.0425C25.1342 31.0425 24.9109 31.1067 24.6812 31.1389C24.5919 30.9333 24.4834 30.7277 24.4069 30.4964C24.2786 30.0977 24.193 29.6864 24.1517 29.2694C24.0671 28.6891 23.8486 28.1368 23.5136 27.6569C23.5456 27.3537 23.5456 27.0479 23.5136 26.7447C23.3924 25.614 22.8756 24.4962 22.8373 23.4169C22.8373 22.813 22.9458 22.222 22.8884 21.6374C22.8776 21.5048 22.8192 21.3807 22.724 21.2885C22.6289 21.1962 22.5036 21.1421 22.3716 21.1363C21.9122 21.1363 21.3444 20.4232 20.9935 21.0784C20.8978 21.8429 21.3954 22.6203 21.7527 23.3912C22.261 24.4877 22.5058 25.6893 22.4673 26.8988C22.3524 26.8539 22.2376 26.8025 22.1228 26.7704C21.773 26.6754 21.4131 26.6236 21.0509 26.6162C21.0062 26.2436 20.2661 20.5067 15.666 21.1748C11.0659 21.8429 15.9148 21.7594 15.9148 21.7594C16.5615 21.8158 17.1881 22.0134 17.7512 22.3385C18.3142 22.6635 18.8001 23.1083 19.1751 23.6417C19.069 23.6636 18.9702 23.7122 18.888 23.7831C18.7787 23.857 18.6546 23.9057 18.5244 23.9257C18.3943 23.9457 18.2613 23.9365 18.1351 23.8987C18.023 23.8471 17.9079 23.802 17.7906 23.7638C17.6758 23.7638 17.529 23.7638 17.5163 23.918C17.5183 23.9736 17.5363 24.0274 17.568 24.073C17.5996 24.1186 17.6437 24.154 17.6949 24.1749C17.7971 24.2158 17.8936 24.2698 17.982 24.3355C18.0887 24.4608 18.1475 24.6203 18.1479 24.7853C18.2211 24.8139 18.301 24.8206 18.378 24.8047C18.4549 24.7887 18.5257 24.7507 18.5817 24.6953C18.6852 24.5828 18.7771 24.4601 18.8561 24.3291C18.9363 24.1976 19.0609 24.0995 19.207 24.0529C19.2856 24.0465 19.3645 24.0465 19.4431 24.0529C19.9282 24.8409 20.2656 25.7119 20.4384 26.6226C19.9724 26.6693 19.5208 26.8114 19.1113 27.0402C19.1163 27.2866 19.1892 27.5268 19.3219 27.734C19.3544 27.7936 19.399 27.8456 19.4529 27.8865C19.5068 27.9275 19.5687 27.9565 19.6345 27.9717C19.7085 27.9714 19.7811 27.9514 19.845 27.9139C20.2873 27.6657 20.7811 27.5249 21.2869 27.5027C21.667 27.512 22.0357 27.635 22.3461 27.8561C22.3492 27.9138 22.3492 27.9717 22.3461 28.0295C22.292 28.2402 22.292 28.4612 22.3461 28.6719C22.3979 28.9394 22.5164 29.1893 22.6906 29.3979C22.7715 29.401 22.8517 29.381 22.9217 29.34C22.9917 29.2991 23.0488 29.2389 23.0862 29.1666C23.1305 29.3636 23.1624 29.5631 23.1819 29.7641C23.202 30.2689 23.3281 30.7637 23.5519 31.2159C23.593 31.2765 23.6377 31.3344 23.6859 31.3894C23.0479 31.5115 22.4099 31.6528 21.7718 31.8263C21.6761 31.6335 21.7718 31.4408 21.9058 31.2802C22.0457 31.0273 22.1153 30.7411 22.1075 30.4517C22.0996 30.1624 22.0145 29.8804 21.8612 29.6356C21.6315 29.4236 21.338 29.6356 21.2231 29.9118C21.1083 30.1881 21.1274 30.5029 20.8978 30.6314C20.6681 30.7598 20.3491 30.5992 20.1002 30.4129C19.883 30.2016 19.6147 30.051 19.3219 29.9761C19.0843 29.9822 18.8573 30.0759 18.6838 30.2395C18.5878 30.2889 18.5086 30.366 18.4563 30.461C18.404 30.556 18.3811 30.6645 18.3903 30.7727C18.4136 30.869 18.4646 30.9562 18.5371 31.0232C18.9454 31.4729 19.711 31.4151 19.9918 31.9676C20.0428 32.0768 20.0683 32.1924 20.1194 32.3017C20.1976 32.4755 20.3267 32.6212 20.4894 32.7192C20.4998 32.8099 20.5376 32.8952 20.5979 32.9634C20.7019 33.0634 20.8328 33.1304 20.9743 33.1561C22.6332 33.6122 24.1644 33.0212 25.7212 32.61L25.9891 32.5458C26.0163 32.7388 26.0037 32.9354 25.9521 33.1233C25.9005 33.3112 25.811 33.4864 25.6893 33.6379C25.2513 34.0364 24.7086 34.2996 24.1261 34.396L22.2759 34.8842C21.586 35.1633 20.8157 35.1633 20.1258 34.8842C19.3835 34.3578 18.8182 33.616 18.5052 32.7578L17.7651 31.2031C17.7398 31.1394 17.7005 31.0823 17.6502 31.0361C17.6185 31.0168 17.5821 31.0066 17.545 31.0066C17.5079 31.0066 17.4715 31.0168 17.4397 31.0361C17.321 31.1305 17.2344 31.2598 17.1921 31.406C17.1498 31.5523 17.1538 31.7081 17.2036 31.852C17.2975 32.1803 17.4488 32.4892 17.6502 32.7642C18.4669 34.0041 19.4814 35.3018 20.8021 35.835C21.6736 36.1369 22.6086 36.2034 23.5136 36.0278C24.694 35.8671 25.9509 35.501 26.4294 34.396V34.3125C26.8936 34.5006 27.3245 34.7631 27.7054 35.0898C28.0563 35.4495 28.2477 35.9571 28.6242 36.304C29.041 36.6519 29.563 36.8467 30.1044 36.8565C30.417 36.8886 30.7424 36.8565 30.87 36.5931C30.902 36.4319 30.902 36.266 30.87 36.1048C30.8606 35.8841 30.908 35.6647 31.0075 35.4677C31.1069 35.2708 31.2552 35.103 31.4378 34.9806C31.8164 34.7525 32.2379 34.6059 32.6756 34.5502C32.7976 34.5337 32.9137 34.4874 33.0137 34.4152L33.6071 34.7172C34.5994 35.2768 35.6776 35.6654 36.7972 35.8671C37.8691 35.9956 38.9154 35.6359 39.177 34.73C39.4067 33.9398 39.0111 32.9634 38.775 32.0575C38.6341 31.5216 38.5464 30.9728 38.5135 30.4193C38.8926 30.5074 39.291 30.4428 39.6236 30.2395C39.8691 30.0046 40.0583 29.7165 40.1766 29.397C40.2949 29.0775 40.3392 28.7351 40.3063 28.3957C40.32 27.5434 40.2386 26.6922 40.0638 25.8581C40.1659 25.9159 40.268 25.9802 40.3828 26.0316C40.7265 26.1819 41.0995 26.2522 41.4739 26.2371C41.3654 26.0299 41.2716 25.8152 41.1931 25.5947ZM25.1661 19.1704L21.1338 19.4724L19.7876 19.5751C19.4033 19.6073 19.0171 19.6073 18.6328 19.5751C18.1926 19.5559 17.7711 19.3911 17.4333 19.1062C17.2716 18.9719 17.1593 18.7869 17.1142 18.5808C17.0691 18.3747 17.0938 18.1594 17.1845 17.9691C17.2674 17.8406 17.3887 17.7507 17.478 17.6286C17.5116 17.5755 17.5354 17.5168 17.5482 17.4551C19.6372 18.2852 21.9549 18.3217 24.0687 17.5579C24.2542 17.4804 24.4567 17.4538 24.6557 17.4808C24.8704 17.5575 25.0517 17.7074 25.1682 17.9045C25.2848 18.1016 25.3291 18.3335 25.2937 18.5601C25.2613 18.7597 25.2165 18.9571 25.1597 19.1511L25.1661 19.1704ZM29.5812 20.0056C29.8918 19.6474 30.1795 19.2698 30.4425 18.8749C30.6063 19.2168 30.7961 19.5455 31.0103 19.8578C31.3603 20.6609 31.7544 21.4437 32.1907 22.2027C32.5149 22.6244 32.9181 22.978 33.3774 23.2434C32.6218 23.3986 31.8392 23.3541 31.1057 23.1143C30.3722 22.8745 29.7129 22.4476 29.192 21.8751C28.9814 21.6053 28.7534 21.3499 28.5093 21.1106L28.3945 21.027C28.8435 20.7498 29.2426 20.3979 29.5748 19.9863L29.5812 20.0056ZM25.6255 25.524C25.1916 23.9115 25.2108 22.1641 26.2635 21.1619C26.6036 21.3165 26.9755 21.387 27.3481 21.3675L27.6416 21.3226C27.9699 21.5882 28.3249 21.8185 28.7007 22.01C28.8526 22.1203 28.9937 22.245 29.1218 22.3826C28.5792 22.4289 28.0632 22.6394 27.6416 22.9864C27.468 23.0925 27.3233 23.2405 27.2205 23.4169C27.1286 23.6651 27.1065 23.9341 27.1567 24.1942C27.2125 24.9719 27.4299 25.7292 27.7947 26.417C28.0436 26.8282 28.4328 27.2779 28.3243 27.7019C28.2158 28.1259 27.9351 28.1837 27.6097 28.2608C27.2725 28.3343 26.9262 28.3559 26.5825 28.325C26.2316 27.3614 25.8807 26.4299 25.6191 25.5048L25.6255 25.524ZM31.3676 33.6957C31.1879 33.7134 31.0172 33.7836 30.8766 33.8977C30.736 34.0119 30.6317 34.165 30.5765 34.3382C30.5191 34.5502 30.5765 34.8071 30.4999 35.032C30.4547 35.1903 30.3683 35.3336 30.2497 35.447C30.1311 35.5605 29.9845 35.64 29.8252 35.6773C29.6658 35.7147 29.4995 35.7085 29.3433 35.6594C29.1871 35.6103 29.0468 35.5201 28.9368 35.3982C28.8383 35.2309 28.7611 35.0517 28.7071 34.865C28.3601 34.2428 27.7854 33.7818 27.1057 33.5801C26.9655 33.5184 26.8204 33.469 26.6718 33.4323C26.6718 33.2846 26.6718 33.1432 26.7165 32.9955C26.7339 32.7806 26.7211 32.5643 26.6782 32.3531C28.1294 32.0229 29.6513 32.2813 30.9146 33.0726C31.2219 33.302 31.5589 33.4878 31.9163 33.6251C31.7214 33.6172 31.5263 33.6345 31.3357 33.6765L31.3676 33.6957ZM39.0239 28.794C38.956 28.9107 38.8533 29.0029 38.7304 29.0574C38.5527 29.0807 38.3721 29.0518 38.2103 28.9743C38.0484 28.8968 37.9122 28.774 37.818 28.6206C37.7319 28.4871 37.6763 28.336 37.6553 28.1782C37.6343 28.0204 37.6485 27.8599 37.6968 27.7083C37.799 27.4487 37.925 27.1992 38.0732 26.9631C38.2795 26.55 38.3907 26.0955 38.3986 25.6333C38.4235 25.3133 38.3354 24.9948 38.1498 24.7338C37.9392 24.4576 37.5118 24.2649 37.2629 24.4062C37.4718 24.913 37.4922 25.4787 37.3204 25.9994C37.1162 26.5455 36.6823 26.9952 36.7525 27.6376C36.8389 27.9859 36.9564 28.3256 37.1034 28.6527C37.1891 29.0388 37.3333 29.4093 37.5309 29.7512C37.6204 29.8681 37.7256 29.9719 37.8435 30.0596C37.7889 30.163 37.7563 30.2768 37.7478 30.3936C37.7689 30.8335 37.8593 31.2672 38.0158 31.6785C38.2965 32.6486 38.3667 33.7214 37.7478 34.2932C37.1289 34.8649 36.274 34.7814 35.3999 34.4923C34.5118 34.1618 33.6708 33.7146 32.8989 33.1625C32.3657 32.8789 31.9233 32.449 31.6228 31.9226C31.4991 31.5567 31.4748 31.1641 31.5527 30.7855C31.6835 29.4912 31.6835 28.1868 31.5527 26.8924C31.5586 26.4212 31.393 25.9641 31.0869 25.6076C30.7424 25.2542 30.0597 25.235 30.0214 25.6461C30.0287 25.808 30.0723 25.9662 30.149 26.1087C30.7639 27.4766 30.9033 29.0133 30.5446 30.4707C30.4652 30.7489 30.4202 31.0359 30.4106 31.3252C30.4135 31.4708 30.4349 31.6155 30.4744 31.7556L30.232 31.6078C29.3534 31.172 28.3848 30.9518 27.4055 30.9654C27.4055 30.8819 27.4055 30.7984 27.3545 30.7149C27.2524 30.3101 27.1312 29.9118 26.9972 29.5135C27.2096 29.5298 27.4229 29.5298 27.6352 29.5135C28.0384 29.5527 28.4419 29.4431 28.7709 29.2052C28.8992 29.0329 28.9847 28.8322 29.0202 28.6198C29.0557 28.4075 29.0403 28.1896 28.9751 27.9845C28.7785 27.2806 28.5442 26.5879 28.2732 25.9095C28.1357 25.6045 28.071 25.2714 28.0843 24.9367C28.0976 24.602 28.1886 24.2752 28.3498 23.9822C28.5236 23.7736 28.7416 23.6067 28.9878 23.494C29.2444 23.3383 29.532 23.2418 29.83 23.2113C29.9059 23.3015 29.9868 23.3873 30.0725 23.4683C30.7748 24.0881 31.6925 24.4023 32.6245 24.342C32.8432 24.333 33.0588 24.2874 33.2626 24.2071C33.0787 26.4759 33.2947 28.7595 33.9006 30.9526C33.505 30.914 33.3072 31.338 33.4603 31.7235C33.5542 31.9306 33.6892 32.1162 33.8571 32.2687C34.025 32.4212 34.2222 32.5374 34.4365 32.61C34.8298 32.7383 35.2418 32.7992 35.6551 32.7899C35.8939 32.8146 36.1353 32.7883 36.3633 32.7128C36.4693 32.6722 36.556 32.5925 36.6057 32.4899C36.6555 32.3873 36.6646 32.2695 36.6313 32.1603C36.4845 31.6721 35.8019 31.5179 35.3553 31.2224C35.0425 30.9816 34.7854 30.6755 34.6014 30.325C34.4175 29.9745 34.3112 29.5881 34.2898 29.1923C34.0996 27.9162 34.0717 26.6209 34.2068 25.3377C34.3048 24.7801 34.3263 24.2116 34.2706 23.6481C34.5895 23.7673 34.9216 23.8471 35.2596 23.8859C36.105 23.9901 36.9613 23.819 37.7032 23.3976C37.7674 23.3592 37.8393 23.3359 37.9137 23.3293C37.9881 23.3228 38.0629 23.3331 38.1328 23.3597C38.2026 23.3862 38.2657 23.4282 38.3172 23.4826C38.3687 23.537 38.4075 23.6023 38.4305 23.6738C38.6127 24.2071 38.8918 24.7016 39.2535 25.1322C39.2546 25.3026 39.2826 25.4717 39.3365 25.6333C39.5072 26.149 39.5625 26.6963 39.4985 27.2361C39.4346 27.7758 39.2529 28.2947 38.9664 28.7555L39.0239 28.794Z" fill="#D48E9C"/>
</g>
<path d="M41.711 20.7923C40.6832 16.5485 43.1138 8.93562 41.9437 9.00041C41.9437 9.00041 36.8952 13.8143 33.1783 15.013C29.4614 16.2116 24.7748 15.9589 23.4432 15.2462C22.1116 14.5335 18.5627 12.7453 15.8672 14.6501C13.3655 16.4254 9.5387 29.3252 18.2848 33.381C19.2738 33.381 20.224 33.1802 20.14 32.001C20.0542 31.2797 19.9182 30.5652 19.7327 29.8629C18.0729 28.8152 16.7533 27.3059 15.9348 25.5192C15.1164 23.7324 14.8346 21.7455 15.1238 19.801C16.0869 12.3047 18.6597 17.2871 21.6785 17.4232C24.6972 17.5592 32.0988 19.801 41.2973 12.0391C41.2973 12.0391 39.3193 15.5313 39.7847 20.9737C40.2501 26.4161 41.0323 32.6943 36.6431 36.0958C32.2539 39.4973 31.0063 37.1518 31.2519 38.7781C31.4976 40.4043 36.9081 41.7779 39.7912 36.5493C42.6742 31.3207 42.7388 25.036 41.711 20.7923Z" fill="#D18A77"/>
<path d="M13.7059 18.177C14.0688 18.2983 14.4754 18.3218 14.8582 18.2437C15.2411 18.1656 15.5773 17.9905 15.811 17.7475C16.0322 17.4948 16.1663 17.204 16.2012 16.9018C16.236 16.5996 16.1704 16.2956 16.0103 16.0176C15.5885 15.8892 15.1461 15.8038 14.6947 15.7635C14.4685 15.7443 14.2394 15.7602 14.0215 15.8101C13.8036 15.86 13.6013 15.9429 13.4269 16.0539C13.2341 16.1996 13.0846 16.3749 12.9883 16.568C12.9125 16.7154 12.8642 16.8702 12.8448 17.0277C12.8259 17.262 12.8972 17.4954 13.0501 17.6995C13.203 17.9036 13.4309 18.0695 13.7059 18.177Z" fill="url(#paint2_radial_12164_1817)"/>
<path d="M16.0977 16.6472C15.8417 16.6948 15.6008 16.7718 15.3861 16.8747C15.157 16.9884 14.9553 17.1239 14.7877 17.2768C14.6644 17.3698 14.5758 17.4803 14.5289 17.5995C14.5124 17.7481 14.5762 17.8958 14.7093 18.0167C14.8423 18.1376 15.0361 18.224 15.2567 18.2609C15.6966 18.3175 16.1523 18.2881 16.5667 18.1762C17.1651 18.0493 17.8282 17.8165 17.8929 17.4038C17.9053 17.2648 17.8571 17.1264 17.7541 17.0047C17.651 16.8829 17.4973 16.7828 17.3107 16.716C16.9355 16.5905 16.5003 16.5659 16.0977 16.6472Z" fill="url(#paint3_radial_12164_1817)"/>
<path d="M13.195 18.4456C13.0162 18.5621 12.8959 18.7264 12.8561 18.9082C12.8164 19.09 12.8599 19.2773 12.9786 19.4355C13.1227 19.5963 13.3166 19.7242 13.5413 19.8067C13.9041 19.9751 14.3356 20.0214 14.7409 19.9354C14.9429 19.8863 15.1163 19.781 15.2297 19.6384C15.3431 19.4959 15.3891 19.3256 15.3593 19.1583C15.2851 18.9059 15.013 18.7227 14.9017 18.4802C14.3328 18.3169 13.665 18.1634 13.195 18.4456Z" fill="url(#paint4_radial_12164_1817)"/>
<path d="M14.5373 19.3478C14.6978 19.5769 14.9403 19.7583 15.2307 19.8667C15.5211 19.9751 15.845 20.0051 16.1568 19.9523C16.3048 19.9293 16.4455 19.881 16.5702 19.8107C16.6949 19.7403 16.8009 19.6493 16.8817 19.5433C16.9624 19.4373 17.0161 19.3186 17.0394 19.1946C17.0628 19.0706 17.0553 18.9439 17.0174 18.8223C16.957 18.6918 16.8566 18.5769 16.726 18.489C16.5102 18.3733 16.2625 18.3053 16.0065 18.2915C15.7504 18.2776 15.4943 18.3184 15.2624 18.4099C14.971 18.4946 14.6457 18.6529 14.6186 18.9127C14.6118 18.9918 14.4899 19.2574 14.5373 19.3478Z" fill="url(#paint5_radial_12164_1817)"/>
<path d="M15.2593 20.7192L14.3613 20.32C14.006 20.1254 13.5591 20.0055 13.0856 19.9778C12.7786 19.9902 12.4921 20.0771 12.289 20.2194C12.0859 20.3617 11.9828 20.5477 12.0023 20.7368C12.0671 20.9914 12.2925 21.22 12.6295 21.3729C12.9796 21.5393 13.4003 21.6399 13.8411 21.6625C14.1014 21.6785 14.3636 21.6481 14.5965 21.5748C14.7541 21.5101 14.8839 21.4227 14.9745 21.3203C15.0651 21.2179 15.114 21.1035 15.1168 20.9869C15.131 20.7499 15.5658 20.8552 15.2593 20.7192Z" fill="url(#paint6_radial_12164_1817)"/>
<path d="M14.5917 21.8294C14.7351 22.0892 14.9428 22.2901 15.1863 22.4047C15.4298 22.5193 15.6973 22.542 15.952 22.4696C16.1359 22.4399 16.3143 22.3737 16.4797 22.2738C16.7363 22.0872 16.9244 21.7932 17.0068 21.45C17.0892 21.1069 17.0599 20.7396 16.9246 20.4208C16.8692 20.2879 16.786 20.1738 16.6831 20.0894C16.5427 20.0093 16.3873 19.973 16.2317 19.984C15.7813 19.9453 15.3331 20.0886 14.9604 20.3907C14.7747 20.5499 14.6382 20.7767 14.5716 21.0365C14.505 21.2963 14.5121 21.5748 14.5917 21.8294Z" fill="url(#paint7_radial_12164_1817)"/>
<path d="M14.6504 23.7539C14.5602 23.5132 14.518 23.2472 14.5277 22.9801C14.5375 22.713 14.5988 22.4533 14.7062 22.2247C14.8646 22.014 15.0598 21.8554 15.2754 21.7621C15.4909 21.6688 15.7206 21.6435 15.9453 21.6883C16.2023 21.7023 16.453 21.7956 16.6764 21.9605C16.7877 22.0373 16.8799 22.1533 16.9424 22.2949C17.0048 22.4366 17.0351 22.5982 17.0295 22.7611C17.0604 22.9512 17.0604 23.1475 17.0295 23.3376C16.8684 23.882 16.2675 24.0421 15.8895 24.1382C15.6747 24.2153 15.4483 24.2204 15.2315 24.1532C15.0147 24.086 14.8148 23.9486 14.6504 23.7539Z" fill="url(#paint8_radial_12164_1817)"/>
<path d="M14.2847 22.7454C14.0723 22.5321 13.9047 22.2772 13.6922 22.0639C13.4934 21.8371 13.2228 21.6958 12.9321 21.6667C12.7051 21.6812 12.49 21.7791 12.3238 21.9435C12.1575 22.1079 12.0504 22.3286 12.021 22.5676C11.993 22.6883 11.993 22.8144 12.021 22.9351C12.0745 23.0853 12.1563 23.2224 12.2613 23.3381C12.6079 23.7649 13.0383 24.239 13.5637 24.1975C13.8342 24.1662 14.0846 24.0313 14.268 23.8182C14.3778 23.7237 14.458 23.596 14.498 23.452C14.5379 23.3081 14.5356 23.1547 14.4916 23.0122C14.4363 22.9123 14.3665 22.8223 14.2847 22.7454Z" fill="url(#paint9_radial_12164_1817)"/>
<path d="M12.4336 24.5959C12.2831 24.6952 12.162 24.8455 12.0863 25.0269C12.0106 25.2084 11.9838 25.4124 12.0095 25.612C12.0352 25.8116 12.1122 25.9974 12.2303 26.1447C12.3484 26.2921 12.502 26.3941 12.6708 26.4372C13.0563 26.6439 13.4771 26.7448 13.9011 26.7322C14.3251 26.7197 14.741 26.5939 15.117 26.3646C15.209 26.3164 15.2874 26.2385 15.3429 26.1402C15.377 26.0202 15.377 25.8906 15.3429 25.7706C15.2898 25.4653 15.1432 25.1932 14.9305 25.0051C14.7995 24.9022 14.6616 24.8117 14.5181 24.7345C14.0995 24.3853 13.5976 24.1983 13.0832 24.2C12.8412 24.2646 12.6174 24.401 12.4336 24.5959Z" fill="url(#paint10_radial_12164_1817)"/>
<path d="M17.0525 24.7125C17.0494 24.9553 16.9608 25.1887 16.8031 25.3696C16.6417 25.5265 16.4433 25.6374 16.2275 25.6916C15.7692 25.8317 15.2917 25.8939 14.814 25.8756C14.589 25.9136 14.3581 25.8691 14.1618 25.75C13.9655 25.6309 13.8162 25.4446 13.74 25.2238C13.6638 25.0031 13.6655 24.7618 13.7449 24.5422C13.8243 24.3226 13.9763 24.1387 14.1744 24.0226C14.3914 23.7865 14.6581 23.6046 14.9541 23.4907C15.2501 23.3768 15.5675 23.334 15.8821 23.3655C16.197 23.4202 16.4845 23.5834 16.6972 23.8282C16.9099 24.073 17.0352 24.3849 17.0525 24.7125Z" fill="url(#paint11_radial_12164_1817)"/>
<path d="M12 27.9154C11.9985 28.089 12.0458 28.2598 12.1372 28.4098C12.2286 28.5598 12.3605 28.6835 12.5192 28.7678C13.0075 29.0926 13.588 29.2667 14.1828 29.2667C14.7776 29.2667 15.3581 29.0926 15.8464 28.7678C15.9973 28.6796 16.1166 28.5497 16.1886 28.3952C16.2165 28.2678 16.2178 28.1364 16.1925 28.0086C16.1672 27.8807 16.1158 27.7589 16.0411 27.6501C15.9154 27.3709 15.7112 27.1306 15.4512 26.9558C15.3134 26.8809 15.164 26.8276 15.0087 26.7978C14.5609 26.7081 14.0982 26.7122 13.6522 26.8096C13.2062 26.907 12.7875 27.0955 12.4248 27.3622C12.2156 27.489 12.0639 27.6865 12 27.9154Z" fill="url(#paint12_radial_12164_1817)"/>
<path d="M17.8879 27.1878C17.917 26.9078 17.8539 26.6261 17.707 26.3799C17.5952 26.2298 17.4461 26.1068 17.2723 26.0214C17.0985 25.9359 16.9051 25.8905 16.7084 25.8889C16.3159 25.8886 15.9285 25.9715 15.5759 26.1313C15.1068 26.324 14.6042 26.6347 14.5304 27.1195C14.5137 27.3027 14.5488 27.4867 14.6322 27.6535C14.7157 27.8203 14.8446 27.9639 15.0062 28.0703C15.3262 28.2752 15.7033 28.3896 16.0919 28.3997C16.4149 28.4519 16.7473 28.4129 17.0461 28.2876C17.3448 28.1624 17.5961 27.9568 17.7673 27.6975C17.8411 27.536 17.882 27.3632 17.8879 27.1878Z" fill="url(#paint13_radial_12164_1817)"/>
<path d="M17.7572 30.7451C17.5055 30.7271 17.2611 30.6558 17.0412 30.5363C16.8213 30.4169 16.6314 30.2522 16.4849 30.0539C16.3925 29.9638 16.3169 29.8591 16.2613 29.7443C16.1967 29.5652 16.1942 29.3708 16.2541 29.1902C16.3141 29.0097 16.4333 28.8528 16.5938 28.7434C16.918 28.5362 17.2995 28.4283 17.6884 28.4337C18.0778 28.3964 18.4708 28.4495 18.8346 28.5886C19.0172 28.6625 19.1789 28.7773 19.3064 28.9235C19.434 29.0696 19.5237 29.2429 19.5682 29.4291C19.5966 29.627 19.5708 29.8286 19.4933 30.0139C19.4159 30.1992 19.2896 30.3617 19.1269 30.4853C18.7978 30.7304 18.3963 30.868 17.9807 30.8779C17.6483 30.9055 17.8202 31.0991 17.7572 30.7451Z" fill="url(#paint14_radial_12164_1817)"/>
<path d="M14.5665 32.6163C15.2625 32.7076 15.9679 32.5749 16.5938 32.235C16.9275 32.0275 17.2144 31.7431 17.434 31.4021C17.6536 31.0612 17.8004 30.6722 17.864 30.2631C17.8971 30.1406 17.9034 30.0115 17.8822 29.886C17.861 29.7605 17.8129 29.6421 17.7418 29.54C17.6294 29.4432 17.5037 29.3656 17.3693 29.31C17.1251 29.1719 16.9419 28.9221 16.7038 28.7578C16.3916 28.5705 16.0413 28.4689 15.684 28.462C15.4591 28.4325 15.2327 28.4193 15.0062 28.4226C14.5531 28.4424 14.1155 28.6057 13.7483 28.8922C13.3811 29.1787 13.1007 29.5756 12.9423 30.033C12.7908 30.5048 12.8112 31.0209 12.9993 31.4771C13.1874 31.9333 13.5293 32.2958 13.9559 32.4914C14.1533 32.5625 14.3587 32.6045 14.5665 32.6163Z" fill="url(#paint15_radial_12164_1817)"/>
<path d="M20.8149 29.548C21.0288 29.7703 21.1701 30.0572 21.2189 30.368C21.2703 30.5524 21.2775 30.7471 21.24 30.9351C21.2024 31.1231 21.1212 31.2986 21.0034 31.4463C20.8099 31.607 20.5763 31.7063 20.3302 31.7327C20.0182 31.8224 19.6888 31.8224 19.3769 31.7327C19.172 31.6377 19.0007 31.4785 18.8867 31.2771C18.7728 31.0758 18.722 30.8424 18.7413 30.6095C18.7577 30.3827 18.8247 30.1631 18.9369 29.9681C19.0491 29.7731 19.2035 29.6081 19.3876 29.4863C19.5996 29.3333 19.8536 29.2565 20.1112 29.2677C20.3688 29.2788 20.6159 29.3772 20.8149 29.548Z" fill="url(#paint16_radial_12164_1817)"/>
<path d="M19.6936 33.655C19.5877 34.1152 19.5549 34.5926 19.5967 35.0655C19.6217 35.3063 19.7025 35.5356 19.8312 35.7309C19.8936 35.827 19.9768 35.904 20.073 35.9548C20.1692 36.0055 20.2754 36.0282 20.3816 36.0209C20.4914 35.9993 20.5937 35.9444 20.6773 35.8621C20.7609 35.7798 20.8226 35.6734 20.8556 35.5546C21.0442 35.0655 20.6058 34.0816 20.7129 33.4503C20.8505 32.6597 21.3398 32.8815 21.2531 32.1024C21.2072 31.6815 20.6823 31.8066 20.5549 31.8578C20.0146 32.0853 19.8363 32.8929 19.6936 33.655Z" fill="url(#paint17_radial_12164_1817)"/>
<path d="M20.4204 32.8113C20.4271 32.3791 20.2612 31.9586 19.952 31.6241C19.6428 31.2895 19.21 31.0622 18.73 30.9822C18.2504 30.9211 17.7611 30.9655 17.3054 31.1113C16.8496 31.2571 16.4415 31.4999 16.1169 31.8184C15.8927 32.0198 15.7059 32.2513 15.5633 32.5043C15.3348 32.9535 15.3059 33.4625 15.4824 33.9298C15.6588 34.397 16.0277 34.7884 16.5155 35.0258C17.1042 35.2285 17.7574 35.2285 18.3462 35.0258C19.021 34.834 19.5983 34.4386 19.9775 33.9087C20.2726 33.6036 20.4303 33.2128 20.4204 32.8113Z" fill="url(#paint18_radial_12164_1817)"/>
<path d="M20.3245 32.5199C20.2211 32.1592 19.9592 32.028 19.6353 31.864C18.6758 31.4626 17.7858 30.9253 16.9955 30.2702C15.6529 29.2588 14.7457 27.8146 14.4454 26.2103C14.2737 25.3984 14.1563 24.5769 14.0938 23.7508C14.0331 22.4978 14.1326 21.2424 14.3902 20.0123C14.6763 18.6398 15.1105 17.2991 15.686 16.0114C15.686 15.9655 15.8169 15.8933 15.8307 15.854C15.7585 15.8278 15.6892 15.7949 15.6239 15.7556C13.6573 19.2074 13.1636 23.2476 14.2455 27.0367C14.4223 27.7245 14.6959 28.3863 15.0588 29.0044C15.8522 30.1569 16.9409 31.0981 18.2224 31.7394C18.76 32.0345 20.2418 32.5658 20.421 32.6445C20.3845 32.6061 20.3522 32.5644 20.3245 32.5199Z" fill="#C4684F"/>
<path d="M27.4112 43.9485C27.5029 44.6601 27.6626 45.3614 27.8881 46.0428C28.191 46.6853 28.9516 47.2185 29.5897 46.9101C30.0041 46.6332 30.295 46.2074 30.4018 45.7216L31.6264 42.291C31.8912 41.6363 32.0773 40.9527 32.1807 40.2544C32.2649 39.5263 32.1743 38.7886 31.9164 38.1023C31.8425 37.8639 31.7171 37.6447 31.549 37.4598C31.3219 37.2663 31.0491 37.1337 30.7563 37.0743C30.2817 36.9231 29.7847 36.8535 29.2867 36.8688C28.8096 36.9086 28.348 37.0574 27.9379 37.3036C27.5277 37.5498 27.1798 37.8868 26.9213 38.2885C26.391 39.1009 26.1992 40.0872 26.3864 41.0382C26.5926 42.0533 27.1727 42.9463 27.4112 43.9485Z" fill="url(#paint19_radial_12164_1817)"/>
<path d="M42.067 13.5132C41.9603 13.4046 41.8356 13.3234 41.7009 13.2748C41.5662 13.2261 41.4244 13.211 41.2845 13.2304C41.0116 13.2789 40.7515 13.3992 40.5233 13.5823C40.2243 13.7803 39.9873 14.0866 39.8472 14.4559C39.7834 14.6486 39.7723 14.8599 39.8152 15.0605C39.8582 15.261 39.9531 15.4408 40.0867 15.5745C40.2476 15.6879 40.4318 15.7466 40.6191 15.7442C40.8736 15.7755 41.1308 15.7417 41.3733 15.6452C41.6158 15.5487 41.8379 15.3917 42.0244 15.1849C42.204 14.9609 42.3076 14.6669 42.3154 14.3586C42.3233 14.0504 42.2349 13.7495 42.067 13.5132Z" fill="url(#paint20_radial_12164_1817)"/>
<path d="M38.106 15.8207C38.1204 15.9369 38.1654 16.048 38.237 16.1441C38.3443 16.2821 38.4845 16.3951 38.6466 16.4742C38.8088 16.5533 38.9884 16.5963 39.1714 16.6C39.5308 16.5959 39.8797 16.4865 40.1684 16.2872C40.3458 16.1852 40.4881 16.038 40.5786 15.8631C40.6213 15.7729 40.639 15.6742 40.63 15.5761C40.6211 15.4779 40.5858 15.3834 40.5273 15.3012C40.4747 15.2452 40.4132 15.1969 40.345 15.158C40.0757 14.9968 39.7622 14.9111 39.442 14.9111C39.1218 14.9111 38.8083 14.9968 38.539 15.158C38.4109 15.2237 38.3035 15.3194 38.2276 15.4357C38.1516 15.552 38.1097 15.6847 38.106 15.8207Z" fill="url(#paint21_radial_12164_1817)"/>
<path d="M42.039 14.9414C41.6058 14.8665 41.1592 14.9316 40.768 15.1268C40.3767 15.322 40.0625 15.6364 39.8736 16.0217C39.8045 16.1894 39.7774 16.3706 39.7946 16.5504C39.8349 16.7541 39.9344 16.9423 40.0814 17.093C40.2284 17.2437 40.4168 17.3505 40.6244 17.4008C41.0319 17.4846 41.4561 17.4472 41.8414 17.2935C42.1313 17.2188 42.3983 17.0775 42.6197 16.8814C42.8412 16.6853 43.0107 16.4404 43.1137 16.1673C43.1728 15.9826 43.1728 15.785 43.1137 15.6003C43.0119 15.4072 42.8584 15.2442 42.6693 15.1283C42.4803 15.0124 42.2626 14.9478 42.039 14.9414Z" fill="url(#paint22_radial_12164_1817)"/>
<path d="M38.1135 17.8073C38.1103 18.0383 38.1633 18.2664 38.2678 18.472C38.3744 18.6383 38.5156 18.7795 38.6815 18.8857C38.8474 18.9919 39.0341 19.0606 39.2289 19.0871C39.3743 19.1299 39.5267 19.1433 39.6772 19.1263C39.8278 19.1093 39.9735 19.0623 40.1058 18.9881C40.352 18.8031 40.5178 18.5296 40.5689 18.2245C40.6389 18.0051 40.6512 17.7712 40.6045 17.5456C40.5577 17.32 40.4536 17.1105 40.3023 16.9377C40.0573 16.7396 39.7535 16.6301 39.4394 16.6266C39.0998 16.557 38.7467 16.6257 38.4572 16.8175C38.3299 16.9459 38.2328 17.1016 38.1733 17.2729C38.1138 17.4443 38.0933 17.6269 38.1135 17.8073Z" fill="url(#paint23_radial_12164_1817)"/>
<path d="M40.7572 16.8392C40.4906 16.9202 40.253 17.1002 40.0792 17.3526C39.9054 17.605 39.8046 17.9167 39.7915 18.2419C39.781 18.4156 39.8124 18.5893 39.8819 18.7428C39.9423 18.8568 40.0253 18.9516 40.1237 19.0191C40.2221 19.0866 40.3329 19.1248 40.4466 19.1302C40.6613 19.145 40.8764 19.1086 41.0791 19.0234C41.4547 18.9189 41.7963 18.6868 42.0617 18.3554C42.1948 18.1977 42.2811 17.993 42.3074 17.7723C42.3337 17.5516 42.2987 17.3267 42.2076 17.1315C42.1165 16.9364 41.9742 16.7815 41.8023 16.6902C41.6303 16.599 41.438 16.5763 41.2541 16.6255C40.9216 16.7002 40.6037 16.8474 40.3167 17.0597C40.0852 17.1665 40.9323 16.7858 40.7572 16.8392Z" fill="url(#paint24_radial_12164_1817)"/>
<path d="M40.4491 20.5793C40.5397 20.4936 40.5961 20.3964 40.614 20.2954C40.6545 20.1133 40.6276 19.9281 40.5353 19.753C40.443 19.5779 40.2876 19.4174 40.0801 19.2828C39.8621 19.1838 39.5957 19.1313 39.3228 19.1334C39.0498 19.1355 38.7858 19.1921 38.572 19.2944C38.3583 19.3967 38.2069 19.5389 38.1417 19.6986C38.0764 19.8584 38.101 20.0267 38.2116 20.1771C38.2945 20.2864 38.4058 20.387 38.5413 20.4752C38.7871 20.6477 39.1214 20.766 39.4913 20.8111C39.6711 20.8328 39.8574 20.8225 40.0276 20.7813C40.1977 20.7401 40.3442 20.6699 40.4491 20.5793Z" fill="url(#paint25_radial_12164_1817)"/>
<path d="M40.6975 21.6422C40.9218 21.6849 41.153 21.6715 41.3712 21.6031C41.5894 21.5346 41.7883 21.4132 41.951 21.2491C42.1137 21.0775 42.2279 20.8638 42.2814 20.6308C42.335 20.3979 42.326 20.1544 42.2552 19.9263C42.1417 19.629 41.9214 19.3876 41.6395 19.2518C41.3577 19.116 41.0358 19.0961 40.7401 19.1963C40.5993 19.2645 40.4699 19.3551 40.3567 19.4646C40.0938 19.6862 39.9063 19.9877 39.8212 20.3257C39.7797 20.4979 39.779 20.6779 39.8192 20.8505C39.8595 21.0231 39.9394 21.1833 40.0525 21.3177C40.2261 21.4967 40.4532 21.611 40.6975 21.6422Z" fill="url(#paint26_radial_12164_1817)"/>
<path d="M39.0629 21.1997C38.9762 21.4127 38.9368 21.6613 38.9504 21.9098C38.9639 22.1583 39.0297 22.394 39.1383 22.5833C39.2357 22.7581 39.3501 22.91 39.4777 23.0338C39.6209 23.2199 39.8003 23.3327 39.9895 23.3556C40.0905 23.34 40.1872 23.2869 40.271 23.2012C40.3547 23.1155 40.4228 22.9999 40.469 22.8649C40.5599 22.5888 40.6113 22.2874 40.6198 21.98C40.636 21.8714 40.636 21.7588 40.6198 21.6502C40.5871 21.5516 40.539 21.4661 40.4797 21.4008C40.2833 21.1324 40.044 20.9441 39.7848 20.8538C39.6548 20.8058 39.5185 20.8127 39.391 20.8738C39.2635 20.9349 39.1499 21.0477 39.0629 21.1997Z" fill="url(#paint27_radial_12164_1817)"/>
<path d="M41.5663 21.0055C41.2971 21.125 41.0654 21.328 40.8994 21.5896C40.7335 21.8511 40.6405 22.1601 40.6319 22.4787C40.6293 22.805 40.7091 23.1257 40.8626 23.4053C41.016 23.6848 41.2371 23.9122 41.5013 24.0621C41.6408 24.1416 41.794 24.1879 41.951 24.198C42.1079 24.208 42.265 24.1816 42.4121 24.1206C42.6882 23.9567 42.899 23.6861 43.0035 23.3613C43.1463 23.0183 43.1917 22.6361 43.1336 22.2645C43.0823 21.9948 42.964 21.746 42.7917 21.5455C42.6195 21.3451 42.4001 21.2008 42.1577 21.1288C41.7201 21.0055 41.8502 20.5836 41.5663 21.0055Z" fill="url(#paint28_radial_12164_1817)"/>
<path d="M38.9757 23.3495C38.8917 23.7647 38.9986 24.1918 39.2738 24.5407C39.4089 24.7101 39.594 24.8456 39.8101 24.9334C40.0262 25.0211 40.2655 25.058 40.5036 25.0402C40.6996 25.0147 40.8844 24.9458 41.04 24.8403C41.1955 24.7347 41.3163 24.5961 41.3905 24.4382C41.4633 24.2747 41.4891 24.0985 41.4657 23.9246C41.4424 23.7507 41.3706 23.5841 41.2564 23.4392C41.1744 23.3367 41.07 23.2534 40.9881 23.1574C40.8823 23.0177 40.7678 22.883 40.6452 22.7539C40.551 22.6738 40.4388 22.611 40.3154 22.5693C40.192 22.5277 40.0601 22.5081 39.9276 22.5116C39.7951 22.5152 39.6648 22.542 39.5447 22.5902C39.4246 22.6385 39.3173 22.7073 39.2291 22.7923C39.0887 22.9555 39.0013 23.1478 38.9757 23.3495Z" fill="url(#paint29_radial_12164_1817)"/>
<path d="M41.2856 26.223C41.2906 26.052 41.2539 25.8822 41.1783 25.7271C41.1028 25.5719 40.9905 25.4356 40.8503 25.3288C40.574 25.1243 40.2282 25.0242 39.8792 25.0478C39.7334 25.0451 39.5887 25.0741 39.4564 25.1328C39.3241 25.1914 39.2076 25.2782 39.1158 25.3863C38.9997 25.55 38.941 25.7445 38.9484 25.942C38.9497 26.3288 39.0932 26.7029 39.3538 26.9992C39.6144 27.2956 39.9757 27.4955 40.3748 27.5642C40.5771 27.5969 40.7849 27.5702 40.9709 27.4876C41.1315 27.391 41.2625 27.2557 41.3507 27.0953C41.4389 26.9349 41.4812 26.7552 41.4731 26.5743C41.4798 26.2102 41.2454 26.587 41.2856 26.223Z" fill="url(#paint30_radial_12164_1817)"/>
<path d="M42.5652 24.2198C42.2438 24.3626 41.9711 24.59 41.7787 24.8756C41.5864 25.1612 41.4823 25.4933 41.4785 25.8334C41.4651 25.9531 41.4796 26.0742 41.5209 26.188C41.5622 26.3017 41.6293 26.4052 41.7173 26.4909C41.8054 26.5767 41.9122 26.6427 42.03 26.684C42.1478 26.7253 42.2736 26.7409 42.3985 26.7298C42.6669 26.7424 42.9343 26.6905 43.1765 26.5786C43.4186 26.4668 43.6279 26.2987 43.7852 26.0895C43.9371 25.8647 44.0116 25.5998 43.9985 25.3322C43.9853 25.0646 43.8851 24.8076 43.7119 24.5976C43.5708 24.4451 43.3911 24.3302 43.1902 24.264C42.9893 24.1979 42.774 24.1826 42.5652 24.2198Z" fill="url(#paint31_radial_12164_1817)"/>
<path d="M40.2021 29.2637C40.4723 29.2688 40.7375 29.2007 40.9602 29.0692C41.1829 28.9378 41.3517 28.7495 41.4429 28.5311C41.5073 28.246 41.4715 27.9508 41.3401 27.6831C41.279 27.4817 41.1665 27.2943 41.0107 27.1348C40.8549 26.9752 40.6596 26.8474 40.4392 26.7606C40.2301 26.7164 40.0105 26.7263 39.8079 26.789C39.6054 26.8518 39.4291 26.9646 39.3011 27.1133C39.0422 27.4244 38.9191 27.8039 38.9534 28.1851C38.9412 28.4656 39.0479 28.7403 39.2537 28.9585C39.3764 29.0655 39.5248 29.1484 39.6886 29.2011C39.8524 29.2538 40.0276 29.2752 40.2021 29.2637Z" fill="url(#paint32_radial_12164_1817)"/>
<path d="M43.853 27.1658C43.7673 27.0336 43.6516 26.925 43.516 26.8496C43.3803 26.7743 43.2289 26.7344 43.0749 26.7334C42.7707 26.7397 42.4753 26.8393 42.2261 27.0197C41.8812 27.2296 41.6263 27.567 41.5129 27.9637C41.457 28.1656 41.4609 28.3802 41.5239 28.5799C41.5869 28.7796 41.7062 28.9553 41.8666 29.0844C41.9983 29.172 42.1473 29.2281 42.3027 29.2488C42.5232 29.2835 42.7484 29.2677 42.9623 29.2024C43.1763 29.1372 43.3737 29.0241 43.5406 28.8712C43.708 28.7099 43.8359 28.5099 43.9138 28.2875C43.9917 28.0651 44.0173 27.8268 43.9885 27.5922C43.9731 27.4417 43.9269 27.2964 43.853 27.1658Z" fill="url(#paint33_radial_12164_1817)"/>
<path d="M41.4741 29.458C41.4739 29.357 41.46 29.2564 41.4328 29.159C41.3445 28.9105 41.1617 28.7056 40.923 28.5879C40.6229 28.4265 40.2726 28.3809 39.9404 28.4601C39.6081 28.5392 39.3175 28.7374 39.125 29.0162C38.954 29.3158 38.9045 29.6683 38.9863 30.0025C39.0681 30.3368 39.2752 30.628 39.5659 30.8176C39.7413 30.9082 39.9363 30.9555 40.1342 30.9555C40.3322 30.9555 40.5272 30.9082 40.7026 30.8176C41.0433 30.6169 41.2906 30.2923 41.3914 29.9135C41.4392 29.7659 41.467 29.6128 41.4741 29.458Z" fill="url(#paint34_radial_12164_1817)"/>
<path d="M41.8229 28.4221C41.667 28.4446 41.5173 28.512 41.3858 28.6192C41.0995 28.8372 40.8768 29.1647 40.7505 29.5534C40.6368 29.8736 40.6038 30.2295 40.6559 30.5738C40.7079 30.9181 40.8426 31.2343 41.0419 31.4802C41.2614 31.6947 41.5333 31.8075 41.8116 31.7995C42.0899 31.7915 42.3575 31.6632 42.5689 31.4364C42.7742 31.1927 42.9332 30.8944 43.034 30.5634C43.1349 30.2324 43.1751 29.8773 43.1517 29.5242C43.1509 29.4193 43.1351 29.3155 43.1051 29.2177C43.0225 29.0349 42.8961 28.8894 42.7437 28.8016C42.4744 28.5617 42.1534 28.4294 41.8229 28.4221Z" fill="url(#paint35_radial_12164_1817)"/>
<path d="M40.0927 31.5859C40.3056 31.4861 40.4697 31.3323 40.5587 31.1494C40.6477 30.9666 40.6562 30.7652 40.583 30.578C40.48 30.4366 40.331 30.3196 40.1515 30.2393C39.972 30.159 39.7687 30.1183 39.5626 30.1214C39.2508 30.0865 38.9334 30.1408 38.6675 30.2746C38.4016 30.4083 38.2045 30.6126 38.1116 30.851C38.0879 31.0349 38.1395 31.2199 38.2589 31.3787C38.3782 31.5376 38.5588 31.6617 38.7741 31.7329C38.9924 31.7953 39.2266 31.8146 39.4564 31.789C39.6862 31.7633 39.9046 31.6936 40.0927 31.5859Z" fill="url(#paint36_radial_12164_1817)"/>
<path d="M39.7896 32.2379C39.8059 32.5704 39.9632 32.8851 40.23 33.1189C40.367 33.2584 40.5421 33.3643 40.7385 33.4264C40.9349 33.4885 41.146 33.5047 41.3515 33.4734C41.603 33.3813 41.821 33.2293 41.9816 33.0344C42.1422 32.8394 42.2391 32.6089 42.2617 32.3682C42.3169 32.2096 42.3302 32.0418 42.3004 31.8779C42.2707 31.7141 42.1987 31.5585 42.0902 31.4233C41.9817 31.2881 41.8395 31.177 41.6747 31.0986C41.51 31.0201 41.327 30.9765 41.1401 30.9711C41.0219 30.9504 40.9002 30.9504 40.7819 30.9711C40.6715 31.0027 40.5695 31.0541 40.4825 31.1222C40.2853 31.2546 40.1216 31.4224 40.0023 31.6146C39.8829 31.8068 39.8104 32.0192 39.7896 32.2379Z" fill="url(#paint37_radial_12164_1817)"/>
<path d="M37.2943 33.7352C37.4003 33.9498 37.5637 34.1211 37.761 34.2247C37.9584 34.3283 38.1797 34.3588 38.3934 34.312C38.7271 34.2855 39.0436 34.1346 39.2932 33.8832C39.5428 33.6318 39.7114 33.294 39.7726 32.9227C39.7945 32.7916 39.7945 32.6569 39.7726 32.5258C39.706 32.331 39.5925 32.161 39.4449 32.035C39.2974 31.909 39.1216 31.8319 38.9374 31.8125C38.5578 31.7601 38.1749 31.8744 37.868 32.1319C37.5611 32.3894 37.3537 32.7703 37.2888 33.1956C37.2522 33.3734 37.2541 33.5585 37.2943 33.7352Z" fill="url(#paint38_radial_12164_1817)"/>
<path d="M39.5021 35.7928C39.6834 35.9309 39.9095 36.0111 40.1458 36.0212C40.382 36.0313 40.6154 35.9707 40.8101 35.8486C41.0034 35.7181 41.1626 35.5503 41.2762 35.3574C41.3898 35.1644 41.455 34.951 41.4672 34.7324C41.4999 34.2892 41.4157 33.8453 41.2216 33.4377C41.0742 33.0749 40.8101 32.6843 40.3987 32.6452C40.1567 32.6364 39.9206 32.7146 39.7416 32.8628C39.3358 33.1844 39.0659 33.6244 38.9785 34.1072C38.8911 34.59 38.9915 35.0854 39.2626 35.5082C39.3264 35.6134 39.4071 35.7093 39.5021 35.7928Z" fill="url(#paint39_radial_12164_1817)"/>
<path d="M38.7922 34.767C38.4831 34.5413 38.1125 34.3971 37.7204 34.3501C37.3282 34.3031 36.9295 34.3549 36.5673 34.5001C36.1805 34.6513 35.8703 34.9306 35.699 35.2821C35.6048 35.4607 35.5649 35.6594 35.5836 35.857C35.6022 36.0547 35.6788 36.2441 35.8051 36.4053C35.9314 36.5666 36.1028 36.6938 36.3014 36.7735C36.5 36.8532 36.7183 36.8825 36.9336 36.8584C37.3615 36.8181 37.7695 36.6723 38.1139 36.4363C38.3695 36.3108 38.5814 36.1221 38.7254 35.8916C38.8693 35.6612 38.9395 35.3983 38.9279 35.1331C38.8533 34.7732 39.0907 34.9904 38.7922 34.767Z" fill="url(#paint40_radial_12164_1817)"/>
<path d="M40.0991 35.2388C39.8473 35.1631 39.582 35.1626 39.3299 35.2374C39.0779 35.3123 38.8482 35.4598 38.6641 35.665C38.4767 35.8782 38.3307 36.1318 38.235 36.4101C38.1394 36.6884 38.0961 36.9856 38.1078 37.2832C38.1117 37.5294 38.1689 37.7709 38.2747 37.9873C38.3721 38.1561 38.505 38.296 38.662 38.395C38.819 38.494 38.9953 38.5491 39.1758 38.5555C39.5361 38.5531 39.8843 38.4111 40.1603 38.1541C40.2962 38.0444 40.4068 37.9004 40.4829 37.7341C40.5338 37.5893 40.5675 37.4377 40.583 37.2832C40.6725 36.8257 40.6396 36.3491 40.4885 35.9121C40.3327 35.4921 40.4384 35.0041 40.0991 35.2388Z" fill="url(#paint41_radial_12164_1817)"/>
<path d="M36.4133 36.0524C36.1733 36.0121 35.9252 36.0121 35.6851 36.0524C35.3959 36.119 35.1443 36.2615 34.9724 36.4563C34.8004 36.6511 34.7185 36.8864 34.7402 37.123C34.7481 37.2122 34.7788 37.2992 34.8305 37.3788C34.9225 37.4827 35.0462 37.5667 35.1903 37.623C35.3345 37.6793 35.4943 37.7061 35.655 37.7009C35.9704 37.7337 36.2909 37.6867 36.57 37.5666C36.8492 37.4465 37.0725 37.2597 37.2078 37.033C37.2794 36.873 37.2816 36.6988 37.2141 36.5377C37.1466 36.3765 37.0131 36.2375 36.8346 36.1424C36.7023 36.0925 36.5596 36.062 36.4133 36.0524Z" fill="url(#paint42_radial_12164_1817)"/>
<path d="M38.3828 37.774C37.9638 37.6901 37.5252 37.6902 37.1063 37.7744C36.6873 37.8586 36.3011 38.0243 35.9821 38.2565C35.4254 38.5583 35.0116 39 34.8067 39.5111C34.7071 39.7717 34.7141 40.0508 34.8268 40.308C34.9395 40.5652 35.1521 40.7872 35.4336 40.9417C35.7247 41.0571 36.0501 41.1062 36.3739 41.0836C36.7903 41.0686 37.1974 40.9811 37.5667 40.8271C37.9359 40.6731 38.2583 40.4564 38.5111 40.1923C38.7639 39.9113 38.9132 39.5796 38.9422 39.2345C38.9711 38.8895 38.8786 38.5449 38.6749 38.2395C38.623 38.1663 38.5582 38.0994 38.4826 38.0408C38.2332 37.8421 38.7105 37.8705 38.3828 37.774Z" fill="url(#paint43_radial_12164_1817)"/>
<path d="M35.5747 37.4712C35.5896 37.2591 35.5665 37.0459 35.5068 36.843C35.4053 36.5783 35.2265 36.3559 34.9971 36.2092C34.7677 36.0626 34.5 35.9995 34.2343 36.0295C33.9718 36.0621 33.724 36.1767 33.5219 36.359C33.3198 36.5413 33.1723 36.7832 33.0977 37.0546C33.0254 37.3184 33.0407 37.6009 33.1409 37.8541C33.2411 38.1073 33.4201 38.3155 33.6474 38.4434C33.8845 38.5353 34.1374 38.5714 34.3887 38.5492C34.7237 38.5813 35.0575 38.4748 35.3214 38.2516C35.4932 38.034 35.5834 37.7559 35.5747 37.4712Z" fill="url(#paint44_radial_12164_1817)"/>
<path d="M36.2228 40.8629C36.3345 40.6589 36.4008 40.4331 36.4171 40.2012C36.4333 39.9692 36.3992 39.7364 36.317 39.5188C36.237 39.3052 36.1094 39.1125 35.944 38.9554C35.7785 38.7982 35.5795 38.6806 35.3619 38.6116C34.8887 38.5047 34.3938 38.5518 33.9494 38.746C33.37 38.9153 32.859 39.2634 32.4898 39.7406C32.3082 39.9907 32.2104 40.2918 32.2104 40.6008C32.2104 40.9098 32.3082 41.2109 32.4898 41.461C32.7017 41.6488 32.9533 41.7862 33.2259 41.863C33.4984 41.9399 33.7849 41.954 34.0637 41.9045C34.4816 41.9217 34.8973 41.8356 35.2739 41.6539C35.6505 41.4722 35.9764 41.2005 36.2228 40.8629Z" fill="url(#paint45_radial_12164_1817)"/>
<path d="M33.7348 37.2985C33.535 36.8282 33.1876 36.4496 32.7541 36.2297C32.3205 36.0099 31.829 35.963 31.3665 36.0974C31.1638 36.1526 30.9787 36.2661 30.8309 36.4258C30.683 36.5855 30.578 36.7855 30.5269 37.0045C30.5333 37.2597 30.6063 37.5078 30.7374 37.7203C30.8685 37.9328 31.0524 38.101 31.268 38.2056C31.65 38.464 32.0982 38.5845 32.5477 38.5497C32.7655 38.5253 32.9743 38.4428 33.1553 38.3095C33.3362 38.1763 33.4836 37.9965 33.5842 37.7864C33.7638 37.361 34.0938 37.5737 33.7348 37.2985Z" fill="url(#paint46_radial_12164_1817)"/>
<path d="M33.0387 39.5719C33.0826 39.1768 33.024 38.7779 32.8678 38.4072C32.7116 38.0365 32.4621 37.7046 32.1395 37.438C31.8194 37.1834 31.4345 37.0059 31.02 36.9219C30.6054 36.8379 30.1744 36.8499 29.7662 36.9569C29.5559 37.0081 29.3615 37.1031 29.1983 37.2344C29.0727 37.3543 28.9764 37.4971 28.9158 37.6533C28.8552 37.8096 28.8317 37.9758 28.8467 38.141C28.8835 38.4759 29.0139 38.7966 29.2253 39.0723C29.5199 39.4698 29.9267 39.7873 30.4027 39.9914C30.8788 40.1955 31.4064 40.2786 31.9299 40.2318C32.1387 40.2188 32.3418 40.1641 32.5249 40.0714C32.9711 39.8494 32.9846 40.0714 33.0387 39.5719Z" fill="url(#paint47_radial_12164_1817)"/>
<path d="M39.9379 33.7716C40.8133 31.7336 42.3864 29.1427 40.7827 22.4822C40.4424 21.0894 40.2676 19.6577 40.2624 18.2198C40.283 17.3544 40.3834 16.4932 40.5623 15.6482C40.8857 14.3364 40.9213 12.9647 40.6664 11.6364C40.5868 11.3343 40.4215 11.7843 40.1338 11.8743C40.8867 13.4173 40.1338 15.2753 39.9502 16.9661C39.4911 20.785 41.4438 24.681 41.0275 28.5384C40.7558 30.7192 40.0644 32.8191 38.9953 34.7103C38.5974 35.4753 37.3181 38.4906 34.6737 38.7027C34.2526 38.8025 33.8156 38.8025 33.3944 38.7027C33.2781 38.6577 32.3293 38.0598 32.3232 38.0598C32.0172 38.3555 32.3906 38.8699 32.7701 39.0627C34.2698 39.8149 36.1306 39.2299 37.3487 38.092C38.5668 36.954 39.2769 35.3082 39.9379 33.7716Z" fill="#C4684F"/>
<path d="M40.7924 11.8664C40.7977 11.7605 40.8261 11.6574 40.8754 11.5652C40.9247 11.4729 40.9936 11.3941 41.0765 11.3348C41.4888 10.9509 42.0124 10.5374 42.5417 10.7441C42.7578 10.8485 42.9343 11.0272 43.0425 11.2513C43.1507 11.4754 43.1843 11.7318 43.1378 11.9787C43.0841 12.2171 42.9792 12.4392 42.8314 12.6277C42.6836 12.8162 42.4967 12.966 42.2854 13.0655C42.1077 13.1684 41.9085 13.2223 41.706 13.2223C41.5036 13.2223 41.3043 13.1684 41.1266 13.0655C40.9802 12.9632 40.8601 12.8236 40.7774 12.6596C40.6947 12.4956 40.652 12.3123 40.6531 12.1263C40.6475 11.7719 40.5584 12.1381 40.7924 11.8664Z" fill="url(#paint48_radial_12164_1817)"/>
<path d="M16.2218 14.1589C16.2073 14.0854 16.2073 14.0075 16.2218 13.934C16.2346 13.8627 16.26 13.7973 16.2956 13.7442C16.5645 13.3973 16.9173 13.2133 17.2793 13.231C17.4346 13.1997 17.5925 13.2523 17.722 13.3786C17.8093 13.5086 17.8631 13.6772 17.8745 13.8566C17.9149 14.0765 17.8956 14.3101 17.8204 14.5104C17.6679 14.8478 17.3285 14.8408 17.0678 14.89C16.9506 14.9181 16.8309 14.9181 16.7137 14.89C16.5953 14.8371 16.4882 14.7423 16.4022 14.6145C16.3162 14.4868 16.2542 14.33 16.2218 14.1589Z" fill="url(#paint49_radial_12164_1817)"/>
<path d="M18.6791 14.7793C18.604 14.8231 18.5237 14.8436 18.4431 14.8392C18.3625 14.8349 18.2834 14.806 18.2106 14.7543C18.1379 14.7026 18.073 14.6291 18.0202 14.5385C17.9674 14.448 17.9276 14.3422 17.9035 14.2278C17.8916 14.1524 17.8916 14.0739 17.9035 13.9986C17.9243 13.8747 17.9737 13.7657 18.0432 13.6906C18.1983 13.4978 18.3805 13.3591 18.5764 13.2847C18.7724 13.2104 18.977 13.2022 19.1753 13.2608C19.2782 13.2878 19.3746 13.3545 19.4547 13.4542C19.521 13.5635 19.5631 13.7005 19.5752 13.8466C19.5872 13.9928 19.5687 14.1408 19.5222 14.2708C19.4198 14.5211 19.2636 14.7129 19.079 14.8151C18.8236 14.9584 18.92 14.9369 18.6791 14.7793Z" fill="url(#paint50_radial_12164_1817)"/>
<path d="M20.6573 15.6312C20.3805 15.5758 20.1142 15.4224 19.8768 15.1814C19.7595 15.0544 19.6698 14.869 19.6208 14.6523C19.5717 14.4356 19.5658 14.1987 19.6039 13.976C19.724 13.4633 20.1061 13.3374 20.4335 13.2834C20.8702 13.1548 21.3201 13.2296 21.7324 13.4993C21.8222 13.5579 21.9025 13.6502 21.967 13.7689C22.0314 13.8875 22.0781 14.0293 22.1035 14.1829C22.1125 14.3749 22.0898 14.5674 22.0379 14.7399C21.9861 14.9125 21.9069 15.0588 21.8088 15.1634C21.6719 15.4328 21.4865 15.6233 21.2794 15.7074C21.0724 15.7915 20.8545 15.7648 20.6573 15.6312Z" fill="url(#paint51_radial_12164_1817)"/>
<path d="M22.3865 15.4114C22.3067 15.3465 22.2411 15.2669 22.1933 15.1773C22.1455 15.0877 22.1165 14.9899 22.1081 14.8894C22.0996 14.7889 22.1118 14.6878 22.1441 14.5919C22.1763 14.496 22.2278 14.4072 22.2957 14.3307C22.3669 14.2701 22.4501 14.2241 22.5403 14.1956C22.8464 14.0977 23.1688 14.0565 23.4907 14.074C23.6795 14.0535 23.8706 14.0758 24.0489 14.1391C24.2272 14.2024 24.3878 14.305 24.5179 14.4388C24.6103 14.5906 24.6481 14.7677 24.6254 14.9425C24.6026 15.1172 24.5206 15.2797 24.3922 15.4047C23.91 15.8843 22.736 15.8167 22.6032 15.533C22.6032 15.533 22.701 15.6884 22.3865 15.4114Z" fill="url(#paint52_radial_12164_1817)"/>
<path d="M26.0178 15.1465C26.1168 15.2164 26.2012 15.3119 26.2646 15.4259C26.3281 15.6016 26.3334 15.7993 26.2793 15.9794C26.2252 16.1595 26.1158 16.3088 25.9729 16.3973C25.6817 16.5555 25.361 16.6219 25.0418 16.5902C24.7647 16.6208 24.4854 16.5799 24.2229 16.4704C24.0902 16.4124 23.9768 16.3055 23.899 16.1655C23.8213 16.0254 23.7834 15.8595 23.791 15.6921C23.8415 15.2929 24.2061 15.0933 24.5314 15.0268C25.0214 14.8385 25.5537 14.8813 26.0178 15.1465Z" fill="url(#paint53_radial_12164_1817)"/>
<path d="M26.329 16.0251C26.392 16.1419 26.4887 16.2432 26.61 16.3197C26.7314 16.3961 26.8734 16.4452 27.023 16.4624C27.9959 16.6845 29.0266 16.6368 29.9656 16.3265C30.1911 16.2719 30.3828 16.1447 30.5 15.9719C30.5461 15.8236 30.5328 15.6665 30.4625 15.5252C30.3921 15.384 30.2686 15.2667 30.1114 15.1918C29.7001 14.9983 29.2345 14.9043 28.765 14.92C28.5825 14.9082 28.3992 14.9082 28.2167 14.92C27.8062 14.9761 27.4082 15.0857 27.0369 15.245C26.8433 15.3097 26.6664 15.4061 26.5164 15.5287C26.4377 15.5908 26.3792 15.6691 26.3464 15.756C26.3136 15.8429 26.3076 15.9356 26.329 16.0251Z" fill="url(#paint54_radial_12164_1817)"/>
<path d="M31.0139 16.5958C31.2563 16.6128 31.4994 16.5783 31.7305 16.4943C31.847 16.4525 31.9521 16.3779 32.0357 16.2776C32.1193 16.1773 32.1787 16.0547 32.2082 15.9213C32.2203 15.7447 32.1833 15.5682 32.1024 15.4162C32.0214 15.2642 31.9005 15.1442 31.7563 15.0727C31.4682 14.9405 31.156 14.8882 30.8461 14.9203C30.5946 14.913 30.3444 14.9624 30.1101 15.0654C29.9929 15.1222 29.8914 15.2135 29.8164 15.3297C29.7414 15.4458 29.6957 15.5826 29.6841 15.7254C29.6962 15.8852 29.7481 16.0378 29.8337 16.166C29.9193 16.2943 30.0352 16.3929 30.1682 16.4508C30.439 16.5608 30.7263 16.6101 31.0139 16.5958Z" fill="url(#paint55_radial_12164_1817)"/>
<path d="M32.8521 15.7451C33.3085 15.7521 33.7618 15.6486 34.188 15.4402C34.3358 15.376 34.471 15.272 34.5845 15.1352C34.6417 15.0658 34.685 14.9798 34.7105 14.8844C34.7361 14.7891 34.7431 14.6873 34.7311 14.5877C34.712 14.487 34.6738 14.3938 34.6198 14.3165C34.5658 14.2391 34.4977 14.1799 34.4215 14.1441C34.272 14.0762 34.1123 14.0525 33.9545 14.0748C33.5789 14.123 33.212 14.2494 32.8684 14.4491C32.724 14.5033 32.5912 14.5989 32.4801 14.7286C32.3691 14.8584 32.2827 15.0188 32.2276 15.1976C32.2111 15.2541 32.2064 15.3152 32.214 15.3747C32.2216 15.4343 32.2413 15.4903 32.2711 15.5372C32.3044 15.576 32.3431 15.6065 32.3851 15.6273C32.7055 15.8075 32.4883 15.7451 32.8521 15.7451Z" fill="url(#paint56_radial_12164_1817)"/>
<path d="M35.5668 14.7055C35.7223 14.5798 35.8893 14.4961 36.0448 14.3774C36.2087 14.2723 36.3356 14.0987 36.4019 13.8889C36.4282 13.7847 36.4274 13.6732 36.3996 13.5695C36.3718 13.4659 36.3183 13.3751 36.2464 13.3096C36.1679 13.2609 36.0812 13.2346 35.993 13.2329C35.6466 13.1858 35.298 13.2951 35.014 13.5399C34.879 13.6755 34.7865 13.8632 34.7519 14.0715C34.7173 14.2798 34.7427 14.4962 34.8239 14.6845C34.8598 14.7539 34.9092 14.8115 34.9679 14.852C35.0607 14.9071 35.1658 14.9243 35.2674 14.9009C35.5496 14.845 35.3365 14.9079 35.5668 14.7055Z" fill="url(#paint57_radial_12164_1817)"/>
<path d="M36.6487 14.0606L37.391 13.7349C37.5767 13.6753 37.7507 13.5709 37.903 13.428C37.9801 13.3632 38.0395 13.2716 38.0734 13.165C38.1073 13.0584 38.1142 12.9417 38.0932 12.8302C38.0723 12.7188 38.0243 12.6176 37.9557 12.5399C37.8871 12.4621 37.8009 12.4115 37.7085 12.3945C37.5367 12.3597 37.3604 12.3791 37.1965 12.4509C37.0415 12.4955 36.896 12.58 36.7697 12.6988C36.6435 12.8176 36.5394 12.968 36.4644 13.1399C36.4258 13.242 36.4125 13.3558 36.4261 13.4671C36.4398 13.5784 36.4798 13.6824 36.5412 13.7662C36.6593 13.8601 36.8007 13.9 36.9405 13.879C37.0634 13.8915 36.536 14.1045 36.6487 14.0606Z" fill="url(#paint58_radial_12164_1817)"/>
<path d="M38.2884 13.1674C38.555 13.2026 38.8249 13.151 39.0673 13.0185C39.3097 12.886 39.5148 12.6779 39.6595 12.4178C39.7485 12.301 39.7951 12.1493 39.7898 11.9941C39.7681 11.8967 39.7241 11.8078 39.6623 11.7367C39.6005 11.6656 39.5232 11.6149 39.4385 11.59C39.2415 11.5147 39.0287 11.5146 38.8316 11.5898C38.6346 11.6649 38.4639 11.8113 38.3451 12.0072C38.2752 12.1463 38.2164 12.2925 38.1695 12.4439C38.1277 12.5365 38.106 12.6394 38.106 12.7437C38.106 12.8481 38.1277 12.9509 38.1695 13.0435C38.2941 13.2586 38.0788 13.2521 38.2884 13.1674Z" fill="url(#paint59_radial_12164_1817)"/>
<path d="M39.2062 11.4804C39.7241 11.4875 40.2369 11.3952 40.704 11.2109C40.9847 11.1135 41.2213 10.9459 41.3802 10.7319C41.4544 10.6196 41.4858 10.4916 41.4702 10.3645C41.4546 10.2373 41.3928 10.117 41.2929 10.0193C41.125 9.89748 40.9056 9.83511 40.6822 9.84563C40.3714 9.84218 40.0646 9.90417 39.791 10.0257C39.5175 10.1473 39.2861 10.3244 39.119 10.5402C39.0172 10.6522 38.958 10.7865 38.949 10.9261C38.9399 11.0657 38.9814 11.2045 39.0681 11.3247C39.3226 11.5822 38.8427 11.5582 39.2062 11.4804Z" fill="url(#paint60_radial_12164_1817)"/>
<path d="M41.2143 10.6048C41.5048 10.6511 41.8051 10.6424 42.0906 10.5794C42.3761 10.5165 42.6388 10.401 42.8572 10.2424C42.9749 10.1621 43.0654 10.0597 43.1205 9.94467C43.1707 9.81388 43.1707 9.67424 43.1205 9.54346C43.0702 9.41268 42.9721 9.29666 42.8384 9.21013C42.7065 9.1269 42.5543 9.06627 42.3913 9.0321C42.2283 8.99792 42.0581 8.99095 41.8915 9.0116C41.6069 9.04303 41.3401 9.13964 41.124 9.28955C40.9078 9.43946 40.7518 9.63612 40.675 9.85532C40.6315 9.96596 40.6207 10.0831 40.6435 10.1975C40.6663 10.312 40.7222 10.4208 40.8067 10.5154C41.0074 10.7288 40.9509 10.7288 41.2143 10.6048Z" fill="url(#paint61_radial_12164_1817)"/>
<path d="M14.6434 14.9882C14.5622 15.1986 14.5223 15.4291 14.5269 15.6615C14.5205 15.8603 14.5703 16.0558 14.6679 16.2151C14.7299 16.3014 14.8048 16.3725 14.8886 16.4246C15.0791 16.54 15.2889 16.6 15.5016 16.6C15.7143 16.6 15.9241 16.54 16.1146 16.4246C16.4945 16.1957 16.7946 15.8082 16.9605 15.3324C17.0127 15.2193 17.0435 15.0936 17.051 14.9642C17.0584 14.8348 17.0421 14.705 17.0034 14.5842C16.9116 14.4196 16.7781 14.2961 16.6234 14.2326C16.2681 14.0518 15.8742 14.0177 15.5016 14.1354C15.3172 14.1954 15.1454 14.3024 14.9975 14.4494C14.8496 14.5964 14.7289 14.7801 14.6434 14.9882Z" fill="url(#paint62_radial_12164_1817)"/>
<path d="M18.3674 16.0934C18.549 15.8845 18.6668 15.6204 18.7049 15.3369C18.7741 15.0365 18.7314 14.7188 18.5862 14.452C18.5005 14.3289 18.3889 14.2298 18.2606 14.1628C18.1323 14.0958 17.9911 14.063 17.8486 14.067C17.5638 14.0858 17.2883 14.1835 17.0486 14.3507C16.7369 14.5288 16.4821 14.8042 16.3173 15.141C16.2362 15.3134 16.2004 15.5065 16.2136 15.6994C16.2268 15.8923 16.2886 16.0776 16.3923 16.2352C16.4806 16.3485 16.5906 16.4397 16.7147 16.5026C16.8388 16.5656 16.974 16.5988 17.1111 16.6C17.3833 16.601 17.6524 16.5364 17.8986 16.4108C18.0715 16.3368 18.2304 16.2292 18.3674 16.0934Z" fill="url(#paint63_radial_12164_1817)"/>
<path d="M20.4189 15.0388C20.1505 14.9452 19.8602 14.9021 19.569 14.9127C19.2779 14.9233 18.9933 14.9874 18.736 15.1002C18.4795 15.2186 18.2661 15.3916 18.1182 15.601C17.9702 15.8104 17.893 16.0487 17.8946 16.2911C17.906 16.5343 18.0049 16.7691 18.1786 16.9658C18.3522 17.1626 18.5929 17.3123 18.87 17.3961C19.1678 17.4606 19.4807 17.4606 19.7785 17.3961C20.0579 17.345 20.321 17.2459 20.5507 17.1052C20.7804 16.9645 20.9714 16.7854 21.1114 16.5796C21.2436 16.3662 21.2911 16.1239 21.247 15.887C21.2029 15.6501 21.0695 15.4307 20.8657 15.2598C20.7336 15.1651 20.5824 15.0903 20.4189 15.0388Z" fill="url(#paint64_radial_12164_1817)"/>
<path d="M21.2974 18.2049C21.4615 18.2617 21.6375 18.2863 21.8134 18.277C22.146 18.3098 22.4827 18.2749 22.7977 18.1748C23.1274 18.0272 23.4011 17.7976 23.5852 17.514C23.6478 17.4312 23.7002 17.3425 23.7413 17.2497C23.7945 17.0963 23.8037 16.9337 23.7681 16.7764C23.7326 16.6191 23.6534 16.4721 23.5376 16.3486C23.3017 16.1072 22.9897 15.9336 22.6416 15.85C22.3916 15.7741 22.127 15.7435 21.8634 15.76C21.5998 15.7765 21.3427 15.8398 21.1074 15.9461C20.8777 16.0617 20.6911 16.2341 20.5705 16.4422C20.4499 16.6503 20.4006 16.885 20.4285 17.1175C20.5105 17.48 20.734 17.8054 21.0598 18.0367C21.1303 18.1018 21.2102 18.1584 21.2974 18.2049Z" fill="url(#paint65_radial_12164_1817)"/>
<path d="M25.5911 16.6628C25.1376 16.5289 24.6619 16.611 24.2513 16.8942C24.0313 17.0969 23.8788 17.4001 23.8246 17.7427C23.7785 17.9527 23.7785 18.1753 23.8246 18.3854C23.8815 18.5542 23.9674 18.7039 24.0757 18.8231C24.1841 18.9423 24.312 19.0278 24.4498 19.0732C24.7209 19.1535 25.0025 19.1535 25.2735 19.0732C25.4826 19.0481 25.6832 18.9548 25.8568 18.8019C26.0304 18.649 26.1712 18.4416 26.266 18.199C26.3107 18.0054 26.3259 17.8024 26.3106 17.6012C26.3146 17.3898 26.2697 17.1816 26.1816 17.0035C26.0257 16.7963 25.8144 16.6744 25.5911 16.6628Z" fill="url(#paint66_radial_12164_1817)"/>
<path d="M29.2794 16.9129C28.9725 16.7012 28.6056 16.593 28.2325 16.6042C27.7772 16.5764 27.3247 16.6908 26.9377 16.9314C26.7381 17.0518 26.5751 17.224 26.466 17.4295C26.3569 17.635 26.3058 17.8662 26.3182 18.0984C26.3397 18.3016 26.417 18.495 26.5416 18.6574C26.6662 18.8197 26.8332 18.9446 27.0245 19.0184C27.2255 19.0777 27.4343 19.1068 27.6439 19.1048C28.2407 19.2 28.851 19.0557 29.3414 18.7035C29.4601 18.5828 29.5518 18.4384 29.6105 18.2798C29.6692 18.1213 29.6936 17.9521 29.6821 17.7835C29.6766 17.619 29.6381 17.4572 29.569 17.3077C29.4998 17.1582 29.4014 17.0239 29.2794 16.9129Z" fill="url(#paint67_radial_12164_1817)"/>
<path d="M32.3353 16.7118C32.2029 16.6703 32.061 16.6416 31.9146 16.6267C31.4212 16.5652 30.9085 16.611 30.4638 16.7565C30.2453 16.8302 30.06 16.9363 29.9245 17.0652C29.789 17.194 29.7076 17.3417 29.6877 17.4948C29.6683 17.6498 29.7278 17.8046 29.8578 17.9377C29.9878 18.0709 30.1819 18.1757 30.413 18.2376C30.6114 18.2787 30.8208 18.2954 31.0296 18.2868C31.4808 18.2862 31.9237 18.2122 32.3135 18.072C32.5057 17.999 32.6699 17.9012 32.7951 17.7854C32.9203 17.6695 33.0035 17.5383 33.0389 17.4008C33.0571 17.3477 33.0571 17.2929 33.0389 17.2398C33.0123 17.1987 32.9782 17.1597 32.9373 17.1234C32.7896 16.9599 32.5838 16.8192 32.3353 16.7118Z" fill="url(#paint68_radial_12164_1817)"/>
<path d="M33.9713 15.7804C33.5667 15.7135 33.1488 15.783 32.7975 15.9757C32.6201 16.0678 32.4726 16.2 32.3696 16.3592C32.2667 16.5184 32.2119 16.6991 32.2106 16.8833C32.2084 16.9633 32.2265 17.0427 32.2634 17.1155C32.3469 17.2295 32.4644 17.3202 32.6024 17.3771C32.7404 17.434 32.8934 17.4549 33.044 17.4374C33.3556 17.4645 33.6695 17.4138 33.9512 17.291C34.2328 17.1681 34.4713 16.9777 34.6404 16.7408C34.6899 16.6612 34.7212 16.5735 34.7323 16.4829C34.7433 16.3922 34.7341 16.3005 34.705 16.2131C34.6341 16.0906 34.5294 15.9865 34.4009 15.9108C34.2725 15.835 34.1246 15.7901 33.9713 15.7804Z" fill="url(#paint69_radial_12164_1817)"/>
<path d="M36.5409 14.94C36.3002 14.8995 36.0527 14.9016 35.8129 14.9463C35.5731 14.991 35.3458 15.0773 35.1444 15.2002C34.9463 15.3344 34.8094 15.5266 34.7586 15.7419C34.7078 15.9573 34.7465 16.1816 34.8676 16.374C34.8968 16.417 34.9353 16.4546 34.9808 16.4847C35.0748 16.5384 35.1834 16.569 35.2953 16.5733C35.7481 16.6389 36.2129 16.583 36.629 16.4127C36.8359 16.322 37.0068 16.1782 37.1191 16.0003C37.2314 15.8224 37.2798 15.6188 37.2581 15.4162C37.2439 15.3358 37.2118 15.2587 37.1637 15.1892C37.0868 15.1102 36.9912 15.047 36.8836 15.004C36.776 14.961 36.6591 14.9391 36.5409 14.94Z" fill="url(#paint70_radial_12164_1817)"/>
<path d="M36.9939 15.6659C37.2847 15.7753 37.5974 15.7847 37.8929 15.693C38.1884 15.6013 38.4537 15.4126 38.6558 15.1502C38.8201 14.8695 38.917 14.5445 38.9366 14.2077C38.968 13.9806 38.9294 13.7481 38.8274 13.5497C38.7327 13.4244 38.6108 13.3297 38.4739 13.2751C38.3369 13.2205 38.1898 13.2079 38.0472 13.2385C37.6322 13.2462 37.2302 13.4051 36.9003 13.692C36.738 13.8437 36.6101 14.0375 36.5273 14.2572C36.4445 14.4769 36.4092 14.7161 36.4243 14.9546C36.429 15.0631 36.4529 15.1694 36.4944 15.2672C36.536 15.3649 36.5944 15.4522 36.6662 15.5237C36.7667 15.5938 36.8779 15.642 36.9939 15.6659Z" fill="url(#paint71_radial_12164_1817)"/>
<path d="M39.8684 13.9503C40.1197 13.8419 40.3248 13.6802 40.4593 13.4844C40.5938 13.2886 40.6518 13.0672 40.6265 12.8467C40.6271 12.7579 40.5997 12.6702 40.5467 12.5913C40.4496 12.5044 40.3227 12.4402 40.1805 12.4059C40.0383 12.3715 39.8864 12.3685 39.7421 12.3971C39.3794 12.4167 39.0271 12.4987 38.7114 12.6372C38.5513 12.7084 38.4142 12.8065 38.3106 12.9242C38.2069 13.0419 38.1393 13.1761 38.1129 13.3167C38.0894 13.4602 38.1257 13.6057 38.2165 13.7324C38.3073 13.859 38.4479 13.9603 38.6183 14.0218C38.7818 14.0603 38.9534 14.0741 39.1237 14.0627C39.379 14.0622 39.6318 14.024 39.8684 13.9503Z" fill="url(#paint72_radial_12164_1817)"/>
<path d="M25.9002 17.3169C27.5681 17.5152 29.2534 17.4823 30.9133 17.2192C32.5564 16.8217 34.1517 16.229 35.6687 15.4522C37.1773 14.7741 38.5996 13.8989 39.9024 12.8471L40.094 12.6865C40.7564 12.2069 41.2435 11.502 41.4744 10.689C41.2696 10.7696 41.0877 10.9042 40.946 11.0801C38.8273 13.2427 36.2604 14.8522 33.4495 15.7804C30.1113 16.8236 26.5859 17.0104 23.1658 16.3252C22.2725 16.1498 21.3902 15.9166 20.5239 15.6268C19.7104 15.3071 18.876 15.0504 18.0273 14.8585C17.4115 14.7279 16.7721 14.8189 16.2109 15.1169C17.9282 14.9842 19.5133 15.7525 21.1249 16.3462C22.6612 16.8981 24.2607 17.2293 25.8804 17.3309L25.9002 17.3169Z" fill="#C4684F"/>
</g>
<defs>
<linearGradient id="paint0_linear_12164_1817" x1="16287.9" y1="23232" x2="12738.7" y2="18294.7" gradientUnits="userSpaceOnUse">
<stop stop-color="white"/>
<stop offset="0.39" stop-color="#3D4C96"/>
<stop offset="0.86" stop-color="#2A4F90"/>
</linearGradient>
<radialGradient id="paint1_radial_12164_1817" cx="0" cy="0" r="1" gradientUnits="userSpaceOnUse" gradientTransform="translate(28.026 27.0556) scale(12.9586 13.2673)">
<stop stop-color="#FFB2BD"/>
<stop offset="0.36" stop-color="#FFAEB9"/>
<stop offset="0.77" stop-color="#FFA3AB"/>
<stop offset="1" stop-color="#FF9AA0"/>
</radialGradient>
<radialGradient id="paint2_radial_12164_1817" cx="0" cy="0" r="1" gradientUnits="userSpaceOnUse" gradientTransform="translate(14.5751 17.735) scale(1.23592 0.965703)">
<stop stop-color="#EFC5B5"/>
<stop offset="0.39" stop-color="#EFC5B5"/>
<stop offset="0.54" stop-color="#EEC2B1"/>
<stop offset="0.7" stop-color="#EBB8A4"/>
<stop offset="0.86" stop-color="#E7A78F"/>
<stop offset="1" stop-color="#E29477"/>
</radialGradient>
<radialGradient id="paint3_radial_12164_1817" cx="0" cy="0" r="1" gradientUnits="userSpaceOnUse" gradientTransform="translate(235.834 614.518) scale(4.48005 2.24622)">
<stop stop-color="#EFC5B5"/>
<stop offset="0.39" stop-color="#EFC5B5"/>
<stop offset="0.54" stop-color="#EEC2B1"/>
<stop offset="0.7" stop-color="#EBB8A4"/>
<stop offset="0.86" stop-color="#E7A78F"/>
<stop offset="1" stop-color="#E29477"/>
</radialGradient>
<radialGradient id="paint4_radial_12164_1817" cx="0" cy="0" r="1" gradientUnits="userSpaceOnUse" gradientTransform="translate(170.182 620.395) scale(3.43583 2.29689)">
<stop stop-color="#EFC5B5"/>
<stop offset="0.39" stop-color="#EFC5B5"/>
<stop offset="0.54" stop-color="#EEC2B1"/>
<stop offset="0.7" stop-color="#EBB8A4"/>
<stop offset="0.86" stop-color="#E7A78F"/>
<stop offset="1" stop-color="#E29477"/>
</radialGradient>
<radialGradient id="paint5_radial_12164_1817" cx="0" cy="0" r="1" gradientUnits="userSpaceOnUse" gradientTransform="translate(948.276 -4134.11) rotate(-172.8) scale(3.07557 2.108)">
<stop stop-color="#EFC5B5"/>
<stop offset="0.39" stop-color="#EFC5B5"/>
<stop offset="0.54" stop-color="#EEC2B1"/>
<stop offset="0.7" stop-color="#EBB8A4"/>
<stop offset="0.86" stop-color="#E7A78F"/>
<stop offset="1" stop-color="#E29477"/>
</radialGradient>
<radialGradient id="paint6_radial_12164_1817" cx="0" cy="0" r="1" gradientUnits="userSpaceOnUse" gradientTransform="translate(219.564 626.458) scale(5.22111 2.61778)">
<stop stop-color="#EFC5B5"/>
<stop offset="0.39" stop-color="#EFC5B5"/>
<stop offset="0.54" stop-color="#EEC2B1"/>
<stop offset="0.7" stop-color="#EBB8A4"/>
<stop offset="0.86" stop-color="#E7A78F"/>
<stop offset="1" stop-color="#E29477"/>
</radialGradient>
<radialGradient id="paint7_radial_12164_1817" cx="0" cy="0" r="1" gradientUnits="userSpaceOnUse" gradientTransform="translate(-1019.85 606.607) rotate(22.3719) scale(3.58161 3.49524)">
<stop stop-color="#EFC5B5"/>
<stop offset="0.39" stop-color="#EFC5B5"/>
<stop offset="0.54" stop-color="#EEC2B1"/>
<stop offset="0.7" stop-color="#EBB8A4"/>
<stop offset="0.86" stop-color="#E7A78F"/>
<stop offset="1" stop-color="#E29477"/>
</radialGradient>
<radialGradient id="paint8_radial_12164_1817" cx="0" cy="0" r="1" gradientUnits="userSpaceOnUse" gradientTransform="translate(177.602 939.697) scale(3.25898 3.268)">
<stop stop-color="#EFC5B5"/>
<stop offset="0.39" stop-color="#EFC5B5"/>
<stop offset="0.54" stop-color="#EEC2B1"/>
<stop offset="0.7" stop-color="#EBB8A4"/>
<stop offset="0.86" stop-color="#E7A78F"/>
<stop offset="1" stop-color="#E29477"/>
</radialGradient>
<radialGradient id="paint9_radial_12164_1817" cx="0" cy="0" r="1" gradientUnits="userSpaceOnUse" gradientTransform="translate(165.905 940.077) scale(4.09268 4.104)">
<stop stop-color="#EFC5B5"/>
<stop offset="0.39" stop-color="#EFC5B5"/>
<stop offset="0.54" stop-color="#EEC2B1"/>
<stop offset="0.7" stop-color="#EBB8A4"/>
<stop offset="0.86" stop-color="#E7A78F"/>
<stop offset="1" stop-color="#E29477"/>
</radialGradient>
<radialGradient id="paint10_radial_12164_1817" cx="0" cy="0" r="1" gradientUnits="userSpaceOnUse" gradientTransform="translate(219.665 951.375) scale(5.96217 4.484)">
<stop stop-color="#EFC5B5"/>
<stop offset="0.39" stop-color="#EFC5B5"/>
<stop offset="0.54" stop-color="#EEC2B1"/>
<stop offset="0.7" stop-color="#EBB8A4"/>
<stop offset="0.86" stop-color="#E7A78F"/>
<stop offset="1" stop-color="#E29477"/>
</radialGradient>
<radialGradient id="paint11_radial_12164_1817" cx="0" cy="0" r="1" gradientUnits="userSpaceOnUse" gradientTransform="translate(180.997 1578.3) scale(5.51922 4.33454)">
<stop stop-color="#EFC5B5"/>
<stop offset="0.39" stop-color="#EFC5B5"/>
<stop offset="0.54" stop-color="#EEC2B1"/>
<stop offset="0.7" stop-color="#EBB8A4"/>
<stop offset="0.86" stop-color="#E7A78F"/>
<stop offset="1" stop-color="#E29477"/>
</radialGradient>
<radialGradient id="paint12_radial_12164_1817" cx="0" cy="0" r="1" gradientUnits="userSpaceOnUse" gradientTransform="translate(275.077 962.826) scale(8.8001 5.29467)">
<stop stop-color="#EFC5B5"/>
<stop offset="0.39" stop-color="#EFC5B5"/>
<stop offset="0.54" stop-color="#EEC2B1"/>
<stop offset="0.7" stop-color="#EBB8A4"/>
<stop offset="0.86" stop-color="#E7A78F"/>
<stop offset="1" stop-color="#E29477"/>
</radialGradient>
<radialGradient id="paint13_radial_12164_1817" cx="0" cy="0" r="1" gradientUnits="userSpaceOnUse" gradientTransform="translate(236.946 960.968) scale(5.52427 4.15467)">
<stop stop-color="#EFC5B5"/>
<stop offset="0.39" stop-color="#EFC5B5"/>
<stop offset="0.54" stop-color="#EEC2B1"/>
<stop offset="0.7" stop-color="#EBB8A4"/>
<stop offset="0.86" stop-color="#E7A78F"/>
<stop offset="1" stop-color="#E29477"/>
</radialGradient>
<radialGradient id="paint14_radial_12164_1817" cx="0" cy="0" r="1" gradientUnits="userSpaceOnUse" gradientTransform="translate(247.826 971.101) scale(6.36638 4.788)">
<stop stop-color="#EFC5B5"/>
<stop offset="0.39" stop-color="#EFC5B5"/>
<stop offset="0.54" stop-color="#EEC2B1"/>
<stop offset="0.7" stop-color="#EBB8A4"/>
<stop offset="0.86" stop-color="#E7A78F"/>
<stop offset="1" stop-color="#E29477"/>
</radialGradient>
<radialGradient id="paint15_radial_12164_1817" cx="0" cy="0" r="1" gradientUnits="userSpaceOnUse" gradientTransform="translate(338.487 1605.59) scale(13.3391 11.1467)">
<stop stop-color="#EFC5B5"/>
<stop offset="0.39" stop-color="#EFC5B5"/>
<stop offset="0.54" stop-color="#EEC2B1"/>
<stop offset="0.7" stop-color="#EBB8A4"/>
<stop offset="0.86" stop-color="#E7A78F"/>
<stop offset="1" stop-color="#E29477"/>
</radialGradient>
<radialGradient id="paint16_radial_12164_1817" cx="0" cy="0" r="1" gradientUnits="userSpaceOnUse" gradientTransform="translate(199.775 975.492) scale(4.24426 4.256)">
<stop stop-color="#EFC5B5"/>
<stop offset="0.39" stop-color="#EFC5B5"/>
<stop offset="0.54" stop-color="#EEC2B1"/>
<stop offset="0.7" stop-color="#EBB8A4"/>
<stop offset="0.86" stop-color="#E7A78F"/>
<stop offset="1" stop-color="#E29477"/>
</radialGradient>
<radialGradient id="paint17_radial_12164_1817" cx="0" cy="0" r="1" gradientUnits="userSpaceOnUse" gradientTransform="translate(141.029 1628.73) scale(3.84004 9.62667)">
<stop stop-color="#EFC5B5"/>
<stop offset="0.39" stop-color="#EFC5B5"/>
<stop offset="0.54" stop-color="#EEC2B1"/>
<stop offset="0.7" stop-color="#EBB8A4"/>
<stop offset="0.86" stop-color="#E7A78F"/>
<stop offset="1" stop-color="#E29477"/>
</radialGradient>
<radialGradient id="paint18_radial_12164_1817" cx="0" cy="0" r="1" gradientUnits="userSpaceOnUse" gradientTransform="translate(361.528 1625.01) scale(12.3791 10.3444)">
<stop stop-color="#EFC5B5"/>
<stop offset="0.39" stop-color="#EFC5B5"/>
<stop offset="0.54" stop-color="#EEC2B1"/>
<stop offset="0.7" stop-color="#EBB8A4"/>
<stop offset="0.86" stop-color="#E7A78F"/>
<stop offset="1" stop-color="#E29477"/>
</radialGradient>
<radialGradient id="paint19_radial_12164_1817" cx="0" cy="0" r="1" gradientUnits="userSpaceOnUse" gradientTransform="translate(531.913 3999.41) scale(34.8383 59.888)">
<stop stop-color="#EFC5B5"/>
<stop offset="0.39" stop-color="#EFC5B5"/>
<stop offset="0.54" stop-color="#EEC2B1"/>
<stop offset="0.7" stop-color="#EBB8A4"/>
<stop offset="0.86" stop-color="#E7A78F"/>
<stop offset="1" stop-color="#E29477"/>
</radialGradient>
<radialGradient id="paint20_radial_12164_1817" cx="0" cy="0" r="1" gradientUnits="userSpaceOnUse" gradientTransform="translate(304.07 897.533) scale(4.01689 4.028)">
<stop stop-color="#EFC5B5"/>
<stop offset="0.39" stop-color="#EFC5B5"/>
<stop offset="0.54" stop-color="#EEC2B1"/>
<stop offset="0.7" stop-color="#EBB8A4"/>
<stop offset="0.86" stop-color="#E7A78F"/>
<stop offset="1" stop-color="#E29477"/>
</radialGradient>
<radialGradient id="paint21_radial_12164_1817" cx="0" cy="0" r="1" gradientUnits="userSpaceOnUse" gradientTransform="translate(295.97 608.911) scale(3.48635 2.33067)">
<stop stop-color="#EFC5B5"/>
<stop offset="0.39" stop-color="#EFC5B5"/>
<stop offset="0.54" stop-color="#EEC2B1"/>
<stop offset="0.7" stop-color="#EBB8A4"/>
<stop offset="0.86" stop-color="#E7A78F"/>
<stop offset="1" stop-color="#E29477"/>
</radialGradient>
<radialGradient id="paint22_radial_12164_1817" cx="0" cy="0" r="1" gradientUnits="userSpaceOnUse" gradientTransform="translate(393.073 907.405) scale(4.5811 3.44533)">
<stop stop-color="#EFC5B5"/>
<stop offset="0.39" stop-color="#EFC5B5"/>
<stop offset="0.54" stop-color="#EEC2B1"/>
<stop offset="0.7" stop-color="#EBB8A4"/>
<stop offset="0.86" stop-color="#E7A78F"/>
<stop offset="1" stop-color="#E29477"/>
</radialGradient>
<radialGradient id="paint23_radial_12164_1817" cx="0" cy="0" r="1" gradientUnits="userSpaceOnUse" gradientTransform="translate(295.919 915.807) scale(3.33477 3.344)">
<stop stop-color="#EFC5B5"/>
<stop offset="0.39" stop-color="#EFC5B5"/>
<stop offset="0.54" stop-color="#EEC2B1"/>
<stop offset="0.7" stop-color="#EBB8A4"/>
<stop offset="0.86" stop-color="#E7A78F"/>
<stop offset="1" stop-color="#E29477"/>
</radialGradient>
<radialGradient id="paint24_radial_12164_1817" cx="0" cy="0" r="1" gradientUnits="userSpaceOnUse" gradientTransform="translate(303.792 916.01) scale(3.76425 3.77467)">
<stop stop-color="#EFC5B5"/>
<stop offset="0.39" stop-color="#EFC5B5"/>
<stop offset="0.54" stop-color="#EEC2B1"/>
<stop offset="0.7" stop-color="#EBB8A4"/>
<stop offset="0.86" stop-color="#E7A78F"/>
<stop offset="1" stop-color="#E29477"/>
</radialGradient>
<radialGradient id="paint25_radial_12164_1817" cx="0" cy="0" r="1" gradientUnits="userSpaceOnUse" gradientTransform="translate(294.732 623.553) scale(3.18319 2.128)">
<stop stop-color="#EFC5B5"/>
<stop offset="0.39" stop-color="#EFC5B5"/>
<stop offset="0.54" stop-color="#EEC2B1"/>
<stop offset="0.7" stop-color="#EBB8A4"/>
<stop offset="0.86" stop-color="#E7A78F"/>
<stop offset="1" stop-color="#E29477"/>
</radialGradient>
<radialGradient id="paint26_radial_12164_1817" cx="0" cy="0" r="1" gradientUnits="userSpaceOnUse" gradientTransform="translate(304.02 927.131) scale(3.84004 3.85067)">
<stop stop-color="#EFC5B5"/>
<stop offset="0.39" stop-color="#EFC5B5"/>
<stop offset="0.54" stop-color="#EEC2B1"/>
<stop offset="0.7" stop-color="#EBB8A4"/>
<stop offset="0.86" stop-color="#E7A78F"/>
<stop offset="1" stop-color="#E29477"/>
</radialGradient>
<radialGradient id="paint27_radial_12164_1817" cx="0" cy="0" r="1" gradientUnits="userSpaceOnUse" gradientTransform="translate(211.362 935.584) scale(1.93686 2.91333)">
<stop stop-color="#EFC5B5"/>
<stop offset="0.39" stop-color="#EFC5B5"/>
<stop offset="0.54" stop-color="#EEC2B1"/>
<stop offset="0.7" stop-color="#EBB8A4"/>
<stop offset="0.86" stop-color="#E7A78F"/>
<stop offset="1" stop-color="#E29477"/>
</radialGradient>
<radialGradient id="paint28_radial_12164_1817" cx="0" cy="0" r="1" gradientUnits="userSpaceOnUse" gradientTransform="translate(306.833 1241.32) scale(4.57268 6.11378)">
<stop stop-color="#EFC5B5"/>
<stop offset="0.39" stop-color="#EFC5B5"/>
<stop offset="0.54" stop-color="#EEC2B1"/>
<stop offset="0.7" stop-color="#EBB8A4"/>
<stop offset="0.86" stop-color="#E7A78F"/>
<stop offset="1" stop-color="#E29477"/>
</radialGradient>
<radialGradient id="paint29_radial_12164_1817" cx="0" cy="0" r="1" gradientUnits="userSpaceOnUse" gradientTransform="translate(298.757 944.442) scale(3.51162 3.52133)">
<stop stop-color="#EFC5B5"/>
<stop offset="0.39" stop-color="#EFC5B5"/>
<stop offset="0.54" stop-color="#EEC2B1"/>
<stop offset="0.7" stop-color="#EBB8A4"/>
<stop offset="0.86" stop-color="#E7A78F"/>
<stop offset="1" stop-color="#E29477"/>
</radialGradient>
<radialGradient id="paint30_radial_12164_1817" cx="0" cy="0" r="1" gradientUnits="userSpaceOnUse" gradientTransform="translate(300.45 954.804) scale(3.63793 3.648)">
<stop stop-color="#EFC5B5"/>
<stop offset="0.39" stop-color="#EFC5B5"/>
<stop offset="0.54" stop-color="#EEC2B1"/>
<stop offset="0.7" stop-color="#EBB8A4"/>
<stop offset="0.86" stop-color="#E7A78F"/>
<stop offset="1" stop-color="#E29477"/>
</radialGradient>
<radialGradient id="paint31_radial_12164_1817" cx="0" cy="0" r="1" gradientUnits="userSpaceOnUse" gradientTransform="translate(310.428 950.615) scale(3.63793 3.648)">
<stop stop-color="#EFC5B5"/>
<stop offset="0.39" stop-color="#EFC5B5"/>
<stop offset="0.54" stop-color="#EEC2B1"/>
<stop offset="0.7" stop-color="#EBB8A4"/>
<stop offset="0.86" stop-color="#E7A78F"/>
<stop offset="1" stop-color="#E29477"/>
</radialGradient>
<radialGradient id="paint32_radial_12164_1817" cx="0" cy="0" r="1" gradientUnits="userSpaceOnUse" gradientTransform="translate(299.388 962.775) scale(3.30951 3.31867)">
<stop stop-color="#EFC5B5"/>
<stop offset="0.39" stop-color="#EFC5B5"/>
<stop offset="0.54" stop-color="#EEC2B1"/>
<stop offset="0.7" stop-color="#EBB8A4"/>
<stop offset="0.86" stop-color="#E7A78F"/>
<stop offset="1" stop-color="#E29477"/>
</radialGradient>
<radialGradient id="paint33_radial_12164_1817" cx="0" cy="0" r="1" gradientUnits="userSpaceOnUse" gradientTransform="translate(310.782 962.674) scale(3.91583 3.92667)">
<stop stop-color="#EFC5B5"/>
<stop offset="0.39" stop-color="#EFC5B5"/>
<stop offset="0.54" stop-color="#EEC2B1"/>
<stop offset="0.7" stop-color="#EBB8A4"/>
<stop offset="0.86" stop-color="#E7A78F"/>
<stop offset="1" stop-color="#E29477"/>
</radialGradient>
<radialGradient id="paint34_radial_12164_1817" cx="0" cy="0" r="1" gradientUnits="userSpaceOnUse" gradientTransform="translate(298.529 971.456) scale(3.46109 3.47067)">
<stop stop-color="#EFC5B5"/>
<stop offset="0.39" stop-color="#EFC5B5"/>
<stop offset="0.54" stop-color="#EEC2B1"/>
<stop offset="0.7" stop-color="#EBB8A4"/>
<stop offset="0.86" stop-color="#E7A78F"/>
<stop offset="1" stop-color="#E29477"/>
</radialGradient>
<radialGradient id="paint35_radial_12164_1817" cx="0" cy="0" r="1" gradientUnits="userSpaceOnUse" gradientTransform="translate(307.414 1288.77) scale(4.21899 5.64089)">
<stop stop-color="#EFC5B5"/>
<stop offset="0.39" stop-color="#EFC5B5"/>
<stop offset="0.54" stop-color="#EEC2B1"/>
<stop offset="0.7" stop-color="#EBB8A4"/>
<stop offset="0.86" stop-color="#E7A78F"/>
<stop offset="1" stop-color="#E29477"/>
</radialGradient>
<radialGradient id="paint36_radial_12164_1817" cx="0" cy="0" r="1" gradientUnits="userSpaceOnUse" gradientTransform="translate(294.782 663.141) scale(3.23372 2.16178)">
<stop stop-color="#EFC5B5"/>
<stop offset="0.39" stop-color="#EFC5B5"/>
<stop offset="0.54" stop-color="#EEC2B1"/>
<stop offset="0.7" stop-color="#EBB8A4"/>
<stop offset="0.86" stop-color="#E7A78F"/>
<stop offset="1" stop-color="#E29477"/>
</radialGradient>
<radialGradient id="paint37_radial_12164_1817" cx="0" cy="0" r="1" gradientUnits="userSpaceOnUse" gradientTransform="translate(302.479 984.351) scale(4.34531 4.35734)">
<stop stop-color="#EFC5B5"/>
<stop offset="0.39" stop-color="#EFC5B5"/>
<stop offset="0.54" stop-color="#EEC2B1"/>
<stop offset="0.7" stop-color="#EBB8A4"/>
<stop offset="0.86" stop-color="#E7A78F"/>
<stop offset="1" stop-color="#E29477"/>
</radialGradient>
<radialGradient id="paint38_radial_12164_1817" cx="0" cy="0" r="1" gradientUnits="userSpaceOnUse" gradientTransform="translate(290.2 989.401) scale(3.99162 4.00267)">
<stop stop-color="#EFC5B5"/>
<stop offset="0.39" stop-color="#EFC5B5"/>
<stop offset="0.54" stop-color="#EEC2B1"/>
<stop offset="0.7" stop-color="#EBB8A4"/>
<stop offset="0.86" stop-color="#E7A78F"/>
<stop offset="1" stop-color="#E29477"/>
</radialGradient>
<radialGradient id="paint39_radial_12164_1817" cx="0" cy="0" r="1" gradientUnits="userSpaceOnUse" gradientTransform="translate(299.641 1314.17) scale(5.02742 6.72178)">
<stop stop-color="#EFC5B5"/>
<stop offset="0.39" stop-color="#EFC5B5"/>
<stop offset="0.54" stop-color="#EEC2B1"/>
<stop offset="0.7" stop-color="#EBB8A4"/>
<stop offset="0.86" stop-color="#E7A78F"/>
<stop offset="1" stop-color="#E29477"/>
</radialGradient>
<radialGradient id="paint40_radial_12164_1817" cx="0" cy="0" r="1" gradientUnits="userSpaceOnUse" gradientTransform="translate(368.45 1000.01) scale(5.52427 4.15467)">
<stop stop-color="#EFC5B5"/>
<stop offset="0.39" stop-color="#EFC5B5"/>
<stop offset="0.54" stop-color="#EEC2B1"/>
<stop offset="0.7" stop-color="#EBB8A4"/>
<stop offset="0.86" stop-color="#E7A78F"/>
<stop offset="1" stop-color="#E29477"/>
</radialGradient>
<radialGradient id="paint41_radial_12164_1817" cx="0" cy="0" r="1" gradientUnits="userSpaceOnUse" gradientTransform="translate(294.707 1329.95) scale(4.77479 6.384)">
<stop stop-color="#EFC5B5"/>
<stop offset="0.39" stop-color="#EFC5B5"/>
<stop offset="0.54" stop-color="#EEC2B1"/>
<stop offset="0.7" stop-color="#EBB8A4"/>
<stop offset="0.86" stop-color="#E7A78F"/>
<stop offset="1" stop-color="#E29477"/>
</radialGradient>
<radialGradient id="paint42_radial_12164_1817" cx="0" cy="0" r="1" gradientUnits="userSpaceOnUse" gradientTransform="translate(279.262 683.695) scale(3.56214 2.38133)">
<stop stop-color="#EFC5B5"/>
<stop offset="0.39" stop-color="#EFC5B5"/>
<stop offset="0.54" stop-color="#EEC2B1"/>
<stop offset="0.7" stop-color="#EBB8A4"/>
<stop offset="0.86" stop-color="#E7A78F"/>
<stop offset="1" stop-color="#E29477"/>
</radialGradient>
<radialGradient id="paint43_radial_12164_1817" cx="0" cy="0" r="1" gradientUnits="userSpaceOnUse" gradientTransform="translate(446.362 1343.66) scale(9.26326 7.43112)">
<stop stop-color="#EFC5B5"/>
<stop offset="0.39" stop-color="#EFC5B5"/>
<stop offset="0.54" stop-color="#EEC2B1"/>
<stop offset="0.7" stop-color="#EBB8A4"/>
<stop offset="0.86" stop-color="#E7A78F"/>
<stop offset="1" stop-color="#E29477"/>
</radialGradient>
<radialGradient id="paint44_radial_12164_1817" cx="0" cy="0" r="1" gradientUnits="userSpaceOnUse" gradientTransform="translate(164.134 1123.94) scale(3.84181 3.6442)">
<stop stop-color="#EFC5B5"/>
<stop offset="0.39" stop-color="#EFC5B5"/>
<stop offset="0.54" stop-color="#EEC2B1"/>
<stop offset="0.7" stop-color="#EBB8A4"/>
<stop offset="0.86" stop-color="#E7A78F"/>
<stop offset="1" stop-color="#E29477"/>
</radialGradient>
<radialGradient id="paint45_radial_12164_1817" cx="0" cy="0" r="1" gradientUnits="userSpaceOnUse" gradientTransform="translate(425.688 1348.83) scale(8.58957 6.89067)">
<stop stop-color="#EFC5B5"/>
<stop offset="0.39" stop-color="#EFC5B5"/>
<stop offset="0.54" stop-color="#EEC2B1"/>
<stop offset="0.7" stop-color="#EBB8A4"/>
<stop offset="0.86" stop-color="#E7A78F"/>
<stop offset="1" stop-color="#E29477"/>
</radialGradient>
<radialGradient id="paint46_radial_12164_1817" cx="0" cy="0" r="1" gradientUnits="userSpaceOnUse" gradientTransform="translate(62.4117 1490.48) scale(6.17304 4.48654)">
<stop stop-color="#EFC5B5"/>
<stop offset="0.39" stop-color="#EFC5B5"/>
<stop offset="0.54" stop-color="#EEC2B1"/>
<stop offset="0.7" stop-color="#EBB8A4"/>
<stop offset="0.86" stop-color="#E7A78F"/>
<stop offset="1" stop-color="#E29477"/>
</radialGradient>
<radialGradient id="paint47_radial_12164_1817" cx="0" cy="0" r="1" gradientUnits="userSpaceOnUse" gradientTransform="translate(402.573 1338.22) scale(9.01062 7.22845)">
<stop stop-color="#EFC5B5"/>
<stop offset="0.39" stop-color="#EFC5B5"/>
<stop offset="0.54" stop-color="#EEC2B1"/>
<stop offset="0.7" stop-color="#EBB8A4"/>
<stop offset="0.86" stop-color="#E7A78F"/>
<stop offset="1" stop-color="#E29477"/>
</radialGradient>
<radialGradient id="paint48_radial_12164_1817" cx="0" cy="0" r="1" gradientUnits="userSpaceOnUse" gradientTransform="translate(307.515 886.133) scale(4.09268 4.104)">
<stop stop-color="#EFC5B5"/>
<stop offset="0.39" stop-color="#EFC5B5"/>
<stop offset="0.54" stop-color="#EEC2B1"/>
<stop offset="0.7" stop-color="#EBB8A4"/>
<stop offset="0.86" stop-color="#E7A78F"/>
<stop offset="1" stop-color="#E29477"/>
</radialGradient>
<radialGradient id="paint49_radial_12164_1817" cx="0" cy="0" r="1" gradientUnits="userSpaceOnUse" gradientTransform="translate(129.054 602.02) scale(1.76844 1.77333)">
<stop stop-color="#EFC5B5"/>
<stop offset="0.39" stop-color="#EFC5B5"/>
<stop offset="0.54" stop-color="#EEC2B1"/>
<stop offset="0.7" stop-color="#EBB8A4"/>
<stop offset="0.86" stop-color="#E7A78F"/>
<stop offset="1" stop-color="#E29477"/>
</radialGradient>
<radialGradient id="paint50_radial_12164_1817" cx="0" cy="0" r="1" gradientUnits="userSpaceOnUse" gradientTransform="translate(135.538 602.054) scale(1.76844 1.77333)">
<stop stop-color="#EFC5B5"/>
<stop offset="0.39" stop-color="#EFC5B5"/>
<stop offset="0.54" stop-color="#EEC2B1"/>
<stop offset="0.7" stop-color="#EBB8A4"/>
<stop offset="0.86" stop-color="#E7A78F"/>
<stop offset="1" stop-color="#E29477"/>
</radialGradient>
<radialGradient id="paint51_radial_12164_1817" cx="0" cy="0" r="1" gradientUnits="userSpaceOnUse" gradientTransform="translate(204.71 898.977) scale(3.3853 3.39467)">
<stop stop-color="#EFC5B5"/>
<stop offset="0.39" stop-color="#EFC5B5"/>
<stop offset="0.54" stop-color="#EEC2B1"/>
<stop offset="0.7" stop-color="#EBB8A4"/>
<stop offset="0.86" stop-color="#E7A78F"/>
<stop offset="1" stop-color="#E29477"/>
</radialGradient>
<radialGradient id="paint52_radial_12164_1817" cx="0" cy="0" r="1" gradientUnits="userSpaceOnUse" gradientTransform="translate(215.674 606.495) scale(2.77898 1.85778)">
<stop stop-color="#EFC5B5"/>
<stop offset="0.39" stop-color="#EFC5B5"/>
<stop offset="0.54" stop-color="#EEC2B1"/>
<stop offset="0.7" stop-color="#EBB8A4"/>
<stop offset="0.86" stop-color="#E7A78F"/>
<stop offset="1" stop-color="#E29477"/>
</radialGradient>
<radialGradient id="paint53_radial_12164_1817" cx="0" cy="0" r="1" gradientUnits="userSpaceOnUse" gradientTransform="translate(225.594 608.657) scale(3.20846 2.14489)">
<stop stop-color="#EFC5B5"/>
<stop offset="0.39" stop-color="#EFC5B5"/>
<stop offset="0.54" stop-color="#EEC2B1"/>
<stop offset="0.7" stop-color="#EBB8A4"/>
<stop offset="0.86" stop-color="#E7A78F"/>
<stop offset="1" stop-color="#E29477"/>
</radialGradient>
<radialGradient id="paint54_radial_12164_1817" cx="0" cy="0" r="1" gradientUnits="userSpaceOnUse" gradientTransform="translate(384.047 608.894) scale(6.82113 2.736)">
<stop stop-color="#EFC5B5"/>
<stop offset="0.39" stop-color="#EFC5B5"/>
<stop offset="0.54" stop-color="#EEC2B1"/>
<stop offset="0.7" stop-color="#EBB8A4"/>
<stop offset="0.86" stop-color="#E7A78F"/>
<stop offset="1" stop-color="#E29477"/>
</radialGradient>
<radialGradient id="paint55_radial_12164_1817" cx="0" cy="0" r="1" gradientUnits="userSpaceOnUse" gradientTransform="translate(253.594 608.522) scale(2.8295 1.89156)">
<stop stop-color="#EFC5B5"/>
<stop offset="0.39" stop-color="#EFC5B5"/>
<stop offset="0.54" stop-color="#EEC2B1"/>
<stop offset="0.7" stop-color="#EBB8A4"/>
<stop offset="0.86" stop-color="#E7A78F"/>
<stop offset="1" stop-color="#E29477"/>
</radialGradient>
<radialGradient id="paint56_radial_12164_1817" cx="0" cy="0" r="1" gradientUnits="userSpaceOnUse" gradientTransform="translate(265.948 605.887) scale(3.23372 2.16178)">
<stop stop-color="#EFC5B5"/>
<stop offset="0.39" stop-color="#EFC5B5"/>
<stop offset="0.54" stop-color="#EEC2B1"/>
<stop offset="0.7" stop-color="#EBB8A4"/>
<stop offset="0.86" stop-color="#E7A78F"/>
<stop offset="1" stop-color="#E29477"/>
</radialGradient>
<radialGradient id="paint57_radial_12164_1817" cx="0" cy="0" r="1" gradientUnits="userSpaceOnUse" gradientTransform="translate(196.221 602.847) scale(1.6337 1.63822)">
<stop stop-color="#EFC5B5"/>
<stop offset="0.39" stop-color="#EFC5B5"/>
<stop offset="0.54" stop-color="#EEC2B1"/>
<stop offset="0.7" stop-color="#EBB8A4"/>
<stop offset="0.86" stop-color="#E7A78F"/>
<stop offset="1" stop-color="#E29477"/>
</radialGradient>
<radialGradient id="paint58_radial_12164_1817" cx="0" cy="0" r="1" gradientUnits="userSpaceOnUse" gradientTransform="translate(202.452 599.588) scale(1.81897 1.824)">
<stop stop-color="#EFC5B5"/>
<stop offset="0.39" stop-color="#EFC5B5"/>
<stop offset="0.54" stop-color="#EEC2B1"/>
<stop offset="0.7" stop-color="#EBB8A4"/>
<stop offset="0.86" stop-color="#E7A78F"/>
<stop offset="1" stop-color="#E29477"/>
</radialGradient>
<radialGradient id="paint59_radial_12164_1817" cx="0" cy="0" r="1" gradientUnits="userSpaceOnUse" gradientTransform="translate(207.758 595.822) scale(1.71791 1.72267)">
<stop stop-color="#EFC5B5"/>
<stop offset="0.39" stop-color="#EFC5B5"/>
<stop offset="0.54" stop-color="#EEC2B1"/>
<stop offset="0.7" stop-color="#EBB8A4"/>
<stop offset="0.86" stop-color="#E7A78F"/>
<stop offset="1" stop-color="#E29477"/>
</radialGradient>
<radialGradient id="paint60_radial_12164_1817" cx="0" cy="0" r="1" gradientUnits="userSpaceOnUse" gradientTransform="translate(299.843 590.839) scale(2.88003 1.92533)">
<stop stop-color="#EFC5B5"/>
<stop offset="0.39" stop-color="#EFC5B5"/>
<stop offset="0.54" stop-color="#EEC2B1"/>
<stop offset="0.7" stop-color="#EBB8A4"/>
<stop offset="0.86" stop-color="#E7A78F"/>
<stop offset="1" stop-color="#E29477"/>
</radialGradient>
<radialGradient id="paint61_radial_12164_1817" cx="0" cy="0" r="1" gradientUnits="userSpaceOnUse" gradientTransform="translate(307.818 587.107) scale(3.41056 2.28)">
<stop stop-color="#EFC5B5"/>
<stop offset="0.39" stop-color="#EFC5B5"/>
<stop offset="0.54" stop-color="#EEC2B1"/>
<stop offset="0.7" stop-color="#EBB8A4"/>
<stop offset="0.86" stop-color="#E7A78F"/>
<stop offset="1" stop-color="#E29477"/>
</radialGradient>
<radialGradient id="paint62_radial_12164_1817" cx="0" cy="0" r="1" gradientUnits="userSpaceOnUse" gradientTransform="translate(180.002 902.355) scale(3.43583 3.44533)">
<stop stop-color="#EFC5B5"/>
<stop offset="0.39" stop-color="#EFC5B5"/>
<stop offset="0.54" stop-color="#EEC2B1"/>
<stop offset="0.7" stop-color="#EBB8A4"/>
<stop offset="0.86" stop-color="#E7A78F"/>
<stop offset="1" stop-color="#E29477"/>
</radialGradient>
<radialGradient id="paint63_radial_12164_1817" cx="0" cy="0" r="1" gradientUnits="userSpaceOnUse" gradientTransform="translate(187.901 904.078) scale(3.61267 3.62267)">
<stop stop-color="#EFC5B5"/>
<stop offset="0.39" stop-color="#EFC5B5"/>
<stop offset="0.54" stop-color="#EEC2B1"/>
<stop offset="0.7" stop-color="#EBB8A4"/>
<stop offset="0.86" stop-color="#E7A78F"/>
<stop offset="1" stop-color="#E29477"/>
</radialGradient>
<radialGradient id="paint64_radial_12164_1817" cx="0" cy="0" r="1" gradientUnits="userSpaceOnUse" gradientTransform="translate(256.819 907.836) scale(5.32216 4.00267)">
<stop stop-color="#EFC5B5"/>
<stop offset="0.39" stop-color="#EFC5B5"/>
<stop offset="0.54" stop-color="#EEC2B1"/>
<stop offset="0.7" stop-color="#EBB8A4"/>
<stop offset="0.86" stop-color="#E7A78F"/>
<stop offset="1" stop-color="#E29477"/>
</radialGradient>
<radialGradient id="paint65_radial_12164_1817" cx="0" cy="0" r="1" gradientUnits="userSpaceOnUse" gradientTransform="translate(273.695 911.391) scale(5.62532 4.23067)">
<stop stop-color="#EFC5B5"/>
<stop offset="0.39" stop-color="#EFC5B5"/>
<stop offset="0.54" stop-color="#EEC2B1"/>
<stop offset="0.7" stop-color="#EBB8A4"/>
<stop offset="0.86" stop-color="#E7A78F"/>
<stop offset="1" stop-color="#E29477"/>
</radialGradient>
<radialGradient id="paint66_radial_12164_1817" cx="0" cy="0" r="1" gradientUnits="userSpaceOnUse" gradientTransform="translate(224.811 913.476) scale(4.1432 4.15467)">
<stop stop-color="#EFC5B5"/>
<stop offset="0.39" stop-color="#EFC5B5"/>
<stop offset="0.54" stop-color="#EEC2B1"/>
<stop offset="0.7" stop-color="#EBB8A4"/>
<stop offset="0.86" stop-color="#E7A78F"/>
<stop offset="1" stop-color="#E29477"/>
</radialGradient>
<radialGradient id="paint67_radial_12164_1817" cx="0" cy="0" r="1" gradientUnits="userSpaceOnUse" gradientTransform="translate(311.052 914.566) scale(5.79375 4.35734)">
<stop stop-color="#EFC5B5"/>
<stop offset="0.39" stop-color="#EFC5B5"/>
<stop offset="0.54" stop-color="#EEC2B1"/>
<stop offset="0.7" stop-color="#EBB8A4"/>
<stop offset="0.86" stop-color="#E7A78F"/>
<stop offset="1" stop-color="#E29477"/>
</radialGradient>
<radialGradient id="paint68_radial_12164_1817" cx="0" cy="0" r="1" gradientUnits="userSpaceOnUse" gradientTransform="translate(329.746 614.501) scale(5.12006 2.56711)">
<stop stop-color="#EFC5B5"/>
<stop offset="0.39" stop-color="#EFC5B5"/>
<stop offset="0.54" stop-color="#EEC2B1"/>
<stop offset="0.7" stop-color="#EBB8A4"/>
<stop offset="0.86" stop-color="#E7A78F"/>
<stop offset="1" stop-color="#E29477"/>
</radialGradient>
<radialGradient id="paint69_radial_12164_1817" cx="0" cy="0" r="1" gradientUnits="userSpaceOnUse" gradientTransform="translate(267.464 611.799) scale(3.3853 2.26311)">
<stop stop-color="#EFC5B5"/>
<stop offset="0.39" stop-color="#EFC5B5"/>
<stop offset="0.54" stop-color="#EEC2B1"/>
<stop offset="0.7" stop-color="#EBB8A4"/>
<stop offset="0.86" stop-color="#E7A78F"/>
<stop offset="1" stop-color="#E29477"/>
</radialGradient>
<radialGradient id="paint70_radial_12164_1817" cx="0" cy="0" r="1" gradientUnits="userSpaceOnUse" gradientTransform="translate(279.11 607.999) scale(3.20846 2.14489)">
<stop stop-color="#EFC5B5"/>
<stop offset="0.39" stop-color="#EFC5B5"/>
<stop offset="0.54" stop-color="#EEC2B1"/>
<stop offset="0.7" stop-color="#EBB8A4"/>
<stop offset="0.86" stop-color="#E7A78F"/>
<stop offset="1" stop-color="#E29477"/>
</radialGradient>
<radialGradient id="paint71_radial_12164_1817" cx="0" cy="0" r="1" gradientUnits="userSpaceOnUse" gradientTransform="translate(287.287 898.977) scale(2.75371 2.76133)">
<stop stop-color="#EFC5B5"/>
<stop offset="0.39" stop-color="#EFC5B5"/>
<stop offset="0.54" stop-color="#EEC2B1"/>
<stop offset="0.7" stop-color="#EBB8A4"/>
<stop offset="0.86" stop-color="#E7A78F"/>
<stop offset="1" stop-color="#E29477"/>
</radialGradient>
<radialGradient id="paint72_radial_12164_1817" cx="0" cy="0" r="1" gradientUnits="userSpaceOnUse" gradientTransform="translate(295.54 600.044) scale(3.25898 2.17867)">
<stop stop-color="#EFC5B5"/>
<stop offset="0.39" stop-color="#EFC5B5"/>
<stop offset="0.54" stop-color="#EEC2B1"/>
<stop offset="0.7" stop-color="#EBB8A4"/>
<stop offset="0.86" stop-color="#E7A78F"/>
<stop offset="1" stop-color="#E29477"/>
</radialGradient>
<clipPath id="clip0_12164_1817">
<rect width="56" height="56" rx="28" fill="white"/>
</clipPath>
</defs>
</svg>
