<svg width="56" height="56" viewBox="0 0 56 56" fill="none" xmlns="http://www.w3.org/2000/svg">
<g clip-path="url(#clip0_12164_2232)">
<rect width="56" height="56" rx="28" fill="#54D1FF"/>
<g clip-path="url(#clip1_12164_2232)">
<path d="M14.2198 27.6454C14.1688 27.3845 14.0875 27.131 13.9776 26.8905C13.8643 26.7353 13.2666 26.8531 12.4577 25.9537C11.6487 25.0543 10.9892 24.1282 10.4534 23.7748C9.91753 23.4215 9.88661 23.2662 10.2009 23.202C10.4085 23.1958 10.6151 23.2344 10.8076 23.3155C11 23.3966 11.1742 23.5184 11.319 23.6731C11.7466 24.0211 12.3495 24.8027 12.6122 24.701C12.359 24.3689 12.0853 24.0542 11.793 23.7587C11.4726 23.3445 11.1848 22.9041 10.9326 22.4418C10.7419 22.1955 11.118 21.869 11.556 22.3026C11.994 22.7362 12.2361 23.1377 12.4577 23.2769C12.6792 23.4161 13.2924 24.0746 13.4882 24.1121C13.3057 23.7234 13.0956 23.3494 12.8596 22.9932C12.5893 22.5632 12.3582 22.108 12.1691 21.6334C12.0558 21.3711 12.3443 21.0981 12.808 21.6602C13.061 21.9875 13.2917 22.3327 13.4985 22.6934C13.6015 22.7951 14.2146 23.4857 14.3022 23.6142C14.2275 23.3321 14.1363 23.055 14.0292 22.7844C13.9004 22.506 13.7252 22.051 13.6221 21.8154C13.5191 21.5799 13.5861 21.1516 14.091 21.5692C14.4077 21.8731 14.6664 22.2364 14.8535 22.6399C15.0845 22.9108 15.2914 23.2029 15.4718 23.5125C15.5768 23.7433 15.7218 23.952 15.8995 24.1281C15.9352 23.8625 16.0344 23.6103 16.188 23.3947C16.3993 23.1752 16.8372 22.9932 17.0021 23.2395C17.167 23.4857 16.6363 23.9193 16.5384 24.4119C16.4405 24.9044 16.5384 25.1292 16.425 25.5093C16.3791 25.6473 16.3065 25.774 16.2117 25.8817C16.1169 25.9894 16.0019 26.0759 15.8737 26.1357C15.9253 26.3589 16.0143 26.5709 16.1365 26.7621C16.1365 26.7621 15.8737 27.6722 14.2198 27.6454Z" fill="#FDC088"/>
<g style="mix-blend-mode:multiply" opacity="0.6">
<path d="M15.7192 25.6701C15.5448 25.6796 15.3702 25.656 15.2039 25.6005C14.8742 25.5309 14.7299 25.7022 14.4775 25.8575C14.3423 25.9343 14.193 25.9806 14.0394 25.9935C13.8859 26.0065 13.7314 25.9856 13.5861 25.9324C13.4453 25.9079 13.314 25.8432 13.2067 25.7454C13.0994 25.6477 13.0204 25.5208 12.9787 25.379C12.937 25.2372 12.9341 25.0862 12.9704 24.9428C13.0067 24.7994 13.0807 24.6694 13.1842 24.5673C13.5547 24.2211 13.9947 23.9651 14.4723 23.8178C14.7351 23.7482 15.714 23.6036 15.5028 24.1765C15.4318 24.3356 15.3473 24.4879 15.2503 24.6315C15.1875 24.7397 15.1605 24.8664 15.1735 24.9921C15.1865 25.1178 15.2389 25.2356 15.3224 25.3275C15.2039 24.7921 15.6419 24.4709 16.0283 24.1925C15.967 23.9538 15.987 23.7003 16.085 23.4751C15.971 23.6758 15.8958 23.8977 15.8635 24.1283C15.6857 23.9521 15.5407 23.7434 15.4358 23.5126C15.4358 23.4698 15.3843 23.4216 15.3585 23.3734C15.3328 23.3253 15.3585 23.4002 15.3585 23.4109C15.2642 23.5059 15.1457 23.571 15.017 23.5985C14.8884 23.626 14.7548 23.6148 14.632 23.5662C14.5036 23.4561 14.4028 23.3153 14.3382 23.1558C14.2736 22.9964 14.2471 22.8231 14.2611 22.6507C13.9983 22.5062 14.024 22.292 13.8592 21.9815C13.7561 21.8049 13.6531 21.5532 13.7407 21.398C13.55 21.398 13.5397 21.6496 13.6067 21.8156C13.6737 21.9815 13.8849 22.5062 14.0137 22.7846C14.1209 23.0551 14.2121 23.3322 14.2868 23.6143C14.2622 23.578 14.2347 23.544 14.2044 23.5126C14.2036 23.5789 14.1813 23.643 14.1411 23.6945C14.1009 23.746 14.0451 23.7819 13.9828 23.7964C13.8856 23.846 13.7739 23.856 13.6699 23.8243C13.5659 23.7926 13.4772 23.7215 13.4212 23.625C13.3336 23.4805 13.009 22.9933 13.0451 22.8863C12.8081 22.7953 12.705 22.3509 12.4835 22.0029C12.3542 21.8389 12.2785 21.6364 12.2671 21.4248C12.2611 21.3947 12.2611 21.3638 12.2671 21.3337C12.2372 21.3408 12.2095 21.3552 12.1861 21.3757C12.1628 21.3962 12.1445 21.4223 12.1329 21.4517C12.1213 21.4811 12.1166 21.5129 12.1193 21.5446C12.1221 21.5762 12.1321 21.6068 12.1486 21.6336C12.3376 22.1081 12.5687 22.5633 12.839 22.9933C13.075 23.3495 13.2852 23.7235 13.4676 24.1122C13.3747 24.0752 13.2891 24.0207 13.2151 23.9516C13.2357 24.0086 13.2357 24.0713 13.2151 24.1283C13.1584 24.3049 12.8441 24.3853 12.6999 24.3264C12.488 24.2132 12.3018 24.0544 12.1537 23.8606C12.0442 23.766 11.9725 23.6324 11.9528 23.4859H11.8961C11.5251 23.2985 11.3396 22.8113 11.1129 22.4794C11.0328 22.3844 10.9809 22.2672 10.9635 22.1421C10.9396 22.1572 10.9193 22.1777 10.9041 22.2021C10.8889 22.2265 10.8792 22.2541 10.8757 22.283C10.8722 22.3118 10.8751 22.3411 10.884 22.3686C10.893 22.3961 10.9078 22.4212 10.9274 22.4419C11.1797 22.9042 11.4675 23.3446 11.7879 23.7589C12.0802 24.0543 12.3538 24.369 12.6071 24.7011H12.5659C12.5144 25.5095 11.4633 24.4388 11.319 24.3049L10.675 23.7321C10.4946 23.5769 10.2267 23.4751 10.0618 23.3092L10.0258 23.2557C9.92786 23.3467 10.0258 23.4966 10.4483 23.7642C10.9635 24.1176 11.6539 25.0437 12.4525 25.9431C13.2512 26.8425 13.8592 26.7247 13.9725 26.88C14.0824 27.1205 14.1637 27.3739 14.2147 27.6348C15.8686 27.6616 16.1211 26.7515 16.1211 26.7515C15.9989 26.5603 15.9099 26.3483 15.8583 26.1251C15.9864 26.0653 16.1014 25.9789 16.1962 25.8711C16.2911 25.7634 16.3637 25.6367 16.4096 25.4988C16.4584 25.3251 16.4793 25.1442 16.4714 24.9634C16.4256 25.1444 16.3301 25.3076 16.1965 25.4331C16.0629 25.5585 15.8971 25.6409 15.7192 25.6701Z" fill="#D9AE91"/>
</g>
<g style="mix-blend-mode:multiply" opacity="0.6">
<path d="M15.4667 26.714C15.1576 26.7996 14.6938 27.0619 14.3795 26.912C14.0653 26.7621 14.4929 26.5319 14.6063 26.4623C14.772 26.3209 14.9713 26.2285 15.1833 26.1947C15.4107 26.1916 15.6378 26.1755 15.8635 26.1465C16.0894 26.0349 16.2713 25.8459 16.3787 25.6111C16.3349 25.6603 16.2885 25.7067 16.2396 25.7503C15.8583 26.0769 15.4049 25.9484 14.9566 25.9323C14.8075 26.1259 14.6132 26.2766 14.3923 26.3703C14.1714 26.464 13.9311 26.4975 13.6943 26.4677C13.448 26.4413 13.216 26.335 13.031 26.164C12.8461 25.993 12.7176 25.7659 12.6638 25.5148C12.6783 25.2319 12.7665 24.9585 12.919 24.7237C13.0714 24.489 13.2824 24.3016 13.5294 24.1817C13.8901 23.9256 14.2839 23.7238 14.699 23.5822H14.6578C14.5479 23.6128 14.4409 23.654 14.3383 23.7053C13.9632 23.8623 13.5968 24.041 13.2409 24.2406C13.0115 24.3728 12.8128 24.5556 12.6586 24.776C12.6042 24.8857 12.5348 24.9867 12.4525 25.0758C12.3392 25.1775 12.164 25.3167 12.0507 25.1882C10.6131 23.6464 10.1597 23.5018 9.98969 23.3948C10.1126 23.5448 10.2611 23.67 10.4276 23.7642C10.9429 24.1175 11.6333 25.0437 12.4319 25.943C13.2306 26.8424 13.8385 26.7247 13.9519 26.8799C14.0618 27.1204 14.1431 27.3739 14.1941 27.6348C15.848 27.6615 16.1005 26.7514 16.1005 26.7514C16.0522 26.6847 16.0107 26.613 15.9768 26.5373L15.4667 26.714Z" fill="#D9AE91"/>
</g>
<path d="M43.9545 42.1482C43.3036 42.1279 42.6527 42.1927 42.0172 42.3409C41.9477 42.271 41.8652 42.2166 41.7746 42.1812C41.684 42.1458 41.5874 42.1301 41.4908 42.1351C41.3942 42.1402 41.2996 42.1658 41.2128 42.2104C41.1261 42.255 41.0492 42.3176 40.9867 42.3945C40.6118 42.0194 40.2672 41.6129 39.9563 41.1792C39.5533 41.5561 39.0982 41.8683 38.6063 42.1054C39.1216 42.8388 39.5183 43.3045 39.5389 43.326C39.5595 43.3474 39.2452 43.8185 39.4359 44.4877C39.6265 45.1568 40.8992 45.2211 41.0692 45.2907C41.3752 45.6217 41.5811 46.0386 41.6617 46.4899C41.8111 47.0573 42.3315 47.3197 42.4706 46.8271C42.502 46.3358 42.4078 45.8445 42.1976 45.4031C42.5387 45.7302 42.8509 46.0885 43.1302 46.4738C43.5733 47.0841 44.1606 46.5006 43.8154 45.8421C43.5238 45.3524 43.1484 44.9224 42.7077 44.5733C43.1197 44.6088 43.5132 44.7668 43.8412 45.0284C44.2946 45.4352 44.949 46.0991 45.2323 45.6654C45.5157 45.2318 45.0726 44.5947 44.4183 44.22C43.9704 43.9766 43.5053 43.769 43.0271 43.599C43.4262 43.7132 43.8496 43.6945 44.2379 43.5455C44.4961 43.6142 44.7312 43.7549 44.918 43.9523C45.2787 44.2682 45.8043 44.5466 46.0001 44.0433C46.1959 43.5401 44.7532 42.2338 43.9545 42.1482Z" fill="#F5AE80"/>
<path d="M43.9545 42.1482C43.3036 42.1279 42.6527 42.1927 42.0172 42.3409C41.9477 42.271 41.8652 42.2166 41.7746 42.1812C41.684 42.1458 41.5874 42.1301 41.4908 42.1351C41.3942 42.1402 41.2996 42.1658 41.2128 42.2104C41.1261 42.255 41.0492 42.3176 40.9867 42.3945C40.6118 42.0194 40.2672 41.6129 39.9563 41.1792C39.5533 41.5561 39.0982 41.8683 38.6063 42.1054C39.1216 42.8388 39.5183 43.3045 39.5389 43.326C39.5595 43.3474 39.2452 43.8185 39.4359 44.4877C39.6265 45.1568 40.8992 45.2211 41.0692 45.2907C41.3752 45.6217 41.5811 46.0386 41.6617 46.4899C41.8111 47.0573 42.3315 47.3197 42.4706 46.8271C42.502 46.3358 42.4078 45.8445 42.1976 45.4031C42.5387 45.7302 42.8509 46.0885 43.1302 46.4738C43.5733 47.0841 44.1606 46.5006 43.8154 45.8421C43.5238 45.3524 43.1484 44.9224 42.7077 44.5733C43.1197 44.6088 43.5132 44.7668 43.8412 45.0284C44.2946 45.4352 44.949 46.0991 45.2323 45.6654C45.5157 45.2318 45.0726 44.5947 44.4183 44.22C43.9704 43.9766 43.5053 43.769 43.0271 43.599C43.4262 43.7132 43.8496 43.6945 44.2379 43.5455C44.4961 43.6142 44.7312 43.7549 44.918 43.9523C45.2787 44.2682 45.8043 44.5466 46.0001 44.0433C46.1959 43.5401 44.7532 42.2338 43.9545 42.1482Z" fill="#F5AE80"/>
<g style="mix-blend-mode:multiply">
<g style="mix-blend-mode:multiply">
<path d="M40.8115 42.2178C40.4957 41.8941 40.203 41.547 39.9356 41.1792C39.5326 41.5561 39.0776 41.8683 38.5857 42.1054C39.003 42.6835 39.3276 43.0904 39.4565 43.251C39.9961 43.0525 40.4674 42.6931 40.8115 42.2178Z" fill="#D9AE91"/>
</g>
</g>
<g style="mix-blend-mode:multiply" opacity="0.5">
<g style="mix-blend-mode:multiply" opacity="0.4">
<path d="M44.8612 42.7263C44.7698 42.6038 44.6373 42.5215 44.4902 42.4961C44.3497 42.4648 44.206 42.4522 44.0625 42.4586C43.774 42.4586 43.4958 42.4907 43.2278 42.5068C43.0939 42.5068 42.9651 42.5068 42.8466 42.5068C42.7335 42.5178 42.6196 42.5178 42.5065 42.5068H42.3571L42.2283 42.4639C42.1596 42.4377 42.0939 42.4036 42.0325 42.3622L41.8573 42.2659L42.0222 42.3836L42.218 42.4961L42.3468 42.5443L42.4962 42.5871C42.6096 42.5871 42.7229 42.5871 42.8466 42.5871C42.9753 42.5951 43.1043 42.5951 43.233 42.5871C43.4958 42.5871 43.7792 42.5871 44.0625 42.555C44.1993 42.5362 44.3379 42.5362 44.4747 42.555C44.5979 42.5758 44.7096 42.6424 44.789 42.7423C44.8663 42.8387 44.789 42.9725 44.7375 43.0689C44.6659 43.157 44.5846 43.236 44.4953 43.3044C44.3581 43.4082 44.2093 43.4945 44.0522 43.5614L43.8668 43.6203H43.9183L44.0574 43.5882C44.2242 43.5371 44.3824 43.4595 44.5263 43.358C44.6245 43.2933 44.713 43.2139 44.789 43.1224C44.8355 43.0689 44.869 43.0047 44.8869 42.9351C44.8948 42.898 44.8948 42.8597 44.8869 42.8226C44.8834 42.7893 44.8747 42.7567 44.8612 42.7263Z" fill="#A5693C"/>
</g>
<g style="mix-blend-mode:multiply" opacity="0.4">
<path d="M42.6662 43.3742L42.6198 43.342V43.4009C42.5743 43.5392 42.5082 43.6693 42.424 43.7864C42.3776 43.8417 42.3258 43.8919 42.2695 43.9363L42.187 43.9898L42.084 44.0273H41.9861H41.8779C41.8077 44.0351 41.7369 44.0351 41.6666 44.0273C41.522 44.002 41.3804 43.9607 41.2441 43.9042C41.3735 43.9816 41.512 44.0411 41.6563 44.0808C41.7292 44.0989 41.8033 44.1114 41.8779 44.1183H41.9912H42.1097C42.1468 44.1091 42.183 44.0965 42.2179 44.0808C42.2541 44.0626 42.2885 44.0411 42.321 44.0166C42.387 43.9748 42.4447 43.9203 42.491 43.856C42.578 43.7455 42.6428 43.6181 42.6817 43.4812C42.7638 43.5374 42.8543 43.579 42.9496 43.6044C42.9573 43.8017 42.9257 43.9985 42.8568 44.1825C42.8306 44.2501 42.7978 44.3146 42.7589 44.3753C42.7249 44.4329 42.6852 44.4868 42.6404 44.5359C42.612 44.5722 42.581 44.6062 42.5477 44.6376L42.5116 44.6804H42.558C42.5889 44.6536 42.6353 44.6376 42.6817 44.5948C42.7053 44.5748 42.7276 44.5534 42.7486 44.5305C42.7753 44.5064 42.7994 44.4795 42.8208 44.4502C42.8448 44.4176 42.8672 44.3836 42.8878 44.3485C42.907 44.3121 42.9242 44.2745 42.9393 44.2361C42.9937 44.0952 43.0132 43.9424 42.996 43.7917C42.9918 43.7371 42.9814 43.6832 42.965 43.6311L43.0784 43.6579C43.2309 43.6899 43.3869 43.7007 43.5421 43.69C43.3886 43.6775 43.2367 43.6488 43.0887 43.6044C42.9348 43.557 42.7912 43.4788 42.6662 43.3742Z" fill="#A5693C"/>
</g>
<g style="mix-blend-mode:multiply" opacity="0.4">
<path d="M41.0845 42.3035C41.0456 42.3165 41.0077 42.3326 40.9712 42.3516L40.8681 42.4159L40.7599 42.5123C40.7247 42.5434 40.692 42.5774 40.662 42.614C40.6362 42.6453 40.6138 42.6794 40.595 42.7157C40.5712 42.7493 40.5505 42.7851 40.5332 42.8228L40.6311 42.7478L40.7238 42.6675L40.8217 42.5765L41.0072 42.3998L41.0845 42.3035Z" fill="#A5693C"/>
</g>
</g>
<g style="mix-blend-mode:multiply" opacity="0.6">
<g style="mix-blend-mode:multiply" opacity="0.6">
<path d="M42.9085 42.5602C43.3104 42.5602 43.7226 42.4585 44.1245 42.4799H43.903C43.6196 42.4799 43.3259 42.4799 43.0425 42.4799C42.8673 42.4799 42.5273 42.4799 42.3933 42.2979C42.1666 42.3353 42.0172 42.3728 42.0172 42.3728L41.9502 42.3246C42.034 42.407 42.1343 42.4692 42.2439 42.5066C42.4624 42.5536 42.6857 42.5716 42.9085 42.5602Z" fill="#D9AE91"/>
</g>
</g>
<g style="mix-blend-mode:multiply" opacity="0.6">
<g style="mix-blend-mode:multiply" opacity="0.6">
<path d="M45.9021 44.0806C45.8061 44.1237 45.6989 44.1319 45.5979 44.1037C45.4968 44.0755 45.408 44.0127 45.3457 43.9254C45.1496 43.7605 44.9941 43.5494 44.8922 43.3097C44.8868 43.2912 44.8879 43.2712 44.8955 43.2535C44.9031 43.2358 44.9166 43.2215 44.9335 43.2133C45.0829 42.9939 44.9901 42.8332 44.8098 42.7155C44.8232 42.7572 44.8232 42.8023 44.8098 42.844C44.8129 42.8562 44.8129 42.8691 44.8098 42.8814C44.7634 43.2133 44.2173 43.3204 43.9648 43.3686C43.7437 43.4392 43.5083 43.4466 43.2835 43.3901C43.0587 43.3336 42.8526 43.2152 42.687 43.0474C42.4703 43.1534 42.2284 43.1912 41.9912 43.156C41.7541 43.1208 41.532 43.0141 41.3525 42.8493C41.2134 42.7208 41.0331 42.512 41.131 42.3139L41.1773 42.2283C41.0983 42.275 41.0284 42.3368 40.9712 42.4103C40.5963 42.0352 40.2517 41.6288 39.9408 41.1951C39.5378 41.572 39.0827 41.8842 38.5908 42.1212C39.1061 42.8547 39.5028 43.3204 39.5234 43.3418C39.544 43.3632 39.2297 43.8343 39.4204 44.5035C39.611 45.1727 40.8836 45.237 41.0537 45.3066C41.3596 45.6376 41.5656 46.0545 41.6462 46.5058C41.7956 47.0732 42.316 47.3355 42.4551 46.843C42.4865 46.3516 42.3923 45.8604 42.1821 45.419C42.5232 45.7461 42.8354 46.1044 43.1147 46.4897C43.3929 46.8698 43.7072 46.7841 43.836 46.4897C43.6247 46.6556 43.4702 46.3237 43.3671 46.1524C43.2211 45.9044 43.0482 45.6744 42.8519 45.4672C42.7488 45.3655 42.5839 45.2209 42.5582 45.0657C42.5118 44.8033 42.6819 44.7177 42.8776 44.7337C42.8157 44.6743 42.7503 44.6189 42.6818 44.5678C43.0939 44.6033 43.4874 44.7612 43.8154 45.0228C44.2688 45.4297 44.9232 46.0935 45.2065 45.6599C45.2261 45.6282 45.2417 45.594 45.2529 45.5582L45.1808 45.5956C44.9747 45.6545 44.7222 45.2691 44.6243 45.1353C44.4088 44.7785 44.0753 44.5158 43.6866 44.3965C43.4986 44.3515 43.3227 44.2637 43.1713 44.1395C42.9549 43.9521 43.1147 43.7112 43.4702 43.7701L43.0116 43.5934C43.4107 43.7076 43.8341 43.6889 44.2224 43.5399C44.4806 43.6087 44.7157 43.7493 44.9025 43.9468C45.2632 44.2626 45.7888 44.541 45.9846 44.0378C45.9846 44.0378 45.9846 44.011 45.9846 43.995C45.9644 44.0302 45.936 44.0596 45.9021 44.0806Z" fill="#D9AE91"/>
</g>
</g>
<g style="mix-blend-mode:multiply" opacity="0.6">
<g style="mix-blend-mode:multiply" opacity="0.6">
<path d="M43.2847 46.5862C42.991 46.2436 42.7952 45.826 42.486 45.5155C42.3572 45.3816 42.1254 45.1568 42.3057 44.9801C42.486 44.8035 42.5942 44.7874 42.7024 44.6054C42.7971 44.4429 42.8536 44.2595 42.8673 44.07C42.7377 44.3374 42.5477 44.5681 42.3135 44.7425C42.0793 44.9168 41.8079 45.0296 41.5225 45.0711C40.9558 45.1836 41.5225 45.039 41.9038 44.7446C42.2392 44.4768 42.4595 44.0825 42.517 43.6471C42.4609 43.7674 42.3806 43.8736 42.2813 43.9585C42.1821 44.0434 42.0663 44.1051 41.942 44.1391C41.8177 44.1732 41.6877 44.1789 41.5611 44.1559C41.4344 44.1329 41.314 44.0817 41.2082 44.0058C40.8888 43.8024 40.5127 43.5347 40.559 43.0957C40.571 42.9614 40.6097 42.8311 40.6727 42.7132C40.7357 42.5952 40.8215 42.4921 40.9249 42.4105C40.5534 42.0472 40.2089 41.6553 39.8944 41.238C39.4914 41.615 39.0364 41.9271 38.5444 42.1642C39.0597 42.8976 39.4564 43.3634 39.477 43.3848C39.4976 43.4062 39.1833 43.8773 39.374 44.5465C39.5646 45.2157 40.8373 45.2799 41.0073 45.3495C41.3133 45.6806 41.5192 46.0974 41.5998 46.5487C41.7338 47.0841 42.1769 47.325 42.3624 47.0038C42.2996 47.03 42.2294 47.03 42.1666 47.0038C42.0932 46.9627 42.0304 46.9037 41.9838 46.8319C41.9371 46.7601 41.9079 46.6776 41.8987 46.5915C41.8332 46.3259 41.7308 46.0716 41.5947 45.8367C41.5019 45.6654 41.2855 45.2157 41.6771 45.2692C42.0687 45.3228 42.1924 45.6011 42.2954 45.8956C42.213 45.6547 42.1357 45.4727 42.1357 45.4727C42.4769 45.7997 42.789 46.1581 43.0683 46.5434C43.1066 46.6094 43.1582 46.6661 43.2195 46.7095C43.2809 46.753 43.3506 46.7821 43.4238 46.795C43.362 46.738 43.3142 46.6664 43.2847 46.5862Z" fill="#D9AE91"/>
</g>
</g>
<path d="M21.6857 41.3291C21.6857 41.3291 26.0189 44.1075 31.4753 41.1685C32.3841 43.2066 33.0054 45.3703 33.3199 47.5927C33.9227 51.5061 34.3504 61.1263 35.0923 64.1029C34.7192 64.3463 34.296 64.4945 33.8572 64.5354C33.4184 64.5764 32.9765 64.5088 32.5676 64.3384C32.5676 64.3384 27.374 47.7854 26.3847 46.8914C26.3847 46.8914 24.6483 53.3423 25.5552 64.6917C24.4768 64.951 23.3451 64.8109 22.3555 64.2956C22.3555 64.2956 18.7128 47.432 21.6857 41.3291Z" fill="#17293B"/>
<g style="mix-blend-mode:multiply" opacity="0.3">
<path d="M34.4224 63.969C34.103 63.969 33.9845 63.3373 33.9072 63.1232C33.4579 61.5544 33.1136 59.9552 32.8767 58.3371C32.7428 57.5609 32.5985 56.7953 32.4078 56.0298C32.2173 55.4271 32.125 54.7956 32.1348 54.1614C32.1285 53.9464 32.1821 53.7341 32.289 53.5499C32.3959 53.3657 32.5517 53.2174 32.7376 53.1228C33.0918 52.9742 33.4687 52.8927 33.8505 52.8819C33.665 50.7887 33.4847 48.8775 33.2838 47.5873C32.9693 45.3649 32.348 43.2012 31.4392 41.1631C25.9828 44.1022 21.6496 41.3237 21.6496 41.3237C20.2893 44.1129 20.3151 49.1559 20.7479 53.8081C21.4383 53.9258 22.1442 53.9633 22.2936 54.8788C22.3521 55.3993 22.3641 55.9244 22.3297 56.4473C22.3126 57.1428 22.3419 57.8386 22.4173 58.5298C22.577 60.168 22.9325 61.7419 23.1592 63.3855C23.1592 63.5728 23.2571 63.9208 23.0665 64.0386C22.8759 64.1564 22.5513 64.0654 22.273 63.9529C22.3194 64.1724 22.3503 64.2956 22.3503 64.2956C23.3399 64.8109 24.4716 64.951 25.55 64.6917C24.6431 53.3423 26.3795 46.8913 26.3795 46.8913C27.3585 47.7854 32.5624 64.3384 32.5624 64.3384C32.9713 64.5088 33.4132 64.5763 33.852 64.5354C34.2908 64.4945 34.714 64.3462 35.0871 64.1028C35.0562 63.9851 35.0304 63.8673 35.0047 63.7334C34.8358 63.8673 34.634 63.949 34.4224 63.969Z" fill="#17293B"/>
</g>
<g style="mix-blend-mode:multiply" opacity="0.6">
<path d="M25.2047 43.8559C25.2511 43.6525 25.3542 43.5347 25.5396 43.5775C25.9113 43.6927 26.2958 43.7575 26.6835 43.7702C27.0596 43.7702 27.4203 43.7006 27.7913 43.6578C27.8458 43.6455 27.9028 43.6532 27.9526 43.6795C28.0024 43.7058 28.0418 43.7492 28.0643 43.8024C28.358 44.509 28.2601 45.3549 28.322 46.1044C28.3992 47.0734 28.4714 48.0477 28.5538 49.0113C28.6208 49.8304 28.6672 50.6495 28.7496 51.4632C28.8424 52.4108 29.2082 53.2941 30.2953 53.2031C31.5107 53.0615 32.7037 52.7593 33.8454 52.3037C33.6856 50.446 33.5156 48.7597 33.3301 47.5873C33.0156 45.3649 32.3944 43.2012 31.4855 41.1631C26.0291 44.1022 21.6959 41.3237 21.6959 41.3237C20.413 43.9576 20.3615 48.6044 20.7221 53.0264C21.0981 53.2073 21.4897 53.3507 21.8917 53.4547C22.4777 53.5892 23.0715 53.684 23.6693 53.7384C24.3134 53.7866 25.0965 53.701 25.3232 52.9461C25.4041 52.6501 25.444 52.3437 25.4418 52.036C25.3696 50.7351 25.3387 49.4182 25.2717 48.1119C25.2151 47.2661 25.0708 44.4073 25.2047 43.8559Z" fill="#17293B"/>
</g>
<g style="mix-blend-mode:multiply" opacity="0.5">
<path d="M22.5719 55.3712C22.474 52.3786 22.6286 49.3646 22.8089 46.3774C22.8089 46.3506 22.778 46.3452 22.778 46.3774C22.505 49.2735 22.3863 52.1831 22.4225 55.0929C22.4225 58.0426 22.9789 61.0085 23.453 63.9101H23.4942C23.2417 61.0406 22.644 58.2407 22.5719 55.3712Z" fill="#021626"/>
</g>
<g style="mix-blend-mode:multiply" opacity="0.5">
<path d="M33.1293 60.3768C32.8407 58.8832 32.5419 57.3949 32.2688 55.896C31.9957 54.397 31.6763 52.9462 31.362 51.5382C31.0477 50.1302 30.754 48.8026 30.3315 47.3785C30.3315 47.3464 30.2697 47.3785 30.28 47.3785C30.5943 48.7704 30.9137 50.0553 31.2074 51.474C31.5011 52.8926 31.8566 54.4237 32.1142 55.8799C32.3719 57.336 32.681 58.7654 32.9747 60.2055C33.1086 60.8747 33.222 61.5332 33.3611 62.197C33.5002 62.8608 33.7836 64.3973 33.7733 64.3384C33.5311 62.2559 33.2684 61.0728 33.1293 60.3768Z" fill="#021626"/>
</g>
<path d="M25.2614 27.3617L24.1175 28.6519C24.1175 28.6519 23.5147 34.5407 26.1527 34.4444C28.7908 34.348 29.203 30.7612 29.203 28.6519L28.3374 27.2439L25.2614 27.3617Z" fill="#FDC088"/>
<g style="mix-blend-mode:multiply">
<g style="mix-blend-mode:multiply">
<path d="M25.2614 27.3617L24.1175 28.6519C24.1175 28.6519 23.5147 34.5407 26.1527 34.4444C28.7908 34.348 29.203 30.7612 29.203 28.6519L28.3374 27.2439L25.2614 27.3617Z" fill="#D9AE91"/>
</g>
</g>
<path d="M24.8492 27.9827C24.8492 27.9827 25.5242 30.0598 26.431 29.8618C27.3378 29.6637 28.8011 28.063 28.8011 28.063C28.8011 28.063 29.6307 29.4335 29.7028 32.8811C29.7749 36.3288 30.2181 41.4467 30.2181 41.4467C30.2181 41.4467 26.3795 45.0068 22.4894 41.4092C22.5152 41.4092 22.1391 29.5138 24.8492 27.9827Z" fill="#60BFBB"/>
<g style="mix-blend-mode:multiply" opacity="0.5">
<path d="M25.0864 41.8536C25.0142 41.2754 25.0039 40.6865 24.9833 40.103C24.9421 38.8342 24.9009 37.5654 24.9266 36.2967C24.9524 35.0279 25.0194 33.7323 25.04 32.4475C25.04 31.425 25.174 30.1241 25.1946 29.3692C25.1946 29.3157 25.2719 29.2889 25.3182 29.3157C25.5965 29.487 25.8335 29.9474 26.1581 30.0009C26.7197 30.1026 27.3689 29.5138 27.7759 29.1765C27.8172 29.1444 28.0129 29.0212 28.0129 29.0801C28.0129 29.5245 28.0439 30.1187 28.0129 30.5738C27.9511 31.2376 27.9563 31.8961 27.9511 32.5599C27.9511 34.0857 27.8223 35.5954 27.8017 37.1211C27.7914 38.6766 27.8637 40.2314 28.0181 41.7786C28.0181 42.0784 28.0902 42.3729 28.1366 42.6727C28.9034 42.397 29.617 41.9819 30.2439 41.4467C30.2439 41.4467 29.7905 36.3181 29.7287 32.8811C29.6669 29.4442 28.827 28.063 28.827 28.063C28.827 28.063 27.3586 29.669 26.4569 29.8618C25.5552 30.0545 24.8751 27.9827 24.8751 27.9827C22.1649 29.5138 22.5411 41.4092 22.5411 41.4092C23.3055 42.1543 24.2487 42.6721 25.2719 42.9082C25.1997 42.5549 25.1482 42.2069 25.0864 41.8536Z" fill="#5FA2BB"/>
</g>
<path d="M22.5152 40.7775C22.5152 40.7775 26.3177 43.7915 31.1765 40.3867L31.4032 42.148C31.4032 42.148 25.9004 45.0817 22.3246 41.8375L22.5152 40.7775Z" fill="#4D2A11"/>
<g style="mix-blend-mode:multiply" opacity="0.4">
<path d="M31.1765 40.3867C26.3177 43.7915 22.5152 40.7775 22.5152 40.7775L22.3246 41.8482C25.9004 45.0924 31.4032 42.1587 31.4032 42.1587L31.1765 40.3867ZM28.0129 43.0635C27.8995 43.1705 27.678 43.1545 27.544 43.1652C27.2451 43.1652 26.9515 43.2134 26.6578 43.2241C26.177 43.2427 25.6959 43.1996 25.2254 43.0956C24.9472 43.026 24.7668 42.9457 24.7102 42.6298C24.6733 42.5317 24.6629 42.425 24.6802 42.3212C24.6975 42.2174 24.7417 42.1205 24.8081 42.0409C24.813 42.019 24.826 42 24.8443 41.988C24.8626 41.9759 24.8848 41.9719 24.906 41.9767C25.5093 42.1281 26.1328 42.1733 26.7505 42.1105C27.0896 42.0366 27.4346 41.9953 27.781 41.9874C28.2653 42.0142 28.2962 42.7904 28.0129 43.0527V43.0635Z" fill="#4D2A11"/>
</g>
<path d="M16.6002 26.3445C16.6002 26.3445 17.3525 28.8874 18.1099 29.8243C19.1619 29.6109 20.1957 29.3101 21.2013 28.9249C22.8192 28.2985 24.0609 27.7096 24.6277 27.8542C24.6277 27.8542 24.9678 27.7739 24.8544 28.3199C24.7411 28.866 24.2155 37.9562 24.3649 40.8792C24.5144 43.8022 25.0811 49.7607 25.1945 50.9385C25.3078 52.1162 25.7097 54.0274 22.8965 53.6152C20.0833 53.203 19.2074 52.1269 19.1661 51.7361C19.1249 51.3453 18.9806 46.5325 19.0167 43.1705C19.0528 39.8085 20.2997 33.5878 20.4079 33.0792C19.4136 33.5274 18.3777 33.8682 17.3164 34.0964C16.3787 34.1713 14.9102 35.1671 13.3645 27.6722L16.6002 26.3445Z" fill="#F3F3F3"/>
<path d="M16.6002 26.3445C16.6002 26.3445 17.3525 28.8874 18.1099 29.8243C19.1619 29.6109 20.1957 29.3101 21.2013 28.9249C22.8192 28.2985 24.0609 27.7096 24.6277 27.8542C24.6277 27.8542 24.9678 27.7739 24.8544 28.3199C24.7411 28.866 24.2155 37.9562 24.3649 40.8792C24.5144 43.8022 25.0811 49.7607 25.1945 50.9385C25.3078 52.1162 25.7097 54.0274 22.8965 53.6152C20.0833 53.203 19.2074 52.1269 19.1661 51.7361C19.1249 51.3453 18.9806 46.5325 19.0167 43.1705C19.0528 39.8085 20.2997 33.5878 20.4079 33.0792C19.4136 33.5274 18.3777 33.8682 17.3164 34.0964C16.3787 34.1713 14.9102 35.1671 13.3645 27.6722L16.6002 26.3445Z" fill="#F3F3F3"/>
<g style="mix-blend-mode:multiply" opacity="0.5">
<path d="M16.5693 26.3712C16.7136 27.4794 17.3216 28.4805 17.7544 29.4869C17.8366 29.6525 17.8795 29.836 17.8795 30.0223C17.8795 30.2086 17.8366 30.3921 17.7544 30.5576C17.7384 30.5942 17.7246 30.6317 17.7132 30.6701C17.7762 30.5277 17.8485 30.39 17.9296 30.2578C17.9605 30.199 18.0687 30.199 18.0841 30.2578C18.1305 30.6219 18.146 30.9913 18.1717 31.3553C18.1564 31.0502 18.2041 30.7451 18.3117 30.4607C18.4192 30.1763 18.5841 29.9192 18.7952 29.7064L18.8828 29.6422C18.4087 29.76 18.1151 29.8135 18.1151 29.8135C17.3577 28.8767 16.6054 26.3337 16.6054 26.3337H16.5745L16.5693 26.3712Z" fill="#91959C"/>
</g>
<g style="mix-blend-mode:multiply" opacity="0.5">
<path d="M24.3598 40.8952C24.2104 37.9615 24.736 28.8873 24.8493 28.3359C24.9627 27.7845 24.6329 27.8488 24.6329 27.8488C24.487 27.8154 24.3358 27.8154 24.1898 27.8488C23.9005 28.0019 23.6247 28.1811 23.3654 28.3841C21.9588 29.5512 21.5518 29.3263 22 30.215C22.201 30.6326 22.5771 31.2857 22.7883 31.6872C22.8445 31.7822 22.866 31.8949 22.849 32.0049C22.8319 32.1149 22.7775 32.2149 22.6956 32.2868C22.3555 32.7258 21.3714 33.5609 21.0932 34.0481C20.9644 34.2837 21.1705 34.3265 21.3199 34.5835C21.9198 35.699 22.4599 36.8482 22.9378 38.0258C23.4086 39.3 23.7774 40.6125 24.0404 41.9499C24.2799 43.0941 24.4349 44.2556 24.5041 45.4243C24.5608 46.1845 24.6535 46.9393 24.6844 47.7049C24.7257 48.8184 24.772 50.9812 23.386 51.3185C22.4931 51.4517 21.5823 51.3005 20.7737 50.8849C20.4559 50.796 20.1659 50.6223 19.9327 50.3809C19.6995 50.1396 19.5312 49.839 19.4444 49.509C19.2943 48.5447 19.2339 47.5677 19.2641 46.5914C19.2641 44.9853 19.3259 43.5024 19.362 42.2122C19.4444 39.4444 19.8772 37.9294 20.3255 35.2259C20.5128 33.8991 20.797 32.5891 21.1756 31.3071C21.4609 30.4483 21.7877 29.6049 22.1546 28.7803C21.9382 29.064 21.088 30.7129 20.8665 31.1786C20.6449 31.6444 20.5573 32.2493 20.1915 32.3939C19.5314 32.6873 18.8393 32.8958 18.1306 33.0149C17.538 33.1059 17.0228 33.3307 16.4766 33.0149C15.9305 32.699 15.6471 31.9121 15.374 31.3018C14.9373 30.3453 14.5922 29.3465 14.3435 28.3199C14.2044 27.6614 14.0086 27.4633 14.6475 27.1849C14.7639 27.132 14.8759 27.0693 14.9824 26.9976L13.3285 27.6935C14.8742 35.1884 16.3427 34.1873 17.2804 34.1177C18.3417 33.8896 19.3776 33.5487 20.3719 33.1005C20.2637 33.6091 19.0219 39.8299 18.9807 43.1919C18.9395 46.5539 19.0941 51.3721 19.1301 51.7575C19.1662 52.143 20.0369 53.2458 22.8605 53.6366C25.684 54.0274 25.2718 52.1108 25.1585 50.9598C25.0451 49.8088 24.5144 43.829 24.3598 40.8952Z" fill="#91959C"/>
</g>
<path d="M28.3529 27.6723C28.3529 27.6723 28.085 35.1029 28.2344 39.9853C28.3838 44.8677 29.0279 50.7458 29.1773 51.6827C29.3267 52.6196 29.7441 52.8605 30.8724 52.8177C32.2707 52.7513 33.6555 52.5031 34.9944 52.0789C35.7879 51.7255 36.3855 51.6827 35.6694 49.3004C34.9532 46.9181 33.9021 43.8612 33.6393 42.9993C33.3765 42.1374 33.4126 41.9286 33.3405 40.5314C33.2683 39.1341 33.0725 35.2154 33.0725 35.2154C33.0725 35.2154 38.0086 43.1921 38.3847 43.5454C39.5524 42.8869 40.6492 42.1008 41.6565 41.2006C41.6565 41.2006 37.5964 35.5633 36.839 34.3909C36.0816 33.2185 33.866 29.6584 32.717 28.834C31.568 28.0095 28.8012 27.1637 28.3529 27.6723Z" fill="#F3F3F3"/>
<g style="mix-blend-mode:multiply" opacity="0.5">
<path d="M39.0597 42.8386C39.033 42.8484 39.0039 42.8484 38.9772 42.8386C38.5289 42.3598 38.1315 41.8321 37.7922 41.2647C37.3628 40.6187 36.942 39.9656 36.5298 39.3053C35.7569 38.074 34.9274 36.8534 34.2318 35.5579C33.6702 34.53 33.1241 34.5889 32.5109 29.8403C32.9334 33.1916 32.9231 36.9766 33.0262 37.967C33.1062 38.9461 33.1372 39.9289 33.1189 40.9114C33.1189 41.8536 31.4444 39.1447 31.161 38.6736C31.4626 39.4074 31.821 40.1146 32.2327 40.7883C32.7326 41.6059 33.1554 42.4719 33.495 43.374C33.8196 44.3551 34.0846 45.3564 34.2885 46.372C34.4998 47.3088 34.7625 48.2243 34.9892 49.1558C35.1438 49.7982 35.0717 50.264 34.4019 50.4727C33.8354 50.6364 33.256 50.7474 32.6706 50.8047C32.2018 50.8635 31.7432 50.9867 31.2743 51.0188C30.9303 51.0781 30.5771 51.0105 30.2759 50.8276C29.9748 50.6448 29.7447 50.3583 29.6256 50.0177C29.2237 48.947 28.8372 44.2627 28.7548 43.0581C28.6548 41.9052 28.7207 40.7432 28.9506 39.6105C29.2627 38.4241 29.7071 37.2796 30.2748 36.2003C30.6884 35.3491 31.1459 34.5216 31.6453 33.7216C31.3255 33.2989 30.9814 32.8966 30.6148 32.5171C30.6039 32.5015 30.5981 32.4828 30.5981 32.4636C30.5981 32.4443 30.6039 32.4256 30.6148 32.41C31.0437 31.7327 31.5885 31.143 32.2224 30.6701C31.4186 29.5063 30.4769 28.4523 29.4195 27.533C28.9042 27.4527 28.4972 27.4741 28.3529 27.6401C28.3529 27.6401 28.085 35.0707 28.2344 39.9531C28.3838 44.8355 29.0279 50.7136 29.1773 51.6505C29.3267 52.5874 29.7441 52.8283 30.8724 52.7854C32.2707 52.7191 33.6555 52.4709 34.9944 52.0467C35.7879 51.6933 36.3855 51.6505 35.6694 49.2682C34.9532 46.8859 33.9021 43.829 33.6393 42.9671C33.3765 42.1052 33.4126 41.8964 33.3405 40.4992C33.2683 39.1019 33.0725 35.1831 33.0725 35.1831C33.0725 35.1831 38.0086 43.1599 38.3847 43.5132C39.5524 42.8547 40.6492 42.0686 41.6565 41.1684L41.6256 41.1148C40.8654 41.8296 39.9989 42.4117 39.0597 42.8386Z" fill="#91959C"/>
</g>
<path d="M25.246 27.774C25.246 27.774 24.6329 32.6671 24.3392 40.2691C24.3392 40.2691 23.793 38.7647 23.4736 37.5923C23.0301 36.2559 22.3754 35.0057 21.5363 33.893C22.1119 33.2297 22.743 32.6206 23.422 32.0728C23.422 32.0728 22.3091 30.0224 21.8763 29.6691C21.8918 29.6477 24.5865 27.1423 25.246 27.774Z" fill="#F3F3F3"/>
<path d="M28.2396 39.7228C28.2396 39.7228 29.5071 36.1039 31.3877 33.7002C31.3877 33.7002 30.3882 32.6616 29.9348 32.2708C29.9348 32.2708 31.2332 31.0555 31.7433 30.5095C30.9176 29.409 30.0115 28.3763 29.0331 27.4205C28.0026 26.5586 28.1675 27.3402 28.1675 28.6304C28.1675 29.9206 27.9356 34.5407 28.2396 39.7228Z" fill="#F3F3F3"/>
<g style="mix-blend-mode:multiply" opacity="0.5">
<path d="M24.3598 29.7494C25.179 30.2044 26.2404 30.6755 27.1936 30.4078C28.1684 30.0354 29.0746 29.4922 29.8729 28.8018C30.2387 28.5288 30.5994 28.2664 30.9497 27.9613C30.3711 27.747 29.7715 27.5998 29.1618 27.5223L29.0279 27.4099C28.5126 26.9602 28.2859 26.9548 28.2035 27.2386L25.2614 27.351L24.9884 27.6615C24.7618 27.6681 24.5397 27.7285 24.3392 27.8382C23.689 27.9446 23.055 28.139 22.4534 28.4163C23.058 28.9066 23.695 29.352 24.3598 29.7494Z" fill="#91959C"/>
</g>
<path d="M19.2537 22.0617C18.5728 20.4071 18.0181 18.6994 17.5946 16.9545C17.2841 15.7109 17.0585 14.4461 16.9197 13.1696C16.9197 12.9394 16.4044 12.8055 16.4044 12.8055C16.4044 12.8055 16.6569 12.1256 17.033 12.0239L16.0747 11.8687C16.416 11.2659 16.9708 10.8259 17.6204 10.6427C16.943 10.2022 16.3747 9.60261 15.9613 8.89211C15.9613 8.89211 16.9918 9.54524 17.6461 9.38999C18.3005 9.23473 19.3001 8.42635 21.0055 7.56444C22.711 6.70253 25.1275 4.88769 29.9192 5.00547C31.6762 5.059 33.7887 5.89415 34.34 7.85353C35.0095 7.79524 35.6835 7.82945 36.3443 7.95525C37.4521 8.16404 38.2043 11.9436 39.0339 12.4415H38.3795C38.3795 12.4415 39.0081 12.9768 39.0802 13.3248C38.8142 13.2779 38.5425 13.2779 38.2765 13.3248L38.6835 13.6888C38.6835 13.6888 37.8797 13.9458 37.7767 14.3634C37.3781 15.951 37.0599 17.5593 36.8235 19.1815C36.7462 20.3004 32.9076 23.4055 32.6036 23.5125C32.2996 23.6196 19.2537 22.0617 19.2537 22.0617Z" fill="#30160A"/>
<g style="mix-blend-mode:screen" opacity="0.5">
<g style="mix-blend-mode:screen" opacity="0.5">
<path d="M23.7364 6.53134C23.1799 6.83113 22.6698 7.21659 22.134 7.54316C21.3869 7.99285 18.4912 10.7553 16.9403 9.5989C17.842 10.2681 19.0786 10.252 20.1812 10.2948C19.268 10.7869 18.2882 11.1316 17.2752 11.3174C18.0608 11.5457 18.8822 11.6094 19.6917 11.5047C19.0497 11.747 18.3847 11.9175 17.708 12.0133C18.4367 12.3504 19.2037 12.5896 19.9905 12.7253C21.8195 13.1058 23.6882 13.2389 25.55 13.1215C27.6522 12.9074 31.1146 12.0776 32.6758 10.4447C32.0206 10.3169 31.3579 10.2347 30.6921 10.1985C30.2387 10.1396 29.1464 9.97899 29.2752 9.30445C29.4813 8.29799 30.9137 8.12668 32.7686 8.7691C31.6659 7.50567 31.0992 7.85901 30.6715 7.4682C30.1563 6.98639 32.6037 6.93286 32.954 7.36114C32.1451 6.32791 32.5573 6.06024 33.5878 6.82579C33.1074 6.3011 32.5284 5.88449 31.8868 5.60178C31.2451 5.31907 30.5544 5.17628 29.8574 5.18226C27.7395 5.07928 25.6317 5.54384 23.7364 6.53134Z" fill="#30160A"/>
</g>
</g>
<g style="mix-blend-mode:screen" opacity="0.5">
<g style="mix-blend-mode:screen" opacity="0.5">
<path d="M29.368 11.253C29.1516 11.253 28.3375 11.3066 28.2654 10.9747C28.2036 10.7338 28.4715 10.5303 28.6003 10.3804C28.8115 10.1288 28.8528 9.84508 28.4354 9.78619C28.2155 9.78723 27.9962 9.7639 27.7811 9.71659C27.7139 9.69197 27.6539 9.65012 27.6064 9.59492C27.559 9.53973 27.5258 9.47297 27.5099 9.40086C27.4939 9.32876 27.4958 9.25365 27.5153 9.1825C27.5348 9.11134 27.5713 9.04645 27.6213 8.99386C28.4921 7.97134 29.8111 7.99275 31.0168 7.88568C30.5528 7.73266 30.097 7.55396 29.6514 7.35033C29.4865 7.24862 29.2907 7.03983 29.5123 6.86316C29.6793 6.75634 29.8663 6.68773 30.0609 6.66188C30.2555 6.63604 30.4531 6.65355 30.6407 6.71327C30.5592 6.66336 30.4901 6.59424 30.4391 6.51146C30.3881 6.42869 30.3565 6.3346 30.347 6.23681C30.347 5.59975 31.4496 5.73358 31.7793 5.81388C32.2126 5.90597 32.6296 6.06667 33.0159 6.29035C32.0946 5.60355 30.9914 5.22957 29.8575 5.21965C27.7391 5.11832 25.6312 5.58474 23.7364 6.57409C23.5664 6.66509 23.4015 6.76145 23.2212 6.86316C23.7931 6.60084 24.3495 6.32782 24.9318 6.08691C25.677 5.81007 26.4523 5.63025 27.2401 5.55156C27.9445 5.43534 28.6641 5.46445 29.3577 5.63722C29.5689 5.71217 29.7132 5.9156 29.5277 6.09762C29.1883 6.32321 28.8009 6.4592 28.3993 6.49377C27.982 6.58478 27.5698 6.67044 27.1576 6.78286C26.4723 6.97024 26.1735 7.59659 27.1267 7.43063C27.6473 7.25365 28.2085 7.25365 28.7291 7.43063C28.742 7.43804 28.7527 7.4489 28.7602 7.46208C28.7677 7.47526 28.7716 7.49029 28.7716 7.50559C28.7716 7.52089 28.7677 7.53592 28.7602 7.5491C28.7527 7.56228 28.742 7.57314 28.7291 7.58055C27.2246 8.47993 25.2409 8.30327 23.9477 9.63629C23.8652 9.7273 23.6024 9.98427 23.8549 10.0539C24.0669 10.0978 24.2843 10.1069 24.499 10.0806C24.6948 10.0806 24.8905 10.0324 25.0863 10.0057C25.5346 9.9575 26.2302 9.81831 26.6321 10.086C27.034 10.3537 26.7609 10.7498 26.4981 10.9586C26.2042 11.1305 25.9279 11.3332 25.6737 11.5635C25.4264 11.858 26.3641 11.8526 26.5187 11.8848C26.6733 11.9169 27.2091 11.8152 27.1112 12.0132C26.8845 12.4629 24.6072 12.7895 23.8549 12.7949C21.7904 12.7734 19.7337 12.5276 17.7184 12.0614H17.672C18.4007 12.3984 19.1677 12.6377 19.9545 12.7734C21.7835 13.1539 23.6522 13.287 25.514 13.1696C27.5389 12.9662 30.8158 12.1899 32.4492 10.6963C31.4683 11.0941 30.4206 11.2834 29.368 11.253Z" fill="#30160A"/>
</g>
</g>
<g style="mix-blend-mode:screen" opacity="0.5">
<g style="mix-blend-mode:screen" opacity="0.5">
<path d="M36.3289 8.75287C36.343 8.76789 36.351 8.78807 36.351 8.80909C36.351 8.83011 36.343 8.8503 36.3289 8.86531C36.0843 8.95508 35.8254 8.99506 35.5663 8.98309C35.3963 8.98309 35.0872 8.98309 34.9583 9.11693C34.8295 9.25076 35.0923 9.36854 35.1541 9.41672C35.2153 9.45135 35.2672 9.50113 35.3053 9.56163C35.3435 9.62214 35.3666 9.6915 35.3727 9.76355C35.3789 9.8356 35.3677 9.9081 35.3404 9.97462C35.313 10.0411 35.2703 10.0996 35.216 10.1448C35.1129 10.2626 34.4019 10.284 34.5719 10.4874C34.7015 10.7007 34.7493 10.9567 34.7059 11.2048C34.6698 11.6598 34.3658 11.6438 34.0979 11.4618C34.0103 12.8216 34.778 13.9511 35.7106 14.8452C35.6177 14.6713 35.5334 14.4926 35.4581 14.3098C35.2627 13.9568 35.1968 13.5423 35.2726 13.1428C35.4684 12.5753 36.2671 13.298 36.705 13.6781C36.4062 13.0517 35.9579 12.4414 36.097 11.7241C36.1002 11.7116 36.1061 11.7 36.1142 11.6902C36.1223 11.6805 36.1324 11.6727 36.1438 11.6675C36.1552 11.6624 36.1676 11.66 36.18 11.6605C36.1924 11.661 36.2046 11.6645 36.2155 11.6705C36.401 11.783 37.3027 12.7145 37.2203 12.0774C37.179 11.6813 36.9575 11.2048 37.0863 10.8086C37.0897 10.7969 37.0954 10.786 37.1032 10.7767C37.1109 10.7675 37.1205 10.7601 37.1312 10.755C37.142 10.7499 37.1536 10.7473 37.1654 10.7473C37.1772 10.7473 37.1889 10.75 37.1996 10.7551C37.6788 10.9799 37.7922 11.5153 38.1529 11.8633C38.298 12.0002 38.4531 12.1255 38.6166 12.238C37.921 11.2316 37.2409 8.34601 36.298 8.16934C36.0461 8.11904 35.7914 8.08506 35.5354 8.06763C35.8393 8.2418 36.1085 8.47433 36.3289 8.75287Z" fill="#30160A"/>
</g>
</g>
<path d="M19.3517 19.6633C19.3517 19.6633 18.6458 18.9085 18.0481 19.1975C17.4504 19.4866 17.4298 21.1141 18.1717 21.8743C18.3466 21.9904 18.5481 22.056 18.7554 22.0645C18.9628 22.0729 19.1685 22.0239 19.3517 21.9225V19.6633Z" fill="#FDC088"/>
<g style="mix-blend-mode:multiply">
<path d="M18.7797 19.2458C18.8243 19.3312 18.8556 19.4234 18.8725 19.5189C18.8725 19.6581 18.9137 19.9365 18.8003 20.0542C18.687 20.172 18.5273 20.1024 18.383 20.0542C18.2992 20.0201 18.2102 20.002 18.1202 20.0007C17.9244 20.0007 17.945 20.2202 17.9347 20.3433C17.9364 20.4298 17.907 20.5137 17.8523 20.5789C17.8523 20.6164 17.7596 20.6431 17.7235 20.5789C17.6701 20.5088 17.6299 20.4289 17.605 20.3433C17.6076 20.9053 17.8094 21.4465 18.1717 21.8637C18.3466 21.9798 18.5481 22.0454 18.7554 22.0539C18.9628 22.0623 19.1685 22.0133 19.3517 21.9119V19.642C19.182 19.4799 18.989 19.3462 18.7797 19.2458Z" fill="#D9AE91"/>
</g>
<path d="M35.2417 19.8453L35.3911 21.9332C35.3911 21.9332 35.6436 22.1152 36.4474 21.5959C37.2511 21.0766 37.4006 20.0273 37.4006 19.326C37.4006 18.6247 36.1691 17.918 35.4684 19.69L35.2417 19.8453Z" fill="#FDC088"/>
<path d="M36.8028 19.7544C36.1279 19.6366 35.8548 20.4718 35.9836 21.0339C35.9836 21.0438 35.9874 21.0533 35.9942 21.0604C36.0009 21.0674 36.0101 21.0713 36.0197 21.0713C36.0292 21.0713 36.0384 21.0674 36.0452 21.0604C36.0519 21.0533 36.0557 21.0438 36.0557 21.0339C36.1021 20.4985 36.1433 19.8454 36.8028 19.7919V19.7544Z" fill="#A5693C"/>
<g style="mix-blend-mode:multiply">
<path d="M37.3543 19.717C37.3079 19.7705 37.2358 19.717 37.2152 19.6795C37.0039 19.1441 36.4938 19.2887 36.1847 19.6152C36.1074 19.6956 35.9013 19.9043 35.7828 19.7705C35.6643 19.6367 35.7055 19.3529 35.7828 19.1013C35.6578 19.2843 35.554 19.4819 35.4736 19.6902L35.2469 19.8454L35.3964 21.9333C35.3964 21.9333 35.6488 22.1153 36.4526 21.596C36.7448 21.3723 36.9824 21.0803 37.1461 20.7437C37.3099 20.4071 37.3953 20.0353 37.3955 19.6581L37.3543 19.717Z" fill="#D9AE91"/>
</g>
<path d="M18.8982 13.0679C23.6625 14.3736 28.7298 13.6794 33.0056 11.1353C33.0056 11.1353 32.8046 12.6503 35.8188 15.7821C35.8188 15.7821 35.6178 18.9085 35.4684 19.6902C35.5125 19.9716 35.571 20.2503 35.6436 20.5253C35.7415 20.8679 36.2464 23.4215 32.8561 25.5362C29.4658 27.6508 28.4354 28.245 26.9051 28.245C25.3748 28.245 22.34 27.0191 20.5573 25.8199C18.7746 24.6207 18.7746 23.4215 19.0116 22.0725C19.2486 20.7234 19.1352 20.2255 18.8622 18.7105C18.5891 17.1954 17.9296 15.8678 18.1305 14.8506C18.2629 14.2069 18.5245 13.5994 18.8982 13.0679Z" fill="#FDC088"/>
<path d="M26.2919 22.9022C25.769 22.7337 25.3225 22.3743 25.0347 21.8903C24.8492 21.4835 25.2305 21.2854 25.5139 21.1409C25.6991 21.0454 25.8571 20.9015 25.9725 20.7233L25.9364 20.6912C25.5397 21.1141 24.6431 21.082 24.8235 21.8743C24.9626 22.5167 25.7097 22.8861 26.2765 22.945L26.2919 22.9022Z" fill="#A5693C"/>
<path d="M23.422 23.8391C23.422 23.8391 23.2314 24.0479 23.2674 24.1603C23.3035 24.2727 24.5246 24.5832 26.5341 23.9569C28.057 23.5396 29.5144 22.8978 30.8621 22.051C30.8621 22.051 29.9295 23.186 26.4929 24.1014C24.6895 24.5779 23.7002 24.5618 23.2674 24.4387C22.8346 24.3156 22.9325 24.1282 23.422 23.8391Z" fill="#A5693C"/>
<g style="mix-blend-mode:multiply">
<path d="M22.5718 15.4501C22.4593 15.3884 22.3351 15.3533 22.208 15.3475C22.0809 15.3417 21.9542 15.3653 21.8369 15.4165C21.7196 15.4677 21.6147 15.5453 21.5297 15.6436C21.4448 15.742 21.3819 15.8587 21.3456 15.9854C21.2699 16.3365 21.2439 16.6972 21.2683 17.0561C21.2859 17.1632 21.3344 17.2621 21.4074 17.3398C21.5568 17.463 21.8299 16.9598 21.9226 16.8795C22.0302 16.7593 22.1598 16.6628 22.3039 16.5957C22.7882 16.3602 23.288 16.7563 23.6538 17.1311C23.5217 16.4439 23.1326 15.8393 22.5718 15.4501Z" fill="#D9AE91"/>
</g>
<g style="mix-blend-mode:multiply">
<path d="M28.8734 14.7864C28.5119 15.2441 28.2896 15.8031 28.2345 16.3924C28.1933 16.7136 28.3375 16.8903 28.6106 16.4192C28.69 16.2102 28.8199 16.026 28.9877 15.8844C29.1556 15.7428 29.3558 15.6486 29.569 15.6108C30.1718 15.6108 30.3212 15.9267 30.6767 16.2532C30.8107 16.371 31.228 16.5744 31.3105 16.1729C31.3436 16.0558 31.3436 15.9313 31.3105 15.8142C31.2306 15.6176 31.1191 15.4366 30.9807 15.2789C30.4088 14.6365 29.6256 14.0744 28.8734 14.7864Z" fill="#D9AE91"/>
</g>
<g style="mix-blend-mode:multiply">
<path d="M27.1319 22.0136C26.5239 21.9548 25.8335 22.1154 25.2564 21.8637C24.6793 21.6121 25.2564 21.1838 25.6377 20.8894C25.0606 21.1089 24.3341 21.5158 24.2208 22.1261C24.1074 22.7364 24.9782 23.079 25.4213 23.2289C25.6969 23.3478 25.9986 23.3862 26.2937 23.3399C26.5888 23.2937 26.8662 23.1646 27.0958 22.9666C27.2349 22.8381 27.6935 22.4687 27.6111 22.2278C27.5286 21.9869 27.2762 22.0297 27.1319 22.0136Z" fill="#D9AE91"/>
</g>
<g style="mix-blend-mode:multiply" opacity="0.6">
<path d="M35.453 19.6902C35.6024 18.9085 35.8034 15.7821 35.8034 15.7821C32.7892 12.6503 32.9901 11.1353 32.9901 11.1353C28.7144 13.6794 23.647 14.3736 18.8828 13.0679C18.7403 13.265 18.6145 13.4746 18.5067 13.6942C18.5353 13.6663 18.5663 13.6413 18.5994 13.6193C18.8136 13.5091 19.0476 13.447 19.2864 13.4368C19.5252 13.4267 19.7633 13.4688 19.9854 13.5604C21.403 14.0108 22.8775 14.2382 24.3598 14.2349C25.877 14.1887 27.3835 13.9551 28.8476 13.539C29.5751 13.3308 30.2837 13.0567 30.9652 12.7199C31.4837 12.4037 32.0186 12.1178 32.5676 11.8633C32.5849 11.8572 32.6036 11.8576 32.6206 11.8645C32.6375 11.8714 32.6516 11.8842 32.6604 11.9008C32.8665 12.3612 33.0004 12.8537 33.1756 13.3302C33.3508 13.8067 33.6496 14.3527 33.8557 14.8773C34.2452 15.863 34.4767 16.9083 34.541 17.9717C34.5733 18.4287 34.5083 18.8875 34.3504 19.3154C34.1604 19.7576 34.0722 20.2396 34.0928 20.7234C34.185 21.6854 33.9656 22.6519 33.4693 23.4697C32.83 24.3458 32.023 25.0749 31.0992 25.6111C30.1794 26.313 29.1563 26.8554 28.0696 27.2172C27.1101 27.4818 26.1043 27.5093 25.1327 27.2975C24.0453 26.9815 23.005 26.5113 22.0412 25.9002C21.2271 25.4184 20.0833 24.8295 19.635 23.9034C19.2538 23.1325 19.4599 22.3401 19.635 21.5371C19.903 20.1827 19.2847 19.0049 18.8364 17.7897C18.5962 17.173 18.3864 16.5441 18.2078 15.9052C18.1231 15.5374 18.0935 15.1582 18.1202 14.781C18.1202 14.781 18.1202 14.8078 18.1202 14.8238C17.9193 15.841 18.5736 17.1687 18.8519 18.6837C19.1301 20.1987 19.228 20.6913 19.0013 22.0457C18.7746 23.4001 18.7746 24.6047 20.547 25.7931C22.3195 26.9816 25.3645 28.2183 26.8948 28.2183C28.4251 28.2183 29.471 27.6187 32.8459 25.5094C36.2207 23.4001 35.7312 20.8411 35.6333 20.4985C35.5599 20.2325 35.4997 19.9627 35.453 19.6902Z" fill="#D9AE91"/>
</g>
<path d="M30.8158 15.3699C30.5633 14.8666 29.9811 14.2992 29.4246 14.4972C28.7857 14.7007 28.6106 15.3485 28.4457 15.9588C28.4457 15.9588 28.4457 15.9962 28.4921 15.9588C28.4975 15.962 28.5038 15.9638 28.5101 15.9638C28.5164 15.9638 28.5226 15.962 28.5281 15.9588C28.7368 15.5473 29.0832 15.2293 29.5019 15.0647C30.0635 14.8345 30.5324 15.3324 30.8673 15.7018C30.9034 15.7393 30.9601 15.7018 30.9498 15.6429C30.9145 15.5472 30.8696 15.4557 30.8158 15.3699Z" fill="#262212"/>
<path d="M23.1386 16.3227C23.1386 16.1299 22.7728 15.7445 22.6801 15.6535C22.5739 15.5319 22.4364 15.4445 22.2839 15.4018C22.1313 15.3591 21.9702 15.3628 21.8196 15.4126C21.3971 15.5678 21.361 16.2049 21.3971 16.5903C21.3946 16.6206 21.3946 16.6511 21.3971 16.6814C21.3971 16.6814 21.428 16.6814 21.4332 16.6814C21.5105 16.2906 21.6341 15.9854 22.0412 15.8997C22.2407 15.872 22.4438 15.9042 22.6263 15.9924C22.8089 16.0806 22.9634 16.2212 23.0716 16.3976C23.0885 16.3929 23.1036 16.3834 23.1155 16.3701C23.1273 16.3569 23.1354 16.3404 23.1386 16.3227Z" fill="#262212"/>
<path d="M23.3756 19.5832C23.4735 20.322 23.3756 20.9537 23.1129 20.9912C22.8501 21.0286 22.5976 20.4558 22.4997 19.7063C22.4018 18.9568 22.4997 18.3305 22.7625 18.293C23.0253 18.2555 23.2777 18.8337 23.3756 19.5832Z" fill="#150E00"/>
<path d="M23.1489 18.8443C23.2314 19.1173 23.1953 19.3797 23.0768 19.4118C22.9583 19.4439 22.7934 19.2565 22.7161 18.9782C22.6388 18.6998 22.6646 18.4428 22.7882 18.4C22.9119 18.3572 23.0871 18.5606 23.1489 18.8443Z" fill="white"/>
<path d="M30.1718 18.8926C30.1718 19.642 29.9914 20.2524 29.7441 20.2577C29.4968 20.2631 29.2959 19.6581 29.2856 18.9086C29.2753 18.1591 29.4659 17.5435 29.7081 17.5381C29.9502 17.5328 30.1615 18.1431 30.1718 18.8926Z" fill="#150E00"/>
<path d="M30.0325 18.1322C30.0789 18.4159 30.0325 18.6676 29.8934 18.6676C29.7543 18.6676 29.6307 18.4748 29.5843 18.1857C29.5379 17.8967 29.5843 17.6504 29.7234 17.6504C29.8625 17.6504 29.9862 17.8431 30.0325 18.1322Z" fill="white"/>
<path d="M23.3345 24.4548C23.4277 24.5878 23.512 24.7273 23.5869 24.8723C23.8343 25.3434 24.2465 26.3606 24.6432 26.5587C25.4425 26.9187 26.3273 27.0212 27.1833 26.8531C28.2314 26.5958 29.2263 26.1442 30.1202 25.5201C30.2948 25.3877 30.437 25.2146 30.5354 25.0147C30.6339 24.8148 30.6858 24.5937 30.687 24.3691C30.7871 23.628 30.8216 22.879 30.79 22.1313C30.5118 22.399 29.3989 23.3305 26.4929 24.1014C24.7772 24.5565 23.793 24.5618 23.3345 24.4548Z" fill="#33000C"/>
<path d="M30.8157 22.1313C30.5375 22.399 29.4246 23.3305 26.5186 24.1014C25.6793 24.3475 24.8141 24.4859 23.9424 24.5136C24.0739 24.9463 24.3381 25.3224 24.6946 25.5843C24.612 25.8997 24.5824 26.2275 24.607 26.5533C24.6189 26.5558 24.6312 26.5558 24.6431 26.5533C25.4424 26.9133 26.3273 27.0159 27.1833 26.8478C28.2314 26.5904 29.2262 26.1389 30.1201 25.5148C30.2947 25.3824 30.4369 25.2093 30.5354 25.0093C30.6338 24.8094 30.6857 24.5883 30.6869 24.3637C30.7953 23.6253 30.8384 22.878 30.8157 22.1313Z" fill="white"/>
<g style="mix-blend-mode:multiply">
<path d="M30.8157 22.1313C30.5375 22.399 29.4246 23.3305 26.5186 24.1014C25.6793 24.3475 24.8141 24.4859 23.9424 24.5136C24.0739 24.9463 24.3381 25.3224 24.6946 25.5843C24.612 25.8997 24.5824 26.2275 24.607 26.5533C24.6189 26.5558 24.6312 26.5558 24.6431 26.5533C25.4424 26.9133 26.3273 27.0159 27.1833 26.8478C28.2314 26.5904 29.2262 26.1389 30.1201 25.5148C30.2947 25.3824 30.4369 25.2093 30.5354 25.0093C30.6338 24.8094 30.6857 24.5883 30.6869 24.3637C30.7953 23.6253 30.8384 22.878 30.8157 22.1313ZM29.8574 25.2845C28.6878 26.125 27.1936 26.8478 25.7354 26.6925C25.3748 26.655 24.9832 26.4945 25.0295 26.0822C25.0759 25.67 25.0295 25.6861 25.3541 25.6272C26.8779 25.4284 28.3656 24.9992 29.7698 24.353C29.9192 24.2888 30.3829 24.0533 30.4911 24.3102C30.6148 24.6368 30.0532 25.1293 29.8316 25.2845H29.8574ZM30.5529 23.6785C30.5584 23.6883 30.5612 23.6993 30.5612 23.7106C30.5612 23.7219 30.5584 23.733 30.5529 23.7427C30.0363 24.1839 29.4358 24.5069 28.7908 24.6903C27.7559 25.1036 26.6701 25.3631 25.5654 25.4612C25.3415 25.5055 25.1103 25.487 24.8956 25.4077C24.7049 25.2792 24.3803 24.8134 24.6328 24.7813C25.0295 24.7278 25.5499 24.5725 25.9312 24.4815C26.3125 24.3905 26.7401 24.2674 27.142 24.1336C28.011 23.8493 28.8598 23.5023 29.6822 23.095C29.9913 22.9397 30.1974 22.8327 30.4035 22.7309C30.6096 22.6292 30.6921 23.4055 30.5272 23.6517L30.5529 23.6785Z" fill="#CCCAC7"/>
</g>
<g style="mix-blend-mode:multiply">
<path d="M24.6947 25.5628C24.6947 25.5628 27.1473 25.6967 30.3263 23.9568C30.3263 23.9782 27.2555 26.0714 24.6947 25.5628Z" fill="#93918D"/>
</g>
<g style="mix-blend-mode:screen" opacity="0.5">
<path d="M23.3397 64.2528C23.3397 64.2528 22.268 57.3468 22.268 54.8039C22.3007 54.5322 22.2867 54.2567 22.2268 53.9901C22.1289 53.8295 21.8919 53.9045 21.7424 53.8831C22.0049 57.3787 22.539 60.8466 23.3397 64.2528Z" fill="#17293B"/>
</g>
<g style="mix-blend-mode:screen" opacity="0.5">
<path d="M33.964 64.2901C33.964 64.2901 32.8201 56.7149 32.341 54.2202C32.2951 53.8418 32.214 53.4688 32.0988 53.1067C32.0009 52.9354 31.9494 53.1067 31.7948 53.0692C31.7948 53.0692 32.8768 58.776 33.964 64.2901Z" fill="#17293B"/>
</g>
<g style="mix-blend-mode:multiply">
<path d="M26.8536 38.7862C26.7608 38.1116 26.3383 35.5098 26.1477 34.5034C26.1718 34.4785 26.19 34.4481 26.2007 34.4147C26.2115 34.3812 26.2145 34.3456 26.2095 34.3106C26.1966 34.0443 26.1293 33.7839 26.012 33.5466C25.8947 33.3094 25.7302 33.1008 25.5294 32.9348C25.1481 32.6725 24.6432 32.6457 23.8085 32.8438L23.2365 28.3843C23.2351 28.3525 23.2274 28.3214 23.2138 28.2929C23.2002 28.2643 23.1811 28.2391 23.1576 28.2186C23.1341 28.1982 23.1068 28.183 23.0774 28.1741C23.048 28.1651 23.0172 28.1626 22.9868 28.1667C22.9564 28.1708 22.9272 28.1814 22.9009 28.1978C22.8747 28.2142 22.852 28.2361 22.8343 28.2621C22.8167 28.2881 22.8044 28.3176 22.7982 28.3487C22.792 28.3799 22.7922 28.4121 22.7986 28.4432L23.3808 33.0044C23.0334 33.1082 22.7269 33.3247 22.5063 33.6223C22.2857 33.92 22.1624 34.2831 22.1545 34.6586C22.1573 34.6944 22.168 34.729 22.1859 34.7596C22.2038 34.7903 22.2284 34.8162 22.2576 34.8353C22.2576 35.8096 22.3761 38.8397 22.4688 39.6213C22.577 40.5582 22.9429 40.3654 23.6436 40.4404C23.6436 40.767 23.6797 40.8044 23.9527 40.8044C24.2258 40.8044 24.3752 40.8044 24.3752 40.3869C24.3752 39.9693 24.4113 39.7552 24.1743 39.7177C24.0884 39.7073 24.0014 39.7194 23.9213 39.7531C23.8412 39.7868 23.7705 39.8409 23.7157 39.9104C23.7157 39.9104 22.8913 39.9104 22.7986 39.3001C22.6955 38.3418 22.5513 35.7775 22.5049 34.8299C22.534 34.8078 22.5576 34.7787 22.5737 34.7452C22.5899 34.7117 22.5981 34.6747 22.5977 34.6372C22.5977 34.5944 22.5976 33.6736 23.7518 33.3631C24.5401 33.1543 24.9987 33.1489 25.2975 33.3631C25.4451 33.497 25.5644 33.6614 25.6478 33.8456C25.7311 34.0299 25.7768 34.2302 25.7818 34.4338C25.7878 34.4691 25.8016 34.5025 25.8222 34.5314C25.8427 34.5602 25.8695 34.5836 25.9004 34.5997C26.0086 35.3653 26.2919 37.3461 26.4156 38.4382C26.4929 39.1984 26.4156 39.4072 26.0137 39.5838L25.72 39.6748C25.6743 39.6175 25.6116 39.5774 25.5417 39.561C25.4718 39.5445 25.3986 39.5526 25.3336 39.5838C25.076 39.6749 25.0605 39.8462 25.1326 40.3066C25.2048 40.767 25.483 40.6492 25.7767 40.5903C26.0704 40.5314 26.0137 40.4939 25.921 40.0978C26.7402 39.7766 26.9618 39.6267 26.8536 38.7862Z" fill="#A1A5AB"/>
</g>
<path d="M22.2679 34.1179C22.2679 34.1179 22.4483 37.7583 22.5771 38.9361C22.6698 39.5464 23.4942 39.5464 23.4942 39.5464C23.5489 39.4769 23.6196 39.4228 23.6998 39.3891C23.7799 39.3554 23.8669 39.3432 23.9528 39.3536C24.1898 39.3911 24.1537 39.5838 24.1537 40.0228C24.1537 40.4618 24.0094 40.4404 23.7312 40.4404C23.453 40.4404 23.4375 40.4029 23.4221 40.0764C22.7265 40.0014 22.3555 40.1941 22.2473 39.2573C22.1391 38.3204 22.0258 34.1661 22.0258 34.1661L22.2679 34.1179Z" fill="#D6D8DB"/>
<path d="M25.6221 33.9037C25.6221 33.9037 26.024 36.6875 26.194 38.0633C26.2662 38.8235 26.194 39.0323 25.787 39.2036L25.4933 39.3C25.4491 39.2422 25.3876 39.2013 25.3186 39.1838C25.2495 39.1664 25.1768 39.1733 25.112 39.2036C24.8544 39.3 24.8338 39.4713 24.9059 39.9317C24.9781 40.3921 25.2563 40.2744 25.55 40.2155C25.8437 40.1566 25.787 40.1191 25.6942 39.7229C26.5238 39.4338 26.7247 39.284 26.632 38.4435C26.5392 37.603 25.8591 33.7913 25.8591 33.7913L25.6221 33.9037Z" fill="#D6D8DB"/>
<path d="M23.386 32.8758C23.3319 32.8775 23.2792 32.8581 23.2382 32.8215C23.1971 32.7848 23.1708 32.7335 23.1644 32.6777L22.5719 28.0844C22.5693 28.0267 22.5877 27.9701 22.6234 27.9258C22.6592 27.8815 22.7096 27.8528 22.7648 27.8454C22.8199 27.838 22.8757 27.8524 22.9211 27.8858C22.9665 27.9191 22.9982 27.969 23.0098 28.0255L23.5972 32.6188C23.6045 32.6791 23.5886 32.74 23.5529 32.7881C23.5172 32.8362 23.4646 32.8678 23.4066 32.8758H23.386Z" fill="#3F3E3D"/>
<path d="M22.1546 34.5141C22.1269 34.5148 22.0993 34.5098 22.0734 34.4994C22.0475 34.489 22.0238 34.4735 22.0037 34.4536C21.9836 34.4337 21.9675 34.4099 21.9563 34.3835C21.945 34.3572 21.9389 34.3287 21.9382 34.2999C21.9495 33.875 22.1044 33.4678 22.3757 33.1496C22.647 32.8315 23.0175 32.6228 23.4221 32.56C24.3547 32.3138 24.906 32.3245 25.3131 32.6082C25.5125 32.7752 25.6757 32.9841 25.792 33.2212C25.9083 33.4583 25.9751 33.7183 25.988 33.9841C25.9959 34.0439 25.9808 34.1046 25.946 34.1529C25.9112 34.2013 25.8595 34.2335 25.802 34.2427C25.7445 34.2518 25.6859 34.2371 25.6388 34.2017C25.5917 34.1664 25.5598 34.1132 25.5501 34.0537C25.546 33.8499 25.5007 33.6493 25.4173 33.4649C25.3339 33.2805 25.2141 33.1163 25.0658 32.983C24.7772 32.7849 24.3187 32.7902 23.52 32.983C22.3453 33.2935 22.3659 34.2143 22.3659 34.2571C22.3673 34.3173 22.346 34.3756 22.3065 34.4196C22.267 34.4636 22.2125 34.4899 22.1546 34.4927V34.5141Z" fill="#3F3E3D"/>
<g style="mix-blend-mode:multiply">
<path d="M32.0627 33.7377C32.0627 33.3576 31.9802 32.1317 31.8669 30.8897C31.8111 29.9769 31.701 29.0687 31.5371 28.1701C31.465 28.1701 31.1661 28.0149 31.0889 28.0042C31.0889 28.0042 31.3156 28.3521 31.3259 28.3789C31.3568 28.486 31.2537 28.6252 31.1455 28.7536C31.4022 30.3961 31.5606 32.0535 31.6196 33.7163C31.2888 33.8354 31.0068 34.0676 30.8196 34.3749C30.6324 34.6822 30.5511 35.0465 30.5891 35.408C30.5891 36.3503 31.161 37.1051 31.8463 37.0944C32.5315 37.0837 33.0725 36.3235 33.0622 35.3813C33.0831 35.0329 32.9978 34.6866 32.8183 34.3915C32.6389 34.0964 32.3745 33.8677 32.0627 33.7377Z" fill="#A1A5AB"/>
</g>
<path d="M30.9395 28.5234C31.2024 30.219 31.3625 31.9302 31.4186 33.6467C31.4213 33.7059 31.4458 33.7617 31.487 33.8026C31.5283 33.8435 31.5832 33.8662 31.6402 33.8662C31.698 33.8634 31.7525 33.8372 31.792 33.7932C31.8315 33.7491 31.8528 33.6908 31.8514 33.6306C31.8514 33.6306 31.7844 32.137 31.6453 30.6648C31.3619 27.5276 31.0476 27.4527 30.8467 27.3938C30.7488 27.3938 30.5685 27.3938 30.4139 27.6508C30.4036 27.8167 30.7849 28.0844 30.9395 28.5234Z" fill="#3F3E3D"/>
<path d="M32.8356 35.1563C32.8356 36.0932 32.3203 36.8588 31.6196 36.8695C30.9189 36.8802 30.3779 36.12 30.3676 35.1831C30.3573 34.2463 30.8828 33.4754 31.5836 33.47C32.2843 33.4646 32.8253 34.2141 32.8356 35.1563Z" fill="#D6D8DB"/>
<path d="M32.1915 35.2901C32.1915 35.9272 31.8721 36.4465 31.4753 36.4465C31.0786 36.4465 30.7592 35.9112 30.7592 35.2901C30.7592 34.6691 31.0786 34.1338 31.4753 34.1338C31.8721 34.1338 32.1915 34.6531 32.1915 35.2901Z" fill="#EBECF1"/>
<g style="mix-blend-mode:multiply" opacity="0.5">
<path d="M31.7071 35.2903C31.7071 35.4937 31.6041 35.665 31.4753 35.665C31.3465 35.665 31.2434 35.4937 31.2434 35.2903C31.2434 35.0868 31.3465 34.9155 31.4753 34.9155C31.6041 34.9155 31.7071 35.0815 31.7071 35.2903Z" fill="#A1A5AB"/>
</g>
</g>
</g>
<defs>
<clipPath id="clip0_12164_2232">
<rect width="56" height="56" rx="28" fill="white"/>
</clipPath>
<clipPath id="clip1_12164_2232">
<rect width="36" height="63" fill="white" transform="translate(10 5)"/>
</clipPath>
</defs>
</svg>
