<svg width="56" height="56" viewBox="0 0 56 56" fill="none" xmlns="http://www.w3.org/2000/svg">
<rect width="56" height="56" rx="28" fill="#54D1FF"/>
<g clip-path="url(#clip0_12164_2016)">
<path d="M45.1476 43.5301C45.1476 44.8941 37.6542 46.0008 28.4112 46.0008C19.1683 46.0008 11.6749 44.8941 11.6749 43.5301C11.6749 42.1661 19.1683 41.0603 28.4112 41.0603C37.6542 41.0603 45.1476 42.1661 45.1476 43.5301Z" fill="#3FC4F5"/>
<path d="M41.8759 20.1602C42.7749 20.5104 43.4674 21.2336 44.0306 21.9927C44.5763 22.7334 45.0243 23.5408 45.3637 24.3951C45.6971 25.274 45.9005 26.1965 45.9675 27.1336C46.0474 28.0871 45.9903 29.0729 45.6555 29.9755C45.4604 30.5008 44.6704 30.1323 44.8646 29.6096C45.1449 28.8523 45.1581 28.0109 45.0992 27.2151C45.0388 26.3775 44.8614 25.5524 44.572 24.7636C44.279 24.0098 43.8925 23.2954 43.4217 22.637C42.9339 21.9366 42.3223 21.266 41.5094 20.9464C40.9822 20.7407 41.3556 19.9527 41.8768 20.1585L41.8759 20.1602Z" fill="#231F20"/>
<path d="M11.022 30.408C10.9878 29.0589 10.9473 27.6843 11.269 26.364C11.587 25.0415 12.3909 23.8857 13.5222 23.1247C13.9826 22.8077 13.5468 22.0539 13.0828 22.3735C11.7936 23.2595 10.8858 24.4747 10.4667 25.9814C10.0694 27.412 10.1151 28.9345 10.1503 30.4045C10.1644 30.964 11.0379 30.9657 11.0229 30.4045L11.022 30.408Z" fill="#231F20"/>
<path d="M20.4478 43.9941C18.3045 43.9355 16.4318 43.5266 15.2709 39.9668C14.4721 37.5154 14.7357 34.6315 14.4677 32.7596C14.1997 30.8878 11.9693 25.1777 11.7013 20.5901C11.4333 16.0024 14.2893 11.2335 18.9301 10.9525C23.571 10.6714 25.4454 12.2657 27.8568 12.3533C30.9835 12.475 33.379 10.5699 37.5848 10.7616C41.6905 10.949 43.7433 15.4421 43.9217 20.2171C44.079 24.4353 41.5402 30.6497 41.6008 32.7605C41.6887 35.8493 41.513 43.7114 38.0312 43.7114C34.0064 43.7114 33.1224 38.0022 31.9624 36.8824C29.834 34.8223 28.0352 34.6358 26.1625 36.5077C23.9901 38.6763 23.839 44.0878 20.4478 43.9941Z" fill="#DEECED"/>
<path d="M21.5296 13.2158C19.91 12.7956 18.5637 13.2762 17.4608 14.1894C16.5293 14.72 15.6646 15.6874 15.2788 16.3668C14.3667 17.9716 13.7445 20.1595 14.6751 21.9201C15.4502 23.3866 17.3018 23.3814 17.8941 21.7888C18.4214 20.388 17.9477 18.8795 18.8607 17.5636C19.7316 16.3046 20.9698 16.302 22.186 15.5053C23.5218 14.6298 22.7818 13.5407 21.5296 13.2158Z" fill="white"/>
<path d="M43.9235 20.225C43.7609 15.8843 42.049 11.7764 38.6508 10.9263C44.8444 13.4539 42.8944 23.3418 39.9549 27.4305C39.1403 28.5634 37.888 28.7936 36.3168 29.8959C34.8659 30.9124 38.4707 30.9973 39.606 34.2734C40.2827 36.2276 41.1175 41.0647 38.3538 41.9C37.4478 42.174 36.1929 42.2178 35.3563 41.8413C34.8193 41.6014 34.075 40.9719 33.6532 40.2129C34.532 41.9639 35.8009 43.7149 38.0304 43.7149C41.5112 43.7149 41.6896 35.852 41.6009 32.7632C41.542 30.6567 44.0816 24.4432 43.9235 20.225Z" fill="#B9E1EA"/>
<path d="M20.9768 21.3991C21.5393 21.3991 21.9953 20.9448 21.9953 20.3843C21.9953 19.8239 21.5393 19.3696 20.9768 19.3696C20.4143 19.3696 19.9583 19.8239 19.9583 20.3843C19.9583 20.9448 20.4143 21.3991 20.9768 21.3991Z" fill="#231F20"/>
<path d="M36.1989 20.3843C36.1991 20.5853 36.1394 20.7818 36.0275 20.9489C35.9155 21.116 35.7563 21.2464 35.57 21.3233C35.3837 21.4003 35.1787 21.4205 34.9809 21.3813C34.7831 21.3422 34.6013 21.2454 34.4587 21.1033C34.3161 20.9613 34.219 20.7802 34.1797 20.5831C34.1404 20.386 34.1607 20.1818 34.2379 19.9962C34.3152 19.8106 34.446 19.6519 34.6137 19.5404C34.7815 19.4289 34.9787 19.3695 35.1804 19.3696C35.4505 19.3696 35.7096 19.4765 35.9006 19.6668C36.0916 19.8571 36.1989 20.1152 36.1989 20.3843Z" fill="#231F20"/>
<path d="M28.4437 25.5255L28.3303 25.5316C26.4893 25.6524 25.4646 26.5349 24.9286 27.2537C24.5782 27.7166 24.33 28.2479 24.2001 28.813C24.1952 28.8777 24.2145 28.9419 24.2543 28.9932C24.2942 29.0446 24.3516 29.0794 24.4157 29.0911C24.4798 29.1027 24.5459 29.0903 24.6013 29.0563C24.6567 29.0222 24.6976 28.9689 24.7159 28.9067C24.7361 28.7981 25.2493 26.2574 28.3646 26.0525C29.6186 25.972 30.442 26.4544 30.9131 26.8746C31.6389 27.5234 31.9228 28.342 31.9465 28.8883C31.9479 28.9228 31.9562 28.9567 31.9708 28.988C31.9854 29.0193 32.006 29.0474 32.0315 29.0708C32.057 29.0942 32.0869 29.1123 32.1194 29.1242C32.1519 29.1361 32.1865 29.1414 32.2211 29.14C32.2557 29.1386 32.2897 29.1304 32.3212 29.1158C32.3526 29.1013 32.3809 29.0808 32.4043 29.0553C32.4278 29.0299 32.446 29.0002 32.4579 28.9678C32.4698 28.9353 32.4752 28.9009 32.4738 28.8664C32.4377 28.0312 31.9755 27.1154 31.2663 26.4842C30.732 26.0114 29.8163 25.4677 28.4437 25.5255Z" fill="#231F20"/>
<path d="M36.7711 15.2425C36.4389 14.9054 35.6559 14.564 35.1111 14.88C34.8844 15.0113 34.7824 15.3038 35.0162 15.52C35.2991 15.7765 35.5645 15.52 36.2781 16.0331C36.5251 16.2082 36.7904 16.5382 37.0418 16.0768C37.2597 15.6846 36.9794 15.4552 36.7711 15.2425Z" fill="#231F20"/>
<path d="M19.1568 15.1104C19.4679 14.7839 20.1709 14.4757 20.6182 14.825C20.6682 14.8628 20.7093 14.9111 20.7386 14.9663C20.768 15.0216 20.7849 15.0825 20.7881 15.145C20.7914 15.2074 20.7809 15.2698 20.7575 15.3278C20.7341 15.3858 20.6983 15.438 20.6525 15.4808C20.3889 15.7277 20.178 15.4519 19.5233 15.9395C19.2965 16.1085 19.0426 16.4281 18.8598 15.9466C18.7078 15.5359 18.9635 15.3162 19.1568 15.1104Z" fill="#231F20"/>
<path d="M44.1308 32.9689C43.0622 32.5066 43.5455 31.428 44.0693 30.7503C43.8171 30.8782 43.4392 31.0436 43.2467 30.7162C43.071 30.415 43.4691 30.1357 43.7072 30.0105C44.2986 29.6989 44.8804 29.3653 45.1133 28.6894L45.5764 27.4558C45.5228 28.6964 46.05 29.8486 45.9481 31.0795C45.8717 31.969 45.3171 33.4819 44.1308 32.9689Z" fill="#231F20"/>
<path d="M11.9149 33.5749C12.965 33.0733 12.4422 32.013 11.8929 31.3555C12.1495 31.4737 12.5327 31.6252 12.7137 31.2907C12.8807 30.9825 12.4694 30.719 12.2269 30.6026C11.624 30.3137 11.03 30.002 10.7725 29.3348L10.2637 28.1196C10.3639 29.3567 9.88053 30.5281 10.0282 31.7547C10.1345 32.6408 10.7488 34.1317 11.9149 33.5749Z" fill="#231F20"/>
<path d="M44.2196 17.2887C44.1265 16.3326 43.8681 15.3196 43.579 14.3758C43.021 12.5233 41.7142 11.0174 39.8662 10.387C38.425 9.89499 36.7808 9.83283 35.2675 10.4317C34.938 10.5613 34.5979 11.0874 34.5645 11.4175C34.5091 11.991 35.1796 12.1232 35.6146 12.1713C36.0883 12.2238 36.5725 12.0549 37.0119 12.1127C37.8564 12.223 37.4697 12.645 37.6525 13.2158C38.0919 14.5763 39.5586 12.743 40.3187 13.6824C40.9928 14.5159 39.9505 15.6488 39.7335 16.4631C39.4619 17.4839 39.7967 18.4382 40.9708 18.1029C41.4638 17.9628 41.8496 17.6249 42.3557 17.9278C42.6958 18.1318 42.9129 18.5844 43.2424 18.8269C44.3892 19.6683 44.2987 18.1029 44.2196 17.2887Z" fill="#634337"/>
<path d="M20.1903 10.4316C18.3097 10.2224 16.8509 10.3782 15.1681 11.1942C14.5529 11.4928 13.0063 12.6265 12.7954 14.4914C12.7506 15.851 14.8658 16.9244 16.0416 15.3669C16.5609 14.6761 16.1409 13.0862 17.1031 12.7666C17.5619 12.6152 18.141 13.0844 18.5619 12.8016C19.0593 12.4672 18.6085 12.1888 19.2702 12.1608C20.0101 12.1336 21.2914 12.5583 21.7765 11.7143C22.3204 10.7591 20.7738 10.4964 20.1903 10.4316Z" fill="#634337"/>
<path d="M20.2474 25.3511C19.9276 25.0455 19.4047 25.0692 19.0391 24.8599C17.5267 23.9958 19.6991 23.5029 19.2746 22.8296C18.7245 21.9541 16.677 23.8093 17.2359 22.1599C17.3809 21.7309 17.8185 21.1924 17.1638 20.984C16.5487 20.7871 16.3509 21.6626 16.1172 21.8061C15.7947 21.9419 15.6602 21.3859 15.256 21.2931C14.8517 21.2003 14.364 21.4945 14.6162 22.1467C14.7384 22.4602 15.3105 23.0065 15.0706 23.3225C14.8306 23.6386 14.0793 23.2394 13.8403 23.6666C13.4105 24.4484 15.5917 24.3968 15.7498 25.1628C15.9827 26.294 14.4413 27.4716 15.2226 28.5843C15.6013 29.1228 16.1268 29.1736 16.6339 28.7594C17.177 28.3217 17.2033 27.6826 17.3879 27.0732C17.5285 26.6074 17.7833 25.8965 18.3809 25.8527C18.8511 25.8177 19.2219 26.3019 19.7193 26.2607C20.3125 26.2161 20.7053 25.7897 20.2474 25.3511Z" fill="#634337"/>
<path d="M21.9971 27.8779C21.9663 27.223 21.186 27.0497 20.7624 27.4901C20.6915 27.5683 20.6293 27.6541 20.577 27.7457C20.1464 28.1196 19.8739 28.8427 20.2378 29.3085C20.9214 30.1735 22.0296 28.5678 21.9971 27.8779Z" fill="#634337"/>
<path d="M19.8898 29.7261C19.6604 29.3382 18.9064 29.4538 18.6674 29.8136C18.5074 30.0526 18.5646 30.2514 18.7131 30.3687C18.7764 30.4546 18.8657 30.5181 18.9679 30.5499C19.4319 30.7119 20.2114 30.2645 19.8898 29.7261Z" fill="#634337"/>
<path d="M38.0224 10.3073C37.5267 10.232 36.43 10.0262 36.0987 10.5822C35.9511 10.6741 35.8448 10.7932 35.85 10.9324C35.8685 11.4708 36.6541 11.1565 36.9362 11.0873C37.3916 10.9667 37.8665 10.937 38.3335 10.9998C38.7131 11.0567 39.1718 11.2738 39.5638 11.195C40.019 10.4272 38.4706 10.3747 38.0224 10.3073Z" fill="#84574A"/>
<path d="M16.2903 11.3194C15.9124 11.3483 15.4274 11.6451 15.0961 11.8333C14.466 12.1914 13.8139 12.8008 13.509 13.4539C13.1979 13.9302 13.1091 14.3924 13.5828 14.6376C14.2665 14.9878 14.4045 13.7122 14.6119 13.3296C14.9388 12.7264 15.4326 12.3832 16.0179 12.0942C16.3659 11.9218 17.2535 11.245 16.2903 11.3194Z" fill="#84574A"/>
<path d="M21.2184 27.483C20.946 27.483 20.8177 27.6782 20.7254 27.8901C20.5567 28.0783 20.4214 28.306 20.4126 28.4959C20.3818 29.164 21.0102 28.608 21.2114 28.3331C21.3959 28.0801 21.7466 27.476 21.2184 27.483Z" fill="#84574A"/>
<path d="M16.1145 25.0825L16.2762 25.4065C16.2735 25.3832 16.2693 25.3601 16.2639 25.3373C16.2147 25.2541 16.1611 25.1674 16.1145 25.0825Z" fill="#84574A"/>
<path d="M16.0952 24.5816C15.9098 24.6534 15.9888 24.8591 16.1145 25.0824L16.0574 24.9695C16.1572 25.072 16.2284 25.1988 16.2639 25.3372C16.3313 25.4369 16.3795 25.5482 16.4063 25.6655L16.2762 25.4028C16.3307 25.7994 16.0521 26.203 15.8711 26.59C15.7472 26.8527 15.5802 27.2659 15.6004 27.5531C15.6338 28.0442 15.9124 27.8437 16.1057 27.5146C16.3922 27.0251 16.6084 26.3606 16.7648 25.8213C16.8571 25.5079 16.7402 24.3321 16.0952 24.5816Z" fill="#84574A"/>
</g>
<defs>
<clipPath id="clip0_12164_2016">
<rect width="36" height="36" fill="white" transform="translate(10 10)"/>
</clipPath>
</defs>
</svg>
