<svg width="56" height="56" viewBox="0 0 56 56" fill="none" xmlns="http://www.w3.org/2000/svg">
<g clip-path="url(#clip0_12164_1702)">
<rect width="56" height="56" rx="28" fill="#EEE3E3"/>
<path style="mix-blend-mode:multiply" opacity="0.26" d="M68.4572 52.6552V70.6704H43.7892L28 51.4204L29 43.5L35.5 38.5L38 36.5V30L34.5 24L34 19L35.5 14L40 7.5L68.4572 52.6552Z" fill="url(#paint0_linear_12164_1702)" fill-opacity="0.25"/>
<path d="M18.6745 9.71148C18.6745 9.71148 19.0158 9.6189 19.1587 9.85806L19.4763 10.2438C19.6033 10.4058 19.7462 10.6141 19.9049 10.8456C20.0821 11.0931 20.2438 11.3507 20.3892 11.6171C20.4765 11.756 20.5559 11.9025 20.6432 12.0491C20.7306 12.1957 20.802 12.3654 20.8814 12.5352C21.2479 13.2795 21.5455 14.054 21.7705 14.8497C22.0256 15.7823 22.1956 16.7349 22.2786 17.6965C22.3614 18.763 22.3455 19.8345 22.231 20.8982C22.1913 21.1683 22.1516 21.446 22.1198 21.7238C22.0881 22.0015 22.0007 22.2792 21.9452 22.557C21.8262 23.1209 21.6724 23.6774 21.4847 24.2234C21.0904 25.3126 20.6264 26.3768 20.0955 27.4097C19.5662 28.409 19.1022 29.4397 18.7062 30.4957C18.3202 31.4646 18.1289 32.4965 18.1426 33.5354C18.1502 33.7784 18.1741 34.0207 18.214 34.2606L18.2934 34.6001C18.3138 34.7235 18.3457 34.8449 18.3887 34.9627C18.5315 35.3704 18.7262 35.7592 18.9682 36.12C19.4351 36.7965 20.0438 37.3697 20.7544 37.8018C21.344 38.1651 21.994 38.4261 22.6755 38.5733C22.9526 38.6287 23.2342 38.6596 23.517 38.6659C23.644 38.6659 23.7631 38.6659 23.8822 38.6659H24.2077C24.3875 38.6511 24.5656 38.6201 24.7396 38.5733C24.8699 38.5461 24.9975 38.5074 25.1206 38.4576L25.4223 38.3496L26.2162 40.7875L25.7002 40.8801C25.4959 40.919 25.2889 40.9422 25.0809 40.9496C24.8035 40.9692 24.5249 40.9692 24.2474 40.9496C23.5172 40.9135 22.7957 40.7784 22.104 40.5484C21.242 40.2468 20.4373 39.8089 19.7224 39.2523C18.8752 38.6153 18.1771 37.8105 17.6742 36.8915C17.3902 36.3808 17.1767 35.8361 17.0391 35.2713C17.0391 35.117 17.0391 35.009 16.9677 34.8701V34.6772V34.5769V34.4381C16.9519 34.1477 16.9519 33.8567 16.9677 33.5663C17.02 32.3951 17.2889 31.2426 17.7615 30.164C18.2299 29.0916 18.7856 28.0655 19.3492 27.078C19.9128 26.0896 20.3908 25.0574 20.7782 23.992C21.1417 22.9798 21.3556 21.9226 21.4133 20.852C21.4591 19.8523 21.3899 18.8509 21.2069 17.8662C21.0368 16.9951 20.7871 16.1405 20.4607 15.3126C20.1789 14.6245 19.8473 13.9568 19.4683 13.3144C19.3889 13.1678 19.3016 13.0289 19.2222 12.8978C19.1428 12.7666 19.0555 12.6432 18.9682 12.5275C18.8322 12.3087 18.6838 12.0975 18.5236 11.8948C18.3807 11.7174 18.2696 11.5554 18.1505 11.4088L17.8171 11.0385C17.6027 10.861 17.7615 10.5447 17.7615 10.5447L18.6745 9.71148Z" fill="url(#paint1_linear_12164_1702)"/>
<path d="M38.2115 10.4986C38.2115 10.4986 38.3702 10.8149 38.1559 10.9924L37.8225 11.3627C37.7034 11.5093 37.5922 11.6713 37.4493 11.8487C37.3064 12.0262 37.1556 12.2422 36.9968 12.4814L36.7428 12.8517L36.5046 13.2683C36.1256 13.9107 35.794 14.5784 35.5123 15.2665C35.1859 16.0944 34.9362 16.9491 34.7661 17.8202C34.5831 18.8048 34.5138 19.8063 34.5597 20.8059C34.6181 21.8757 34.8292 22.9324 35.1868 23.9459C35.5771 25.0114 36.0577 26.0436 36.6237 27.0319C37.1636 28.0502 37.7193 29.0763 38.2115 30.1179C38.6805 31.1976 38.9492 32.3495 39.0053 33.5202C39.0053 33.8056 39.0053 34.0988 39.0053 34.392V34.5309V34.6312V34.824C39.0053 34.9629 39.0053 35.0709 38.9418 35.2252C38.8042 35.79 38.5907 36.3347 38.3067 36.8454C37.8038 37.7644 37.1057 38.5692 36.2585 39.2061C35.5436 39.7628 34.7389 40.2007 33.8769 40.5023C33.1849 40.7313 32.4636 40.8663 31.7335 40.9035C31.4692 40.9213 31.204 40.9213 30.9396 40.9035C30.7317 40.8961 30.5246 40.8729 30.3204 40.834L29.7965 40.7414L30.5904 38.3035L30.892 38.4115C31.0124 38.4614 31.1373 38.5002 31.2651 38.5272C31.442 38.5732 31.6226 38.6041 31.805 38.6198H32.1304C32.2495 38.6198 32.3686 38.6198 32.4956 38.6198C32.7758 38.614 33.0549 38.583 33.3292 38.5272C34.8475 38.2168 36.1807 37.3419 37.0445 36.0893C37.2865 35.7285 37.4812 35.3397 37.624 34.932C37.6633 34.8132 37.6951 34.6921 37.7193 34.5694L37.7986 34.23C37.8385 33.99 37.8624 33.7477 37.8701 33.5048C37.8797 32.4662 37.6885 31.4351 37.3064 30.4651C36.9037 29.4117 36.4399 28.3814 35.9172 27.379C35.3859 26.3436 34.9219 25.2769 34.5279 24.185C34.3414 23.638 34.185 23.0818 34.0595 22.5186L33.8293 21.7008C33.8293 21.4231 33.7579 21.1453 33.7182 20.8753C33.6011 19.8118 33.5825 18.7403 33.6626 17.6736C33.752 16.7122 33.9247 15.7599 34.1786 14.8267C34.3977 14.0303 34.6927 13.2554 35.0598 12.5122C35.1445 12.3425 35.2239 12.1805 35.2979 12.0262C35.3932 11.8796 35.4726 11.733 35.552 11.5941C35.7187 11.3164 35.8775 11.0618 36.0442 10.8226C36.2109 10.5835 36.3459 10.3829 36.4729 10.2209L36.7825 9.83511C36.9254 9.59595 37.2747 9.68853 37.2747 9.68853L38.2115 10.4986Z" fill="url(#paint2_linear_12164_1702)"/>
<path d="M15.3562 13.3068C15.6976 14.4255 16.285 15.6213 17.4044 16.0456C17.7807 16.1771 18.1823 16.226 18.5804 16.1886C18.9785 16.1512 19.3631 16.0287 19.7066 15.8296C20.3882 15.4206 20.9233 14.8171 21.2387 14.1015C21.5969 13.3811 21.6759 12.5593 21.461 11.787C21.3364 11.5129 21.2458 11.2254 21.1911 10.9306C21.1435 10.298 21.6515 9.77333 21.9849 9.241C22.35 8.69358 22.5859 8.07444 22.6756 7.42798C22.7329 7.0949 22.7056 6.75326 22.5962 6.43273C22.4248 6.10665 22.1529 5.8407 21.8184 5.67197C21.484 5.50324 21.1037 5.44015 20.7307 5.4915C19.9858 5.61199 19.281 5.90288 18.6746 6.34016C17.0154 7.3894 15.3324 8.77038 15.0307 10.676C14.9399 11.5655 15.051 12.4636 15.3562 13.3068Z" fill="url(#paint3_radial_12164_1702)"/>
<path style="mix-blend-mode:multiply" opacity="0.55" d="M15.0937 10.4753C15.0892 10.5344 15.0892 10.5937 15.0937 10.6528C14.9917 11.5482 15.0947 12.4545 15.3954 13.3067C15.7367 14.4254 16.3242 15.6213 17.4435 16.0456C17.8199 16.1771 18.2215 16.2259 18.6196 16.1885C19.0176 16.1512 19.4023 16.0286 19.7458 15.8296C20.4274 15.4206 20.9625 14.817 21.2779 14.1014C21.5627 13.5096 21.6726 12.8525 21.5955 12.2035C19.3726 13.3145 16.7767 12.3424 15.0937 10.4753Z" fill="url(#paint4_radial_12164_1702)"/>
<path d="M40.5455 12.1572C40.1962 13.3299 39.5928 14.572 38.4338 15.0272C38.046 15.1675 37.6308 15.2216 37.2187 15.1856C36.8065 15.1495 36.408 15.0242 36.0522 14.8189C35.3441 14.394 34.7893 13.7659 34.4645 13.0213C34.0741 12.2667 33.9836 11.3987 34.2104 10.5834C34.3362 10.2963 34.4268 9.99597 34.4804 9.68841C34.528 9.03263 33.9961 8.48487 33.623 7.92939C33.2333 7.36435 32.9809 6.72066 32.8847 6.04692C32.8234 5.69865 32.8507 5.34111 32.9641 5.00541C33.1398 4.66437 33.4214 4.38558 33.7689 4.20839C34.1165 4.03121 34.5125 3.96456 34.9011 4.01787C35.6794 4.13775 36.4171 4.43665 37.0525 4.88967C38.799 5.96206 40.5534 7.40477 40.8868 9.37981C40.984 10.3187 40.8675 11.2669 40.5455 12.1572Z" fill="url(#paint5_radial_12164_1702)"/>
<path style="mix-blend-mode:multiply" opacity="0.55" d="M34.0518 11.2084C34.0163 11.8262 34.1448 12.4426 34.4249 12.9983C34.7498 13.7428 35.3046 14.371 36.0126 14.7959C36.3684 15.0012 36.767 15.1265 37.1791 15.1626C37.5912 15.1986 38.0064 15.1445 38.3942 15.0042C39.5532 14.549 40.1566 13.3069 40.5059 12.1342C40.7723 11.3407 40.888 10.5068 40.8473 9.6731C38.9976 11.4244 36.4651 12.2885 34.0518 11.2084Z" fill="url(#paint6_radial_12164_1702)"/>
<path d="M29.32 44.4831L27.9546 44.3828L26.5891 44.5063C27.0655 46.765 27.289 49.0672 27.256 51.3726C27.2351 51.4705 27.2426 51.5721 27.2776 51.6661C27.3127 51.7601 27.3739 51.8428 27.4544 51.905C27.61 51.9776 27.7824 52.0095 27.9546 51.9975C28.1242 52.0096 28.294 51.9776 28.4468 51.905C28.6532 51.7815 28.6532 51.5655 28.6532 51.3726C28.6184 49.0594 28.842 46.7494 29.32 44.4831Z" fill="url(#paint7_radial_12164_1702)"/>
<path d="M33.5435 39.3526C33.0003 38.8967 32.3383 38.595 31.6303 38.4808H31.5906C29.1986 37.9175 26.7028 37.9175 24.3109 38.4808C23.6028 38.595 22.9409 38.8967 22.3977 39.3526C22.2328 39.5422 22.1143 39.7657 22.0511 40.0062C21.9878 40.2467 21.9815 40.498 22.0325 40.7413C22.3103 42.5543 24.3267 44.0356 26.5972 44.9074C27.0304 45.0972 27.4961 45.207 27.9706 45.2314C28.4451 45.207 28.9108 45.0972 29.344 44.9074C31.6144 44.0356 33.6308 42.5543 33.9007 40.7413C33.9528 40.4986 33.9477 40.2476 33.8859 40.0071C33.824 39.7667 33.707 39.5429 33.5435 39.3526Z" fill="url(#paint8_radial_12164_1702)"/>
<path style="mix-blend-mode:multiply" opacity="0.35" d="M29.4552 42.6239C28.9832 42.814 28.481 42.9236 27.9707 42.9479C27.4603 42.9244 26.9579 42.8147 26.4862 42.6239C24.7785 42.109 23.2634 41.1193 22.1279 39.7771C22.0094 40.0848 21.9765 40.4174 22.0326 40.7414C22.3105 42.5545 24.3269 44.0357 26.5973 44.9075C27.0305 45.0973 27.4962 45.2072 27.9707 45.2316C28.4452 45.2072 28.9109 45.0973 29.3441 44.9075C31.6145 44.0357 33.631 42.5545 33.9009 40.7414C33.9689 40.412 33.9442 40.0708 33.8294 39.7539C32.6929 41.1072 31.1716 42.1054 29.4552 42.6239Z" fill="url(#paint9_radial_12164_1702)"/>
</g>
<defs>
<linearGradient id="paint0_linear_12164_1702" x1="22434.4" y1="17100.7" x2="16979.6" y2="11217.1" gradientUnits="userSpaceOnUse">
<stop stop-color="white"/>
<stop offset="0.39" stop-color="#B5653A"/>
<stop offset="0.86" stop-color="#945326"/>
</linearGradient>
<linearGradient id="paint1_linear_12164_1702" x1="21.5482" y1="9.69605" x2="21.5482" y2="41.0884" gradientUnits="userSpaceOnUse">
<stop stop-color="#B46439"/>
<stop offset="0.47" stop-color="#BD7650"/>
<stop offset="1" stop-color="#B46439"/>
</linearGradient>
<linearGradient id="paint2_linear_12164_1702" x1="4760.08" y1="6103.87" x2="4760.08" y2="7375.27" gradientUnits="userSpaceOnUse">
<stop stop-color="#B46439"/>
<stop offset="0.47" stop-color="#BD7650"/>
<stop offset="1" stop-color="#B46439"/>
</linearGradient>
<radialGradient id="paint3_radial_12164_1702" cx="0" cy="0" r="1" gradientUnits="userSpaceOnUse" gradientTransform="translate(18.7484 10.7344) rotate(4.31541) scale(4.75445 4.62206)">
<stop stop-color="#FD6A5A"/>
<stop offset="0.25" stop-color="#F66254"/>
<stop offset="0.63" stop-color="#E34C43"/>
<stop offset="1" stop-color="#CC312D"/>
</radialGradient>
<radialGradient id="paint4_radial_12164_1702" cx="0" cy="0" r="1" gradientUnits="userSpaceOnUse" gradientTransform="translate(3308.54 1017.86) scale(39.3176 34.295)">
<stop stop-color="#FD6A5A"/>
<stop offset="0.25" stop-color="#F66254"/>
<stop offset="0.63" stop-color="#E34C43"/>
<stop offset="1" stop-color="#CC312D"/>
</radialGradient>
<radialGradient id="paint5_radial_12164_1702" cx="0" cy="0" r="1" gradientUnits="userSpaceOnUse" gradientTransform="translate(9088.89 1741.42) rotate(175.554) scale(50.5726 70.2137)">
<stop stop-color="#FD6A5A"/>
<stop offset="0.25" stop-color="#F66254"/>
<stop offset="0.63" stop-color="#E34C43"/>
<stop offset="1" stop-color="#CC312D"/>
</radialGradient>
<radialGradient id="paint6_radial_12164_1702" cx="0" cy="0" r="1" gradientUnits="userSpaceOnUse" gradientTransform="translate(7384.98 631.1) rotate(175.554) scale(42.686 34.4928)">
<stop stop-color="#FD6A5A"/>
<stop offset="0.25" stop-color="#F66254"/>
<stop offset="0.63" stop-color="#E34C43"/>
<stop offset="1" stop-color="#CC312D"/>
</radialGradient>
<radialGradient id="paint7_radial_12164_1702" cx="0" cy="0" r="1" gradientUnits="userSpaceOnUse" gradientTransform="translate(1410.91 1909.45) scale(10.1043 28.1836)">
<stop stop-color="#FD6A5A"/>
<stop offset="0.25" stop-color="#F66254"/>
<stop offset="0.63" stop-color="#E34C43"/>
<stop offset="1" stop-color="#CC312D"/>
</radialGradient>
<radialGradient id="paint8_radial_12164_1702" cx="0" cy="0" r="1" gradientUnits="userSpaceOnUse" gradientTransform="translate(28.0579 39.5455) scale(5.73169 5.57023)">
<stop stop-color="#D2946B"/>
<stop offset="0.69" stop-color="#CA804F"/>
</radialGradient>
<radialGradient id="paint9_radial_12164_1702" cx="0" cy="0" r="1" gradientUnits="userSpaceOnUse" gradientTransform="translate(6056.62 1329.74) scale(76.6065 35.1666)">
<stop stop-color="#D2946B"/>
<stop offset="0.69" stop-color="#CA804F"/>
</radialGradient>
<clipPath id="clip0_12164_1702">
<rect width="56" height="56" rx="28" fill="white"/>
</clipPath>
</defs>
</svg>
