<svg width="56" height="56" viewBox="0 0 56 56" fill="none" xmlns="http://www.w3.org/2000/svg">
<rect width="56" height="56" rx="28" fill="#F4D9BF"/>
<path d="M10.4178 30.7075C11.8396 31.2145 13.3189 31.5432 14.8216 31.6861C20.5297 32.9426 26.3974 33.3118 32.2179 32.7806C42.9571 32.0724 45.3007 26.5354 45.3007 26.5354C45.3007 26.5354 41.8626 18.8094 29.4495 17.1612C25.4703 16.6224 21.4258 17.4431 17.9714 19.4905C14.5171 21.5378 11.8554 24.6918 10.4178 28.4412C10.4178 28.4412 9.47778 30.5916 10.4178 30.7075Z" fill="#CE9467"/>
<path d="M26.5394 21.2173L25.5865 21.3976L26.7841 21.1787C26.7036 21.1979 26.6218 21.2108 26.5394 21.2173Z" fill="url(#paint0_radial_12164_610)"/>
<path style="mix-blend-mode:multiply" opacity="0.8" d="M26.7839 21.1788C27.4364 21.0758 28.0673 20.9985 28.6768 20.947C27.9814 20.9985 27.3505 21.0887 26.7839 21.1788Z" fill="url(#paint1_radial_12164_610)"/>
<path d="M16.9203 28.3254C16.431 28.467 16.9204 28.3254 16.4826 28.9821C16.0448 29.6388 17.0491 29.4972 17.4998 29.9221C17.9505 30.347 19.367 30.5402 24.0541 31.3514C28.7412 32.1626 31.78 31.4544 36.274 29.6903C40.7679 27.9262 41.4246 26.4068 41.4246 26.4068C41.4246 26.4068 40.9611 25.0032 35.9392 22.5438C33.6972 21.3541 31.172 20.8018 28.6381 20.9471C28.0286 20.9986 27.3977 21.0758 26.7452 21.1789L25.5477 21.3978H25.3417C23.1729 21.9108 21.1368 22.8762 19.3669 24.2306C18.1626 25.322 17.3108 26.7477 16.9203 28.3254Z" fill="url(#paint2_radial_12164_610)"/>
<path d="M33.1708 21.8998H33.3253C34.1518 22.9452 34.605 24.237 34.613 25.5696C34.6061 27.1725 33.9637 28.7072 32.8267 29.837C31.6897 30.9668 30.1509 31.5993 28.548 31.5959C26.9474 31.5959 25.4119 30.9618 24.2777 29.8324C23.1435 28.703 22.5028 27.1703 22.496 25.5696C22.4933 24.4227 22.8243 23.2997 23.4488 22.3376C26.591 21.3193 29.9498 21.168 33.1708 21.8998Z" fill="url(#paint3_radial_12164_610)"/>
<path style="mix-blend-mode:multiply" opacity="0.5" d="M25.651 25.5827C25.6527 25.9666 25.73 26.3463 25.8784 26.7003C26.0269 27.0543 26.2436 27.3756 26.5162 27.6458C26.7889 27.916 27.112 28.1299 27.4673 28.2753C27.8226 28.4206 28.2031 28.4945 28.5869 28.4928C28.9708 28.4945 29.3512 28.4206 29.7065 28.2753C30.0618 28.1299 30.3849 27.916 30.6575 27.6458C30.9301 27.3756 31.1468 27.0543 31.2953 26.7003C31.4438 26.3463 31.5211 25.9666 31.5227 25.5827C31.5228 25.1978 31.4467 24.8166 31.299 24.4611C31.1513 24.1057 30.9349 23.7829 30.6621 23.5113C30.3893 23.2397 30.0655 23.0246 29.7094 22.8785C29.3533 22.7324 28.9719 22.658 28.5869 22.6597C28.202 22.658 27.8205 22.7324 27.4644 22.8785C27.1083 23.0246 26.7845 23.2397 26.5117 23.5113C26.2389 23.7829 26.0225 24.1057 25.8748 24.4611C25.7271 24.8166 25.651 25.1978 25.651 25.5827Z" fill="url(#paint4_radial_12164_610)"/>
<g style="mix-blend-mode:multiply">
<path d="M26.1659 25.5826C26.1676 25.9039 26.2325 26.2217 26.357 26.5178C26.4815 26.814 26.6632 27.0828 26.8915 27.3088C27.1199 27.5348 27.3906 27.7136 27.6881 27.835C27.9856 27.9564 28.304 28.018 28.6253 28.0163C29.2719 28.0163 29.8923 27.7603 30.3507 27.3042C30.8092 26.8482 31.0685 26.2292 31.0719 25.5826C31.0719 24.9337 30.8141 24.3114 30.3553 23.8526C29.8965 23.3938 29.2742 23.136 28.6253 23.136C28.3029 23.1343 27.9834 23.1963 27.6851 23.3185C27.3868 23.4407 27.1155 23.6207 26.887 23.848C26.6584 24.0754 26.4771 24.3457 26.3533 24.6433C26.2296 24.941 26.1659 25.2602 26.1659 25.5826Z" fill="#3A4043"/>
</g>
<g style="mix-blend-mode:screen" opacity="0.2">
<path style="mix-blend-mode:screen" opacity="0.2" d="M30.0159 23.458C30.5596 23.0906 31.1538 22.8043 31.78 22.6082C31.78 22.6082 31.8959 22.6983 31.78 22.724C31.2531 23.1006 30.6876 23.42 30.0931 23.6769C30.0416 23.7155 29.9129 23.5353 30.0159 23.458Z" fill="url(#paint5_radial_12164_610)"/>
<path style="mix-blend-mode:screen" opacity="0.2" d="M30.3635 23.8055C31.2167 23.4178 32.1327 23.1866 33.0677 23.123C33.2222 23.123 33.2222 23.3162 33.0677 23.3548C32.2387 23.7176 31.3761 23.9979 30.4923 24.1918C30.2992 24.2304 30.1318 23.9085 30.3635 23.8055Z" fill="url(#paint6_radial_12164_610)"/>
<path style="mix-blend-mode:screen" opacity="0.2" d="M31.1619 24.5395C31.9367 24.2771 32.7521 24.155 33.5698 24.179C33.7244 24.179 33.7887 24.3721 33.6342 24.4108C32.846 24.6341 32.0324 24.7553 31.2134 24.7713C31.1884 24.7668 31.1654 24.755 31.1471 24.7374C31.1288 24.7199 31.1161 24.6973 31.1106 24.6725C31.1051 24.6478 31.1071 24.622 31.1162 24.5983C31.1253 24.5746 31.1412 24.5542 31.1619 24.5395Z" fill="url(#paint7_radial_12164_610)"/>
<path style="mix-blend-mode:screen" opacity="0.2" d="M31.4838 25.4409C31.8539 25.37 32.2341 25.37 32.6041 25.4409C33.0419 25.4409 33.4797 25.5053 33.8918 25.5826C33.9191 25.5826 33.9452 25.5934 33.9646 25.6127C33.9839 25.6321 33.9947 25.6582 33.9947 25.6856C33.9947 25.7129 33.9839 25.7391 33.9646 25.7584C33.9452 25.7777 33.9191 25.7886 33.8918 25.7886C33.5252 25.8447 33.1551 25.8748 32.7843 25.8787C32.3585 25.9546 31.9225 25.9546 31.4967 25.8787C31.4386 25.8804 31.3823 25.859 31.34 25.8192C31.2978 25.7793 31.273 25.7243 31.2713 25.6663C31.2696 25.6082 31.2911 25.5518 31.3309 25.5096C31.3708 25.4673 31.4258 25.4426 31.4838 25.4409Z" fill="url(#paint8_radial_12164_610)"/>
<path style="mix-blend-mode:screen" opacity="0.2" d="M31.5741 26.3938C32.0291 26.4218 32.4707 26.5587 32.8618 26.793L34.0722 27.3209C34.1881 27.3209 34.0722 27.5398 33.9949 27.5141L32.5785 27.1406C32.1803 27.0832 31.801 26.9333 31.4712 26.7028C31.3167 26.5998 31.4325 26.3938 31.5741 26.3938Z" fill="url(#paint9_radial_12164_610)"/>
<path style="mix-blend-mode:screen" opacity="0.2" d="M31.3165 27.1022C31.986 27.2438 32.514 27.849 33.0934 28.1709C33.2222 28.2482 33.0934 28.4671 32.9904 28.4156C32.3134 28.2033 31.6838 27.8622 31.1362 27.4112C31.1012 27.3845 31.0773 27.346 31.0687 27.3029C31.0602 27.2598 31.0677 27.2151 31.0899 27.1771C31.112 27.1391 31.1473 27.1106 31.189 27.0968C31.2307 27.083 31.276 27.0849 31.3165 27.1022Z" fill="url(#paint10_radial_12164_610)"/>
<path style="mix-blend-mode:screen" opacity="0.2" d="M30.8659 27.617C31.2393 27.617 31.5098 27.9776 31.7802 28.2223C32.089 28.516 32.3575 28.8494 32.5785 29.2137C32.6815 29.3683 32.4755 29.5099 32.3468 29.4069C32.0248 29.1365 31.7415 28.8403 31.4325 28.557C31.1234 28.2737 30.8531 28.1321 30.7243 27.7973C30.7182 27.7758 30.7172 27.7531 30.7215 27.7312C30.7259 27.7093 30.7353 27.6887 30.7491 27.6711C30.7629 27.6535 30.7808 27.6394 30.8011 27.63C30.8214 27.6206 30.8436 27.6162 30.8659 27.617Z" fill="url(#paint11_radial_12164_610)"/>
<path style="mix-blend-mode:screen" opacity="0.2" d="M30.5052 28.0164C31.0589 28.3769 31.3293 29.0851 31.7156 29.6002C31.8444 29.7418 31.5868 29.935 31.4452 29.7933C30.9764 29.3359 30.585 28.8053 30.2862 28.2224C30.2219 28.1451 30.3636 28.0164 30.5052 28.0164Z" fill="url(#paint12_radial_12164_610)"/>
<path style="mix-blend-mode:screen" opacity="0.2" d="M30.0161 28.5829C30.3108 29.0552 30.5119 29.5798 30.6084 30.1281C30.6203 30.1759 30.6128 30.2265 30.5875 30.2688C30.5621 30.311 30.521 30.3415 30.4732 30.3534C30.4254 30.3654 30.3748 30.3579 30.3325 30.3325C30.2902 30.3071 30.2598 30.2661 30.2479 30.2182C29.9948 29.7322 29.8003 29.2178 29.6684 28.6859C29.6426 28.467 29.926 28.4413 30.0161 28.5829Z" fill="url(#paint13_radial_12164_610)"/>
<path style="mix-blend-mode:screen" opacity="0.2" d="M29.0501 28.7116C29.6038 29.0335 29.4879 30.0765 29.6167 30.6173C29.6167 30.8105 29.372 30.9006 29.2948 30.6946C29.2064 30.3946 29.1376 30.0892 29.0887 29.7803C29.0887 29.4713 28.857 29.2009 28.8184 28.9047C28.7797 28.6086 28.9214 28.6343 29.0501 28.7116Z" fill="url(#paint14_radial_12164_610)"/>
<path style="mix-blend-mode:screen" opacity="0.2" d="M28.3807 28.8148C28.3973 28.7909 28.4194 28.7713 28.4452 28.7578C28.471 28.7443 28.4996 28.7373 28.5287 28.7373C28.5578 28.7373 28.5865 28.7443 28.6123 28.7578C28.6381 28.7713 28.6602 28.7909 28.6768 28.8148C28.7313 28.9453 28.7595 29.0854 28.7595 29.2268C28.7595 29.3683 28.7313 29.5083 28.6768 29.6389C28.6511 29.9904 28.6511 30.3433 28.6768 30.6948C28.6768 30.8106 28.5223 30.8879 28.445 30.7978C28.2777 30.5427 28.2007 30.239 28.2261 29.935C28.1774 29.5545 28.2307 29.1679 28.3807 28.8148Z" fill="url(#paint15_radial_12164_610)"/>
<path style="mix-blend-mode:screen" opacity="0.2" d="M27.6852 28.7116C27.7625 28.6086 27.9041 28.7116 27.917 28.8146C27.8672 29.2727 27.713 29.7132 27.4663 30.1023C27.389 30.2439 27.1444 30.1023 27.1959 29.9993C27.3006 29.5501 27.4652 29.117 27.6852 28.7116Z" fill="url(#paint16_radial_12164_610)"/>
<path style="mix-blend-mode:screen" opacity="0.2" d="M26.5521 29.4456C26.7195 29.0722 26.8611 28.5571 27.2217 28.3253C27.2485 28.3116 27.2788 28.306 27.3087 28.3092C27.3387 28.3125 27.3671 28.3244 27.3903 28.3436C27.4136 28.3627 27.4307 28.3883 27.4397 28.4171C27.4486 28.4459 27.449 28.4766 27.4406 28.5056C27.3547 28.6829 27.2512 28.8512 27.1316 29.0078C27.0028 29.1881 26.9127 29.3941 26.7968 29.5872C26.6809 29.7804 26.4877 29.6001 26.5521 29.4456Z" fill="url(#paint17_radial_12164_610)"/>
<path style="mix-blend-mode:screen" opacity="0.2" d="M25.9985 28.789C26.1788 28.5958 26.3204 28.364 26.5908 28.2868C26.6246 28.2778 26.6603 28.2789 26.6934 28.2898C26.7266 28.3008 26.7559 28.3211 26.7777 28.3484C26.7995 28.3757 26.813 28.4087 26.8164 28.4435C26.8197 28.4783 26.813 28.5133 26.7969 28.5443C26.6357 28.752 26.4285 28.9195 26.1916 29.0336C26.1592 29.0592 26.1179 29.0709 26.0769 29.0661C26.0358 29.0612 25.9983 29.0403 25.9727 29.0079C25.9471 28.9754 25.9354 28.9341 25.9403 28.8931C25.9451 28.852 25.9661 28.8146 25.9985 28.789Z" fill="url(#paint18_radial_12164_610)"/>
<path style="mix-blend-mode:screen" opacity="0.2" d="M25.4578 28.3125C25.6767 28.0421 25.9085 27.6429 26.2948 27.7202C26.3174 27.726 26.3385 27.7364 26.3568 27.7509C26.3751 27.7653 26.3902 27.7834 26.4011 27.804C26.412 27.8246 26.4185 27.8473 26.4201 27.8705C26.4218 27.8938 26.4186 27.9172 26.4107 27.9391C26.3334 28.2481 25.8956 28.3769 25.6509 28.5443C25.4063 28.7117 25.3676 28.4284 25.4578 28.3125Z" fill="url(#paint19_radial_12164_610)"/>
<path style="mix-blend-mode:screen" opacity="0.2" d="M25.226 27.4883C25.3419 27.3595 25.432 27.2308 25.6123 27.205C25.7926 27.1793 25.8699 27.205 25.8184 27.411C25.7669 27.6171 25.6124 27.6686 25.445 27.7845C25.2776 27.9004 25.0972 27.6428 25.226 27.4883Z" fill="url(#paint20_radial_12164_610)"/>
<path style="mix-blend-mode:screen" opacity="0.2" d="M24.7365 26.9603C24.834 26.8237 24.9746 26.7239 25.1357 26.677C25.1724 26.6637 25.2126 26.6636 25.2493 26.6768C25.2861 26.69 25.3171 26.7156 25.337 26.7492C25.3568 26.7828 25.3643 26.8223 25.3581 26.8609C25.3519 26.8994 25.3325 26.9346 25.3031 26.9603C25.1743 27.102 25.0584 27.0891 24.891 27.1792C24.8627 27.1875 24.8325 27.1867 24.8047 27.177C24.7768 27.1672 24.7527 27.1491 24.7357 27.1249C24.7186 27.1008 24.7096 27.072 24.7097 27.0425C24.7099 27.013 24.7192 26.9842 24.7365 26.9603Z" fill="url(#paint21_radial_12164_610)"/>
<path style="mix-blend-mode:screen" opacity="0.2" d="M29.8486 22.6726C30.1777 22.3601 30.5679 22.119 30.9946 21.9644C31.0976 21.9644 31.2264 22.0416 31.1233 22.1317C30.7885 22.4279 30.4795 22.8528 30.0417 22.9816C30.0026 22.9904 29.9619 22.9868 29.925 22.9713C29.888 22.9559 29.8569 22.9294 29.8357 22.8955C29.8145 22.8616 29.8043 22.8219 29.8066 22.782C29.8089 22.742 29.8236 22.7038 29.8486 22.6726Z" fill="url(#paint22_radial_12164_610)"/>
<path style="mix-blend-mode:screen" opacity="0.2" d="M28.9729 22.6466C29.2193 22.321 29.5046 22.027 29.8227 21.771C29.9386 21.6809 30.0545 21.771 29.9644 21.9127C29.7327 22.227 29.4834 22.528 29.2176 22.814C29.0888 22.9428 28.8699 22.7754 28.9729 22.6466Z" fill="url(#paint23_radial_12164_610)"/>
<path style="mix-blend-mode:screen" opacity="0.2" d="M28.7668 21.7583C28.7794 21.7454 28.7956 21.7366 28.8133 21.733C28.8309 21.7294 28.8493 21.7312 28.8659 21.7381C28.8825 21.7451 28.8967 21.7568 28.9065 21.7719C28.9164 21.7869 28.9216 21.8046 28.9213 21.8226C28.7797 22.2218 28.7282 22.6596 28.5479 23.0459C28.5479 23.1747 28.3033 23.0459 28.329 22.9429C28.417 22.5289 28.5644 22.1299 28.7668 21.7583Z" fill="url(#paint24_radial_12164_610)"/>
<path style="mix-blend-mode:screen" opacity="0.2" d="M27.7498 21.8999C27.767 21.8687 27.7952 21.8451 27.829 21.8337C27.8628 21.8224 27.8997 21.8243 27.9322 21.8389C27.9647 21.8535 27.9904 21.8798 28.0044 21.9126C28.0183 21.9454 28.0194 21.9823 28.0074 22.0158C27.9813 22.3071 27.9813 22.6002 28.0074 22.8914C28.0074 22.9393 27.9884 22.9851 27.9546 23.0189C27.9207 23.0527 27.8749 23.0717 27.8271 23.0717C27.7793 23.0717 27.7334 23.0527 27.6996 23.0189C27.6658 22.9851 27.6468 22.9393 27.6468 22.8914C27.5716 22.5586 27.6078 22.2102 27.7498 21.8999Z" fill="url(#paint25_radial_12164_610)"/>
<path style="mix-blend-mode:screen" opacity="0.2" d="M26.9384 22.0286C27.1323 22.404 27.2918 22.7961 27.4148 23.2003C27.4269 23.2339 27.4258 23.2707 27.4119 23.3035C27.3979 23.3363 27.3721 23.3627 27.3396 23.3773C27.3071 23.3919 27.2703 23.3937 27.2365 23.3824C27.2027 23.3711 27.1744 23.3475 27.1573 23.3162C26.9153 22.9269 26.7697 22.4855 26.7324 22.0286C26.7324 21.9384 26.9384 21.9256 26.9384 22.0286Z" fill="url(#paint26_radial_12164_610)"/>
<path style="mix-blend-mode:screen" opacity="0.2" d="M26.0759 22.1831C26.3693 22.5137 26.6241 22.8766 26.8355 23.2647C26.8526 23.2955 26.8568 23.3317 26.8472 23.3655C26.8375 23.3993 26.8148 23.4279 26.7841 23.445C26.7533 23.4621 26.717 23.4663 26.6832 23.4566C26.6494 23.4469 26.6208 23.4242 26.6038 23.3935C26.3462 23.0458 26.1016 22.6595 25.8698 22.2861C25.8054 22.1573 25.9857 22.0672 26.0759 22.1831Z" fill="url(#paint27_radial_12164_610)"/>
<path style="mix-blend-mode:screen" opacity="0.2" d="M25.3932 22.724C25.7151 23.0202 26.1786 23.3035 26.3718 23.7155C26.3718 23.8057 26.3718 23.9216 26.2302 23.8572C25.8535 23.5813 25.5194 23.2516 25.2386 22.8785C25.1356 22.7755 25.2773 22.6339 25.3932 22.724Z" fill="url(#paint28_radial_12164_610)"/>
<path style="mix-blend-mode:screen" opacity="0.2" d="M25.1743 23.6381C25.4802 23.6823 25.769 23.8067 26.0113 23.9987C26.0406 24.0244 26.06 24.0596 26.0662 24.0981C26.0724 24.1367 26.0649 24.1761 26.0451 24.2098C26.0252 24.2434 25.9943 24.269 25.9575 24.2822C25.9208 24.2953 25.8806 24.2953 25.8439 24.282C25.5625 24.2013 25.2999 24.0656 25.0712 23.8828C24.9425 23.8055 25.0197 23.5866 25.1743 23.6381Z" fill="url(#paint29_radial_12164_610)"/>
<path style="mix-blend-mode:screen" opacity="0.2" d="M25.2258 25.016C25.2608 25.026 25.2916 25.0471 25.3135 25.0761C25.3354 25.1051 25.3473 25.1405 25.3473 25.1769C25.3473 25.2133 25.3354 25.2487 25.3135 25.2777C25.2916 25.3068 25.2608 25.3279 25.2258 25.3379C25.2009 25.345 25.1748 25.3462 25.1493 25.3415C25.1238 25.3368 25.0998 25.3262 25.0791 25.3106C25.0584 25.295 25.0416 25.2748 25.0301 25.2516C25.0185 25.2284 25.0125 25.2028 25.0125 25.1769C25.0125 25.151 25.0185 25.1255 25.0301 25.1023C25.0416 25.0791 25.0584 25.0589 25.0791 25.0433C25.0998 25.0277 25.1238 25.0171 25.1493 25.0123C25.1748 25.0076 25.2009 25.0088 25.2258 25.016Z" fill="url(#paint30_radial_12164_610)"/>
</g>
<path style="mix-blend-mode:screen" opacity="0.2" d="M24.5049 22.415C24.645 22.4105 24.7836 22.4462 24.904 22.518C24.9039 22.5016 24.9073 22.4854 24.9139 22.4704C24.9206 22.4555 24.9302 22.4421 24.9424 22.4311C24.9546 22.4202 24.9689 22.4119 24.9845 22.4069C25.0001 22.4019 25.0166 22.4003 25.0329 22.4021C25.3161 22.4665 25.535 22.5308 25.5479 22.8785C25.5479 24.1662 25.0715 25.2478 25.0972 26.484C25.1037 27.1242 25.304 27.7475 25.6718 28.2716C26.0396 28.7957 26.5576 29.196 27.1575 29.4199C27.9162 29.6327 28.7159 29.6536 29.4847 29.4805C30.2534 29.3074 30.9671 28.9458 31.5613 28.4284C32.0249 28.1065 32.4241 28.7631 32.1279 29.1366C31.5413 29.9064 30.7347 30.4799 29.8149 30.7811C28.8951 31.0823 27.9056 31.0971 26.9772 30.8234C25.9437 30.5709 25.0138 30.0046 24.3151 29.2022C23.6165 28.3998 23.1835 27.4008 23.0756 26.3423C22.8567 25.3122 22.7408 22.415 24.5049 22.415Z" fill="url(#paint31_linear_12164_610)"/>
<path style="mix-blend-mode:screen" opacity="0.8" d="M24.5562 23.0073C24.6823 23.0047 24.8067 23.0358 24.9167 23.0974C24.9183 23.0822 24.9229 23.0674 24.9303 23.0539C24.9377 23.0405 24.9476 23.0286 24.9595 23.019C24.9715 23.0095 24.9853 23.0023 25.0001 22.9981C25.0148 22.9939 25.0303 22.9927 25.0455 22.9944C25.2902 22.9944 25.4833 23.1103 25.4962 23.4322C25.4962 24.5396 25.0712 25.5698 25.097 26.69C25.1119 27.2588 25.2947 27.8104 25.6223 28.2755C25.95 28.7406 26.4078 29.0985 26.9383 29.304C27.6275 29.4931 28.3527 29.5086 29.0493 29.349C29.7458 29.1895 30.392 28.8599 30.9301 28.3897C31.3421 28.0936 31.7027 28.6988 31.4194 29.0465C30.8901 29.7341 30.1663 30.2467 29.342 30.5176C28.5176 30.7886 27.6308 30.8054 26.7967 30.5659C25.8475 30.3508 24.9894 29.8441 24.3428 29.1166C23.6962 28.3892 23.2936 27.4776 23.1913 26.5098C23.0754 25.6213 22.9595 23.0073 24.5562 23.0073Z" fill="url(#paint32_linear_12164_610)"/>
<path opacity="0.4" d="M23.2429 23.87C23.2463 24.3869 23.454 24.8814 23.8207 25.2457C24.1874 25.61 24.6833 25.8144 25.2002 25.8144C25.7171 25.8144 26.2129 25.61 26.5796 25.2457C26.9463 24.8814 27.154 24.3869 27.1574 23.87C27.1557 23.6147 27.1038 23.3622 27.0045 23.1269C26.9053 22.8917 26.7605 22.6783 26.5788 22.4989C26.397 22.3195 26.1818 22.1777 25.9453 22.0816C25.7087 21.9854 25.4555 21.9368 25.2002 21.9385C24.6855 21.9385 24.1915 22.1412 23.8252 22.5027C23.4589 22.8642 23.2497 23.3554 23.2429 23.87Z" fill="white"/>
<path opacity="0.9" d="M23.5519 23.7153C23.5553 24.1434 23.7277 24.5528 24.0316 24.8543C24.3355 25.1558 24.7463 25.3249 25.1744 25.3249C25.3868 25.3266 25.5975 25.2862 25.7943 25.2061C25.9911 25.126 26.17 25.0077 26.3208 24.8581C26.4716 24.7084 26.5913 24.5304 26.673 24.3343C26.7547 24.1382 26.7968 23.9278 26.7968 23.7153C26.7968 23.5029 26.7547 23.2925 26.673 23.0964C26.5913 22.9003 26.4716 22.7223 26.3208 22.5726C26.17 22.423 25.9911 22.3047 25.7943 22.2246C25.5975 22.1444 25.3868 22.1041 25.1744 22.1058C24.7463 22.1058 24.3355 22.2749 24.0316 22.5764C23.7277 22.8779 23.5553 23.2873 23.5519 23.7153Z" fill="white"/>
<path style="mix-blend-mode:screen" opacity="0.8" d="M30.9689 22.5952C31.497 22.9952 31.9065 23.5312 32.1537 24.1458C32.4009 24.7604 32.4765 25.4306 32.3724 26.0848C32.3283 27.0584 31.9363 27.9838 31.2675 28.6928C30.5987 29.4017 29.6978 29.847 28.7284 29.9478C28.7284 29.9478 32.5914 30.9007 33.5571 27.115C34.5229 23.3292 31.6385 21.9257 30.9689 22.5952Z" fill="url(#paint33_linear_12164_610)"/>
<path style="mix-blend-mode:screen" opacity="0.8" d="M32.4109 23.458C32.8155 24.3173 32.9288 25.2851 32.7336 26.2147C32.5384 27.1442 32.0453 27.9847 31.3292 28.6087C28.7539 30.6947 25.7408 29.8963 24.6978 27.8361C24.939 28.6028 25.4246 29.2695 26.0802 29.7345C26.7358 30.1995 27.5256 30.4372 28.329 30.4114C31.2649 30.3728 34.7287 26.7287 32.4109 23.458Z" fill="url(#paint34_linear_12164_610)"/>
<g style="mix-blend-mode:multiply" opacity="0.4">
<path d="M40.3559 24.5137C35.4628 21.3847 32.205 20.2386 26.5393 21.2173C24.2784 21.5051 22.0932 22.2219 20.101 23.329C17.6931 24.8356 16.869 27.0117 14.9503 29.0334H14.8087C14.1778 28.9175 14.0103 30.0764 14.6284 30.1665C19.7147 30.8361 24.5435 32.3942 29.6941 31.8405C35.1152 31.2611 43.5622 26.4967 43.4077 26.4194C42.3235 25.8984 41.3 25.2592 40.3559 24.5137ZM39.6992 27.5783C39.2675 27.8936 38.811 28.1735 38.3343 28.4153C37.4208 28.9182 36.4694 29.3487 35.4886 29.703C33.374 30.4952 31.1595 30.9892 28.9087 31.1709C26.4492 31.3512 17.6416 30.6043 17.8476 29.4454C17.8476 29.1235 18.2725 28.7244 18.1437 28.4411C17.3196 26.5739 18.9807 25.4279 20.0237 24.5781C22.0583 22.9814 25.007 22.4663 27.4407 22.1058C29.9591 21.7439 32.5278 22.0047 34.922 22.8655C35.5787 23.0973 41.2574 25.4408 40.3302 26.2778C40.2929 26.3031 40.2642 26.3394 40.2483 26.3816C40.2323 26.4238 40.2298 26.4699 40.2411 26.5137C40.2524 26.5574 40.2769 26.5965 40.3113 26.6257C40.3457 26.655 40.3883 26.6729 40.4332 26.677C40.3901 26.8742 40.3013 27.0586 40.1738 27.2152C40.0463 27.3718 39.8837 27.4962 39.6992 27.5783Z" fill="#9E6E5B"/>
</g>
<g style="mix-blend-mode:multiply" opacity="0.7">
<path d="M14.3838 29.1365C14.3838 29.1365 14.6414 29.9349 15.929 28.1965C17.2167 26.4582 18.5816 23.8571 20.9638 23.0459C23.346 22.2346 26.372 20.5478 31.3552 21.0242C34.9049 21.5478 38.2659 22.9559 41.1287 25.119C38.4204 22.371 34.8247 20.6735 30.9818 20.3289C24.9942 20.0713 20.4101 21.6165 18.0279 23.6253C15.6458 25.6341 15.5556 27.0247 14.3838 27.4883C13.2121 27.9519 14.3838 29.1365 14.3838 29.1365Z" fill="#CE9467"/>
</g>
<g style="mix-blend-mode:multiply" opacity="0.7">
<path d="M42.2358 24.9129C39.6693 22.3149 36.4189 20.4977 32.8615 19.6721C30.6541 19.0898 28.3641 18.8852 26.0885 19.0669C21.2855 19.4274 17.0748 21.8868 13.2118 24.9129C13.1346 24.9129 13.2118 25.1189 13.2891 25.0545C18.5685 21.037 26.1657 18.7321 32.81 20.0712C33.8823 20.3735 34.9286 20.761 35.9391 21.2301C38.1281 22.2603 39.9308 23.9342 42.0426 25.0931C42.0665 25.1187 42.0996 25.1338 42.1346 25.135C42.1696 25.1362 42.2037 25.1235 42.2293 25.0996C42.2549 25.0757 42.27 25.0426 42.2712 25.0075C42.2724 24.9725 42.2597 24.9385 42.2358 24.9129Z" fill="#CE9467"/>
</g>
<path d="M15.3494 28.7116C21.1696 17.9725 35.4627 18.6035 42.2744 26.6642C42.2744 26.6642 42.2744 26.793 42.2744 26.7415C40.6788 25.2314 38.8696 23.9645 36.9049 22.9815C34.235 21.887 31.3495 21.4201 28.4707 21.6166C25.771 21.8004 23.1395 22.5459 20.7447 23.8056C18.2595 25.0933 17.1135 26.6514 15.5941 28.8662C15.3494 28.9434 15.2464 28.776 15.3494 28.7116Z" fill="#6F421C"/>
<path d="M15.7486 29.7418C15.9932 29.921 16.2832 30.028 16.5856 30.0508C16.7917 30.0508 17.2423 30.2311 17.4355 30.0508C17.6286 29.8705 17.4355 29.6387 17.2809 29.5229C17.1144 29.4018 16.9819 29.2398 16.8962 29.0526C16.8104 28.8654 16.7744 28.6593 16.7916 28.4541C16.8173 28.4083 16.8475 28.3651 16.8818 28.3253C16.9284 28.2815 16.9633 28.2268 16.9835 28.1661C17.0038 28.1054 17.0087 28.0407 16.9977 27.9777V27.8746C16.9567 27.8338 16.901 27.8108 16.8431 27.8108C16.7852 27.8108 16.7296 27.8338 16.6886 27.8746C16.5001 28.0033 16.3455 28.1756 16.2379 28.3768C16.051 28.5924 15.8789 28.8204 15.7228 29.0593C15.6523 29.1604 15.6167 29.2817 15.6214 29.4049C15.626 29.528 15.6707 29.6463 15.7486 29.7418Z" fill="#C8776D"/>
<g style="mix-blend-mode:screen">
<path d="M34.6647 27.0248C35.0336 26.118 35.1101 25.1186 34.8836 24.1662C34.4715 22.7369 39.6222 24.8229 39.2488 26.2522C38.8753 27.6815 34.3428 28.5185 34.6647 27.0248Z" fill="#9E6E5B"/>
</g>
<g style="mix-blend-mode:screen">
<path d="M22.6118 27.7073C22.2439 26.9616 22.1265 26.1171 22.277 25.2994C22.5474 24.0761 18.3238 26.0977 18.6972 27.2824C19.0707 28.467 22.9723 28.9434 22.6118 27.7073Z" fill="#9E6E5B"/>
</g>
<path d="M28.3678 32.6389C28.3678 32.6389 24.6079 39 28.2648 39C32.3596 39 28.3678 32.6389 28.3678 32.6389Z" fill="white"/>
<path d="M18.3238 31.4929C18.3238 31.4929 14.9373 37.2488 18.2337 37.2488C21.9293 37.2488 18.3238 31.4929 18.3238 31.4929Z" fill="white"/>
<path d="M38.4502 31.4929C38.4502 31.4929 35.0636 37.2488 38.3729 37.2488C42.0556 37.2488 38.4502 31.4929 38.4502 31.4929Z" fill="white"/>
<defs>
<radialGradient id="paint0_radial_12164_610" cx="0" cy="0" r="1" gradientUnits="userSpaceOnUse" gradientTransform="translate(14.0342 24.7959) rotate(-4.52881) scale(16.2423 19.1189)">
<stop offset="0.8" stop-color="white"/>
<stop offset="1" stop-color="#F9E6C8"/>
</radialGradient>
<radialGradient id="paint1_radial_12164_610" cx="0" cy="0" r="1" gradientUnits="userSpaceOnUse" gradientTransform="translate(18.6068 26.3714) scale(12.033 13.2944)">
<stop offset="0.74" stop-color="white"/>
<stop offset="0.83" stop-color="#8D6155"/>
<stop offset="0.99" stop-color="#2D1912"/>
</radialGradient>
<radialGradient id="paint2_radial_12164_610" cx="0" cy="0" r="1" gradientUnits="userSpaceOnUse" gradientTransform="translate(30.2477 32.9481) rotate(180) scale(17.538 17.538)">
<stop offset="0.07" stop-color="white"/>
<stop offset="1" stop-color="#C7B9A4"/>
</radialGradient>
<radialGradient id="paint3_radial_12164_610" cx="0" cy="0" r="1" gradientUnits="userSpaceOnUse" gradientTransform="translate(28.3291 26.2907) rotate(180) scale(6.39972 6.39969)">
<stop stop-color="#443DBE"/>
<stop offset="0.57" stop-color="#3B5372"/>
<stop offset="1" stop-color="#21343C"/>
</radialGradient>
<radialGradient id="paint4_radial_12164_610" cx="0" cy="0" r="1" gradientUnits="userSpaceOnUse" gradientTransform="translate(28.6126 25.5698) rotate(180) scale(2.923)">
<stop stop-color="#443DBE"/>
<stop offset="1" stop-color="#375569"/>
</radialGradient>
<radialGradient id="paint5_radial_12164_610" cx="0" cy="0" r="1" gradientUnits="userSpaceOnUse" gradientTransform="translate(-767.423 -127.154) rotate(180) scale(1.09931 0.631155)">
<stop stop-color="#443DBE"/>
<stop offset="1" stop-color="#375569"/>
</radialGradient>
<radialGradient id="paint6_radial_12164_610" cx="0" cy="0" r="1" gradientUnits="userSpaceOnUse" gradientTransform="translate(-4272.72 -125.413) rotate(180) scale(2.5409 0.920602)">
<stop stop-color="#443DBE"/>
<stop offset="1" stop-color="#375569"/>
</radialGradient>
<radialGradient id="paint7_radial_12164_610" cx="0" cy="0" r="1" gradientUnits="userSpaceOnUse" gradientTransform="translate(-3240.06 38.2303) rotate(180) scale(1.93791 0.437231)">
<stop stop-color="#443DBE"/>
<stop offset="1" stop-color="#375569"/>
</radialGradient>
<radialGradient id="paint8_radial_12164_610" cx="0" cy="0" r="1" gradientUnits="userSpaceOnUse" gradientTransform="translate(-3591.66 56.1394) rotate(180) scale(2.01811 0.402458)">
<stop stop-color="#443DBE"/>
<stop offset="1" stop-color="#375569"/>
</radialGradient>
<radialGradient id="paint9_radial_12164_610" cx="0" cy="0" r="1" gradientUnits="userSpaceOnUse" gradientTransform="translate(-3591.78 -135.991) rotate(180) scale(2.20442 0.900476)">
<stop stop-color="#443DBE"/>
<stop offset="1" stop-color="#375569"/>
</radialGradient>
<radialGradient id="paint10_radial_12164_610" cx="0" cy="0" r="1" gradientUnits="userSpaceOnUse" gradientTransform="translate(-1507.23 -206.349) rotate(180) scale(1.42418 0.905597)">
<stop stop-color="#443DBE"/>
<stop offset="1" stop-color="#375569"/>
</radialGradient>
<radialGradient id="paint11_radial_12164_610" cx="0" cy="0" r="1" gradientUnits="userSpaceOnUse" gradientTransform="translate(-874.813 -369.491) rotate(180) scale(1.37716 1.31988)">
<stop stop-color="#443DBE"/>
<stop offset="1" stop-color="#375569"/>
</radialGradient>
<radialGradient id="paint12_radial_12164_610" cx="0" cy="0" r="1" gradientUnits="userSpaceOnUse" gradientTransform="translate(449.204 -368.9) rotate(180) scale(0.978808 1.19708)">
<stop stop-color="#443DBE"/>
<stop offset="1" stop-color="#375569"/>
</radialGradient>
<radialGradient id="paint13_radial_12164_610" cx="0" cy="0" r="1" gradientUnits="userSpaceOnUse" gradientTransform="translate(2182.98 -380.346) rotate(180) scale(0.539889 1.05322)">
<stop stop-color="#443DBE"/>
<stop offset="1" stop-color="#375569"/>
</radialGradient>
<radialGradient id="paint14_radial_12164_610" cx="0" cy="0" r="1" gradientUnits="userSpaceOnUse" gradientTransform="translate(2646.52 -475.988) rotate(180) scale(0.504619 1.33708)">
<stop stop-color="#443DBE"/>
<stop offset="1" stop-color="#375569"/>
</radialGradient>
<radialGradient id="paint15_radial_12164_610" cx="0" cy="0" r="1" gradientUnits="userSpaceOnUse" gradientTransform="translate(3473.43 -458.589) rotate(180) scale(0.33283 1.25762)">
<stop stop-color="#443DBE"/>
<stop offset="1" stop-color="#375569"/>
</radialGradient>
<radialGradient id="paint16_radial_12164_610" cx="0" cy="0" r="1" gradientUnits="userSpaceOnUse" gradientTransform="translate(2896.9 -255.603) rotate(180) scale(0.348638 0.708594)">
<stop stop-color="#443DBE"/>
<stop offset="1" stop-color="#375569"/>
</radialGradient>
<radialGradient id="paint17_radial_12164_610" cx="0" cy="0" r="1" gradientUnits="userSpaceOnUse" gradientTransform="translate(2313.99 -212.789) rotate(180) scale(0.403397 0.60056)">
<stop stop-color="#443DBE"/>
<stop offset="1" stop-color="#375569"/>
</radialGradient>
<radialGradient id="paint18_radial_12164_610" cx="0" cy="0" r="1" gradientUnits="userSpaceOnUse" gradientTransform="translate(2409.69 -19.4232) rotate(180) scale(0.280257 0.248805)">
<stop stop-color="#443DBE"/>
<stop offset="1" stop-color="#375569"/>
</radialGradient>
<radialGradient id="paint19_radial_12164_610" cx="0" cy="0" r="1" gradientUnits="userSpaceOnUse" gradientTransform="translate(1989.25 -53.7299) rotate(180) scale(0.367436 0.320188)">
<stop stop-color="#443DBE"/>
<stop offset="1" stop-color="#375569"/>
</radialGradient>
<radialGradient id="paint20_radial_12164_610" cx="0" cy="0" r="1" gradientUnits="userSpaceOnUse" gradientTransform="translate(3146.89 35.8077) rotate(180) scale(0.163464 0.153334)">
<stop stop-color="#443DBE"/>
<stop offset="1" stop-color="#375569"/>
</radialGradient>
<radialGradient id="paint21_radial_12164_610" cx="0" cy="0" r="1" gradientUnits="userSpaceOnUse" gradientTransform="translate(3151.16 68.2947) rotate(180) scale(0.148316 0.117047)">
<stop stop-color="#443DBE"/>
<stop offset="1" stop-color="#375569"/>
</radialGradient>
<radialGradient id="paint22_radial_12164_610" cx="0" cy="0" r="1" gradientUnits="userSpaceOnUse" gradientTransform="translate(856.954 -110.658) rotate(180) scale(0.6333 0.473458)">
<stop stop-color="#443DBE"/>
<stop offset="1" stop-color="#375569"/>
</radialGradient>
<radialGradient id="paint23_radial_12164_610" cx="0" cy="0" r="1" gradientUnits="userSpaceOnUse" gradientTransform="translate(1847.36 -146.349) rotate(180) scale(0.443052 0.470552)">
<stop stop-color="#443DBE"/>
<stop offset="1" stop-color="#375569"/>
</radialGradient>
<radialGradient id="paint24_radial_12164_610" cx="0" cy="0" r="1" gradientUnits="userSpaceOnUse" gradientTransform="translate(3331.71 -229.221) rotate(180) scale(0.250627 0.572263)">
<stop stop-color="#443DBE"/>
<stop offset="1" stop-color="#375569"/>
</radialGradient>
<radialGradient id="paint25_radial_12164_610" cx="0" cy="0" r="1" gradientUnits="userSpaceOnUse" gradientTransform="translate(3941.76 -186.986) rotate(180) scale(0.148528 0.450302)">
<stop stop-color="#443DBE"/>
<stop offset="1" stop-color="#375569"/>
</radialGradient>
<radialGradient id="paint26_radial_12164_610" cx="0" cy="0" r="1" gradientUnits="userSpaceOnUse" gradientTransform="translate(3018.7 -250.832) rotate(180) scale(0.299221 0.615631)">
<stop stop-color="#443DBE"/>
<stop offset="1" stop-color="#375569"/>
</radialGradient>
<radialGradient id="paint27_radial_12164_610" cx="0" cy="0" r="1" gradientUnits="userSpaceOnUse" gradientTransform="translate(2025.63 -215.858) rotate(180) scale(0.454204 0.602087)">
<stop stop-color="#443DBE"/>
<stop offset="1" stop-color="#375569"/>
</radialGradient>
<radialGradient id="paint28_radial_12164_610" cx="0" cy="0" r="1" gradientUnits="userSpaceOnUse" gradientTransform="translate(1463.35 -163.154) rotate(180) scale(0.532968 0.533595)">
<stop stop-color="#443DBE"/>
<stop offset="1" stop-color="#375569"/>
</radialGradient>
<radialGradient id="paint29_radial_12164_610" cx="0" cy="0" r="1" gradientUnits="userSpaceOnUse" gradientTransform="translate(1810.63 14.8347) rotate(180) scale(0.36324 0.224292)">
<stop stop-color="#443DBE"/>
<stop offset="1" stop-color="#375569"/>
</radialGradient>
<radialGradient id="paint30_radial_12164_610" cx="0" cy="0" r="1" gradientUnits="userSpaceOnUse" gradientTransform="translate(4179.29 127.763) rotate(180) scale(0.0419846 0.0416153)">
<stop stop-color="#443DBE"/>
<stop offset="1" stop-color="#375569"/>
</radialGradient>
<linearGradient id="paint31_linear_12164_610" x1="22.1227" y1="23.033" x2="32.7717" y2="33.27" gradientUnits="userSpaceOnUse">
<stop stop-color="#443DBE"/>
<stop offset="0.49" stop-color="#375569"/>
<stop offset="0.81" stop-color="#666962"/>
</linearGradient>
<linearGradient id="paint32_linear_12164_610" x1="26993.8" y1="-1157.1" x2="26936" y2="-1096.78" gradientUnits="userSpaceOnUse">
<stop stop-color="#443DBE"/>
<stop offset="0.49" stop-color="#375569"/>
<stop offset="0.81" stop-color="#666962"/>
</linearGradient>
<linearGradient id="paint33_linear_12164_610" x1="16137.9" y1="-1123.51" x2="16157.4" y2="-1123.51" gradientUnits="userSpaceOnUse">
<stop stop-color="#443DBE"/>
<stop offset="0.49" stop-color="#375569"/>
<stop offset="0.81" stop-color="#666962"/>
</linearGradient>
<linearGradient id="paint34_linear_12164_610" x1="27188.9" y1="-1018.93" x2="27244.6" y2="-1018.93" gradientUnits="userSpaceOnUse">
<stop stop-color="#443DBE"/>
<stop offset="0.49" stop-color="#375569"/>
<stop offset="0.81" stop-color="#666962"/>
</linearGradient>
</defs>
</svg>
