<svg width="56" height="56" viewBox="0 0 56 56" fill="none" xmlns="http://www.w3.org/2000/svg">
<g clip-path="url(#clip0_12164_268)">
<rect width="56" height="56" rx="28" fill="#54D1FF"/>
<g style="mix-blend-mode:multiply" opacity="0.16">
<path d="M58.4194 44.2174C58.4194 44.3211 58.4194 44.4223 58.4194 44.5248C58.4194 44.9434 58.4007 45.3646 58.3694 45.7857C58.3428 46.1331 58.3065 46.4813 58.2607 46.8304C58.1719 47.4888 58.0425 48.1411 57.8733 48.7836C57.7484 49.2335 57.6096 49.6834 57.4422 50.1295C56.6424 52.2651 55.284 54.3246 53.1246 56.1816C52.8022 56.4602 52.4636 56.7327 52.1049 57.0001H10.5826C10.3102 56.7064 10.044 56.4053 9.78535 56.0916C9.54792 55.8083 9.31548 55.5168 9.08805 55.2168C8.7648 54.787 8.45114 54.34 8.14706 53.876C7.29039 52.5582 6.5403 51.1742 5.90393 49.7371C5.68149 49.2372 5.4678 48.7374 5.2616 48.2138C5.07415 47.7372 4.89295 47.2503 4.718 46.7529C4.61678 46.4618 4.51681 46.1643 4.41934 45.8644C3.67772 43.5674 3.30404 41.1676 3.31214 38.7539C3.31214 38.6839 3.31214 38.6152 3.31214 38.5452C3.31214 38.3702 3.31214 38.1953 3.32089 38.0203C3.32089 37.9416 3.32089 37.8616 3.32964 37.7804C3.34713 37.318 3.37837 36.8569 3.42336 36.4058C3.42336 36.3608 3.43211 36.3171 3.43586 36.2746C3.46835 35.9509 3.50584 35.6285 3.55333 35.3111C4.97543 25.1701 12.4434 16.9936 19.5976 20.5239C19.8476 20.6489 20.0888 20.7813 20.3349 20.9313C20.8534 21.2498 21.3494 21.6035 21.8195 21.9898C22.2318 22.327 22.6268 22.6848 23.003 23.062C24.3338 24.3829 25.4523 25.8824 26.5232 27.2983C26.6707 27.4932 26.8169 27.6882 26.9644 27.8781C28.6251 30.0538 30.226 31.9308 32.3941 32.4881C32.9767 32.6382 33.5802 32.6901 34.1799 32.6418C34.6266 32.608 35.069 32.5306 35.5007 32.4106C36.0013 32.2748 36.4902 32.0993 36.9628 31.8858C36.9828 31.877 37.0028 31.8695 37.0216 31.8595C37.1978 31.7808 37.374 31.6971 37.5552 31.6096C37.9688 31.3997 38.3999 31.1572 38.8486 30.8786C39.116 30.7119 39.3868 30.5561 39.6609 30.4112C39.7696 30.3525 39.8808 30.2962 39.992 30.2425C40.5372 29.9716 41.1005 29.7386 41.6778 29.5452C41.8028 29.5002 41.934 29.4589 42.0627 29.4202C42.3751 29.3252 42.6875 29.2415 43.0062 29.1703C48.0948 28.0331 53.5033 30.015 56.31 34.9999C56.5785 35.4751 56.8176 35.9663 57.0261 36.4708C57.2734 37.0644 57.4821 37.6734 57.6509 38.294C57.6834 38.414 57.7146 38.5352 57.7446 38.6577C57.7659 38.7451 57.7871 38.8314 57.8058 38.9201C57.8333 39.0326 57.8571 39.1463 57.8808 39.2612C57.8908 39.305 57.8996 39.3487 57.9083 39.395C57.9258 39.4824 57.9433 39.5712 57.9595 39.6611C58.012 39.9511 58.0608 40.241 58.1083 40.5359C58.1233 40.6384 58.1382 40.7396 58.1545 40.8433C58.2107 41.2369 58.2607 41.6343 58.3007 42.0355C58.3332 42.3504 58.3582 42.6666 58.3782 42.984C58.4032 43.3922 58.4169 43.8033 58.4194 44.2174Z" fill="#3A1572"/>
</g>
<path d="M27.1043 42.4628L24.8261 48.9485C24.8261 48.9485 23.5227 49.7995 21.577 50.8979C17.8481 52.9999 11.756 56.024 7.99454 55.6779C2.27986 55.153 5.85638 50.8755 5.85638 50.8755C5.85638 50.8755 3.68198 52.2776 3.05215 50.3506C2.42232 48.4236 7.64338 45.8281 10.8338 42.7077C11.8413 41.743 12.6482 40.5887 13.2081 39.3111C13.9429 37.5979 13.8879 36.3282 13.8879 36.3282C13.8879 36.3282 16.411 32.683 17.6731 36.4332C18.9353 40.1834 27.1043 42.4628 27.1043 42.4628Z" fill="#833D51"/>
<path d="M27.1044 42.4627L24.8263 48.9484C24.8263 48.9484 23.5229 49.7994 21.5772 50.8979L18.6167 51.9151C18.6167 51.9151 18.0831 48.5648 17.0634 44.4372C16.4211 41.8366 14.5241 40.1796 13.2095 39.3136C13.9443 37.6003 13.8893 36.3307 13.8893 36.3307C13.8893 36.3307 16.4123 32.6854 17.6745 36.4356C18.9366 40.1858 27.1044 42.4627 27.1044 42.4627Z" fill="#752C44"/>
<path d="M29.0801 42.4628L31.3632 48.9485C31.3632 48.9485 32.6666 49.7995 34.6123 50.8979C38.3438 53.0049 44.4358 56.0215 48.1923 55.6779C53.907 55.153 50.3305 50.8755 50.3305 50.8755C50.3305 50.8755 52.5049 52.2776 53.1347 50.3506C53.7645 48.4236 48.5435 45.8281 45.3531 42.7077C44.3456 41.743 43.5387 40.5887 42.9787 39.3111C42.2439 37.5979 42.2989 36.3282 42.2989 36.3282C42.2989 36.3282 39.7759 32.683 38.5137 36.4332C37.2516 40.1834 29.0801 42.4628 29.0801 42.4628Z" fill="#833D51"/>
<path d="M29.0801 42.4627L31.3632 48.9484C31.3632 48.9484 32.6666 49.7994 34.6123 50.8979L37.5752 51.9151C37.5752 51.9151 38.1088 48.5648 39.1286 44.4372C39.7709 41.8366 41.6679 40.1796 42.9825 39.3136C42.2477 37.6003 42.3027 36.3307 42.3027 36.3307C42.3027 36.3307 39.7796 32.6854 38.5175 36.4356C37.2553 40.1858 29.0801 42.4627 29.0801 42.4627Z" fill="#752C44"/>
<path d="M32.398 42.9539H24.5452V46.9503H32.398V42.9539Z" fill="#F4BDA4"/>
<g style="mix-blend-mode:multiply" opacity="0.16">
<path d="M32.398 42.9539V44.2585C29.795 45.4194 26.4196 44.9858 24.5452 44.5959V42.9539H32.398Z" fill="#D1886B"/>
</g>
<path d="M40.7518 31.6007C40.7518 38.4313 35.1034 43.9723 28.1303 43.9723C21.1572 43.9723 15.5088 38.4351 15.5088 31.6007C15.5081 31.0032 15.5499 30.4065 15.6338 29.8149C16.5298 23.6029 21.877 17.7595 28.239 17.7595C34.8697 17.7595 40.2132 18.4518 40.7143 29.7824C40.7402 30.3623 40.7527 30.9684 40.7518 31.6007Z" fill="#F4BDA4"/>
<path d="M26.0395 39.2024C26.0109 39.2026 25.9831 39.1929 25.9607 39.1751C25.9384 39.1572 25.9229 39.1322 25.9167 39.1043C25.9106 39.0764 25.9142 39.0472 25.927 39.0216C25.9398 38.996 25.961 38.9756 25.987 38.9638C26.1057 38.91 28.8937 37.6491 30.1233 38.2277C30.1535 38.2418 30.1768 38.2673 30.1882 38.2986C30.1996 38.3299 30.198 38.3644 30.1839 38.3945C30.1699 38.4247 30.1444 38.448 30.1131 38.4594C30.0818 38.4708 30.0473 38.4692 30.0171 38.4551C28.8924 37.924 26.1194 39.1787 26.0907 39.1912C26.0746 39.1985 26.0571 39.2024 26.0395 39.2024Z" fill="#330816"/>
<path d="M28.0917 31.4033C28.3254 31.8107 26.8995 33.0854 27.4956 34.1376C28.0917 35.1898 29.1089 34.0676 29.3188 34.4525C29.5288 34.8374 27.6705 35.6797 26.7246 34.4175C25.7786 33.1554 27.9517 31.1572 28.0917 31.4033Z" fill="#D1886B"/>
<path d="M22.5608 35.8684C22.5328 35.8683 22.5058 35.8576 22.4853 35.8385C22.4648 35.8194 22.4523 35.7932 22.4503 35.7653C22.4482 35.7373 22.4568 35.7096 22.4743 35.6877C22.4917 35.6658 22.5168 35.6514 22.5446 35.6472C23.9379 35.4397 24.9189 33.7577 24.9189 33.7414C24.9335 33.7158 24.9577 33.6969 24.9861 33.6891C25.0146 33.6812 25.045 33.685 25.0707 33.6996C25.0964 33.7142 25.1153 33.7384 25.1231 33.7668C25.131 33.7953 25.1272 33.8257 25.1126 33.8514C25.0701 33.9239 24.0729 35.6434 22.5733 35.8671L22.5608 35.8684Z" fill="#D1886B"/>
<path d="M22.8492 33.984C24.2709 33.984 25.4235 32.7162 25.4235 31.1523C25.4235 29.5884 24.2709 28.3206 22.8492 28.3206C21.4275 28.3206 20.2749 29.5884 20.2749 31.1523C20.2749 32.7162 21.4275 33.984 22.8492 33.984Z" fill="white"/>
<path d="M23.4902 30.9647C23.4902 31.617 23.1703 32.1468 22.7741 32.1468C22.378 32.1468 22.0593 31.617 22.0593 30.9647C22.0593 30.3124 22.3792 29.7812 22.7741 29.7812C23.169 29.7812 23.4902 30.3111 23.4902 30.9647Z" fill="#330816"/>
<path d="M24.5527 27.7269C24.459 28.1943 20.6 30.0925 20.3201 30.2175C20.1377 30.2987 19.9677 30.0475 19.8715 29.7676C19.8234 29.6322 19.7964 29.4901 19.7915 29.3465C19.7915 29.0041 22.9656 26.8259 23.1831 26.6697C23.4005 26.5135 23.8366 27.1996 23.9616 27.1996C24.0866 27.1996 23.7442 26.2648 23.8366 26.1999C23.8991 26.1586 24.2115 26.7322 24.4052 27.1996C24.5027 27.4358 24.5689 27.6445 24.5527 27.7269Z" fill="#330816"/>
<path d="M24.5525 27.7268C24.4588 28.1942 20.5999 30.0924 20.32 30.2174C20.1375 30.2986 19.9676 30.0475 19.8713 29.7675C20.7324 29.2739 23.3941 27.8206 24.4051 27.1982C24.5026 27.4357 24.5688 27.6444 24.5525 27.7268Z" fill="#23040F"/>
<path d="M33.4876 35.9421C33.5146 35.9405 33.54 35.9293 33.5593 35.9103C33.5785 35.8914 33.5902 35.8661 33.5922 35.8392C33.5942 35.8123 33.5863 35.7856 33.5701 35.7641C33.5538 35.7425 33.5303 35.7276 33.5039 35.7221C32.1105 35.5147 31.1295 33.8327 31.1295 33.8164C31.1224 33.8037 31.1128 33.7925 31.1013 33.7835C31.0898 33.7746 31.0766 33.768 31.0625 33.7641C31.0485 33.7603 31.0338 33.7593 31.0193 33.7612C31.0049 33.7631 30.9909 33.7678 30.9783 33.7752C30.9529 33.7898 30.9343 33.814 30.9265 33.8423C30.9188 33.8706 30.9226 33.9008 30.9371 33.9264C30.9796 33.9989 31.9768 35.7184 33.4751 35.9421H33.4876Z" fill="#D1886B"/>
<path d="M33.1951 34.0589C34.6169 34.0589 35.7694 32.7911 35.7694 31.2272C35.7694 29.6633 34.6169 28.3955 33.1951 28.3955C31.7734 28.3955 30.6208 29.6633 30.6208 31.2272C30.6208 32.7911 31.7734 34.0589 33.1951 34.0589Z" fill="white"/>
<path d="M33.2651 32.2218C33.6606 32.2218 33.9812 31.6925 33.9812 31.0396C33.9812 30.3867 33.6606 29.8574 33.2651 29.8574C32.8697 29.8574 32.5491 30.3867 32.5491 31.0396C32.5491 31.6925 32.8697 32.2218 33.2651 32.2218Z" fill="#330816"/>
<path d="M31.4883 27.8019C31.5808 28.2693 35.441 30.1675 35.7209 30.2924C35.9034 30.3737 36.0733 30.1225 36.1695 29.8426C36.2176 29.7071 36.2446 29.5651 36.2495 29.4214C36.2495 29.079 33.0754 26.9009 32.8567 26.7447C32.638 26.5885 32.2031 27.2745 32.0794 27.2745C31.9557 27.2745 32.2969 26.3398 32.2044 26.2748C32.1432 26.2336 31.8295 26.8072 31.637 27.2745C31.5421 27.507 31.4758 27.7194 31.4883 27.8019Z" fill="#330816"/>
<path d="M31.4883 27.8018C31.5808 28.2692 35.441 30.1674 35.7209 30.2924C35.9034 30.3736 36.0733 30.1224 36.1695 29.8425C35.3073 29.3489 32.6468 27.8955 31.6358 27.2732C31.5421 27.5069 31.4758 27.7193 31.4883 27.8018Z" fill="#23040F"/>
<g style="mix-blend-mode:multiply" opacity="0.16">
<path d="M19.6488 38.4477C20.693 38.4477 21.5395 37.6012 21.5395 36.557C21.5395 35.5128 20.693 34.6663 19.6488 34.6663C18.6046 34.6663 17.7581 35.5128 17.7581 36.557C17.7581 37.6012 18.6046 38.4477 19.6488 38.4477Z" fill="#D1886B"/>
</g>
<g style="mix-blend-mode:multiply" opacity="0.16">
<path d="M36.984 38.4477C38.0282 38.4477 38.8747 37.6012 38.8747 36.557C38.8747 35.5128 38.0282 34.6663 36.984 34.6663C35.9398 34.6663 35.0933 35.5128 35.0933 36.557C35.0933 37.6012 35.9398 38.4477 36.984 38.4477Z" fill="#D1886B"/>
</g>
<g style="mix-blend-mode:multiply" opacity="0.16">
<path d="M40.7131 29.7875C40.6221 29.7902 40.5312 29.7826 40.4419 29.765C36.9229 29.0914 34.2261 21.6422 34.0399 21.341C33.8537 21.0399 31.7905 23.1005 30.6321 22.6882C29.4737 22.2758 30.146 21.1161 30.071 21.0036C29.996 20.8912 26.7757 25.085 21.9832 27.8555C17.1908 30.626 15.8874 30.2298 15.8874 30.2298C15.7796 30.1099 15.6975 29.9691 15.6462 29.8162C16.5297 23.6029 21.877 17.7595 28.239 17.7595C34.8684 17.7595 40.212 18.4568 40.7131 29.7875Z" fill="#D1886B"/>
</g>
<path d="M41.0502 30.2474H41.0415C39.2183 31.0534 34.4308 20.5838 34.2934 20.3027C34.1559 20.0215 31.6291 22.617 30.8231 22.1609C30.017 21.7048 31.3829 19.5366 31.243 19.3217C31.103 19.1067 26.6505 23.738 23.7763 25.7362C21.8381 27.0833 18.9763 28.6391 17.2856 29.5201C16.4683 29.9462 15.9247 30.2137 15.8897 30.2237C14.5601 30.6086 14.64 31.4971 14.2726 30.5086C13.6741 28.8915 13.4404 24.3715 15.3973 20.1277C17.563 15.434 26.4218 14.1781 32.7375 14.9754C35.4868 15.3228 37.7499 16.0576 38.7746 17.0673C38.8259 17.116 38.8733 17.1673 38.9183 17.2185C41.9275 20.6876 42.8597 29.4176 41.0502 30.2474Z" fill="#833D51"/>
<path d="M32.7381 14.9803C31.9195 15.4689 22.912 14.6054 19.7841 18.9942C17.2736 22.5144 17.1911 27.4518 17.2848 29.525C16.4675 29.9511 15.9239 30.2186 15.889 30.2286C14.5593 30.6135 14.6393 31.502 14.2719 30.5135C13.6733 28.8964 13.4396 24.3764 15.3966 20.1326C17.5622 15.4389 26.421 14.183 32.7381 14.9803Z" fill="#752C44"/>
<path d="M41.0503 30.2474C41.0978 28.4591 40.9428 23.8741 38.7734 17.0723C38.8247 17.121 38.8722 17.1722 38.9172 17.2235C41.9276 20.6875 42.8598 29.4176 41.0503 30.2474Z" fill="#752C44"/>
<path d="M16.4547 30.5949C16.4547 30.5949 14.8552 28.7992 12.667 30.8561C10.4789 32.913 12.5695 38.8889 17.3357 36.5383L16.4547 30.5949Z" fill="#F4BDA4"/>
<path d="M14.6591 36.1969C14.644 36.1971 14.6291 36.1941 14.6153 36.1882C14.6011 36.1825 14.5882 36.1741 14.5772 36.1635C14.5662 36.1528 14.5575 36.1401 14.5515 36.1261C14.5454 36.112 14.5422 36.0969 14.542 36.0816C14.5418 36.0663 14.5447 36.0512 14.5503 36.037C14.6366 35.8233 14.6466 35.6621 14.5778 35.5858C14.5091 35.5096 14.3379 35.4884 14.1317 35.5409C13.8955 35.5996 13.5069 35.4271 13.207 35.1297C12.907 34.8323 12.4322 34.1437 12.7171 32.9841C13.1532 31.2071 14.4441 30.7347 14.5916 30.681C14.6063 30.675 14.6221 30.672 14.6379 30.6724C14.6538 30.6727 14.6695 30.6763 14.6839 30.683C14.6983 30.6896 14.7113 30.6991 14.7219 30.7109C14.7325 30.7227 14.7406 30.7366 14.7456 30.7516C14.7507 30.7667 14.7526 30.7826 14.7512 30.7985C14.7499 30.8143 14.7453 30.8297 14.7378 30.8436C14.7302 30.8576 14.7199 30.8699 14.7075 30.8798C14.695 30.8896 14.6807 30.8968 14.6653 30.9009C14.6128 30.9196 13.3582 31.3558 12.9458 33.0391C12.6884 34.0875 13.1032 34.6961 13.3732 34.9648C13.6618 35.2509 13.963 35.3397 14.078 35.3147C14.3779 35.2397 14.6253 35.2822 14.7565 35.4334C14.8877 35.5846 14.8927 35.8158 14.769 36.1232C14.7607 36.1454 14.7456 36.1645 14.7259 36.1777C14.7062 36.1909 14.6828 36.1977 14.6591 36.1969Z" fill="#D1886B"/>
<path d="M39.7885 30.5949C39.7885 30.5949 41.3893 28.7992 43.5762 30.8561C45.7631 32.913 43.6749 38.8889 38.9075 36.5383L39.7885 30.5949Z" fill="#F4BDA4"/>
<path d="M41.5842 36.1969C41.5992 36.1972 41.6142 36.1942 41.6279 36.1882C41.6422 36.1825 41.6551 36.1741 41.6661 36.1635C41.677 36.1528 41.6858 36.1401 41.6918 36.1261C41.6978 36.112 41.701 36.0969 41.7012 36.0816C41.7014 36.0663 41.6986 36.0512 41.6929 36.037C41.6079 35.8233 41.5979 35.6621 41.6654 35.5858C41.7329 35.5096 41.9054 35.4884 42.1116 35.5409C42.3477 35.5996 42.7364 35.4271 43.0363 35.1297C43.3362 34.8323 43.8111 34.1437 43.5262 32.9841C43.09 31.2071 41.8004 30.7347 41.6517 30.681C41.637 30.675 41.6212 30.672 41.6053 30.6724C41.5894 30.6727 41.5738 30.6763 41.5594 30.683C41.5449 30.6896 41.532 30.6991 41.5214 30.7109C41.5108 30.7227 41.5027 30.7366 41.4976 30.7516C41.4926 30.7667 41.4907 30.7826 41.492 30.7985C41.4934 30.8143 41.498 30.8297 41.5055 30.8436C41.513 30.8576 41.5233 30.8699 41.5358 30.8798C41.5483 30.8896 41.5626 30.8968 41.578 30.9009C41.6317 30.9196 42.8851 31.3558 43.2975 33.0391C43.5549 34.0875 43.14 34.6961 42.8701 34.9648C42.5814 35.2509 42.2803 35.3397 42.1653 35.3147C41.8654 35.2397 41.6179 35.2822 41.4867 35.4334C41.3555 35.5846 41.3518 35.8158 41.4742 36.1232C41.4826 36.1454 41.4977 36.1645 41.5174 36.1777C41.5371 36.1909 41.5605 36.1977 41.5842 36.1969Z" fill="#D1886B"/>
<path d="M43.0721 51.6115H14.5187C14.4481 51.482 14.3871 51.3475 14.3363 51.2091C13.9951 50.3093 13.5352 48.0849 16.377 46.3892C20.0234 44.216 24.5447 46.5991 24.6497 46.5641H32.9411C33.082 46.5205 33.2198 46.4675 33.3535 46.4054C34.5619 45.9193 38.1884 44.5859 41.2138 46.3892C44.8591 48.5623 43.0721 51.6115 43.0721 51.6115Z" fill="#5540BF"/>
<path d="M33.3538 46.4055C33.3005 46.7021 33.1836 46.9836 33.011 47.2306C32.8384 47.4776 32.6143 47.6843 32.3541 47.8363C31.3344 48.4199 24.4888 48.08 23.5178 47.8851C22.5468 47.6901 18.3218 46.428 16.1848 49.827C15.6487 50.6805 15.0014 51.0842 14.3329 51.2091C13.9917 50.3094 13.5318 48.085 16.3735 46.3892C20.02 44.2161 24.5413 46.5992 24.6463 46.5642H32.9377C33.0798 46.5207 33.2189 46.4677 33.3538 46.4055Z" fill="#3C2EA3"/>
<path d="M32.3979 46.9504C31.1208 47.3669 29.778 47.5448 28.4365 47.4752C26.1933 47.3353 25.2461 47.3353 24.5451 46.9504C23.844 46.5655 24.1951 45.7232 24.4751 45.7232C24.665 45.7232 25.5998 45.8482 26.5995 45.9557C27.0894 46.0056 27.5992 46.0506 28.0453 46.0731C30.8158 46.2131 32.0442 45.512 32.4279 45.477C32.6191 45.4595 32.7578 45.767 32.7778 46.1094C32.7978 46.4518 32.6991 46.8429 32.3979 46.9504Z" fill="#7155D8"/>
<path d="M32.3979 46.9503C31.1208 47.3668 29.778 47.5447 28.4365 47.4752C26.1933 47.3352 25.2461 47.3352 24.5451 46.9503C23.844 46.5654 24.1951 45.7231 24.4751 45.7231C24.665 45.7231 25.5998 45.8481 26.5995 45.9556C26.637 46.2218 26.7245 46.4454 26.9144 46.5254C27.4443 46.7454 31.0907 47.0065 32.7778 46.1093C32.804 46.4579 32.6991 46.8428 32.3979 46.9503Z" fill="#533DC1"/>
<path d="M53.1846 56.9988H5.25537C5.58653 56.7288 6.00516 56.3989 6.51502 56.0303C6.72122 55.8803 6.93991 55.7254 7.17484 55.5641C7.25107 55.5104 7.3298 55.4579 7.40853 55.4054C7.51475 55.333 7.62347 55.2605 7.73469 55.1868C8.02711 54.9926 8.33827 54.7939 8.66818 54.5907C8.90311 54.447 9.1468 54.2995 9.40048 54.152C9.5671 54.0529 9.73997 53.9538 9.91908 53.8546C10.2732 53.6555 10.6435 53.4556 11.03 53.2548C11.14 53.1973 11.2525 53.1411 11.3649 53.0836L11.7473 52.8924C12.6371 52.455 13.6043 52.0176 14.6453 51.6102L14.9702 51.4853L15.2988 51.3603L15.3238 51.3503L15.5638 51.2616L15.8337 51.1641L15.9712 51.1154L16.2673 51.0117L16.4898 50.9354L16.7584 50.8455C16.9047 50.7967 17.0534 50.7492 17.2033 50.7017L17.4283 50.6305L17.547 50.5943L17.7044 50.5455L18.0268 50.4493L18.0668 50.4368L18.1131 50.4231L18.3393 50.3581L18.3668 50.3506C18.5205 50.3069 18.6742 50.2631 18.8304 50.2256C19.8938 49.9357 21.0135 49.6795 22.1857 49.4658C22.9655 49.3234 23.769 49.1997 24.5963 49.0997C26.2963 48.8932 28.0073 48.7902 29.7199 48.791C30.2589 48.791 30.7871 48.7973 31.3044 48.8098C33.2789 48.8548 35.1034 48.9847 36.7829 49.1847C36.9495 49.203 37.112 49.223 37.2703 49.2446L37.7501 49.3096L38.0101 49.3459H38.0301C38.155 49.3634 38.28 49.3821 38.405 49.4021L38.6736 49.4433C38.8323 49.4683 38.9886 49.4933 39.1435 49.5208L39.5059 49.5833L39.8621 49.6483C40.3344 49.7358 40.7926 49.8299 41.2367 49.9307L41.5641 50.0044C41.6966 50.0344 41.8278 50.0657 41.9577 50.0982L42.2014 50.1581C42.6276 50.2656 43.0424 50.3768 43.4423 50.4931C43.7048 50.5705 43.9609 50.648 44.2109 50.728C44.4608 50.808 44.6707 50.8779 44.8932 50.9542C47.7674 51.9451 49.8281 53.1611 51.1939 54.3495C51.805 54.8585 52.3358 55.4567 52.7685 56.124C52.9413 56.3981 53.081 56.6917 53.1846 56.9988Z" fill="#F0C4FC"/>
<g style="mix-blend-mode:multiply" opacity="0.56">
<path d="M17.4522 54.3433C16.1888 54.5858 15.9464 53.7123 15.9464 53.7123C15.9464 53.7123 15.3153 54.537 14.6355 54.537C13.9557 54.537 13.567 53.6623 13.567 53.6623C13.567 53.6623 13.1784 54.537 12.3536 54.4883C11.755 54.4533 11.2602 53.6798 11.0315 53.2549C13.5172 51.9696 16.1324 50.9521 18.8331 50.2195C19.1967 52.8338 18.6169 54.1247 17.4522 54.3433Z" fill="#F0C4FC"/>
</g>
<g style="mix-blend-mode:multiply" opacity="0.56">
<path d="M43.8173 53.9059C42.9425 54.0521 42.3614 53.0312 42.3614 53.0312C42.3614 53.0312 42.3127 53.8085 41.3417 53.9534C40.3707 54.0984 39.8846 52.885 39.8846 52.885C39.8846 52.885 39.6422 53.7597 38.2825 53.6623C37.1041 53.5773 36.8379 50.1032 36.783 49.1772C39.9983 49.5521 42.6876 50.1857 44.9057 50.9493C45.0357 53.3298 44.6095 53.776 43.8173 53.9059Z" fill="#F0C4FC"/>
</g>
<g style="mix-blend-mode:multiply" opacity="0.56">
<path d="M24.0739 56.9987H5.25537C5.58653 56.7288 6.00516 56.3989 6.51502 56.0303C6.72122 55.8803 6.93991 55.7253 7.17484 55.5641C7.25107 55.5104 7.3298 55.4579 7.40853 55.4054C7.51475 55.3329 7.62347 55.2605 7.73469 55.1867C8.02711 54.9926 8.33827 54.7939 8.66818 54.5907C8.90311 54.4465 9.14721 54.3003 9.40048 54.152C9.5671 54.0529 9.73996 53.9537 9.91908 53.8546C10.2732 53.6555 10.6435 53.4556 11.03 53.2548C11.14 53.1973 11.2525 53.1411 11.3649 53.0836L11.7473 52.8924C12.6371 52.455 13.6043 52.0176 14.6453 51.6102L14.9702 51.4853L15.2988 51.3603L15.3238 51.3503L15.5638 51.2616L15.8337 51.1641L15.9712 51.1154L16.2673 51.0116L16.4898 50.9354L16.7584 50.8454C16.9047 50.7967 17.0534 50.7492 17.2033 50.7017C17.317 50.6655 17.4308 50.6292 17.547 50.5943L17.7044 50.5455L18.0268 50.4493L18.0668 50.4368L18.1131 50.4231L18.3393 50.3581L18.3667 50.3506C18.5205 50.3068 18.6742 50.2631 18.8304 50.2256C19.8938 49.9357 21.0135 49.6795 22.1857 49.4658C22.1782 49.7907 22.1782 50.1556 22.1944 50.5493C22.2069 50.8854 22.2319 51.2428 22.2707 51.6165C22.4494 53.2873 22.9267 55.273 24.0739 56.9987Z" fill="#F0C4FC"/>
</g>
<path d="M13.743 52.1376C13.743 52.1376 13.4331 53.9996 12.4521 53.7496C11.4711 53.4997 11.2949 50.9804 12.2022 50.2094C13.1094 49.4383 17.9868 49.4733 18.1618 50.5593C18.3367 51.6452 18.0568 53.7846 17.1458 53.7496C16.2348 53.7146 15.8137 52.2075 15.8137 52.2075C15.8137 52.2075 15.9187 53.7496 14.9014 53.8546C13.8842 53.9596 13.743 52.1376 13.743 52.1376Z" fill="#F4BDA4"/>
<path d="M42.1026 51.3115C42.1026 51.3115 42.4188 53.1698 43.3998 52.9248C44.3808 52.6799 44.557 50.1543 43.6497 49.3833C42.7425 48.6123 37.8663 48.6473 37.6914 49.7345C37.5164 50.8217 37.7963 52.9598 38.7073 52.9248C39.6183 52.8898 40.0395 51.3815 40.0395 51.3815C40.0395 51.3815 39.9345 52.9248 40.9505 53.0298C41.9664 53.1348 42.1026 51.3115 42.1026 51.3115Z" fill="#F4BDA4"/>
<path d="M46.4524 19.9048C46.7022 19.9048 46.9048 19.7022 46.9048 19.4524C46.9048 19.2025 46.7022 19 46.4524 19C46.2025 19 46 19.2025 46 19.4524C46 19.7022 46.2025 19.9048 46.4524 19.9048Z" fill="white"/>
<path d="M48.9427 20.6969C48.9442 20.7644 48.9255 20.8309 48.8891 20.8878C48.8526 20.9446 48.8001 20.9894 48.7381 21.0162C48.6762 21.0431 48.6076 21.0509 48.5412 21.0387C48.4747 21.0264 48.4135 20.9946 48.3652 20.9474C48.3169 20.9002 48.2838 20.8397 48.27 20.7735C48.2563 20.7074 48.2626 20.6387 48.2881 20.5761C48.3136 20.5136 48.3571 20.46 48.4132 20.4223C48.4692 20.3847 48.5352 20.3645 48.6028 20.3645C48.6916 20.3645 48.777 20.3993 48.8405 20.4614C48.904 20.5235 48.9407 20.6081 48.9427 20.6969Z" fill="white"/>
<path d="M18.7147 4.88203C18.766 4.73982 18.9084 4.0111 19.0515 4.00008C19.1728 3.99126 19.2688 4.71115 19.2907 4.81699C19.3075 4.89746 19.9872 4.88864 19.9998 5.03747C20.0124 5.1863 19.4103 5.44097 19.4297 5.50821C19.4692 5.64712 19.8406 6.91492 19.6065 6.9965C19.3724 7.07808 18.9976 5.70335 18.953 5.86099C18.9084 6.01864 18.6902 7.01304 18.4713 6.91051C18.2523 6.80799 18.4629 5.65704 18.4864 5.60413C18.5252 5.52034 17.9811 5.22709 18.0005 5.10472C18.0199 4.98235 18.6886 4.95589 18.7147 4.88203Z" fill="#F0DB6D"/>
<path d="M22.5 11C22.7761 11 23 10.7761 23 10.5C23 10.2239 22.7761 10 22.5 10C22.2239 10 22 10.2239 22 10.5C22 10.7761 22.2239 11 22.5 11Z" fill="white"/>
<path d="M15 11.5C15 11.5989 14.9707 11.6956 14.9157 11.7778C14.8608 11.86 14.7827 11.9241 14.6913 11.9619C14.6 11.9998 14.4994 12.0097 14.4025 11.9904C14.3055 11.9711 14.2164 11.9235 14.1464 11.8536C14.0765 11.7836 14.0289 11.6945 14.0096 11.5975C13.9903 11.5006 14.0002 11.4 14.0381 11.3087C14.0759 11.2173 14.14 11.1392 14.2222 11.0843C14.3044 11.0293 14.4011 11 14.5 11C14.5657 10.9998 14.6308 11.0127 14.6915 11.0377C14.7523 11.0628 14.8075 11.0996 14.8539 11.1461C14.9004 11.1925 14.9372 11.2477 14.9623 11.3085C14.9873 11.3692 15.0002 11.4343 15 11.5Z" fill="white"/>
<path d="M29.6979 5.49469C29.7477 5.38946 29.8856 4.85026 30.0242 4.8421C30.1425 4.83557 30.2347 5.36825 30.2559 5.44656C30.2722 5.50611 30.9305 5.49958 30.9436 5.60563C30.9566 5.71168 30.3726 5.90419 30.3905 5.95395C30.4288 6.05673 30.7886 6.99483 30.5618 7.05519C30.335 7.11555 29.9688 6.09752 29.9231 6.21825C29.8774 6.33897 29.6686 7.07069 29.4573 6.99483C29.246 6.91896 29.4483 6.06734 29.4712 6.02818C29.5087 5.96618 28.9817 5.7492 29.0005 5.65865C29.0193 5.56811 29.6718 5.54934 29.6979 5.49469Z" fill="#F0DB6D"/>
<path d="M39.2245 7.54215C38.7261 7.91658 37.3018 8.47454 36.4616 7.06495C35.5366 5.51097 37.2121 4.65771 37.8949 4.46275C38.049 4.41789 38.1526 4.40728 38.164 4.43012C38.2456 4.59327 37.4144 5.22057 37.9413 6.43602C38.4683 7.65146 39.3199 7.14571 39.4007 7.32843C39.417 7.36351 39.3501 7.4459 39.2245 7.54215Z" fill="#F0DB6D"/>
<g style="mix-blend-mode:multiply" opacity="0.49">
<path d="M39.2244 7.54215C38.5384 7.62373 37.4706 7.39614 37.261 6.21169C37.0782 5.17978 37.5236 4.68708 37.8948 4.46275C38.049 4.41789 38.1526 4.40728 38.164 4.43012C38.2456 4.59327 37.4143 5.22057 37.9413 6.43602C38.4683 7.65146 39.3199 7.14571 39.4006 7.32843C39.417 7.36351 39.3501 7.4459 39.2244 7.54215Z" fill="#F0DB6D"/>
</g>
<path d="M37.4192 7.33745C37.4814 7.33745 37.5318 7.30203 37.5318 7.25833C37.5318 7.21463 37.4814 7.1792 37.4192 7.1792C37.357 7.1792 37.3066 7.21463 37.3066 7.25833C37.3066 7.30203 37.357 7.33745 37.4192 7.33745Z" fill="#F9E385"/>
<path d="M37.0808 7.1457C37.0819 7.15814 37.0793 7.17063 37.0732 7.18155C37.0671 7.19247 37.0579 7.2013 37.0467 7.20688C37.0355 7.21246 37.0229 7.21453 37.0106 7.21282C36.9982 7.21111 36.9866 7.2057 36.9774 7.1973C36.9681 7.18891 36.9616 7.17791 36.9587 7.16576C36.9558 7.1536 36.9567 7.14085 36.9611 7.12919C36.9656 7.11753 36.9735 7.10749 36.9838 7.10039C36.9941 7.09329 37.0063 7.08946 37.0188 7.08941C37.0344 7.08874 37.0497 7.09428 37.0613 7.10481C37.0729 7.11535 37.0799 7.13004 37.0808 7.1457Z" fill="#F9E385"/>
<path d="M36.8783 6.14309C36.8784 6.16559 36.8719 6.18762 36.8595 6.20639C36.8471 6.22516 36.8294 6.23982 36.8086 6.2485C36.7879 6.25719 36.765 6.2595 36.743 6.25515C36.7209 6.2508 36.7006 6.23999 36.6847 6.22408C36.6688 6.20817 36.658 6.1879 36.6536 6.16583C36.6493 6.14376 36.6516 6.12089 36.6603 6.10014C36.669 6.07939 36.6836 6.06169 36.7024 6.04929C36.7212 6.03689 36.7432 6.03036 36.7657 6.03052C36.7955 6.03052 36.8242 6.04238 36.8453 6.06349C36.8664 6.0846 36.8783 6.11324 36.8783 6.14309Z" fill="#F9E385"/>
<path d="M36.9347 5.83888C36.9347 5.8497 36.9304 5.86007 36.9228 5.86772C36.9151 5.87537 36.9048 5.87967 36.8939 5.87967C36.8831 5.87967 36.8727 5.87537 36.8651 5.86772C36.8574 5.86007 36.8531 5.8497 36.8531 5.83888C36.8531 5.82807 36.8574 5.81769 36.8651 5.81004C36.8727 5.80239 36.8831 5.7981 36.8939 5.7981C36.9048 5.7981 36.9151 5.80239 36.9228 5.81004C36.9304 5.81769 36.9347 5.82807 36.9347 5.83888Z" fill="#F9E385"/>
<path d="M36.9853 5.25311C37.0069 5.25311 37.0245 5.23558 37.0245 5.21396C37.0245 5.19233 37.0069 5.1748 36.9853 5.1748C36.9637 5.1748 36.9462 5.19233 36.9462 5.21396C36.9462 5.23558 36.9637 5.25311 36.9853 5.25311Z" fill="#F9E385"/>
<path d="M36.5512 6.73461C36.5512 6.7501 36.5308 6.76234 36.5063 6.76234C36.4818 6.76234 36.4614 6.7501 36.4614 6.73461C36.4614 6.71911 36.481 6.70605 36.5063 6.70605C36.5316 6.70605 36.5512 6.71911 36.5512 6.73461Z" fill="#F9E385"/>
<path d="M41.7221 2.11094C41.7221 2.13288 41.7156 2.15433 41.7034 2.17258C41.6912 2.19082 41.6739 2.20504 41.6536 2.21344C41.6334 2.22183 41.6111 2.22403 41.5895 2.21975C41.568 2.21547 41.5483 2.2049 41.5327 2.18939C41.5172 2.17387 41.5067 2.1541 41.5024 2.13258C41.4981 2.11106 41.5003 2.08876 41.5087 2.06849C41.5171 2.04821 41.5313 2.03089 41.5495 2.0187C41.5678 2.00651 41.5892 2 41.6112 2C41.6258 2 41.6402 2.00287 41.6536 2.00845C41.6671 2.01402 41.6793 2.02219 41.6896 2.03249C41.6999 2.04279 41.7081 2.05503 41.7137 2.06849C41.7193 2.08195 41.7221 2.09637 41.7221 2.11094Z" fill="white"/>
<path d="M39.727 9.38976C39.7271 9.43368 39.7142 9.47666 39.69 9.51326C39.6657 9.54985 39.6311 9.57842 39.5906 9.59534C39.55 9.61226 39.5054 9.61677 39.4623 9.6083C39.4192 9.59983 39.3796 9.57876 39.3485 9.54776C39.3174 9.51677 39.2962 9.47723 39.2875 9.43417C39.2789 9.39111 39.2832 9.34645 39.3 9.30586C39.3168 9.26527 39.3452 9.23057 39.3817 9.20615C39.4182 9.18174 39.4612 9.1687 39.5051 9.1687C39.5638 9.1687 39.6201 9.19196 39.6617 9.2334C39.7033 9.27483 39.7267 9.33106 39.727 9.38976Z" fill="white"/>
<path d="M32.9287 2.80914C32.9287 2.875 32.9092 2.93938 32.8726 2.99413C32.8359 3.04888 32.7839 3.09154 32.7231 3.1167C32.6622 3.14187 32.5952 3.14841 32.5307 3.1355C32.4661 3.1226 32.4068 3.09082 32.3603 3.04419C32.3137 2.99756 32.2821 2.93818 32.2694 2.87357C32.2566 2.80896 32.2633 2.74201 32.2886 2.68121C32.3139 2.62041 32.3567 2.56849 32.4116 2.53201C32.4664 2.49554 32.5308 2.47616 32.5967 2.47632C32.6404 2.47632 32.6836 2.48494 32.7239 2.50167C32.7643 2.51841 32.8009 2.54293 32.8317 2.57385C32.8626 2.60477 32.887 2.64146 32.9037 2.68184C32.9203 2.72221 32.9288 2.76547 32.9287 2.80914Z" fill="white"/>
<path d="M34.2191 12.6673C34.2191 12.7331 34.1996 12.7975 34.163 12.8522C34.1264 12.9069 34.0745 12.9496 34.0136 12.9748C33.9528 13 33.8859 13.0066 33.8214 12.9937C33.7568 12.9809 33.6975 12.9492 33.6509 12.9026C33.6044 12.8561 33.5727 12.7968 33.5599 12.7322C33.547 12.6677 33.5536 12.6007 33.5788 12.5399C33.604 12.4791 33.6466 12.4271 33.7014 12.3906C33.7561 12.354 33.8205 12.3345 33.8863 12.3345C33.93 12.3345 33.9733 12.3431 34.0136 12.3598C34.054 12.3765 34.0907 12.401 34.1216 12.432C34.1525 12.4629 34.177 12.4995 34.1938 12.5399C34.2105 12.5803 34.2191 12.6236 34.2191 12.6673Z" fill="white"/>
<path d="M9.30376 17.5949C9.34875 17.4987 9.47372 17.0063 9.60368 17.0001C9.71115 16.9938 9.79613 17.4799 9.81612 17.5512C9.83612 17.6224 10.4322 17.5999 10.4409 17.6974C10.4497 17.7948 9.91859 17.9698 9.94109 18.0148C9.97608 18.1085 10.3047 18.9658 10.0973 19.0145C9.88985 19.0632 9.5562 18.1397 9.51371 18.2497C9.47122 18.3597 9.28127 19.0282 9.08882 18.9595C8.89638 18.8908 9.08007 18.1123 9.10132 18.0773C9.13506 18.0198 8.65769 17.8273 8.67143 17.7386C8.68518 17.6499 9.28002 17.6449 9.30376 17.5949Z" fill="#F0DB6D"/>
<path d="M6.01972 19.2269C6.01972 19.3278 5.98979 19.4264 5.93371 19.5103C5.87763 19.5942 5.79792 19.6595 5.70468 19.6981C5.61144 19.7366 5.50887 19.7466 5.40993 19.7269C5.311 19.7071 5.22015 19.6584 5.1489 19.587C5.07764 19.5156 5.02918 19.4246 5.00965 19.3256C4.99011 19.2266 5.00039 19.1241 5.03917 19.0309C5.07795 18.9378 5.14349 18.8582 5.2275 18.8024C5.31151 18.7465 5.41022 18.7168 5.51111 18.717C5.64612 18.7174 5.77548 18.7712 5.87083 18.8668C5.96617 18.9624 6.01972 19.0919 6.01972 19.2269Z" fill="white"/>
<path d="M6.55742 32.3805C6.60366 32.2843 6.72863 31.792 6.85859 31.7857C6.96606 31.7795 7.05104 32.2656 7.06978 32.3381C7.08478 32.3918 7.68586 32.3855 7.69461 32.483C7.70336 32.5805 7.1735 32.7554 7.19475 32.8004C7.23099 32.8954 7.5584 33.7514 7.35096 33.8064C7.14351 33.8614 6.80985 32.9316 6.76861 33.0429C6.72737 33.1541 6.53618 33.8201 6.34248 33.7514C6.14879 33.6827 6.33498 32.9041 6.35623 32.8692C6.38997 32.8117 5.91135 32.6192 5.9251 32.5305C5.93884 32.4418 6.53368 32.4243 6.55742 32.3805Z" fill="#F0DB6D"/>
<path d="M2.28242 29.3014C2.4384 29.3014 2.56485 29.175 2.56485 29.019C2.56485 28.863 2.4384 28.7366 2.28242 28.7366C2.12645 28.7366 2 28.863 2 29.019C2 29.175 2.12645 29.3014 2.28242 29.3014Z" fill="white"/>
<path d="M8.1131 25.17C8.1131 25.2036 8.10313 25.2364 8.08446 25.2644C8.06578 25.2923 8.03924 25.3141 8.00818 25.327C7.97713 25.3398 7.94296 25.3432 7.90999 25.3366C7.87702 25.3301 7.84674 25.3139 7.82297 25.2901C7.7992 25.2664 7.78302 25.2361 7.77646 25.2031C7.7699 25.1701 7.77327 25.136 7.78613 25.1049C7.79899 25.0739 7.82077 25.0473 7.84872 25.0286C7.87667 25.01 7.90953 25 7.94315 25C7.96546 25 7.98756 25.0044 8.00818 25.0129C8.0288 25.0215 8.04754 25.034 8.06332 25.0498C8.0791 25.0656 8.09162 25.0843 8.10016 25.1049C8.1087 25.1255 8.1131 25.1476 8.1131 25.17Z" fill="white"/>
<path d="M8.84907 26.8107C9.00505 26.8107 9.1315 26.6842 9.1315 26.5283C9.1315 26.3723 9.00505 26.2458 8.84907 26.2458C8.6931 26.2458 8.56665 26.3723 8.56665 26.5283C8.56665 26.6842 8.6931 26.8107 8.84907 26.8107Z" fill="white"/>
<path d="M48.6326 30.5949C48.6776 30.4987 48.8038 30.0063 48.9325 30.0001C49.0413 29.9938 49.125 30.4799 49.145 30.5524C49.165 30.6249 49.7611 30.5999 49.7698 30.6974C49.7786 30.7948 49.2474 30.9698 49.2699 31.0148C49.3049 31.1098 49.6336 31.9658 49.4261 32.0145C49.2187 32.0632 48.885 31.1397 48.8438 31.251C48.8026 31.3622 48.6114 32.0282 48.4177 31.9595C48.224 31.8908 48.4089 31.1123 48.4302 31.0773C48.4652 31.0198 47.9865 30.8273 48.0003 30.7386C48.014 30.6499 48.6051 30.6449 48.6326 30.5949Z" fill="#F0DB6D"/>
<path d="M44.7847 15.3483C44.8297 15.2508 44.9559 14.7584 45.0859 14.7522C45.1934 14.7522 45.2783 15.2321 45.2971 15.3045C45.3158 15.377 45.9132 15.3533 45.9219 15.4495C45.9307 15.5457 45.4008 15.7219 45.422 15.7669C45.4583 15.8619 45.7857 16.7179 45.5783 16.7741C45.3708 16.8304 45.0371 15.8994 44.9959 16.0093C44.9547 16.1193 44.7635 16.7879 44.5698 16.7179C44.3761 16.6479 44.5623 15.8706 44.5835 15.8356C44.6173 15.7782 44.1386 15.5857 44.1524 15.4982C44.1661 15.4108 44.7635 15.3983 44.7847 15.3483Z" fill="#F0DB6D"/>
<path d="M41.7923 14.3961C41.7923 14.4745 41.769 14.5511 41.7255 14.6162C41.682 14.6814 41.6201 14.7321 41.5477 14.7621C41.4753 14.7921 41.3957 14.8 41.3189 14.7847C41.242 14.7694 41.1714 14.7317 41.116 14.6763C41.0606 14.6209 41.0229 14.5503 41.0076 14.4734C40.9923 14.3966 41.0002 14.3169 41.0302 14.2445C41.0601 14.1722 41.1109 14.1103 41.1761 14.0668C41.2412 14.0232 41.3178 14 41.3961 14C41.5012 14 41.602 14.0417 41.6763 14.116C41.7505 14.1903 41.7923 14.2911 41.7923 14.3961Z" fill="white"/>
</g>
<defs>
<clipPath id="clip0_12164_268">
<rect width="56" height="56" rx="28" fill="white"/>
</clipPath>
</defs>
</svg>
