<svg width="56" height="56" viewBox="0 0 56 56" fill="none" xmlns="http://www.w3.org/2000/svg">
<rect width="56" height="56" rx="28" fill="#54D1FF"/>
<path d="M21.1138 16.7226C21.378 16.1448 21.411 15.4651 21.7082 14.9213C21.8461 14.6685 22.0356 14.4495 22.2637 14.2793C22.4917 14.1092 22.7529 13.9919 23.0293 13.9357C23.3244 13.987 23.6258 13.987 23.921 13.9357C24.3833 13.7317 24.7136 13.154 25.176 13.2899C25.2895 13.3361 25.3875 13.4154 25.4579 13.518C25.5283 13.6206 25.568 13.7422 25.5723 13.8677C25.6203 14.1145 25.6203 14.3686 25.5723 14.6154H26.0678C26.1749 14.2471 26.4075 13.9309 26.723 13.7248C27.0385 13.5188 27.4156 13.4368 27.7851 13.4938L32.9373 14.3095C33.1127 14.3319 33.2814 14.3931 33.4316 14.489C33.5818 14.585 33.71 14.7133 33.8073 14.8651C33.9046 15.017 33.9688 15.1888 33.9954 15.3686C34.0219 15.5485 34.0102 15.7321 33.9611 15.9069L33.5318 18.6598C33.3336 19.4755 32.0786 19.9173 31.286 19.6794L26.5632 18.9997C26.4002 18.9641 26.246 18.8947 26.1101 18.7956C25.9742 18.6965 25.8595 18.5698 25.7729 18.4234C25.6863 18.277 25.6297 18.1139 25.6066 17.9442C25.5834 17.7744 25.5943 17.6016 25.6384 17.4363L25.8366 16.3487H25.0769L24.8788 17.0964C24.8078 17.4818 24.6094 17.83 24.3174 18.082C23.822 18.4219 23.2935 17.2324 22.7981 17.5043C21.8703 18.2438 21.0477 19.1132 20.3541 20.0873C20.1559 20.3252 19.7927 20.5631 19.5615 20.3592C19.5215 20.2624 19.5009 20.1584 19.5009 20.0533C19.5009 19.9482 19.5215 19.8441 19.5615 19.7474C19.6887 19.198 19.9373 18.6863 20.2881 18.252C20.5874 17.7623 20.8523 17.2512 21.0807 16.7226H21.1138ZM24.4164 7.98798C24.9925 7.84979 25.5479 7.63262 26.0678 7.34225C26.398 7.07036 26.5962 6.73049 26.8934 6.49258C27.1907 6.25468 27.7191 6.22069 27.8842 6.49258C28.0493 6.76448 27.8842 7.07036 27.7191 7.34225L27.521 7.71608H28.0493C28.2134 7.36576 28.4916 7.08561 28.8355 6.92421C29.1793 6.76281 29.5672 6.73035 29.9319 6.83245L34.3905 8.12393C34.5584 8.17549 34.7136 8.26363 34.8456 8.38235C34.9775 8.50107 35.0831 8.6476 35.1552 8.81201C35.2272 8.97641 35.264 9.15484 35.2631 9.33519C35.2623 9.51554 35.2238 9.6936 35.1501 9.85726L34.2914 12.5422C34.0289 12.9167 33.6524 13.1903 33.2216 13.3196C32.7909 13.4489 32.3305 13.4265 31.9135 13.2559L27.8511 12.1344C27.6973 12.0752 27.5571 11.9839 27.4392 11.8663C27.3214 11.7486 27.2285 11.607 27.1665 11.4506C27.1044 11.2941 27.0745 11.1261 27.0787 10.9572C27.0829 10.7882 27.121 10.622 27.1907 10.469L27.3558 9.34746H26.7613C26.5506 9.8903 26.374 10.4466 26.2329 11.0128C26.2507 11.1025 26.2507 11.195 26.2329 11.2847C26.0017 11.4886 25.6714 11.2847 25.4732 11.0128C25.2751 10.7409 24.8127 10.2311 24.3503 10.2991C23.8879 10.3671 23.822 10.605 23.5908 10.8429C23.1566 11.2756 22.5768 11.5191 21.9724 11.5226C21.9724 11.5226 21.7412 11.5226 21.7082 11.5226C21.6845 11.4693 21.6721 11.4113 21.6721 11.3527C21.6721 11.294 21.6845 11.2361 21.7082 11.1827C21.9458 10.652 22.2574 10.1596 22.633 9.72131C23.0778 8.98751 23.7048 8.38914 24.4494 7.98798H24.4164ZM36.8675 4.58931L35.9758 6.9684C35.7127 7.30237 35.3553 7.54391 34.9529 7.65961C34.5505 7.7753 34.1231 7.7594 33.7299 7.61413L30.1631 6.59454C30.0194 6.54371 29.8881 6.46159 29.778 6.35381C29.668 6.24602 29.5818 6.11512 29.5254 5.96997C29.4689 5.82482 29.4436 5.66884 29.4511 5.5127C29.4585 5.35655 29.4986 5.20389 29.5686 5.06512L29.9319 4.1135H29.4034C29.4212 4.2032 29.4212 4.29569 29.4034 4.3854C29.1392 4.8952 28.7099 5.43899 28.1814 5.26906C27.653 5.09912 27.9833 4.41939 27.5539 4.18148C26.9857 4.06361 26.3952 4.17298 25.9026 4.48735C25.5393 4.69127 25.2091 4.99714 24.8458 5.16708C24.4825 5.33701 24.6146 5.16708 24.5155 5.16708C24.4164 5.16708 24.5155 4.79324 24.5155 4.6233C24.8352 3.98462 25.2785 3.41997 25.818 2.96408C26.3576 2.50819 26.982 2.1707 27.653 1.97234C28.3466 1.73443 28.5448 1.97234 28.7429 1.97234C28.9411 1.97234 29.5025 1.12268 30.0309 1.02072C30.1548 0.986679 30.286 0.994742 30.4051 1.04374C30.5241 1.09274 30.6246 1.18003 30.6915 1.29259C30.6915 1.29259 30.6915 1.63246 30.6915 1.8024L30.4272 2.48215V2.72005H30.9887C31.1557 2.40084 31.4232 2.14956 31.7473 2.0075C32.0714 1.86545 32.4329 1.84105 32.7722 1.93835L36.7024 3.09391C36.8815 3.28905 36.9867 3.54384 36.9988 3.81201C37.0109 4.08018 36.9292 4.3439 36.7684 4.55531L36.8675 4.58931ZM20.8165 53.9041C20.8641 53.2963 21.0504 52.7087 21.3603 52.189C21.6702 51.6693 22.0949 51.2322 22.5999 50.9132C23.1944 50.5734 23.921 50.4034 24.2183 49.6897C24.5155 48.976 24.4164 48.7721 24.6806 48.4662C24.8131 48.3467 24.9833 48.2808 25.1595 48.2808C25.3357 48.2808 25.5059 48.3467 25.6384 48.4662C25.8087 48.6794 25.9427 48.9207 26.0347 49.1799L26.5301 48.976C26.4419 48.5802 26.4973 48.1648 26.6858 47.808C26.8744 47.4512 27.1831 47.1776 27.5539 47.0387L33.829 45.3394C34.0161 45.2951 34.2102 45.2912 34.3989 45.3281C34.5875 45.365 34.7667 45.4417 34.9251 45.5535C35.0834 45.6653 35.2175 45.8098 35.3188 45.9777C35.42 46.1456 35.4863 46.3333 35.5134 46.529L36.0749 49.5538C36.1054 50.0269 35.9632 50.4948 35.6761 50.8657C35.3889 51.2366 34.9776 51.4838 34.5226 51.559L28.6768 53.3603C28.3223 53.4086 27.9635 53.3107 27.6789 53.0879C27.3943 52.865 27.2069 52.5353 27.1576 52.1707L26.8934 50.8792H26.431C26.5635 51.712 26.5635 52.5615 26.431 53.3943C26.4151 53.587 26.3332 53.7677 26.1998 53.9041C25.9356 53.9041 25.7044 53.7001 25.4732 53.4962C25.2474 53.3441 24.9835 53.2632 24.7137 53.2632C24.4438 53.2632 24.1798 53.3441 23.954 53.4962C23.4556 53.7942 22.9906 54.1476 22.5669 54.5498C22.3422 54.7621 22.0698 54.9139 21.7742 54.9916C21.622 55.0153 21.4664 54.9885 21.3299 54.9152C21.1933 54.8419 21.083 54.7258 21.0147 54.5838C20.8919 54.3681 20.8344 54.1196 20.8495 53.8701L20.8165 53.9041ZM20.1229 47.8204C20.1107 46.8641 20.289 45.9154 20.6469 45.0328C21.0048 44.1501 21.5346 43.3523 22.2036 42.6884C22.5669 42.3826 22.9963 42.1786 23.1945 41.7368C23.3244 41.3491 23.4238 40.9514 23.4917 40.5473C23.4917 40.1734 24.0201 39.8336 24.3174 40.0715C24.6146 40.3094 24.5155 40.3434 24.5815 40.5473L24.7797 41.3969H25.4403C25.411 40.9943 25.531 40.5952 25.7761 40.28C26.0212 39.9647 26.3732 39.7566 26.7613 39.6976L32.9373 39.0179C33.1261 39.0036 33.3158 39.0301 33.494 39.0959C33.6722 39.1616 33.835 39.2651 33.9719 39.3996C34.1088 39.5341 34.2168 39.6967 34.2889 39.8768C34.361 40.0569 34.3956 40.2506 34.3905 40.4453L34.7868 43.5381C34.739 44.0133 34.5251 44.4545 34.1849 44.7795C33.8447 45.1046 33.4013 45.2915 32.9373 45.3054L26.8934 46.0871C26.7156 46.0827 26.5404 46.0423 26.3777 45.9681C26.2151 45.894 26.0682 45.7876 25.9455 45.6551C25.8228 45.5225 25.7267 45.3664 25.6627 45.1956C25.5987 45.0248 25.5679 44.8427 25.5723 44.6597V43.3682H25.11C25.11 43.912 25.11 44.4218 25.11 44.9656C25.0948 45.2154 25.0272 45.4589 24.9118 45.6793C24.5155 46.1891 23.7559 45.6793 23.1945 45.9512C22.633 46.2231 22.5339 46.6309 22.3357 47.0727C22.1376 47.5146 21.9394 48.0923 21.7082 48.6021C21.477 49.1119 21.2789 49.4858 20.8825 49.5198C20.7283 49.5043 20.5823 49.4407 20.4643 49.3374C20.3462 49.2341 20.2617 49.0961 20.222 48.942C20.148 48.5592 20.1593 48.1641 20.255 47.7864L20.1229 47.8204ZM19.8587 41.0231C19.8653 39.0012 20.5279 37.0395 21.7413 35.4493C22.1599 35.1038 22.5079 34.6764 22.7651 34.1918C22.7651 33.8179 22.7651 33.3421 23.1614 33.0362C23.2484 32.9622 23.3503 32.909 23.4598 32.8807C23.5693 32.8523 23.6836 32.8494 23.7944 32.8722C23.9051 32.895 24.0095 32.9429 24.1 33.0124C24.1904 33.0819 24.2647 33.1713 24.3174 33.2741C24.4752 33.5769 24.5547 33.9162 24.5485 34.2597H24.9449C24.9445 33.8566 25.0954 33.4689 25.3662 33.1776C25.637 32.8863 26.0066 32.7139 26.398 32.6964L32.1776 32.4584C32.3613 32.4625 32.5423 32.5051 32.7095 32.5834C32.8767 32.6618 33.0267 32.7743 33.1503 32.9142C33.2739 33.0541 33.3685 33.2184 33.4284 33.3972C33.4884 33.5759 33.5123 33.7653 33.4988 33.9538L33.6969 36.9787C33.5961 37.4338 33.3415 37.8373 32.9786 38.1173C32.6157 38.3974 32.1681 38.5359 31.7153 38.5081L26.0347 38.8819C25.6812 38.8474 25.355 38.6713 25.1264 38.3916C24.8978 38.1118 24.7852 37.7509 24.8127 37.3865V36.129H24.3174C24.3174 36.6048 24.1522 37.1146 24.0531 37.6244C24.0826 37.7357 24.0826 37.853 24.0531 37.9643C23.8549 38.1682 23.5247 37.9643 23.2605 37.9643C22.9963 37.9643 22.2367 38.78 21.9394 39.4597C21.6844 40.2939 21.1891 41.0288 20.5192 41.5669C20.5192 41.5669 20.2881 41.5669 20.156 41.5669C20.0238 41.5669 19.8257 41.159 19.8918 40.8531L19.8587 41.0231ZM19.6275 33.8859C19.6417 33.5991 19.746 33.3247 19.9247 33.1042C20.5189 32.0767 20.8275 30.9011 20.8165 29.7055C20.7515 29.2776 20.7515 28.8419 20.8165 28.414C21.1815 27.7497 21.7869 27.261 22.5008 27.0545C22.5725 26.6502 22.7695 26.2806 23.0623 26.001C23.1984 25.8619 23.3824 25.7839 23.5742 25.7839C23.766 25.7839 23.95 25.8619 24.0861 26.001C24.3834 26.3068 24.3173 26.8166 24.2512 27.2585V27.5304H24.6146C24.6562 27.1428 24.84 26.7863 25.1285 26.5336C25.417 26.281 25.7885 26.1512 26.1669 26.1709L31.7153 26.3408C31.8937 26.3487 32.0686 26.3947 32.2287 26.4758C32.3889 26.5569 32.531 26.6714 32.6459 26.812C32.7608 26.9526 32.846 27.1163 32.8962 27.2926C32.9463 27.4689 32.9604 27.6541 32.9373 27.8363V30.7251C32.9373 31.5748 31.6492 32.1865 30.8566 32.0506H25.5393C25.2025 32.0001 24.8988 31.8145 24.6946 31.5343C24.4904 31.2541 24.4022 30.902 24.4494 30.5552V29.3656H24.0201L23.8219 30.929C23.8405 31.0529 23.8405 31.179 23.8219 31.3029C23.5907 31.6088 23.1944 31.3029 22.8971 31.3029C22.5999 31.3029 22.0715 32.1186 21.8404 32.6964C21.6697 33.2264 21.3747 33.705 20.9816 34.0898C20.7953 34.3061 20.535 34.44 20.255 34.4637C20.1624 34.4737 20.0688 34.4599 19.9827 34.4234C19.8966 34.387 19.8206 34.3291 19.7617 34.2549C19.7027 34.1808 19.6626 34.0927 19.645 33.9986C19.6273 33.9045 19.6327 33.8074 19.6606 33.7159L19.6275 33.8859ZM19 26.5108C19.0726 25.9534 19.2644 25.4194 19.5615 24.9474C19.9072 24.5299 20.2062 24.0739 20.4532 23.5879C20.6844 23.0101 20.6183 22.3304 20.8825 21.7186C20.9988 21.458 21.168 21.226 21.3788 21.0384C21.5896 20.8508 21.8371 20.7119 22.1045 20.6311C22.4015 20.5811 22.6904 20.4896 22.9633 20.3592C23.3926 20.1212 23.6568 19.4755 24.1522 19.5775C24.2731 19.6103 24.3818 19.6797 24.4642 19.7766C24.5466 19.8735 24.599 19.9935 24.6146 20.1212C24.6468 20.3694 24.6468 20.6208 24.6146 20.869H25.143C25.2003 20.459 25.4133 20.0891 25.7353 19.8406C26.0573 19.5921 26.4619 19.4852 26.8604 19.5435L32.4089 20.0533C32.5844 20.0588 32.7565 20.1042 32.9129 20.1863C33.0693 20.2684 33.2061 20.3851 33.3134 20.5281C33.4208 20.6711 33.4961 20.8367 33.5339 21.0132C33.5716 21.1897 33.5709 21.3725 33.5318 21.5487L33.3336 24.3016C33.3336 25.0833 31.9795 25.5931 31.1869 25.4232L25.7375 25.0493C25.5727 25.025 25.4146 24.9663 25.2726 24.8768C25.1307 24.7873 25.008 24.6689 24.9121 24.5289C24.8163 24.3888 24.7492 24.2301 24.7151 24.0625C24.6809 23.8948 24.6805 23.7218 24.7137 23.5539L24.9118 22.4663H24.3834V23.1801C24.3484 23.5747 24.1855 23.9457 23.921 24.2336C23.4586 24.6075 22.7981 24.2336 22.2367 24.5055C21.6752 24.7774 20.7835 25.797 20.189 26.6127C20.0239 26.8846 19.6936 27.1565 19.4294 26.9526C19.1651 26.7487 19.0331 26.5447 19.0331 26.3408L19 26.5108Z" fill="white"/>
</svg>
