<svg width="56" height="56" viewBox="0 0 56 56" fill="none" xmlns="http://www.w3.org/2000/svg">
<g clip-path="url(#clip0_12164_1483)">
<rect width="56" height="56" rx="28" fill="#54D1FF"/>
<path d="M37.7823 -1.24216C37.7823 -1.42063 36.5776 -6.7451 33.0379 -5.94197C32.2753 -4.93443 31.8534 -3.71026 31.8332 -2.44685C31.8332 -2.11965 31.8332 -1.80733 31.8332 -1.48013C32.6214 1.79188 34.3913 9.25802 34.3913 9.25802L21.1545 15.4897L22.6418 17.2447C22.6418 17.2447 35.5216 14.7609 38.3029 11.8161C41.0841 8.87133 38.407 1.58367 37.7823 -1.24216Z" fill="#FFCAA6"/>
<path d="M37.7823 -1.24216C37.7823 -1.42063 36.5776 -6.7451 33.0379 -5.94197C32.2753 -4.93443 31.8534 -3.71026 31.8332 -2.44685C31.8332 -2.11965 31.8332 -1.80733 31.8332 -1.48013C32.6214 1.79188 34.3913 9.25802 34.3913 9.25802L21.1545 15.4897L22.6418 17.2447C22.6418 17.2447 35.5216 14.7609 38.3029 11.8161C41.0841 8.87133 38.407 1.58367 37.7823 -1.24216Z" fill="#EEA47E"/>
<g style="mix-blend-mode:multiply" opacity="0.6">
<path d="M36.0421 9.60014C35.3622 9.34988 34.7289 8.98796 34.1681 8.5293L34.3317 9.25805L27.7579 12.3516C30.4708 11.2944 33.2358 10.3761 36.0421 9.60014Z" fill="#F2BC97"/>
</g>
<g style="mix-blend-mode:multiply" opacity="0.6">
<path d="M37.7823 -1.24216C37.7823 -1.42063 36.5776 -6.7451 33.0378 -5.94197L32.8743 -5.74861C33.2435 -5.8392 33.6289 -5.84058 33.9988 -5.75265C34.3686 -5.66472 34.7122 -5.49 35.0011 -5.24294C35.6514 -4.64981 36.1597 -3.91779 36.4883 -3.10126C36.9596 -2.07487 37.3572 -1.01621 37.6781 0.0666509C38.3754 2.31915 38.7656 4.65541 38.8383 7.01224C38.9704 8.04578 38.8766 9.09571 38.5633 10.0895C38.25 11.0832 37.7248 11.9971 37.0238 12.768C37.4733 12.533 37.8885 12.2378 38.2582 11.8905C41.0245 8.91595 38.4069 1.58367 37.7823 -1.24216Z" fill="#F2BC97"/>
</g>
<path d="M19.9052 17.3191C19.8793 18.365 19.9893 19.4099 20.2324 20.4275C20.3216 22.1825 21.8981 37.8435 22.4335 39.2862C22.69 39.3526 22.9207 39.4943 23.0957 39.6932C23.2707 39.8921 23.3819 40.1388 23.4151 40.4017C23.4151 40.6099 24.1142 40.5355 24.724 40.4017C25.3337 40.2678 25.6014 39.4052 25.6014 39.4052C25.6014 39.4052 25.6014 32.995 26.0179 28.4439C26.3067 25.6901 26.3067 22.9136 26.0179 20.1598C23.9028 19.3894 21.8578 18.439 19.9052 17.3191Z" fill="#2C2C2C"/>
<path d="M19.9052 17.3191C19.8793 18.365 19.9893 19.4099 20.2324 20.4275C20.3216 22.1825 21.8981 37.8435 22.4335 39.2862C22.69 39.3526 22.9207 39.4943 23.0957 39.6932C23.2707 39.8921 23.3819 40.1388 23.4151 40.4017C23.4151 40.6099 24.1142 40.5355 24.724 40.4017C25.3337 40.2678 25.6014 39.4052 25.6014 39.4052C25.6014 39.4052 25.6014 32.995 26.0179 28.4439C26.3067 25.6901 26.3067 22.9136 26.0179 20.1598C23.9028 19.3894 21.8578 18.439 19.9052 17.3191Z" fill="#4A4A4A"/>
<g style="mix-blend-mode:screen">
<path d="M21.586 22.703C21.5111 21.7523 21.3059 20.8165 20.9762 19.9217C20.7829 19.4458 20.5747 18.9996 20.3665 18.5386C20.5054 19.0696 20.595 19.6122 20.6342 20.1597C20.7085 21.3495 21.705 31.6117 22.3445 36.8321C22.3148 34.9135 21.8091 24.6067 21.586 22.703Z" fill="#4A4A4A"/>
</g>
<g style="mix-blend-mode:multiply" opacity="0.5">
<path d="M26.0772 20.1597C24.2223 19.4805 22.4139 18.6806 20.6636 17.7651L21.6154 18.9103C22.2847 19.7135 23.1027 20.3976 23.6679 21.29C24.304 22.1219 24.7093 23.1069 24.8428 24.1456C24.9664 25.2266 25.0012 26.316 24.9469 27.4027C24.9469 29.8864 24.7982 32.3553 24.6792 34.8391C24.6792 36.0586 24.6792 37.2782 24.6049 38.4978C24.5676 39.1417 24.5676 39.7873 24.6049 40.4313H24.7387C25.3336 40.2974 25.6162 39.4348 25.6162 39.4348C25.6162 39.4348 25.6162 33.0246 26.0326 28.4735C26.3384 25.7114 26.3533 22.9249 26.0772 20.1597Z" fill="#4A4A4A"/>
</g>
<path d="M20.5151 44.4618C22.6786 44.3357 24.7961 43.7848 26.7468 42.8407C26.6942 41.9381 26.5899 41.0393 26.4345 40.1487C26.3773 39.9424 26.272 39.7526 26.1272 39.5948C25.9825 39.4371 25.8023 39.316 25.6016 39.2415C25.6016 39.2415 25.319 40.2677 24.7241 40.4015C24.1292 40.5354 23.4451 40.6097 23.4153 40.4015C23.3821 40.1387 23.2708 39.8919 23.0958 39.6931C22.9208 39.4942 22.6901 39.3524 22.4337 39.2861C22.4337 39.2861 21.3778 39.0779 20.649 40.461C20.3515 41.0262 19.0576 41.2195 17.7637 41.4724C16.4697 41.7252 14.3429 41.3683 14.2686 43.7628C16.2456 44.5707 18.4084 44.8128 20.5151 44.4618Z" fill="#F99595"/>
<path d="M20.5149 44.4617C18.4081 44.8127 16.2453 44.5707 14.2683 43.7627C14.2537 43.9707 14.2537 44.1794 14.2683 44.3873C14.2683 44.774 17.3469 45.8746 21.7047 45.1905C26.0624 44.5063 26.6276 43.7032 26.7019 43.2868C26.7175 43.1384 26.7175 42.9889 26.7019 42.8406C24.765 43.7791 22.6632 44.3298 20.5149 44.4617Z" fill="#CECECE"/>
<path d="M41.4113 15.5937C40.1978 15.7664 38.9661 15.7664 37.7526 15.5937C31.6399 14.731 19.9053 13.1545 19.9053 17.8989L25.7652 22.569C25.7652 22.569 42.497 25.1122 42.6012 25.38C42.7053 25.6477 41.4113 15.5937 41.4113 15.5937Z" fill="#4A4A4A"/>
<g style="mix-blend-mode:multiply" opacity="0.5">
<path d="M24.2336 19.4757C25.2449 18.6428 26.7619 19.0295 27.7435 18.1372C28.1748 17.7505 28.4723 17.2745 28.8888 16.8878C29.3513 16.5129 29.8814 16.2302 30.4504 16.055L33.4249 14.9693C27.3271 14.2851 19.9651 14.0769 19.8759 17.8397L23.3115 20.5763C23.5585 20.1628 23.8697 19.7913 24.2336 19.4757Z" fill="#4A4A4A"/>
</g>
<g style="mix-blend-mode:multiply" opacity="0.5">
<path d="M41.4113 15.5938C41.4113 15.5938 41.0246 15.5937 40.3851 15.683C39.9048 17.4096 39.5862 19.1772 39.4332 20.9628C39.4332 21.4239 39.4332 23.0748 39.4332 23.5358C39.4332 23.7589 31.7142 22.6286 29.2751 22.5542C27.9763 22.5239 26.6803 22.4196 25.3933 22.2419L25.7354 22.5096C25.7354 22.5096 42.4672 25.0528 42.5714 25.3205C42.6755 25.5882 41.4113 15.5938 41.4113 15.5938Z" fill="#4A4A4A"/>
</g>
<path d="M47.8662 12.4556C47.2522 11.2792 46.7205 10.0617 46.2749 8.81177L37.2322 12.3217C38.1857 13.5698 38.7077 15.094 38.7195 16.6646C41.5155 19.4161 45.8584 17.7355 47.8662 12.4556Z" fill="#F2BC97"/>
<path d="M39.4482 13.1993C40.5738 12.9198 41.6815 12.5721 42.7649 12.1581C43.9184 11.729 45.0457 11.2323 46.141 10.6709L46.8251 10.299C46.5872 9.73388 46.3938 9.21333 46.2749 8.81177L37.2322 12.3217C37.4936 12.6906 37.7273 13.0784 37.9312 13.4818C38.442 13.4178 38.9486 13.3234 39.4482 13.1993Z" fill="#EEA47E"/>
<path d="M42.8839 11.3254C44.377 10.5785 45.8136 9.72349 47.1822 8.76726C46.4385 7.01227 45.4569 4.55828 44.5051 1.58373C42.5121 -4.58848 38.2288 -9.37753 34.9716 -8.21745C33.2166 -7.5928 32.6366 -4.78184 31.8781 -1.22725C30.7775 3.96335 31.5062 5.97118 34.2577 9.04985C35.3603 10.3024 36.3045 11.6861 37.0687 13.1696C39.1039 12.9171 41.0752 12.2919 42.8839 11.3254Z" fill="#F99595"/>
<g style="mix-blend-mode:multiply" opacity="0.5">
<g style="mix-blend-mode:multiply" opacity="0.5">
<path d="M42.8096 11.3699C38.7791 9.68923 37.2769 5.42075 37.738 5.16791C39.0914 4.55813 42.4675 1.65795 40.1028 -4.06807C38.2437 -8.52991 35.522 -8.67865 33.7967 -7.22112C32.8396 -5.35853 32.2059 -3.34687 31.9227 -1.27201C30.8222 3.9186 31.5509 5.92642 34.3024 9.00509C35.405 10.2577 36.3491 11.6414 37.1134 13.1249C39.1007 12.8799 41.029 12.2858 42.8096 11.3699Z" fill="#F99595"/>
</g>
</g>
<g style="mix-blend-mode:multiply" opacity="0.5">
<g style="mix-blend-mode:multiply" opacity="0.5">
<path d="M37.7378 5.16806C39.0912 4.55827 42.4673 1.65809 40.1025 -4.06793C39.7696 -4.90288 39.3243 -5.68849 38.7789 -6.40296C38.493 -6.71776 38.1498 -6.97518 37.7675 -7.16147C37.3794 -7.3635 36.9483 -7.46899 36.5108 -7.46899C36.0732 -7.46899 35.6421 -7.3635 35.254 -7.16147C33.5139 -6.22448 33.0082 -3.81509 32.8744 -2.00061C32.7292 -1.02337 32.7862 -0.0267191 33.042 0.927558C33.2979 1.88183 33.7471 2.77339 34.3617 3.54693C34.9417 4.14184 36.0125 4.43931 36.191 5.34655C36.2766 5.83739 36.3016 6.33689 36.2654 6.83382C36.2654 7.41386 36.2654 8.00876 36.2654 8.5888C36.1886 9.45349 36.0594 10.3127 35.8787 11.1618C36.3255 11.816 36.7328 12.4964 37.0982 13.1994C39.0883 12.9404 41.0169 12.3312 42.7945 11.3998C38.7788 9.68938 37.2767 5.39115 37.7378 5.16806Z" fill="#F99595"/>
</g>
</g>
<path d="M39.4037 -4.93073C37.0538 -8.61918 34.6593 -7.41449 33.6331 -4.58866C32.8745 -2.06029 33.4843 2.69899 36.6076 3.60623C40.6381 4.05241 41.8577 -1.06381 39.4037 -4.93073Z" fill="#EEA47E"/>
<path d="M63.5418 33.679C63.3141 33.2335 63.0609 32.8015 62.7833 32.3851C60.3476 33.2087 57.8642 33.8841 55.3469 34.4078C51.6139 35.1663 50.4836 34.036 47.1967 34.9432C46.2299 35.2258 48.565 31.3143 49.2491 24.7405C49.8292 19.3119 50.9149 16.739 47.1967 11.1914C44.8479 13.4711 41.7503 14.819 38.4812 14.984C38.4812 14.984 40.7567 42.0227 44.237 41.9632C46.6463 41.9632 60.4483 36.8618 64.0921 34.9284C63.9422 34.498 63.7582 34.0802 63.5418 33.679Z" fill="#4A4A4A"/>
<g style="mix-blend-mode:multiply" opacity="0.5">
<path d="M41.7383 15.0138C42.2738 14.88 42.8241 14.7312 43.3595 14.5676C43.8949 14.404 44.5196 14.1214 45.1293 13.9578C45.4883 13.8156 45.8755 13.759 46.2602 13.7926C46.6449 13.8261 47.0164 13.9489 47.3454 14.1512C47.9845 14.7721 48.398 15.5887 48.5203 16.4713C48.838 18.4497 48.7622 20.4714 48.2972 22.4204C47.8511 24.9191 47.3008 27.4028 46.81 29.8568C46.5024 31.2364 46.269 32.6315 46.1109 34.0361C45.9174 34.9881 45.9174 35.9694 46.1109 36.9214C46.4976 36.6686 46.7505 36.2373 47.1074 35.9547C47.417 35.7011 47.7629 35.4955 48.1337 35.3449C49.0917 34.9813 50.0906 34.7366 51.1082 34.6161L51.7329 34.5418C50.2164 34.3526 48.6779 34.4485 47.1967 34.8243C46.2299 35.1069 48.565 31.1954 49.2491 24.6216C49.8292 19.193 50.9149 16.6201 47.1967 11.0725C44.8479 13.3522 41.7503 14.7001 38.4812 14.8651C39.5093 15.3238 40.6727 15.3769 41.7383 15.0138Z" fill="#4A4A4A"/>
</g>
<g style="mix-blend-mode:multiply" opacity="0.5">
<path d="M41.6792 23.1789C42.6582 22.2817 43.7245 21.4845 44.862 20.7993C43.1697 21.2832 41.6155 22.1597 40.3258 23.3574C40.0284 23.6251 39.716 23.8631 39.4037 23.5359C39.8201 26.9269 40.3704 30.7938 41.0397 34.1104C40.8166 32.0431 40.7422 29.9609 40.6084 27.8936C40.4906 26.9037 40.5157 25.9019 40.6828 24.9191C40.8535 24.2604 41.1975 23.6595 41.6792 23.1789Z" fill="#4A4A4A"/>
</g>
<path d="M35.2838 -6.58145C35.2838 -6.58145 33.6924 -5.51061 34.5104 -2.53605C35.3284 0.438505 37.485 8.42518 37.485 8.42518L24.4415 15.0584L25.9288 16.7688C25.9288 16.7688 38.7343 13.8984 41.4263 10.8197C44.1182 7.74103 41.3073 0.587234 40.5934 -2.20885C40.5488 -2.35758 39.121 -8.06873 35.2838 -6.58145Z" fill="#F2BC97"/>
<g style="mix-blend-mode:multiply" opacity="0.6">
<path d="M39.1801 8.72252C38.4931 8.48444 37.8462 8.14345 37.2615 7.71118L37.4549 8.42507L30.9852 11.712C33.6634 10.5747 36.3987 9.57688 39.1801 8.72252Z" fill="#F2BC97"/>
</g>
<g style="mix-blend-mode:multiply" opacity="0.6">
<path d="M40.5933 -2.16427C40.5933 -2.35762 39.106 -8.11339 35.2689 -6.62611C35.1144 -6.50874 34.979 -6.36828 34.8673 -6.20967C35.2683 -6.53069 35.7666 -6.70561 36.2802 -6.70561C36.7939 -6.70561 37.2922 -6.53069 37.6931 -6.20967C38.3337 -5.62552 38.8409 -4.91028 39.1804 -4.1126C39.6852 -3.0984 40.1176 -2.04972 40.4743 -0.974447C41.2261 1.25725 41.686 3.57682 41.8426 5.92652C42.0025 6.95754 41.9378 8.01091 41.6529 9.01459C41.3679 10.0183 40.8695 10.9485 40.1917 11.7418C40.6419 11.4669 41.0522 11.1316 41.4113 10.7453C44.2074 7.84509 41.3072 0.631809 40.5933 -2.16427Z" fill="#F2BC97"/>
</g>
<path d="M25.6314 14.1957C24.3639 14.0707 23.0842 14.2022 21.8686 14.5824C21.8686 14.5824 21.5265 14.6865 21.5116 14.7013C21.2698 14.8221 21.0406 14.9665 20.8275 15.1326C20.3962 15.5738 20.0305 16.0747 19.7417 16.6199L19.2063 17.4379C19.0873 17.6461 18.775 17.8544 18.7007 18.0923C18.6804 18.1495 18.6781 18.2114 18.6941 18.2699C18.71 18.3284 18.7435 18.3806 18.7899 18.4195C18.9508 18.5007 19.1307 18.5367 19.3104 18.5237C19.3104 18.955 19.2212 19.4011 19.2063 19.8473C19.1915 20.2935 19.2063 21.2305 19.6674 20.7992C19.825 20.6127 19.928 20.3862 19.9649 20.1448C20.0091 19.9339 20.0389 19.7202 20.0541 19.5052C20.0541 19.7581 20.0541 20.0258 20.0541 20.2489C20.0541 20.7248 19.9797 21.2156 20.0541 21.7362C20.0541 21.9444 20.0541 22.1823 20.3664 22.1972C20.6787 22.2121 20.7531 21.7957 20.8275 21.6618C20.9604 21.2336 21.0207 20.7862 21.0059 20.3381C21.0581 20.0156 21.1855 19.7099 21.3777 19.4458C21.1937 19.7023 21.0902 20.0077 21.0803 20.3232C21.1075 20.8499 21.0826 21.378 21.0059 21.8998C21.0059 22.0634 21.0059 22.4798 21.1993 22.5244C21.7049 22.6137 21.8686 21.8403 21.9132 21.4982C21.9041 20.8751 22.0257 20.257 22.2701 19.6837C22.4413 19.465 22.625 19.2565 22.8204 19.0591C22.9117 18.9876 22.9963 18.9079 23.0733 18.8211C22.984 19.0293 22.8799 19.2524 22.7758 19.4606C22.6553 19.6636 22.5887 19.894 22.5824 20.1299C22.5877 20.5624 22.5629 20.9948 22.5081 21.4238C22.4549 21.6488 22.4549 21.883 22.5081 22.108C22.5973 22.4649 23.0733 22.108 23.1625 21.9593C23.2793 21.7302 23.3596 21.4843 23.4005 21.2305C23.4005 21.0371 23.4005 20.8438 23.4005 20.6505V20.3976C23.6045 19.8804 23.9252 19.4172 24.3375 19.0442C24.8933 18.7352 25.4757 18.4763 26.0775 18.2708C26.9402 17.8395 28.2192 17.0959 28.1597 15.9506C28.1002 14.8054 26.6576 14.3147 25.6314 14.1957Z" fill="#F2BC97"/>
<g style="mix-blend-mode:multiply">
<path d="M22.5227 17.2297C21.7955 18.0247 21.2835 18.9923 21.0354 20.0407C21.1805 19.5253 21.38 19.0267 21.6303 18.5534C21.8831 18.0924 22.2252 17.6759 22.5078 17.2297H22.5227Z" fill="#F2BC97"/>
</g>
<g style="mix-blend-mode:multiply">
<path d="M21.0356 17.0812C20.5745 17.7951 19.7565 18.8213 20.0242 19.7434C20.1245 18.7948 20.4677 17.8881 21.0207 17.1109C21.0207 17.1109 21.0504 17.0663 21.0356 17.0812Z" fill="#F2BC97"/>
</g>
<g style="mix-blend-mode:multiply">
<path d="M20.4111 16.2483C20.3496 16.3873 20.2696 16.5174 20.1731 16.635C20.0095 16.9175 19.8459 17.1704 19.6972 17.453C19.4918 17.8327 19.3796 18.2558 19.37 18.6874C19.37 18.6874 19.37 18.6874 19.37 18.6874C19.4696 18.1667 19.6503 17.6649 19.9054 17.2001C20.1141 16.9352 20.2797 16.6391 20.3962 16.3226C20.3962 16.3226 20.4111 16.2334 20.4111 16.2483Z" fill="#F2BC97"/>
</g>
<g style="mix-blend-mode:multiply">
<path d="M23.0134 18.732L22.9242 18.9403L23.1919 18.6428C23.3704 18.4494 23.5191 18.2561 23.6827 18.0627C23.4299 18.1966 23.1919 18.3751 22.9539 18.5238C22.632 18.6872 22.3363 18.8978 22.0765 19.1485C21.6619 19.7877 21.4686 20.5453 21.5262 21.305C21.5262 21.543 21.5262 22.2569 21.1544 22.3461H21.0056C21.0376 22.3915 21.0853 22.4233 21.1395 22.4353C21.6451 22.5246 21.8088 21.7512 21.8534 21.4091C21.8443 20.786 21.9659 20.1679 22.2103 19.5946C22.3815 19.376 22.5652 19.1674 22.7606 18.97C22.8519 18.8985 22.9365 18.8188 23.0134 18.732Z" fill="#F2BC97"/>
</g>
<g style="mix-blend-mode:multiply">
<path d="M21.0211 20.2341V20.3531C21.0499 20.1173 21.0946 19.8838 21.1549 19.6541C21.0571 19.8312 21.0108 20.032 21.0211 20.2341Z" fill="#F2BC97"/>
</g>
<g style="mix-blend-mode:multiply">
<path d="M21.1844 19.5945C21.2549 19.3266 21.3546 19.0672 21.4818 18.8211C21.7942 18.2411 22.2552 17.6759 22.523 17.0513C21.8903 17.4304 21.3433 17.9369 20.9167 18.5385C20.5002 19.2376 20.6936 20.234 20.5746 21.0223C20.5746 21.1859 20.4705 22.0336 20.1284 21.9295H20.0392C20.0553 21.9885 20.09 22.0407 20.1383 22.0783C20.1866 22.1158 20.2457 22.1367 20.3069 22.1378C20.5151 22.1378 20.6936 21.7362 20.7679 21.6023C20.9009 21.1742 20.9612 20.7268 20.9464 20.2787C20.9741 20.0358 21.0554 19.8021 21.1844 19.5945Z" fill="#F2BC97"/>
</g>
<g style="mix-blend-mode:multiply">
<path d="M20.0391 19.4757V19.5649C20.0637 19.1389 20.1644 18.7208 20.3366 18.3304C20.65 17.7116 21.0289 17.1283 21.4669 16.5903C21.2804 16.7177 21.1061 16.862 20.9463 17.0216C20.6423 17.2561 20.3721 17.5314 20.1432 17.8396C19.8131 18.4724 19.6494 19.1787 19.6673 19.8921C19.6673 20.0854 19.5185 20.5614 19.236 20.3829C19.236 20.725 19.3698 21.067 19.6822 20.7993C19.8398 20.6128 19.9427 20.3863 19.9796 20.1449C20.0153 19.9235 20.0352 19.6999 20.0391 19.4757Z" fill="#F2BC97"/>
</g>
<g style="mix-blend-mode:multiply">
<path d="M19.2805 18.494V18.5684C19.3786 18.175 19.5131 17.7916 19.6821 17.4232C19.9192 16.9325 20.1926 16.4602 20.5001 16.0103C20.1772 16.2959 19.91 16.6387 19.7118 17.0216C19.5036 17.3637 19.3549 17.7801 19.1318 18.0924C18.9087 18.4048 18.7749 18.3601 18.6559 18.256C18.6751 18.3069 18.7056 18.3526 18.7451 18.3899C18.9104 18.4737 19.0958 18.5098 19.2805 18.494Z" fill="#F2BC97"/>
</g>
<g style="mix-blend-mode:multiply">
<path d="M27.5649 16.6201C26.7378 17.2585 25.8139 17.7606 24.8283 18.1073C24.2455 18.3445 23.7623 18.7752 23.46 19.3269C23.2105 19.8971 23.1131 20.5223 23.1774 21.1414C23.1829 21.3668 23.1579 21.592 23.103 21.8107C23.2149 21.5966 23.2903 21.3654 23.3261 21.1265C23.3261 20.9332 23.3261 20.7399 23.3261 20.5465V20.2936C23.5302 19.7764 23.8508 19.3133 24.2631 18.9402C24.819 18.6312 25.4014 18.3724 26.0032 18.1669C26.8659 17.7355 28.1449 16.9919 28.0854 15.8467C28.0854 15.8467 28.0854 15.7277 28.0854 15.6682C27.9984 16.0257 27.8189 16.3539 27.5649 16.6201Z" fill="#F2BC97"/>
</g>
<g style="mix-blend-mode:screen">
<path d="M43.464 22.1082C42.9416 22.3946 42.4902 22.7944 42.1427 23.2783C41.7952 23.7622 41.5606 24.3178 41.4562 24.9042C41.2438 28.4112 41.3433 31.93 41.7536 35.4193C42.0175 37.2878 42.5958 39.0981 43.464 40.7735C42.7328 38.4287 42.2347 36.0176 41.9767 33.5751C41.5222 29.6886 42.033 25.75 43.464 22.1082Z" fill="#4A4A4A"/>
</g>
<g style="mix-blend-mode:multiply" opacity="0.5">
<path d="M38.6301 22.2122C38.5557 21.9891 38.4962 21.7809 38.4218 21.5876C38.2223 21.0047 37.9787 20.4379 37.6931 19.8921C37.4198 19.4385 37.1062 19.0104 36.7561 18.613C36.5891 18.4141 36.4104 18.2253 36.2207 18.0479C36.9101 19.4988 37.7158 20.8914 38.6301 22.2122Z" fill="#4A4A4A"/>
</g>
<path d="M10 16.2629L12.4986 14.85L14.4321 16.9917L16.2614 16.3968L17.1241 17.1256L18.18 16.6496L17.1687 16.7389L16.2168 15.9952L14.6106 16.5901L12.5879 14.6121L10 16.2629Z" fill="#ED1C24"/>
<path d="M11.1007 11.1765L13.9563 11.3252L14.4619 14.1659L16.321 14.6418L16.6482 15.7127L17.7935 15.8763L16.9011 15.4152L16.4846 14.27L14.8189 13.928L14.1645 11.1616L11.1007 11.1765Z" fill="#ED1C24"/>
</g>
<defs>
<clipPath id="clip0_12164_1483">
<rect width="56" height="56" rx="28" fill="white"/>
</clipPath>
</defs>
</svg>
