<svg width="56" height="56" viewBox="0 0 56 56" fill="none" xmlns="http://www.w3.org/2000/svg">
<g clip-path="url(#clip0_12164_512)">
<rect width="56" height="56" rx="28" fill="#54D1FF"/>
<path d="M11.0682 38.792C11.0682 38.792 13.616 33.1075 16.2596 32.5322C16.2596 32.5322 17.2048 33.0801 16.0953 35.0115C14.9858 36.9428 11.0682 38.792 11.0682 38.792Z" fill="#18120E"/>
<path d="M12.0954 28.3545L16.8759 33.5869L13.8487 37.5318C13.8487 37.5318 9.67094 31.8199 9.39699 29.9571C9.12304 28.0942 12.0954 28.3545 12.0954 28.3545Z" fill="#E3BB94"/>
<path d="M11.0682 38.792C11.0682 38.8742 17.0815 44.0108 20.4374 45.2024C21.8071 45.6682 25.5466 38.9564 23.5056 37.4907C23.081 37.1894 17.0815 33.1897 16.2596 32.5322C15.835 34.5321 12.753 37.6962 11.0682 38.792Z" fill="#AC9E8C"/>
<g style="mix-blend-mode:multiply" opacity="0.5">
<path d="M23.5057 37.4909L21.6154 36.217C21.1359 36.7743 20.7095 37.375 20.3415 38.0114C19.925 38.8526 19.5813 39.7278 19.3142 40.6277C19.1734 41.1939 18.8203 41.6843 18.328 41.9974C17.2185 42.5727 15.7528 41.6687 14.794 41.1755C13.4243 40.4907 12.3969 39.436 11.1094 38.71C11.1094 38.7922 17.1226 43.9288 20.4785 45.1204C21.7661 45.6683 25.5466 38.9566 23.5057 37.4909Z" fill="#AC9E8C"/>
</g>
<path d="M45.5176 39.9974C45.5176 39.9974 43.4629 34.1211 40.8741 33.3267C40.8741 33.3267 39.8742 33.8061 40.8741 35.8196C41.874 37.8332 45.5176 39.9974 45.5176 39.9974Z" fill="#18120E"/>
<path d="M28.9845 34.0254L29.3132 38.4223C29.3132 38.4223 27.5873 42.696 25.9436 42.5316C24.2999 42.3672 24.2588 38.7648 24.2588 38.7648V33.998L28.9845 34.0254Z" fill="#E3BB94"/>
<path d="M20.1222 48.2023C20.4372 45.1477 20.492 39.0249 21.4919 36.0937C21.8618 36.0115 24.3136 35.354 24.3136 35.354C24.6789 37.4552 25.1729 39.5321 25.7929 41.5727C26.7759 39.4691 27.897 37.4329 29.1488 35.4773L34.7922 36.847C34.7922 36.847 36.5592 54.4758 36.4496 55.462C36.414 56.0934 36.5979 56.7177 36.9701 57.229C37.5591 58.2015 35.7922 58.9823 35.7922 58.9823C26.5189 61.4067 20.5605 59.4206 20.4372 59.3247C20.3139 59.2288 18.7524 58.3659 19.3825 56.9139C19.8687 54.0354 20.1161 51.1216 20.1222 48.2023Z" fill="#C6B6A1"/>
<g style="mix-blend-mode:multiply">
<path d="M25.8343 42.0111C26.3 41.2714 26.8342 40.5592 27.3547 39.8469C28.3546 38.4772 29.3409 37.1074 30.4093 35.7376L29.0395 35.4226C27.7877 37.3782 26.6666 39.4144 25.6836 41.518C25.0636 39.4774 24.5695 37.4006 24.2043 35.2993L23.8481 35.3952C24.0512 37.9258 24.5571 40.4229 25.3549 42.833C25.4984 42.5498 25.6584 42.2754 25.8343 42.0111Z" fill="#C6B6A1"/>
</g>
<g style="mix-blend-mode:multiply">
<path d="M36.9157 57.2154C36.5435 56.7041 36.3596 56.0798 36.3952 55.4484C36.5048 54.4622 34.7378 36.8334 34.7378 36.8334L32.2312 36.2307C31.5189 37.6005 32.012 39.4223 31.9983 40.929C32.0353 43.0985 31.9208 45.268 31.6558 47.4216C31.4062 49.4658 30.6891 51.4249 29.5601 53.1472C29.0535 53.9111 28.44 54.5984 27.7384 55.1881C27.1768 55.6402 26.4371 55.8319 25.8892 56.2839C29.1559 55.2967 31.9907 53.2297 33.9296 50.4214C33.9296 50.4214 34.1077 50.4214 34.094 50.4214C34.0093 52.2125 33.4465 53.9483 32.464 55.4484C31.3347 57.0938 29.6452 58.272 27.711 58.7632C26.7918 59.05 25.8251 59.1529 24.8662 59.0659C23.9073 58.9789 22.9749 58.7039 22.1224 58.2564C20.465 57.2428 20.0951 55.421 19.9855 53.5992L19.9034 52.2295C19.8717 53.7839 19.6788 55.3309 19.328 56.8455C18.698 58.2975 20.2595 59.1741 20.3828 59.2563C20.5061 59.3385 26.4645 61.3383 35.7377 58.9139C35.7377 58.9687 37.5047 58.1879 36.9157 57.2154Z" fill="#C6B6A1"/>
</g>
<path d="M46.1066 30.6557C46.1477 29.8527 46.1477 29.048 46.1066 28.245C46.1066 27.4505 46.1066 26.6698 46.1066 25.8753C46.1279 25.0702 45.9289 24.2745 45.5313 23.5741L45.819 23.67C46.1002 23.7723 46.3963 23.8278 46.6956 23.8344C46.6956 23.8344 46.7914 23.8344 46.764 23.7385C46.3522 23.0412 45.7732 22.4575 45.0793 22.04C45.3591 21.2626 45.4114 20.4216 45.2299 19.6155C45.2299 19.6155 45.2299 19.5196 45.1477 19.6155C44.9423 19.9443 44.4903 20.3689 44.1479 20.8209C43.7277 18.9429 42.8679 17.1914 41.6393 15.7103C40.4106 14.2292 38.848 13.0608 37.0799 12.301C32.1899 10.0683 26.3273 10.8491 21.6702 8.08218L21.5606 8L21.4921 8.08218C22.0811 8.76706 22.6838 9.45194 23.218 10.1642L23.6289 10.7669C23.2591 10.7669 22.8755 10.7669 22.5057 10.8491C21.6737 10.9988 20.8698 11.276 20.1223 11.6709C20.0539 11.6709 20.1223 11.8079 20.1223 11.7942C20.5593 12.0794 21.0172 12.3312 21.4921 12.5476C21.7797 12.6709 22.04 12.8215 22.3276 12.9722C21.393 13.3026 20.4783 13.6868 19.5881 14.1228C19.5881 14.1228 19.5196 14.1228 19.5881 14.205C20.2141 14.4266 20.7843 14.7818 21.2592 15.246C21.1142 16.6224 20.7536 17.9675 20.1908 19.232C19.6018 20.7387 18.8211 22.2591 18.3964 23.807C18.3828 23.8371 18.3758 23.8698 18.3758 23.9029C18.3758 23.9359 18.3828 23.9686 18.3964 23.9987C18.2624 24.3331 18.2107 24.6949 18.2458 25.0534C18.4029 25.803 18.731 26.5062 19.2046 27.1081C20.2344 28.4883 21.5347 29.6442 23.0262 30.5051C26.0534 32.5597 29.5873 34.2719 33.3268 33.2446C33.8062 33.2446 34.2856 33.2446 34.6965 33.2446C35.7816 33.3668 36.8801 33.2737 37.9292 32.9706C38.9154 32.6556 39.8331 32.1762 40.8056 31.8474C41.9323 31.5057 43.1363 31.5152 44.2574 31.8748C44.272 31.8832 44.2885 31.8877 44.3054 31.8877C44.3222 31.8877 44.3387 31.8832 44.3533 31.8748H44.4629C44.4118 31.5199 44.3246 31.171 44.2026 30.8338C44.2026 30.6831 44.1204 30.5462 44.0931 30.4092H44.4355C44.9915 30.4745 45.5355 30.6174 46.0518 30.8338H46.134C46.1576 30.8302 46.1788 30.8173 46.1929 30.798C46.207 30.7788 46.2129 30.7547 46.2093 30.7311C46.2057 30.7075 46.1928 30.6863 46.1736 30.6721C46.1543 30.658 46.1302 30.6521 46.1066 30.6557Z" fill="#7D7D7D"/>
<path d="M34.4908 32.9296C34.5361 33.2884 34.67 33.6304 34.8804 33.9245C35.0908 34.2186 35.3712 34.4557 35.6962 34.6144C36.265 34.7936 36.8778 34.7731 37.4333 34.5564C37.9889 34.3397 38.4537 33.9397 38.7508 33.4227C39.2713 32.5872 39.6959 31.464 38.2988 31.4777C37.3527 31.5143 36.4226 31.7329 35.5593 32.1214L34.4908 32.9296Z" fill="#EDC8A5"/>
<path d="M20.492 21.451C20.492 21.451 20.4921 19.6155 19.3004 19.6018C19.0366 19.6198 18.7794 19.6921 18.545 19.8142C18.3105 19.9363 18.1038 20.1056 17.9378 20.3114C17.7719 20.5172 17.6503 20.7551 17.5807 21.0101C17.5111 21.2652 17.495 21.5318 17.5334 21.7934C17.5334 22.5057 18.4374 24.3001 18.9031 24.3412C19.3688 24.3822 20.492 21.451 20.492 21.451Z" fill="#EDC8A5"/>
<path d="M19.369 22.177C19.4102 21.923 19.4102 21.664 19.369 21.41C19.3612 21.3041 19.325 21.2023 19.2641 21.1153C19.2032 21.0284 19.1199 20.9595 19.023 20.916C18.9262 20.8725 18.8194 20.856 18.7139 20.8682C18.6085 20.8804 18.5083 20.9209 18.4239 20.9853C18.6294 20.9853 18.8486 20.9853 18.9718 21.1223C19.0484 21.2801 19.0859 21.4539 19.0814 21.6291C18.8321 21.5996 18.5803 21.6577 18.3691 21.7935C18.3691 21.7935 18.3691 21.8894 18.3691 21.8757C18.5935 21.7865 18.8434 21.7865 19.0677 21.8757C19.0677 21.9716 19.0677 22.0811 19.0677 22.177C19.0339 22.3304 19.0339 22.4893 19.0677 22.6427C19.088 22.662 19.115 22.6727 19.1431 22.6727C19.1711 22.6727 19.198 22.662 19.2184 22.6427C19.3417 22.629 19.3416 22.2866 19.369 22.177Z" fill="#C19168"/>
<path d="M41.0384 23.2454C40.4746 21.0337 39.2574 19.0432 37.5455 17.5335C36.2091 16.2106 34.5754 15.2268 32.781 14.6644C30.9866 14.102 29.0837 13.9774 27.2312 14.3009C26.0081 14.3367 24.8417 14.8248 23.9575 15.6707C23.3287 16.4005 22.8243 17.2289 22.4645 18.1225C21.967 19.1846 21.2367 20.121 20.3277 20.862C18.9579 21.9852 17.1088 25.3959 18.7114 29.9709C20.0811 34.0802 24.8479 36.0252 29.0941 35.5321C30.721 35.3558 32.2929 34.8406 33.7084 34.0196C35.124 33.1986 36.3518 32.09 37.3126 30.7654L38.2715 29.3956C38.2985 29.4112 38.3292 29.4195 38.3605 29.4195C38.3918 29.4195 38.4225 29.4112 38.4495 29.3956C39.4271 28.7283 40.1914 27.7931 40.6506 26.7021C41.1098 25.6112 41.2444 24.411 41.0384 23.2454Z" fill="#F2D7BD"/>
<path style="mix-blend-mode:multiply" d="M41.0384 23.2454C40.4746 21.0337 39.2574 19.0432 37.5455 17.5335C36.2091 16.2106 34.5754 15.2268 32.781 14.6644C30.9866 14.102 29.0837 13.9774 27.2312 14.3009C26.0081 14.3367 24.8417 14.8248 23.9575 15.6707C23.3287 16.4005 22.8243 17.2289 22.4645 18.1225C21.967 19.1846 21.2367 20.121 20.3277 20.862C18.9579 21.9852 17.1088 25.3959 18.7114 29.9709C20.0811 34.0802 24.8479 36.0252 29.0941 35.5321C30.721 35.3558 32.2929 34.8406 33.7084 34.0196C35.124 33.1986 36.3518 32.09 37.3126 30.7654L38.2715 29.3956C38.2985 29.4112 38.3292 29.4195 38.3605 29.4195C38.3918 29.4195 38.4225 29.4112 38.4495 29.3956C39.4271 28.7283 40.1914 27.7931 40.6506 26.7021C41.1098 25.6112 41.2444 24.411 41.0384 23.2454Z" fill="url(#paint0_radial_12164_512)"/>
<g style="mix-blend-mode:multiply" opacity="0.5">
<path d="M19.8074 22.5058C19.9839 22.3467 20.2027 22.2421 20.4374 22.2045C20.8489 22.1212 21.2522 22.002 21.6428 21.8483C22.5868 21.5026 23.3811 20.8392 23.8892 19.9717C24.2865 19.2869 24.6015 18.739 25.4644 18.602C26.0354 18.6441 26.6042 18.4947 27.0807 18.1774C27.2176 18.0062 27.3053 17.801 27.3342 17.5838C27.3632 17.3666 27.3324 17.1456 27.2451 16.9446C27.1355 16.4789 27.5876 16.3419 27.9163 16.109C28.6919 15.6075 29.3018 14.8879 29.6696 14.0407C28.8506 13.9966 28.0295 14.0704 27.2314 14.2599C26.0083 14.2957 24.8419 14.7837 23.9577 15.6296C23.3289 16.3595 22.8245 17.1878 22.4647 18.0815C21.9672 19.1436 21.2369 20.0799 20.3279 20.821C19.2261 21.8581 18.4988 23.2308 18.2595 24.7248C18.7356 23.9581 19.2523 23.2174 19.8074 22.5058Z" fill="#EDC8A5"/>
</g>
<g style="mix-blend-mode:multiply" opacity="0.5">
<path d="M21.4237 27.6149C21.8152 28.3915 22.4929 28.9857 23.314 29.2723C23.04 28.4779 22.1771 27.3547 21.4237 27.6149Z" fill="#EDC8A5"/>
</g>
<g style="mix-blend-mode:multiply" opacity="0.5">
<path d="M41.0385 23.2454C40.4748 21.0337 39.2576 19.0432 37.5457 17.5335C36.2093 16.2106 34.5756 15.2268 32.7812 14.6644C30.9868 14.102 29.0839 13.9774 27.2314 14.3009C26.0083 14.3367 24.8419 14.8248 23.9577 15.6707C23.8111 15.8082 23.6781 15.9596 23.5605 16.1227C26.0809 17.4924 31.779 19.4375 31.6557 19.5197C30.9301 20.0841 30.1658 20.5967 29.3683 21.0538C30.032 21.3123 30.7086 21.5364 31.3955 21.725C32.951 22.1982 34.5544 22.4968 36.1759 22.6153C36.2089 23.5854 36.1631 24.5565 36.039 25.5192C36.5587 25.242 37.1047 25.0171 37.669 24.848C37.8059 24.848 35.9842 30.1764 34.2035 31.9981C32.4337 33.818 30.0287 34.8831 27.4917 34.9705C26.2082 35.009 24.9316 34.7694 23.7495 34.2681C22.5673 33.7669 21.5076 33.0159 20.6429 32.0666C19.581 30.8705 18.7705 29.473 18.2595 27.9574C18.3652 28.6384 18.5349 29.308 18.7664 29.9572C20.1361 34.0665 24.9028 36.0115 29.1491 35.5184C30.776 35.3422 32.3479 34.8269 33.7634 34.0059C35.179 33.1849 36.4068 32.0763 37.3676 30.7517L38.3265 29.3819C38.3535 29.3975 38.3842 29.4058 38.4155 29.4058C38.4467 29.4058 38.4774 29.3975 38.5045 29.3819C39.4697 28.7087 40.2215 27.7727 40.6707 26.685C41.1199 25.5973 41.2475 24.4035 41.0385 23.2454Z" fill="#EDC8A5"/>
</g>
<path d="M28.9572 27.9435C28.6969 28.4092 28.286 28.6695 28.0532 28.5325C27.8203 28.3956 27.8203 27.9161 28.0532 27.4504C28.286 26.9847 28.7243 26.7245 28.9709 26.8614C29.2175 26.9984 29.19 27.4778 28.9572 27.9435Z" fill="#3D1B0B"/>
<path d="M28.6424 27.2998C28.5602 27.4368 28.4233 27.5053 28.3548 27.4642C28.2863 27.4231 28.3548 27.2724 28.3548 27.1355C28.3548 26.9985 28.5739 26.9437 28.6424 26.9848C28.7109 27.0259 28.7383 27.1766 28.6424 27.2998Z" fill="white"/>
<path d="M23.0674 24.6015C22.8071 25.0672 22.4099 25.3275 22.1633 25.1905C21.9168 25.0535 21.9305 24.5741 22.1633 24.1084C22.3962 23.6427 22.8345 23.3824 23.0811 23.5194C23.3276 23.6564 23.3276 24.1358 23.0674 24.6015Z" fill="#3D1B0B"/>
<path d="M22.7661 23.9713C22.6702 24.0946 22.5469 24.163 22.4784 24.1219C22.4099 24.0808 22.4784 23.9302 22.4784 23.8069C22.4784 23.6836 22.7113 23.6014 22.7798 23.6425C22.8483 23.6836 22.862 23.8343 22.7661 23.9713Z" fill="white"/>
<path d="M37.9841 32.5871C37.4636 32.0255 36.313 32.7651 35.8473 33.0528V33.135L36.5459 32.8473C36.6966 33.0802 36.9568 33.313 36.9294 33.6144C36.9294 33.6144 37.0116 33.6966 37.0253 33.6144C37.0541 33.4611 37.0494 33.3034 37.0116 33.1521C36.9738 33.0008 36.9037 32.8594 36.8061 32.7377C37.0425 32.6737 37.288 32.6506 37.5321 32.6692C38.1074 32.7377 37.6417 33.45 37.5321 33.7103C37.4225 33.9705 37.6006 33.8472 37.6417 33.7924C37.9431 33.5459 38.3129 32.9295 37.9841 32.5871Z" fill="#C19168"/>
<path d="M31.601 26.6973C31.387 26.1787 31.0648 25.7117 30.6559 25.3275C30.0669 24.8207 29.0944 24.5741 28.8067 23.8345C28.7365 24.0413 28.6771 24.2516 28.6287 24.4646C28.7086 24.6989 28.8507 24.9072 29.0396 25.0673C29.885 25.5969 30.6907 26.1875 31.4504 26.8342C31.4504 26.7931 31.6695 26.8616 31.601 26.6973Z" fill="#7D7D7D"/>
<path d="M24.3549 26.3958C23.3577 26.3989 22.3913 26.7419 21.6154 27.3683C20.9442 27.9162 22.4509 28.8476 22.8481 28.9435C22.8481 28.9435 23.0125 28.8202 22.9577 28.7928C22.492 28.5052 21.136 27.8066 22.04 27.2587C22.7325 26.8113 23.521 26.5344 24.3412 26.4505C24.3412 26.4505 24.3686 26.3958 24.3549 26.3958Z" fill="#C39368"/>
<g style="mix-blend-mode:multiply" opacity="0.5">
<path d="M19.8483 24.807C24.1368 25.8694 28.1096 27.9403 31.4364 30.8476C30.3045 28.8202 28.6044 27.1681 26.5454 26.0948C24.4864 25.0215 22.1585 24.5739 19.8483 24.807Z" fill="#EDC8A5"/>
</g>
<path d="M43.9286 31.7241L40.4631 34.7924L42.7369 38.2989C44.1478 37.0193 45.3372 35.5151 46.2572 33.8472C46.901 32.0666 43.9286 31.7241 43.9286 31.7241Z" fill="#E3BB94"/>
<path d="M46.997 32.1488C46.86 32.683 46.408 34.5322 45.093 34.5322C41.9152 34.5322 36.8745 21.8345 36.8745 21.8345L39.4497 20.7524C39.4497 20.7524 46.3395 28.5737 46.997 32.1488Z" fill="#F4D9BF"/>
<path d="M38.6277 13.7667C38.2168 13.7667 37.6004 14.2324 37.3949 15.5474C36.4658 14.4362 35.1938 13.6653 33.7788 13.3558C33.5862 13.3035 33.3823 13.3108 33.194 13.3768C33.0057 13.4429 32.8418 13.5645 32.724 13.7256C32.724 13.7256 32.0118 13.5749 31.7926 13.89C31.5871 14.6022 32.9158 15.109 33.8199 16.0679C33.1898 15.8487 31.1899 15.0816 30.9571 15.9035C30.7242 16.7254 32.9432 17.013 33.8609 17.9444C33.0665 17.6431 31.7241 17.5883 31.7378 18.1088C31.7515 18.6293 32.861 19.0128 33.6281 19.2457C34.3951 19.4786 34.0116 20.0265 34.765 21.0949C35.08 21.451 36.5457 23.5467 37.6552 23.4371C38.1947 23.3332 38.7025 23.1044 39.1377 22.769C39.573 22.4336 39.9237 22.001 40.1618 21.5058C40.0575 19.7491 39.5912 18.033 38.7921 16.4651C38.4085 15.5885 39.0523 13.753 38.6277 13.7667Z" fill="#F4D9BF"/>
<path d="M32.7241 13.7256H32.957C33.1721 13.7653 33.383 13.8249 33.5871 13.9037L33.9843 14.068L34.2035 14.1639L34.4089 14.2872L34.8473 14.5611L35.2856 14.8762L35.6828 15.2323L36.0389 15.6022L36.354 15.972L36.6143 16.3144C36.6889 16.4106 36.7575 16.5112 36.8197 16.6158L36.9567 16.8623L37.08 17.0678L36.9293 16.876L36.7512 16.6569L36.5184 16.3829L36.2444 16.0679L35.9157 15.7254L35.5459 15.383C35.4198 15.2616 35.2872 15.1473 35.1486 15.0405L34.7377 14.7255C34.587 14.6296 34.4637 14.52 34.3268 14.4516L33.9158 14.205C33.7926 14.1228 33.6556 14.068 33.5323 13.9995C33.409 13.931 33.094 13.8078 32.957 13.7667L32.7241 13.7256Z" fill="#C39368"/>
<path d="M33.7651 15.9856H33.8884L34.1898 16.0952C34.313 16.0952 34.45 16.2185 34.6007 16.2869L34.8198 16.4239C34.9034 16.4643 34.9816 16.5149 35.0527 16.5746C35.1973 16.6738 35.3305 16.7886 35.4499 16.917L35.6143 17.0951L35.7513 17.2595C35.8368 17.3823 35.9146 17.5104 35.9841 17.643C35.9841 17.643 35.8335 17.5197 35.6554 17.3416C35.612 17.289 35.5612 17.2429 35.5047 17.2047L35.3267 17.0403L35.1349 16.8896L34.9294 16.739L34.7103 16.5883L34.5048 16.4376C34.3678 16.3554 34.2445 16.2595 34.135 16.2048L33.7651 15.9856Z" fill="#C39368"/>
<path d="M33.8201 17.876C33.9148 17.9034 34.0065 17.9401 34.094 17.9856L34.3543 18.1088L34.6282 18.3006C34.7201 18.3623 34.8071 18.431 34.8885 18.5061L35.0939 18.7252C35.1606 18.7969 35.2203 18.8749 35.272 18.9581L35.0117 18.8211L34.7789 18.6567L34.5049 18.465L34.2447 18.2595L34.0255 18.0814L33.8201 17.876Z" fill="#C39368"/>
<path d="M37.4086 15.5474C37.4633 15.5827 37.5138 15.6241 37.5593 15.6706C37.6584 15.7612 37.7418 15.8677 37.8058 15.9857C37.8841 16.094 37.9443 16.2142 37.9839 16.3418C37.9901 16.401 37.9901 16.4607 37.9839 16.5199L37.8332 16.4103C37.7372 16.3169 37.6542 16.211 37.5867 16.0953C37.5095 15.9793 37.4452 15.8553 37.3949 15.7254C37.3965 15.6659 37.4011 15.6065 37.4086 15.5474Z" fill="#C39368"/>
<path d="M43.9286 31.7241L40.4631 34.7924L42.7369 38.2989C44.1478 37.0193 45.3372 35.5151 46.2572 33.8472C46.901 32.0666 43.9286 31.7241 43.9286 31.7241Z" fill="#E3BB94"/>
<path d="M46.997 32.1488C46.86 32.683 46.408 34.5322 45.093 34.5322C41.9152 34.5322 36.8745 21.8345 36.8745 21.8345L39.4497 20.7524C39.4497 20.7524 46.3395 28.5737 46.997 32.1488Z" fill="#F4D9BF"/>
<path d="M38.6277 13.7667C38.2168 13.7667 37.6004 14.2324 37.3949 15.5474C36.4658 14.4362 35.1938 13.6653 33.7788 13.3558C33.5862 13.3035 33.3823 13.3108 33.194 13.3768C33.0057 13.4429 32.8418 13.5645 32.724 13.7256C32.724 13.7256 32.0118 13.5749 31.7926 13.89C31.5871 14.6022 32.9158 15.109 33.8199 16.0679C33.1898 15.8487 31.1899 15.0816 30.9571 15.9035C30.7242 16.7254 32.9432 17.013 33.8609 17.9444C33.0665 17.6431 31.7241 17.5883 31.7378 18.1088C31.7515 18.6293 32.861 19.0128 33.6281 19.2457C34.3951 19.4786 34.0116 20.0265 34.765 21.0949C35.08 21.451 36.5457 23.5467 37.6552 23.4371C38.1947 23.3332 38.7025 23.1044 39.1377 22.769C39.573 22.4336 39.9237 22.001 40.1618 21.5058C40.0575 19.7491 39.5912 18.033 38.7921 16.4651C38.4085 15.5885 39.0523 13.753 38.6277 13.7667Z" fill="#F4D9BF"/>
<path d="M32.7241 13.7256H32.957C33.1721 13.7653 33.383 13.8249 33.5871 13.9037L33.9843 14.068L34.2035 14.1639L34.4089 14.2872L34.8473 14.5611L35.2856 14.8762L35.6828 15.2323L36.0389 15.6022L36.354 15.972L36.6143 16.3144C36.6889 16.4106 36.7575 16.5112 36.8197 16.6158L36.9567 16.8623L37.08 17.0678L36.9293 16.876L36.7512 16.6569L36.5184 16.3829L36.2444 16.0679L35.9157 15.7254L35.5459 15.383C35.4198 15.2616 35.2872 15.1473 35.1486 15.0405L34.7377 14.7255C34.587 14.6296 34.4637 14.52 34.3268 14.4516L33.9158 14.205C33.7926 14.1228 33.6556 14.068 33.5323 13.9995C33.409 13.931 33.094 13.8078 32.957 13.7667L32.7241 13.7256Z" fill="#C39368"/>
<path d="M33.7651 15.9856H33.8884L34.1898 16.0952C34.313 16.0952 34.45 16.2185 34.6007 16.2869L34.8198 16.4239C34.9034 16.4643 34.9816 16.5149 35.0527 16.5746C35.1973 16.6738 35.3305 16.7886 35.4499 16.917L35.6143 17.0951L35.7513 17.2595C35.8368 17.3823 35.9146 17.5104 35.9841 17.643C35.9841 17.643 35.8335 17.5197 35.6554 17.3416C35.612 17.289 35.5612 17.2429 35.5047 17.2047L35.3267 17.0403L35.1349 16.8896L34.9294 16.739L34.7103 16.5883L34.5048 16.4376C34.3678 16.3554 34.2445 16.2595 34.135 16.2048L33.7651 15.9856Z" fill="#C39368"/>
<path d="M33.8201 17.876C33.9148 17.9034 34.0065 17.9401 34.094 17.9856L34.3543 18.1088L34.6282 18.3006C34.7201 18.3623 34.8071 18.431 34.8885 18.5061L35.0939 18.7252C35.1606 18.7969 35.2203 18.8749 35.272 18.9581L35.0117 18.8211L34.7789 18.6567L34.5049 18.465L34.2447 18.2595L34.0255 18.0814L33.8201 17.876Z" fill="#C39368"/>
<path d="M37.4086 15.5474C37.4633 15.5827 37.5138 15.6241 37.5593 15.6706C37.6584 15.7612 37.7418 15.8677 37.8058 15.9857C37.8841 16.094 37.9443 16.2142 37.9839 16.3418C37.9901 16.401 37.9901 16.4607 37.9839 16.5199L37.8332 16.4103C37.7372 16.3169 37.6542 16.211 37.5867 16.0953C37.5095 15.9793 37.4452 15.8553 37.3949 15.7254C37.3965 15.6659 37.4011 15.6065 37.4086 15.5474Z" fill="#C39368"/>
<path d="M45.5176 39.9974C45.5176 40.0795 39.2167 44.8052 35.7649 45.7229C34.3952 46.0791 31.4091 38.0797 33.587 36.7921C34.0253 36.5319 39.9975 33.9157 40.8741 33.3267C41.1207 35.3676 43.8876 38.7235 45.5176 39.9974Z" fill="#AC9E8C"/>
<g style="mix-blend-mode:multiply" opacity="0.5">
<path d="M41.2712 34.6143C41.4082 35.2033 41.6 35.7785 41.778 36.3265C41.9561 36.8744 42.2575 37.6962 42.504 38.2989C42.7199 38.7245 42.8414 39.1918 42.8602 39.6687C42.8602 40.3261 42.1479 40.8466 41.6411 41.1754C40.957 41.5929 40.248 41.968 39.518 42.2986C38.9153 42.5862 38.3125 42.8739 37.6962 43.1341C37.1352 43.3911 36.547 43.5841 35.9429 43.7094C35.0799 43.819 34.5731 43.1478 34.1622 42.504C33.4914 41.539 33.0853 40.415 32.9842 39.244C32.9593 38.5062 33.0612 37.7695 33.2855 37.0661C31.724 38.9153 34.4772 46.0654 35.7648 45.7367C39.2166 44.8189 45.5586 40.0933 45.5175 40.0111C43.7414 38.5277 42.2951 36.6895 41.2712 34.6143Z" fill="#AC9E8C"/>
</g>
<path d="M8.99988 28.1491C8.99988 28.697 9.08206 30.5872 10.3696 30.8886C13.4653 31.5461 21.0263 20.1497 21.0263 20.1497L18.7388 18.5608C18.7388 18.5608 10.3833 24.7795 8.99988 28.1491Z" fill="#F4D9BF"/>
<path d="M20.9716 11.8626C21.3688 11.9585 21.8893 12.5475 21.8208 13.8624C22.9602 12.9753 24.3628 12.4933 25.8068 12.4927C26.0058 12.4821 26.2033 12.5313 26.3742 12.6338C26.545 12.7363 26.6813 12.8875 26.7657 13.068C26.7657 13.068 27.4916 13.068 27.6423 13.4104C27.6423 14.1501 26.2725 14.3829 25.2041 15.1363C25.8616 15.0404 27.9437 14.7117 28.0532 15.5609C28.1628 16.4102 25.8616 16.2458 24.7795 16.9307C25.6288 16.8074 26.9574 17.0266 26.8341 17.5334C26.7109 18.0402 25.5466 18.1909 24.7384 18.2594C23.9303 18.3278 24.2042 18.9442 23.2591 19.8346C22.8756 20.1085 20.999 21.8618 19.9443 21.5468C19.4375 21.3293 18.9881 20.9972 18.6315 20.5764C18.275 20.1557 18.021 19.6579 17.8896 19.1223C18.3395 17.4233 19.1475 15.84 20.2593 14.4788C20.8072 13.6844 20.5744 11.7667 20.9716 11.8626Z" fill="#F4D9BF"/>
<path d="M26.7658 13.0408H26.5192H25.8754L25.4508 13.123H25.218L24.9851 13.2052C24.8166 13.2524 24.6518 13.3119 24.492 13.3833L24.0126 13.6024L23.5469 13.8627L23.1222 14.1503L22.7387 14.4517L22.4099 14.7393L22.1497 14.9859L21.9579 15.1913L21.7936 15.3831L21.9853 15.2324L22.2045 15.0544C22.2948 14.9701 22.3909 14.8923 22.4921 14.8215L22.8346 14.5749L23.2181 14.301L23.7112 14.0681L24.1632 13.8216L24.629 13.5887L25.0947 13.397L25.5467 13.2463C25.6759 13.1989 25.8087 13.1622 25.9439 13.1367C26.2042 13.1367 26.4233 13.0271 26.574 13.0134L26.7658 13.0408Z" fill="#C39368"/>
<path d="M25.2727 15.0405H25.1494H24.8343C24.6814 15.0672 24.5304 15.1038 24.3823 15.1501L24.1495 15.2323C24.0673 15.2323 23.9714 15.2323 23.9029 15.3282C23.7417 15.4038 23.586 15.4907 23.4372 15.5884L23.2317 15.7254L23.0673 15.8624C22.8756 16.0541 22.766 16.1911 22.766 16.1911C22.895 16.123 23.0186 16.0452 23.1358 15.9583C23.1953 15.9182 23.2598 15.886 23.3276 15.8624L23.5331 15.7391L23.7522 15.6295L23.9851 15.5199L24.2179 15.4241L24.4508 15.3145L24.8617 15.1638L25.2727 15.0405Z" fill="#C39368"/>
<path d="M24.8342 16.876C24.7385 16.8659 24.6421 16.8659 24.5465 16.876L24.2725 16.9582L23.9575 17.0814L23.6561 17.2321L23.4096 17.4102C23.3295 17.4656 23.256 17.5299 23.1904 17.6019C23.2845 17.5786 23.3763 17.5465 23.4644 17.5061L23.7383 17.3965L24.0397 17.2732L24.341 17.1362L24.5876 16.9993L24.8342 16.876Z" fill="#C39368"/>
<path d="M21.8209 13.8625C21.7575 13.8864 21.6976 13.9186 21.6428 13.9584C21.4129 14.0973 21.2201 14.2901 21.0812 14.52C21.0486 14.5768 21.0211 14.6364 20.999 14.6981L21.1634 14.6022C21.278 14.5331 21.3838 14.4503 21.4784 14.3557C21.574 14.2619 21.6569 14.1559 21.725 14.0406C21.7648 13.9858 21.7971 13.9259 21.8209 13.8625Z" fill="#C39368"/>
<path d="M34.9705 25.4644C34.9705 25.4644 33.9295 27.0944 34.2171 27.245C34.2171 27.245 34.5322 27.5053 34.6828 27.067C34.8139 26.5397 34.91 26.0043 34.9705 25.4644Z" fill="#C0E5F0"/>
<path d="M36.3126 25.1082C36.3126 25.1082 35.3675 26.2314 35.614 26.3409C35.6501 26.3647 35.6908 26.3804 35.7335 26.387C35.7762 26.3936 35.8198 26.391 35.8613 26.3793C35.9029 26.3676 35.9414 26.3472 35.9744 26.3193C36.0074 26.2914 36.034 26.2567 36.0524 26.2177C36.1704 25.8559 36.2575 25.4847 36.3126 25.1082Z" fill="#C0E5F0"/>
<path d="M34.5733 22.9851C34.5733 22.9851 33.6282 24.1083 33.8748 24.2179C33.9108 24.2416 33.9516 24.2573 33.9942 24.264C34.0369 24.2706 34.0805 24.268 34.122 24.2563C34.1636 24.2446 34.2022 24.2241 34.2351 24.1962C34.2681 24.1683 34.2947 24.1337 34.3131 24.0946C34.4258 23.7314 34.5128 23.3606 34.5733 22.9851Z" fill="#C0E5F0"/>
</g>
<defs>
<radialGradient id="paint0_radial_12164_512" cx="0" cy="0" r="1" gradientUnits="userSpaceOnUse" gradientTransform="translate(32.6281 18.7937) scale(12.6565 12.6565)">
<stop offset="0.34" stop-color="#F9CBC0"/>
<stop offset="0.94" stop-color="white"/>
</radialGradient>
<clipPath id="clip0_12164_512">
<rect width="56" height="56" rx="28" fill="white"/>
</clipPath>
</defs>
</svg>
