<svg width="56" height="56" viewBox="0 0 56 56" fill="none" xmlns="http://www.w3.org/2000/svg">
<g clip-path="url(#clip0_12164_11)">
<rect width="56" height="56" rx="28" fill="#54D1FF"/>
<path d="M44.9999 41.776C44.8121 40.4859 43.743 39.6545 43.1362 38.5651C42.4283 37.2606 43.1362 35.6982 43.6852 34.4224C44.1728 33.2836 44.3232 32.0306 44.1187 30.8101C43.7962 29.6037 43.3103 28.4464 42.674 27.3698C42.048 25.9158 41.838 24.3187 42.0672 22.754C42.0672 22.066 42.2261 21.3206 42.3417 20.6755V20.4748C42.3779 19.9259 42.3779 19.3753 42.3417 18.8263C42.2933 17.931 42.1333 17.045 41.865 16.1888C41.627 15.814 41.3404 15.4718 41.0126 15.171C40.5301 14.6441 39.998 14.1641 39.4235 13.7376C38.8155 13.3619 38.1778 13.0359 37.5165 12.7628C36.1647 12.1155 34.7384 11.6341 33.2691 11.3294C31.5066 11.014 29.7874 10.6986 27.996 10.5553C25.1067 10.3116 22.0151 10.5553 19.7181 12.5335C18.7134 13.439 17.9027 14.5358 17.3343 15.7588C17.0384 16.3277 16.8105 16.9291 16.6554 17.5506C16.6554 17.6222 16.6554 18.0809 16.5687 18.554C16.3709 19.7141 16.332 20.8955 16.4531 22.066C16.7372 23.8615 16.3465 25.6981 15.3551 27.2264C14.5172 28.4018 13.4049 29.3623 12.6103 30.5664C11.8231 31.6245 11.375 32.8931 11.3245 34.2073C11.3633 34.8558 11.5199 35.492 11.7868 36.0852C12.1551 36.8009 12.5802 37.4863 13.0581 38.135C13.2969 38.5914 13.3929 39.1081 13.3337 39.6189C13.2745 40.1297 13.0628 40.6113 12.7258 41.0019C12.2924 41.561 11.6856 41.905 11.2811 42.4354C11.0691 42.7737 10.9728 43.1709 11.0066 43.5678C11.0066 44.1269 11.3823 44.3276 11.8446 44.5139C11.8446 44.5139 11.8446 44.5139 11.9602 44.5856C12.0757 44.6573 11.9602 44.5856 11.9602 44.5139C11.7874 44.1764 11.7563 43.7848 11.8735 43.4245C11.8779 43.6003 11.9201 43.7731 11.9974 43.9313C12.0746 44.0895 12.1851 44.2295 12.3213 44.3419C12.9137 44.8149 13.6793 44.9009 13.4481 45.8757C13.4481 45.8757 13.4481 45.8757 13.5348 45.8757C14.0838 45.6177 14.026 45.1446 14.1994 44.6716C14.1994 44.901 14.1994 45.1303 14.3295 45.3597C14.4595 45.589 14.9217 45.9904 15.1673 46.1624C15.4129 46.3344 15.2974 46.1624 15.3118 46.0764C15.4274 45.7754 15.3118 45.4743 15.3118 45.1733C15.5285 45.9331 16.4242 46.1767 17.161 46.2771C18.5045 46.4634 20.0504 46.3774 21.0039 47.5385C21.0039 47.5385 21.1339 47.5385 21.1628 47.5385C21.3009 47.2677 21.3704 46.9676 21.365 46.6641C21.3937 46.8961 21.4889 47.1151 21.6395 47.2948C21.6395 47.2948 21.7261 47.2948 21.755 47.2948C21.9905 46.9634 22.1394 46.5793 22.1884 46.1767C22.2859 46.459 22.4493 46.7144 22.6652 46.9221C23.1298 47.2471 23.6555 47.4762 24.211 47.5959C25.3234 48.0546 25.0634 47.0798 25.1645 46.3057C25.1645 46.6784 25.3089 47.2088 25.5401 47.3235C25.7712 47.4382 26.2625 47.1371 26.5081 46.9508C26.9296 46.608 27.27 46.1773 27.5049 45.6894C27.5084 45.6416 27.5084 45.5937 27.5049 45.546V45.933C27.46 46.0743 27.3968 46.2092 27.3171 46.3344C27.1293 46.6354 26.8837 46.8935 26.667 47.1801C26.667 47.1801 26.667 47.2805 26.667 47.3092C27.1595 47.4741 27.6849 47.5184 28.1983 47.4382C28.7383 47.4272 29.268 47.2897 29.7441 47.0368C30.1471 46.805 30.4926 46.4866 30.7554 46.1051C30.7484 46.1478 30.7484 46.1913 30.7554 46.2341C30.7554 46.8074 30.4231 46.7645 30.2353 47.0798C30.4664 47.4669 31.3044 46.9938 31.5644 46.8361C31.8892 46.6304 32.1691 46.3624 32.3879 46.0477C32.2736 46.3657 32.0968 46.6581 31.8678 46.9078V47.0081C32.2578 47.3952 33.5292 47.0081 33.9048 46.6928C34.1719 46.4924 34.3934 46.2384 34.5549 45.9474C34.5549 46.1051 34.0781 46.6211 34.1359 46.8075C34.2659 47.2805 35.3784 47.0368 35.6962 46.9938C36.4198 46.8655 37.0942 46.5433 37.6465 46.0621C37.7977 45.9407 37.9423 45.8115 38.0799 45.675C38.2388 45.503 38.5422 44.9583 38.2099 45.675C38.0655 45.976 37.8054 46.1767 37.6754 46.4921C37.6754 46.4921 37.6754 46.4921 37.6754 46.5638C38.0077 46.7071 38.5278 46.2197 38.7589 46.0334C39.0756 45.761 39.3356 45.4299 39.5245 45.0586C39.476 45.2996 39.447 45.5441 39.4379 45.7897C39.4412 45.9499 39.4821 46.1072 39.5573 46.249C39.6326 46.3908 39.7401 46.5133 39.8713 46.6068C39.8713 46.6068 40.0013 46.6068 40.0158 46.4921C40.0431 45.9849 40.197 45.4923 40.4636 45.0586C40.3769 45.5603 40.4636 46.1911 40.9837 46.2197C41.0052 46.2171 41.0258 46.2092 41.0435 46.1967C41.0611 46.1841 41.0753 46.1674 41.0848 46.1481C41.1206 46.0215 41.1206 45.8876 41.0848 45.761C41.0848 45.2736 41.5471 44.901 41.9083 44.5713C41.7378 45.0223 41.54 45.4627 41.316 45.89C41.264 45.9671 41.2282 46.0538 41.2108 46.145C41.1934 46.2361 41.1948 46.3298 41.2149 46.4204C41.4064 46.4493 41.6012 46.4493 41.7927 46.4204C42.0694 46.4082 42.3447 46.3747 42.6162 46.3201C43.1795 46.2063 43.6881 45.9085 44.0608 45.4743C44.4944 44.9104 44.6865 44.1997 44.5954 43.4962C44.8359 42.9524 44.9731 42.3692 44.9999 41.776Z" fill="#A6561D"/>
<g style="mix-blend-mode:multiply" opacity="0.9">
<path d="M33.3848 44.0696C33.3709 44.2317 33.3709 44.3948 33.3848 44.557C33.3848 44.7003 33.3848 44.858 33.3848 45.03V45.3024C33.3848 45.3884 33.3848 45.4744 33.3848 45.5604C33.4122 45.6487 33.446 45.7349 33.486 45.8184C33.5186 45.8976 33.5573 45.9743 33.6016 46.0478L33.7316 46.2484C33.7762 46.3132 33.8244 46.3754 33.876 46.4348L34.1072 46.6785C34.1454 46.7072 34.1794 46.7409 34.2083 46.7788H34.0783C33.9675 46.7338 33.865 46.6708 33.7749 46.5925C33.6995 46.5571 33.6347 46.5027 33.5871 46.4348C33.5172 46.375 33.4542 46.3077 33.3993 46.2341C33.2812 46.069 33.1932 45.8846 33.1392 45.6894C33.1277 45.5942 33.1277 45.4979 33.1392 45.4027C33.1321 45.3025 33.1321 45.2019 33.1392 45.1017C33.1155 44.9353 33.1155 44.7664 33.1392 44.6C33.1881 44.4099 33.2713 44.2302 33.3848 44.0696Z" fill="#D8AF27"/>
</g>
<g style="mix-blend-mode:multiply" opacity="0.9">
<path d="M35.7688 43.6538C35.7688 43.6538 35.7687 43.7828 35.9132 43.9405C36.018 44.1396 36.1439 44.327 36.2888 44.4995C36.3685 44.5834 36.4555 44.6602 36.5488 44.7289L36.809 44.8866L37.1123 45.0156H37.0112C36.9294 45.0225 36.8473 45.0225 36.7656 45.0156H36.6067C36.5446 45.0272 36.4809 45.0272 36.4189 45.0156C36.2959 44.9522 36.1837 44.87 36.0866 44.7719C36.001 44.6661 35.9282 44.5506 35.8699 44.4279C35.8185 44.3241 35.7844 44.2128 35.7688 44.0982C35.7376 43.9517 35.7376 43.8003 35.7688 43.6538Z" fill="#D8AF27"/>
</g>
<path d="M32.3296 35.4688C32.3296 35.4688 31.535 36.2572 32.5751 38.7228C33.8176 41.7044 35.7246 47.1802 35.7246 47.1802L37.9639 55.5802L40.1019 55.1645C40.1019 55.1645 38.6573 47.6245 38.2816 45.9617C37.7014 42.8973 36.6643 39.9358 35.2045 37.1746C35.2045 37.1746 33.5287 35.0961 32.3296 35.4688Z" fill="#F4D9BF"/>
<g style="mix-blend-mode:multiply" opacity="0.5">
<path d="M34.5111 41.6183C34.6411 39.9985 34.8866 38.4217 34.93 36.8162C34.3954 36.2715 33.2397 35.1821 32.3296 35.3828C32.3296 35.3828 31.535 36.1712 32.5751 38.6367C33.1097 39.9268 33.7598 41.6613 34.3377 43.2238C34.4099 42.7221 34.5111 42.163 34.5111 41.6183Z" fill="#E8C6A4"/>
</g>
<path d="M24.5431 35.5405C24.5431 35.5405 22.2316 34.8668 19.2122 37.49C16.1928 40.1132 12.5523 43.8259 15.5717 45.2593C16.2249 45.1655 16.8316 44.8695 17.3053 44.4136C18.2154 43.5965 23.5462 37.92 23.5462 37.92L24.5431 35.5405Z" fill="#F4D9BF"/>
<g style="mix-blend-mode:multiply" opacity="0.3">
<path d="M24.5431 35.5405C24.5431 35.5405 22.2316 34.8668 19.2122 37.49C16.1928 40.1132 12.5523 43.8259 15.5717 45.2593C16.2249 45.1655 16.8316 44.8695 17.3053 44.4136C18.2154 43.5965 23.5462 37.92 23.5462 37.92L24.5431 35.5405Z" fill="#E8C6A4"/>
</g>
<g style="mix-blend-mode:multiply" opacity="0.5">
<path d="M22.6942 35.5978C22.3178 36.3715 22.0131 37.1775 21.7841 38.006C21.5569 38.7558 21.3926 39.5229 21.2928 40.2995L23.5465 37.92L24.5434 35.5405C23.9316 35.4087 23.2965 35.4284 22.6942 35.5978Z" fill="#E8C6A4"/>
</g>
<path d="M29.1516 73.0971C30.7662 73.0613 32.3774 72.9321 33.9768 72.71C35.1761 72.5568 36.3479 72.2384 37.4585 71.764C36.6494 64.9407 34.9159 54.5625 34.2658 53.301C30.4958 54.3421 26.5239 54.4357 22.7084 53.5734V53.7024C22.3472 54.4048 20.787 65.5571 20.0935 72.108C23.012 73.0531 26.0958 73.3898 29.1516 73.0971Z" fill="#1C65AB"/>
<g style="mix-blend-mode:multiply">
<path d="M23.72 56.1107C24.1626 55.877 24.6678 55.7867 25.1647 55.8527L27.2883 55.9817C28.1385 56.0676 28.9953 56.0676 29.8454 55.9817C30.5364 55.8557 31.2376 55.7933 31.9401 55.7953C32.7925 55.867 32.9948 56.6841 33.067 57.2288C33.4282 59.9524 35.0607 70.818 35.0462 71.4917C35.0462 71.7927 35.0462 72.0938 35.0462 72.3804C35.8842 72.2368 36.7 71.9863 37.4733 71.635C36.6643 64.8118 34.9307 54.4336 34.2806 53.1721C30.5109 54.2188 26.5365 54.3075 22.7232 53.4301C22.7256 53.4779 22.7256 53.5257 22.7232 53.5735C22.2999 55.3501 21.9815 57.1498 21.7697 58.9633C22.1895 57.876 22.857 56.8997 23.72 56.1107Z" fill="#1C65AB"/>
</g>
<g style="mix-blend-mode:multiply">
<path d="M24.789 55.2506C25.9014 55.3653 27.0138 55.4226 28.1262 55.4369C30.3444 55.5346 32.5649 55.3027 34.7139 54.7489C34.6122 54.2577 34.4622 53.7776 34.2661 53.3154C30.4964 54.3621 26.522 54.4508 22.7087 53.5735C22.7111 53.6212 22.7111 53.669 22.7087 53.7168C22.5926 54.0421 22.5103 54.3783 22.463 54.7202C23.2048 55.0191 23.9901 55.1982 24.789 55.2506Z" fill="#1C65AB"/>
</g>
<path d="M27.5194 38.0778C28.4283 38.1306 29.3229 37.8339 30.0171 37.2493C30.7112 36.6646 31.1516 35.837 31.2467 34.9385L30.9433 34.8238C29.8309 34.3938 29.4987 34.3938 29.4987 33.763C29.4987 33.1323 29.4119 32.731 29.4119 32.731H27.0572V33.7774C27.0572 34.4225 26.9416 34.6518 24.9624 35.0102C24.8977 35.3828 24.9151 35.7648 25.0131 36.1302C25.1112 36.4955 25.2877 36.8355 25.5306 37.1269C25.7734 37.4182 26.0769 37.654 26.4202 37.8182C26.7634 37.9823 27.1384 38.0709 27.5194 38.0778Z" fill="#E8C6A4"/>
<g style="mix-blend-mode:multiply" opacity="0.6">
<path d="M27.2884 34.0354C27.8024 34.0857 28.3201 34.0857 28.8342 34.0354L29.4698 33.9494C29.4698 33.9494 29.4698 33.8347 29.4698 33.763C29.4698 33.1323 29.3832 32.731 29.3832 32.731H27.0283V33.9351L27.2884 34.0354Z" fill="#E8C6A4"/>
</g>
<path d="M35.0173 54.2758C34.2372 52.5557 34.1072 45.9761 34.1072 45.6751C34.1072 42.5645 33.3848 35.4116 33.3848 35.4116C32.6586 35.3004 31.9433 35.1278 31.2467 34.8955C31.1517 35.794 30.7113 36.6216 30.0171 37.2063C29.323 37.7909 28.4284 38.0876 27.5194 38.0348C27.1377 38.0333 26.7608 37.9499 26.4146 37.7902C26.0684 37.6304 25.7611 37.3982 25.514 37.1094C25.2669 36.8206 25.0859 36.4822 24.9831 36.1173C24.8804 35.7525 24.8585 35.3699 24.919 34.9958C24.1985 35.1225 23.4849 35.2852 22.7809 35.4832C22.0228 39.2597 21.9008 43.1348 22.4198 46.9509C22.5104 49.345 22.3993 51.7424 22.0875 54.1182C26.2653 55.5658 30.805 55.6212 35.0173 54.2758Z" fill="#FCB250"/>
<g style="mix-blend-mode:multiply">
<path d="M34.1072 45.7181C34.1072 42.6075 33.3848 35.4545 33.3848 35.4545C32.6586 35.3434 31.9433 35.1707 31.2467 34.9385C31.1517 35.837 30.7113 36.6646 30.0171 37.2492C29.323 37.8339 28.4284 38.1306 27.5194 38.0778C27.1377 38.0763 26.7608 37.9929 26.4146 37.8331C26.0684 37.6734 25.7611 37.4411 25.514 37.1524C25.2669 36.8636 25.0859 36.5251 24.9831 36.1603C24.8804 35.7954 24.8585 35.4128 24.919 35.0388C24.1985 35.1655 23.4849 35.3282 22.7809 35.5262C22.0228 39.3027 21.9008 43.1777 22.4198 46.9938C22.5104 49.388 22.3993 51.7854 22.0875 54.1611C26.3047 55.5736 30.8725 55.5736 35.0896 54.1611C34.2373 52.5557 34.1072 45.9761 34.1072 45.7181ZM32.2146 53.4444C30.9938 54.4169 29.4393 54.8796 27.8806 54.7345C27.0795 54.7663 26.2805 54.6324 25.5343 54.3412C24.7882 54.05 24.1112 53.6079 23.5466 53.043C23.1688 52.3955 22.9499 51.6689 22.9072 50.9219C22.8645 50.1749 22.9994 49.4284 23.301 48.7427C23.3105 48.714 23.3289 48.689 23.3536 48.6713C23.3782 48.6536 23.4079 48.6441 23.4383 48.6441C23.4687 48.6441 23.4983 48.6536 23.5229 48.6713C23.5476 48.689 23.566 48.714 23.5755 48.7427C24.0349 50.1823 24.921 51.4512 26.1181 52.3837C25.5836 51.4806 24.8179 50.7208 24.3701 49.7604C23.8607 48.6697 23.4779 47.5252 23.2288 46.3488C22.8094 44.4089 22.6251 42.4262 22.6798 40.443C22.6511 40.1139 22.6511 39.7829 22.6798 39.4539C22.7199 38.7788 22.8561 38.1128 23.0844 37.4757C23.2144 37.103 23.3588 36.673 23.7633 36.5439C24.1678 36.4149 24.3845 37.06 24.4856 37.2463C24.8907 37.9799 25.5706 38.5258 26.3782 38.7658C27.1472 38.9876 27.964 38.9876 28.733 38.7658C29.4085 38.488 30.0607 38.1573 30.6833 37.7767C33.5726 36.3433 33.3415 42.6792 33.1682 44.0123C32.7421 46.9167 31.5287 49.6517 29.6576 51.9249C31.1286 50.9047 32.3849 49.6095 33.356 48.112C33.3655 48.0833 33.3839 48.0583 33.4085 48.0406C33.4332 48.0229 33.4628 48.0134 33.4932 48.0134C33.5236 48.0134 33.5533 48.0229 33.5779 48.0406C33.6026 48.0583 33.621 48.0833 33.6305 48.112C33.7027 49.8751 33.5726 52.1686 32.2146 53.4444Z" fill="#FCB250"/>
</g>
<g style="mix-blend-mode:multiply">
<path d="M25.3814 37.0027C25.2947 36.8594 25.237 36.716 25.1648 36.5727C24.3011 36.6064 23.436 36.568 22.5787 36.458C22.5787 36.587 22.5787 36.7304 22.5787 36.888L25.3814 37.0027Z" fill="#FCB250"/>
</g>
<g style="mix-blend-mode:multiply">
<path d="M33.5442 37.0169C33.5442 36.7589 33.5442 36.5295 33.4719 36.3289H30.7415C30.5945 36.6015 30.4097 36.8524 30.1925 37.0742C31.3049 37.0742 32.4318 37.0599 33.5442 37.0169Z" fill="#FCB250"/>
</g>
<g style="mix-blend-mode:multiply">
<path d="M25.8436 39.3248C27.2882 39.2101 28.7329 39.1528 30.1776 39.1098C31.3478 39.1098 32.518 39.1098 33.7026 38.9951C33.7026 38.7514 33.7026 38.5221 33.7026 38.2927L29.8164 38.3931L25.2946 38.5507C24.3291 38.579 23.363 38.531 22.4052 38.4074C22.4052 38.7084 22.4052 39.0381 22.3041 39.3821C23.4836 39.4563 24.6671 39.4371 25.8436 39.3248Z" fill="#FCB250"/>
</g>
<g style="mix-blend-mode:multiply">
<path d="M22.7226 44.299C23.4016 44.299 24.0805 44.299 24.7595 44.299C26.1031 44.299 27.4466 44.17 28.7901 44.084L32.7919 43.8546H34.0488C34.0488 43.5966 34.0488 43.3386 34.0488 43.0806C32.1324 43.3269 30.2025 43.4562 28.2701 43.4676C26.9843 43.4676 25.6986 43.5823 24.4273 43.5966C23.6329 43.6285 22.8374 43.5659 22.058 43.4103C22.058 43.6969 22.058 43.998 22.058 44.299H22.7226Z" fill="#FCB250"/>
</g>
<g style="mix-blend-mode:multiply">
<path d="M22.6073 46.5209C23.2896 46.6429 23.9801 46.7147 24.6731 46.7359C26.0446 46.8076 27.419 46.8076 28.7904 46.7359C30.5816 46.6238 32.3628 46.3891 34.1213 46.0335C34.1213 45.8472 34.1213 45.7325 34.1213 45.7039V45.5032C31.9347 45.7591 29.7353 45.8931 27.5336 45.9045C26.2623 45.9045 24.991 45.9905 23.7197 45.9045C23.2361 45.8889 22.7537 45.8458 22.275 45.7755L22.3617 46.4349L22.6073 46.5209Z" fill="#FCB250"/>
</g>
<g style="mix-blend-mode:multiply">
<path d="M22.4055 48.8573C24.6606 49.2153 26.9539 49.2732 29.2244 49.0293C30.899 49.0103 32.5679 48.8327 34.2085 48.4989C34.2085 48.2409 34.2085 47.9685 34.2085 47.7249C32.4604 47.9972 30.7124 48.2122 28.9643 48.3269C27.5919 48.4129 26.205 48.4702 24.8326 48.4272C24.2559 48.4132 23.6812 48.3558 23.1134 48.2552C22.8831 48.1966 22.6564 48.1248 22.4344 48.0402L22.4055 48.8573Z" fill="#FCB250"/>
</g>
<g style="mix-blend-mode:multiply">
<path d="M24.8039 52.1113C26.1189 52.2451 27.4422 52.2786 28.7623 52.2116C30.3803 52.0826 31.9839 51.8102 33.5875 51.5522L34.4399 51.4089C34.4399 51.0792 34.4399 50.7351 34.3387 50.3911L33.3708 50.5344C31.8539 50.7208 30.337 50.8642 28.8056 50.9072C27.2742 50.9502 26.0463 50.9072 24.6738 50.9072C23.9071 50.8739 23.1441 50.7828 22.3912 50.6348V51.6669C23.1733 51.9155 23.984 52.0648 24.8039 52.1113Z" fill="#FCB250"/>
</g>
<g style="mix-blend-mode:multiply">
<path d="M29.2524 53.817C26.8897 54.064 24.5014 53.7648 22.2747 52.9426C22.2506 53.3793 22.1779 53.8119 22.058 54.2327C26.2751 55.6452 30.8429 55.6452 35.0601 54.2327C34.908 53.8437 34.7966 53.4403 34.7278 53.0286C32.9597 53.5919 31.1091 53.8584 29.2524 53.817Z" fill="#FCB250"/>
</g>
<g style="mix-blend-mode:multiply">
<path d="M24.8607 41.9195C26.4643 41.9195 28.0823 41.9195 29.7003 41.8048C31.3184 41.6901 32.5031 41.6041 33.9044 41.4607C33.9044 41.1311 33.9044 40.787 33.8322 40.4717C31.9905 40.6751 30.1372 40.7565 28.2846 40.7154C27.071 40.7154 25.8575 40.8157 24.644 40.8587C23.7943 40.9234 22.9399 40.88 22.1013 40.7297C22.1013 41.0451 22.1013 41.3604 22.1013 41.6901C23.011 41.8582 23.9355 41.935 24.8607 41.9195Z" fill="#FCB250"/>
</g>
<path d="M42.2986 16.9055C41.8796 12.4474 38.3979 9.43717 35.5519 9.23648C33.4571 6.16888 24.1245 5.9252 20.0505 10.8993C15.9766 15.8734 17.0312 21.9799 19.4293 26.4523C19.6871 24.3361 19.7981 22.2048 19.7616 20.0734C19.7339 19.3256 19.6373 18.5819 19.4727 17.8516C24.3045 18.1346 29.1332 17.2492 33.5439 15.2714C36.5343 18.0236 38.0801 19.199 39.3226 21.3349C38.9167 23.7671 38.3177 26.1636 37.5312 28.5022C40.1172 26.868 42.7176 21.3492 42.2986 16.9055Z" fill="#A6561D"/>
<g style="mix-blend-mode:screen">
<path d="M22.3617 9.25094C24.5716 7.96 27.1094 7.32797 29.6718 7.43044C31.5643 7.51645 34.0058 7.90348 35.0315 9.66663C35.0413 9.69169 35.0431 9.71917 35.0364 9.74525C35.0298 9.77132 35.0151 9.79469 34.9944 9.81207C34.9737 9.82944 34.948 9.83994 34.921 9.84214C34.894 9.84434 34.8669 9.83811 34.8437 9.82432C33.8294 9.28715 32.6817 9.04845 31.5354 9.13626C30.837 9.11934 30.139 9.18185 29.455 9.3226C30.8661 9.28934 32.2714 9.51283 33.6013 9.982C34.319 10.2432 34.9953 10.6052 35.6094 11.0571C35.519 10.9187 35.437 10.7751 35.3638 10.627C35.3596 10.6101 35.3588 10.5924 35.3616 10.5752C35.3644 10.5579 35.3708 10.5414 35.3803 10.5267C35.3898 10.512 35.4021 10.4993 35.4166 10.4894C35.4312 10.4795 35.4476 10.4727 35.4649 10.4694C35.994 10.4335 36.525 10.4335 37.0541 10.4694C37.6023 10.5773 38.1428 10.721 38.6721 10.8994C38.9755 10.9854 39.2933 11.1001 39.5967 11.2148C38.5205 10.1049 37.0921 9.3963 35.5515 9.20792C33.4568 6.14032 24.1242 5.89663 20.0502 10.8707C19.5661 11.4625 19.1358 12.0957 18.7644 12.7629C19.6817 11.3384 20.9114 10.1379 22.3617 9.25094Z" fill="#A6561D"/>
</g>
<g style="mix-blend-mode:multiply" opacity="0.5">
<g style="mix-blend-mode:multiply" opacity="0.5">
<path d="M42.2989 16.9057C41.88 12.4477 38.3983 9.4374 35.5522 9.23671C35.1409 8.68963 34.6001 8.25147 33.9776 7.96094C34.5908 8.48815 35.1173 9.10723 35.5379 9.79576C37.8638 9.52341 41.1577 12.3187 41.8511 16.5044C42.5445 20.6901 40.4064 24.0873 39.9441 23.0983C39.701 22.4412 39.701 21.7198 39.9441 21.0627L40.8976 20.6901C37.5604 19.4573 34.4543 13.8811 35.0322 10.9282C34.7405 12.0128 34.1808 13.008 33.4039 13.824C32.627 14.6399 31.6574 15.2508 30.5826 15.6013C22.3624 18.0238 18.0284 16.2463 18.0284 16.2463C18.0284 16.2463 17.855 16.9344 19.0252 20.8764C18.4636 20.4258 18.0185 19.8486 17.727 19.1928C17.4355 18.5371 17.306 17.8218 17.3494 17.1064C17.0758 20.3535 17.7851 23.6078 19.3864 26.4526C19.6441 24.3363 19.7551 22.205 19.7186 20.0737C19.691 19.3258 19.5942 18.5821 19.4297 17.8518C24.2614 18.1348 29.0902 17.2494 33.5008 15.2716C36.4913 18.0238 38.0371 19.1993 39.2795 21.3351C38.8737 23.7673 38.2747 26.1639 37.4881 28.5024C40.1175 26.8683 42.7179 21.3494 42.2989 16.9057Z" fill="#A6561D"/>
</g>
</g>
<path d="M19.7321 23.2988C19.7321 23.2988 19.7321 21.9657 18.663 21.937C17.594 21.9084 16.4093 23.0838 17.8251 25.6067C18.7352 26.5958 19.4287 26.4524 19.4287 26.4524L19.7321 23.2988Z" fill="#E8C6A4"/>
<path d="M38.6292 24.8613C38.6776 24.7235 38.7571 24.5984 38.8615 24.4956C38.9659 24.3928 39.0925 24.3149 39.2317 24.2679C39.371 24.2209 39.5193 24.2061 39.6652 24.2244C39.8111 24.2428 39.9509 24.2939 40.0739 24.3739C41.1863 24.847 41.273 26.6675 40.0739 27.6709C38.8748 28.6743 37.8347 28.7747 37.6469 28.2156C38.1669 26.6818 38.6292 24.8613 38.6292 24.8613Z" fill="#E8C6A4"/>
<g style="mix-blend-mode:multiply" opacity="0.7">
<path d="M18.62 23.5282C18.2733 23.2702 17.8399 23.2416 17.6232 23.6716C17.6232 23.6716 17.6232 23.6716 17.6954 23.6716C17.9554 23.1842 18.36 23.5283 18.5622 23.6716C18.6722 23.7895 18.7515 23.9322 18.7934 24.0873C18.7722 24.1731 18.7381 24.2553 18.6922 24.331L18.5044 24.7037C18.5044 24.7037 18.5766 24.7037 18.5911 24.7037C18.6908 24.5631 18.7688 24.4085 18.8223 24.245C18.8945 24.6033 18.8222 24.9617 18.9378 25.3057C18.9378 25.3057 19.0679 25.3057 19.0823 25.3057C19.1498 24.9942 19.1432 24.6713 19.0629 24.3628C18.9827 24.0542 18.831 23.7685 18.62 23.5282Z" fill="#842D1C"/>
</g>
<g style="mix-blend-mode:multiply" opacity="0.7">
<path d="M39.4236 25.7358C39.8426 25.5638 40.2615 25.6641 40.3481 26.1372C40.2326 25.6068 39.7559 25.8218 39.5103 25.9508C39.375 26.0394 39.2614 26.1569 39.178 26.2948C39.1709 26.3807 39.1709 26.467 39.178 26.5529C39.2137 26.6851 39.2427 26.8191 39.2646 26.9542C39.2646 27.0259 39.2646 26.9542 39.178 26.9542C39.1222 26.7921 39.0882 26.6234 39.0768 26.4525C38.9035 26.7679 38.8313 27.1262 38.6724 27.4559C38.6724 27.4559 38.5568 27.4559 38.5568 27.3556C38.5646 27.0374 38.6469 26.7253 38.7974 26.4441C38.9479 26.163 39.1623 25.9205 39.4236 25.7358Z" fill="#842D1C"/>
</g>
<path d="M33.5437 15.2715C29.1331 17.2493 24.3043 18.1348 19.4726 17.8517C19.6371 18.582 19.7338 19.3257 19.7614 20.0736C19.7979 22.2049 19.687 24.3362 19.4292 26.4525C19.7787 28.3155 20.7082 30.0229 22.0869 31.3344C23.4656 32.6458 25.2242 33.4952 27.1149 33.7631C29.2109 34.2135 31.3996 33.9281 33.3071 32.9556C35.2147 31.9831 36.7229 30.3837 37.5743 28.4306C38.3609 26.0921 38.9599 23.6955 39.3657 21.2633C38.08 19.1991 36.5342 18.0237 33.5437 15.2715Z" fill="#F6DFC9"/>
<g style="mix-blend-mode:multiply" opacity="0.5">
<path d="M19.7181 19.5002C20.6696 18.8529 21.8204 18.5586 22.9687 18.6688C26.425 18.6356 29.8249 17.7959 32.8936 16.2176C32.9057 16.205 32.9203 16.195 32.9364 16.1882C32.9526 16.1813 32.97 16.1778 32.9875 16.1778C33.005 16.1778 33.0224 16.1813 33.0386 16.1882C33.0547 16.195 33.0693 16.205 33.0814 16.2176C33.457 17.264 34.6994 17.9521 35.5085 18.6688C36.4677 19.4024 37.2976 20.2889 37.9644 21.292C38.443 22.1763 38.7146 23.1562 38.759 24.159C38.9179 23.4422 39.1057 22.5535 39.3657 21.292C38.08 19.1562 36.4764 17.9808 33.587 15.2285C29.1763 17.2063 24.3476 18.0918 19.5159 17.8087C19.6507 18.3487 19.7282 18.9012 19.7471 19.4572L19.7181 19.5002Z" fill="#E8C6A4"/>
</g>
<g style="mix-blend-mode:multiply" opacity="0.5">
<path d="M28.9494 33.3903C27.0123 33.3862 25.1081 32.8929 23.4162 31.9569C22.8113 31.6379 22.2318 31.2737 21.6826 30.8674C23.1209 32.3968 25.0327 33.4058 27.1146 33.7343C29.388 34.2371 31.7689 33.863 33.7746 32.6879C32.2052 33.1359 30.5823 33.3722 28.9494 33.3903Z" fill="#E8C6A4"/>
</g>
<path d="M33.5437 15.2715C33.5149 15.35 33.4812 15.4266 33.4426 15.5008C33.3435 15.703 33.2326 15.8993 33.1103 16.0885C33.1103 16.2032 32.9369 16.3179 32.8502 16.4469C32.7516 16.5857 32.6404 16.7153 32.5179 16.8339C32.4024 16.963 32.2724 17.092 32.1568 17.2353C32.0412 17.3787 31.8679 17.4647 31.7379 17.5937L31.3045 17.9377L30.8422 18.2387L30.4087 18.4968C30.2787 18.5828 30.1342 18.6258 30.0042 18.6974L29.1375 19.0415L29.932 18.5541C30.0616 18.4849 30.187 18.4083 30.3076 18.3247L30.7121 18.038L31.1455 17.737L31.5645 17.393C31.6945 17.2783 31.8534 17.1636 31.969 17.049L32.3591 16.6763L32.6913 16.3322L32.9947 16.0025C33.1536 15.7732 33.3125 15.6155 33.3992 15.4722L33.5437 15.2715Z" fill="#A6561D"/>
<path d="M33.5293 15.4004C33.5229 15.636 33.4987 15.8708 33.4571 16.1028C33.3774 16.5927 33.2467 17.0731 33.067 17.5363C33.0228 17.6733 32.9697 17.8074 32.9081 17.9376C32.9081 18.0666 32.778 18.1813 32.7203 18.296C32.6064 18.5132 32.4656 18.7154 32.3012 18.898L32.0991 19.113L31.9257 19.2564L31.7667 19.3711L31.8823 19.2134C31.9374 19.1676 31.9861 19.1145 32.0268 19.0557L32.1713 18.812C32.2995 18.6163 32.4107 18.4101 32.5035 18.1956C32.6191 17.9663 32.7203 17.7082 32.8214 17.4502C33.0237 16.9342 33.1825 16.4038 33.3125 16.0168L33.5293 15.4004Z" fill="#A6561D"/>
<path d="M35.5518 9.23657V9.50893C35.5518 9.68095 35.5518 9.93897 35.4218 10.2257C35.2918 10.5124 35.2773 10.8564 35.1906 11.2148C35.1039 11.5731 34.9595 11.9601 34.8439 12.3328C34.7283 12.7055 34.7283 12.7199 34.6561 12.9062C34.5838 13.0926 34.5261 13.2646 34.4539 13.4366C34.3817 13.6086 34.1505 14.096 34.0349 14.3684C33.7748 14.9131 33.587 15.2714 33.587 15.2714C33.587 15.2714 33.7026 14.8844 33.8905 14.311L34.2372 13.3649C34.3094 13.1929 34.3527 13.0066 34.4105 12.8202C34.4683 12.6339 34.5405 12.4475 34.5983 12.2612C34.6561 12.0748 34.8439 11.5014 34.9595 11.1574C35.0751 10.8134 35.1907 10.4694 35.2774 10.1827C35.3641 9.89597 35.4507 9.66661 35.5085 9.50893L35.5518 9.23657Z" fill="#A6561D"/>
<path d="M25.2802 25.2482C25.1935 25.7929 24.919 26.1656 24.6734 26.0796C24.4278 25.9936 24.3123 25.4776 24.4134 24.9328C24.5145 24.3881 24.7746 24.0154 25.0202 24.1015C25.2657 24.1875 25.3813 24.7178 25.2802 25.2482Z" fill="#7B412C"/>
<path d="M24.9339 24.6892C24.9339 24.8469 24.8039 24.9473 24.7317 24.9186C24.6594 24.8899 24.6594 24.7322 24.7317 24.5746C24.8039 24.4169 24.8617 24.3165 24.9339 24.3452C25.0062 24.3739 24.9773 24.5315 24.9339 24.6892Z" fill="white"/>
<path d="M32.6481 26.2949C32.5614 26.8396 32.2869 27.2122 32.0413 27.1262C31.7957 27.0402 31.6801 26.5242 31.7668 25.9795C31.8535 25.4348 32.128 25.0621 32.3736 25.1481C32.6192 25.2341 32.7348 25.7501 32.6481 26.2949Z" fill="#7B412C"/>
<path d="M32.2868 25.7357C32.2868 25.8933 32.1568 25.9937 32.099 25.965C32.0412 25.9363 32.0123 25.793 32.099 25.6353C32.1857 25.4776 32.229 25.3629 32.3012 25.3916C32.3734 25.4203 32.3302 25.578 32.2868 25.7357Z" fill="white"/>
<g style="mix-blend-mode:multiply" opacity="0.5">
<path d="M32.1138 28.015C32.1138 28.4164 32.9084 28.7174 33.8763 28.6887C34.8442 28.66 35.6099 28.316 35.5955 27.9146C35.581 27.5133 34.801 27.2122 33.833 27.2409C32.8651 27.2696 32.0994 27.6136 32.1138 28.015Z" fill="#FAD4CA"/>
</g>
<g style="mix-blend-mode:multiply" opacity="0.5">
<path d="M20.845 26.5242C20.7583 26.9112 21.4517 27.3986 22.3908 27.5992C23.3298 27.7999 24.1822 27.5993 24.2688 27.2552C24.3555 26.9112 23.6477 26.3808 22.7087 26.1801C21.7696 25.9795 20.9316 26.1371 20.845 26.5242Z" fill="#FAD4CA"/>
</g>
<g style="mix-blend-mode:multiply" opacity="0.4">
<path d="M26.7096 28.789C26.464 28.531 26.2762 28.1726 26.6374 27.8716C26.9985 27.5706 26.9552 27.5849 27.0997 27.4272C27.652 26.895 27.9908 26.1819 28.0532 25.4204C27.9057 26.1966 27.5106 26.9051 26.9263 27.4416C26.7241 27.6279 26.3051 27.8573 26.2906 28.2013C26.2906 29.2047 27.4609 29.5631 28.2266 29.4771C28.2266 29.4771 28.3132 29.3911 28.2266 29.3911C27.9462 29.3951 27.6678 29.3439 27.4074 29.2406C27.147 29.1373 26.9098 28.9838 26.7096 28.789Z" fill="#842D1C"/>
</g>
<path style="mix-blend-mode:multiply" opacity="0.4" d="M29.0078 27.6279C28.6247 27.3695 28.1561 27.267 27.699 27.3417C27.2419 27.4164 26.8312 27.6626 26.5518 28.0293C26.0029 28.8033 27.1731 29.3767 27.7799 29.4627C27.9507 29.5054 28.1282 29.514 28.3024 29.488C28.4766 29.462 28.6438 29.4019 28.7943 29.3112C28.9449 29.2205 29.0758 29.101 29.1794 28.9597C29.283 28.8184 29.3573 28.658 29.3979 28.488C29.4457 28.322 29.4327 28.1446 29.3613 27.9872C29.2899 27.8298 29.1647 27.7025 29.0078 27.6279Z" fill="url(#paint0_linear_12164_11)"/>
<path d="M27.0861 22.324C26.3363 22.5742 25.5513 22.7049 24.7602 22.7111C24.1041 22.7631 23.444 22.7 22.8099 22.5247C22.9116 22.7051 23.0616 22.8539 23.2433 22.9548L23.7056 23.0981C24.2505 23.2526 24.8147 23.3298 25.3814 23.3275C25.7405 23.3613 26.1022 23.2979 26.4279 23.1439C26.7535 22.9899 27.031 22.7512 27.2306 22.453C27.2306 22.453 27.1439 22.2954 27.0861 22.324Z" fill="#A6561D"/>
<path d="M30.9717 22.5679C31.5834 23.0611 32.2713 23.4532 33.0088 23.729C33.6135 23.9959 34.2572 24.1653 34.9158 24.2307H35.0024C34.848 24.3669 34.6575 24.4564 34.4535 24.4887H33.9622C33.3998 24.4412 32.8461 24.3207 32.3153 24.1303C31.9679 24.0401 31.651 23.8598 31.3971 23.6079C31.1432 23.356 30.9615 23.0415 30.8706 22.6969C30.8706 22.5679 30.9284 22.5679 30.9717 22.5679Z" fill="#A6561D"/>
<path d="M23.2862 35.2537C23.2862 35.2537 25.6122 30.5233 27.3313 30.1076C29.0505 29.6919 33.0089 42.4497 33.0089 42.4497C32.6661 42.7462 32.2625 42.9651 31.8259 43.0914C31.3894 43.2176 30.9303 43.2481 30.4807 43.1808C28.646 43.0947 29.036 43.8545 27.7358 43.9118C26.4356 43.9691 25.0776 42.4784 24.2397 43.0231C23.4018 43.5678 21.3503 42.6074 21.3503 42.6074L23.2862 35.2537Z" fill="#BAE4E6"/>
<g style="mix-blend-mode:multiply">
<path d="M27.2878 30.1076C26.6283 30.3771 26.0613 30.8302 25.6553 31.4121C26.3921 30.9677 27.1 30.9247 27.6056 31.9711C28.4499 34.1769 28.7135 36.5598 28.3713 38.8947C28.309 39.9649 27.9599 40.9992 27.36 41.8907C27.0566 42.292 26.2621 42.8511 25.9153 42.1773C25.5707 41.1193 25.5357 39.986 25.8142 38.9091C25.9298 37.877 26.031 36.8449 26.1321 35.8128C25.742 37.1173 25.3664 38.436 24.9474 39.7405C24.9474 39.9268 24.3551 42.249 23.835 41.8047C23.6491 41.5257 23.5674 41.191 23.6039 40.8586C23.5676 40.1949 23.5676 39.5297 23.6039 38.8661C23.7125 37.8375 23.8911 36.8174 24.1384 35.8128C24.0517 36.0135 23.9795 36.2142 23.9072 36.4292C23.6616 37.0886 23.445 37.7623 23.2138 38.4217C22.9827 39.0811 22.8093 39.7405 22.6648 40.4142C22.621 40.9329 22.5094 41.4436 22.3326 41.9337C22.3326 42.0053 22.1447 42.0053 22.1303 41.9337C21.9859 41.0844 21.9859 40.2171 22.1303 39.3678L22.217 38.7084L21.2057 42.6361C21.2057 42.6361 23.2427 43.5391 24.095 43.0518C24.9474 42.5644 26.2766 43.9835 27.5912 43.9405C28.9059 43.8975 28.5013 43.1234 30.3361 43.2094C30.7857 43.2768 31.2447 43.2463 31.6813 43.1201C32.1178 42.9938 32.5215 42.7749 32.8642 42.4784C32.8642 42.4784 29.0359 29.7349 27.2878 30.1076Z" fill="#BAE4E6"/>
</g>
<path d="M28.2852 36.3434C29.1665 36.3434 31.7813 36.3434 31.5068 35.426C31.2323 34.5086 28.2996 35.813 28.5308 35.34C28.7619 34.8669 31.8969 34.5229 31.2757 33.7345C30.799 33.1611 28.5741 34.2935 27.7073 34.6806C28.6608 34.2219 31.3046 32.3727 30.5967 31.8137C29.8888 31.2546 26.5516 34.4942 26.6527 33.8778C26.7539 33.2614 30.1777 31.1113 29.0509 30.7816C27.924 30.4519 25.757 33.0464 25.4392 33.4335C25.5635 32.8794 25.7731 32.3475 26.0605 31.8567C26.3927 31.1543 25.5981 31.1543 25.2225 31.4696C24.5858 32.1988 24.1745 33.0946 24.0379 34.0498C23.7895 35.0817 23.8244 36.1608 24.139 37.1748C23.7634 38.3216 17.7824 40.2567 15.2542 42.4929C14.9225 42.7368 14.6825 43.0838 14.5725 43.4786C14.4626 43.8735 14.489 44.2935 14.6475 44.6718C15.601 46.1912 17.6524 45.0445 18.6926 44.3421C19.4004 43.8834 20.1372 43.3817 20.7729 42.9086C22.304 41.8471 23.7528 40.6732 25.1069 39.3967C25.4681 39.067 25.8004 38.7372 26.1327 38.3932C26.4649 38.0492 27.1439 38.2069 27.9385 37.6765C28.7331 37.1461 27.8518 36.329 28.2852 36.3434Z" fill="#F4D9BF"/>
<path d="M43.4831 57.9598C43.3312 57.3446 43.0171 56.7806 42.573 56.3256C42.2412 55.8761 41.8843 55.4453 41.5039 55.0355C41.0759 54.4143 40.4869 53.9191 39.7991 53.602C39.4971 53.5199 39.1815 53.4992 38.8711 53.5411C38.5608 53.5829 38.2622 53.6866 37.9933 53.8457C37.7688 53.9934 37.5843 54.1935 37.4558 54.4284C37.3274 54.6633 37.259 54.9259 37.2566 55.1932C37.2208 55.6994 37.1483 56.2024 37.0398 56.6983C36.9046 57.0599 36.7889 57.4283 36.6931 57.8021C36.6931 58.0171 36.592 58.3898 36.8087 58.5331C37.0254 58.6765 37.4732 58.2894 37.5599 58.0601C37.6466 57.8307 37.7044 57.1284 38.0511 56.9993C38.6434 56.7843 39.0479 58.2034 39.1202 58.5618C39.1306 59.0441 39.1887 59.5242 39.2935 59.9953C39.3657 60.1673 39.5246 60.3966 39.7269 60.325C39.9292 60.2533 40.0592 59.9523 40.0881 59.7659C40.216 59.0454 40.1307 58.3035 39.8425 57.6301C40.2102 58.1351 40.5021 58.6904 40.7093 59.2785C40.7093 59.4649 40.9116 60.3106 41.3016 60.0669C41.6917 59.8233 41.5328 59.2499 41.5039 58.9488C41.3636 58.3546 41.1347 57.7845 40.8249 57.2574C41.2942 57.8629 41.7053 58.5108 42.0528 59.1925C42.1539 59.3645 42.3273 59.6799 42.5151 59.4362C42.7029 59.1925 42.5151 58.2751 42.4284 58.0028C42.3339 57.6675 42.155 57.3616 41.9084 57.114C42.4285 57.2574 42.6596 58.0027 43.0496 58.4615C43.4397 58.9202 43.5265 58.2178 43.4831 57.9598Z" fill="#F4D9BF"/>
</g>
<defs>
<linearGradient id="paint0_linear_12164_11" x1="24.5778" y1="28.0046" x2="24.3047" y2="31.4172" gradientUnits="userSpaceOnUse">
<stop stop-color="white"/>
<stop offset="1" stop-color="#FA2A25"/>
</linearGradient>
<clipPath id="clip0_12164_11">
<rect width="56" height="56" rx="28" fill="white"/>
</clipPath>
</defs>
</svg>
