<svg width="56" height="56" viewBox="0 0 56 56" fill="none" xmlns="http://www.w3.org/2000/svg">
<g clip-path="url(#clip0_12164_2940)">
<rect width="56" height="56" rx="28" fill="#54D1FF"/>
<path d="M14.4173 45.7026C14.4173 45.7026 11.7054 49.2242 13.5678 50.1415C15.4302 51.0588 18.5832 48.1924 18.5832 48.1924L14.4173 45.7026Z" fill="#EDC8A5"/>
<path d="M43.1047 45.4078H43.7581C43.7581 45.4078 41.1279 48.9785 38.2363 48.6837C38.2363 48.6837 37.4358 47.7828 39.2492 46.1776C39.7674 45.7204 40.3967 45.4084 41.0737 45.2732C41.7507 45.138 42.4513 45.1845 43.1047 45.4078Z" fill="#18120E"/>
<g style="mix-blend-mode:multiply">
<path d="M16.688 45.4568C16.8253 45.7046 16.908 45.979 16.9306 46.2616C16.9531 46.5441 16.9149 46.8283 16.8186 47.0948C17.1776 46.5257 17.5705 45.9787 17.9949 45.4568C17.6023 45.066 17.1262 44.77 16.6025 44.5912C16.0789 44.4124 15.5214 44.3556 14.9725 44.4249C14.8092 44.6542 14.6785 44.8835 14.5315 45.1128C14.8699 44.8933 15.2773 44.807 15.6754 44.8705C16.0735 44.934 16.4342 45.1428 16.688 45.4568Z" fill="#F4D9BF"/>
</g>
<path d="M13.3228 43.9828C16.3451 39.1999 19.1549 37.4309 20.4946 37.4309C21.3094 39.3354 21.6568 41.4081 21.5074 43.475C21.2154 45.4823 20.14 47.2911 18.5179 48.5036C16.3604 47.5733 14.5449 45.9935 13.3228 43.9828Z" fill="#5C4132"/>
<g style="mix-blend-mode:multiply" opacity="0.3">
<g style="mix-blend-mode:multiply" opacity="0.3">
<path d="M20.4947 37.4309C19.6981 37.5518 18.945 37.873 18.3056 38.3646C18.634 38.2482 18.9734 38.1658 19.3185 38.1189C19.3185 38.1189 19.4818 38.1189 19.4818 38.299C19.4818 40.3465 17.7011 41.1818 16.3941 42.4431C15.5286 43.2619 14.776 44.1928 14.156 45.2112C15.2988 46.6673 16.803 47.7969 18.518 48.4872C20.1402 47.2748 21.2155 45.4659 21.5076 43.4586C21.6543 41.3971 21.307 39.3304 20.4947 37.4309Z" fill="#5C4132"/>
</g>
</g>
<path d="M28.7939 32.0583L29.1532 36.8248C29.1532 36.8248 27.2909 41.4275 25.5265 41.2965C23.7621 41.1654 23.6968 37.2016 23.6968 37.2016V32.0583H28.7939Z" fill="#E3BB94"/>
<path d="M19.3019 47.3898C19.4985 44.0651 20.0461 40.7708 20.9356 37.562L21.5237 37.4473L23.7946 37.2999C24.0529 38.3985 24.4596 39.4565 25.0035 40.4448C24.8728 40.5267 25.1342 40.7396 25.2649 40.6741C26.7263 39.6732 27.9986 38.4198 29.0224 36.9723L32.4694 35.9731L34.7239 37.0214C38.1873 40.2974 37.0111 54.0727 36.8968 55.1537C36.8495 55.8333 37.0465 56.5073 37.4521 57.0538C38.0893 58.1021 36.1943 58.9538 36.1943 58.9538C26.1798 61.5746 19.7594 59.4288 19.6287 59.3305C19.498 59.2323 17.8153 58.2822 18.4851 56.7098C19.0108 53.6307 19.284 50.5136 19.3019 47.3898Z" fill="#146677"/>
<path d="M19.3019 47.3898C19.3794 44.077 19.8121 40.7821 20.5925 37.562C21.0009 37.562 21.5237 37.4146 21.5237 37.4146L23.7946 37.2672C24.0529 38.3658 24.4596 39.4239 25.0035 40.4121C24.8728 40.494 25.1342 40.7069 25.2649 40.6414C26.7263 39.6405 27.9986 38.387 29.0224 36.9396L32.4694 35.9404L34.7239 36.9887C38.1873 40.2647 37.0111 54.04 36.8968 55.121C36.8495 55.8006 37.0465 56.4746 37.4521 57.0211C38.0893 58.0694 36.1943 58.9211 36.1943 58.9211C26.1798 61.5418 19.7594 59.3961 19.6287 59.2978C19.498 59.1996 17.8153 58.2495 18.4851 56.6771C19.009 53.6088 19.2822 50.5027 19.3019 47.3898Z" fill="#7E5944"/>
<g style="mix-blend-mode:multiply" opacity="0.3">
<path d="M37.4031 57.0865C36.9974 56.54 36.8003 55.866 36.8476 55.1864C36.9619 54.1054 38.1382 40.3465 34.6748 37.0542L32.4203 36.0059L28.9732 37.005C27.9494 38.4525 26.6772 39.7059 25.2158 40.7068C25.0851 40.7068 24.8237 40.5594 24.9544 40.4775C24.4105 39.4893 24.0037 38.4312 23.7454 37.3326L21.4746 37.48C21.4746 37.48 20.9519 37.48 20.5434 37.6274C19.763 40.8475 19.3302 44.1424 19.2528 47.4552C19.2528 47.761 19.2528 48.0886 19.2528 48.438C19.7311 47.6999 20.2781 47.0089 20.8864 46.3742C22.012 45.2514 23.2492 44.247 24.5786 43.3767C25.2811 42.9181 26.2123 41.9189 27.1762 42.5413C27.6462 42.9005 28.0835 43.3006 28.4831 43.7371C28.9569 44.2121 29.5123 44.6052 29.9861 45.0966C31.1031 46.1986 32.0403 47.4699 32.7634 48.8639C33.027 49.3593 33.1396 49.9215 33.0873 50.4806C33.0351 51.0397 32.8202 51.5711 32.4693 52.0088C30.7065 54.2213 28.5453 56.0826 26.0979 57.496C27.4331 57.3586 28.7076 56.8667 29.7901 56.0709C30.785 55.2748 31.8515 54.573 32.9758 53.9743C33.0006 53.9697 33.0261 53.9703 33.0507 53.9762C33.0753 53.9821 33.0984 53.9932 33.1184 54.0086C33.1385 54.0241 33.1551 54.0436 33.1671 54.0659C33.1791 54.0882 33.1863 54.1128 33.1881 54.1381C33.0908 55.0422 32.759 55.905 32.2259 56.6406C31.6928 57.3762 30.977 57.9591 30.1495 58.3313C28.247 59.3078 26.0927 59.6793 23.9741 59.396C22.8568 59.2339 21.796 58.7998 20.8846 58.1316C19.9733 57.4635 19.2391 56.5816 18.7463 55.5632C18.7026 56.0036 18.6095 56.4377 18.4686 56.8572C17.7988 58.4951 19.4652 59.3796 19.6122 59.4779C19.7593 59.5762 26.147 61.7219 36.1778 59.1012C36.1451 59.0356 38.0402 58.1839 37.4031 57.0865Z" fill="#5C4132"/>
</g>
<path d="M26.0653 38.086C27.1057 38.2826 28.1809 38.1628 29.1529 37.7421C28.4504 39.0852 26.7188 41.3784 25.5752 41.2965C23.9415 41.1654 23.778 37.824 23.7454 37.2834C24.4777 37.6576 25.2586 37.9278 26.0653 38.086Z" fill="white"/>
<path d="M29.071 34.417L25.1011 41.0999C24.3208 39.1508 23.8628 37.0872 23.7451 34.9903L20.1021 37.6765L22.5526 39.1343C22.5526 39.1343 20.5921 40.3464 20.7882 40.4283C20.9842 40.5102 24.8887 41.5585 24.8887 41.5585L30.5903 41.4111L30.3943 38.2335L33.1879 36.4317L29.071 34.417Z" fill="#5C4132"/>
<path d="M34.7893 30.879C34.8385 31.2694 34.9838 31.6414 35.2119 31.9616C35.44 32.2818 35.7439 32.5402 36.0962 32.7135C36.7067 32.8961 37.3607 32.8678 37.9532 32.6331C38.5457 32.3985 39.0424 31.9711 39.3636 31.4195C39.9191 30.5186 40.3765 29.3065 38.8572 29.3229C37.835 29.3608 36.8302 29.6001 35.9002 30.0272L34.7893 30.879Z" fill="#EDC8A5"/>
<path d="M19.6939 18.4632C19.6939 18.4632 19.6939 16.4649 18.4033 16.4485C18.1175 16.4702 17.8392 16.5506 17.5857 16.6847C17.3322 16.8188 17.1088 17.0037 16.9296 17.228C16.7503 17.4522 16.619 17.7111 16.5437 17.9884C16.4684 18.2656 16.4507 18.5555 16.4918 18.8399C16.4918 19.5934 17.4885 21.5426 17.9949 21.5753C18.5013 21.6081 19.6939 18.4632 19.6939 18.4632Z" fill="#EDC8A5"/>
<path d="M18.4686 19.2495C18.5258 18.974 18.5258 18.6896 18.4686 18.4141C18.4587 18.3011 18.4191 18.1927 18.3536 18.1001C18.2881 18.0075 18.1992 17.9341 18.096 17.8874C17.9929 17.8407 17.8792 17.8224 17.7667 17.8344C17.6541 17.8463 17.5468 17.8881 17.4557 17.9555C17.4557 17.9555 17.9131 17.9555 18.0438 18.1029C18.1351 18.268 18.1803 18.4547 18.1745 18.6434C17.9003 18.612 17.6236 18.6756 17.3904 18.8236C17.3904 18.8236 17.3904 18.9219 17.3904 18.8236C17.6313 18.7253 17.9009 18.7253 18.1418 18.8236V19.1512C18.11 19.319 18.11 19.4912 18.1418 19.659C18.1508 19.6725 18.163 19.6836 18.1772 19.6913C18.1915 19.6989 18.2074 19.7029 18.2236 19.7029C18.2398 19.7029 18.2556 19.6989 18.2698 19.6913C18.2841 19.6836 18.2963 19.6725 18.3052 19.659C18.4523 19.7409 18.4522 19.4133 18.4686 19.2495Z" fill="#C19168"/>
<path d="M41.863 20.3961C41.2526 18.0043 39.9375 15.8524 38.0892 14.2209C36.6469 12.7911 34.885 11.7271 32.9499 11.1174C31.0149 10.5078 28.9626 10.37 26.9638 10.7157C25.6446 10.753 24.3842 11.2713 23.4187 12.1735C22.7412 12.9684 22.1901 13.8634 21.7851 14.827C21.2452 15.9645 20.4581 16.9663 19.4815 17.759C18.2693 19.0497 17.4584 20.6665 17.1479 22.4119C16.8375 24.1572 17.0409 25.9555 17.7335 27.5868C19.2691 31.9765 24.3663 34.1386 28.9406 33.6145C30.6969 33.4244 32.3939 32.8669 33.9219 31.9782C35.45 31.0894 36.7751 29.8891 37.8115 28.4549C38.1709 27.9799 38.5139 27.4885 38.857 26.9971C38.8876 27.0117 38.9211 27.0192 38.955 27.0192C38.9889 27.0192 39.0225 27.0117 39.0531 26.9971C40.1007 26.2801 40.9217 25.2777 41.4196 24.1081C41.9175 22.9384 42.0714 21.6505 41.863 20.3961Z" fill="#F2D7BD"/>
<g style="mix-blend-mode:multiply" opacity="0.5">
<path d="M20.7065 25.1299C20.9102 25.5466 21.1941 25.9189 21.5417 26.2253C21.8894 26.5317 22.294 26.7662 22.7323 26.9153C22.4382 26.0635 21.5234 24.8351 20.7065 25.1299Z" fill="#EDC8A5"/>
</g>
<g style="mix-blend-mode:multiply" opacity="0.5">
<path d="M41.8633 20.3961C41.2528 18.0043 39.9377 15.8524 38.0895 14.2209C36.6472 12.7911 34.8853 11.7271 32.9502 11.1174C31.0152 10.5078 28.9629 10.37 26.9641 10.7157C25.6449 10.753 24.3845 11.2713 23.419 12.1735L23.0106 12.6649C25.7225 14.2046 31.8325 16.252 31.7344 16.3339C30.9554 16.9427 30.1306 17.4903 29.2676 17.9719C29.983 18.2537 30.7139 18.4944 31.4567 18.6926C33.1361 19.2042 34.868 19.5229 36.6191 19.6426C36.6497 20.6931 36.6007 21.7445 36.4722 22.7875C37.033 22.497 37.6178 22.2559 38.2202 22.0668C37.4458 24.853 36.1786 27.4772 34.479 29.8144C32.5779 31.8008 29.9852 32.9744 27.2418 33.0903C25.8472 33.137 24.459 32.88 23.1729 32.3371C21.8869 31.7942 20.7335 30.9782 19.7922 29.9454C18.6559 28.6421 17.7846 27.1286 17.2273 25.4902C17.3433 26.22 17.5237 26.9381 17.7664 27.6359C19.3021 32.0256 24.3992 34.1877 28.9735 33.6636C30.7298 33.4735 32.4269 32.9161 33.9549 32.0273C35.483 31.1386 36.8079 29.9383 37.8444 28.504C38.2038 28.029 38.5469 27.5376 38.89 27.0462C38.9206 27.0608 38.9541 27.0683 38.988 27.0683C39.0219 27.0683 39.0554 27.0608 39.086 27.0462C40.1361 26.3214 40.9562 25.3091 41.4486 24.13C41.941 22.951 42.085 21.6549 41.8633 20.3961Z" fill="#EDC8A5"/>
</g>
<path d="M28.7934 25.4737C28.5157 25.9815 28.0746 26.2599 27.8132 26.1125C27.5518 25.9651 27.5518 25.441 27.8132 24.9496C28.0746 24.4582 28.5484 24.1634 28.8098 24.3108C29.0711 24.4582 29.1038 24.9823 28.7934 25.4737Z" fill="#3D1B0B"/>
<path d="M28.4995 24.7864C28.3852 24.934 28.2545 25.016 28.1728 24.9668C28.0911 24.9176 28.1728 24.7536 28.1728 24.6059C28.1728 24.4583 28.4179 24.3927 28.4995 24.4419C28.5812 24.4911 28.5812 24.6552 28.4995 24.7864Z" fill="white"/>
<path d="M22.4714 21.8703C22.1937 22.3617 21.7526 22.6565 21.4912 22.5091C21.2298 22.3617 21.2462 21.8375 21.4912 21.3298C21.7363 20.822 22.21 20.5436 22.4714 20.691C22.7328 20.8384 22.7655 21.3625 22.4714 21.8703Z" fill="#3D1B0B"/>
<path d="M22.1449 21.1828C22.0468 21.3304 21.8998 21.396 21.8345 21.3468C21.7691 21.2976 21.8345 21.1499 21.8345 21.0023C21.8345 20.8547 22.0795 20.7727 22.1612 20.8383C22.2429 20.9039 22.2592 21.0515 22.1449 21.1828Z" fill="white"/>
<path d="M31.522 29.0444C31.326 29.5031 30.3295 29.4703 29.2839 29.0444C28.2383 28.6186 27.6502 27.816 27.7646 27.4065C27.8789 26.997 28.9735 26.997 30.0027 27.4065C31.0319 27.816 31.7181 28.6022 31.522 29.0444Z" fill="#F7C9BE"/>
<path d="M20.9848 23.1152C20.7398 23.3772 20.119 23.1152 19.5962 22.6565C19.0734 22.1979 18.8611 21.5263 19.1061 21.2643C19.3512 21.0022 19.9556 21.2643 20.4784 21.7229C21.0011 22.1815 21.2299 22.8531 20.9848 23.1152Z" fill="#F7C9BE"/>
<path d="M40.2292 14.3356C39.3472 13.4179 38.3275 12.6442 37.207 12.0425C36.0185 11.2761 34.7669 10.613 33.4658 10.0605C31.376 9.25941 29.0841 9.15602 26.931 9.76571C25.4731 9.70299 24.0132 9.82405 22.5854 10.1261C22.5854 10.1261 22.5854 10.1261 22.5854 10.2407C22.5854 10.3554 22.5854 10.2407 22.5854 10.2407C23.435 10.6174 24.3008 10.9123 25.183 11.2235L25.8692 11.4692L25.477 11.5839C24.9542 11.7313 24.4314 11.9442 23.8433 12.1244V12.2554C23.8362 12.2679 23.8325 12.282 23.8325 12.2964C23.8325 12.3107 23.8362 12.3249 23.8433 12.3373C25.477 12.9761 27.0127 13.6313 28.581 14.3356L31.293 15.5314C31.7505 15.7443 32.2406 15.9245 32.7143 16.121L32.4529 16.2684C32.0716 16.5249 31.6668 16.7442 31.244 16.9236V17.0383C32.2918 17.7103 33.4467 18.1978 34.6584 18.4797C35.4287 18.7328 36.2222 18.9084 37.0272 19.0038C36.8044 19.8139 36.7107 20.6542 36.7495 21.4936C36.7495 21.4936 36.7495 21.6737 36.8475 21.641C37.6636 21.3286 38.4508 20.9449 39.2 20.4944C38.7965 21.7843 38.4692 23.097 38.2198 24.4255C37.9584 25.3264 37.648 26.1945 37.3539 27.079C36.992 27.8751 36.7234 28.7106 36.5534 29.5687C36.5506 29.6029 36.5586 29.6371 36.5762 29.6664C36.5938 29.6958 36.6201 29.7189 36.6515 29.7325C36.6515 29.7325 36.6515 29.7325 36.7658 29.7325C37.7951 28.9463 39.004 28.4058 40.0332 27.6523C40.8614 27.0255 41.5511 26.2336 42.059 25.3264C45.9145 22.0832 42.8595 17.3003 40.2292 14.3356Z" fill="#463528"/>
<g style="mix-blend-mode:multiply">
<path d="M41.5689 26.26C41.5431 26.277 41.5135 26.2871 41.4827 26.2894C41.452 26.2916 41.4212 26.2858 41.3933 26.2727C41.3654 26.2595 41.3414 26.2394 41.3235 26.2142C41.3056 26.189 41.2945 26.1597 41.2912 26.129C41.2912 26.129 41.1768 26.0143 41.1768 25.9488C41.3128 24.9666 41.5821 24.0077 41.9773 23.0987C41.827 23.2439 41.6689 23.3806 41.5035 23.5082C41.4826 23.5256 41.4575 23.5374 41.4309 23.5427C41.4042 23.548 41.3766 23.5465 41.3507 23.5383C41.3247 23.5302 41.3011 23.5157 41.2822 23.4961C41.2632 23.4765 41.2495 23.4526 41.2421 23.4263C40.8117 22.0565 40.5644 20.6354 40.5069 19.2003C39.7314 20.0108 38.7735 20.623 37.7134 20.9858C37.6877 20.996 37.66 21.0002 37.6324 20.9979C37.6049 20.9957 37.5782 20.9871 37.5544 20.9728C37.5307 20.9586 37.5106 20.939 37.4957 20.9157C37.4808 20.8923 37.4714 20.8659 37.4683 20.8383C37.4547 19.7706 37.6779 18.7132 38.1218 17.7426C36.5834 17.9065 35.0281 17.7899 33.5311 17.3986C33.4999 17.3842 33.4734 17.3612 33.4548 17.3321C33.4362 17.3031 33.4263 17.2693 33.4263 17.2348C33.4263 17.2003 33.4362 17.1665 33.4548 17.1375C33.4734 17.1085 33.4999 17.0854 33.5311 17.071C34.5576 16.5114 35.5309 15.8589 36.4391 15.1218C35.6059 15.0072 34.8054 14.9744 33.9232 14.8106C33.0368 14.6226 32.1635 14.3764 31.3093 14.0735C29.5501 13.6193 27.816 13.0725 26.1141 12.4356C26.0792 12.4203 26.0494 12.3951 26.0285 12.3631C26.0076 12.3311 25.9965 12.2936 25.9965 12.2554C25.9965 12.2171 26.0076 12.1797 26.0285 12.1477C26.0494 12.1157 26.0792 12.0905 26.1141 12.0752C26.9147 11.9114 27.7478 11.7804 28.5647 11.6657C26.5716 11.0761 24.5131 10.7976 22.52 10.2734C23.3695 10.6502 24.2354 10.945 25.1176 11.2562L25.8037 11.5019L25.4117 11.6166C24.8889 11.764 24.3661 11.9769 23.778 12.1571V12.2881C23.7708 12.3006 23.767 12.3147 23.767 12.3291C23.767 12.3435 23.7708 12.3576 23.778 12.37C25.4117 13.0088 26.9474 13.664 28.5157 14.3684L31.2276 15.5641C31.685 15.777 32.1751 15.9572 32.6489 16.1537L32.3875 16.3012C32.0063 16.5576 31.6015 16.777 31.1786 16.9563V17.071C32.2265 17.7431 33.3812 18.2306 34.593 18.5124C35.3633 18.7656 36.1568 18.9412 36.9618 19.0366C36.7391 19.8466 36.6454 20.6869 36.6842 21.5263C36.6842 21.5263 36.6841 21.7065 36.7822 21.6737C37.5983 21.3613 38.3855 20.9776 39.1347 20.5271C38.7312 21.817 38.4038 23.1297 38.1544 24.4582C37.893 25.3591 37.5827 26.2272 37.2886 27.1117C36.9267 27.9078 36.6581 28.7433 36.4881 29.6014C36.4853 29.6356 36.4933 29.6698 36.5109 29.6991C36.5284 29.7285 36.5548 29.7517 36.5861 29.7652C36.5861 29.7652 36.5861 29.7652 36.7005 29.7652C37.7297 28.979 38.9387 28.4385 39.9679 27.685C40.6935 27.2252 41.3345 26.6434 41.8629 25.9652L41.5689 26.26Z" fill="#785A00"/>
</g>
<path d="M31.6689 24.1469C31.447 23.5659 31.1013 23.0404 30.656 22.6072C30.0188 22.0667 29.0222 21.8046 28.6628 20.9692C28.5698 21.1911 28.4987 21.4215 28.4504 21.6572C28.5489 21.9042 28.706 22.1235 28.9079 22.296C29.8172 22.8734 30.6851 23.5137 31.5054 24.2124C31.5054 24.2124 31.7505 24.3271 31.6689 24.1469Z" fill="#463528"/>
<path d="M20.9353 18.5617C21.5315 18.3713 22.1644 18.3263 22.7814 18.4304C23.5819 18.5781 24.415 19.2506 25.2809 19.0045C25.1692 19.2123 25.032 19.4052 24.8725 19.5786C24.616 19.6507 24.3448 19.6507 24.0883 19.5786C23.0768 19.2069 22.0393 18.9108 20.9843 18.6929C20.9843 18.6929 20.7719 18.5945 20.9353 18.5617Z" fill="#463528"/>
<path d="M23.8925 23.8357C22.8109 23.8334 21.7612 24.2034 20.9192 24.884C20.2003 25.4737 21.8177 26.522 22.2588 26.522C22.2588 26.522 22.4385 26.4073 22.3732 26.3582C21.8667 26.0634 20.4127 25.2935 21.3929 24.7202C22.1317 24.2323 22.9789 23.9342 23.8598 23.8521L23.8925 23.8357Z" fill="#C39368"/>
<path d="M23.3862 31.5016C23.9495 31.3631 24.537 31.356 25.1034 31.4809C25.6699 31.6059 26.2003 31.8595 26.6536 32.2223C26.6612 32.19 26.6612 32.1563 26.6536 32.124C26.2852 31.5305 25.6981 31.1067 25.0199 30.9447C24.4225 30.7336 23.7712 30.7336 23.1738 30.9447C23.1637 30.965 23.1584 30.9875 23.1584 31.0102C23.1584 31.0329 23.1637 31.0553 23.1738 31.0757C23.2228 31.0757 23.2718 31.4197 23.3862 31.5016Z" fill="white"/>
<path d="M41.3079 45.0146C41.3079 45.0146 44.2322 49.9285 40.2134 50.6001L38.0569 46.9638L41.3079 45.0146Z" fill="#E3BB94"/>
<path d="M43.7581 45.4569C43.8561 45.375 38.3343 36.4809 34.4462 37.0706C34.1358 37.8076 33.1882 41.2637 34.7892 43.4586C35.1159 43.9172 37.6155 47.7665 38.2363 48.7165C38.8947 47.8327 39.722 47.0893 40.6701 46.5296C41.6182 45.97 42.6679 45.6053 43.7581 45.4569Z" fill="#5C4132"/>
<g style="mix-blend-mode:multiply" opacity="0.3">
<path d="M34.5442 37.0706H34.4462C34.1358 37.8076 33.1882 41.2637 34.7892 43.4586C35.1159 43.9172 37.6155 47.7665 38.2363 48.7165C38.4329 48.3644 38.6745 48.0395 38.955 47.7501C36.4065 44.6216 33.6947 41.1491 34.5442 37.0706Z" fill="#5C4132"/>
</g>
<path d="M41.6179 47.619C41.6179 48.2086 41.6179 50.1906 40.2129 50.6001C39.4941 50.813 38.8406 51.0751 35.7203 48.1923C33.429 46.2344 31.2474 44.151 29.1855 41.9516L31.4891 39.8223C31.4891 39.8223 40.0169 43.9827 41.6179 47.619Z" fill="#F4D9BF"/>
<path d="M29.8717 33.205C29.4306 33.336 28.9079 33.9748 29.0222 35.3998C27.7607 34.4672 26.2274 33.9778 24.6602 34.0076C24.4454 34.0033 24.2346 34.0655 24.0563 34.1856C23.878 34.3058 23.7409 34.4781 23.6637 34.6791C23.6637 34.6791 22.8795 34.6791 22.7325 35.0722C22.7325 35.8748 24.2192 36.0714 25.4118 36.8576C24.6929 36.7757 22.3894 36.4809 22.3568 37.3982C22.3241 38.3154 24.7256 38.0697 25.9182 38.8068C25.0033 38.7085 23.5821 38.987 23.7291 39.5275C23.8761 40.068 25.134 40.1827 25.9999 40.2482C26.8657 40.3137 26.6043 40.9689 27.6335 41.8862C28.0031 42.1753 28.4337 42.3759 28.8924 42.4724C29.3512 42.5689 29.8258 42.5589 30.2801 42.4431C30.8109 42.2767 31.2905 41.9773 31.6736 41.5731C32.0567 41.169 32.3306 40.6735 32.4693 40.1336C32.4693 39.7568 32.5836 38.4956 30.7049 36.0059C30.1004 35.1869 30.2964 33.0903 29.8717 33.205Z" fill="#F4D9BF"/>
<g style="mix-blend-mode:multiply" opacity="0.5">
<path d="M29.8717 33.205C29.4306 33.336 28.9079 33.9748 29.0222 35.3998C27.7607 34.4672 26.2274 33.9778 24.6602 34.0076C24.4454 34.0033 24.2346 34.0655 24.0563 34.1856C23.878 34.3058 23.7409 34.4781 23.6637 34.6791C23.6637 34.6791 22.8795 34.6791 22.7325 35.0722C22.7325 35.8748 24.2192 36.0714 25.4118 36.8576C24.6929 36.7757 22.3894 36.4809 22.3568 37.3982C22.3241 38.3154 24.7256 38.0697 25.9182 38.8068C25.0033 38.7085 23.5821 38.987 23.7291 39.5275C23.8761 40.068 25.134 40.1827 25.9999 40.2482C26.8657 40.3137 26.6043 40.9689 27.6335 41.8862C28.0031 42.1753 28.4337 42.3759 28.8924 42.4724C29.3512 42.5689 29.8258 42.5589 30.2801 42.4431C30.8109 42.2767 31.2905 41.9773 31.6736 41.5731C32.0567 41.169 32.3306 40.6735 32.4693 40.1336C32.4693 39.7568 32.5836 38.4956 30.7049 36.0059C30.1004 35.1869 30.2964 33.0903 29.8717 33.205Z" fill="#EDC8A5"/>
</g>
<path d="M23.6641 34.6792H23.9255C24.154 34.6654 24.3831 34.6654 24.6116 34.6792H25.0854H25.3305H25.5918L26.1146 34.8594L26.6374 35.0887L27.1438 35.3507L27.6339 35.6456L28.0423 35.9568L28.4018 36.2516L28.6958 36.5137L28.9082 36.743L29.0879 36.9232L28.8755 36.7758L28.6468 36.5792L28.3201 36.3499L27.9443 36.0878L27.5195 35.8094L27.0458 35.5473L26.5557 35.2852L26.0329 35.0559L25.5265 34.8594L25.0364 34.7119L24.5953 34.5973L23.9092 34.499L23.6641 34.6792Z" fill="#C39368"/>
<path d="M25.3301 36.7756H25.4608H25.8038L26.2776 36.874L26.5553 36.9725C26.6451 36.9977 26.7325 37.0306 26.8167 37.0709C26.9916 37.1396 27.1609 37.2219 27.3231 37.3169C27.3955 37.3718 27.472 37.4212 27.5519 37.4645L27.7315 37.6121C27.9439 37.809 28.0747 37.9566 28.0747 37.9566L27.6499 37.7269C27.5928 37.6759 27.5262 37.6369 27.4539 37.6121L27.2251 37.4973C27.2251 37.4973 27.0782 37.4973 26.9965 37.3825L26.735 37.2677L26.4737 37.1693L26.2286 37.0709L25.7712 36.9068L25.3301 36.7756Z" fill="#C39368"/>
<path d="M25.853 38.7576H26.1634H26.4738L26.8168 38.8724L27.1436 39.0364C27.2358 39.0888 27.3233 39.1491 27.405 39.2168C27.4963 39.2695 27.5789 39.3359 27.65 39.4137L27.356 39.3317L27.0619 39.2168L26.7352 39.0856L26.4084 38.938L26.1307 38.8068L25.853 38.7576Z" fill="#C39368"/>
<path d="M29.0225 35.3997L29.2021 35.4981C29.3287 35.5682 29.4444 35.6566 29.5453 35.7605C29.6518 35.8571 29.7451 35.9674 29.823 36.0886C29.8612 36.1455 29.894 36.2059 29.921 36.269H29.7413C29.6193 36.1921 29.5044 36.1043 29.3982 36.0066C29.2949 35.9009 29.2019 35.7855 29.1205 35.6621C29.0768 35.5792 29.0438 35.491 29.0225 35.3997Z" fill="#C39368"/>
<path d="M12.1628 47.1605C12.0471 47.4477 11.992 47.7558 12.0009 48.0653C12.0098 48.3749 12.0825 48.6793 12.2145 48.9593C12.3465 49.2394 12.5348 49.489 12.7677 49.6924C13.0006 49.8959 13.273 50.0488 13.5677 50.1416C14.2865 50.3545 14.94 50.6166 18.044 47.7338C20.335 45.7814 22.5166 43.7035 24.5787 41.5095L22.2753 39.3638C22.2753 39.3638 13.7638 43.5734 12.1628 47.1605Z" fill="#F4D9BF"/>
<path d="M22.8963 33.8273C23.3374 33.9583 23.8601 34.5808 23.7457 36.0222C25.0073 35.0895 26.5406 34.6001 28.1078 34.6299C28.3206 34.6244 28.5301 34.6841 28.7082 34.8012C28.8863 34.9183 29.0245 35.0871 29.1043 35.2851C29.1043 35.2851 29.8885 35.2851 30.0355 35.6946C30.0355 36.4972 28.5652 36.6938 27.3562 37.4636C28.075 37.4636 30.3785 37.1032 30.4112 38.0205C30.4439 38.9378 28.0424 38.6921 26.8498 39.4292C27.7646 39.3309 29.186 39.593 29.039 40.1499C28.8919 40.7068 27.634 40.805 26.7681 40.8542C25.9023 40.9033 26.1637 41.5913 25.1344 42.4921C24.7669 42.7852 24.337 42.9894 23.878 43.0888C23.419 43.1882 22.9433 43.1802 22.4879 43.0654C21.9589 42.8908 21.4816 42.5867 21.0994 42.1805C20.7171 41.7744 20.4419 41.2791 20.2987 40.7395C20.2987 40.3792 20.1844 39.1015 22.0794 36.6282C22.6676 35.7929 22.4715 33.7127 22.8963 33.8273Z" fill="#F4D9BF"/>
<path d="M29.1042 35.2852H28.7938C28.5656 35.263 28.3358 35.263 28.1076 35.2852H27.6502H27.3888H27.1437C26.964 35.2852 26.7843 35.3998 26.6046 35.4489L26.0819 35.6783L25.5754 35.9567L25.1016 36.2516L24.6768 36.5628L24.3175 36.8576C24.2124 36.9366 24.114 37.0243 24.0234 37.1197L23.811 37.3326L23.6313 37.5292L23.8436 37.3654L24.0887 37.1852L24.3991 36.9559L24.7748 36.6938L25.1996 36.4154L25.6735 36.1369L26.1799 35.8912L26.6863 35.6619L27.1928 35.4653L27.6829 35.3179L28.124 35.2033C28.3446 35.1544 28.5684 35.1216 28.7938 35.105L29.1042 35.2852Z" fill="#C39368"/>
<path d="M27.4377 37.4309H27.3071H26.964L26.4739 37.5293L26.2124 37.6113L25.9511 37.7097C25.7714 37.8082 25.5917 37.8738 25.4446 37.9722L25.2159 38.1198L25.0362 38.2674L24.6931 38.6119L25.1179 38.3659L25.3139 38.2674L25.5427 38.1526C25.6177 38.1014 25.7004 38.0627 25.7877 38.0378L26.0327 37.923C26.1169 37.8827 26.2043 37.8498 26.2941 37.8246L26.5392 37.7261L26.9967 37.5621L27.4377 37.4309Z" fill="#C39368"/>
<path d="M26.9149 39.3638C26.8118 39.3514 26.7076 39.3514 26.6045 39.3638H26.2941C26.1753 39.3871 26.0601 39.4257 25.9511 39.4786L25.6244 39.6262L25.363 39.8066C25.2731 39.8676 25.1908 39.9392 25.1179 40.0199L25.412 39.9215L25.706 39.8231L26.0328 39.6918L26.3595 39.5442L26.6372 39.3966L26.9149 39.3638Z" fill="#C39368"/>
<path d="M23.7457 36.0222L23.566 36.1042L23.223 36.3667C23.1153 36.4683 23.0218 36.5842 22.9452 36.7111C22.907 36.768 22.8742 36.8285 22.8472 36.8915L23.0268 36.7931C23.1534 36.7231 23.2691 36.6346 23.37 36.5307C23.4765 36.4341 23.5698 36.3238 23.6477 36.2026C23.6935 36.1507 23.727 36.089 23.7457 36.0222Z" fill="#C39368"/>
<path d="M18.0766 34.8919L17.2597 35.0066L17.08 34.6299L16.884 34.204V34.1057H16.786L16.2795 34.2859L15.8221 34.4497L15.332 33.729C15.1825 33.857 15.0407 33.9938 14.9072 34.1385L14.4824 34.548L14.9563 34.204L15.3483 33.8928C15.4954 34.1385 15.6423 34.4006 15.8057 34.6463L16.3285 34.4661L16.7533 34.3187L16.9166 34.6626L17.1453 35.0885L18.0112 34.9083L18.5177 35.367C18.387 35.2523 18.2236 35.0721 18.0766 34.8919Z" fill="#F59998"/>
<path d="M19.2036 33.3196V32.8118V32.7135H18.9912L18.4195 32.6317H17.9947V31.7471V31.5997H17.8476H17.3249H16.9164C16.9164 31.4523 16.9164 31.2885 16.9164 31.1247C16.9164 30.9609 16.9164 30.7316 16.9164 30.535V30.4368H16.8184L16.263 30.5187L15.7075 30.6333H16.7531C16.7531 30.7971 16.7531 30.9773 16.7531 31.1411C16.7531 31.3049 16.7531 31.5506 16.7531 31.7471V31.8618H16.8675H17.3903H17.766C17.766 32.1403 17.766 32.4351 17.766 32.7135V32.8773H17.9131H18.4848H18.9749C18.9749 33.0084 18.9749 33.1558 18.9749 33.2868C19.0035 33.4581 19.0417 33.6276 19.0893 33.7946L19.8244 33.9748L19.1709 33.68L19.2036 33.3196Z" fill="#F59998"/>
</g>
<defs>
<clipPath id="clip0_12164_2940">
<rect width="56" height="56" rx="28" fill="white"/>
</clipPath>
</defs>
</svg>
