<svg width="56" height="56" viewBox="0 0 56 56" fill="none" xmlns="http://www.w3.org/2000/svg">
<g clip-path="url(#clip0_12164_1954)">
<rect width="56" height="56" rx="28" fill="#54D1FF"/>
<g clip-path="url(#clip1_12164_1954)">
<path d="M38.8969 10.8902C36.095 8.3125 30.973 6.515 27.9508 9.70987C23.141 5.09301 14.5293 10.701 13.8605 16.312C13.8177 16.8429 14.5863 16.9799 14.843 16.5705C15.6459 15.2675 16.6322 14.0798 17.7733 13.0417C16.1774 14.4037 17.5721 16.9199 19.5911 16.0334C20.5625 16.7814 22.0649 16.4951 22.3391 15.1808H22.3565C22.7448 14.1513 23.1901 13.0432 24.3819 13.1633C24.1378 13.1479 24.5404 13.2033 24.5974 13.2187C24.6545 13.2341 24.992 13.3633 25.0063 13.3618C25.2397 13.4756 25.4643 13.6057 25.6782 13.7512C24.7876 15.3394 26.4469 16.8783 27.9508 16.0781C29.4548 16.8783 31.1109 15.3394 30.2218 13.7512C30.4363 13.6057 30.6614 13.4756 30.8953 13.3618C30.9096 13.3618 31.2519 13.231 31.3042 13.2187C31.3565 13.2064 31.7622 13.1479 31.5182 13.1633C32.7099 13.0448 33.1553 14.1497 33.5435 15.1808H33.561C33.8351 16.4936 35.3375 16.7814 36.3106 16.0334C38.3312 16.9199 39.721 14.4037 38.1267 13.0417C39.2678 14.0798 40.2541 15.2675 41.057 16.5705C41.3153 16.9799 42.0839 16.8429 42.0396 16.312C41.8637 14.1882 40.4944 12.2907 38.8969 10.8902Z" fill="#99461D"/>
<path d="M43.2313 31.3C43.4579 26.0583 45.6893 20.141 42.3691 15.321C39.7527 11.4136 34.6671 11.8815 30.4642 11.8676C28.0279 11.843 25.5921 11.8219 23.1568 11.8045C11.0744 10.4533 10.32 21.0982 12.1774 29.8349C12.5403 32.9482 9.68927 35.1874 9.18848 38.1545C8.46582 41.06 9.89847 43.9224 12.3216 45.6338C13.4563 46.5479 14.431 47.225 13.3866 48.6763C9.69086 53.4316 11.4579 56.2741 16.3977 58.9349C18.8604 59.9568 21.61 59.0888 24.1948 59.1242C28.6005 58.8688 33.0052 58.6148 37.4088 58.3624C39.2741 58.287 40.8002 56.9358 42.1726 55.8478C43.4706 54.8228 44.0744 53.3947 43.431 51.8465C42.8319 50.3937 41.5974 49.2134 41.2947 47.6483C41.1536 46.9157 41.6481 46.3694 42.3089 45.7753C49.3517 40.6075 45.1853 37.4281 43.2313 31.3ZM13.534 46.7233C13.4722 46.6525 13.4928 46.6741 13.534 46.7233V46.7233Z" fill="#99461D"/>
<path d="M31.9381 41.2046H24.572V53.5439H31.9381V41.2046Z" fill="#FAC29C"/>
<g style="mix-blend-mode:multiply">
<path d="M24.572 45.2244C25.5941 46.0856 26.9019 46.5597 28.2551 46.5597C29.6083 46.5597 30.916 46.0856 31.9381 45.2244V41.2092H24.572V45.2244Z" fill="#FAC29C"/>
</g>
<path d="M40.6672 18.3219C39.3202 7.91092 17.2282 7.91092 15.878 18.3219C15.7005 24.9502 13.8098 32.488 18.195 38.1929C20.4533 40.9245 24.5357 44.1471 28.2742 44.4549C32.0127 44.1471 36.0951 40.9153 38.3534 38.1883C42.7449 32.488 40.8542 24.9487 40.6672 18.3219Z" fill="#FAC29C"/>
<path d="M16.9714 28.1697C16.7891 27.6988 16.5165 27.2556 16.3137 26.7985C16.3311 26.8432 16.3676 26.9386 16.4325 27.1063C16.3977 26.7739 15.4896 25.6751 16.1489 26.5323C12.2994 23.0358 9.00466 28.6037 11.9048 31.8355C14.3993 34.6626 18.4135 31.1861 16.9714 28.1697Z" fill="#FAC29C"/>
<path d="M39.7164 31.2075C42.7274 35.8967 47.8511 29.7394 44.84 26.3829C43.7433 25.0625 41.3867 25.2195 40.3709 26.5368C41.0301 25.6796 40.1221 26.7784 40.0856 27.1108C40.1522 26.9369 40.187 26.8415 40.2061 26.8031C39.4327 28.1419 38.8146 29.7609 39.7164 31.2075Z" fill="#FAC29C"/>
<path d="M11.824 28.1497C13.1346 27.865 14.1314 28.736 14.7764 29.7025C14.8677 29.7528 14.9757 29.7665 15.0772 29.7406C15.1788 29.7147 15.2659 29.6513 15.32 29.564C15.7828 28.8637 14.6988 28.0712 14.1473 27.8019C13.4246 27.4464 12.4341 27.3094 11.6544 27.5541C11.6141 27.5649 11.5764 27.5833 11.5435 27.6083C11.5106 27.6332 11.483 27.6642 11.4624 27.6995C11.4208 27.7708 11.41 27.8552 11.4325 27.9342C11.455 28.0132 11.5089 28.0803 11.5823 28.1207C11.6557 28.1611 11.7426 28.1715 11.824 28.1497Z" fill="#EC9177"/>
<path d="M13.3755 28.1419C12.1314 29.5054 13.6781 31.92 14.2978 30.6704C14.2978 30.2826 13.919 30.0979 13.8081 29.7316C13.6813 29.3192 13.7796 28.7621 13.9127 28.362C14.0189 28.0419 13.5498 27.8772 13.3755 28.1419Z" fill="#EC9177"/>
<path d="M44.8636 27.5539C43.6434 27.1122 40.6719 27.9679 41.198 29.5638C41.2522 29.6512 41.3393 29.7145 41.4408 29.7404C41.5424 29.7663 41.6503 29.7526 41.7416 29.7023C42.4484 28.7035 43.2979 27.8833 44.6941 28.1495C44.7754 28.1713 44.8623 28.1609 44.9357 28.1205C45.0092 28.0801 45.063 28.013 45.0855 27.934C45.108 27.8551 45.0973 27.7706 45.0557 27.6994C45.014 27.6281 44.945 27.5758 44.8636 27.5539Z" fill="#EC9177"/>
<path d="M42.5974 28.362C43.0205 29.5577 42.5752 29.7224 42.2123 30.6704C42.5292 31.5568 43.5023 30.5165 43.5578 29.9609C43.9429 29.4408 42.8953 27.0816 42.5974 28.362Z" fill="#EC9177"/>
<path d="M31.0554 38.7945C30.2487 36.9216 26.4452 36.6753 25.8256 38.7668C26.1837 38.8176 26.301 38.5575 26.6005 38.3759C27.8271 37.7234 29.9397 37.7049 30.7511 38.9699C30.8557 39.1731 31.1457 38.9945 31.0554 38.7945Z" fill="#E15745"/>
<path d="M24.6607 28.9575C24.041 27.6601 22.1139 27.2323 20.8715 27.8956C18.9269 27.5278 18.8208 30.5026 20.2376 31.2274C21.919 32.4832 25.77 31.4337 24.6607 28.9575Z" fill="white"/>
<path d="M19.0983 24.6824C20.8701 24.9087 24.6181 25.9413 25.0746 23.4636C25.0721 23.2937 25.0015 23.1315 24.8778 23.0114C24.7541 22.8912 24.587 22.8227 24.4121 22.8203C23.5389 22.9634 22.8273 23.6329 21.886 23.5898C20.9589 23.6852 20.0254 23.676 19.0983 23.7698C18.9861 23.7866 18.8838 23.8419 18.8099 23.9256C18.7359 24.0093 18.6953 24.1159 18.6953 24.2261C18.6953 24.3364 18.7359 24.443 18.8099 24.5267C18.8838 24.6104 18.9861 24.6656 19.0983 24.6824Z" fill="#99461D"/>
<path d="M17.8334 27.5648C18.2201 28.0449 18.8746 28.6421 19.5497 28.4405C19.5664 28.4309 19.5807 28.4177 19.5914 28.402C19.6021 28.3863 19.609 28.3685 19.6116 28.3498C19.6142 28.3312 19.6124 28.3122 19.6063 28.2943C19.6003 28.2764 19.5902 28.2601 19.5767 28.2465C19.0632 27.9711 18.4309 27.8864 18.0204 27.4247C17.9269 27.3355 17.7526 27.4571 17.8334 27.5648Z" fill="#050303"/>
<path d="M18.8779 27.2432C19.1743 27.7341 19.8098 28.1666 20.4152 28.1235C20.4358 28.1236 20.4558 28.1171 20.4722 28.105C20.4887 28.0929 20.5005 28.0759 20.5059 28.0566C20.5113 28.0373 20.51 28.0168 20.5022 27.9983C20.4944 27.9797 20.4805 27.9643 20.4627 27.9542C20.0047 27.6156 19.393 27.5972 18.9984 27.1524C18.9397 27.0878 18.8399 27.1709 18.8779 27.2432Z" fill="#050303"/>
<path d="M24.1853 29.3977C24.1742 31.7969 20.4166 31.7969 20.4055 29.3977C20.3944 26.9984 24.1742 26.9969 24.1853 29.3977Z" fill="#99461D"/>
<g style="mix-blend-mode:multiply">
<path d="M23.2347 29.3547C23.2505 30.4812 21.4296 30.4812 21.4454 29.3547C21.428 28.2281 23.2489 28.2281 23.2347 29.3547Z" fill="#99461D"/>
</g>
<path d="M21.9666 29.0546C21.9666 29.4932 21.263 29.4932 21.2693 29.0546C21.2757 28.616 21.9761 28.6145 21.9666 29.0546Z" fill="white"/>
<path d="M19.3534 28.6174C21.1141 27.911 22.9889 27.634 24.672 28.6389C24.7072 28.6474 24.7441 28.6468 24.779 28.6374C24.814 28.6279 24.8458 28.6099 24.8715 28.5849C24.8972 28.56 24.9158 28.5291 24.9255 28.4951C24.9353 28.4612 24.9358 28.4254 24.9271 28.3911C24.691 27.4447 23.3613 27.2185 22.5103 27.2185C22.1252 27.0246 18.2124 28.2803 19.3534 28.6174Z" fill="#050303"/>
<path d="M32.7765 31.0814C33.8621 31.934 35.618 31.9878 36.7734 31.2276C38.1917 30.5043 38.0856 27.5341 36.1394 27.8958C34.1505 26.6431 30.71 29.13 32.7765 31.0814Z" fill="white"/>
<path d="M37.9159 24.6824C36.1457 24.9087 32.3961 25.9398 31.9413 23.4636C31.9437 23.294 32.0141 23.132 32.1375 23.0119C32.2608 22.8918 32.4275 22.8231 32.6021 22.8203C33.4769 22.9634 34.1869 23.6329 35.1378 23.5898C36.0633 23.6852 36.9983 23.676 37.9239 23.7698C38.034 23.7886 38.1339 23.8445 38.2058 23.9276C38.2778 24.0108 38.3172 24.116 38.3172 24.2246C38.3172 24.3332 38.2778 24.4384 38.2058 24.5216C38.1339 24.6047 38.034 24.6606 37.9239 24.6794L37.9159 24.6824Z" fill="#99461D"/>
<path d="M39.1807 27.5648C38.794 28.0449 38.1395 28.6421 37.4643 28.4405C37.4478 28.4307 37.4337 28.4175 37.4231 28.4017C37.4126 28.386 37.4058 28.3681 37.4034 28.3495C37.4009 28.3308 37.4029 28.3119 37.409 28.294C37.4152 28.2762 37.4254 28.26 37.439 28.2465C37.9525 27.9711 38.5848 27.8864 38.9937 27.4247C39.0872 27.3355 39.2631 27.4571 39.1807 27.5648Z" fill="#050303"/>
<path d="M38.1315 27.2432C37.8352 27.7341 37.2013 28.1666 36.5943 28.1235C36.5743 28.1225 36.5551 28.1154 36.5395 28.1032C36.5239 28.091 36.5127 28.0743 36.5074 28.0556C36.5021 28.0368 36.5031 28.0169 36.5101 27.9987C36.5172 27.9805 36.53 27.9649 36.5467 27.9542C37.0047 27.6156 37.6165 27.5972 38.0127 27.1524C38.0697 27.0878 38.1711 27.1709 38.1315 27.2432Z" fill="#050303"/>
<path d="M32.8303 29.3977C32.8414 31.7969 36.5989 31.7969 36.61 29.3977C36.6211 26.9984 32.8398 26.9969 32.8303 29.3977Z" fill="#99461D"/>
<g style="mix-blend-mode:multiply">
<path d="M33.7828 29.3547C33.7654 30.4812 35.5879 30.4812 35.5705 29.3547C35.5958 28.2281 33.7654 28.2281 33.7828 29.3547Z" fill="#99461D"/>
</g>
<path d="M33.434 29.0546C33.434 29.4932 34.1377 29.4932 34.1313 29.0546C34.125 28.616 33.4261 28.6145 33.434 29.0546Z" fill="white"/>
<path d="M37.656 28.6175C35.8953 27.9111 34.0205 27.6341 32.3375 28.639C32.3023 28.6476 32.2654 28.6472 32.2304 28.6378C32.1955 28.6283 32.1637 28.6102 32.1381 28.5852C32.1125 28.5602 32.0941 28.5292 32.0846 28.4952C32.0751 28.4612 32.0748 28.4254 32.0839 28.3913C33.1045 26.3352 36.2456 27.3586 37.7986 28.2882C37.8377 28.3101 37.8673 28.3451 37.8817 28.3867C37.896 28.4282 37.8943 28.4735 37.8768 28.5139C37.8593 28.5543 37.8272 28.5871 37.7866 28.6062C37.7459 28.6253 37.6995 28.6293 37.656 28.6175Z" fill="#050303"/>
<path d="M26.8652 34.8949C27.6005 34.6964 27.7622 36.5185 29.0427 35.3828C29.2392 35.1319 29.9413 34.9734 29.7923 34.6133C29.2741 34.0685 28.7083 35.1581 28.2503 35.2135C27.7305 35.1396 27.3375 34.11 26.6988 34.641C26.677 34.6658 26.6639 34.6966 26.6614 34.7291C26.6588 34.7616 26.6669 34.794 26.6845 34.8217C26.7021 34.8494 26.7283 34.871 26.7594 34.8833C26.7904 34.8956 26.8247 34.8981 26.8573 34.8903L26.8652 34.8949Z" fill="#EC9177"/>
<path d="M27.8431 39.7026C28.2599 39.7642 29.7068 40.5968 29.5562 39.7134C29.168 39.3179 28.5214 39.301 28.019 39.084C27.6133 38.9532 27.4406 39.5718 27.8431 39.7026Z" fill="#EC9177"/>
<path d="M28.5578 10.3963C27.3153 9.42828 25.5308 9.54216 24.0332 9.70375C18.2044 9.88996 15.1394 15.2286 13.7036 20.0748C13.4453 20.8104 14.1188 21.5398 14.8637 21.5521C20.385 21.6891 26.8605 16.6814 28.5245 11.7028C28.9064 11.3566 29.0491 10.7795 28.5578 10.3963Z" fill="#99461D"/>
<path d="M27.7005 10.3963C28.943 9.42828 30.7274 9.54216 32.225 9.70375C38.0539 9.88996 41.1189 15.2286 42.5547 20.0748C42.8114 20.8104 42.1395 21.5398 41.3946 21.5521C35.8732 21.6891 29.3962 16.6814 27.7338 11.7028C27.355 11.3566 27.2092 10.7795 27.7005 10.3963Z" fill="#99461D"/>
<path d="M28.721 60.9985C36.1695 60.9985 42.7955 60.0752 46.9999 58.6408C45.881 56.2447 44.385 53.7547 42.1489 52.7574C37.6972 50.7291 32.908 49.7857 28.255 49.0085C23.5958 49.7873 18.8176 50.7276 14.3596 52.7651C12.2154 53.7239 10.7542 56.0416 9.6449 58.3608C13.7812 59.949 20.7812 60.9985 28.721 60.9985Z" fill="#FAC29C"/>
<path d="M23.3407 37.0678C23.3581 38.2251 21.4849 38.2251 21.5039 37.0678C21.4912 35.9028 23.3581 35.9028 23.3407 37.0678Z" fill="#EB7870"/>
<path opacity="0.5" d="M22.9936 36.783C22.9936 37.1431 22.4168 37.1431 22.4215 36.783C22.4263 36.4229 23 36.4229 22.9936 36.783Z" fill="white"/>
<path d="M25.312 34.4654C25.3262 35.3995 23.8175 35.3995 23.8318 34.4654C23.8175 33.5281 25.3262 33.5281 25.312 34.4654Z" fill="#EB7870"/>
<path opacity="0.5" d="M25.0332 34.2422C25.0284 34.2984 25.002 34.3508 24.9593 34.389C24.9166 34.4272 24.8607 34.4483 24.8026 34.4483C24.7446 34.4483 24.6886 34.4272 24.6459 34.389C24.6032 34.3508 24.5768 34.2984 24.572 34.2422C24.5768 34.1861 24.6032 34.1337 24.6459 34.0955C24.6886 34.0573 24.7446 34.0361 24.8026 34.0361C24.8607 34.0361 24.9166 34.0573 24.9593 34.0955C25.002 34.1337 25.0284 34.1861 25.0332 34.2422Z" fill="white"/>
<path d="M28.3723 19.8315C28.3865 20.7641 26.8778 20.7641 26.8921 19.8315C26.8794 18.8973 28.3865 18.8973 28.3723 19.8315Z" fill="#EB7870"/>
<path opacity="0.5" d="M28.0935 19.607C28.0887 19.6632 28.0623 19.7155 28.0196 19.7537C27.9769 19.7919 27.921 19.8131 27.8629 19.8131C27.8049 19.8131 27.7489 19.7919 27.7062 19.7537C27.6635 19.7155 27.6371 19.6632 27.6323 19.607C27.6371 19.5508 27.6635 19.4984 27.7062 19.4603C27.7489 19.4221 27.8049 19.4009 27.8629 19.4009C27.921 19.4009 27.9769 19.4221 28.0196 19.4603C28.0623 19.4984 28.0887 19.5508 28.0935 19.607Z" fill="white"/>
<path d="M29.4153 22.2739C29.4264 22.9648 28.3059 22.9648 28.3186 22.2739C28.3313 21.5829 29.4311 21.5829 29.4153 22.2739Z" fill="#EB7870"/>
<path opacity="0.5" d="M29.2123 22.1078C29.2082 22.1489 29.1885 22.187 29.157 22.2148C29.1255 22.2426 29.0845 22.258 29.0419 22.258C28.9994 22.258 28.9584 22.2426 28.9269 22.2148C28.8954 22.187 28.8757 22.1489 28.8716 22.1078C28.8757 22.0666 28.8954 22.0285 28.9269 22.0007C28.9584 21.9729 28.9994 21.9575 29.0419 21.9575C29.0845 21.9575 29.1255 21.9729 29.157 22.0007C29.1885 22.0285 29.2082 22.0666 29.2123 22.1078Z" fill="white"/>
<path d="M19.6703 33.7468C19.6814 34.4377 18.5609 34.4377 18.5736 33.7468C18.5863 33.0558 19.6814 33.0558 19.6703 33.7468Z" fill="#EB7870"/>
<path opacity="0.5" d="M19.4643 33.5805C19.4643 33.6246 19.4462 33.6669 19.4141 33.698C19.382 33.7292 19.3385 33.7467 19.2931 33.7467C19.2477 33.7467 19.2042 33.7292 19.1721 33.698C19.14 33.6669 19.1219 33.6246 19.1219 33.5805C19.1219 33.5364 19.14 33.4942 19.1721 33.463C19.2042 33.4318 19.2477 33.4143 19.2931 33.4143C19.3385 33.4143 19.382 33.4318 19.4141 33.463C19.4462 33.4942 19.4643 33.5364 19.4643 33.5805Z" fill="white"/>
<path d="M37.057 36.1691C37.0681 36.8601 35.9476 36.8601 35.9603 36.1691C35.973 35.4781 37.0681 35.4781 37.057 36.1691Z" fill="#EB7870"/>
<path opacity="0.5" d="M36.8495 36.0028C36.8454 36.0439 36.8257 36.0821 36.7942 36.1098C36.7627 36.1376 36.7217 36.153 36.6792 36.153C36.6366 36.153 36.5956 36.1376 36.5641 36.1098C36.5326 36.0821 36.5129 36.0439 36.5088 36.0028C36.5129 35.9616 36.5326 35.9235 36.5641 35.8957C36.5956 35.8679 36.6366 35.8525 36.6792 35.8525C36.7217 35.8525 36.7627 35.8679 36.7942 35.8957C36.8257 35.9235 36.8454 35.9616 36.8495 36.0028Z" fill="white"/>
<path d="M29.4153 42.4926C29.4264 43.1836 28.3059 43.1836 28.3186 42.4926C28.3313 41.8016 29.4311 41.8016 29.4153 42.4926Z" fill="#EB7870"/>
<path opacity="0.5" d="M29.2123 42.328C29.2082 42.3691 29.1885 42.4073 29.157 42.435C29.1255 42.4628 29.0845 42.4782 29.0419 42.4782C28.9994 42.4782 28.9584 42.4628 28.9269 42.435C28.8954 42.4073 28.8757 42.3691 28.8716 42.328C28.8757 42.2868 28.8954 42.2487 28.9269 42.2209C28.9584 42.1931 28.9994 42.1777 29.0419 42.1777C29.0845 42.1777 29.1255 42.1931 29.157 42.2209C29.1885 42.2487 29.2082 42.2868 29.2123 42.328Z" fill="white"/>
<path d="M26.2028 55.1444C24.347 53.3269 21.477 53.0929 18.9667 53.1437C18.4912 53.2622 15.4485 52.6466 16.0221 53.4808C17.4358 54.2872 19.4754 53.667 21.0317 53.7208C21.8003 53.3977 26.7955 56.0739 26.2028 55.1505V55.1444Z" fill="#EC9177"/>
<path d="M29.8176 55.1444C31.6734 53.3269 34.5435 53.0929 37.0538 53.1437C37.5292 53.2622 40.5736 52.6466 39.9983 53.4808C38.5847 54.2872 36.5451 53.667 34.9888 53.7208C34.2202 53.3977 29.2249 56.0739 29.8176 55.1505V55.1444Z" fill="#EC9177"/>
</g>
</g>
<defs>
<clipPath id="clip0_12164_1954">
<rect width="56" height="56" rx="28" fill="white"/>
</clipPath>
<clipPath id="clip1_12164_1954">
<rect width="38" height="53" fill="white" transform="translate(9 8)"/>
</clipPath>
</defs>
</svg>
