<svg width="56" height="56" viewBox="0 0 56 56" fill="none" xmlns="http://www.w3.org/2000/svg">
<g clip-path="url(#clip0_12164_2042)">
<rect width="56" height="56" rx="28" fill="#54D1FF"/>
<g style="mix-blend-mode:multiply" opacity="0.26">
<path style="mix-blend-mode:multiply" opacity="0.26" d="M56.0001 37.9848V56H31.332L15.5428 36.75L23.2932 18.5668L27.0845 23.0972L27.8097 10.01L31.5365 14.2464L31.3853 9.32959L56.0001 37.9848Z" fill="url(#paint0_linear_12164_2042)"/>
</g>
<path d="M29.2712 27.0312C29.2712 26.7064 29.2236 25.7684 28.9632 26.5188C28.7028 27.2692 26.1268 27.3812 25.2532 26.894C24.2816 26.3536 23.366 24.794 22.2824 24.626C22.2544 24.5952 22.2572 24.5924 22.2824 24.626C23.0232 25.2264 23.6363 25.9689 24.0856 26.81C22.9376 26.9052 21.8456 26.2836 20.6584 26.3592C21.5292 27.1992 23.2316 26.6392 24.2032 27.2664C23.856 27.5044 23.3156 27.5464 22.9124 27.7956C22.4566 28.1062 22.0425 28.4742 21.6804 28.8904C22.554 28.6384 23.1196 27.7704 24.1164 27.8068C24.8052 27.8264 25.6984 28.3668 26.2696 28.7672C27.0088 29.2824 29.2825 31.1696 29.3077 30.1672C29.3329 29.12 29.5148 28.294 29.2712 27.0312Z" fill="#CC0500"/>
<path d="M31.5701 22.7751C31.9761 23.3183 32.6089 23.9539 34.7341 25.0487C36.1873 25.7991 32.7461 24.4355 32.4073 24.4887C31.8697 24.5643 34.2749 26.3704 34.9637 26.9696C33.9081 26.7596 32.6089 25.074 32.3793 25.8776C32.1497 26.6812 33.8605 28.1875 34.3393 29.0584C33.6617 28.6943 32.9393 27.4091 32.2729 27.0451C31.3209 26.5159 31.4945 26.4403 31.3209 25.7935C31.1277 25.0991 30.7329 23.0859 31.5701 22.7751Z" fill="#CC0500"/>
<path d="M34.8489 26.7542C30.8337 28.2046 33.2445 35.4146 33.8129 38.4106C33.9697 39.2366 33.6953 41.3646 34.2469 41.8602C34.8657 40.1802 34.1713 37.9878 33.9221 36.3386C33.4461 33.1634 33.5301 30.3942 34.8489 26.7542Z" fill="#FED394"/>
<path d="M28.6022 10.3125C28.6022 8.00246 31.9314 8.74727 31.811 10.2565C31.531 13.7257 32.7294 39.2673 32.903 41.8601C33.0234 43.6493 28.8038 43.2825 28.8794 42.3389C29.6802 32.3485 28.6022 13.1405 28.6022 10.3125Z" fill="#CC0500"/>
<path opacity="0.33" d="M34.0424 39.6174C34.0592 39.9478 33.9892 40.5554 33.9612 41.1882C33.9841 41.4354 34.0817 41.6698 34.2412 41.8602C34.86 40.1802 34.1656 37.9878 33.9164 36.3386C33.4404 33.1634 33.5244 30.3942 34.8432 26.7542C34.776 26.7794 34.7144 26.8102 34.65 26.8354C31.7016 30.1898 33.8632 35.7254 34.0424 39.6174Z" fill="#956421"/>
<path d="M24.3236 10.9844C24.066 9.02444 28.1344 8.91243 27.9636 10.6204C27.7564 12.782 27.8292 28.3752 28.5964 43.8228C28.0924 45.2228 24.7744 45.0604 24.8612 43.9628C25.5612 35.3584 24.6904 13.79 24.3236 10.9844Z" fill="#00B1FF"/>
<path d="M20.4401 27.2246C25.4801 25.1246 24.6877 33.785 24.5673 36.3666C24.5057 37.6966 24.2621 39.021 24.2285 40.365C23.5257 40.1578 24.0073 34.8434 23.9009 33.7346C23.7945 32.6258 23.7105 31.4106 23.0805 30.4082C22.3469 29.2658 21.1513 28.7618 20.4401 27.2246Z" fill="#FED394"/>
<path opacity="0.33" d="M24.5533 36.3665C24.6709 33.8465 25.4129 25.5837 20.8153 27.0789C21.4677 27.6949 22.4953 27.6641 23.0301 28.6189C23.6209 29.6745 23.6349 31.2341 23.8113 32.4157C24.0017 33.7009 24.3377 35.0197 24.2733 36.3357C24.2313 37.1421 23.8421 38.7549 23.9485 39.8553C24.0101 40.1353 24.0941 40.3229 24.2285 40.3593C24.2481 39.0209 24.4917 37.6965 24.5533 36.3665Z" fill="#956421"/>
<path d="M24.808 25.5165C24.9228 25.3009 25.1944 25.4745 25.2756 25.7965C25.34 26.0765 25.6872 29.3077 24.9172 28.5377C23.8392 27.4177 22.6296 29.7137 21.8932 30.1729C22.0388 29.3609 23.6264 28.4929 23.6264 27.8601C23.6264 27.2273 21.8204 28.1541 21.1064 28.1261C21.6664 27.9105 22.1004 27.6249 22.6716 27.4541C22.9684 27.3673 23.6544 27.3421 23.7076 26.8773C23.7804 26.2529 23.044 26.5329 22.4448 26.2081C21.8456 25.8833 21.3864 25.7377 21.1372 25.1301C21.8372 25.7265 22.4112 25.7153 23.2708 25.9533C23.5144 26.0233 23.9176 26.2193 24.136 26.1885C24.6624 26.1157 24.6932 25.7321 24.808 25.5165Z" fill="#00B1FF"/>
<g style="mix-blend-mode:multiply" opacity="0.69">
<g style="mix-blend-mode:multiply" opacity="0.69">
<path d="M26.8576 9.60395C25.942 9.43035 23.9372 10.0071 24.7016 10.9703C25.2392 11.6507 26.9164 11.3848 27.4372 10.864C28.0532 10.248 27.4736 9.71875 26.8576 9.60395Z" fill="#004056"/>
</g>
</g>
<g style="mix-blend-mode:multiply" opacity="0.57">
<path d="M32.6509 42.2801C33.0373 41.4961 31.1361 41.5605 30.5705 41.6221C30.0049 41.6837 29.0809 41.9189 29.0193 42.3025C28.9521 42.7393 29.7893 42.9017 30.2093 42.9381C30.6293 42.9745 32.2617 43.0697 32.6509 42.2801Z" fill="#5C0500"/>
</g>
<g style="mix-blend-mode:multiply" opacity="0.34">
<path d="M28.602 43.823C27.8348 28.3754 27.7621 12.7822 27.9693 10.6206C27.9778 10.5271 27.9731 10.4328 27.9552 10.3406C27.9552 10.3574 27.9552 10.3742 27.9552 10.3882C27.7285 10.9016 27.3077 11.3043 26.7848 11.5082C25.83 11.7434 26.1212 12.0374 26.0932 12.9922C26.054 14.3614 26.3508 15.8118 26.4852 17.1922C26.67 19.0766 26.8884 20.9694 27.0452 22.865C27.2272 25.063 27.0788 27.2694 27.1768 29.4674C27.2804 31.7802 27.4737 34.079 27.4793 36.403C27.4793 38.069 27.5856 40.533 27.2356 42.171C27.0592 43.011 26.8772 44.3914 25.9448 44.7918H25.9056C26.88 44.9626 28.28 44.6966 28.602 43.823Z" fill="#004056"/>
</g>
<path d="M32.0881 24.6064C30.8001 23.8084 29.7445 22.624 29.0081 22.3664C28.9139 22.1588 28.7513 21.9899 28.5474 21.8879C28.3434 21.7859 28.1107 21.7572 27.8881 21.8064C27.2469 21.9632 26.3537 26.0876 28.2773 25.564C28.4637 25.4976 28.6231 25.3716 28.7309 25.2056C28.8376 25.2931 28.9633 25.3546 29.0979 25.3852C29.2325 25.4159 29.3724 25.4148 29.5065 25.382C30.2709 25.2672 30.7329 26.2976 30.9065 26.8044C31.5309 28.7644 32.4773 29.4868 33.6673 30.1812C33.6869 29.5652 31.1193 27.16 31.7885 26.7596C32.2421 26.4796 34.2497 27.6416 35.0337 27.5632C34.5241 26.7624 31.9901 26.5216 32.0013 25.662C32.3233 25.1356 33.7205 25.662 34.4793 25.7292C35.3053 25.7908 35.9969 26.1688 36.8425 25.9476C37.0105 25.1384 32.9393 25.13 32.0881 24.6064Z" fill="#00B1FF"/>
<g style="mix-blend-mode:multiply" opacity="0.34">
<path d="M29.0221 22.3553C28.9339 22.17 28.7904 22.0166 28.6114 21.9163C28.4323 21.8159 28.2266 21.7737 28.0225 21.7953C28.0287 21.8002 28.0344 21.8058 28.0393 21.8121C28.3193 22.1201 28.4929 22.2181 28.4593 22.7445C28.4341 23.1225 28.1513 23.7217 28.3893 24.0073C29.1313 22.9293 29.8145 23.5705 30.6937 24.2033C31.0829 24.5358 31.5502 24.7641 32.0517 24.8669C32.2755 24.9028 32.5045 24.8913 32.7237 24.8333C32.5024 24.7913 32.2884 24.7178 32.0881 24.6149C30.8001 23.8001 29.7445 22.6241 29.0221 22.3553Z" fill="#004056"/>
</g>
<g style="mix-blend-mode:multiply" opacity="0.34">
<path d="M30.9261 26.3201C30.8029 25.7265 30.6684 25.3121 30.0384 25.0797C29.7584 24.9789 29.3328 25.0797 29.0808 24.9677C28.8288 24.8557 28.7616 24.5533 28.6188 24.3237C28.2044 24.5841 28.2128 25.2169 27.6696 25.3121C27.5772 25.3307 27.4821 25.3307 27.3896 25.3121C27.4919 25.4451 27.6348 25.5409 27.7966 25.5849C27.9584 25.6289 28.1302 25.6186 28.2856 25.5557C28.4721 25.4893 28.6315 25.3633 28.7393 25.1973C28.846 25.2848 28.9717 25.3463 29.1063 25.377C29.2409 25.4076 29.3807 25.4065 29.5148 25.3737C30.2792 25.2589 30.7413 26.2893 30.9148 26.7961C31.0485 27.2337 31.2258 27.6568 31.444 28.0589C31.2166 27.4971 31.0432 26.9149 30.9261 26.3201Z" fill="#004056"/>
</g>
<g style="mix-blend-mode:multiply" opacity="0.34">
<path d="M33.2165 29.3526C33.1063 29.385 32.9924 29.4029 32.8777 29.4058C32.7027 29.4007 32.5313 29.3557 32.3765 29.2742C32.7697 29.6194 33.1986 29.9217 33.6561 30.1758C33.58 29.8692 33.4289 29.5863 33.2165 29.3526Z" fill="#004056"/>
</g>
<g style="mix-blend-mode:multiply" opacity="0.34">
<path d="M34.5605 25.4352C34.2161 25.7404 31.9257 24.64 31.7969 25.6424C31.7717 25.8328 31.9565 25.9672 32.1945 26.0568C32.1332 26.009 32.0832 25.9484 32.0479 25.8793C32.0126 25.8101 31.9928 25.734 31.9901 25.6564C32.3121 25.13 33.7092 25.6564 34.468 25.7236C34.9804 25.7628 35.4424 25.9224 35.9212 25.984C36.062 25.8988 36.1879 25.7909 36.2937 25.6648L34.5605 25.4352Z" fill="#004056"/>
</g>
<g style="mix-blend-mode:multiply" opacity="0.34">
<path d="M34.5604 27.3394C33.8488 27.0276 33.1051 26.7948 32.3428 26.645C31.92 26.5582 31.3208 26.4602 31.6176 27.0482C31.6388 27.0934 31.6682 27.1342 31.7044 27.1686C31.64 26.9754 31.6512 26.8298 31.7772 26.7542C32.1804 26.5106 33.8044 27.3926 34.7144 27.5382L34.5604 27.3394Z" fill="#004056"/>
</g>
<path d="M34.6306 25.7992C31.419 24.6792 31.8446 19.5188 33.7458 17.5336C37.0834 14.0504 41.611 16.8756 43.5934 20.4148C44.5552 22.1156 45.1563 23.9963 45.3592 25.9397C45.562 27.883 45.3622 29.8473 44.7722 31.71C43.6522 35.154 41.2497 38.752 37.2513 37.1868C35.4425 36.4784 33.6114 34.9944 32.7462 33.1884C32.0098 31.6204 32.3122 28.9884 34.457 28.7084C33.6254 27.8628 33.5302 26.2864 34.6306 25.7992Z" fill="#7C361E"/>
<g style="mix-blend-mode:multiply" opacity="0.33">
<path d="M44.7721 31.71C45.3621 29.8472 45.5619 27.8829 45.3591 25.9396C45.1563 23.9962 44.5552 22.1155 43.5933 20.4148C41.6109 16.8784 37.0917 14.0587 33.7569 17.5223C35.3277 16.8531 36.1957 16.6823 36.8369 16.9623C38.1613 17.5587 39.6957 19.0316 39.6957 20.93C39.6957 21.714 38.2957 24.29 38.2957 24.682C38.3265 25.8804 39.9477 26.2415 40.0905 27.5155C40.1178 27.7857 40.0785 28.0584 39.976 28.3098C39.8735 28.5612 39.7109 28.7836 39.5025 28.9576C39.0041 29.4 38.0801 29.12 37.7301 29.4C36.8677 30.1448 38.4413 31.3264 38.6877 32.1468C39.0265 33.2668 38.2733 34.5128 37.1869 34.972C36.2321 35.3752 34.7201 35.0448 33.4629 34.3419C34.4473 35.6085 35.7509 36.5904 37.2401 37.1868C41.2497 38.752 43.6381 35.154 44.7721 31.71Z" fill="#662516"/>
</g>
<g style="mix-blend-mode:screen" opacity="0.28">
<path d="M35.5433 17.1836C33.4769 16.5228 32.9057 21.4592 33.2361 22.6604C34.3057 26.5804 36.8957 22.2348 37.3661 20.4204C37.6181 19.446 37.6181 17.0996 35.5433 17.1836Z" fill="#AD7150"/>
</g>
<g style="mix-blend-mode:screen" opacity="0.28">
<path d="M36.2349 26.068C34.6053 24.948 33.4769 27.5184 34.9665 28.4676C36.4561 29.4168 38.7017 27.6276 36.8117 26.4152L36.2349 26.068Z" fill="#AD7150"/>
</g>
<g style="mix-blend-mode:screen" opacity="0.28">
<path d="M34.5045 29.1846C28.9045 29.809 38.2285 38.3042 36.9125 32.3598C36.6801 31.279 36.0389 29.6634 34.5045 29.1846Z" fill="#AD7150"/>
</g>
<g style="mix-blend-mode:screen" opacity="0.12">
<path d="M37.5033 36.2237C40.5665 37.1981 42.6273 33.6365 43.3833 31.2593C44.4669 27.8657 44.3941 24.7241 42.9521 21.4593C42.4817 20.3953 41.3673 17.5393 40.0569 17.4385C40.1101 18.4577 40.8549 19.3341 41.3113 20.2385C41.8713 21.3389 41.7733 21.9353 41.4261 23.0665C40.6757 25.5025 42.6441 27.4569 42.3389 30.0441C42.0001 32.9169 40.7849 34.8853 37.5033 36.2237Z" fill="#AD7150"/>
</g>
<g style="mix-blend-mode:multiply" opacity="0.49">
<path d="M38.2704 20.9496C37.1504 22.274 36.568 25.7096 34.2944 25.186C34.2793 25.1816 34.2633 25.1818 34.2484 25.1867C34.2335 25.1915 34.2203 25.2007 34.2107 25.213C34.201 25.2254 34.1953 25.2404 34.1943 25.256C34.1932 25.2716 34.1969 25.2872 34.2048 25.3008C34.8236 26.4404 36.0276 25.3568 36.4868 24.668C37.2568 23.5144 37.6236 22.148 38.2788 20.9552C38.2816 20.9496 38.2732 20.944 38.2704 20.9496Z" fill="#683615"/>
</g>
<g style="mix-blend-mode:multiply" opacity="0.49">
<path d="M39.1329 31.8556C38.1053 31.2788 37.6685 30.2064 36.8397 29.428C36.0109 28.6496 34.9692 28.308 34.258 27.3028C34.2499 27.2875 34.2363 27.2757 34.2199 27.2698C34.2036 27.2639 34.1856 27.2643 34.1695 27.2709C34.1534 27.2776 34.1404 27.29 34.1329 27.3057C34.1255 27.3214 34.1242 27.3394 34.1293 27.356C34.3393 28.742 35.4397 29.036 36.4477 29.7836C37.2485 30.3716 38.0269 31.8864 39.1189 31.906C39.1245 31.9055 39.1298 31.9033 39.1342 31.8996C39.1385 31.896 39.1417 31.8911 39.1432 31.8856C39.1447 31.8802 39.1445 31.8744 39.1427 31.869C39.1409 31.8637 39.1374 31.859 39.1329 31.8556Z" fill="#683615"/>
</g>
<g style="mix-blend-mode:multiply" opacity="0.49">
<path d="M36.599 30.3856C36.0212 29.7652 35.3084 29.2861 34.5158 28.9856C34.5065 28.9842 34.4969 28.986 34.4887 28.9906C34.4806 28.9953 34.4742 29.0025 34.4706 29.0113C34.4671 29.02 34.4666 29.0296 34.4692 29.0387C34.4718 29.0477 34.4773 29.0557 34.485 29.0612C35.1726 29.4418 35.8064 29.9127 36.3694 30.4612C36.8924 31.0301 37.3395 31.6645 37.6994 32.3484C37.704 32.3565 37.7113 32.3628 37.72 32.3664C37.7287 32.3699 37.7383 32.3704 37.7473 32.3678C37.7563 32.3653 37.7642 32.3597 37.7698 32.3522C37.7753 32.3446 37.7781 32.3354 37.7778 32.326C37.7358 31.5756 37.1142 30.898 36.599 30.3856Z" fill="#683615"/>
</g>
<g style="mix-blend-mode:multiply" opacity="0.49">
<path d="M38.6402 22.8509C38.1782 23.4361 37.831 24.1053 37.3382 24.6681C37.0476 25.02 36.688 25.3087 36.2815 25.5162C35.8751 25.7238 35.4304 25.8459 34.975 25.8749C36.6998 26.3929 38.1754 24.2229 38.7074 22.8817C38.7074 22.8509 38.6542 22.8201 38.6402 22.8509Z" fill="#683615"/>
</g>
<g style="mix-blend-mode:screen" opacity="0.59">
<path d="M34.5044 17.8584C32.2252 17.8584 32.4744 22.75 33.6336 23.8252C33.6447 23.836 33.6584 23.8437 33.6733 23.8476C33.6883 23.8515 33.704 23.8515 33.7189 23.8475C33.7338 23.8436 33.7475 23.8358 33.7585 23.8251C33.7696 23.8143 33.7777 23.8008 33.782 23.786C34.0172 22.946 33.5804 21.896 33.502 21.0532C33.3732 19.726 33.502 18.788 34.5184 17.8864C34.5268 17.878 34.5184 17.8584 34.5044 17.8584Z" fill="#CC8F71"/>
</g>
<g style="mix-blend-mode:screen" opacity="0.59">
<path d="M37.9932 21.56C37.9932 21.532 37.9456 21.5208 37.94 21.56C37.66 23.1112 37.0384 24.8276 35.5264 25.5808C35.4928 25.6004 35.5264 25.648 35.5572 25.634C36.9152 24.9984 38.1192 23.0888 37.9932 21.56Z" fill="#CC8F71"/>
</g>
<g style="mix-blend-mode:screen" opacity="0.59">
<path d="M35.3108 26.1912C35.0728 26.1604 34.9076 26.0456 34.6836 26.2304C34.6076 26.3011 34.549 26.3885 34.5126 26.4856C34.4761 26.5828 34.4628 26.6872 34.4736 26.7904C34.4736 27.1964 34.7536 27.8712 35.1848 27.986C35.2156 27.986 35.2576 27.9608 35.2436 27.9244C35.1204 27.6164 34.916 27.3392 34.8152 27.0144C34.7517 26.8568 34.7418 26.6826 34.7872 26.5188C34.8408 26.4254 34.9167 26.3466 35.008 26.2894C35.0993 26.2323 35.2033 26.1986 35.3108 26.1912Z" fill="#CC8F71"/>
</g>
<g style="mix-blend-mode:screen" opacity="0.59">
<path d="M37.5201 31.0214C36.909 30.0315 35.9601 29.2964 34.8489 28.9521C34.8489 28.9521 34.8489 28.9521 34.8489 28.9521C35.8902 29.416 36.7982 30.1343 37.4893 31.0409C37.4926 31.0423 37.4962 31.0428 37.4997 31.0425C37.5033 31.0422 37.5067 31.041 37.5097 31.0391C37.5128 31.0372 37.5153 31.0346 37.5171 31.0315C37.5189 31.0284 37.5199 31.0249 37.5201 31.0214Z" fill="#CC8F71"/>
</g>
<g style="mix-blend-mode:screen" opacity="0.59">
<path d="M35.0869 29.5233C34.5633 29.1985 33.6869 29.5485 33.2893 29.9293C33.0414 30.132 32.8804 30.4218 32.8393 30.7393C32.7981 31.0569 32.88 31.3781 33.0681 31.6373C33.074 31.6518 33.0855 31.6633 33.0999 31.6693C33.1144 31.6754 33.1306 31.6754 33.1451 31.6695C33.1596 31.6635 33.1711 31.6521 33.1771 31.6376C33.1832 31.6232 33.1832 31.607 33.1773 31.5925C33.0737 31.0325 33.1409 30.4529 33.6169 30.0693C33.8251 29.9038 34.064 29.7811 34.3197 29.7081C34.5745 29.6325 34.8377 29.6409 35.0841 29.5429C35.0925 29.5373 35.0953 29.5261 35.0869 29.5233Z" fill="#CC8F71"/>
</g>
<g style="mix-blend-mode:screen" opacity="0.59">
<path d="M38.9873 22.8285C38.4273 24.0885 37.6237 25.5977 36.1117 25.8105C36.0781 25.8105 36.0893 25.8665 36.1117 25.8693C37.6405 25.9561 38.5841 24.0437 39.0181 22.8425C39.0349 22.8201 38.9957 22.8061 38.9873 22.8285Z" fill="#CC8F71"/>
</g>
<g style="mix-blend-mode:multiply" opacity="0.34">
<path d="M24.9201 28.5376C25.6901 29.3076 25.3429 26.068 25.2785 25.7964C25.2141 25.5248 25.0125 25.3652 24.8809 25.4436C24.8809 26.0596 25.0237 26.7904 24.8081 27.1236C24.5505 27.524 24.0969 27.6836 23.7609 28.0112C23.6349 28.1344 23.5089 28.2492 23.3829 28.3612C22.9321 28.9212 22.0053 29.5568 21.8961 30.1672C22.6297 29.7136 23.8393 27.4148 24.9201 28.5376Z" fill="#004056"/>
</g>
<path d="M21 26.6813C21 26.6813 25.8216 23.6685 23.632 19.1073C21.952 15.6241 16.5956 16.8029 14.168 19.3873C11.2504 22.4953 10.1752 27.9077 11.928 31.7073C13.0984 34.2273 16.338 39.2057 20.2748 38.4049C24.276 37.5901 26.9668 29.6941 22.0444 29.4169C22.7752 27.1937 21 26.6813 21 26.6813Z" fill="#7C361E"/>
<g style="mix-blend-mode:multiply" opacity="0.33">
<path d="M22.0417 29.4C22.7753 27.1852 20.9861 26.6728 20.9861 26.6728C20.9861 26.6728 25.8077 23.66 23.6181 19.0988C22.4981 16.7412 19.6673 16.52 17.2089 17.4188C17.5184 17.4416 17.8244 17.4979 18.1217 17.5868C18.9327 17.8145 19.6308 18.3341 20.0817 19.0456C21.6329 21.2856 21.5909 25.5108 18.9617 26.978C20.4989 27.6948 20.4373 29.5232 19.2809 30.534C20.1601 30.5872 21.3109 31.2368 21.5769 32.172C22.3441 34.8796 18.1329 36.6212 15.0781 36.2964C16.5229 37.7468 18.3093 38.78 20.2693 38.3824C24.2733 37.5816 26.9641 29.68 22.0417 29.4Z" fill="#662516"/>
</g>
<g style="mix-blend-mode:screen" opacity="0.28">
<path d="M16.8477 18.1077C12.3285 20.8825 10.9509 27.0061 13.0089 31.8277C13.4821 32.9477 14.4089 34.9581 15.7921 34.9273C15.6997 33.9137 14.8569 32.8525 14.6721 31.7605C14.4257 30.3605 14.2325 28.6804 14.4285 27.244C14.8541 24.0632 16.6013 22.3693 18.4689 20.0593C19.5273 18.7601 19.0681 17.8333 16.8477 18.1077Z" fill="#AD7150"/>
</g>
<g style="mix-blend-mode:screen" opacity="0.12">
<path d="M16.5845 23.8532C17.3573 25.4464 19.7961 26.1128 21.0113 24.6932C22.2265 23.2736 21.9997 20.4624 19.8577 20.3672C18.2785 20.3028 17.1109 21.3052 16.5845 23.8532Z" fill="#AD7150"/>
</g>
<g style="mix-blend-mode:screen" opacity="0.12">
<path d="M19.6168 27.569C18.6984 27.3646 17.8864 26.8018 16.9372 26.967C15.988 27.1322 15.3664 27.8322 15.9824 28.7226C16.7748 29.8734 21.2828 29.9378 20.3084 28.1458L19.6168 27.569Z" fill="#AD7150"/>
</g>
<g style="mix-blend-mode:screen" opacity="0.12">
<path d="M21.0001 31.7241C19.6393 30.9625 16.0861 31.1473 16.1533 33.3397C16.2121 35.3221 19.2725 36.0725 20.6585 35.1289C21.9913 34.2189 21.6301 33.1493 21.0001 31.7241Z" fill="#AD7150"/>
</g>
<g style="mix-blend-mode:screen" opacity="0.12">
<path d="M18.0012 37.6097C19.4012 37.5621 20.1712 37.8897 21.378 36.9461C22.2824 36.2377 22.974 35.5041 23.3688 34.4261C23.7048 33.5161 24.3264 31.8305 23.5704 30.9905C22.4112 29.7081 22.8004 32.7209 22.708 33.4433C22.4168 35.7253 21.2324 37.5649 18.0012 37.6097Z" fill="#AD7150"/>
</g>
<g style="mix-blend-mode:screen" opacity="0.12">
<path d="M20.5409 17.2984C23.7161 17.22 24.1025 21.8148 22.3189 23.6572C23.7805 22.3076 22.4001 17.7576 20.5409 17.2984Z" fill="#AD7150"/>
</g>
<g style="mix-blend-mode:multiply" opacity="0.49">
<path d="M21.1568 25.7349C19.6308 26.6673 17.8472 24.8221 17.1332 23.5593C17.1332 23.5425 17.0912 23.5593 17.0996 23.5733C17.6008 24.7773 19.9836 27.9553 21.2604 25.8385C21.269 25.824 21.2725 25.8071 21.2704 25.7905C21.2683 25.7738 21.2608 25.7583 21.2489 25.7464C21.237 25.7346 21.2215 25.727 21.2048 25.7249C21.1882 25.7228 21.1713 25.7263 21.1568 25.7349Z" fill="#683615"/>
</g>
<g style="mix-blend-mode:multiply" opacity="0.49">
<path d="M22.0865 28.9213C21.2633 29.6549 20.6865 30.1785 19.5972 30.4893C18.6654 30.7457 17.6924 30.818 16.7329 30.7021C16.7077 30.7021 16.7049 30.7385 16.7329 30.7441C18.5417 31.3181 21.5208 31.4021 22.1256 29.1397C22.1424 29.0501 22.1509 28.8653 22.0865 28.9213Z" fill="#683615"/>
</g>
<g style="mix-blend-mode:screen" opacity="0.59">
<path d="M16.842 18.5472C14.2156 19.0176 12.3369 23.2148 12.4965 25.6088C12.4968 25.6284 12.5042 25.6472 12.5173 25.6617C12.5304 25.6762 12.5483 25.6855 12.5677 25.6879C12.5872 25.6903 12.6068 25.6856 12.623 25.6747C12.6392 25.6637 12.651 25.6473 12.6561 25.6284C13.0901 24.3376 13.3952 23.0216 14.0084 21.7924C14.6598 20.4914 15.643 19.3855 16.8588 18.5864C16.8624 18.5833 16.8649 18.5791 16.866 18.5745C16.867 18.5699 16.8666 18.5651 16.8647 18.5607C16.8629 18.5563 16.8597 18.5527 16.8556 18.5503C16.8515 18.5478 16.8468 18.5468 16.842 18.5472Z" fill="#CC8F71"/>
</g>
<g style="mix-blend-mode:screen" opacity="0.59">
<path d="M20.6641 25.5752C20.0677 25.4856 19.5217 25.424 18.9841 25.0964C18.4017 24.7384 17.9705 24.1797 17.7717 23.5256C17.7717 23.5256 17.7465 23.5256 17.7465 23.5256C17.8137 24.7408 19.4573 25.9952 20.6529 25.634C20.6921 25.6312 20.6977 25.5808 20.6641 25.5752Z" fill="#CC8F71"/>
</g>
<g style="mix-blend-mode:screen" opacity="0.59">
<path d="M21.4508 29.9852C20.7228 31.1836 19.1436 31.2256 17.8976 30.9904C17.8528 30.9904 17.8164 31.0492 17.864 31.0688C18.8804 31.5 21.224 31.3992 21.4788 29.9964C21.4816 29.9796 21.4592 29.96 21.4508 29.9852Z" fill="#CC8F71"/>
</g>
<g style="mix-blend-mode:screen" opacity="0.59">
<path d="M20.2048 27.5324C19.1464 27.3756 18.0068 27.5604 17.318 26.5244C17.318 26.5244 17.29 26.5244 17.2984 26.5244C17.9872 27.5072 19.0344 27.762 20.2048 27.594C20.2095 27.5903 20.2133 27.5857 20.2159 27.5803C20.2184 27.575 20.2198 27.5691 20.2198 27.5632C20.2198 27.5573 20.2184 27.5514 20.2159 27.5461C20.2133 27.5408 20.2095 27.5361 20.2048 27.5324Z" fill="#CC8F71"/>
</g>
<g style="mix-blend-mode:screen" opacity="0.59">
<path d="M18.6033 25.6985C18.0433 25.1217 17.3797 24.6989 16.9681 23.9905C17.2789 24.7269 17.9313 25.3009 18.5725 25.7517C18.5949 25.7769 18.6313 25.7265 18.6033 25.6985Z" fill="#CC8F71"/>
</g>
<g style="mix-blend-mode:screen" opacity="0.43">
<path d="M24.4244 11.0293C24.682 11.1945 25.5024 11.5529 25.6424 11.7377C25.9224 12.1045 25.7684 13.1153 25.8104 13.5857C25.984 15.5457 26.0288 17.5449 26.124 19.5161C26.2724 22.5681 26.7344 25.7405 26.5804 28.8149C26.5104 30.1785 26.74 31.5169 26.7344 32.8749C26.7344 34.4429 26.656 36.0137 26.656 37.5873C26.656 39.0321 26.7428 40.5021 26.5104 41.9189C26.4404 42.3277 26.2304 43.9461 25.6704 44.0749C24.7604 44.2793 25.4688 37.0917 25.508 36.4561C25.676 33.6561 25.7012 30.7637 25.592 27.9581C25.4828 25.2169 25.5584 23.2345 25.4212 20.4765C25.2868 18.0069 24.57 11.4381 24.4244 11.0293Z" fill="#92CEFF"/>
</g>
<g style="mix-blend-mode:screen" opacity="0.43">
<path d="M28.042 22.3384C27.3196 22.4112 26.9892 24.3768 27.6388 24.6344C28.0664 24.0061 28.2642 23.2495 28.1988 22.4924L28.042 22.3384Z" fill="#92CEFF"/>
</g>
<g style="mix-blend-mode:screen" opacity="0.43">
<path d="M24.7324 26.1855C24.3964 26.5719 23.8616 26.824 23.8924 27.4036C24.4748 27.4708 24.5952 26.8436 24.8052 26.4935L24.7324 26.1855Z" fill="#92CEFF"/>
</g>
<g style="mix-blend-mode:screen" opacity="0.43">
<path d="M31.503 25.1076C31.0046 24.7128 30.3606 24.0576 29.7166 23.9736C28.4426 23.8028 29.5458 24.612 30.0218 24.8948C30.5818 25.228 31.0774 25.6844 31.1978 26.3368C31.335 27.076 31.0802 28.1064 31.895 28.5404C31.7634 27.7452 31.3658 27.1012 31.4218 26.3004C31.615 26.5356 31.7018 26.4908 31.9566 26.5804C31.3406 25.354 31.923 25.7824 32.7434 25.2056C32.4802 24.8416 31.9594 24.92 31.503 25.1076Z" fill="#92CEFF"/>
</g>
<g style="mix-blend-mode:screen" opacity="0.77">
<path d="M26.7877 11.2617C26.0737 11.6201 24.1333 11.4941 24.4721 10.3013H24.4553C23.6657 11.4409 26.2389 12.1801 26.8493 11.3289C26.8801 11.2813 26.8241 11.2421 26.7877 11.2617Z" fill="#92CEFF"/>
</g>
<g style="mix-blend-mode:screen" opacity="0.77">
<path d="M27.8069 10.0802C27.6025 9.57896 26.9669 9.53976 26.5021 9.48096C26.8241 9.62936 27.2021 9.64056 27.4877 9.86456C27.583 9.93219 27.6548 10.0279 27.6929 10.1384C27.7311 10.2489 27.7337 10.3685 27.7005 10.4806C27.6389 10.6822 27.4765 10.783 27.3337 10.9174C27.3298 10.9213 27.3272 10.9262 27.3262 10.9316C27.3251 10.937 27.3257 10.9426 27.3278 10.9476C27.3299 10.9527 27.3334 10.957 27.3379 10.9601C27.3425 10.9632 27.3478 10.9649 27.3533 10.965C27.7593 10.9538 27.9441 10.4246 27.8069 10.0802Z" fill="#92CEFF"/>
</g>
<g style="mix-blend-mode:screen" opacity="0.77">
<path d="M28.1205 22.2238C27.3729 22.1902 26.8297 24.3602 27.5157 24.6626C27.526 24.6674 27.5374 24.6693 27.5487 24.6681C27.56 24.6669 27.5707 24.6625 27.5797 24.6556C27.5887 24.6486 27.5956 24.6393 27.5996 24.6287C27.6036 24.6181 27.6046 24.6065 27.6025 24.5954C27.4952 24.1796 27.4686 23.7472 27.5241 23.3214C27.5839 22.8955 27.7957 22.5056 28.1205 22.2238Z" fill="#92CEFF"/>
</g>
<g style="mix-blend-mode:screen" opacity="0.77">
<path d="M24.6624 26.0989H24.6484C24.5448 26.2333 24.5952 26.4797 24.542 26.6589C24.4397 26.8868 24.3237 27.1084 24.1948 27.3225C24.1896 27.3311 24.1874 27.3412 24.1885 27.3511C24.1897 27.3611 24.1942 27.3704 24.2014 27.3775C24.2085 27.3847 24.2178 27.3892 24.2278 27.3904C24.2377 27.3915 24.2478 27.3893 24.2564 27.3841C24.3779 27.3107 24.4828 27.2128 24.5643 27.0966C24.6458 26.9804 24.7021 26.8485 24.7296 26.7093C24.7716 26.5385 24.8276 26.2081 24.6624 26.0989Z" fill="#92CEFF"/>
</g>
<g style="mix-blend-mode:screen" opacity="0.77">
<path d="M23.5593 26.155C23.3648 26.1045 23.1626 26.0903 22.9629 26.113C22.6938 26.1226 22.4279 26.0524 22.1985 25.9114C22.2756 26.0001 22.37 26.0722 22.4759 26.1232C22.5818 26.1742 22.697 26.2032 22.8145 26.2082C23.0614 26.2726 23.3208 26.2726 23.5677 26.2082C23.5709 26.2042 23.5732 26.1996 23.5745 26.1947C23.5758 26.1898 23.576 26.1847 23.5753 26.1797C23.5745 26.1747 23.5726 26.1699 23.5699 26.1657C23.5671 26.1614 23.5635 26.1578 23.5593 26.155Z" fill="#92CEFF"/>
</g>
<g style="mix-blend-mode:screen" opacity="0.77">
<path d="M23.5201 27.3982C23.3329 27.3651 23.1403 27.3796 22.9601 27.4402C22.737 27.4933 22.5173 27.5597 22.3021 27.639C22.3021 27.639 22.3021 27.639 22.3021 27.639C22.4908 27.6204 22.6779 27.5885 22.8621 27.5438C23.0841 27.5289 23.3043 27.4942 23.5201 27.4402C23.5257 27.4402 23.531 27.438 23.535 27.434C23.5389 27.4301 23.5411 27.4247 23.5411 27.4192C23.5411 27.4136 23.5389 27.4083 23.535 27.4043C23.531 27.4004 23.5257 27.3982 23.5201 27.3982Z" fill="#92CEFF"/>
</g>
<g style="mix-blend-mode:screen" opacity="0.77">
<path d="M23.6069 28.1735C23.4097 28.3583 23.2228 28.5536 23.0469 28.7587C22.8621 28.9491 22.6717 29.1311 22.5065 29.3384C22.7193 29.1591 22.9209 28.9687 23.1197 28.7783C23.3207 28.6112 23.4945 28.4138 23.6349 28.1931C23.6362 28.1913 23.6371 28.1892 23.6376 28.187C23.638 28.1849 23.6381 28.1826 23.6377 28.1804C23.6373 28.1782 23.6365 28.1761 23.6353 28.1742C23.6341 28.1723 23.6325 28.1706 23.6307 28.1694C23.6288 28.1681 23.6268 28.1671 23.6246 28.1667C23.6224 28.1662 23.6201 28.1661 23.6179 28.1665C23.6157 28.1669 23.6136 28.1677 23.6117 28.1689C23.6098 28.1701 23.6082 28.1717 23.6069 28.1735Z" fill="#92CEFF"/>
</g>
<g style="mix-blend-mode:screen" opacity="0.77">
<path d="M33.2053 25.158C33.1422 25.0941 33.0659 25.045 32.9817 25.014C32.8975 24.983 32.8075 24.971 32.7181 24.9788C32.4883 24.9581 32.2567 24.9799 32.0349 25.0432C32.0293 25.045 32.0244 25.0486 32.0209 25.0534C32.0175 25.0581 32.0156 25.0639 32.0156 25.0698C32.0156 25.0757 32.0175 25.0814 32.0209 25.0862C32.0244 25.091 32.0293 25.0945 32.0349 25.0964C32.2305 25.1446 32.4301 25.1746 32.6313 25.186C32.8055 25.2426 32.99 25.2598 33.1717 25.2364C33.1794 25.234 33.1866 25.2299 33.1926 25.2245C33.1986 25.2191 33.2034 25.2124 33.2066 25.2049C33.2098 25.1975 33.2113 25.1894 33.2111 25.1813C33.2109 25.1732 33.2089 25.1652 33.2053 25.158Z" fill="#92CEFF"/>
</g>
<g style="mix-blend-mode:screen" opacity="0.77">
<path d="M29.2125 24.1166C29.2062 24.1136 29.1992 24.1126 29.1923 24.1138C29.1855 24.1149 29.1792 24.1182 29.1743 24.1231C29.1694 24.128 29.1661 24.1343 29.1649 24.1412C29.1637 24.148 29.1647 24.1551 29.1677 24.1614C29.3777 24.601 29.8201 24.867 30.1757 25.1834C30.4809 25.4634 30.6741 25.8246 30.9765 26.099C30.9883 26.1102 31.0028 26.1182 31.0186 26.1222C31.0344 26.1262 31.0509 26.1261 31.0667 26.1219C31.0824 26.1176 31.0968 26.1095 31.1085 26.0981C31.1201 26.0867 31.1287 26.0726 31.1333 26.057C31.3601 24.9202 29.9601 24.5086 29.2125 24.1166Z" fill="#92CEFF"/>
</g>
<g style="mix-blend-mode:screen" opacity="0.77">
<path d="M25.9925 25.6396C25.8637 23.2428 25.7302 20.8469 25.5921 18.452C25.5249 17.2928 25.4017 16.1336 25.3121 14.9772C25.2253 13.9076 24.8109 12.6952 24.8557 11.6452C24.8557 11.5948 24.7801 11.5836 24.7717 11.6312C24.6093 12.5048 24.9089 13.4876 24.9677 14.378C25.0405 15.5204 25.1152 16.6618 25.1917 17.8024C25.3569 20.3364 25.4353 22.8816 25.5921 25.4184C25.7587 27.9239 25.7755 30.4372 25.6425 32.9448C25.4941 35.5432 25.0489 38.1808 25.2953 40.7848C25.2937 40.7906 25.2935 40.7967 25.2946 40.8026C25.2958 40.8086 25.2983 40.8141 25.3019 40.8189C25.3056 40.8237 25.3103 40.8276 25.3157 40.8303C25.3211 40.833 25.3271 40.8344 25.3331 40.8344C25.3391 40.8344 25.3451 40.833 25.3505 40.8303C25.3559 40.8276 25.3606 40.8237 25.3643 40.8189C25.3679 40.8141 25.3704 40.8086 25.3716 40.8026C25.3727 40.7967 25.3725 40.7906 25.3709 40.7848C25.9001 35.7756 26.2697 30.6712 25.9925 25.6396Z" fill="#92CEFF"/>
</g>
<g style="mix-blend-mode:multiply" opacity="0.34">
<path d="M25.3037 9.94009C25.0573 10.0773 24.6345 10.3237 24.5477 10.6205C24.4609 10.9173 24.6821 11.0013 24.9257 10.9873C24.9565 10.9873 24.9761 10.9369 24.9425 10.9229C24.5477 10.7353 24.8053 10.5169 25.0657 10.3237C25.2357 10.1919 25.4245 10.0862 25.6257 10.0101C25.9032 9.92575 26.1925 9.88698 26.4825 9.89529C26.8213 9.89529 27.0425 10.0745 27.3449 10.1221C27.3505 10.1239 27.3564 10.1243 27.3623 10.1233C27.3681 10.1224 27.3735 10.12 27.3782 10.1164C27.3829 10.1128 27.3867 10.1081 27.3891 10.1028C27.3916 10.0974 27.3928 10.0916 27.3925 10.0857C27.3869 9.36049 25.6677 9.73849 25.3037 9.94009Z" fill="#004056"/>
</g>
<g style="mix-blend-mode:multiply" opacity="0.34">
<path d="M27.3981 10.7605C26.7821 11.0769 26.1521 11.5165 25.4381 11.1805C25.9729 11.6537 26.9865 11.2281 27.4149 10.7857C27.4401 10.7773 27.4177 10.7521 27.3981 10.7605Z" fill="#004056"/>
</g>
<g style="mix-blend-mode:multiply" opacity="0.34">
<path d="M27.9048 10.64C27.5758 11.0719 27.1147 11.3846 26.5916 11.5304C26.1042 11.6529 25.5989 11.688 25.0992 11.634C25.0992 11.634 25.0992 11.634 25.0992 11.648C25.8888 11.928 27.7648 11.704 27.958 10.668C27.9599 10.6613 27.9593 10.6541 27.9565 10.6477C27.9537 10.6412 27.9489 10.636 27.9427 10.6327C27.9365 10.6294 27.9293 10.6284 27.9225 10.6297C27.9156 10.631 27.9094 10.6347 27.9048 10.64Z" fill="#004056"/>
</g>
<g style="mix-blend-mode:multiply" opacity="0.34">
<path d="M28.1877 42.966C28.1877 42.9352 28.1205 42.9352 28.1233 42.966C28.2689 44.646 26.4433 44.7356 25.2757 44.2848C25.2757 44.2848 25.2561 44.2848 25.2757 44.3016C26.2305 45.2284 28.7785 44.5648 28.1877 42.966Z" fill="#004056"/>
</g>
<g style="mix-blend-mode:multiply" opacity="0.34">
<path d="M28.1149 38.7662C28.0281 37.4754 28.0337 36.1734 27.9721 34.8798C27.9105 33.5862 27.8713 32.2506 27.7089 30.9374C27.5465 29.6242 27.3897 28.3222 27.5325 26.9922C27.5325 26.9922 27.5129 26.9922 27.5101 26.9922C27.2441 28.0982 27.3141 29.2098 27.4261 30.3354C27.5521 31.6374 27.5997 32.917 27.6389 34.2218C27.6781 35.5266 27.7173 36.8678 27.7621 38.1922C27.8013 39.3122 28.1205 40.4546 27.9189 41.5746C27.9158 41.5911 27.919 41.6081 27.9279 41.6223C27.9367 41.6366 27.9505 41.647 27.9667 41.6516C27.9828 41.6561 28.0001 41.6545 28.0151 41.647C28.03 41.6395 28.0417 41.6266 28.0477 41.611C28.3585 40.6842 28.1821 39.7182 28.1149 38.7662Z" fill="#004056"/>
</g>
<g style="mix-blend-mode:multiply" opacity="0.34">
<path d="M31.8249 24.839C31.2341 23.6742 29.7361 23.411 28.8513 22.5486C29.0725 23.047 29.5541 23.327 29.9937 23.6126C30.6069 24.013 31.1501 24.5142 31.7745 24.8866C31.7813 24.8889 31.7885 24.8893 31.7955 24.8878C31.8024 24.8863 31.8089 24.8829 31.8141 24.878C31.8192 24.8731 31.823 24.8669 31.8249 24.86C31.8268 24.8531 31.8268 24.8459 31.8249 24.839Z" fill="#004056"/>
</g>
<g style="mix-blend-mode:multiply" opacity="0.34">
<path d="M27.7564 16.7636C27.5912 15.1088 27.3364 13.4848 27.3812 11.816C27.3812 11.8078 27.378 11.8 27.3722 11.7942C27.3664 11.7884 27.3586 11.7852 27.3504 11.7852C27.3423 11.7852 27.3344 11.7884 27.3287 11.7942C27.3229 11.8 27.3196 11.8078 27.3196 11.816C26.9304 13.3056 27.0396 14.8204 27.1796 16.338C27.3196 17.8556 27.2776 19.4516 27.4344 21C27.4344 21.028 27.4876 21.042 27.4932 21C27.72 19.5188 27.9048 18.2756 27.7564 16.7636Z" fill="#004056"/>
</g>
<g style="mix-blend-mode:screen" opacity="0.43">
<g style="mix-blend-mode:screen" opacity="0.43">
<path d="M29.7137 26.4152C29.1985 28.0224 29.6409 30.2876 29.7137 31.9396C29.8061 33.8996 29.7417 35.8736 29.6521 37.8392C29.6129 38.6932 29.5009 39.5388 29.4169 40.3788C29.3329 41.2188 29.3469 41.4988 30.1701 41.3588C30.9933 41.2188 31.2901 41.4316 31.2901 40.4964C31.2901 38.8948 31.1081 37.2764 31.0437 35.6636C30.9485 33.3424 30.7637 31.052 30.7637 28.7224C30.7961 28.1248 30.7821 27.5257 30.7217 26.9304C30.6601 26.6168 30.2009 25.76 29.7137 26.4152Z" fill="#FF9797"/>
</g>
</g>
<g style="mix-blend-mode:screen" opacity="0.43">
<g style="mix-blend-mode:screen" opacity="0.43">
<path d="M29.2544 9.1616C28.2884 10.1024 29.078 12.6392 29.1368 13.846C29.2432 16.0384 29.3749 18.1944 29.3693 20.4148C29.3693 20.9188 29.4476 22.3496 30.0524 22.4224C30.3324 21.2576 30.1756 19.8576 30.1756 18.6396V13.384C30.1756 12.264 30.2736 11.088 30.1756 9.968C30.1588 9.7524 30.1588 9.3632 30.0188 9.2064C29.6576 8.7976 29.5624 9.1168 29.2544 9.1616Z" fill="#FF9797"/>
</g>
</g>
<g style="mix-blend-mode:multiply" opacity="0.36">
<g style="mix-blend-mode:multiply" opacity="0.36">
<path d="M30.464 9.04688C30.464 12.9025 30.6964 16.6937 30.6964 20.5773C30.6964 21.2661 30.5704 22.1425 30.7804 22.7809C30.9428 23.2709 31.4664 24.3237 31.7212 23.4585C32.0824 22.2293 31.7744 20.4933 31.6736 19.2585C31.5644 17.9033 31.5028 16.5173 31.5028 15.1509C31.5028 13.7845 31.4468 12.3677 31.4468 10.9649C31.4468 10.2929 31.4468 9.28207 30.464 9.04688Z" fill="#A12252"/>
</g>
</g>
<g style="mix-blend-mode:multiply" opacity="0.36">
<g style="mix-blend-mode:multiply" opacity="0.36">
<path d="M31.0996 28.8961C30.8336 29.8369 31.0856 31.0577 31.1584 32.0125C31.2228 32.8833 31.3516 33.7541 31.3908 34.6165C31.458 36.0753 31.4496 37.5033 31.5028 38.9649C31.5252 39.4997 31.3936 40.1997 31.4748 40.6953C31.5224 40.9753 31.9704 41.6445 32.368 41.3477C32.7656 41.0509 32.4492 39.3653 32.4296 38.9173C32.3736 37.6657 32.2616 36.3973 32.1496 35.1401C32.088 34.6221 32.0292 28.2801 31.0996 28.8961Z" fill="#A12252"/>
</g>
</g>
<g style="mix-blend-mode:multiply" opacity="0.36">
<g style="mix-blend-mode:multiply" opacity="0.36">
<path d="M29.0808 26.6448C28.9772 27.0424 28.5572 27.0004 28.3444 27.2944C28.1316 27.5884 28.2212 28.1344 28.2772 28.5152C28.3556 29.0304 28.1372 30.4276 29.0696 30.3296C29.4476 29.2684 29.1424 27.7452 29.0808 26.6448Z" fill="#A12252"/>
</g>
</g>
<g style="mix-blend-mode:screen" opacity="0.77">
<path d="M32.7236 42C32.4436 42.9856 30.9232 43.0976 30.0804 42.91C30.0784 42.9091 30.0762 42.9086 30.074 42.9085C30.0718 42.9084 30.0696 42.9088 30.0675 42.9096C30.0654 42.9103 30.0635 42.9115 30.0619 42.913C30.0603 42.9146 30.059 42.9164 30.058 42.9184C30.0571 42.9204 30.0566 42.9226 30.0565 42.9248C30.0565 42.927 30.0568 42.9293 30.0576 42.9313C30.0584 42.9334 30.0596 42.9353 30.0611 42.937C30.0626 42.9386 30.0644 42.9399 30.0664 42.9408C30.4864 43.2208 31.276 43.0472 31.7464 42.9408C32.2168 42.8344 32.7796 42.532 32.7236 42Z" fill="#FF94AB"/>
</g>
<g style="mix-blend-mode:screen" opacity="0.77">
<path d="M31.8026 41.468C30.9626 41.272 29.8426 41.4008 29.1566 41.9216C29.1426 41.9216 29.1566 41.9608 29.1706 41.9552C29.5617 41.8117 29.9633 41.6985 30.3718 41.6164C30.845 41.5408 31.3153 41.5772 31.7913 41.5408C31.801 41.5423 31.8108 41.5399 31.8187 41.5341C31.8266 41.5284 31.8319 41.5197 31.8334 41.51C31.8348 41.5004 31.8324 41.4905 31.8267 41.4827C31.8209 41.4748 31.8122 41.4695 31.8026 41.468Z" fill="#FF94AB"/>
</g>
<g style="mix-blend-mode:screen" opacity="0.77">
<path d="M29.5317 18.7602C29.5737 17.7662 29.6213 16.7722 29.6157 15.7782C29.5989 13.6474 28.7253 11.3318 29.3357 9.27938C29.3361 9.27466 29.3351 9.26992 29.3327 9.26584C29.3302 9.26176 29.3266 9.25856 29.3222 9.25669C29.3179 9.25482 29.313 9.25439 29.3084 9.25545C29.3038 9.25651 29.2996 9.259 29.2965 9.26258C28.8485 10.027 28.8037 10.8082 28.9101 11.679C29.0725 12.9866 29.3133 14.2382 29.3301 15.5654C29.3581 17.5534 28.7701 19.9418 29.6269 21.8122C29.6299 21.821 29.6362 21.8283 29.6444 21.8327C29.6526 21.837 29.6622 21.838 29.6712 21.8355C29.6802 21.833 29.6878 21.8272 29.6926 21.8192C29.6974 21.8112 29.6989 21.8017 29.6969 21.7926C29.6801 20.779 29.4869 19.7962 29.5317 18.7602Z" fill="#FF94AB"/>
</g>
<g style="mix-blend-mode:screen" opacity="0.77">
<path d="M29.8957 32.9532C29.8705 31.7296 29.6969 30.5312 29.5989 29.3132C29.5233 28.3444 29.3525 27.2104 29.7837 26.306C29.7837 26.306 29.7837 26.278 29.7641 26.292C29.3637 26.7876 29.3497 27.4764 29.3441 28.0924C29.3441 29.2936 29.5037 30.4892 29.5653 31.6876C29.6353 33.1044 29.5933 34.5212 29.5653 35.938C29.5429 37.4444 29.3077 39.0628 29.4953 40.5524C29.4953 40.5888 29.5625 40.6084 29.5709 40.5524C30.0049 38.08 29.9601 35.4648 29.8957 32.9532Z" fill="#FF94AB"/>
</g>
<g style="mix-blend-mode:screen" opacity="0.77">
<path d="M32.5725 24.192C32.3884 24.0173 32.2241 23.8229 32.0825 23.6124C32.0461 23.5424 31.9313 23.59 31.9565 23.6628C32.002 23.8002 32.0764 23.9262 32.1748 24.0324C32.2679 24.1432 32.3916 24.2241 32.5304 24.2648C32.5395 24.2663 32.5488 24.2651 32.557 24.2612C32.5653 24.2573 32.5722 24.2509 32.5768 24.243C32.5814 24.2351 32.5834 24.2259 32.5826 24.2168C32.5819 24.2077 32.5783 24.199 32.5725 24.192Z" fill="#FF94AB"/>
</g>
<g style="mix-blend-mode:screen" opacity="0.77">
<path d="M33.2389 34.3196C33.0765 36.5456 34.0089 38.7296 34.0957 40.9556H34.1209C34.3085 38.738 33.3929 36.5288 33.2389 34.3196Z" fill="#FF94AB"/>
</g>
<g style="mix-blend-mode:screen" opacity="0.77">
<path d="M24.1892 35.2436C24.1892 35.2296 24.164 35.2212 24.1612 35.2436C23.9863 36.0232 23.9418 36.8265 24.0296 37.6208C24.0296 37.6289 24.0329 37.6368 24.0386 37.6426C24.0444 37.6483 24.0522 37.6516 24.0604 37.6516C24.0686 37.6516 24.0764 37.6483 24.0822 37.6426C24.088 37.6368 24.0912 37.6289 24.0912 37.6208C24.2345 36.8368 24.2675 36.0367 24.1892 35.2436Z" fill="#FF94AB"/>
</g>
<g style="mix-blend-mode:multiply" opacity="0.36">
<path d="M31.388 41.6026C30.744 41.5634 29.4532 41.639 29.148 42.3557C29.1404 42.3704 29.1385 42.3874 29.1426 42.4034C29.1468 42.4194 29.1567 42.4334 29.1704 42.4425C29.2768 42.4957 29.2516 42.4958 29.3692 42.4846C29.3944 42.4846 29.4112 42.4454 29.3832 42.4314C29.0836 42.2746 29.8844 41.975 30.0048 41.9386C30.321 41.8538 30.6463 41.8077 30.9736 41.8014C31.4608 41.7874 32.3316 41.765 32.3736 42.3978C32.3736 42.4342 32.4212 42.4622 32.4492 42.4314C32.9672 41.8602 31.6932 41.6194 31.388 41.6026Z" fill="#A12252"/>
</g>
<g style="mix-blend-mode:multiply" opacity="0.36">
<path d="M32.2 38.5309C32.1412 37.4333 32.1524 36.3357 32.074 35.2381C31.9655 33.2862 31.7486 31.3419 31.4244 29.4141C31.4244 29.4141 31.4244 29.4141 31.4244 29.4141C31.402 31.4245 31.6764 33.4433 31.7884 35.4509C31.892 37.3465 31.9508 39.1665 32.2084 41.0509C32.2084 41.1153 32.3232 41.1125 32.3372 41.0509C32.5192 40.1941 32.2504 39.3961 32.2 38.5309Z" fill="#A12252"/>
</g>
<g style="mix-blend-mode:multiply" opacity="0.36">
<path d="M31.6821 19.8802C31.5869 18.721 31.5673 17.559 31.5225 16.397C31.4385 14.087 31.1865 11.7882 31.0661 9.47818C31.0661 9.44738 31.0185 9.44738 31.0157 9.47818C30.8813 11.777 31.2117 14.0982 31.2649 16.397C31.3181 18.553 31.2845 20.8322 31.6989 22.9518C31.7018 22.9591 31.7068 22.9653 31.7133 22.9697C31.7198 22.9741 31.7274 22.9764 31.7353 22.9764C31.7431 22.9764 31.7508 22.9741 31.7573 22.9697C31.7637 22.9653 31.7688 22.9591 31.7717 22.9518C31.9425 21.941 31.7661 20.9162 31.6821 19.8802Z" fill="#A12252"/>
</g>
<g style="mix-blend-mode:multiply" opacity="0.36">
<path d="M28.9969 26.8801C28.9969 26.8437 28.9521 26.8157 28.9353 26.8549C28.766 27.3016 28.7272 27.7871 28.8233 28.2549C28.8569 28.5349 28.9017 28.8149 28.9213 29.0949C28.9409 29.3749 29.0333 30.1533 28.6413 29.7053C28.6189 29.6801 28.5825 29.7053 28.5797 29.7305C28.5461 30.0105 28.6721 30.1365 28.9325 30.1897C28.9643 30.197 28.9978 30.1921 29.0262 30.176C29.0547 30.16 29.0762 30.1339 29.0865 30.1029C29.3833 29.0473 28.7785 27.9777 28.9969 26.8801Z" fill="#A12252"/>
</g>
</g>
<defs>
<linearGradient id="paint0_linear_12164_2042" x1="22422" y1="17086" x2="16967.1" y2="11202.4" gradientUnits="userSpaceOnUse">
<stop stop-color="white"/>
<stop offset="0.39" stop-color="#3D4C96"/>
<stop offset="0.86" stop-color="#2A4F90"/>
</linearGradient>
<clipPath id="clip0_12164_2042">
<rect width="56" height="56" rx="28" fill="white"/>
</clipPath>
</defs>
</svg>
