<svg width="56" height="56" viewBox="0 0 56 56" fill="none" xmlns="http://www.w3.org/2000/svg">
<rect width="56" height="56" rx="28" fill="#54D1FF"/>
<path d="M55.958 0H0V55.958H55.958V0Z" fill="#348DD1"/>
<g style="mix-blend-mode:multiply" opacity="0.26">
<path style="mix-blend-mode:multiply" opacity="0.26" d="M55.9972 39.3973V56H23.8269L13.0746 42.2092L23.3205 15.9117L27.6656 21.1606L28.5722 7.31934L55.9972 39.3973Z" fill="url(#paint0_linear_12164_86)"/>
</g>
<path d="M20.3827 16.6419C17.249 18.6004 14.5519 22.5902 13.6677 25.9925C13.4047 27.0053 13.609 28.1077 13.3879 29.1709C13.2061 30.0299 12.6101 31.0791 12.2408 31.8877C11.3427 33.8462 11.0853 35.7628 10.965 37.9899C10.8866 39.4112 12.459 42.9869 14.6022 42.4497C15.4976 42.2259 15.769 41.2159 16.7706 40.8549C18.0073 40.4073 19.2384 40.3261 20.5702 40.0156C22.2489 39.6183 25.2734 39.2573 26.2555 37.5534C26.8151 36.6049 26.3478 35.5613 26.3198 34.4757C26.2863 33.2111 26.5325 31.8737 26.1911 30.7153C25.7603 29.2632 24.7922 28.3763 24.9013 26.7535C24.9908 25.4077 25.6428 24.2158 26.0205 22.9232C26.5409 21.1689 26.2415 20.3743 24.9601 19.0313C24.2746 18.315 23.8633 17.8954 23.5387 16.9693C23.2869 16.2446 23.6227 15.741 22.6714 15.4836C21.6446 15.2038 20.5114 16.5076 20.3827 16.6419Z" fill="#EA7A88"/>
<path d="M30.665 15.906C29.2912 16.6755 28.7065 19.1068 28.8576 20.4834C28.9443 21.3228 29.336 22.1454 29.3752 23.0015C29.4227 24.0088 29.1877 24.9796 29.2465 26.0121C29.3724 28.1413 29.5263 30.1054 30.4048 32.0359C31.2274 33.8238 29.8228 35.0017 31.5463 36.3923C33.0292 37.5898 34.6548 40.2142 36.5546 40.4716C40.0632 40.9445 43.2472 42.9506 43.9131 40.7066C44.6405 38.2529 44.0865 35.7012 43.8263 33.8042C43.4318 30.9196 43.4066 28.4882 42.5057 25.6231C41.4845 22.3832 38.8908 21.2416 36.6525 18.7683C35.7096 17.7331 31.9185 13.8943 30.665 15.906Z" fill="#EA7A88"/>
<path opacity="0.25" d="M23.5444 16.9664C23.2954 16.2502 23.6171 15.7521 22.705 15.4919C22.4867 15.846 22.3715 16.2539 22.3721 16.6699C22.4224 17.6183 22.9988 18.1947 23.7151 18.7459C24.2075 19.1236 25.184 19.9434 25.7827 20.0945H25.8331C25.5781 19.7069 25.2847 19.346 24.9573 19.0173C24.2802 18.3122 23.869 17.9065 23.5444 16.9664Z" fill="#661C2A"/>
<g style="mix-blend-mode:screen" opacity="0.24">
<path d="M30.665 15.9061C29.2912 16.6755 28.7065 19.1068 28.8576 20.4834C28.9443 21.3228 29.336 22.1454 29.3752 23.0015C29.4227 24.0088 29.1877 24.9796 29.2465 26.0121C29.3584 27.8727 29.4843 29.6046 30.1026 31.2973C30.0215 30.5279 29.8228 29.7165 29.8228 29.3388C29.7609 28.4519 29.8431 27.5609 30.0662 26.7004C30.2817 26.0009 30.8077 25.5308 30.9252 24.8202C31.205 23.0883 30.8609 21.4795 31.3841 19.7644C31.6499 18.8914 32.6487 16.4768 32.0807 15.3549C31.8172 15.2731 31.5337 15.2831 31.2766 15.3832C31.0195 15.4833 30.8039 15.6676 30.665 15.9061Z" fill="#FBD4DB"/>
</g>
<g style="mix-blend-mode:screen" opacity="0.38">
<path d="M20.7969 16.6279C19.8904 17.7023 19.0482 18.8411 18.1445 19.9211C17.2799 20.9563 16.3482 21.5718 15.59 22.7861C13.7126 25.7939 15.2934 29.0982 13.6119 32.0752C12.8005 33.5077 10.8923 36.7448 12.1178 38.3424C11.9051 36.9071 11.8632 36.2608 13.707 33.9861C14.7615 32.7515 15.6271 31.3674 16.2755 29.8788C16.8742 28.4127 16.7119 26.7675 17.0337 25.2371C17.4646 23.175 18.7124 22.6182 19.4735 20.9143C20.0414 19.6581 20.2709 17.8003 20.7969 16.6279Z" fill="#FBD4DB"/>
</g>
<path opacity="0.25" d="M43.1212 39.9932C41.2494 37.282 37.5814 39.179 35.6425 37.1505C35.6033 36.4818 35.8719 35.6816 36.3419 34.8674C35.8104 35.1572 35.2471 35.3844 34.6632 35.5445C34.2799 34.7695 33.8994 34.0364 32.9844 33.5272C32.2752 33.1555 31.4822 32.9724 30.6818 32.9956C30.8189 34.2826 30.1614 35.2703 31.5575 36.3979C33.0404 37.5954 34.666 40.2198 36.5658 40.4772C39.5315 40.8773 42.2651 42.3714 43.443 41.4705C43.4938 41.2153 43.4915 40.9524 43.4362 40.6983C43.3808 40.4441 43.2736 40.204 43.1212 39.9932Z" fill="#661C2A"/>
<path opacity="0.25" d="M26.3199 34.473C26.2864 33.2084 26.5326 31.871 26.1912 30.7127C25.7604 29.2606 24.7923 28.3736 24.9014 26.7508C24.9846 25.9507 25.1854 25.1673 25.4974 24.4258C24.9742 25.1588 24.616 26.1241 24.2719 26.9047C24.0791 27.3201 23.8506 27.7179 23.5892 28.0938C22.8981 28.5051 21.709 30.5308 20.7913 30.5504C21.7034 30.8638 22.498 29.6635 22.4337 30.3629C22.2014 32.8419 23.7347 33.8183 24.9042 35.539C25.419 36.2945 25.6624 37.3073 25.0833 38.1719C24.5629 38.9469 23.4269 38.8518 22.4365 38.9021C20.5227 39.0001 18.2088 38.6923 16.4769 39.5428C16.3735 39.6138 16.2554 39.6607 16.1315 39.6801C16.0075 39.6995 15.8808 39.6908 15.7607 39.6548C15.2772 39.4406 14.8358 39.1422 14.4568 38.7734C14.7786 39.277 15.5061 39.7499 15.2962 40.2087C15.0864 40.6676 12.3332 42.24 13.8245 42.4471L13.8077 42.4695C14.0671 42.5215 14.3347 42.5148 14.5911 42.4499C15.4865 42.226 15.7579 41.216 16.7595 40.8551C17.9962 40.4074 19.2273 40.3263 20.5591 40.0157C22.2378 39.6184 25.2623 39.2575 26.2444 37.5535C26.8012 36.6023 26.3479 35.5586 26.3199 34.473Z" fill="#661C2A"/>
<g style="mix-blend-mode:multiply" opacity="0.25">
<path d="M42.5057 25.6288C41.4845 22.3832 38.8908 21.2417 36.6525 18.7683C36.0314 18.0857 34.1708 16.1831 32.6179 15.5452C32.8528 15.7214 33.0497 15.9431 33.1971 16.1971C33.8882 17.5457 33.835 19.0789 34.8031 20.4163C35.4858 21.3592 36.5042 22.193 37.3072 23.0743C38.9524 24.879 39.8085 27.6881 40.3513 30.0439C41.1375 33.4489 40.3233 36.2189 37.1841 37.7689C36.2496 38.2306 35.1137 38.2725 35.0381 39.6155C35.0381 39.6743 35.0381 39.7358 35.0381 39.7946C35.4819 40.1433 36.0046 40.3778 36.5602 40.4773C40.0687 40.9501 43.2527 42.9562 43.9186 40.7123C44.6461 38.2585 44.0921 35.7068 43.8319 33.8099C43.4318 30.9252 43.4066 28.4883 42.5057 25.6288Z" fill="#661C2A"/>
</g>
<g style="mix-blend-mode:multiply" opacity="0.25">
<path d="M26.2555 37.5507C26.8151 36.6022 26.3479 35.5586 26.3199 34.473C26.2863 33.2083 26.5325 31.8709 26.1912 30.7126C25.7603 29.2605 24.7922 28.3736 24.9013 26.7508C24.9909 25.405 25.6428 24.2131 26.0205 22.9205C26.5409 21.1662 26.2415 20.3716 24.9601 19.0286C24.2746 18.3123 23.8633 17.8926 23.5388 16.9665C23.287 16.2419 23.6227 15.7382 22.6714 15.4808C22.3497 15.4081 22.0127 15.4486 21.7173 15.5955C21.9971 16.821 22.2517 17.7555 21.8992 19.1321C21.5355 20.5534 21.5495 21.8181 21.6194 23.3289C21.7061 25.2091 22.137 26.6109 21.2781 28.3512C20.5265 29.8518 20.0247 31.465 19.7924 33.1272C19.5126 34.8479 18.8551 36.591 17.389 37.6038C16.5496 38.1634 15.6459 38.3621 14.7645 38.7874C13.8832 39.2126 13.2873 40.1863 12.3416 40.5864C12.1633 40.6565 11.9735 40.6926 11.782 40.6927C12.4367 41.8287 13.4327 42.7576 14.5995 42.4638C15.4948 42.24 15.7662 41.2299 16.7678 40.869C18.0045 40.4213 19.2356 40.3402 20.5674 40.0296C22.2377 39.6155 25.2735 39.2546 26.2555 37.5507Z" fill="#661C2A"/>
</g>
<g style="mix-blend-mode:screen" opacity="0.24">
<path d="M37.1562 32.0136C35.7572 30.3348 35.4326 28.7596 35.5474 26.5185C35.6033 25.377 35.4438 24.9321 34.7668 24.0004C34.0897 23.0687 34.0365 22.4252 33.9274 21.278C33.8434 20.3016 33.8714 18.413 33.0432 17.8198C32.4501 18.62 32.5676 20.7268 32.2906 21.7705C31.9325 23.1135 32.0668 24.2886 31.9157 25.6875C31.6919 27.7552 30.8245 28.7932 32.6236 30.6678C33.2195 31.2889 34.0561 31.5351 34.6296 32.0667C35.0885 32.4892 35.1165 33.018 35.6145 33.2838C35.8383 33.4013 36.1741 33.2083 36.4959 33.351C36.8176 33.4937 37.1086 33.9721 37.4471 34.1903C38.8069 35.0885 38.8237 33.7875 37.1562 32.0136Z" fill="#FBD4DB"/>
</g>
<g style="mix-blend-mode:multiply" opacity="0.25">
<path d="M21.4991 30.1809C20.615 30.567 19.8203 31.1014 18.8831 31.3476C17.9126 31.6441 16.8674 31.5775 15.9425 31.1602C14.5015 30.4327 14.2637 28.6896 13.6342 27.3298C13.6342 27.3047 13.5754 27.3298 13.5838 27.3522C14.1742 28.9023 14.4232 30.7545 16.074 31.4875C17.7247 32.2206 20.3016 31.6442 21.5718 30.276C21.5806 30.2653 21.5855 30.2519 21.5857 30.2381C21.5859 30.2242 21.5814 30.2107 21.573 30.1997C21.5646 30.1887 21.5527 30.1809 21.5393 30.1775C21.5259 30.1741 21.5117 30.1753 21.4991 30.1809V30.1809Z" fill="#661C2A"/>
</g>
<g style="mix-blend-mode:multiply" opacity="0.25">
<path d="M42.2484 25.5755C42.2455 25.5724 42.2417 25.5704 42.2375 25.5696C42.2334 25.5689 42.2291 25.5695 42.2253 25.5714C42.2216 25.5733 42.2185 25.5763 42.2166 25.5801C42.2147 25.5839 42.2141 25.5882 42.2148 25.5923C42.5254 26.7842 42.0721 27.923 41.5013 28.9498C40.9667 29.9273 40.3085 30.832 39.5428 31.6414C38.0963 33.1606 35.8244 34.5568 35.6257 36.8846C35.6257 36.9238 35.6789 36.9238 35.6817 36.8846C36.009 34.319 38.8685 32.892 40.3234 31.037C41.0366 30.1557 41.6268 29.1815 42.0777 28.1412C42.3939 27.3886 42.738 26.3282 42.2484 25.5755Z" fill="#661C2A"/>
</g>
<g style="mix-blend-mode:multiply" opacity="0.25">
<path d="M25.71 20.8445C25.2959 19.8624 24.3558 19.2497 23.5668 18.6061C23.1276 18.2952 22.7396 17.9176 22.4168 17.487C22.0587 16.9274 22.2378 16.5609 22.5204 16.0377C22.5222 16.0338 22.5228 16.0295 22.522 16.0254C22.5212 16.0212 22.519 16.0174 22.5158 16.0145C22.5127 16.0117 22.5087 16.01 22.5045 16.0096C22.5002 16.0092 22.496 16.0102 22.4924 16.0125C20.5814 17.1596 23.9809 19.619 24.7307 20.2653C25.1644 20.6458 25.5029 20.9956 25.5701 21.6055C25.6102 22.461 25.4838 23.3162 25.1979 24.1236C24.7027 25.738 23.799 27.1425 23.2254 28.7094C23.2254 28.7373 23.259 28.7653 23.2786 28.7401C24.1599 27.5762 24.7699 26.1101 25.2595 24.7308C25.6204 23.6508 26.1884 21.9888 25.71 20.8445Z" fill="#661C2A"/>
</g>
<g style="mix-blend-mode:multiply" opacity="0.25">
<path d="M24.5488 34.4842C23.964 33.7008 23.1722 33.0349 22.898 32.05C22.7161 31.3925 23.0519 30.4804 22.2769 30.1698C22.2041 30.1418 22.1705 30.251 22.2265 30.2901C22.7273 30.6399 22.5427 31.1687 22.5678 31.6891C22.5884 31.997 22.6593 32.2994 22.7777 32.5844C23.0435 33.2531 23.5247 33.7651 23.9668 34.3135C24.8901 35.4607 25.8946 37.1114 24.8929 38.5104C24.8565 38.5579 24.9237 38.6111 24.9684 38.5859C26.5185 37.6906 25.2958 35.4886 24.5488 34.4842Z" fill="#661C2A"/>
</g>
<g style="mix-blend-mode:multiply" opacity="0.25">
<path d="M23.6003 38.8405C22.4812 38.8797 21.3816 39.0084 20.2428 38.9804C19.144 38.9134 18.041 38.9716 16.9553 39.1539C16.0768 39.3358 15.2766 39.582 14.5855 38.8433C13.7853 38.004 13.3236 36.7673 13.1166 35.6313C13.3292 37.3101 14.1322 39.8702 16.1943 39.5792C16.7343 39.5036 17.2575 39.3554 17.8031 39.2994C18.4746 39.2383 19.1493 39.2205 19.8231 39.2462C21.0346 39.2742 22.4951 39.4841 23.6311 38.9497C23.6421 38.943 23.6507 38.9329 23.6554 38.9209C23.6602 38.909 23.6609 38.8958 23.6574 38.8833C23.6539 38.8709 23.6464 38.86 23.6361 38.8523C23.6258 38.8446 23.6132 38.8404 23.6003 38.8405V38.8405Z" fill="#661C2A"/>
</g>
<g style="mix-blend-mode:multiply" opacity="0.25">
<path d="M15.2318 40.1416C15.2289 40.1343 15.2239 40.1281 15.2174 40.1237C15.2109 40.1193 15.2033 40.1169 15.1954 40.1169C15.1876 40.1169 15.18 40.1193 15.1735 40.1237C15.167 40.1281 15.162 40.1343 15.1591 40.1416C15.082 40.3855 14.9363 40.6022 14.7394 40.7655C14.5435 40.9138 14.3169 41.0145 14.1099 41.146C13.9237 41.2405 13.7706 41.3893 13.6707 41.5726C13.5708 41.7559 13.5288 41.9652 13.5503 42.1729C13.5503 42.2372 13.6538 42.2372 13.6482 42.1729C13.6118 41.4902 14.1462 41.2971 14.6359 41.0201C14.9604 40.8327 15.3102 40.5697 15.2318 40.1416Z" fill="#661C2A"/>
</g>
<g style="mix-blend-mode:multiply" opacity="0.25">
<path d="M43.0877 40.3373C42.6596 39.4531 41.8762 38.6837 40.9137 38.5047C40.315 38.3955 39.7078 38.5047 39.1063 38.5047C38.6181 38.5005 38.1316 38.447 37.6542 38.3452C36.535 38.1101 35.4159 37.531 35.8216 36.1544C35.8236 36.1466 35.8227 36.1383 35.819 36.131C35.8154 36.1238 35.8092 36.1181 35.8017 36.115C35.7942 36.112 35.7859 36.1117 35.7782 36.1143C35.7705 36.1169 35.7641 36.1222 35.76 36.1292C34.8731 37.9087 37.089 38.6222 38.3984 38.7705C39.5624 38.902 40.855 38.513 41.8594 39.3076C42.1983 39.5883 42.4828 39.9288 42.6988 40.3121C42.7995 40.4828 43.0094 40.7961 42.9478 41.0088C42.8863 41.2214 42.6177 41.2326 42.4498 41.3697C42.4106 41.4005 42.433 41.4592 42.4638 41.4844C42.5253 41.5226 42.5941 41.5478 42.6658 41.5581C42.7375 41.5685 42.8106 41.564 42.8805 41.5448C42.9504 41.5257 43.0155 41.4922 43.0719 41.4467C43.1283 41.4012 43.1746 41.3445 43.208 41.2802C43.3507 40.978 43.2108 40.6115 43.0877 40.3373Z" fill="#661C2A"/>
</g>
<g style="mix-blend-mode:multiply" opacity="0.25">
<path d="M36.7421 34.5792C36.1014 34.6771 35.6229 35.1724 35.0214 35.371C34.5262 35.5333 34.5234 35.3878 34.3723 34.9989C34.2636 34.7333 34.1176 34.4846 33.9386 34.2603C33.2251 33.3705 32.1116 33.0711 31.0316 33.1635C31.0093 33.1635 30.988 33.1723 30.9722 33.1881C30.9565 33.2038 30.9476 33.2251 30.9476 33.2474C30.9476 33.2697 30.9565 33.291 30.9722 33.3068C30.988 33.3225 31.0093 33.3313 31.0316 33.3313C32.5536 33.4265 33.6784 34.1427 34.1624 35.6648C34.174 35.7038 34.1975 35.7383 34.2296 35.7634C34.2617 35.7884 34.3008 35.8029 34.3415 35.8047C35.2956 35.8495 36.0062 35.1416 36.7813 34.6715C36.8344 34.6408 36.7953 34.5708 36.7421 34.5792Z" fill="#661C2A"/>
</g>
<g style="mix-blend-mode:multiply" opacity="0.25">
<path d="M31.7785 19.1629C32.1646 17.985 32.6179 16.7204 32.0303 15.5257C32.0163 15.4949 31.966 15.5257 31.9772 15.548C32.478 17.0365 31.717 18.3459 31.3057 19.7449C30.9867 20.8249 31.1462 21.8042 31.1294 22.9093C31.1098 24.2104 30.4971 25.2316 30.0914 26.4207C29.75 27.4139 29.8116 28.5639 29.8927 29.5991C29.8951 29.6081 29.9004 29.616 29.9077 29.6216C29.915 29.6273 29.924 29.6303 29.9333 29.6303C29.9426 29.6303 29.9516 29.6273 29.9589 29.6216C29.9662 29.616 29.9715 29.6081 29.9739 29.5991C30.0882 29.0754 30.1426 28.5403 30.1361 28.0043C30.1589 27.3232 30.3118 26.6527 30.5866 26.029C31.0539 24.9518 31.4763 23.8914 31.4512 22.6883C31.4372 22.0923 31.3392 21.5048 31.3784 20.9088C31.4372 20.3122 31.5716 19.7256 31.7785 19.1629V19.1629Z" fill="#661C2A"/>
</g>
<g style="mix-blend-mode:screen" opacity="0.38">
<path d="M22.456 30.0216C20.8836 31.0092 19.3111 31.8318 17.4198 31.7003C15.3353 31.566 14.0455 30.1922 13.7825 28.0938C13.7825 28.0518 13.7209 28.049 13.7209 28.0938C13.6622 30.223 15.0304 31.7563 17.0532 32.0249C18.8635 32.2627 21.3732 31.6779 22.5903 30.1727C22.6351 30.0971 22.5539 29.96 22.456 30.0216Z" fill="#FBD4DB"/>
</g>
<g style="mix-blend-mode:screen" opacity="0.38">
<path d="M14.2693 39.263C14.0753 38.6224 13.8417 37.9945 13.5698 37.3828C13.3475 36.7683 13.1606 36.1414 13.0102 35.5054C12.6828 34.1708 12.6241 32.8334 12.4506 31.4821C12.4506 31.4457 12.3975 31.4597 12.3947 31.4821C12.224 32.8418 12.4534 34.3527 12.778 35.6789C13.0746 36.8736 13.4579 38.3257 14.2189 39.3162C14.2161 39.3414 14.2693 39.3022 14.2693 39.263Z" fill="#FBD4DB"/>
</g>
<g style="mix-blend-mode:screen" opacity="0.38">
<path d="M19.9323 18.0298C19.2049 18.5054 18.6761 19.1713 18.1025 19.8204C17.5289 20.4695 16.9358 20.9787 16.3986 21.6027C15.9019 22.158 15.4985 22.7902 15.2039 23.4745C14.9828 24.0061 14.6695 24.9546 15.05 25.475C15.0525 25.479 15.056 25.4824 15.0601 25.4847C15.0643 25.487 15.069 25.4882 15.0738 25.4882C15.0785 25.4882 15.0832 25.487 15.0874 25.4847C15.0915 25.4824 15.095 25.479 15.0975 25.475C15.1899 25.142 15.1311 24.7895 15.1983 24.4453C15.2778 24.0544 15.4145 23.6773 15.604 23.3262C15.9778 22.6298 16.4488 21.9901 17.0029 21.4264C17.4661 20.9724 17.8997 20.4893 18.3011 19.9799C18.7845 19.2872 19.3366 18.6451 19.9491 18.0633C19.9855 18.0521 19.9575 18.013 19.9323 18.0298Z" fill="#FBD4DB"/>
</g>
<g style="mix-blend-mode:screen" opacity="0.38">
<path d="M32.0136 15.6318C32.0072 15.6302 32.0004 15.6306 31.9941 15.6329C31.9879 15.6353 31.9825 15.6394 31.9786 15.6448C31.9747 15.6502 31.9725 15.6566 31.9722 15.6633C31.972 15.6699 31.9737 15.6765 31.9773 15.6822C32.1512 15.9034 32.2908 16.1496 32.3913 16.4124C32.4631 16.7185 32.4792 17.0351 32.4389 17.3469C32.3749 17.8839 32.2453 18.4111 32.0528 18.9165C31.7891 19.5759 31.5886 20.2589 31.4541 20.9562C31.3953 21.5834 31.3953 22.2148 31.4541 22.842C31.5156 25.1419 29.2997 27.4501 30.43 29.7332C30.2549 28.9931 30.2415 28.2239 30.3908 27.4781C30.5431 26.8605 30.7395 26.2546 30.9784 25.6651C31.2191 25.0721 31.4064 24.4588 31.538 23.8324C31.6611 23.1553 31.566 22.509 31.5688 21.8291C31.5688 20.4302 32.2515 19.2523 32.5284 17.9121C32.6599 17.2658 32.8166 15.92 32.0136 15.6318Z" fill="#FBD4DB"/>
</g>
<g style="mix-blend-mode:screen" opacity="0.38">
<path d="M42.5645 27.1957C42.184 27.9847 42.0357 28.8744 41.6188 29.6466C41.0988 30.5485 40.3849 31.3235 39.5287 31.9157C38.7058 32.557 37.9769 33.3104 37.3632 34.154C36.8036 34.8759 36.1153 35.7237 35.9642 36.6582C35.9254 36.813 35.9232 36.9748 35.9578 37.1307C35.9924 37.2866 36.0629 37.4322 36.1637 37.5561C36.2644 37.6799 36.3927 37.7786 36.5383 37.8442C36.6838 37.9098 36.8427 37.9405 37.0022 37.934C37.0358 37.934 37.0554 37.8808 37.0218 37.864C36.6329 37.6738 36.216 37.5507 36.1825 37.0247C36.2025 36.6009 36.3401 36.1912 36.5798 35.8412C37.075 35.0525 37.6734 34.3336 38.3592 33.7036C39.1986 32.8642 40.038 32.0248 40.8214 31.1435C41.7893 30.038 42.4213 28.679 42.6428 27.2264C42.654 27.1845 42.5896 27.1397 42.5645 27.1957Z" fill="#FBD4DB"/>
</g>
<g style="mix-blend-mode:screen" opacity="0.38">
<path d="M32.5956 32.5591C32.2766 32.4696 31.9437 32.4668 31.6191 32.408C31.4548 32.3941 31.2935 32.3554 31.1407 32.2933C30.7826 32.0975 30.9141 31.8345 31.1183 31.5407C31.1357 31.5108 31.1429 31.4761 31.1389 31.4418C31.1348 31.4075 31.1198 31.3754 31.0959 31.3504C30.7154 31.0314 30.0551 30.6258 30.3377 30.0046C30.3545 29.9682 30.3181 29.9179 30.2789 29.9431C29.6522 30.3628 30.1223 30.9447 30.5587 31.3112C30.8861 31.591 30.6119 31.6218 30.5951 31.9827C30.5886 32.0665 30.6022 32.1506 30.6348 32.2279C30.6674 32.3053 30.7181 32.3738 30.7826 32.4276C31.1267 32.727 31.6863 32.6374 32.0976 32.6542C32.6521 32.671 33.1842 32.8768 33.6056 33.2377C34.027 33.5985 34.3123 34.0926 34.4142 34.6379C34.4142 34.6715 34.4786 34.6631 34.4758 34.6379C34.4037 34.1441 34.1864 33.6829 33.8517 33.3127C33.5169 32.9426 33.0797 32.6803 32.5956 32.5591V32.5591Z" fill="#FBD4DB"/>
</g>
<g style="mix-blend-mode:screen" opacity="0.22">
<path d="M24.7139 20.8947C23.7514 19.4957 21.2417 18.1695 21.6698 16.1746C21.6698 16.172 21.6693 16.1695 21.6683 16.1671C21.6673 16.1647 21.6658 16.1626 21.664 16.1608C21.6622 16.1589 21.6601 16.1575 21.6577 16.1565C21.6553 16.1555 21.6527 16.155 21.6502 16.155C21.6476 16.155 21.6451 16.1555 21.6427 16.1565C21.6403 16.1575 21.6381 16.1589 21.6363 16.1608C21.6345 16.1626 21.6331 16.1647 21.6321 16.1671C21.6311 16.1695 21.6306 16.172 21.6306 16.1746C21.0178 17.7806 22.9708 19.2523 23.8969 20.2344C24.767 21.1493 25.3182 22.2097 25.0608 23.5331C24.8202 24.767 24.0732 25.7938 23.6899 26.9689C23.688 26.973 23.687 26.9773 23.6868 26.9818C23.6867 26.9862 23.6874 26.9906 23.689 26.9948C23.6905 26.9989 23.6929 27.0027 23.6959 27.006C23.699 27.0092 23.7026 27.0118 23.7066 27.0137C23.7107 27.0155 23.715 27.0165 23.7195 27.0167C23.7239 27.0168 23.7283 27.0161 23.7325 27.0146C23.7366 27.013 23.7405 27.0106 23.7437 27.0076C23.7469 27.0046 23.7496 27.0009 23.7514 26.9969C24.7335 25.1811 26.0876 22.8812 24.7139 20.8947Z" fill="#FBD4DB"/>
</g>
<g style="mix-blend-mode:screen" opacity="0.22">
<path d="M29.6745 18.206C30.0802 17.445 30.7377 16.863 31.0595 16.0516C31.0735 16.0153 31.0231 15.9985 31.0035 16.0265C30.4859 16.8658 29.6717 17.5037 29.2772 18.4103C28.9987 19.1217 28.9987 19.912 29.2772 20.6234C29.4478 21.074 29.5871 21.5358 29.6941 22.0056C29.7627 22.5705 29.7627 23.1417 29.6941 23.7067C29.613 24.7531 29.4563 25.8331 29.7976 26.8487C29.7976 26.8683 29.8368 26.8655 29.834 26.8487C29.7309 25.805 29.744 24.7531 29.8732 23.7123C29.9955 22.8462 29.9499 21.9647 29.7389 21.1158C29.4367 20.0918 29.1289 19.2217 29.6745 18.206Z" fill="#FBD4DB"/>
</g>
<g style="mix-blend-mode:screen" opacity="0.22">
<path d="M26.0848 34.291C26.0037 33.4852 26.0205 32.6486 25.9001 31.8512C25.7713 31.2116 25.5368 30.5979 25.2063 30.0354C24.8181 29.3612 24.5644 28.6182 24.4592 27.8474H24.4452C24.1654 29.1344 25.2426 30.3264 25.5476 31.5043C25.7686 32.3436 25.6791 33.3089 25.7854 34.1847C25.9029 35.1276 26.0177 36.0732 26.1352 37.0161C26.1352 37.0441 26.1771 37.0469 26.1799 37.0161C26.2393 36.1068 26.2074 35.1939 26.0848 34.291V34.291Z" fill="#FBD4DB"/>
</g>
<g style="mix-blend-mode:screen" opacity="0.22">
<path d="M42.5561 40.3764C41.8594 41.4452 40.4604 40.7066 39.5231 40.4128C38.1242 39.9679 36.6049 40.3904 35.3067 39.523C34.2071 38.7872 33.7203 37.5141 32.769 36.6412C32.4025 36.3055 31.9716 36.0564 31.6051 35.7207C31.3954 35.5514 31.2318 35.332 31.1294 35.0828C31.0343 34.803 31.1294 34.5372 31.1602 34.2434C31.1602 34.2434 31.1602 34.2434 31.1462 34.2434C30.2733 35.01 31.7058 36.1096 32.2066 36.5153C33.4153 37.4806 33.9917 39.0334 35.357 39.842C36.1041 40.2813 36.9211 40.3596 37.766 40.4016C38.5365 40.4284 39.2989 40.5669 40.0295 40.8129C40.7878 41.0619 42.3434 41.5879 42.6568 40.4268C42.6634 40.4134 42.6646 40.3979 42.6598 40.3838C42.6551 40.3696 42.6449 40.3579 42.6316 40.3512C42.6182 40.3445 42.6028 40.3434 42.5886 40.3482C42.5744 40.3529 42.5627 40.363 42.5561 40.3764Z" fill="#FBD4DB"/>
</g>
<g style="mix-blend-mode:screen" opacity="0.22">
<path d="M22.2517 39.2461C21.4822 39.4728 20.7014 39.6596 19.9126 39.8057C19.0397 39.9428 18.1584 39.996 17.2854 40.1107C16.678 40.1678 16.0976 40.3893 15.6067 40.7514C15.0135 41.2075 14.7029 41.8985 13.9559 42.1336C13.9223 42.1336 13.9251 42.2035 13.9559 42.2007C14.5547 42.1559 14.8876 41.7475 15.2821 41.325C15.9396 40.6227 16.709 40.3989 17.6268 40.3093C19.118 40.1694 20.9507 40.1471 22.2545 39.3021C22.2619 39.3017 22.2689 39.2984 22.2739 39.2929C22.2788 39.2874 22.2814 39.2801 22.2811 39.2727C22.2807 39.2653 22.2774 39.2583 22.2719 39.2533C22.2664 39.2484 22.2591 39.2458 22.2517 39.2461V39.2461Z" fill="#FBD4DB"/>
</g>
<path d="M30.3544 23.9529C30.3482 23.8254 30.296 23.7045 30.2076 23.6124C30.1191 23.5204 30.0004 23.4634 29.8732 23.4521C29.8229 23.4722 29.7758 23.4995 29.7333 23.5332L29.6802 23.4941C29.7333 23.2618 29.6969 23.0324 29.4172 22.9345C29.3408 22.9619 29.2676 22.9975 29.1989 23.0408C29.1273 22.9632 29.061 22.8809 29.0003 22.7946C29.0758 22.5148 29.0534 22.1231 28.6561 22.0867L28.5974 22.1035C28.5073 21.9039 28.4316 21.6982 28.3707 21.488C28.3628 21.3275 28.345 21.1678 28.3176 21.0095C28.3025 20.823 28.2482 20.6419 28.1581 20.4779C28.1581 20.3968 28.1385 20.3156 28.1301 20.2345C28.1635 20.1466 28.2018 20.0607 28.2448 19.9771C28.3622 19.5873 28.3241 19.1671 28.1385 18.8048C28.0602 18.6229 28.1385 18.5865 28.2224 18.3851C28.2987 18.2365 28.3516 18.077 28.3791 17.9122C28.408 17.8011 28.408 17.6844 28.3791 17.5732C28.3502 17.4621 28.2934 17.3602 28.2141 17.2771V17.2771C28.5358 17.2771 28.4938 16.5077 28.4938 16.2895C28.5076 16.1136 28.4915 15.9367 28.4463 15.7662C28.4127 15.6655 28.242 15.52 28.2364 15.4277C28.2364 15.2878 28.4463 15.2207 28.4966 15.0556C28.6221 14.6485 28.5983 14.21 28.4295 13.8189C28.3204 13.6091 28.2504 13.6342 28.3679 13.4384C28.4565 13.3133 28.5184 13.1714 28.5498 13.0215C28.5974 12.7417 28.6058 12.3024 28.3651 12.1094V12.0338C28.7205 11.9639 28.6645 11.0714 28.589 10.7468C28.519 10.467 28.3092 10.4083 28.603 10.0613C28.7121 9.93542 28.8967 8.98973 28.5218 8.60921C28.5218 8.57284 28.5218 8.53647 28.5218 8.5001C28.8016 8.22031 28.7848 7.72228 28.5638 7.30819V7.27461C28.5134 6.82975 26.0457 6.63389 26.0457 7.27461C25.7659 7.73347 25.7659 8.32942 26.1324 8.58403C25.6792 8.92537 25.8918 9.9634 26.0093 10.0949C26.3087 10.4362 26.0988 10.495 26.0345 10.7804C25.9589 11.1161 25.9114 12.0618 26.3143 12.0702C26.3218 12.0783 26.3315 12.0842 26.3423 12.087V12.087C26.0457 12.2521 26.0625 12.7473 26.1128 13.0411C26.1468 13.1898 26.2095 13.3305 26.2975 13.4552C26.4178 13.6482 26.3479 13.6231 26.2443 13.8357C26.0802 14.2285 26.0613 14.6669 26.1912 15.0724C26.2471 15.2374 26.471 15.3018 26.471 15.4389C26.471 15.534 26.2947 15.6823 26.2639 15.783C26.2214 15.954 26.2082 16.1309 26.2247 16.3062C26.2247 16.5245 26.1968 17.3023 26.5185 17.2911C26.44 17.3757 26.3843 17.4789 26.3569 17.5911C26.3295 17.7032 26.3312 17.8205 26.3618 17.9318C26.3905 18.0962 26.4453 18.2548 26.5241 18.4019C26.5549 18.4634 26.5829 18.511 26.6053 18.553C26.6053 18.6369 26.6053 18.7264 26.6053 18.8188C26.4249 19.1833 26.3929 19.6034 26.5157 19.9911C26.5437 20.0554 26.5745 20.1086 26.5969 20.1562C26.5969 20.3016 26.5773 20.4499 26.5633 20.5954C26.4985 20.7303 26.4614 20.8768 26.4542 21.0263C26.4288 21.1865 26.4139 21.3482 26.4094 21.5103C26.3511 21.752 26.2667 21.9865 26.1576 22.2098C26.0679 22.2053 25.9793 22.2309 25.9058 22.2826C25.8598 22.3931 25.8471 22.5147 25.8694 22.6323L25.7939 22.705H25.7799C25.7631 22.8589 25.7379 23.01 25.7071 23.1639C25.6485 23.4439 25.568 23.719 25.4665 23.9865C25.3126 24.4789 25.1252 24.8958 24.9993 25.2455C25.0384 25.2232 25.5337 24.672 26.0737 24.1264C26.3367 24.1823 26.4206 24.0173 26.415 23.7906L26.6165 23.606C26.6797 23.6327 26.7506 23.6352 26.8156 23.613C26.8807 23.5908 26.9352 23.5455 26.969 23.4857C27.0022 23.4251 27.014 23.3551 27.0026 23.287C27.1172 23.1797 27.2615 23.1095 27.4167 23.0856C27.5292 23.0983 27.6373 23.1366 27.7328 23.1975C27.7108 23.2894 27.7108 23.3853 27.7328 23.4773C27.7809 23.5992 27.8753 23.6971 27.9954 23.7495C28.1155 23.802 28.2515 23.8047 28.3735 23.7571L28.4994 23.8997C28.4707 23.9891 28.4692 24.0849 28.4951 24.1751C28.521 24.2653 28.5732 24.3457 28.6449 24.4062C28.6917 24.4359 28.7452 24.4533 28.8005 24.4568C28.8558 24.4602 28.911 24.4495 28.9611 24.4257C29.0227 24.4901 29.0814 24.5573 29.143 24.6244C29.1432 24.6943 29.1594 24.7632 29.1905 24.8259C29.3136 25.0441 29.4703 25.1056 29.6018 25.0777C29.8248 25.2906 30.0924 25.4511 30.3852 25.5477C30.8497 24.5377 30.7378 24.2383 30.3544 23.9529Z" fill="#FFDBBD"/>
<g style="mix-blend-mode:multiply" opacity="0.5">
<g style="mix-blend-mode:multiply" opacity="0.5">
<path d="M28.3791 7.20459C28.3791 7.3249 27.8978 7.40324 27.3159 7.37806C26.7339 7.35288 26.2639 7.23257 26.2695 7.09827C26.2751 6.96397 26.7507 6.89962 27.3355 6.9248C27.9202 6.94998 28.3847 7.08428 28.3791 7.20459Z" fill="#BD757B"/>
</g>
</g>
<g style="mix-blend-mode:multiply" opacity="0.26">
<g style="mix-blend-mode:multiply" opacity="0.26">
<path d="M28.3819 23.7822L28.5078 23.9249C28.479 24.0142 28.4775 24.11 28.5034 24.2002C28.5294 24.2904 28.5815 24.3708 28.6533 24.4313C28.7 24.461 28.7535 24.4784 28.8088 24.4819C28.8641 24.4853 28.9194 24.4746 28.9694 24.4509C29.031 24.5152 29.0897 24.5824 29.1513 24.6495C29.1515 24.7194 29.1678 24.7884 29.1989 24.851C29.322 25.0692 29.4786 25.1308 29.6101 25.1028C29.8331 25.3157 30.1008 25.4763 30.3936 25.5728C30.8468 24.5432 30.7349 24.2438 30.3516 23.9584C30.3453 23.8309 30.2932 23.71 30.2047 23.6179C30.1163 23.5259 29.9975 23.4689 29.8704 23.4576C29.82 23.4777 29.7729 23.5051 29.7305 23.5388L29.6773 23.4996C29.7305 23.2674 29.6941 23.0379 29.4143 22.94C29.3379 22.9674 29.2647 23.0031 29.1961 23.0463C29.1245 22.9687 29.0581 22.8865 28.9974 22.8001C29.073 22.5203 29.0506 22.1286 28.6533 22.0922L28.5945 22.109C28.5045 21.9095 28.4287 21.7038 28.3679 21.4935C28.3599 21.3331 28.3422 21.1733 28.3147 21.015C28.2997 20.8286 28.2453 20.6474 28.1552 20.4834V20.4834C28.1552 20.4023 28.1357 20.3212 28.1273 20.24C28.1607 20.1521 28.199 20.0662 28.242 19.9826C28.3594 19.5928 28.3213 19.1727 28.1357 18.8103C28.0573 18.6284 28.1357 18.5921 28.2196 18.3906C28.2959 18.242 28.3487 18.0825 28.3763 17.9178C28.4051 17.8066 28.4051 17.6899 28.3762 17.5788C28.3473 17.4676 28.2905 17.3657 28.2112 17.2826V17.2826C28.533 17.2826 28.491 16.5132 28.491 16.295C28.5047 16.1191 28.4887 15.9422 28.4434 15.7718C28.4099 15.6711 28.2392 15.5256 28.2336 15.4332C28.2336 15.2933 28.4434 15.2262 28.4938 15.0611C28.6192 14.654 28.5954 14.2156 28.4266 13.8244C28.3175 13.6146 28.2476 13.6398 28.3651 13.4439C28.4536 13.3189 28.5155 13.177 28.5469 13.027C28.5945 12.7472 28.6029 12.308 28.3623 12.1149V12.0394C28.7176 11.9694 28.6617 11.0769 28.5861 10.7523C28.5162 10.4725 28.3063 10.4138 28.6001 10.0669C28.7092 9.94095 28.8939 8.99526 28.519 8.61474C28.519 8.57837 28.519 8.542 28.519 8.50563C28.7988 8.22584 28.782 7.72781 28.5609 7.31372C28.4619 7.40675 28.3427 7.47561 28.2126 7.51492C28.0825 7.55424 27.9451 7.56294 27.8111 7.54035C27.453 7.51237 27.9454 7.70263 28.0042 8.05237C28.0107 8.18903 27.9648 8.32302 27.8759 8.42701C27.787 8.53099 27.6617 8.59714 27.5257 8.61195C27.5985 8.70428 27.7188 8.74065 27.8055 8.82179C27.939 8.95326 28.0247 9.12562 28.0489 9.31142C28.1468 9.71712 27.9622 9.94375 27.8083 10.2823C28.3119 10.5901 28.1664 11.6812 27.7272 11.989C27.909 12.1952 28.0086 12.4611 28.007 12.7361C28.0091 13.0058 27.9395 13.2713 27.8055 13.5055C28.1972 13.7853 28.1161 14.6442 27.9762 15.0163C27.9202 15.159 27.8055 15.3437 27.8559 15.4108H27.8251C27.8251 15.5368 27.9538 15.6739 28.0014 15.7914C28.0556 15.9297 28.0849 16.0765 28.0881 16.225C28.1049 16.5776 28.0881 17.0392 27.7495 17.2351C27.9196 17.4466 28.0138 17.7092 28.0168 17.9806C28.0198 18.252 27.9316 18.5166 27.7663 18.732C28.0097 18.939 28.0125 19.3951 28.007 19.6888C28.0014 19.9826 27.8335 20.2065 27.895 20.4527C27.9799 20.6994 28.0509 20.9507 28.1077 21.2053C28.1357 21.4012 27.9706 21.8152 28.0657 21.9384C28.1021 21.9859 28.2364 22.0055 28.2951 22.0587C28.3539 22.1118 28.3287 22.1454 28.3679 22.1734C28.4071 22.2014 28.4518 22.2042 28.5022 22.2321C28.6289 22.277 28.7371 22.3626 28.8099 22.4755C28.8855 22.607 28.8603 22.7945 28.9247 22.9176C29.0506 23.161 29.3052 23.0939 29.4479 23.2562C29.543 23.3625 29.4926 23.5164 29.5542 23.6087C29.6157 23.701 29.7668 23.7038 29.8731 23.7178C30.0606 23.743 30.0746 23.7178 30.1529 23.8801C30.1763 23.9464 30.2044 24.0109 30.2369 24.0732C30.2788 24.1263 30.3264 24.1235 30.3656 24.1655C30.3698 24.2027 30.3698 24.2402 30.3656 24.2774C30.3387 24.5174 30.251 24.7466 30.111 24.9433C29.7584 25.3322 29.1093 24.4733 29.045 24.1403C28.9746 24.1489 28.9033 24.1435 28.8351 24.1242C28.7669 24.105 28.7032 24.0725 28.6477 24.0284C28.5609 23.9472 28.519 23.8018 28.4238 23.7486C28.1804 23.5751 27.9818 23.6842 27.8643 23.3345C27.8388 23.2394 27.7875 23.1532 27.716 23.0855C27.6348 22.9904 27.5733 22.8057 27.4362 22.7833C27.3097 22.7895 27.186 22.8233 27.0739 22.8823C26.9618 22.9412 26.8639 23.0239 26.7871 23.1247C26.6472 23.3457 26.5464 23.522 26.2443 23.5052C26.1883 23.6591 26.1771 23.8829 26.0009 23.9668C25.9169 24.0088 25.7966 23.9668 25.7211 24.0004C25.6455 24.034 25.6147 24.1599 25.5644 24.2242C25.4942 24.3154 25.403 24.3884 25.2986 24.4369C25.1867 24.7446 25.0692 25.0188 24.9824 25.2595C25.0216 25.2371 25.5168 24.6859 26.0568 24.1403C26.3198 24.1963 26.4038 24.0312 26.3982 23.8045L26.5996 23.6199C26.6629 23.6466 26.7338 23.6491 26.7988 23.6269C26.8638 23.6047 26.9184 23.5594 26.9521 23.4996C26.9853 23.439 26.9971 23.369 26.9857 23.3009C27.1004 23.1937 27.2447 23.1235 27.3998 23.0995C27.5123 23.1122 27.6205 23.1505 27.716 23.2114C27.694 23.3034 27.694 23.3992 27.716 23.4912C27.7384 23.5556 27.7739 23.6147 27.8203 23.6648C27.8666 23.7149 27.9228 23.7548 27.9854 23.7821C28.0479 23.8095 28.1154 23.8236 28.1836 23.8236C28.2518 23.8236 28.3193 23.8095 28.3819 23.7822V23.7822Z" fill="#BD757B"/>
</g>
</g>
<g style="mix-blend-mode:screen" opacity="0.32">
<g style="mix-blend-mode:screen" opacity="0.32">
<path d="M26.9942 7.59629C26.7645 7.60062 26.5359 7.56269 26.3199 7.48437C26.1912 7.43401 26.1772 7.40603 26.0961 7.53473C26.0338 7.65033 25.9984 7.77849 25.9925 7.90966C25.9708 8.02913 25.9886 8.15243 26.0431 8.26095C26.0976 8.36946 26.1859 8.4573 26.2947 8.5112C26.4104 8.58674 26.5413 8.63592 26.6782 8.65526C26.815 8.6746 26.9544 8.66363 27.0865 8.62312C27.3299 8.50281 27.2628 8.26219 27.1313 8.09991C27.0613 8.01598 26.79 7.73618 26.9942 7.59629Z" fill="#FFDBBD"/>
</g>
</g>
<g style="mix-blend-mode:screen" opacity="0.32">
<g style="mix-blend-mode:screen" opacity="0.32">
<path d="M26.1716 8.77417C25.9394 8.85811 25.8918 9.29738 25.9338 9.51282C25.9785 9.8066 26.1716 9.91571 26.4318 9.98566C26.5591 10.0409 26.6974 10.0663 26.8361 10.06C26.9748 10.0537 27.1102 10.0158 27.232 9.94929C27.3105 9.90412 27.3772 9.84101 27.4266 9.7651C27.4761 9.6892 27.5068 9.60267 27.5164 9.5126C27.5259 9.42253 27.514 9.33148 27.4816 9.2469C27.4492 9.16232 27.3972 9.08661 27.3299 9.02598C27.0501 8.81054 26.5801 8.79096 26.1716 8.77417Z" fill="#FFDBBD"/>
</g>
</g>
<g style="mix-blend-mode:screen" opacity="0.32">
<g style="mix-blend-mode:screen" opacity="0.32">
<path d="M26.5241 10.6741C26.1184 10.6741 26.0065 11.1525 26.2443 11.4435C26.5717 11.852 27.4502 11.8408 27.6125 11.2644C27.6334 11.1832 27.6294 11.0976 27.601 11.0188C27.5725 10.9399 27.521 10.8715 27.453 10.8223C27.2621 10.6827 27.024 10.6234 26.7899 10.6573L26.5241 10.6741Z" fill="#FFDBBD"/>
</g>
</g>
<g style="mix-blend-mode:screen" opacity="0.32">
<g style="mix-blend-mode:screen" opacity="0.32">
<path d="M27.0837 12.3443C26.9116 12.2784 26.7213 12.2784 26.5493 12.3443C26.461 12.3751 26.3855 12.4345 26.3348 12.5131C26.2842 12.5917 26.2612 12.6849 26.2695 12.778C26.3059 13.2537 26.9074 13.4383 27.2879 13.2732C27.3723 13.2364 27.4447 13.1765 27.4966 13.1004C27.5485 13.0243 27.5779 12.9352 27.5814 12.8431C27.5849 12.7511 27.5624 12.6599 27.5164 12.5801C27.4704 12.5003 27.4029 12.4351 27.3215 12.3919L27.0837 12.3443Z" fill="#FFDBBD"/>
</g>
</g>
<g style="mix-blend-mode:screen" opacity="0.32">
<g style="mix-blend-mode:screen" opacity="0.32">
<path d="M26.8431 13.7741C26.401 13.7209 26.096 14.2749 26.2443 14.661C26.3047 14.7747 26.3944 14.8703 26.5041 14.9376C26.6138 15.005 26.7395 15.0419 26.8683 15.0443C26.9996 15.0549 27.1314 15.0301 27.25 14.9725C27.3686 14.915 27.4696 14.8267 27.5426 14.717C27.8727 14.2497 27.4194 13.8944 26.8431 13.7741Z" fill="#FFDBBD"/>
</g>
</g>
<g style="mix-blend-mode:screen" opacity="0.32">
<g style="mix-blend-mode:screen" opacity="0.32">
<path d="M27.4363 16.0515C27.1257 15.9423 26.5829 15.8696 26.3815 16.2221C26.0877 16.7398 27.0614 17.0811 27.4195 17.0083C27.5673 16.9648 27.6969 16.8745 27.7888 16.7509C27.8924 16.5803 27.7888 16.4096 27.7553 16.2389L27.4363 16.0515Z" fill="#FFDBBD"/>
</g>
</g>
<g style="mix-blend-mode:screen" opacity="0.32">
<g style="mix-blend-mode:screen" opacity="0.32">
<path d="M27.2992 17.5037C26.9886 17.5037 26.4598 17.487 26.4962 17.943C26.5325 18.3991 27.3523 18.4606 27.6489 18.2228C27.9455 17.985 27.8615 17.4981 27.2992 17.5037Z" fill="#FFDBBD"/>
</g>
</g>
<g style="mix-blend-mode:screen" opacity="0.32">
<g style="mix-blend-mode:screen" opacity="0.32">
<path d="M26.7815 18.9614C26.6952 19.0038 26.6229 19.0701 26.5733 19.1525C26.5237 19.2348 26.4988 19.3297 26.5017 19.4258C26.5017 19.6665 26.664 19.7364 26.8598 19.7812C27.1396 19.8427 27.909 19.8567 27.8419 19.3559C27.7719 18.9222 27.2543 18.8551 26.7815 18.9614Z" fill="#FFDBBD"/>
</g>
</g>
<g style="mix-blend-mode:screen" opacity="0.32">
<g style="mix-blend-mode:screen" opacity="0.32">
<path d="M26.8738 20.5478C26.594 20.5702 26.4737 21.1353 26.72 21.2892C26.9 21.3521 27.0946 21.3608 27.2795 21.3144C27.3886 21.2812 27.4897 21.2261 27.5768 21.1525C27.6639 21.0789 27.735 20.9883 27.786 20.8863C27.7978 20.833 27.7926 20.7772 27.771 20.727C27.7494 20.6768 27.7126 20.6346 27.6656 20.6065C27.4026 20.4247 27.0725 20.5394 26.8738 20.5478Z" fill="#FFDBBD"/>
</g>
</g>
<g style="mix-blend-mode:screen" opacity="0.32">
<g style="mix-blend-mode:screen" opacity="0.32">
<path d="M28.0014 22.0391C27.8392 22.095 27.4279 22.5651 27.6545 22.7106C27.7972 22.8029 27.9595 22.5903 28.0462 22.4923C28.091 22.442 28.3847 22.0223 28.0014 22.0391Z" fill="#FFDBBD"/>
</g>
</g>
<g style="mix-blend-mode:screen" opacity="0.32">
<g style="mix-blend-mode:screen" opacity="0.32">
<path d="M28.3819 22.5259C28.1917 22.6854 27.6937 23.2646 28.077 23.4464C28.4127 23.6059 28.6366 23.1331 28.6841 22.8533C28.7233 22.663 28.6114 22.3664 28.3819 22.5259Z" fill="#FFDBBD"/>
</g>
</g>
<g style="mix-blend-mode:screen" opacity="0.32">
<g style="mix-blend-mode:screen" opacity="0.32">
<path d="M29.1429 23.2227C28.9807 23.2898 28.6393 23.7459 28.768 23.9529C28.9275 24.2047 29.4143 23.6227 29.4563 23.4661C29.4687 23.4249 29.4683 23.381 29.4552 23.3401C29.4422 23.2992 29.417 23.2632 29.3831 23.2368C29.3492 23.2105 29.3081 23.195 29.2652 23.1925C29.2224 23.19 29.1797 23.2005 29.1429 23.2227Z" fill="#FFDBBD"/>
</g>
</g>
<g style="mix-blend-mode:screen" opacity="0.32">
<g style="mix-blend-mode:screen" opacity="0.32">
<path d="M29.918 23.813C29.7682 23.8208 29.6271 23.8853 29.5232 23.9934C29.4192 24.1014 29.3603 24.245 29.3584 24.395C29.3584 24.8314 29.7753 24.5404 29.9012 24.353C29.9935 24.2327 30.1754 23.9305 29.918 23.813Z" fill="#FFDBBD"/>
</g>
</g>
<g style="mix-blend-mode:screen" opacity="0.32">
<g style="mix-blend-mode:screen" opacity="0.32">
<path d="M26.5073 21.7257C26.6373 21.8837 26.8204 21.9888 27.0224 22.0213C27.2243 22.0537 27.4312 22.0113 27.6041 21.902C27.7552 21.8097 28.035 21.4935 27.7608 21.3592C27.5873 21.2753 27.3467 21.5159 27.1788 21.5523C26.9354 21.6054 26.5801 21.3088 26.5073 21.7257Z" fill="#FFDBBD"/>
</g>
</g>
<g style="mix-blend-mode:screen" opacity="0.32">
<g style="mix-blend-mode:screen" opacity="0.32">
<path d="M25.917 22.4615C26.0597 22.7217 26.1968 23.0211 26.4402 23.1246C26.8039 23.2813 26.499 22.6657 26.3898 22.5398C26.2807 22.4139 26.0541 22.2153 25.917 22.4615Z" fill="#FFDBBD"/>
</g>
</g>
<g style="mix-blend-mode:screen" opacity="0.32">
<g style="mix-blend-mode:screen" opacity="0.32">
<path d="M25.7156 23.4044C25.7156 23.5695 25.9954 23.964 26.1269 23.7121C26.222 23.5303 25.8471 22.9679 25.7631 23.2645L25.7156 23.4044Z" fill="#FFDBBD"/>
</g>
</g>
<g style="mix-blend-mode:multiply" opacity="0.25">
<path d="M27.6993 6.97524C27.4553 6.92668 27.2058 6.91163 26.9578 6.93047C26.7619 6.92275 26.5664 6.95218 26.3814 7.01721C26.222 7.11234 26.3143 7.23545 26.471 7.21026C26.3758 7.21026 26.3703 7.1571 26.457 7.03959L26.6388 7.01441C26.7452 7.00042 26.8515 6.98643 26.9578 6.97804C27.2068 6.96125 27.4502 6.97804 27.6993 6.97804C27.6993 6.99483 27.6993 6.97524 27.6993 6.97524Z" fill="#661C2A"/>
</g>
<g style="mix-blend-mode:multiply" opacity="0.25">
<path d="M28.5386 7.31085C28.3931 7.48991 27.9539 7.5095 27.7608 7.52908C27.4735 7.54167 27.1857 7.53607 26.899 7.5123C27.295 7.62729 27.7136 7.64076 28.1161 7.55147C28.242 7.52629 28.5386 7.49551 28.5498 7.31085C28.5386 7.30805 28.5386 7.30525 28.5386 7.31085Z" fill="#661C2A"/>
</g>
<g style="mix-blend-mode:multiply" opacity="0.25">
<path d="M28.4882 8.53645C28.3265 8.5897 28.1621 8.63453 27.9958 8.67075C27.7847 8.69078 27.5726 8.69825 27.3606 8.69313C26.9629 8.68818 26.567 8.63938 26.1799 8.54764C26.5683 8.7268 26.9954 8.80568 27.4222 8.77707C27.7747 8.77707 28.2252 8.82184 28.505 8.55324C28.5134 8.55044 28.5022 8.53365 28.4882 8.53645Z" fill="#661C2A"/>
</g>
<g style="mix-blend-mode:multiply" opacity="0.25">
<path d="M28.4127 10.218C28.0584 10.3387 27.6839 10.389 27.3103 10.3663C26.9572 10.3481 26.6057 10.306 26.2583 10.2404C26.629 10.4434 27.0513 10.533 27.4726 10.4978C27.7692 10.481 28.228 10.4978 28.4351 10.2376C28.4351 10.2347 28.4345 10.2319 28.4334 10.2294C28.4322 10.2268 28.4305 10.2245 28.4284 10.2226C28.4263 10.2208 28.4237 10.2194 28.421 10.2186C28.4183 10.2178 28.4155 10.2176 28.4127 10.218Z" fill="#661C2A"/>
</g>
<g style="mix-blend-mode:multiply" opacity="0.25">
<path d="M28.2896 11.9723C27.9904 12.0994 27.6654 12.154 27.3411 12.1318C27.0865 12.1318 26.6108 12.1597 26.3926 11.9975C26.5605 12.2409 27.0837 12.2409 27.3467 12.2465C27.6097 12.2521 28.1357 12.2772 28.3259 11.9947C28.3271 11.99 28.3268 11.9852 28.325 11.9808C28.3232 11.9763 28.32 11.9726 28.316 11.9701C28.3119 11.9676 28.3072 11.9665 28.3024 11.9669C28.2977 11.9673 28.2932 11.9691 28.2896 11.9723V11.9723Z" fill="#661C2A"/>
</g>
<g style="mix-blend-mode:multiply" opacity="0.25">
<path d="M28.2224 13.5753C27.8745 13.6466 27.5173 13.6608 27.1648 13.6173C26.9298 13.5865 26.6332 13.6565 26.4233 13.5474C26.5688 13.7572 26.9829 13.6985 27.1984 13.7292C27.5033 13.774 27.9874 13.8132 28.2476 13.6033C28.2588 13.5949 28.2392 13.5697 28.2224 13.5753Z" fill="#661C2A"/>
</g>
<g style="mix-blend-mode:multiply" opacity="0.25">
<path d="M28.1021 15.3885C27.5605 15.4707 27.0084 15.4517 26.4737 15.3325C26.4737 15.3325 26.4598 15.3325 26.4737 15.3493C26.7214 15.4959 27.0014 15.579 27.2889 15.5912C27.5765 15.6034 27.8625 15.5443 28.1217 15.4193C28.1329 15.4109 28.1189 15.3885 28.1021 15.3885Z" fill="#661C2A"/>
</g>
<g style="mix-blend-mode:multiply" opacity="0.25">
<path d="M28.2589 17.2351C27.6982 17.3554 27.1184 17.3554 26.5577 17.2351C26.8108 17.3712 27.0961 17.436 27.3831 17.4226C27.6882 17.464 27.9985 17.4082 28.2701 17.2631L28.2589 17.2351Z" fill="#661C2A"/>
</g>
<g style="mix-blend-mode:multiply" opacity="0.25">
<path d="M28.0489 18.6955C27.6069 18.5416 27.1033 18.799 26.678 18.6003C26.7409 18.6626 26.8172 18.7096 26.9011 18.7377C26.9851 18.7658 27.0743 18.7743 27.162 18.7626C27.4602 18.7885 27.7605 18.7734 28.0545 18.7178C28.0566 18.7141 28.0572 18.7097 28.0562 18.7055C28.0552 18.7014 28.0526 18.6978 28.0489 18.6955Z" fill="#661C2A"/>
</g>
<g style="mix-blend-mode:multiply" opacity="0.25">
<path d="M28.0938 20.1729C27.8289 20.2251 27.5605 20.2579 27.2908 20.2708C27.1257 20.2708 26.7844 20.2932 26.6976 20.1113C26.7284 20.2988 26.9774 20.3212 27.1313 20.338C27.4628 20.3865 27.8013 20.3369 28.105 20.1953C28.119 20.1897 28.1078 20.1729 28.0938 20.1729Z" fill="#661C2A"/>
</g>
<g style="mix-blend-mode:multiply" opacity="0.25">
<path d="M28.1022 21.1298C27.6769 21.3312 26.9998 21.5914 26.5857 21.2221C26.8823 21.6837 27.7832 21.3984 28.1134 21.1465C28.1217 21.141 28.1134 21.127 28.1022 21.1298Z" fill="#661C2A"/>
</g>
<g style="mix-blend-mode:multiply" opacity="0.25">
<path d="M28.3735 21.7006C28.0175 21.9241 27.6013 22.0326 27.1816 22.0112C26.9437 22.0112 26.4849 22.0755 26.3674 21.8069H26.3534C26.3814 22.0727 26.7927 22.0867 26.9857 22.0867C27.4502 22.1007 28.0489 22.1007 28.3847 21.7286C28.4071 21.7146 28.3875 21.6866 28.3735 21.7006Z" fill="#661C2A"/>
</g>
<g style="mix-blend-mode:multiply" opacity="0.25">
<path d="M28.5387 22.1314C28.3331 22.2996 28.1498 22.4933 27.9931 22.7077C27.8814 22.8263 27.8099 22.9771 27.7888 23.1386H27.8084C27.9595 22.7245 28.2756 22.4615 28.5442 22.1314C28.5387 22.1314 28.5387 22.1286 28.5387 22.1314Z" fill="#661C2A"/>
</g>
<g style="mix-blend-mode:multiply" opacity="0.25">
<path d="M29.0002 22.7274C28.8448 22.8403 28.7167 22.9866 28.6253 23.1555C28.5358 23.287 28.3903 23.4577 28.4043 23.6283C28.4043 23.6283 28.4043 23.6423 28.4183 23.6283C28.5617 23.2974 28.7583 22.9921 29.0002 22.7246C29.0002 22.7246 29.0002 22.7274 29.0002 22.7274Z" fill="#661C2A"/>
</g>
<g style="mix-blend-mode:multiply" opacity="0.25">
<path d="M29.2129 23.063C29.0478 23.077 28.9331 23.312 28.8603 23.4295C28.7876 23.547 28.5526 23.7513 28.5805 23.9443C28.6411 23.7703 28.7363 23.6104 28.8603 23.4743C28.9667 23.3316 29.045 23.1385 29.2129 23.0658V23.063Z" fill="#661C2A"/>
</g>
<g style="mix-blend-mode:multiply" opacity="0.25">
<path d="M29.6578 23.4827C29.4871 23.6757 29.3221 23.866 29.1682 24.0702C29.1102 24.1257 29.0638 24.192 29.0316 24.2655C28.9994 24.339 28.9821 24.4181 28.9807 24.4983C29.0786 24.087 29.4592 23.8436 29.6466 23.4827H29.6578Z" fill="#661C2A"/>
</g>
<g style="mix-blend-mode:multiply" opacity="0.25">
<path d="M29.7921 23.5331C29.6578 23.6702 29.5486 23.8324 29.4283 23.9807C29.3252 24.0899 29.2519 24.2239 29.2157 24.3696C29.2157 24.3696 29.2157 24.3696 29.2297 24.3696C29.2931 24.202 29.388 24.0482 29.5095 23.9164C29.613 23.7933 29.6969 23.659 29.7893 23.5303C29.7949 23.5359 29.7921 23.5331 29.7921 23.5331Z" fill="#661C2A"/>
</g>
<g style="mix-blend-mode:multiply" opacity="0.25">
<path d="M30.3041 23.9081C30.0362 24.2772 29.8003 24.6684 29.599 25.0776C29.599 25.0916 29.599 25.1084 29.6186 25.0944C29.8859 24.7231 30.12 24.329 30.3181 23.9165C30.3181 23.9165 30.3097 23.8997 30.3041 23.9081Z" fill="#661C2A"/>
</g>
<g style="mix-blend-mode:multiply" opacity="0.25">
<path d="M30.581 24.2102H30.5642C30.6929 24.6299 30.4831 25.0915 30.3628 25.4916C30.3628 25.4916 30.3628 25.5056 30.3768 25.4916C30.4888 25.246 30.5706 24.9876 30.6202 24.7222C30.6488 24.6387 30.6601 24.5502 30.6534 24.4622C30.6467 24.3741 30.622 24.2884 30.581 24.2102Z" fill="#661C2A"/>
</g>
<g style="mix-blend-mode:multiply" opacity="0.25">
<path d="M25.9001 23.8214C25.8386 23.7318 25.777 23.6423 25.7099 23.5583C25.7099 23.5583 25.6819 23.5583 25.6903 23.5723C25.7602 23.6759 25.8218 23.785 25.8861 23.8913C25.9315 23.9853 26.0022 24.0648 26.0904 24.1207L26.1072 24.1039C26.054 24.0032 25.9645 23.9193 25.9001 23.8214Z" fill="#661C2A"/>
</g>
<g style="mix-blend-mode:multiply" opacity="0.25">
<path d="M26.1939 23.3374C26.0879 23.1736 25.9681 23.0192 25.8358 22.8757C25.9226 23.0352 26.0317 23.1891 26.1324 23.3402C26.2331 23.4913 26.2919 23.62 26.3758 23.7571H26.3982C26.3761 23.5991 26.3046 23.4522 26.1939 23.3374V23.3374Z" fill="#661C2A"/>
</g>
<g style="mix-blend-mode:multiply" opacity="0.25">
<path d="M25.9366 22.6238C25.9742 22.7972 26.0539 22.9587 26.1689 23.0938C26.2858 23.2781 26.4345 23.4401 26.6081 23.5723C26.6081 23.5723 26.6081 23.5723 26.6081 23.5723C26.4011 23.2225 26.0905 22.9959 25.9366 22.6238Z" fill="#661C2A"/>
</g>
<g style="mix-blend-mode:multiply" opacity="0.25">
<path d="M26.9885 23.3233C26.7976 22.9114 26.5221 22.5444 26.1799 22.2461C26.1799 22.2461 26.1799 22.2461 26.1799 22.2461C26.2974 22.4503 26.4849 22.5986 26.6108 22.8057C26.7044 23.0012 26.827 23.1813 26.9745 23.3401C26.9745 23.3401 26.9941 23.3345 26.9885 23.3233Z" fill="#661C2A"/>
</g>
<g style="mix-blend-mode:multiply" opacity="0.25">
<path d="M28.1833 15.6122C27.8895 15.6948 27.5843 15.7288 27.2795 15.7129C27.0079 15.7348 26.7345 15.7054 26.4737 15.6262C26.4737 15.6262 26.4598 15.6262 26.4737 15.6402C26.6892 15.8248 27.0333 15.7913 27.2879 15.7941C27.5425 15.7969 27.9902 15.8332 28.2056 15.6346C28.2056 15.6234 28.1973 15.6066 28.1833 15.6122Z" fill="#661C2A"/>
</g>
<g style="mix-blend-mode:multiply" opacity="0.25">
<path d="M28.3567 13.43C27.7272 13.5755 27.0669 13.4664 26.4318 13.416C26.7398 13.5234 27.0657 13.57 27.3914 13.5531C27.72 13.5977 28.0545 13.5602 28.3651 13.444L28.3567 13.43Z" fill="#661C2A"/>
</g>
<g style="mix-blend-mode:multiply" opacity="0.25">
<path d="M28.3204 11.8547C27.7468 11.9247 27.0361 12.0702 26.4738 11.8743C26.7051 11.9787 26.9599 12.0201 27.2124 11.9946C27.5895 12.0142 27.9673 11.9736 28.3316 11.8743C28.3316 11.8743 28.3344 11.8519 28.3204 11.8547Z" fill="#661C2A"/>
</g>
<g style="mix-blend-mode:multiply" opacity="0.25">
<path d="M28.1581 10.1341C27.5985 10.1928 26.9326 10.3439 26.3926 10.1145C26.6196 10.239 26.8794 10.2907 27.1368 10.2628C27.4825 10.2766 27.8283 10.2351 28.1609 10.1397C28.1609 10.1397 28.1665 10.1313 28.1581 10.1341Z" fill="#661C2A"/>
</g>
<g style="mix-blend-mode:multiply" opacity="0.25">
<path d="M28.491 8.42459C28.0958 8.50417 27.6958 8.55745 27.2935 8.58407C27.0138 8.60086 26.6081 8.63443 26.3702 8.44417C26.5381 8.64003 26.8795 8.63164 27.1117 8.63164C27.5854 8.64865 28.0586 8.5843 28.5106 8.44138C28.5106 8.44138 28.5022 8.42179 28.491 8.42459Z" fill="#661C2A"/>
</g>
<g style="mix-blend-mode:multiply" opacity="0.25">
<path d="M28.2589 17.1147C27.7721 17.1707 27.1845 17.3553 26.7061 17.1511C26.8966 17.2427 27.1082 17.2813 27.3188 17.263C27.6391 17.2768 27.9592 17.2293 28.2617 17.1231C28.2617 17.1231 28.2589 17.1119 28.2589 17.1147Z" fill="#661C2A"/>
</g>
<g style="mix-blend-mode:multiply" opacity="0.25">
<path d="M27.979 18.5165C27.7782 18.564 27.5727 18.5894 27.3663 18.5921C27.1481 18.598 26.9305 18.5667 26.7228 18.4998C26.9088 18.6001 27.1188 18.6475 27.3299 18.6369C27.555 18.6562 27.7814 18.6176 27.9874 18.5249C27.9874 18.5249 27.979 18.5137 27.979 18.5165Z" fill="#661C2A"/>
</g>
<g style="mix-blend-mode:multiply" opacity="0.25">
<path d="M28.049 20.2903C27.8377 20.3856 27.606 20.427 27.3747 20.4106C27.1352 20.4344 26.8937 20.4288 26.6556 20.3938V20.3938C26.9051 20.4893 27.1753 20.5172 27.4391 20.475C27.6624 20.5046 27.8885 20.4453 28.0686 20.3099C28.0686 20.3099 28.063 20.2791 28.049 20.2903Z" fill="#661C2A"/>
</g>
<g style="mix-blend-mode:multiply" opacity="0.25">
<path d="M28.0741 21.3787C27.6181 21.4962 27.0109 21.6193 26.5745 21.3787C26.9326 21.7088 27.6768 21.5633 28.0797 21.4095C28.0909 21.3955 28.0881 21.3759 28.0741 21.3787Z" fill="#661C2A"/>
</g>
<g style="mix-blend-mode:screen" opacity="0.38">
<path d="M27.2488 7.43396C27.0921 7.41158 26.9354 7.40878 26.7788 7.3892C26.7424 7.3892 25.9646 7.2549 26.25 7.04785C26.0625 7.08143 26.1884 7.26609 26.2919 7.32764C26.5945 7.44831 26.9225 7.49158 27.246 7.45355L27.2488 7.43396Z" fill="#FBD4DB"/>
</g>
<g style="mix-blend-mode:screen" opacity="0.38">
<path d="M28.1777 7.03394C28.2449 7.0759 28.5051 7.15704 28.382 7.26616C28.2446 7.35334 28.0858 7.40079 27.9231 7.40326C27.9231 7.40326 27.9231 7.40326 27.9231 7.40326C28.0384 7.4168 28.1552 7.40339 28.2644 7.36409C28.326 7.34171 28.4239 7.30533 28.4491 7.23259C28.4827 7.12347 28.2588 7.05072 28.1777 7.03394Z" fill="#FBD4DB"/>
</g>
<g style="mix-blend-mode:screen" opacity="0.77">
<path d="M26.8151 7.38657C26.6768 7.36481 26.5403 7.33301 26.4066 7.29144C26.3647 7.27466 26.3115 7.26346 26.2723 7.24388C26.2474 7.23366 26.2265 7.21553 26.2128 7.19228C26.1992 7.16903 26.1936 7.14194 26.1968 7.11517C26.1968 7.0788 26.2667 7.03683 26.2947 7.01725C26.3227 6.99766 26.2947 7.01725 26.2947 7.01725C26.1856 7.01725 26.1017 7.16554 26.1912 7.24948C26.259 7.29525 26.335 7.32754 26.415 7.3446C26.5416 7.3931 26.6772 7.41317 26.8123 7.40336C26.8123 7.40336 26.8235 7.38657 26.8151 7.38657Z" fill="#FBD4DB"/>
</g>
<g style="mix-blend-mode:screen" opacity="0.77">
<path d="M28.3428 7.10678C28.2548 7.03397 28.1436 6.99524 28.0294 6.99767C28.0938 7.02005 28.4827 7.12078 28.3456 7.24948C28.4491 7.24109 28.3931 7.14875 28.3428 7.10678Z" fill="#FBD4DB"/>
</g>
<g style="mix-blend-mode:screen" opacity="0.77">
<path d="M27.2544 8.90297C26.9158 8.79386 26.4961 8.87499 26.1884 8.66235C26.3004 8.75657 26.4396 8.81245 26.5857 8.82183C26.8067 8.8666 27.0333 8.87779 27.2572 8.90857C27.26 8.91416 27.26 8.90577 27.2544 8.90297Z" fill="#FBD4DB"/>
</g>
<g style="mix-blend-mode:screen" opacity="0.77">
<path d="M27.4194 10.7047C27.0923 10.5973 26.7456 10.5629 26.4038 10.604C26.4038 10.604 26.4038 10.604 26.4038 10.604C26.7424 10.6431 27.0781 10.6767 27.4166 10.7243L27.4194 10.7047Z" fill="#FBD4DB"/>
</g>
<g style="mix-blend-mode:screen" opacity="0.77">
<path d="M27.3971 12.3892C27.2043 12.2925 26.9862 12.2583 26.7731 12.2912C26.6416 12.2912 26.4794 12.3108 26.4066 12.4395C26.6528 12.2353 27.1117 12.35 27.3859 12.4088L27.3971 12.3892Z" fill="#FBD4DB"/>
</g>
<g style="mix-blend-mode:screen" opacity="0.77">
<path d="M27.3579 13.9895C27.2728 13.9135 27.173 13.8558 27.0648 13.8197C26.9565 13.7836 26.8421 13.77 26.7284 13.7796C26.6299 13.8007 26.539 13.8479 26.4651 13.9164C26.3912 13.9848 26.3372 14.0719 26.3087 14.1685V14.1685C26.4654 13.9475 26.5885 13.7768 26.8963 13.8412C27.0513 13.8819 27.2021 13.9372 27.3467 14.0062C27.3467 14.0062 27.3635 13.9895 27.3579 13.9895Z" fill="#FBD4DB"/>
</g>
<g style="mix-blend-mode:screen" opacity="0.77">
<path d="M27.5874 16.1103C27.2852 15.9397 26.5773 15.7214 26.415 16.2139C26.4849 16.1222 26.5781 16.051 26.6849 16.0077C26.7917 15.9644 26.9082 15.9505 27.0222 15.9676C27.218 15.99 27.3859 16.1075 27.5818 16.1299C27.593 16.1355 27.5958 16.1159 27.5874 16.1103Z" fill="#FBD4DB"/>
</g>
<g style="mix-blend-mode:screen" opacity="0.77">
<path d="M27.5062 17.4981C27.278 17.4365 27.0377 17.4365 26.8095 17.4981C26.6948 17.5372 26.5297 17.6072 26.5521 17.7527C26.636 17.3834 27.2628 17.5372 27.5034 17.5065L27.5062 17.4981Z" fill="#FBD4DB"/>
</g>
<g style="mix-blend-mode:screen" opacity="0.77">
<path d="M27.6769 18.9697C27.3551 18.8158 26.6697 18.7739 26.5577 19.2495C26.7256 18.7935 27.3076 18.9697 27.6573 18.9893L27.6769 18.9697Z" fill="#FBD4DB"/>
</g>
<g style="mix-blend-mode:screen" opacity="0.77">
<path d="M27.4362 20.5058C27.2263 20.489 26.552 20.4806 26.6192 20.8695C26.6723 20.5002 27.1788 20.5897 27.4334 20.5281C27.4529 20.5253 27.4474 20.5058 27.4362 20.5058Z" fill="#FBD4DB"/>
</g>
<g style="mix-blend-mode:screen" opacity="0.77">
<path d="M28.477 22.4589C28.2821 22.5632 28.1224 22.7228 28.0182 22.9177C27.9566 23.0129 27.8475 23.1975 27.9454 23.2899C27.9007 23.136 28.0322 22.9793 28.1217 22.8646C28.2112 22.7499 28.3707 22.6184 28.4826 22.4813C28.4938 22.4701 28.4882 22.4533 28.477 22.4589Z" fill="#FBD4DB"/>
</g>
<g style="mix-blend-mode:screen" opacity="0.77">
<path d="M29.2297 23.1304C29.0166 23.2619 28.8509 23.4579 28.7568 23.69C28.7568 23.7207 28.6393 24.0005 28.7568 23.9502C28.6757 23.8634 28.8016 23.6872 28.8519 23.6088C28.9616 23.4424 29.0892 23.2885 29.2325 23.1499L29.2297 23.1304Z" fill="#FBD4DB"/>
</g>
<g style="mix-blend-mode:screen" opacity="0.77">
<path d="M29.7781 23.7822C29.5655 23.8354 29.1458 24.3614 29.3836 24.5796C29.2409 24.2998 29.585 23.9277 29.7837 23.8074C29.7977 23.8074 29.7921 23.7822 29.7781 23.7822Z" fill="#FBD4DB"/>
</g>
<g style="mix-blend-mode:screen" opacity="0.77">
<path d="M25.8694 23.2227C25.7771 23.2227 25.7267 23.3234 25.7183 23.4045C25.7157 23.4769 25.7294 23.549 25.7584 23.6154C25.7875 23.6817 25.8312 23.7407 25.8862 23.7878C25.8862 23.7878 25.9002 23.7878 25.8862 23.7878C25.8135 23.6144 25.6204 23.3122 25.8694 23.2227Z" fill="#FBD4DB"/>
</g>
<g style="mix-blend-mode:screen" opacity="0.77">
<path d="M28.0378 22.0781C27.8937 22.1051 27.765 22.185 27.6768 22.302C27.5985 22.3915 27.5146 22.5286 27.5873 22.6433C27.5313 22.3635 27.8671 22.2152 28.0406 22.0837C28.049 22.1033 28.0462 22.0781 28.0378 22.0781Z" fill="#FBD4DB"/>
</g>
<g style="mix-blend-mode:screen" opacity="0.77">
<path d="M27.7412 22.0781C27.5565 22.0781 27.369 22.1145 27.1816 22.1117C26.9941 22.1089 26.843 22.0697 26.6724 22.0837C27.0248 22.1578 27.3888 22.1578 27.7412 22.0837C27.7412 22.0837 27.7496 22.0781 27.7412 22.0781Z" fill="#FBD4DB"/>
</g>
<g style="mix-blend-mode:screen" opacity="0.77">
<path d="M27.8308 21.3899C27.4745 21.5124 27.0887 21.5192 26.7284 21.4095V21.4095C26.9009 21.4976 27.0956 21.5327 27.288 21.5102C27.4814 21.5223 27.6745 21.4827 27.8476 21.3955C27.8476 21.3955 27.8364 21.3899 27.8308 21.3899Z" fill="#FBD4DB"/>
</g>
<g style="mix-blend-mode:screen" opacity="0.77">
<path d="M27.8168 18.799C27.4643 18.7738 27.1034 18.9221 26.776 18.7095C27.0558 18.9473 27.5034 18.8466 27.8196 18.8074L27.8168 18.799Z" fill="#FBD4DB"/>
</g>
<g style="mix-blend-mode:screen" opacity="0.77">
<path d="M32.478 16.351C32.4094 16.123 32.3156 15.9034 32.1983 15.6963V15.6963C32.2228 15.7818 32.2606 15.863 32.3102 15.9369C32.3977 16.1229 32.4472 16.3246 32.4557 16.5301C32.4589 16.894 32.4214 17.2572 32.3437 17.6129C32.2263 18.2627 32.0722 18.9054 31.8821 19.5378C31.7226 20.0694 31.4848 20.559 31.4372 21.1214C31.3568 21.6876 31.3691 22.2631 31.4736 22.8253C31.4736 22.8393 31.4932 22.8253 31.4932 22.8253C31.4249 22.211 31.4353 21.5905 31.524 20.9787C31.6051 20.3156 31.9381 19.7029 32.0835 19.0538C32.2493 18.4521 32.3792 17.841 32.4724 17.2239C32.5179 16.9349 32.5198 16.6406 32.478 16.351V16.351Z" fill="#FBD4DB"/>
</g>
<g style="mix-blend-mode:screen" opacity="0.77">
<path d="M15.3549 30.6369C14.9302 30.0611 14.5743 29.4376 14.2945 28.7791C14.1222 28.403 13.98 28.0138 13.8692 27.6152C13.8195 27.3099 13.7437 27.0094 13.6426 26.717C13.7573 27.064 13.7769 27.4333 13.8776 27.783C13.9803 28.1318 14.1046 28.4738 14.2497 28.8071C14.4949 29.4837 14.8651 30.1082 15.3409 30.6481C15.3409 30.6481 15.3605 30.6453 15.3549 30.6369Z" fill="#FBD4DB"/>
</g>
<g style="mix-blend-mode:screen" opacity="0.77">
<path d="M13.5307 36.4958C13.3636 35.8379 13.2633 35.1649 13.2313 34.4869C13.1334 33.2166 12.9655 31.9324 13.2145 30.6733C12.8508 31.896 13.0858 33.295 13.1837 34.5456C13.2189 35.1723 13.3078 35.7948 13.4495 36.4062C13.6268 36.9942 13.8514 37.5668 14.121 38.1186C14.121 38.1186 14.1406 38.1186 14.1378 38.1186C13.9559 37.5646 13.6873 37.0526 13.5307 36.4958Z" fill="#FBD4DB"/>
</g>
<g style="mix-blend-mode:screen" opacity="0.77">
<path d="M36.1126 36.907C36.1126 36.4426 36.3924 36.0005 36.5966 35.6032C36.8847 35.0177 37.2571 34.4776 37.7018 34V34C36.6414 34.6435 34.8703 37.7716 36.9967 38.1353C37.002 38.1355 37.0072 38.134 37.0116 38.1311C37.016 38.1282 37.0194 38.1239 37.0213 38.119C37.0231 38.114 37.0234 38.1086 37.022 38.1035C37.0206 38.0984 37.0176 38.0939 37.0135 38.0905C36.5547 37.8471 36.093 37.5058 36.1126 36.907Z" fill="#FBD4DB"/>
</g>
<g style="mix-blend-mode:screen" opacity="0.77">
<path d="M35.8132 35.0437C35.6327 35.0456 35.4549 35.0876 35.2928 35.1668C35.0438 35.2731 34.8059 35.5082 34.5625 35.2424C34.4297 35.0351 34.327 34.8099 34.2575 34.5737C34.1429 34.2913 34.0121 34.0157 33.8658 33.7483C33.8658 33.7483 33.8658 33.7483 33.8658 33.7483C34.0113 34.1288 34.1456 34.5121 34.3079 34.887C34.3577 35.0923 34.4534 35.2836 34.5877 35.4466C34.6996 35.5278 34.7808 35.5026 34.9039 35.4634C35.2144 35.3599 35.4914 35.1836 35.8132 35.0997C35.8206 35.0997 35.8277 35.0967 35.833 35.0915C35.8382 35.0862 35.8412 35.0791 35.8412 35.0717C35.8412 35.0643 35.8382 35.0572 35.833 35.0519C35.8277 35.0467 35.8206 35.0437 35.8132 35.0437V35.0437Z" fill="#FBD4DB"/>
</g>
<g style="mix-blend-mode:screen" opacity="0.77">
<path d="M15.0052 31.1014C14.3057 30.0578 13.7293 29.2324 13.5726 27.9314C13.4467 29.0757 14.1098 30.4495 14.9884 31.1294C14.9968 31.1406 15.0163 31.1182 15.0052 31.1014Z" fill="#FBD4DB"/>
</g>
<g style="mix-blend-mode:screen" opacity="0.77">
<path d="M12.6241 33.4154C12.543 32.8166 12.5402 32.2151 12.4758 31.6135C12.3583 32.7327 12.4199 34.182 12.9906 35.1837C12.9917 35.186 12.9933 35.1882 12.9952 35.19C12.9972 35.1918 12.9994 35.1931 13.0019 35.1941C13.0044 35.195 13.007 35.1954 13.0096 35.1953C13.0123 35.1952 13.0148 35.1945 13.0172 35.1934C13.0196 35.1923 13.0218 35.1908 13.0235 35.1889C13.0253 35.1869 13.0267 35.1847 13.0276 35.1822C13.0285 35.1797 13.0289 35.1771 13.0288 35.1745C13.0287 35.1718 13.0281 35.1693 13.027 35.1669C12.8633 34.5902 12.7289 34.0056 12.6241 33.4154V33.4154Z" fill="#FBD4DB"/>
</g>
<defs>
<linearGradient id="paint0_linear_12164_86" x1="40.2478" y1="48.1183" x2="7.22978" y2="7.03394" gradientUnits="userSpaceOnUse">
<stop stop-color="white"/>
<stop offset="0.39" stop-color="#3D4C96"/>
<stop offset="0.86" stop-color="#2A4F90"/>
</linearGradient>
</defs>
</svg>
