<svg width="56" height="56" viewBox="0 0 56 56" fill="none" xmlns="http://www.w3.org/2000/svg">
<g clip-path="url(#clip0_12164_1943)">
<rect width="56" height="56" rx="28" fill="#54D1FF"/>
<path style="mix-blend-mode:multiply" opacity="0.26" d="M61.5 37L64 57H37.8592L26.5 41L30 23L35.5 19.5L41.5 16L46 15L61.5 37Z" fill="url(#paint0_linear_12164_1943)" fill-opacity="0.26"/>
<path d="M12.4602 21.815C12.816 22.3951 13.2889 22.8839 13.8446 23.2459C14.1288 23.3845 14.4258 23.4913 14.7308 23.5647C14.9976 23.6585 15.2776 23.7032 15.5585 23.6969C15.841 23.6571 16.1142 23.5621 16.3642 23.417C17.2457 22.969 18.093 22.449 18.8986 21.8617C19.2326 21.6039 19.5826 21.3701 19.946 21.1618C20.7187 20.8646 21.4661 20.4977 22.18 20.0654C22.2313 19.9565 22.1434 19.8321 22.0408 19.7932C21.9322 19.7709 21.8197 19.7845 21.7185 19.8321C20.5905 20.195 19.4772 20.6045 18.3785 21.0607C18.3213 21.0798 18.2599 21.0798 18.2027 21.0607C18.1441 21.0381 18.0931 20.9975 18.0562 20.9441C17.6676 20.374 17.168 19.8992 16.5913 19.5521C15.9374 19.2572 15.2034 19.2322 14.5331 19.4822C13.8688 19.7317 13.2495 20.0999 12.7019 20.5708C12.4529 20.773 12.1819 21.0452 12.2332 21.3485C12.2632 21.5246 12.3423 21.6872 12.4602 21.815Z" fill="url(#paint1_radial_12164_1943)"/>
<path d="M43.4944 21.815C43.14 22.3963 42.6668 22.8853 42.1101 23.2459C41.8279 23.3833 41.5335 23.4901 41.2311 23.5647C40.9643 23.6585 40.6844 23.7032 40.4034 23.6969C40.1207 23.6581 39.8474 23.5632 39.5977 23.417C38.7131 22.9708 37.8632 22.4507 37.0561 21.8617C36.722 21.6039 36.3721 21.3701 36.0087 21.1618C35.2359 20.8646 34.4885 20.4977 33.7746 20.0654C33.7234 19.9565 33.8113 19.8321 33.9211 19.7932C34.0298 19.7719 34.142 19.7855 34.2434 19.8321C35.3617 20.195 36.4725 20.6045 37.5761 21.0607C37.6334 21.0794 37.6946 21.0794 37.7519 21.0607C37.8118 21.0405 37.8634 20.9994 37.8984 20.9441C38.287 20.374 38.7867 19.8992 39.3633 19.5521C40.0172 19.2572 40.7513 19.2322 41.4215 19.4822C42.0866 19.7299 42.7062 20.0982 43.2527 20.5708C43.5017 20.773 43.7728 21.0452 43.7215 21.3485C43.6915 21.5246 43.6124 21.6872 43.4944 21.815Z" fill="url(#paint2_radial_12164_1943)"/>
<path d="M46.849 15.835C46.738 15.5777 46.5788 15.3471 46.381 15.1573C46.1833 14.9674 45.9513 14.8223 45.699 14.7308C45.1913 14.5442 44.6393 14.5442 44.1316 14.7308C43.8752 14.8241 43.6335 14.9641 43.3991 15.0652C42.4469 15.454 41.3775 15.3762 40.418 15.7417C40.0664 15.8823 39.7358 16.0761 39.4365 16.3172C39.1023 16.576 38.8103 16.8913 38.5722 17.2503C38.3477 17.5946 38.0493 17.8771 37.7016 18.0745C37.3538 18.2719 36.9668 18.3786 36.5725 18.3857C35.5617 18.3857 34.5876 17.7558 33.0201 16.5038C32.2454 15.7163 31.4045 15.0057 30.5078 14.3809C28.8695 13.873 27.1286 13.873 25.4904 14.3809C24.5937 15.0057 23.7527 15.7163 22.978 16.5038C21.4106 17.7558 20.4437 18.3779 19.4329 18.3857C19.0375 18.3792 18.6493 18.2728 18.3003 18.0754C17.9513 17.878 17.6516 17.5952 17.426 17.2503C16.966 16.5635 16.3233 16.0382 15.5802 15.7417C14.6207 15.3762 13.5513 15.454 12.5991 15.0652C12.3427 14.9641 12.101 14.8241 11.8666 14.7308C11.3589 14.5442 10.8068 14.5442 10.2991 14.7308C10.048 14.8228 9.81719 14.9682 9.62074 15.1581C9.42429 15.3479 9.26632 15.5782 9.15649 15.835C8.9734 16.3639 8.95036 16.9402 9.09057 17.4836C9.24636 18.2315 9.56215 18.9313 10.0135 19.5288C10.4089 19.9751 10.7829 20.4423 11.1341 20.9285C11.3075 21.1749 11.4193 21.4638 11.459 21.7684C11.4987 22.073 11.4651 22.3834 11.3612 22.6704C11.6396 22.4728 11.8361 22.1695 11.9106 21.8228C11.9415 22.0532 12.0482 22.2647 12.2117 22.4197C12.3752 22.5748 12.585 22.6636 12.8042 22.6704C12.8847 22.1805 12.328 21.7684 12.372 21.2707C12.3937 21.1507 12.4405 21.0374 12.509 20.9391C12.5774 20.8409 12.6658 20.7602 12.7675 20.703C12.9739 20.5892 13.1897 20.4955 13.4121 20.4231C13.9027 20.2231 14.3437 19.9066 14.7012 19.4977C14.0274 19.3111 13.3242 19.2411 12.6723 18.9922C12.337 18.8927 12.0262 18.7166 11.7618 18.4761C11.4973 18.2357 11.2856 17.9368 11.1415 17.6003C11.0694 17.4386 11.0455 17.2574 11.073 17.0809C11.1005 16.9045 11.178 16.7411 11.2953 16.6127C11.3963 16.5406 11.5116 16.4941 11.6322 16.4766C11.7528 16.459 11.8755 16.471 11.9911 16.5116C12.2255 16.5738 12.4452 16.6905 12.6796 16.7527C13.1873 16.8304 13.7028 16.8304 14.2105 16.7527C14.6158 16.7053 15.026 16.7502 15.4137 16.8843C15.8014 17.0183 16.1578 17.2386 16.4591 17.5303C16.9747 18.2415 17.6529 18.8009 18.4295 19.1555L18.7078 19.28C19.4042 19.4489 20.0714 19.7323 20.6854 20.1198C22.0478 21.2629 21.5278 23.7125 22.6045 25.1589C23.0293 25.7343 23.6812 26.0998 24.0328 26.7141C24.7653 28.0439 23.857 29.7158 23.835 31.2788C23.835 33.464 25.5856 35.2759 25.7394 37.4532C25.8127 38.4719 25.527 39.5217 25.798 40.5015C25.9864 40.9478 26.2923 41.3268 26.679 41.5926C27.0656 41.8585 27.5164 42 27.9771 42C28.4378 42 28.8886 41.8585 29.2752 41.5926C29.6619 41.3268 29.9678 40.9478 30.1562 40.5015C30.4272 39.5217 30.1562 38.4719 30.2148 37.4532C30.3759 35.2759 32.1485 33.464 32.1192 31.2788C32.1192 29.7236 31.1743 28.0439 31.9287 26.7141C32.2803 26.092 32.9249 25.7265 33.3497 25.1589C34.4338 23.7125 33.9064 21.2707 35.2761 20.1198C35.8869 19.7311 36.552 19.4476 37.2464 19.28L37.5321 19.1555C38.3049 18.798 38.9802 18.239 39.4951 17.5303C39.7964 17.2386 40.1528 17.0183 40.5405 16.8843C40.9282 16.7502 41.3384 16.7053 41.7437 16.7527C42.2538 16.8304 42.7718 16.8304 43.2819 16.7527C43.5163 16.6905 43.736 16.5738 43.9704 16.5116C44.086 16.471 44.2088 16.459 44.3294 16.4766C44.45 16.4941 44.5652 16.5406 44.6663 16.6127C44.7823 16.742 44.8585 16.9058 44.8847 17.0822C44.9109 17.2586 44.8858 17.4394 44.8127 17.6003C44.6686 17.9368 44.4569 18.2357 44.1924 18.4761C43.928 18.7166 43.6172 18.8927 43.2819 18.9922C42.63 19.2411 41.9268 19.3111 41.2603 19.4977C41.6151 19.9065 42.0536 20.2231 42.5421 20.4231C42.7645 20.4955 42.9803 20.5892 43.1867 20.703C43.2901 20.7578 43.3799 20.8378 43.4486 20.9365C43.5174 21.0351 43.5631 21.1497 43.5822 21.2707C43.6335 21.7684 43.0695 22.1805 43.1501 22.6704C43.3768 22.6748 43.5972 22.591 43.7699 22.4349C43.9425 22.2788 44.0555 22.0611 44.0876 21.8228C44.162 22.1695 44.3586 22.4728 44.637 22.6704C44.5331 22.3834 44.4994 22.073 44.5391 21.7684C44.5788 21.4638 44.6906 21.1749 44.864 20.9285C45.179 20.4153 45.5965 20.0109 45.9847 19.5288C46.4382 18.9317 46.7564 18.232 46.9149 17.4836C47.0476 16.9393 47.0247 16.3654 46.849 15.835Z" fill="url(#paint3_radial_12164_1943)"/>
<path d="M46.4902 16.2005C46.3937 15.9756 46.2549 15.7741 46.0823 15.6083C45.9097 15.4424 45.707 15.3158 45.4867 15.2362C45.045 15.0769 44.566 15.0769 44.1243 15.2362C43.9046 15.3218 43.6922 15.4384 43.4724 15.524C42.6447 15.8661 41.6632 15.8272 40.8136 16.0839C40.0078 16.3326 39.286 16.821 38.7334 17.4914C38.4309 17.9398 38.0105 18.2833 37.5248 18.479C36.7468 18.7035 35.932 18.746 35.137 18.6034C32.9396 18.2923 30.7056 17.6002 28.4716 17.5925H27.4901C25.2488 17.5925 23.0514 18.2923 20.8174 18.6034C20.0223 18.7457 19.2076 18.7033 18.4295 18.479C17.945 18.2849 17.5265 17.9409 17.2283 17.4914C16.6757 16.821 15.9538 16.3326 15.1481 16.0839C14.2911 15.8272 13.3096 15.8661 12.4819 15.524C12.2622 15.4384 12.0498 15.3218 11.83 15.2362C11.3883 15.0769 10.9094 15.0769 10.4677 15.2362C10.2476 15.3147 10.0454 15.4409 9.87387 15.6069C9.70235 15.773 9.56533 15.9751 9.47152 16.2005C9.31116 16.6591 9.29067 17.1597 9.41293 17.6313C9.54482 18.2843 9.82098 18.8947 10.2186 19.4121C10.567 19.7971 10.8924 20.2049 11.1928 20.633C11.4466 21.0866 11.576 21.6064 11.5664 22.1338C11.6103 22.0094 11.8374 21.5428 11.8667 21.4029C11.8866 21.601 11.9442 21.7929 12.0362 21.9667C12.1281 22.1405 12.2523 22.2926 12.4014 22.4138C12.2808 22.0146 12.1877 21.6065 12.123 21.1929C12.1169 21.0434 12.145 20.8945 12.205 20.7591C12.265 20.6237 12.355 20.5057 12.4673 20.4153C12.6688 20.304 12.8797 20.2129 13.0972 20.1431C13.4378 20.0427 13.7465 19.8466 13.9908 19.5754C13.4324 19.4702 12.8797 19.3326 12.3354 19.1633C12.0184 19.0504 11.7249 18.8735 11.4711 18.6423C11.1418 18.4159 10.8861 18.0873 10.7387 17.7013C10.6744 17.4972 10.6575 17.2796 10.6894 17.0671C10.7213 16.8545 10.801 16.6533 10.9218 16.4805C11.0086 16.4065 11.1081 16.351 11.2148 16.3171C11.4177 16.2245 11.6405 16.1922 11.8593 16.2238C12.0718 16.2783 12.2768 16.3949 12.4893 16.4571C12.9895 16.5506 13.4984 16.5819 14.0055 16.5504C14.641 16.4992 15.2794 16.6002 15.8732 16.8459C16.4586 17.2364 16.9785 17.7279 17.4114 18.3001C18.4515 19.3577 20.3413 19.1244 21.0005 19.0233C21.5973 18.9354 22.2001 18.9016 22.8023 18.9222C23.5443 18.8927 24.2734 19.1342 24.8679 19.6065C25.4758 20.2209 25.5491 21.1618 25.7029 22.0716C25.9375 23.3901 26.4371 24.6394 27.1678 25.7343C27.3283 26.0127 27.5628 26.2345 27.8417 26.3719C27.9219 26.3833 28.0032 26.3833 28.0834 26.3719C28.3895 26.2473 28.6474 26.0173 28.8158 25.7187C29.5498 24.6258 30.0498 23.3757 30.2808 22.0561C30.4346 21.1773 30.5078 20.2053 31.1158 19.591C31.7108 19.1198 32.4395 18.8784 33.1813 18.9067C33.7835 18.8858 34.3864 18.9196 34.9832 19.0078C35.6204 19.1089 37.5395 19.3421 38.5722 18.2845C39.0069 17.7141 39.5265 17.2229 40.1104 16.8304C40.7067 16.584 41.3475 16.483 41.9855 16.5349C42.4902 16.5663 42.9966 16.535 43.4944 16.4416C43.7068 16.3793 43.9119 16.2627 44.1316 16.2083C44.3481 16.1773 44.5684 16.2096 44.7689 16.3016C44.8755 16.3355 44.975 16.3909 45.0618 16.4649C45.1826 16.6377 45.2624 16.839 45.2942 17.0515C45.3261 17.2641 45.3092 17.4816 45.245 17.6858C45.0975 18.0718 44.8418 18.4003 44.5125 18.6267C44.2587 18.8579 43.9652 19.0349 43.6482 19.1477C43.0917 19.3179 42.5269 19.4554 41.9562 19.5599C42.1981 19.8342 42.5077 20.0309 42.8498 20.1276C43.0645 20.1987 43.2728 20.2898 43.4724 20.3997C43.5856 20.4897 43.6767 20.6074 43.7379 20.7428C43.7991 20.8782 43.8286 21.0272 43.824 21.1773C43.7531 21.5903 43.6577 21.9981 43.5383 22.3982C43.6896 22.2793 43.8155 22.1278 43.9076 21.9536C43.9998 21.7793 44.0562 21.5863 44.073 21.3873C44.073 21.5273 44.3367 21.9939 44.3733 22.1183C44.3637 21.5908 44.4931 21.071 44.7469 20.6174C45.0495 20.1912 45.3748 19.7836 45.7211 19.3966C46.1181 18.8777 46.3964 18.2681 46.5341 17.6158C46.6523 17.1499 46.637 16.6571 46.4902 16.2005Z" fill="#C0432E"/>
<path d="M28.3907 18.0901H27.5557C26.3974 18.1247 25.2447 18.2758 24.1132 18.5411C24.1132 18.5411 24.9921 19.4587 25.3144 19.7776C25.758 20.3767 26.0141 21.1081 26.0468 21.8694C26.253 22.9898 26.6826 24.0504 27.3067 24.9799C27.4425 25.2152 27.6414 25.4021 27.878 25.5165C27.946 25.5276 28.0151 25.5276 28.0831 25.5165C28.3344 25.4065 28.5452 25.2127 28.6837 24.9644C29.3138 24.0384 29.7439 22.9763 29.9436 21.8538C29.9797 21.0933 30.2354 20.3629 30.676 19.762C31.1983 19.3288 31.7546 18.9437 32.3387 18.6111C31.0408 18.3078 29.7191 18.1334 28.3907 18.0901Z" fill="#D95455"/>
<path d="M29.7383 34.3349C29.7248 33.673 29.9066 33.0231 30.2584 32.4764C30.4049 32.3053 30.588 32.1653 30.7198 31.9787C30.7916 31.8912 30.8365 31.7824 30.8483 31.667C30.86 31.5516 30.8382 31.4351 30.7857 31.3333C30.6943 31.2243 30.5658 31.1582 30.4286 31.1494C30.2913 31.1407 30.1564 31.19 30.0533 31.2866C29.8514 31.4806 29.6785 31.7061 29.5405 31.9554C29.4702 32.0778 29.3726 32.1801 29.2564 32.2533C29.1402 32.3265 29.009 32.3684 28.874 32.3753C28.4345 32.3364 28.6836 31.3177 28.6177 30.8201C28.4502 30.312 28.3156 29.7923 28.2148 29.2648C28.2148 29.1326 28.2661 29.0004 28.2807 28.8682C28.3171 28.4673 28.3171 28.0637 28.2807 27.6629C28.2075 26.7377 28.2297 25.8068 28.3466 24.8867C28.1562 24.8867 28.083 25.1511 28.0463 25.3533C28.03 25.4276 28.0177 25.5029 28.0097 25.5788L27.9658 25.3533C27.9291 25.1511 27.8559 24.9178 27.6654 24.8867C27.7885 25.8062 27.8131 26.7375 27.7387 27.6629C27.684 28.0619 27.6693 28.4659 27.6947 28.8682C27.6947 29.0004 27.7387 29.1326 27.768 29.2648C27.6606 29.7906 27.5261 30.3098 27.3651 30.8201C27.2992 31.2789 27.5409 32.2976 27.1015 32.3753C26.9667 32.3677 26.8356 32.3256 26.7195 32.2524C26.6034 32.1793 26.5058 32.0774 26.4349 31.9554C26.297 31.7061 26.1241 31.4806 25.9222 31.2866C25.8191 31.19 25.6842 31.1407 25.5469 31.1494C25.4096 31.1582 25.2812 31.2243 25.1897 31.3333C25.1392 31.4357 25.1185 31.5517 25.1303 31.6666C25.142 31.7816 25.1857 31.8902 25.2557 31.9787C25.3875 32.1653 25.5706 32.3053 25.7171 32.4764C26.0689 33.0231 26.2507 33.673 26.2372 34.3349C26.333 35.4847 26.5068 36.6256 26.7572 37.7488C27.0284 38.4997 27.0284 39.3307 26.7572 40.0816C26.6325 40.2743 26.5269 40.4802 26.4422 40.696C26.3906 40.9383 26.4137 41.1918 26.5082 41.4192C26.577 41.5099 26.6631 41.5844 26.7608 41.6376C26.8585 41.6908 26.9656 41.7217 27.0752 41.7281C27.1848 41.7346 27.2945 41.7165 27.3971 41.6751C27.4998 41.6336 27.593 41.5698 27.6709 41.4876C27.7488 41.4055 27.8096 41.3069 27.8493 41.1982C27.889 41.0895 27.9067 40.9732 27.9014 40.8568C27.896 40.7403 27.8677 40.6264 27.8182 40.5223C27.7687 40.4183 27.6992 40.3264 27.6142 40.2527C27.5982 39.8278 27.5417 39.4058 27.4457 38.9929C27.4196 38.4749 27.4196 37.9557 27.4457 37.4377C27.4457 36.2246 26.9183 35.0659 26.8524 33.8606C26.827 33.7162 26.8315 33.5676 26.8657 33.4253C26.8998 33.2829 26.9628 33.1502 27.0502 33.0363C27.226 32.8419 27.497 32.7952 27.6947 32.6319C27.823 32.5083 27.9167 32.3495 27.9658 32.1731C28.0093 32.3521 28.1039 32.5124 28.2368 32.6319C28.4272 32.7952 28.7055 32.8419 28.8813 33.0363C28.9655 33.1521 29.0264 33.285 29.0604 33.4267C29.0944 33.5685 29.1008 33.7161 29.0791 33.8606C29.0059 35.0659 28.5005 36.1935 28.4785 37.4377C28.5046 37.9557 28.5046 38.4749 28.4785 38.9929C28.3861 39.4065 28.3297 39.8282 28.31 40.2527C28.3929 40.8003 28.6275 41.3092 28.9839 41.7147C29.1372 41.6281 29.2842 41.5294 29.4234 41.4192C29.514 41.1908 29.537 40.9385 29.4893 40.696C29.402 40.48 29.294 40.2741 29.167 40.0816C28.8999 39.3299 28.8999 38.5005 29.167 37.7488C29.4346 36.6269 29.6256 35.486 29.7383 34.3349Z" fill="#D95455"/>
</g>
<defs>
<linearGradient id="paint0_linear_12164_1943" x1="13549.8" y1="24176.8" x2="9673.91" y2="19870.7" gradientUnits="userSpaceOnUse">
<stop stop-color="white" stop-opacity="0"/>
<stop offset="1" stop-color="#2A4F90"/>
</linearGradient>
<radialGradient id="paint1_radial_12164_1943" cx="0" cy="0" r="1" gradientUnits="userSpaceOnUse" gradientTransform="translate(17.2286 21.5273) scale(3.80147 4.03592)">
<stop offset="0.02" stop-color="#FBD6D3"/>
<stop offset="0.42" stop-color="#FACFCC"/>
<stop offset="1" stop-color="#F9BDB8"/>
</radialGradient>
<radialGradient id="paint2_radial_12164_1943" cx="0" cy="0" r="1" gradientUnits="userSpaceOnUse" gradientTransform="translate(4645.03 1767.35) scale(51.7347 22.7645)">
<stop offset="0.02" stop-color="#FBD6D3"/>
<stop offset="0.42" stop-color="#FACFCC"/>
<stop offset="1" stop-color="#F9BDB8"/>
</radialGradient>
<radialGradient id="paint3_radial_12164_1943" cx="0" cy="0" r="1" gradientUnits="userSpaceOnUse" gradientTransform="translate(28.3983 25.0111) scale(10.6573 11.3145)">
<stop stop-color="#FBB09F"/>
<stop offset="1" stop-color="#FA8C90"/>
</radialGradient>
<clipPath id="clip0_12164_1943">
<rect width="56" height="56" rx="28" fill="white"/>
</clipPath>
</defs>
</svg>
