<svg width="56" height="56" viewBox="0 0 56 56" fill="none" xmlns="http://www.w3.org/2000/svg">
<g clip-path="url(#clip0_12164_975)">
<rect width="56" height="56" rx="28" fill="#54D1FF"/>
<path d="M58 2H2V58H58V2Z" fill="#54D1FF"/>
<g style="mix-blend-mode:multiply" opacity="0.26">
<path style="mix-blend-mode:multiply" opacity="0.26" d="M58 41.4409V58.0001H36.566L19.9844 37.7589L24.2208 20.5081L30.9184 9.08691L58 41.4409Z" fill="url(#paint0_linear_12164_975)"/>
</g>
<g style="mix-blend-mode:multiply" opacity="0.26">
<path style="mix-blend-mode:multiply" opacity="0.26" d="M29.3755 12.4047L27.4127 9.69991L27.4099 14.2835L23.9155 9.32471L22.6275 16.0223L20.3959 12.8443L19.0715 16.5263L19.1331 24.3999L32.0047 15.9663L29.3755 12.4047Z" fill="url(#paint1_linear_12164_975)"/>
</g>
<path d="M34.046 23.21C35.6252 23.5712 37.9828 22.6192 38.2768 22.5996C38.5708 22.58 39.59 23.9996 39.184 24.414C38.778 24.8284 34.9504 25.0496 34.046 23.21Z" fill="#CC0500"/>
<g style="mix-blend-mode:multiply" opacity="0.36">
<path d="M34.9224 24.0976C36.3812 24.9376 38.8592 24.7388 39.184 24.414C39.2337 24.348 39.2659 24.2706 39.2776 24.1888C39.2894 24.1071 39.2803 24.0237 39.2512 23.9464C38.7164 24.0836 38.1116 24.3356 37.8736 24.33C37.168 24.3132 36.6976 23.686 36.2832 23.126C36.1488 23.154 36.0032 23.1792 35.8772 23.2016L34.9224 24.0976Z" fill="#A12252"/>
</g>
<path d="M31.638 19.5449C31.078 18.9093 29.6528 18.8029 28.88 17.5849C28.4768 16.9465 28.1632 15.7089 27.7908 15.1293C27.186 14.1857 26.206 14.8213 26.1108 15.6893C26.038 16.4761 27.3064 19.1137 27.7628 19.7605C28.4796 20.7433 30.3948 20.8413 31.638 19.5449Z" fill="#00A4DD"/>
<g style="mix-blend-mode:multiply" opacity="0.3">
<path d="M29.762 20.48C30.2126 20.0568 30.4791 19.4736 30.504 18.856C29.8477 18.5971 29.2827 18.15 28.88 17.5708C28.5244 17.0108 28.2388 15.9888 27.9252 15.356C27.8307 15.4671 27.7627 15.5983 27.7264 15.7396C27.5388 16.4424 28.068 17.1396 28.2864 17.736C28.4488 18.1784 28.5832 19.3068 27.7264 19.136C27.2532 19.0408 26.7072 17.68 26.7072 17.68C27.0029 18.3956 27.3569 19.0858 27.7656 19.7436C28.1688 20.3036 28.9416 20.578 29.762 20.48Z" fill="#004056"/>
</g>
<path d="M17.7192 26.8219C16.7056 27.9419 16.8372 30.8875 17.1312 32.3183C17.4952 34.0823 18.7608 36.0115 19.7716 37.5067C22.0393 40.8843 25.1385 43.6209 28.7708 45.4531C30.28 46.2371 32.4304 46.9231 34.172 46.5899C36.062 46.2287 37.6188 43.8123 38.3496 42.0511C40.3096 37.2911 40.2228 33.0463 38.0108 28.4151C36.5716 25.4023 34.7348 24.1283 31.7164 22.7423C29.3224 21.6419 25.5928 21.2499 23.1036 22.0647C21.9568 22.4206 20.888 22.9907 19.9536 23.7447C19.206 24.3691 18.6348 25.3743 17.7192 26.8219Z" fill="#FF5252"/>
<g style="mix-blend-mode:multiply" opacity="0.36">
<path d="M38.0108 28.4151C36.5716 25.4023 34.7348 24.1283 31.7164 22.7423C29.3224 21.6419 25.5928 21.2499 23.1036 22.0647L22.9412 22.1235C22.7403 22.8634 22.7336 23.6426 22.9216 24.3859C23.6384 26.9843 26.5616 27.1187 28.4572 28.2443C33.0856 30.9771 35.7372 37.3667 33.6596 42.4655C32.66 44.9323 31.0556 45.5119 29.09 45.6127C30.574 46.3267 32.5508 46.9007 34.172 46.5899C36.062 46.2287 37.6188 43.8123 38.3496 42.0511C40.3124 37.2995 40.2228 33.0463 38.0108 28.4151Z" fill="#A12252"/>
</g>
<g style="mix-blend-mode:multiply" opacity="0.36">
<path d="M29.1012 23.8231C29.02 26.6567 34.1692 26.4355 35.768 27.2391C36.2748 27.4967 37.8512 28.7931 37.4032 27.4491C36.8432 25.8027 34.7964 24.1451 32.142 23.7307L29.1012 23.8231Z" fill="#A12252"/>
</g>
<g style="mix-blend-mode:multiply" opacity="0.36">
<path d="M32.3549 46.6179C32.7261 46.6665 33.1007 46.6842 33.4749 46.6711C36.1909 45.3551 37.9773 42.3563 38.5149 38.1199C38.8677 35.2919 38.7137 32.1923 37.7757 29.5379C37.2773 28.1379 36.6557 26.9255 35.5693 25.8475C35.0597 25.3491 34.1693 24.6491 33.6289 25.4331C33.0885 26.2171 33.9313 27.5863 34.2309 28.2863C35.5861 31.4699 36.7761 34.8299 36.8545 38.3299C36.9357 42.7315 35.4825 45.5203 32.3549 46.6179Z" fill="#A12252"/>
</g>
<path d="M19.7296 25.1645C20.2896 23.1093 21.726 20.8581 21.4404 18.6321C21.1436 16.3109 22.0732 15.0677 21.9332 12.6961C21.8268 10.8985 21.3032 9.74486 22.9888 9.22966C24.7444 8.69206 23.7616 10.8369 24.2544 11.6405C25.254 13.2785 25.9876 11.8365 25.6544 10.5065C25.3968 9.51246 25.6208 8.38686 26.9004 9.15406C28.1128 9.87926 27.2168 10.9377 27.6508 11.4081C28.6868 12.5281 28.6476 8.56046 28.978 8.23286C29.3084 7.90526 31.3524 8.48766 31.1004 9.19046C30.6944 10.3105 30.196 11.0497 31.9404 12.9845C33.6848 14.9193 34.2224 18.2849 34.102 20.5053C34.032 21.7849 30.8848 22.8517 30.7924 21.1045C30.6216 17.9293 28.1072 13.4493 27.242 18.7273C27.0404 19.9593 28.2612 21.2977 27.7852 22.5297C27.3092 23.7617 26.6988 24.3945 25.4472 24.9377C23.154 25.9261 20.8636 25.8589 19.7296 25.1645Z" fill="#CC0500"/>
<path d="M30.1092 21.0037C28.2696 21.0681 29.2692 24.0305 29.916 24.8089C30.366 25.3597 30.9676 25.7666 31.6464 25.9793C37.6804 27.5053 35.2164 25.1393 35.7708 25.6825C36.4036 26.3153 36.5604 27.8245 37.4872 26.6317C38.3272 25.5397 36.1096 23.2437 35.3676 22.6221C33.8388 21.3397 31.75 20.6061 30.1092 21.0037Z" fill="#FF9FA8"/>
<g style="mix-blend-mode:multiply" opacity="0.57">
<path d="M23.7953 9.37245C23.5153 9.03925 22.1825 9.42005 21.9641 10.0585C21.6477 10.9853 24.0613 9.70285 23.7953 9.37245Z" fill="#5C0500"/>
</g>
<g style="mix-blend-mode:multiply" opacity="0.57">
<path d="M26.7548 9.2101C26.2284 8.9637 26.0296 9.0225 25.828 9.2353C25.548 9.5153 26.108 10.7109 26.8528 10.5177C27.662 10.3077 27.2812 9.4537 26.7548 9.2101Z" fill="#5C0500"/>
</g>
<g style="mix-blend-mode:multiply" opacity="0.57">
<path d="M29.1936 8.2889C28.7736 8.7117 30.4816 9.3641 30.9184 9.0869C31.3552 8.8097 29.4792 8.0061 29.1936 8.2889Z" fill="#5C0500"/>
</g>
<g style="mix-blend-mode:multiply" opacity="0.36">
<path d="M17.2236 32.5703C17.4672 33.1471 17.8844 34.0235 18.5508 34.0375C19.2172 34.0515 18.9064 33.2395 21.7988 32.3267C22.7592 32.0243 22.6388 30.6047 22.874 29.7423C23.126 28.7847 24.6212 28.9611 24.9796 28.1715C25.1616 27.7627 24.9796 27.2279 25.1672 26.7883C25.3548 26.3487 25.828 26.2507 25.6796 25.5871C22.8992 24.7135 19.08 28.0399 17.68 30.1763L17.2236 32.5703Z" fill="#A12252"/>
</g>
<g style="mix-blend-mode:multiply" opacity="0.36">
<path d="M26.0632 26.6401C25.8784 27.1301 26.5084 27.9141 26.9032 28.1297C27.3736 28.3845 28.2108 28.4097 28.7596 28.4097C29.4422 28.4493 30.1259 28.3533 30.7713 28.1275C31.4167 27.9016 32.011 27.5503 32.52 27.0937C33.64 26.1025 33.164 24.7669 33.64 23.4845C33.864 22.8825 34.7264 22.4037 34.3764 21.7625C34.0964 21.2697 33.3236 21.0709 32.842 20.9225C29.16 19.8585 30.4368 26.9929 26.0632 26.6401Z" fill="#A12252"/>
</g>
<g style="mix-blend-mode:screen" opacity="0.46">
<path d="M25.24 30.1764C23.3892 30.7364 22.0144 32.8028 21.4628 34.5528C20.5416 37.4648 22.0228 40.0156 24.3104 41.7712C25.7496 42.8688 28.2836 44.7924 30.2128 44.1988C32.9792 43.3448 33.5224 39.226 33.0464 36.8096C32.6684 34.8944 31.7416 32.9484 30.3584 31.596C29.44 30.6944 27.5584 29.4904 25.24 30.1764Z" fill="#FF5252"/>
</g>
<g style="mix-blend-mode:screen" opacity="0.43">
<path d="M24.148 31.9265C20.4576 32.8617 22.4512 38.6129 24.3524 40.2901C25.1084 40.9565 26.668 41.8805 27.5724 41.2505C29.0004 40.2593 28.3928 37.6105 28.1996 36.1657C27.872 33.7241 26.85 31.7501 24.148 31.9265Z" fill="#FF5252"/>
</g>
<g style="mix-blend-mode:multiply" opacity="0.36">
<path d="M31.9236 12.9843C30.1876 11.0495 30.686 10.3131 31.0836 9.19035C31.0918 9.16581 31.0975 9.14047 31.1004 9.11475C30.7112 9.37795 30.2044 9.59915 30.0616 9.91555C29.6108 10.8955 30.1988 12.0323 30.7756 12.7491C32.2092 14.5271 33.0156 16.6691 32.786 18.9875C32.7216 19.6567 32.4052 20.9475 32.5508 21.9051C33.0168 21.7714 33.4383 21.5152 33.7716 21.1631C33.8108 20.9419 33.8444 20.7403 33.8836 20.6031C33.9536 20.3427 34.0208 20.0711 34.0908 19.7967C34.0796 17.6043 33.4832 14.7175 31.9236 12.9843Z" fill="#A12252"/>
</g>
<g style="mix-blend-mode:multiply" opacity="0.36">
<path d="M24.554 12.5755C24.6399 12.5906 24.7283 12.5778 24.8064 12.539C24.8845 12.5002 24.9481 12.4374 24.988 12.3599C24.7724 12.3039 24.5232 12.0799 24.2544 11.6459C23.9016 11.0691 24.3076 9.80072 23.9156 9.33032C23.9324 9.85392 23.4368 9.83992 23.2296 10.2431C22.8628 10.9431 23.7392 12.5559 24.554 12.5755Z" fill="#A12252"/>
</g>
<path d="M31.1592 21.3675C33.7604 21.7287 36.3924 18.3127 37.1484 18.3127C37.574 18.3127 38.7864 21.1127 38.0864 21.2779C37.3864 21.4431 36.16 22.5799 35.0848 23.0559C33.92 23.5599 31.33 22.9999 31.1592 21.3675Z" fill="#CC0500"/>
<g style="mix-blend-mode:multiply" opacity="0.36">
<path d="M37.8736 19.7016C37.4417 20.2267 36.9471 20.6969 36.4008 21.1016C35.8772 21.4516 35.32 21.7456 34.6956 21.5048C34.3084 21.3344 33.9767 21.0589 33.738 20.7096C33.4751 20.8603 33.2019 20.9922 32.9204 21.1044L32.2092 22.0088C33.0828 22.5492 33.7912 23.1764 34.8776 23.1064H34.9644L35.0848 23.0588C36.1712 22.5828 37.3864 21.4404 38.0864 21.2808C38.4588 21.194 38.288 20.354 37.98 19.6008C37.9436 19.64 37.9072 19.668 37.8736 19.7016Z" fill="#A12252"/>
</g>
<g style="mix-blend-mode:multiply" opacity="0.36">
<path d="M27.4157 11.7999C27.4639 11.8247 27.5168 11.839 27.5709 11.8418C27.625 11.8447 27.6791 11.836 27.7296 11.8165C27.7802 11.7969 27.826 11.7668 27.864 11.7283C27.9021 11.6897 27.9316 11.6435 27.9505 11.5927C27.8275 11.5667 27.7182 11.4971 27.6425 11.3967C27.2561 10.9767 27.9225 10.0863 27.2085 9.38354C27.3208 9.58747 27.3894 9.81249 27.4101 10.0443C27.3765 10.6435 26.3321 11.4079 27.4157 11.7999Z" fill="#A12252"/>
</g>
<g style="mix-blend-mode:multiply" opacity="0.36">
<path d="M30.924 17.652C30.49 16.4172 28.7988 14.292 27.3288 15.048C25.982 15.7536 25.954 18.0412 25.6964 19.2676C25.4024 20.6676 25.3156 22.2776 24.4056 23.5012C24.0666 23.9399 23.6089 24.2722 23.0868 24.4588C23.028 24.0052 22.93 23.5516 22.8824 23.1092C22.776 22.0536 22.916 21.2892 23.7224 20.6228C24.4392 20.0376 25.31 19.3992 25.6824 18.4808C25.8924 17.9516 26.0548 16.364 25.4024 16.084C24.9852 15.9076 24.1424 16.364 23.7644 16.5208C23.0616 16.8008 22.3896 17.1424 21.6952 17.4224L21.4012 18.1084C21.4012 18.2792 21.4236 18.45 21.446 18.632C21.726 20.858 20.3008 23.112 19.7352 25.1644C20.8692 25.8588 23.1596 25.926 25.436 24.9376C26.6876 24.3944 27.312 23.7252 27.774 22.5296C28.236 21.334 27.0292 19.9592 27.2308 18.7272C28.096 13.4492 30.6104 17.9292 30.7812 21.1044C30.7784 21.2916 30.8364 21.4747 30.9464 21.6262C31.0565 21.7776 31.2127 21.8893 31.3916 21.9444C31.4955 21.4779 31.5342 20.9992 31.5064 20.522C31.4425 19.5435 31.2466 18.5781 30.924 17.652Z" fill="#A12252"/>
</g>
<g style="mix-blend-mode:multiply" opacity="0.57">
<path d="M38.274 22.6975C37.9212 23.0503 38.7752 24.5567 39.1308 24.3775C39.4864 24.1983 38.4616 22.5071 38.274 22.6975Z" fill="#5C0500"/>
</g>
<path d="M16.9185 26.696C17.0053 25.5333 17.1662 24.3774 17.4001 23.2352C17.6437 21.8016 18.1449 20.3932 18.0133 18.8952C17.9041 17.6324 17.3049 15.2384 17.6857 13.9616C18.0049 12.8892 19.1557 11.8588 20.3149 12.7828C21.2725 13.5444 20.4717 15.7844 20.9617 16.8288C21.9893 16.9688 22.9217 15.3308 23.9745 15.1488C25.4837 14.908 25.9345 16.6916 25.5453 17.974C25.2121 19.094 24.3469 19.402 23.3333 19.8248C21.7821 20.4744 21.4685 20.5528 21.5357 22.4204C21.5693 23.35 21.6953 24.2012 21.6421 25.1056C21.4797 27.76 19.8305 27.3204 16.9185 26.696Z" fill="#00B1FF"/>
<g style="mix-blend-mode:multiply" opacity="0.69">
<path d="M24.3328 15.3447C22.9076 15.3447 23.0756 18.7047 24.2852 18.8839C25.758 19.1051 26.01 15.4399 24.3328 15.3447Z" fill="#004056"/>
</g>
<path d="M30.1092 21.0037C28.2696 21.0681 29.2692 24.0305 29.916 24.8089C30.366 25.3597 30.9676 25.7666 31.6464 25.9793C37.6804 27.5053 35.2164 25.1393 35.7708 25.6825C36.4036 26.3153 36.5604 27.8245 37.4872 26.6317C38.3272 25.5397 36.1096 23.2437 35.3676 22.6221C33.8388 21.3397 31.75 20.6061 30.1092 21.0037Z" fill="#FF9FA8"/>
<g style="mix-blend-mode:multiply" opacity="0.36">
<path d="M35.7708 25.6823C36.4036 26.3151 36.5604 27.8243 37.4872 26.6315C38.3272 25.5395 36.1096 23.2435 35.3676 22.6219C34.3317 21.7381 33.0723 21.1569 31.7276 20.9419C32.254 21.2667 33.0576 21.2947 33.5784 21.6307C34.3876 22.1543 35.6252 23.0307 36.2496 23.8287C37.2296 25.0971 35.8912 25.5647 35.1296 25.4443C33.8612 25.2427 32.828 25.6823 31.8144 24.6995C31.0192 23.9239 30.3248 23.9687 29.4344 23.9519C29.5527 24.2582 29.7129 24.5465 29.9104 24.8087C30.3605 25.3595 30.9621 25.7664 31.6408 25.9791C37.6804 27.5051 35.2164 25.1279 35.7708 25.6823Z" fill="#A12252"/>
</g>
<path d="M26.1193 27.1777C25.4921 26.1249 26.1361 24.9825 26.8613 22.6809C27.6509 20.1777 28.1717 18.9233 30.8149 17.4141C32.8925 16.2269 35.5077 15.4121 35.7093 17.5793C36.0089 20.8217 31.1481 19.8193 30.2997 22.9469C29.9217 24.3469 30.4761 25.7833 29.8545 27.0769C29.1153 28.6169 26.9817 28.6253 26.1193 27.1777Z" fill="#00B1FF"/>
<g style="mix-blend-mode:multiply" opacity="0.57">
<path d="M37.1876 18.4779C36.7816 18.4583 37.6552 21.0763 38.1032 21.1043C38.4448 21.1267 37.56 18.4947 37.1876 18.4779Z" fill="#5C0500"/>
</g>
<g style="mix-blend-mode:screen" opacity="0.43">
<path d="M18.8504 12.7407C18.0104 13.3539 17.7724 14.2723 17.8984 15.2607C18.072 16.6215 18.296 17.9319 18.3576 19.3319C18.3669 20.3031 18.2039 21.2682 17.876 22.1823C17.652 22.8935 17.316 23.4619 17.9208 23.9771C18.2204 24.2291 18.8308 24.9627 19.1332 24.4027C19.4356 23.8427 19.3712 23.0027 19.4132 22.4119C19.499 21.6535 19.5206 20.8892 19.4776 20.1271C19.3348 18.4163 18.8644 16.7671 18.87 15.0283C18.8666 14.5589 18.9069 14.0902 18.9904 13.6283C19.0417 13.4802 19.0558 13.3218 19.0313 13.167C19.0069 13.0122 18.9448 12.8658 18.8504 12.7407Z" fill="#92CEFF"/>
</g>
<g style="mix-blend-mode:screen" opacity="0.43">
<path d="M23.1176 15.72C22.7217 16.1142 22.2842 16.4644 21.8128 16.7644C21.3144 17.1088 20.9728 17.1088 21.0596 17.8088C21.1072 18.1812 21.278 19.0156 21.8268 18.5956C22.0116 18.4528 22.0928 18.1812 22.2412 18.0104C22.4456 17.7752 22.818 17.7024 22.9944 17.5036C23.1708 17.3048 23.0896 16.9436 23.0784 16.7112C23.0516 16.3804 23.0648 16.0476 23.1176 15.72Z" fill="#92CEFF"/>
</g>
<g style="mix-blend-mode:screen" opacity="0.43">
<path d="M34.5976 16.3948C32.8784 16.3948 31.302 17.2348 29.9328 18.2344C29.0411 18.8925 28.3153 19.7496 27.8132 20.7376C27.1804 22.0032 26.9732 23.3668 26.5168 24.6996C26.3236 25.2792 26.1108 25.7692 26.1864 26.3796C26.2368 26.7828 26.4244 27.4688 26.8864 27.5584C27.3092 27.2784 27.2448 26.332 27.2952 25.8784C27.4352 24.6268 27.4912 22.16 29.0592 20.0152C31.4 16.84 34.2672 16.8092 35.1184 16.56L34.5976 16.3948Z" fill="#92CEFF"/>
</g>
<g style="mix-blend-mode:multiply" opacity="0.3">
<path d="M35.7093 17.5792C35.6932 17.2938 35.6045 17.0172 35.4517 16.7756C35.3431 17.0417 35.1616 17.2718 34.9281 17.4392C33.8781 18.1952 32.3101 18.2316 31.1593 19.0464C29.7817 20.0236 29.3141 21.4544 28.9501 23.0028C28.6505 24.2656 28.6421 25.8336 28.0429 26.9704C27.9194 27.2084 27.7427 27.4148 27.5267 27.5736C27.3106 27.7323 27.0609 27.8393 26.7969 27.886C27.0444 28.056 27.3258 28.1705 27.6217 28.2218C27.9176 28.273 28.221 28.2598 28.5113 28.183C28.8016 28.1061 29.0719 27.9675 29.3037 27.7766C29.5355 27.5857 29.7234 27.347 29.8545 27.0768C30.4761 25.7832 29.9217 24.3552 30.2997 22.9468C31.1481 19.8052 36.0089 20.8216 35.7093 17.5792Z" fill="#004056"/>
</g>
<g style="mix-blend-mode:multiply" opacity="0.3">
<path d="M25.212 18.6628C25.0903 18.795 24.94 18.8975 24.7726 18.9626C24.6051 19.0276 24.425 19.0534 24.246 19.038C24.0136 19.0156 23.7812 18.8028 23.56 18.8616C23.406 18.9036 23.182 19.2424 23.0308 19.3404C22.2664 19.8416 21.04 19.4776 20.3848 20.0768C19.6204 20.7768 20.032 22.0788 19.9844 22.9944C19.9198 24.4269 19.525 25.825 18.8308 27.0796C20.55 27.3596 21.5188 27.1076 21.6308 25.1196C21.684 24.2152 21.558 23.364 21.5244 22.4344C21.4572 20.5668 21.7708 20.4744 23.322 19.8388C24.0948 19.5168 24.7808 19.2592 25.212 18.6628Z" fill="#004056"/>
</g>
<g style="mix-blend-mode:multiply" opacity="0.3">
<path d="M20.6369 16.84C20.7344 16.813 20.8284 16.7744 20.9169 16.7252C20.5277 15.6388 21.2389 13.5304 20.3149 12.8052C20.0779 12.6039 19.7845 12.4807 19.4749 12.4524C19.6697 12.9755 19.7858 13.5247 19.8193 14.082C19.8631 14.7238 19.8226 15.3687 19.6989 16C19.5869 16.6832 19.8669 17.0584 20.6369 16.84Z" fill="#004056"/>
</g>
<path d="M16.5124 23.8401C15.0228 26.7297 13.9084 30.7617 17.1368 33.4469C17.8396 34.0293 18.688 34.0069 19.3068 33.1473C19.6624 32.6545 19.4944 32.3661 19.4328 32.0413C19.3348 31.5205 20.088 32.8561 20.5528 32.7581C21.8912 32.4781 22.0284 31.6381 22.1432 30.3865C22.3 28.6645 22.9524 29.4513 23.9184 28.7849C24.6576 28.2781 24.68 27.7097 24.4532 26.7773C24.3244 26.2397 25.6404 25.8533 25.4332 25.3773C25.1868 24.8173 21.2108 24.4785 20.4492 25.0973C18.5536 26.6121 18.66 23.5293 16.5124 23.8401Z" fill="#FF9FA8"/>
<g style="mix-blend-mode:multiply" opacity="0.36">
<path d="M25.4304 25.38C25.184 24.82 21.208 24.4812 20.4464 25.1C18.7216 26.4832 18.6572 24.0556 17.0388 23.8372C17.7018 24.1721 18.2476 24.7003 18.604 25.352C19.122 26.2256 19.3376 26.318 20.396 25.996C21.0764 25.786 22.1516 25.3072 22.7284 26.0408C23.5684 27.1132 22.1152 27.6368 21.3816 27.8076C21.012 28.7512 21.4348 29.7676 21.2668 30.7784C21.0008 32.3968 19.5868 32.6264 18.9512 31.106C19.0212 31.9068 19.3376 33.0016 18.6488 33.458C18.4164 33.612 18.142 33.6932 17.5288 33.6932C18.142 33.9928 18.8112 33.85 19.3208 33.1332C19.6764 32.6404 19.5084 32.352 19.4468 32.0272C19.3488 31.5064 20.102 32.842 20.5668 32.744C21.9052 32.464 22.0424 31.624 22.1572 30.3724C22.314 28.6504 22.9664 29.4372 23.9324 28.7708C24.6716 28.264 24.694 27.6956 24.4672 26.7632C24.3216 26.2312 25.6376 25.8448 25.4304 25.38Z" fill="#A12252"/>
</g>
<g style="mix-blend-mode:screen" opacity="0.43">
<path d="M16.8541 24.5596C15.0901 26.0576 15.0957 29.4736 16.2521 31.2796C16.5181 31.694 17.0921 32.4192 17.6521 32.31C18.4613 32.1532 17.8565 31.4336 18.0413 30.8176C18.4193 29.5324 19.9789 31.8452 20.5977 30.0588C20.8525 29.3252 20.1161 28.7008 20.1665 28.0988C20.2337 27.2924 21.3117 27.4016 21.2473 26.6988C20.4381 26.29 19.6009 27.1916 18.7273 26.8248C17.6269 26.36 18.1253 24.8144 16.8541 24.5596Z" fill="#FF9797"/>
</g>
<g style="mix-blend-mode:screen" opacity="0.43">
<path d="M32.142 21.4907C31.456 21.7959 31.2012 22.2775 31.6352 22.9159C32.0328 23.5039 32.6376 23.4171 33.1892 23.7559C33.7408 24.0947 34.0292 24.5959 34.7208 24.8003C35.8044 25.1251 36.0564 24.5959 35.432 23.7251C34.7264 22.7451 33.5504 21.6559 32.142 21.4907Z" fill="#FF9797"/>
</g>
<g style="mix-blend-mode:screen" opacity="0.43">
<path d="M36.7452 18.8C35.9551 19.2847 35.2589 19.9079 34.69 20.6396C34.0376 21.6308 36.2749 20.9644 36.6977 20.3596C37.0477 19.8304 36.594 19.038 36.7452 18.8Z" fill="#FF9797"/>
</g>
<g style="mix-blend-mode:screen" opacity="0.43">
<path d="M37.7896 22.9021C37.14 22.9413 36.0816 23.2969 37.056 23.9297C37.2604 24.0641 37.7896 24.2993 37.9912 24.0249C38.1928 23.7505 37.7504 23.3277 37.8512 23.0253L37.7896 22.9021Z" fill="#FF9797"/>
</g>
<g style="mix-blend-mode:screen" opacity="0.43">
<path d="M22.0731 10.5623C22.0955 11.3659 22.2383 12.1779 22.1963 13.0179C22.1655 13.6311 21.8127 14.6979 22.0731 15.2579C22.4091 15.9831 23.1763 15.3811 23.3331 14.7987C23.5151 14.1127 22.9859 13.2111 22.8571 12.5251C22.7871 12.1611 22.7899 9.91827 22.0731 10.5623Z" fill="#FF9797"/>
</g>
<g style="mix-blend-mode:screen" opacity="0.43">
<path d="M25.7552 10.3777C25.9624 11.1225 26.0576 11.8869 25.6516 12.5897C25.3212 13.1497 24.6128 13.7097 24.8984 14.4265C25.1224 14.9865 26.2004 15.7873 26.4944 14.9193C26.7156 14.2697 26.5812 13.1021 26.6456 12.4329C26.6876 12.0241 26.7576 11.4249 26.542 11.0665C26.2928 10.6549 25.8924 10.6157 25.7552 10.3777Z" fill="#FF9797"/>
</g>
<g style="mix-blend-mode:screen" opacity="0.43">
<path d="M29.0116 8.9021C28.8744 9.5405 28.9864 10.2237 28.8212 10.8369C28.6756 11.3773 28.2472 11.7413 27.9504 12.2061C27.7803 12.4322 27.6826 12.7046 27.6704 12.9873C27.6704 13.5109 27.7208 13.3877 28.1016 13.5697C28.791 13.8584 29.4314 14.2523 30 14.7373C30.4088 15.1181 30.9128 16.3697 31.512 16.2605C31.6548 14.5805 29.7144 13.8721 29.37 12.4049C29.0984 11.2401 29.8572 9.8065 29.0116 8.9021Z" fill="#FF9797"/>
</g>
<g style="mix-blend-mode:screen" opacity="0.43">
<path d="M24.2208 20.5081C23.2884 20.9897 22.7844 22.5521 22.9916 23.5153C23.392 25.3773 24.2824 22.9553 24.4364 22.2581C24.568 21.6589 24.6996 20.9281 24.2208 20.5081Z" fill="#FF9797"/>
</g>
<g style="mix-blend-mode:screen" opacity="0.43">
<path d="M16.4256 25.3576C15.8236 25.8896 15.1656 28.2892 15.9692 28.8828C16.8652 29.5436 17.2348 27.0544 17.2852 26.5224C17.3272 26.0492 17.2544 25.2036 16.4256 25.3576Z" fill="#FF9797"/>
</g>
<g style="mix-blend-mode:screen" opacity="0.77">
<path d="M18.4893 18.8001C18.4109 17.0025 18.0077 15.3169 18.2233 13.5165C18.2233 13.4969 18.1953 13.4941 18.1869 13.5165C17.5933 15.2637 18.1337 17.0137 18.1869 18.8057C18.2474 19.836 18.1712 20.8698 17.9601 21.8801C17.8117 22.5073 17.5261 23.0869 17.8089 23.7029C17.8121 23.7094 17.8172 23.7148 17.8233 23.7186C17.8295 23.7224 17.8366 23.7244 17.8439 23.7244C17.8511 23.7244 17.8583 23.7224 17.8644 23.7186C17.8706 23.7148 17.8756 23.7094 17.8789 23.7029C18.2037 22.0369 18.5649 20.4801 18.4893 18.8001Z" fill="#92CEFF"/>
</g>
<g style="mix-blend-mode:screen" opacity="0.77">
<path d="M23.2996 15.5633C22.9804 15.6753 22.7956 16.0253 22.5352 16.2325C22.1572 16.5349 21.7176 16.7393 21.3452 17.0445C20.9728 17.3497 20.5052 17.9993 21.1268 18.3101C21.1365 18.3167 21.1482 18.3197 21.1599 18.3185C21.1715 18.3174 21.1824 18.3123 21.1907 18.304C21.199 18.2957 21.2042 18.2848 21.2053 18.2731C21.2064 18.2615 21.2034 18.2498 21.1968 18.2401C20.8244 17.4925 21.698 17.0921 22.2132 16.7421C22.6538 16.4297 23.0247 16.0293 23.3024 15.5661C23.3024 15.5661 23.3024 15.5605 23.2996 15.5633Z" fill="#92CEFF"/>
</g>
<g style="mix-blend-mode:screen" opacity="0.77">
<path d="M31.5373 17.4223C30.2661 17.6071 29.1181 18.9567 28.3929 19.9423C27.4829 21.1659 27.1049 22.6863 26.8865 24.1731C27.5221 22.9943 27.6397 21.6531 28.3957 20.5023C29.1517 19.3515 30.2577 18.0719 31.5681 17.5875C31.5789 17.5855 31.5893 17.5814 31.5985 17.5753C31.6078 17.5693 31.6157 17.5615 31.622 17.5524C31.6282 17.5433 31.6326 17.5331 31.6349 17.5223C31.6372 17.5115 31.6373 17.5004 31.6353 17.4895C31.6332 17.4787 31.6291 17.4683 31.6231 17.4591C31.6171 17.4498 31.6093 17.4419 31.6002 17.4356C31.5911 17.4294 31.5809 17.425 31.5701 17.4227C31.5593 17.4204 31.5481 17.4203 31.5373 17.4223Z" fill="#92CEFF"/>
</g>
<g style="mix-blend-mode:screen" opacity="0.77">
<path d="M16.5404 25.3156C15.8628 25.8392 15.23 27.34 15.7004 28.1436C15.7059 28.1517 15.7138 28.1579 15.723 28.1614C15.7322 28.1649 15.7422 28.1654 15.7517 28.163C15.7612 28.1605 15.7697 28.1552 15.7761 28.1477C15.7824 28.1402 15.7863 28.131 15.7872 28.1212C15.8488 27.6256 15.7872 27.1636 15.9384 26.668C16.1034 26.2043 16.3115 25.7572 16.56 25.3324C16.56 25.3324 16.56 25.31 16.5404 25.3156Z" fill="#92CEFF"/>
</g>
<g style="mix-blend-mode:screen" opacity="0.77">
<path d="M20.8188 31.624C20.4184 31.9432 19.9144 32.1 19.5056 31.6912C19.307 31.4423 19.1405 31.1695 19.01 30.8792C19.01 30.8792 18.9904 30.8792 18.9932 30.8792C19.1276 31.3244 19.2732 31.8536 19.7352 32.0524C19.9404 32.1376 20.1696 32.1451 20.3799 32.0735C20.5902 32.0018 20.7672 31.8559 20.8776 31.6632C20.9 31.6296 20.8496 31.5988 20.8188 31.624Z" fill="#92CEFF"/>
</g>
<g style="mix-blend-mode:screen" opacity="0.77">
<path d="M22.9048 26.8528C22.9048 26.8304 22.8656 26.8164 22.846 26.836C22.7592 26.9228 22.7172 27.0432 22.636 27.1356C22.5237 27.2578 22.3923 27.3609 22.2468 27.4408C22.1164 27.5333 21.9679 27.5973 21.8112 27.6286C21.6544 27.66 21.4928 27.658 21.3368 27.6228C21.3368 27.6228 21.3368 27.6228 21.3368 27.6228C21.5244 27.9028 22.006 27.7348 22.2356 27.6228C22.4652 27.5108 23.028 27.1636 22.9048 26.8528Z" fill="#92CEFF"/>
</g>
<g style="mix-blend-mode:screen" opacity="0.77">
<path d="M35.5805 25.1197C34.3905 25.1197 33.2621 25.7301 32.1869 24.8845C31.5289 24.3665 31.2489 24.0445 30.3949 23.8457C30.3949 23.8457 30.3809 23.8457 30.3949 23.8625C30.9827 24.1136 31.5148 24.4791 31.9601 24.9377C32.217 25.1751 32.5287 25.3454 32.8673 25.4333C33.7577 25.6685 34.7237 25.4333 35.5777 25.1533C35.5803 25.1514 35.5824 25.149 35.584 25.1462C35.5855 25.1434 35.5865 25.1403 35.5867 25.1371C35.587 25.134 35.5866 25.1308 35.5855 25.1277C35.5844 25.1247 35.5827 25.122 35.5805 25.1197Z" fill="#92CEFF"/>
</g>
<g style="mix-blend-mode:screen" opacity="0.77">
<path d="M36.8292 18.7831C36.3252 18.9091 35.8156 19.3879 35.4432 19.7351C35.1352 20.0151 34.6396 20.4183 34.6256 20.8747C34.9437 20.4885 35.286 20.1228 35.6504 19.7799C36.0088 19.4551 36.5968 19.2367 36.8656 18.8335C36.8908 18.7999 36.8572 18.7747 36.8292 18.7831Z" fill="#FF94AB"/>
</g>
<g style="mix-blend-mode:screen" opacity="0.77">
<path d="M37.7728 22.9133C37.4452 22.7789 36.972 23.0785 36.748 23.3025C36.7352 23.3177 36.728 23.3367 36.7276 23.3566C36.7271 23.3764 36.7335 23.3958 36.7456 23.4115C36.7577 23.4272 36.7748 23.4383 36.7941 23.4429C36.8134 23.4476 36.8337 23.4454 36.8516 23.4369C37.0034 23.347 37.169 23.2827 37.3416 23.2465C37.4987 23.2223 37.6527 23.181 37.8008 23.1233C37.896 23.0729 37.8568 22.9497 37.7728 22.9133Z" fill="#FF94AB"/>
</g>
<g style="mix-blend-mode:screen" opacity="0.77">
<path d="M22.3588 12.92C22.3392 12.1444 22.132 11.394 22.0536 10.624C22.0536 10.61 22.0312 10.61 22.0312 10.624C22.0144 11.548 22.1852 12.4636 22.1376 13.3848C22.104 14.0204 21.782 14.768 22.1656 15.3448C22.1673 15.3491 22.1697 15.3529 22.1729 15.3562C22.176 15.3595 22.1798 15.3621 22.184 15.3639C22.1881 15.3657 22.1926 15.3667 22.1971 15.3668C22.2017 15.3669 22.2062 15.3661 22.2104 15.3644C22.2146 15.3628 22.2185 15.3603 22.2218 15.3572C22.2251 15.354 22.2277 15.3502 22.2295 15.3461C22.2313 15.3419 22.2323 15.3374 22.2324 15.3329C22.2325 15.3284 22.2317 15.3239 22.23 15.3196C22.0424 14.5524 22.3784 13.6984 22.3588 12.92Z" fill="#FF94AB"/>
</g>
<g style="mix-blend-mode:screen" opacity="0.77">
<path d="M25.7776 10.4C25.7776 10.372 25.7244 10.4 25.7328 10.4196C25.8833 10.9754 25.8987 11.5591 25.7776 12.122C25.7776 12.1556 25.8196 12.1948 25.8476 12.1612C26.2144 11.6852 25.9932 10.8844 25.7776 10.4Z" fill="#FF94AB"/>
</g>
<g style="mix-blend-mode:screen" opacity="0.77">
<path d="M28.9611 8.89917C28.9611 8.89917 28.9415 8.89917 28.9387 8.89917C28.8575 9.31917 28.9024 9.76157 28.8576 10.1872C28.7829 10.7339 28.6002 11.2603 28.3199 11.7356C28.3199 11.7664 28.32 11.8168 28.3676 11.8C29.3028 11.4192 29.2383 9.66637 28.9611 8.89917Z" fill="#FF94AB"/>
</g>
<g style="mix-blend-mode:screen" opacity="0.77">
<path d="M26.92 9.25195C26.8976 9.25195 26.8892 9.27715 26.906 9.28835C27.2084 9.52075 27.5248 9.95195 27.256 10.3384C27.0488 10.6352 26.682 10.5316 26.3796 10.5456C26.724 10.6716 27.2196 10.6464 27.3764 10.2656C27.4369 10.07 27.4239 9.8591 27.3399 9.67246C27.2558 9.48582 27.1065 9.33629 26.92 9.25195Z" fill="#FF94AB"/>
</g>
<g style="mix-blend-mode:screen" opacity="0.77">
<path d="M30.6384 8.51831C30.728 8.68071 31.0696 8.78431 31.022 9.00551C30.9744 9.22671 30.6664 9.23511 30.5012 9.26311C30.6832 9.28551 30.994 9.23231 31.0612 9.03631C31.1676 8.78431 30.784 8.65271 30.6384 8.51831Z" fill="#FF94AB"/>
</g>
<g style="mix-blend-mode:screen" opacity="0.77">
<path d="M38.2376 20.6704C38.1914 20.0941 38.008 19.5373 37.7028 19.0464C37.7028 19.0464 37.7028 19.0464 37.7028 19.0464C37.7028 19.0464 38.5064 21.1492 38.0584 21.11C38.0549 21.1119 38.0519 21.1148 38.0499 21.1182C38.0479 21.1217 38.0468 21.1256 38.0468 21.1296C38.0468 21.1336 38.0479 21.1375 38.0499 21.141C38.0519 21.1444 38.0549 21.1472 38.0584 21.1492C38.2824 21.2752 38.2432 20.7796 38.2376 20.6704Z" fill="#FF94AB"/>
</g>
<g style="mix-blend-mode:screen" opacity="0.77">
<path d="M38.9768 23.4648H38.9628C39.0272 23.7 39.2288 23.8708 39.2036 24.1368C39.1728 24.4616 38.8872 24.4336 38.6968 24.2572C38.806 24.4168 39.0496 24.5372 39.1924 24.3496C39.3856 24.092 39.1616 23.672 38.9768 23.4648Z" fill="#FF94AB"/>
</g>
<g style="mix-blend-mode:screen" opacity="0.77">
<path d="M38.162 22.6892C37.924 22.9132 38.162 23.3612 38.2936 23.588C38.2936 23.588 38.316 23.588 38.3132 23.588C38.2684 23.2492 38.0136 23.0364 38.162 22.6892Z" fill="#FF94AB"/>
</g>
<g style="mix-blend-mode:screen" opacity="0.77">
<path d="M37.1316 19.3153C37.0532 19.0633 36.8992 18.6629 37.0644 18.4277C37.0665 18.425 37.0674 18.4216 37.0672 18.4183C37.067 18.4149 37.0655 18.4118 37.0631 18.4094C37.0608 18.407 37.0576 18.4055 37.0542 18.4053C37.0509 18.4051 37.0475 18.4061 37.0448 18.4081C36.8516 18.5537 36.9188 18.8701 36.9636 19.0745C37.0663 19.5541 37.2291 20.0188 37.448 20.4577C37.4512 20.4613 37.4553 20.4637 37.46 20.4648C37.4646 20.4659 37.4694 20.4654 37.4738 20.4636C37.4781 20.4617 37.4818 20.4585 37.4842 20.4544C37.4866 20.4503 37.4877 20.4456 37.4872 20.4409C37.3836 20.0601 37.2436 19.6933 37.1316 19.3153Z" fill="#FF94AB"/>
</g>
<g style="mix-blend-mode:screen" opacity="0.77">
<path d="M29.7816 9.06429C29.5772 8.96069 28.7372 8.54349 29.1012 8.22429C29.1208 8.22429 29.1012 8.18509 29.0816 8.18789C28.8492 8.24669 28.9444 8.51549 29.0424 8.65269C29.2287 8.87709 29.4887 9.02795 29.776 9.07829C29.776 9.07829 29.79 9.06989 29.7816 9.06429Z" fill="#FF94AB"/>
</g>
<g style="mix-blend-mode:screen" opacity="0.77">
<path d="M26.1276 8.97201C25.5144 8.92161 25.4668 10.1172 25.9876 10.2628C25.9876 10.2628 26.0044 10.2628 25.9876 10.246C25.6068 9.88201 25.5396 9.15401 26.1276 8.97201Z" fill="#FF94AB"/>
</g>
<g style="mix-blend-mode:screen" opacity="0.77">
<path d="M22.0396 10.4001C21.7848 10.2965 21.964 10.0333 22.0396 9.90732C22.1803 9.68807 22.3803 9.51329 22.6164 9.40332C22.6164 9.40332 22.6164 9.40332 22.6164 9.40332C22.2888 9.42852 21.9528 9.83732 21.8576 10.1341C21.7624 10.4309 22.2076 10.5877 22.4176 10.3833C22.4176 10.3833 22.4176 10.3581 22.4176 10.3637C22.3002 10.4212 22.1659 10.4341 22.0396 10.4001Z" fill="#FF94AB"/>
</g>
<g style="mix-blend-mode:screen" opacity="0.77">
<path d="M19.7185 12.542C19.3685 12.2984 18.7636 12.5924 18.4808 12.822C18.0402 13.1881 17.7541 13.7072 17.6801 14.2752C17.6801 14.2752 17.6969 14.2752 17.6969 14.2752C17.8089 13.3344 18.7637 12.458 19.7157 12.5728C19.7269 12.5756 19.7297 12.5504 19.7185 12.542Z" fill="#92CEFF"/>
</g>
<g style="mix-blend-mode:screen" opacity="0.77">
<path d="M24.1592 15.23C23.6776 15.1936 23.2884 15.6808 23.1512 16.098C23.0525 16.4292 23.0224 16.7771 23.0629 17.1204C23.1033 17.4637 23.2134 17.7951 23.3864 18.0944C23.389 18.1007 23.394 18.1057 23.4003 18.1083C23.4066 18.1109 23.4137 18.1109 23.42 18.1084C23.4263 18.1058 23.4313 18.1008 23.434 18.0945C23.4366 18.0881 23.4366 18.0811 23.434 18.0748C23.224 17.1368 22.944 15.6332 24.162 15.2524C24.176 15.2496 24.1732 15.2328 24.1592 15.23Z" fill="#92CEFF"/>
</g>
<g style="mix-blend-mode:screen" opacity="0.77">
<path d="M25.4976 16.3611C25.7552 17.2011 25.352 18.0943 24.9376 18.7915C24.936 18.7955 24.9357 18.8 24.9369 18.8043C24.9381 18.8085 24.9407 18.8122 24.9442 18.8148C24.9478 18.8174 24.9521 18.8187 24.9565 18.8185C24.9609 18.8184 24.9651 18.8167 24.9684 18.8139C25.322 18.4252 25.5452 17.9357 25.6068 17.4139C25.674 17.0835 25.716 16.6495 25.4976 16.3611Z" fill="#92CEFF"/>
</g>
<g style="mix-blend-mode:screen" opacity="0.77">
<path d="M23.84 39.5676C23.3136 38.3384 22.5688 37.3276 22.286 35.9724C22.1111 35.2606 22.1111 34.517 22.286 33.8052C22.5072 33.0268 23.0084 32.6012 23.6216 32.1252C23.624 32.122 23.6253 32.1182 23.6254 32.1142C23.6255 32.1103 23.6245 32.1064 23.6224 32.1031C23.6202 32.0997 23.6172 32.0971 23.6135 32.0956C23.6099 32.094 23.6059 32.0936 23.602 32.0944C22.1264 32.4808 21.7736 34.1916 21.922 35.5048C22.0704 36.818 22.6584 38.8088 23.7448 39.6488C23.7568 39.6551 23.7703 39.6578 23.7837 39.6563C23.7972 39.6549 23.8099 39.6494 23.8201 39.6406C23.8304 39.6319 23.8378 39.6202 23.8414 39.6072C23.8449 39.5941 23.8445 39.5803 23.84 39.5676Z" fill="#FF94AB"/>
</g>
<g style="mix-blend-mode:screen" opacity="0.77">
<path d="M22.202 25.702C21.7032 25.6078 21.1891 25.6367 20.704 25.786C20.228 25.9456 20.2056 26.0268 19.6316 26.0324C18.9624 26.0324 18.8168 25.8924 18.4696 25.3436C18.058 24.694 17.8032 24.092 16.98 23.9436C16.98 23.9436 16.966 23.9436 16.98 23.9576C18.1616 24.2376 18.1 25.5592 19.0184 26.1472C19.1621 26.2436 19.3264 26.3047 19.4982 26.3256C19.6699 26.3465 19.8442 26.3266 20.0068 26.2676C20.3624 26.1724 20.6648 25.9428 21.0316 25.8644C21.3984 25.786 21.8184 25.8168 22.2076 25.7552C22.2111 25.7548 22.2145 25.7538 22.2175 25.7521C22.2206 25.7504 22.2234 25.7482 22.2256 25.7454C22.2278 25.7427 22.2294 25.7396 22.2304 25.7362C22.2314 25.7328 22.2317 25.7293 22.2314 25.7258C22.231 25.7223 22.23 25.7189 22.2283 25.7158C22.2266 25.7128 22.2243 25.71 22.2216 25.7078C22.2189 25.7056 22.2157 25.704 22.2124 25.703C22.209 25.702 22.2055 25.7016 22.202 25.702Z" fill="#FF94AB"/>
</g>
<g style="mix-blend-mode:screen" opacity="0.77">
<path d="M34.438 24.7612C34.004 24.54 33.8164 24.1228 33.4384 23.8456C33.0604 23.5684 32.6768 23.5936 32.3184 23.4228C31.722 23.1428 31.078 21.3564 32.1532 21.4488C32.1728 21.4488 32.184 21.418 32.1532 21.4096C31.2152 20.9868 31.3496 22.454 31.5456 22.9328C31.6302 23.1542 31.7697 23.3505 31.9509 23.5033C32.1321 23.6561 32.3491 23.7604 32.5816 23.8064C32.8658 23.8651 33.1352 23.9803 33.374 24.1452C33.5308 24.274 33.6288 24.4616 33.7772 24.5988C33.8601 24.6826 33.9592 24.7487 34.0685 24.793C34.1778 24.8373 34.2949 24.8589 34.4128 24.8564C34.4243 24.8569 34.4356 24.8534 34.4449 24.8466C34.4541 24.8398 34.4608 24.83 34.4637 24.8189C34.4667 24.8078 34.4657 24.796 34.461 24.7855C34.4564 24.775 34.4482 24.7664 34.438 24.7612Z" fill="#FF94AB"/>
</g>
<g style="mix-blend-mode:screen" opacity="0.77">
<path d="M20.7041 29.1992C20.7001 29.1902 20.6937 29.1826 20.6855 29.1772C20.6773 29.1718 20.6677 29.1689 20.6579 29.1689C20.6481 29.1689 20.6384 29.1718 20.6302 29.1772C20.622 29.1826 20.6156 29.1902 20.6117 29.1992C20.4773 29.6864 20.3653 30.3444 19.7969 30.504C19.3769 30.6244 18.9849 30.2996 18.5621 30.4816C18.5425 30.4816 18.5621 30.5236 18.5621 30.5236C19.1501 30.5236 19.6681 30.9688 20.2001 30.5236C20.5389 30.2548 20.9197 29.6332 20.7041 29.1992Z" fill="#FF94AB"/>
</g>
<g style="mix-blend-mode:screen" opacity="0.77">
<path d="M36.538 28.2332C36.7167 28.265 36.9002 28.2563 37.0751 28.2078C37.25 28.1594 37.4119 28.0724 37.5488 27.9532C37.5488 27.9532 37.5488 27.9364 37.5488 27.9532C36.734 28.4012 35.8044 27.7796 34.9952 27.5976C34.5316 27.4906 34.0476 27.5119 33.5952 27.6592C33.4384 27.4968 33.0772 27.5304 32.8812 27.5808C32.268 27.7404 31.5764 28.2668 31.1228 27.522C31.1228 27.522 31.0976 27.522 31.106 27.522C31.1855 27.6996 31.3277 27.8417 31.5053 27.9212C31.683 28.0008 31.8837 28.0121 32.0692 27.9532C32.3296 27.9 32.576 27.7908 32.8336 27.7292C32.9773 27.6833 33.1298 27.6717 33.2788 27.6956C33.3128 27.7061 33.3456 27.7202 33.3768 27.7376C32.38 28.1968 32.5368 29.1684 33.2704 29.846L33.3628 29.9272C33.3557 29.9292 33.3493 29.9331 33.3443 29.9385C33.3394 29.944 33.3361 29.9507 33.3348 29.958C33.248 30.378 33.6148 30.6384 33.7744 30.9856C34.0544 31.5456 33.4944 31.89 33.5448 32.4304C33.5448 32.4556 33.5896 32.4668 33.5952 32.4304C33.6624 31.988 34.0768 31.6996 34.046 31.232C34.0152 30.7644 33.5756 30.4452 33.4524 29.9944C33.9704 30.406 34.6256 30.6972 34.8524 31.358C35.1128 32.1112 34.8132 32.9512 34.956 33.7296C35.082 34.4184 35.4936 34.8496 35.9752 35.3144C36.0799 35.4183 36.1781 35.5286 36.2692 35.6448C36.2468 35.6448 36.2216 35.6616 36.2328 35.6868C36.4764 36.286 36.3924 36.622 36.0984 37.1876C35.9212 37.498 35.8079 37.8407 35.7652 38.1956H35.7848C35.8352 37.5544 36.706 36.7564 36.552 36.076C36.972 36.8656 36.9188 37.7336 36.552 38.68C36.552 38.7024 36.5828 38.7192 36.5912 38.6968C37.1512 37.504 37.0504 36.342 36.132 35.3592C35.3508 34.5192 34.9756 33.9256 35.0652 32.7552C35.0848 32.492 35.1156 32.2288 35.1212 31.974C35.1926 32.1368 35.2868 32.2886 35.4012 32.4248C35.5168 32.5404 35.6434 32.6445 35.7792 32.7356C35.9101 32.8211 36.0167 32.939 36.0888 33.0778C36.1609 33.2166 36.196 33.3717 36.1908 33.528C36.1908 33.528 36.2104 33.5448 36.2132 33.528C36.2557 33.3683 36.2482 33.1994 36.1916 33.0442C36.135 32.8889 36.0321 32.7548 35.8968 32.66C35.6521 32.4897 35.4476 32.268 35.2976 32.0104C35.2136 31.8452 35.166 31.6744 35.0876 31.5176C35.0572 31.3326 34.9947 31.1545 34.9028 30.9912C34.6452 30.5488 34.1888 30.28 33.7828 29.9776C33.304 29.6164 32.8308 29.202 32.9848 28.5776C33.1388 27.9532 33.7464 27.7964 34.3232 27.7656C34.9 27.7348 35.6672 28.1072 36.3616 28.222C36.2197 28.3846 36.0879 28.5558 35.9668 28.7344C35.8597 28.8718 35.8105 29.0456 35.8296 29.2188C35.8751 29.433 35.9793 29.6302 36.1307 29.7885C36.282 29.9468 36.4744 30.0597 36.6864 30.1148C36.6901 30.1148 36.6936 30.1133 36.6963 30.1107C36.6989 30.108 36.7004 30.1045 36.7004 30.1008C36.7004 30.0971 36.6989 30.0935 36.6963 30.0909C36.6936 30.0882 36.6901 30.0868 36.6864 30.0868C36.2496 29.832 35.6672 29.2804 36.1264 28.768C36.2636 28.6 36.496 28.446 36.538 28.2332Z" fill="#EEC39C"/>
</g>
<g style="mix-blend-mode:screen" opacity="0.77">
<path d="M31.12 40.4468C30.9357 40.1758 30.6705 39.9701 30.3622 39.859C30.0539 39.7478 29.7184 39.737 29.4036 39.828C28.7288 39.9932 28.1716 40.108 27.5304 39.7216C27.247 39.543 26.9984 39.3144 26.7968 39.0468C26.7356 38.7805 26.6415 38.5228 26.5168 38.2796C26.2004 37.7196 25.66 37.4172 25.1448 37.0616C23.812 36.1376 23.21 34.9336 23.3948 33.5224C23.4198 33.7913 23.506 34.0508 23.6468 34.2812C24.0164 34.8412 24.8732 34.9616 25.4612 35.1212V35.096C24.9236 34.8384 24.1088 34.7124 23.7812 34.1804C23.5692 33.7573 23.4883 33.2805 23.5488 32.8112C23.5964 32.6572 23.6468 32.5032 23.7112 32.3436C24.1928 31.1368 24.9628 29.7592 24.68 28.4236C24.68 28.4236 24.6632 28.4236 24.6604 28.4236C24.1004 31.1116 21.5496 34.438 24.3188 36.7704C24.6649 37.0356 25.0247 37.2824 25.3968 37.5096C25.3745 37.5071 25.352 37.5071 25.3296 37.5096C25.3224 37.5115 25.3156 37.5149 25.3097 37.5195C25.3038 37.5241 25.2989 37.5298 25.2953 37.5363C25.2916 37.5428 25.2893 37.55 25.2885 37.5575C25.2876 37.5649 25.2883 37.5724 25.2904 37.5796C25.3832 37.8519 25.3832 38.1473 25.2904 38.4196C25.2166 38.6272 25.1797 38.8461 25.1812 39.0664C25.2184 39.3287 25.3202 39.5777 25.4776 39.7908C25.635 40.0039 25.843 40.1745 26.0828 40.2872C26.0828 40.2872 26.0968 40.2872 26.0828 40.2872C25.758 39.9596 25.38 39.5004 25.394 39.0048C25.449 38.7096 25.5277 38.4193 25.6292 38.1368C25.6668 37.9889 25.6668 37.8339 25.6292 37.686C25.8978 37.8786 26.1268 38.121 26.304 38.4C26.7128 39.0748 26.7352 39.9064 27.0656 40.6176C27.4271 41.3115 27.997 41.8745 28.6952 42.2276C29.1741 42.4624 29.6044 42.7853 29.9636 43.1796C30.1716 43.4705 30.4206 43.7299 30.7028 43.9496C30.7532 43.9832 30.8036 43.9104 30.7644 43.8684C30.2688 43.3308 29.9468 42.7092 29.3084 42.3312C28.3536 41.7712 27.4912 41.3064 27.0908 40.192C26.998 39.9089 26.9204 39.621 26.8584 39.3296C27.1128 39.6806 27.4613 39.9524 27.8636 40.1136C28.121 40.2176 28.3987 40.2617 28.6756 40.2424C29.636 40.1556 30.1512 39.6628 31.0836 40.4832C31.0885 40.488 31.095 40.4907 31.1018 40.4907C31.1087 40.4907 31.1152 40.488 31.12 40.4832C31.1249 40.4784 31.1276 40.4718 31.1276 40.465C31.1276 40.4582 31.1249 40.4516 31.12 40.4468Z" fill="#EEC39C"/>
</g>
<g style="mix-blend-mode:screen" opacity="0.77">
<path d="M24.2768 30.0195C23.8987 30.7679 23.5958 31.552 23.3724 32.3603C23.1512 33.0715 23.2016 33.7435 23.1344 34.4743C23.1344 34.4911 23.154 34.4911 23.1596 34.4743C23.4172 33.8387 23.3248 33.0743 23.5376 32.4023C23.7924 31.6099 24.0752 30.8259 24.288 30.0223C24.2908 30.0195 24.2796 30.0139 24.2768 30.0195Z" fill="#FF94AB"/>
</g>
<g style="mix-blend-mode:screen" opacity="0.77">
<path d="M25.52 37.6047C25.4668 38.1927 24.9824 38.9599 25.352 39.5199C25.3542 39.5248 25.3583 39.5285 25.3633 39.5303C25.3683 39.5322 25.3738 39.532 25.3786 39.5297C25.3834 39.5275 25.3872 39.5235 25.389 39.5185C25.3909 39.5135 25.3906 39.508 25.3884 39.5031C25.2819 39.1408 25.2907 38.7543 25.4136 38.3971C25.5005 38.1425 25.5366 37.8733 25.52 37.6047Z" fill="#FF94AB"/>
</g>
<g style="mix-blend-mode:screen" opacity="0.77">
<path d="M28.9081 42.2528C28.5133 41.9448 28.0681 41.7572 27.7153 41.3736C27.2309 40.8304 27.1553 40.1696 26.9285 39.5088C27.0713 40.1864 27.1357 40.8304 27.5837 41.3876C27.9189 41.8135 28.373 42.1302 28.8885 42.2976C28.9053 42.32 28.9305 42.2696 28.9081 42.2528Z" fill="#FF94AB"/>
</g>
<g style="mix-blend-mode:screen" opacity="0.77">
<path d="M24.4868 36.818C24.2376 36.51 23.9268 36.286 23.686 35.9556C23.4556 35.6389 23.2866 35.2818 23.1876 34.9028H23.168C23.2688 35.6476 23.728 36.5296 24.4532 36.8628C24.4591 36.8673 24.4666 36.8692 24.4739 36.8681C24.4813 36.8671 24.4879 36.8632 24.4924 36.8572C24.4968 36.8513 24.4987 36.8438 24.4977 36.8365C24.4966 36.8291 24.4927 36.8225 24.4868 36.818Z" fill="#FF94AB"/>
</g>
<g style="mix-blend-mode:screen" opacity="0.77">
<path d="M30.2549 39.9735C29.9329 39.7579 29.6249 39.8251 29.2693 39.9427C28.9877 40.0527 28.6872 40.1061 28.385 40.0999C28.0828 40.0936 27.7848 40.0278 27.5081 39.9063C27.8264 40.1368 28.2098 40.2604 28.6029 40.2591C28.7873 40.2458 28.9686 40.2042 29.1405 40.1359C29.4893 40.0073 29.8651 39.9697 30.2325 40.0267C30.2387 40.0269 30.2449 40.0253 30.2502 40.0219C30.2555 40.0186 30.2597 40.0137 30.2621 40.0079C30.2646 40.0021 30.2652 39.9957 30.2639 39.9895C30.2626 39.9834 30.2594 39.9778 30.2549 39.9735Z" fill="#FF94AB"/>
</g>
<g style="mix-blend-mode:screen" opacity="0.77">
<path d="M33.2228 27.8525C33.2228 27.8525 33.2228 27.8273 33.2228 27.8357C32.7328 28.1773 32.3492 29.3029 33.1556 29.5437C33.1976 29.5437 33.2228 29.5017 33.1976 29.4709C32.9764 29.2105 32.7888 29.0285 32.8392 28.6561C32.8897 28.3577 33.0225 28.0794 33.2228 27.8525Z" fill="#FF94AB"/>
</g>
<g style="mix-blend-mode:screen" opacity="0.77">
<path d="M33.5588 30.5403C33.7153 30.7328 33.8065 30.9701 33.8192 31.2179C33.8192 31.4251 33.752 31.6211 33.7464 31.8255C33.7468 31.8326 33.7494 31.8393 33.7538 31.8448C33.7583 31.8504 33.7643 31.8543 33.7712 31.8562C33.778 31.8581 33.7852 31.8577 33.7918 31.8552C33.7985 31.8527 33.8041 31.8482 33.808 31.8423C33.9189 31.6289 33.9547 31.3843 33.9095 31.148C33.8642 30.9118 33.7407 30.6977 33.5588 30.5403Z" fill="#FF94AB"/>
</g>
<g style="mix-blend-mode:screen" opacity="0.77">
<path d="M34.5696 30.728C34.6866 31.0872 34.7746 31.4552 34.8328 31.8284C34.8354 32.1401 34.8635 32.451 34.9168 32.758C34.9185 32.763 34.9217 32.7673 34.926 32.7703C34.9302 32.7733 34.9353 32.7749 34.9406 32.7749C34.9458 32.7749 34.9509 32.7733 34.9552 32.7703C34.9594 32.7673 34.9627 32.763 34.9644 32.758C35.0373 32.4104 35.0399 32.0518 34.9721 31.7031C34.9043 31.3545 34.7674 31.023 34.5696 30.728Z" fill="#FF94AB"/>
</g>
<g style="mix-blend-mode:screen" opacity="0.77">
<path d="M36.3784 35.9081C36.3744 35.902 36.3684 35.8974 36.3615 35.895C36.3547 35.8925 36.3472 35.8924 36.3402 35.8946C36.3332 35.8969 36.3272 35.9013 36.3229 35.9073C36.3187 35.9132 36.3166 35.9204 36.3168 35.9277C36.3467 36.0468 36.3627 36.1689 36.3644 36.2917C36.3644 36.4037 36.3392 36.5129 36.3476 36.6249C36.3501 36.6303 36.354 36.6348 36.359 36.638C36.3639 36.6412 36.3697 36.6429 36.3756 36.6429C36.3815 36.6429 36.3873 36.6412 36.3922 36.638C36.3972 36.6348 36.4011 36.6303 36.4036 36.6249C36.5492 36.4401 36.44 36.1125 36.3784 35.9081Z" fill="#FF94AB"/>
</g>
<g style="mix-blend-mode:screen" opacity="0.77">
<path d="M36.076 28.6755C35.852 28.7735 35.7316 29.2691 35.9752 29.4063C35.992 29.4063 36.0172 29.4063 36.0088 29.3811C35.9494 29.2699 35.9241 29.1437 35.936 29.0182C35.948 28.8927 35.9967 28.7735 36.076 28.6755Z" fill="#FF94AB"/>
</g>
<g style="mix-blend-mode:multiply" opacity="0.36">
<path d="M24.7837 28.2893H24.7669C24.6745 29.1293 24.7669 30.0309 24.4673 30.8541C24.2489 31.4645 23.8233 31.9741 23.6133 32.5929C23.3641 33.3377 23.4845 34.1385 24.2545 34.4829C24.2797 34.4829 24.3105 34.4633 24.2853 34.4409C23.0729 33.4077 24.0641 32.2597 24.5457 31.1481C24.9405 30.2409 24.8537 29.2525 24.7837 28.2893Z" fill="#A12252"/>
</g>
<g style="mix-blend-mode:multiply" opacity="0.36">
<path d="M26.9901 39.52C26.9257 40.4132 27.5501 41.172 28.2333 41.6788C28.5917 41.9392 28.9977 42.1296 29.3533 42.3844C29.9434 42.8428 30.4632 43.3853 30.8961 43.9944C30.8961 43.9944 30.9185 43.9944 30.9157 43.9944C30.1737 41.9812 27.2001 41.83 26.9901 39.52Z" fill="#A12252"/>
</g>
<g style="mix-blend-mode:multiply" opacity="0.36">
<path d="M26.1277 40.2423C25.7273 39.8335 25.5089 39.4807 25.5677 38.8955C25.6369 38.4952 25.6688 38.0893 25.6629 37.6831C25.5201 38.5651 25.1701 39.7271 26.1137 40.2843C26.1181 40.2835 26.1223 40.2815 26.1257 40.2786C26.1292 40.2756 26.1317 40.2718 26.1332 40.2675C26.1346 40.2632 26.1348 40.2586 26.1339 40.2541C26.1329 40.2497 26.1308 40.2456 26.1277 40.2423Z" fill="#A12252"/>
</g>
<g style="mix-blend-mode:multiply" opacity="0.36">
<path d="M27.4464 39.3855C27.8328 39.8195 28.2864 39.9063 28.8464 39.8895C29.8236 39.8587 30.5656 39.6319 31.2292 40.5531C31.2516 40.5839 31.3132 40.5671 31.2964 40.5251C30.6552 38.8731 28.5216 40.3739 27.4464 39.3855Z" fill="#A12252"/>
</g>
<g style="mix-blend-mode:multiply" opacity="0.36">
<path d="M36.5603 35.446C36.2803 35.0232 35.9275 34.6788 35.6223 34.2784C35.1491 33.6568 35.1996 33.01 35.0932 32.2932C35.0708 33.1024 34.998 33.6932 35.4992 34.3792C36.2888 35.4628 37.2492 36.3392 36.846 37.8064C36.8432 37.8175 36.8444 37.8291 36.8495 37.8393C36.8546 37.8495 36.8632 37.8575 36.8737 37.8619C36.8842 37.8663 36.8959 37.8668 36.9068 37.8633C36.9176 37.8598 36.9268 37.8525 36.9328 37.8428C37.3472 37.0336 37.0307 36.16 36.5603 35.446Z" fill="#A12252"/>
</g>
<g style="mix-blend-mode:multiply" opacity="0.36">
<path d="M35.04 31.0332C34.8048 30.5236 34.326 30.2772 33.8892 29.958C33.528 29.692 33.08 29.2916 33.1024 28.7904C33.1332 28.166 33.7772 27.9504 34.2728 27.8328C33.6092 27.7712 32.8476 28.236 32.9568 28.9836C33.0996 29.9776 34.3904 30.4144 34.984 31.0864C35.0008 31.12 35.04 31.0696 35.04 31.0332Z" fill="#A12252"/>
</g>
<g style="mix-blend-mode:multiply" opacity="0.36">
<path d="M37.4844 28.11C37.1834 28.0643 36.8762 28.1329 36.6233 28.3024C36.3704 28.4718 36.1901 28.7299 36.118 29.0256C35.9892 29.5856 36.398 29.972 36.8264 30.2548C36.8488 30.2548 36.8684 30.2408 36.86 30.2212C36.6696 29.8068 36.1376 29.6612 36.2328 29.1208C36.3504 28.4264 36.9048 28.2556 37.4844 28.11Z" fill="#A12252"/>
</g>
<g style="mix-blend-mode:multiply" opacity="0.36">
<path d="M34.0937 31.2433C34.0752 31.0433 34.0159 30.8493 33.9196 30.673C33.8233 30.4968 33.692 30.3421 33.5337 30.2185C33.5337 30.2185 33.5337 30.2185 33.5337 30.2185C33.8277 30.5965 34.1161 31.1705 33.9033 31.6437C33.7969 31.8761 33.5925 32.0721 33.6457 32.3409C33.6481 32.3463 33.6521 32.3508 33.6571 32.354C33.662 32.3572 33.6678 32.3589 33.6737 32.3589C33.6796 32.3589 33.6854 32.3572 33.6903 32.354C33.6953 32.3508 33.6992 32.3463 33.7017 32.3409C33.8529 32.0273 34.1329 31.6269 34.0937 31.2433Z" fill="#A12252"/>
</g>
<g style="mix-blend-mode:multiply" opacity="0.36">
<path d="M18.9288 31.1453C18.912 31.6185 19.0044 32.0917 18.9848 32.5649C18.9999 32.8298 18.9127 33.0903 18.7412 33.2929C18.492 33.5477 18.1392 33.5225 17.8172 33.6009C17.7892 33.6009 17.7864 33.6569 17.8172 33.6625C18.0644 33.7191 18.3237 33.6838 18.5468 33.5632C18.7699 33.4427 18.9415 33.245 19.0296 33.0073C19.1948 32.4137 18.9568 31.7417 18.9288 31.1453Z" fill="#A12252"/>
</g>
<g style="mix-blend-mode:multiply" opacity="0.36">
<path d="M21.4685 27.9224C21.4685 27.9224 21.4685 27.9224 21.4517 27.9224C21.0345 29.2356 21.8913 31.0024 20.6985 31.9964C20.6907 32.0008 20.685 32.0082 20.6826 32.0169C20.6802 32.0255 20.6814 32.0348 20.6859 32.0426C20.6903 32.0504 20.6977 32.0561 20.7063 32.0584C20.715 32.0608 20.7243 32.0596 20.7321 32.0552C22.1769 31.68 21.2641 28.9192 21.4685 27.9224Z" fill="#A12252"/>
</g>
<g style="mix-blend-mode:multiply" opacity="0.36">
<path d="M23.2632 28.9976C22.5268 28.8212 22.1768 29.4008 22.0872 30.0476C21.9612 30.9492 21.6672 33.2816 20.2196 32.6992C20.2056 32.6992 20.2 32.6992 20.2196 32.7188C20.998 33.2928 21.6756 32.3492 21.9724 31.6996C22.1279 31.3368 22.2225 30.9508 22.2524 30.5572C22.2591 30.2816 22.2957 30.0074 22.3616 29.7396C22.5184 29.2664 22.8292 29.1796 23.2632 29.0564C23.28 29.048 23.294 29.0032 23.2632 28.9976Z" fill="#A12252"/>
</g>
<g style="mix-blend-mode:multiply" opacity="0.36">
<path d="M24.722 26.2535C24.3636 26.4075 24.344 26.7379 24.3888 27.0935C24.4419 27.343 24.47 27.5972 24.4728 27.8523C24.421 28.1528 24.3065 28.439 24.1368 28.6923C24.1322 28.7016 24.131 28.7122 24.1334 28.7223C24.1358 28.7324 24.1416 28.7414 24.1499 28.7477C24.1582 28.754 24.1684 28.7572 24.1787 28.7568C24.1891 28.7564 24.199 28.7524 24.2068 28.7455C24.3482 28.6416 24.4642 28.507 24.5462 28.3518C24.6281 28.1966 24.6739 28.0249 24.68 27.8495C24.7108 27.2895 24.3608 26.7603 24.7472 26.2703C24.7444 26.2619 24.7332 26.2479 24.722 26.2535Z" fill="#A12252"/>
</g>
<g style="mix-blend-mode:multiply" opacity="0.36">
<path d="M25.5201 25.4921C25.4977 25.2457 25.2681 24.9657 24.9965 25.0581C24.9965 25.0581 24.9965 25.0581 24.9965 25.0749C25.1953 25.1981 25.3969 25.2681 25.3745 25.5481C25.3656 25.6486 25.3308 25.745 25.2737 25.8281C25.2121 25.9149 25.1141 25.9653 25.0609 26.0577C25.0441 26.0857 25.0609 26.1109 25.0945 26.1165C25.3801 26.1501 25.5453 25.7161 25.5201 25.4921Z" fill="#A12252"/>
</g>
<g style="mix-blend-mode:multiply" opacity="0.36">
<path d="M22.2916 25.6123C22.2916 25.6123 22.2776 25.6123 22.2916 25.6123C22.5716 25.8923 22.9524 26.1359 23.0056 26.5699C23.0256 26.7877 22.9749 27.0061 22.8609 27.1928C22.7469 27.3794 22.5757 27.5243 22.3728 27.6059C22.342 27.6199 22.3588 27.6647 22.3728 27.6647C22.8376 27.6927 23.1204 27.1747 23.1428 26.7659C23.1876 26.1723 22.72 25.9091 22.2916 25.6123Z" fill="#A12252"/>
</g>
<g style="mix-blend-mode:multiply" opacity="0.36">
<path d="M23.5908 9.28C23.3304 9.1456 22.8852 9.4004 22.6612 9.5292C22.3456 9.67543 22.1002 9.93994 21.978 10.2656C21.978 10.3076 22.0284 10.3244 22.0452 10.2824C22.2018 9.96831 22.4706 9.72448 22.7984 9.5992C22.9483 9.52265 23.106 9.46257 23.2688 9.42C23.3796 9.40566 23.4879 9.37647 23.5908 9.3332C23.5955 9.33049 23.5993 9.32661 23.602 9.32194C23.6047 9.31727 23.6061 9.31198 23.6061 9.3066C23.6061 9.30122 23.6047 9.29593 23.602 9.29127C23.5993 9.2866 23.5955 9.28272 23.5908 9.28Z" fill="#A12252"/>
</g>
<g style="mix-blend-mode:multiply" opacity="0.36">
<path d="M26.8361 9.26329C26.7549 9.03369 26.3909 8.98329 26.1865 9.03369C26.0847 9.06698 25.9931 9.12553 25.9201 9.20389C25.8471 9.28224 25.7952 9.37782 25.7693 9.48169C25.7394 9.58713 25.7335 9.6979 25.7519 9.80592C25.7703 9.91394 25.8126 10.0165 25.8757 10.1061C25.9473 10.2064 26.0482 10.282 26.1645 10.3226C26.2808 10.3632 26.4068 10.3668 26.5253 10.3329C26.3433 10.2265 26.1417 10.2153 26.0073 10.0333C25.9579 9.9629 25.9254 9.88209 25.9123 9.79712C25.8992 9.71214 25.9058 9.62529 25.9317 9.54329C25.9491 9.4662 25.9857 9.39474 26.0381 9.33553C26.0905 9.27631 26.1569 9.23125 26.2313 9.20449C26.4469 9.13729 26.5981 9.31369 26.7913 9.31089C26.7978 9.3129 26.8047 9.31304 26.8113 9.31131C26.8179 9.30957 26.8239 9.30602 26.8285 9.30106C26.8332 9.2961 26.8364 9.28993 26.8377 9.28326C26.839 9.27658 26.8385 9.26967 26.8361 9.26329Z" fill="#A12252"/>
</g>
<g style="mix-blend-mode:multiply" opacity="0.36">
<path d="M30.2297 8.46523C30.0309 8.30283 29.0509 8.03683 29.1265 8.53803C29.1797 8.90203 29.6557 8.89923 29.9329 8.91603V8.89083C29.7425 8.83763 29.3897 8.78443 29.2833 8.59683C29.1769 8.40923 29.5633 8.38963 29.6837 8.41203C29.852 8.47002 30.027 8.50671 30.2045 8.52123C30.2325 8.51843 30.2549 8.48483 30.2297 8.46523Z" fill="#A12252"/>
</g>
<g style="mix-blend-mode:multiply" opacity="0.36">
<path d="M37.2044 18.5759C37.1962 18.569 37.1864 18.5641 37.1759 18.5617C37.1653 18.5593 37.1544 18.5595 37.144 18.5623C37.1335 18.565 37.1239 18.5702 37.1159 18.5775C37.1079 18.5847 37.1018 18.5938 37.098 18.6039C37.05 18.7895 37.0617 18.9855 37.1316 19.1639C37.1686 19.3428 37.2549 19.5077 37.3808 19.6399C37.3948 19.6399 37.4116 19.6399 37.4116 19.6203C37.3947 19.4672 37.3481 19.3189 37.2744 19.1835C37.2146 19.0402 37.1887 18.8849 37.1988 18.7299C37.3783 18.966 37.5322 19.2203 37.658 19.4887C37.658 19.4887 37.6804 19.4887 37.6776 19.4887C37.6316 19.1385 37.4641 18.8154 37.2044 18.5759Z" fill="#A12252"/>
</g>
<g style="mix-blend-mode:multiply" opacity="0.36">
<path d="M38.2404 22.8097C38.2263 22.8063 38.2114 22.8084 38.1989 22.8157C38.1863 22.823 38.1771 22.8349 38.1732 22.8489C38.141 23.012 38.1556 23.1809 38.2152 23.3361C38.2446 23.4817 38.3226 23.613 38.4364 23.7085C38.4407 23.711 38.4456 23.7123 38.4506 23.7123C38.4556 23.7122 38.4605 23.7109 38.4648 23.7083C38.4691 23.7057 38.4726 23.702 38.475 23.6976C38.4774 23.6933 38.4786 23.6883 38.4784 23.6833C38.4559 23.5579 38.4114 23.4375 38.3468 23.3277C38.2994 23.2006 38.2766 23.0657 38.2796 22.9301C38.3907 22.9598 38.4927 23.0165 38.5764 23.0953C38.5775 23.097 38.5789 23.0984 38.5806 23.0995C38.5822 23.1006 38.5841 23.1014 38.586 23.1018C38.588 23.1021 38.59 23.1021 38.5919 23.1018C38.5939 23.1014 38.5957 23.1006 38.5974 23.0995C38.599 23.0984 38.6005 23.097 38.6016 23.0953C38.6027 23.0937 38.6035 23.0918 38.6038 23.0899C38.6042 23.0879 38.6042 23.0859 38.6038 23.084C38.6035 23.082 38.6027 23.0802 38.6016 23.0785C38.5671 23.0082 38.5163 22.9472 38.4535 22.9004C38.3907 22.8537 38.3176 22.8226 38.2404 22.8097Z" fill="#A12252"/>
</g>
<g style="mix-blend-mode:multiply" opacity="0.36">
<path d="M38.5485 24.3047C38.3845 24.3046 38.2213 24.3282 38.0641 24.3747C37.7916 24.4407 37.5046 24.4069 37.2549 24.2795C37.2549 24.2795 37.2549 24.2795 37.2549 24.2795C37.4191 24.4245 37.6323 24.5016 37.8513 24.4951C38.0959 24.5031 38.3388 24.4522 38.5597 24.3467C38.5737 24.3411 38.5737 24.3075 38.5485 24.3047Z" fill="#A12252"/>
</g>
<g style="mix-blend-mode:multiply" opacity="0.36">
<path d="M37.868 20.9588C37.49 20.8216 37.2156 20.9812 36.9076 21.208C36.2804 21.6728 35.8016 21.9528 34.9952 21.9724C34.9952 21.9724 34.9952 21.9724 34.9952 21.9892C35.9724 22.6388 36.9944 21.278 37.8708 21.0708C37.8826 21.0667 37.8928 21.059 37.8999 21.0488C37.907 21.0385 37.9107 21.0263 37.9104 21.0138C37.91 21.0013 37.9058 20.9893 37.8982 20.9794C37.8906 20.9695 37.88 20.9623 37.868 20.9588Z" fill="#A12252"/>
</g>
<g style="mix-blend-mode:multiply" opacity="0.36">
<path d="M31.2096 12.9815C30.5012 11.9007 29.9804 10.6715 30.7644 9.50391C29.3896 10.0835 30.2772 12.4103 31.162 13.0403C31.1872 13.0571 31.2292 13.0123 31.2096 12.9815Z" fill="#A12252"/>
</g>
<g style="mix-blend-mode:multiply" opacity="0.36">
<path d="M27.69 11.7328C27.4884 11.6404 27.2476 11.5984 27.1748 11.3548C27.1395 11.1146 27.1955 10.8698 27.3316 10.6688C27.3484 10.6408 27.3064 10.6044 27.284 10.6324C27.1855 10.7391 27.1133 10.8673 27.0729 11.0067C27.0326 11.1462 27.0253 11.2932 27.0516 11.436C27.0908 11.5653 27.1776 11.6749 27.2947 11.7425C27.4117 11.8101 27.55 11.8307 27.6816 11.8C27.6905 11.8011 27.6995 11.7986 27.7066 11.7931C27.7137 11.7876 27.7183 11.7795 27.7194 11.7706C27.7205 11.7617 27.718 11.7527 27.7125 11.7456C27.707 11.7385 27.6989 11.7339 27.69 11.7328Z" fill="#A12252"/>
</g>
<g style="mix-blend-mode:multiply" opacity="0.36">
<path d="M24.7752 12.4159C24.2488 12.4159 23.9576 12.0743 23.7168 11.6431C23.5774 11.3875 23.4972 11.1038 23.4822 10.813C23.4672 10.5222 23.5177 10.2318 23.63 9.96313C23.63 9.96313 23.63 9.96313 23.63 9.96313C23.1232 10.5231 23.2296 11.3183 23.5852 11.9231C23.8204 12.3291 24.3496 12.9339 24.8424 12.5447C24.8872 12.5083 24.8396 12.4131 24.7752 12.4159Z" fill="#A12252"/>
</g>
<g style="mix-blend-mode:multiply" opacity="0.36">
<path d="M30.2297 17.4C29.8181 16.2632 28.4152 15.1152 27.354 16.2324C26.1528 17.5008 26.3965 19.7828 26.8277 21.292C26.8277 21.2972 26.8297 21.3021 26.8334 21.3058C26.8371 21.3095 26.842 21.3116 26.8472 21.3116C26.8524 21.3116 26.8574 21.3095 26.8611 21.3058C26.8648 21.3021 26.8668 21.2972 26.8668 21.292C26.8808 19.9368 26.6233 18.5788 27.1693 17.2824C27.4073 16.7224 27.8357 16.014 28.5693 16.1624C29.1657 16.2856 29.7341 17.022 30.1093 17.4672C30.1196 17.4799 30.1342 17.4886 30.1504 17.4917C30.1665 17.4948 30.1833 17.4921 30.1977 17.4841C30.212 17.4761 30.2231 17.4632 30.229 17.4478C30.2348 17.4325 30.2351 17.4155 30.2297 17.4Z" fill="#A12252"/>
</g>
<g style="mix-blend-mode:multiply" opacity="0.36">
<path d="M31.5009 13.0879C31.7004 13.5683 31.9295 14.0358 32.1869 14.4879C32.4417 15.0059 32.5873 15.6079 32.8953 16.0867C32.9068 16.1043 32.9236 16.1178 32.9432 16.1254C32.9628 16.133 32.9843 16.1343 33.0047 16.129C33.0251 16.1238 33.0433 16.1123 33.0568 16.0962C33.0703 16.08 33.0785 16.0601 33.0801 16.0391C33.1977 15.0367 32.2037 13.7263 31.5009 13.0879Z" fill="#A12252"/>
</g>
<g style="mix-blend-mode:multiply" opacity="0.36">
<path d="M38.5289 35.1128C38.4701 33.3488 38.6969 30.7616 37.5909 29.2328C37.5909 29.216 37.5461 29.2328 37.5573 29.2328C38.3049 31.0416 38.1733 33.1528 38.2125 35.0848C38.2349 36.1432 38.1817 37.1848 38.1173 38.2376C38.0445 39.45 37.6077 40.4776 37.3921 41.648C37.3921 41.6956 37.4565 41.7376 37.4789 41.6844C37.8709 40.7604 38.3189 39.8392 38.4113 38.8284C38.5291 37.5936 38.5683 36.3526 38.5289 35.1128Z" fill="#A12252"/>
</g>
<g style="mix-blend-mode:multiply" opacity="0.34">
<path d="M25.1588 16.0252C24.8396 15.692 24.3188 15.286 23.8736 15.65C23.3136 16.112 23.2268 17.1564 23.4508 17.8004C23.4508 17.8284 23.5124 17.8368 23.518 17.8004C23.63 17.2124 23.4788 16.6244 23.798 16.0756C23.9828 15.7676 24.2096 15.6108 24.5652 15.7676C24.7556 15.8516 24.9292 15.9748 25.1252 16.0476C25.1288 16.0497 25.133 16.0508 25.1372 16.0507C25.1414 16.0506 25.1456 16.0493 25.1491 16.047C25.1526 16.0446 25.1554 16.0413 25.1571 16.0375C25.1588 16.0336 25.1594 16.0294 25.1588 16.0252Z" fill="#004056"/>
</g>
<g style="mix-blend-mode:multiply" opacity="0.34">
<path d="M24.148 19.0353C23.2576 19.5953 21.628 19.7577 20.9672 20.6341C20.6536 21.0457 20.6872 21.5805 20.6872 22.0705C20.6655 22.9589 20.7171 23.8477 20.8412 24.7277C20.8479 24.7519 20.8624 24.7732 20.8823 24.7883C20.9023 24.8035 20.9267 24.8117 20.9518 24.8117C20.9769 24.8117 21.0013 24.8035 21.0212 24.7883C21.0412 24.7732 21.0557 24.7519 21.0624 24.7277C21.1702 24.0671 21.204 23.3966 21.1632 22.7285C21.1352 22.0285 20.8048 21.2277 21.2892 20.6313C21.9752 19.7913 23.378 19.8109 24.2124 19.1165C24.2572 19.0801 24.1984 19.0045 24.148 19.0353Z" fill="#004056"/>
</g>
<g style="mix-blend-mode:multiply" opacity="0.34">
<path d="M20.48 14.6869C20.5212 14.0393 20.3587 13.395 20.0152 12.8445C20.0108 12.8372 20.0042 12.8315 19.9962 12.8283C19.9883 12.8251 19.9796 12.8246 19.9714 12.8268C19.9632 12.829 19.9559 12.8338 19.9506 12.8406C19.9454 12.8473 19.9425 12.8555 19.9424 12.8641C19.9704 13.5641 20.0404 14.2445 20.0096 14.9501C19.9872 15.5101 19.8836 16.0701 20.1076 16.5797C20.1134 16.5902 20.1219 16.5989 20.1323 16.605C20.1426 16.6111 20.1544 16.6143 20.1664 16.6143C20.1784 16.6143 20.1902 16.6111 20.2005 16.605C20.2109 16.5989 20.2194 16.5902 20.2252 16.5797C20.494 16.0197 20.48 15.2973 20.48 14.6869Z" fill="#004056"/>
</g>
<g style="mix-blend-mode:multiply" opacity="0.34">
<path d="M35.166 18.0523C34.33 18.7272 33.4071 19.2866 32.422 19.7155C31.61 20.1103 30.84 20.5807 30.3696 21.3731C29.8575 22.3141 29.518 23.3392 29.3672 24.3999C29.174 25.5619 29.328 26.9199 28.544 27.8803C28.4936 27.9419 28.558 28.0427 28.6336 27.9951C29.3532 27.5555 29.51 26.7463 29.6164 25.9567C29.7479 24.6253 30.0655 23.319 30.56 22.0759C31.1032 20.8327 32.1756 20.3371 33.3124 19.7379C34.0684 19.3431 34.8496 18.8979 35.1912 18.0579C35.2108 18.0495 35.18 18.0383 35.166 18.0523Z" fill="#004056"/>
</g>
<g style="mix-blend-mode:multiply" opacity="0.34">
<path d="M28.1072 16.6271C28.1072 16.6075 28.0708 16.6271 28.068 16.6271C28.0176 17.0051 28.2192 17.3747 28.348 17.7219C28.5088 18.1322 28.5285 18.5844 28.404 19.0071C28.4015 19.0186 28.4023 19.0306 28.4065 19.0417C28.4106 19.0528 28.4178 19.0624 28.4272 19.0695C28.4367 19.0765 28.4479 19.0808 28.4597 19.0816C28.4715 19.0825 28.4832 19.0799 28.4936 19.0743C29.3672 18.6571 28.4348 17.1395 28.1072 16.6271Z" fill="#004056"/>
</g>
<g style="mix-blend-mode:multiply" opacity="0.34">
<path d="M28.3565 16.434C28.0989 16 27.6761 16.8848 27.6229 17.0472C27.4275 17.6589 27.3534 18.3028 27.4045 18.9428C27.4068 18.9518 27.4121 18.9597 27.4194 18.9653C27.4268 18.971 27.4358 18.9741 27.4451 18.9741C27.4543 18.9741 27.4633 18.971 27.4707 18.9653C27.478 18.9597 27.4833 18.9518 27.4857 18.9428C27.5389 18.4836 27.5893 18.03 27.6845 17.5764C27.7282 17.3081 27.8112 17.0477 27.9309 16.8036C28.0485 16.5964 28.1717 16.6076 28.3425 16.4928C28.3473 16.4899 28.3515 16.4861 28.3549 16.4816C28.3582 16.477 28.3606 16.4719 28.3619 16.4664C28.3633 16.4609 28.3634 16.4552 28.3625 16.4496C28.3616 16.4441 28.3595 16.4388 28.3565 16.434Z" fill="#004056"/>
</g>
<g style="mix-blend-mode:multiply" opacity="0.36">
<path d="M35.88 25.8335C35.8772 25.8219 35.871 25.8113 35.8621 25.8033C35.8532 25.7953 35.8421 25.7902 35.8302 25.7887C35.8184 25.7872 35.8063 25.7893 35.7957 25.7948C35.7851 25.8003 35.7764 25.8089 35.7708 25.8195C34.83 27.2951 32.24 25.7607 30.896 25.5703C31.4504 25.8615 36.3812 27.6703 35.88 25.8335Z" fill="#A12252"/>
</g>
<g style="mix-blend-mode:multiply" opacity="0.36">
<path d="M37.2801 26.9845C37.2774 26.9709 37.2701 26.9587 37.2593 26.95C37.2486 26.9413 37.2351 26.9366 37.2213 26.9369C37.1149 26.9369 37.0925 27.0209 37.0029 27.0601C36.9504 27.0744 36.8952 27.0746 36.8426 27.0609C36.79 27.0471 36.742 27.0198 36.7033 26.9817C36.5384 26.8496 36.3891 26.6993 36.2581 26.5337C36.3361 26.8081 36.5087 27.0462 36.7453 27.2057C36.7968 27.2394 36.8554 27.261 36.9165 27.2688C36.9776 27.2765 37.0397 27.2703 37.0981 27.2505C37.1849 27.2141 37.3053 27.1105 37.2801 26.9845Z" fill="#A12252"/>
</g>
<g style="mix-blend-mode:multiply" opacity="0.36">
<path d="M36.1936 23.7925C36.1875 23.7907 36.1809 23.7909 36.1749 23.793C36.1688 23.7951 36.1636 23.7991 36.1599 23.8043C36.1562 23.8095 36.1542 23.8158 36.1542 23.8222C36.1543 23.8286 36.1563 23.8349 36.16 23.8401C36.3196 23.9745 36.5717 24.0725 36.6361 24.2853C36.6484 24.3947 36.6349 24.5054 36.5964 24.6085C36.558 24.7117 36.4958 24.8043 36.4148 24.8789C36.1392 25.149 35.8284 25.3807 35.4908 25.5677C35.747 25.5286 35.9913 25.4329 36.2058 25.2876C36.4204 25.1423 36.5999 24.951 36.7313 24.7277C36.7856 24.633 36.8141 24.5258 36.8141 24.4167C36.8141 24.3075 36.7854 24.2003 36.731 24.1057C36.6766 24.0111 36.5984 23.9324 36.5041 23.8774C36.4098 23.8225 36.3028 23.7932 36.1936 23.7925Z" fill="#A12252"/>
</g>
</g>
<defs>
<linearGradient id="paint0_linear_12164_975" x1="45.414" y1="47.5897" x2="12.416" y2="6.53052" gradientUnits="userSpaceOnUse">
<stop stop-color="white"/>
<stop offset="0.39" stop-color="#3D4396"/>
<stop offset="0.86" stop-color="#2A4090"/>
</linearGradient>
<linearGradient id="paint1_linear_12164_975" x1="24.1143" y1="18.1671" x2="19.1247" y2="11.5367" gradientUnits="userSpaceOnUse">
<stop stop-color="white"/>
<stop offset="0.39" stop-color="#3D5996"/>
<stop offset="0.86" stop-color="#2A3B90"/>
</linearGradient>
<clipPath id="clip0_12164_975">
<rect width="56" height="56" rx="28" fill="white"/>
</clipPath>
</defs>
</svg>
