<svg width="56" height="56" viewBox="0 0 56 56" fill="none" xmlns="http://www.w3.org/2000/svg">
<g clip-path="url(#clip0_12164_3455)">
<rect width="56" height="56" rx="28" fill="#54D1FF"/>
<path d="M26.2376 31.0219C20.6292 31.0219 16.0827 26.6999 16.0827 21.3685C16.0827 16.0371 20.6292 11.7151 26.2376 11.7151C31.846 11.7151 36.3925 16.0371 36.3925 21.3685C36.3925 26.6999 31.846 31.0219 26.2376 31.0219Z" fill="#B0422E"/>
<path d="M35.873 56.9429H32.332L30.4517 56.6229C30.2153 56.5822 30.0033 56.4592 29.8572 56.2778C29.7111 56.0965 29.6413 55.8699 29.6615 55.6423L29.7347 54.8912L29.2518 54.8494C29.2153 55.072 29.1714 55.2806 29.1128 55.4962C29.0714 55.7078 28.9583 55.9008 28.7909 56.0457C28.7513 56.0755 28.7068 56.0989 28.6592 56.1152C28.0739 56.3308 27.6057 55.5658 26.9911 55.4684C26.6181 55.4662 26.2498 55.5472 25.9157 55.7049C25.5645 55.8162 25.0962 55.8092 24.9133 55.5032C24.854 55.3888 24.8263 55.262 24.8329 55.1346C24.8412 54.8079 24.9494 54.4905 25.1443 54.2213C25.3391 53.952 25.6123 53.7426 25.9303 53.6184C26.5448 53.3889 27.313 53.4793 27.8105 53.069C27.9033 52.9758 28.0036 52.8898 28.1105 52.8116C28.2841 52.7337 28.4819 52.7197 28.6657 52.7723C28.8495 52.825 29.0062 52.9406 29.1055 53.0968C29.2422 53.3061 29.3179 53.5461 29.325 53.7923L29.8298 53.834V53.7923C29.8522 53.551 29.9739 53.3279 30.1685 53.1716C30.3631 53.0153 30.6148 52.9384 30.8687 52.9577L35.3243 53.3263C35.5787 53.3493 35.8134 53.4665 35.9776 53.6526C36.1419 53.8386 36.2226 54.0787 36.2022 54.3209L35.9974 56.5882C35.979 56.7126 35.9369 56.8328 35.873 56.9429V56.9429Z" fill="#FFF3E8"/>
<path d="M31.2641 52.7283C31.0237 52.7275 30.7923 52.6415 30.615 52.4872C30.4378 52.3328 30.3275 52.1212 30.3056 51.8937L30.2398 51.1425L29.7642 51.1843C29.7642 51.3999 29.7642 51.6224 29.7642 51.838C29.7648 52.0521 29.6902 52.2601 29.5521 52.4292C29.5175 52.4689 29.4753 52.502 29.4277 52.5266C28.8936 52.8326 28.2937 52.158 27.6718 52.1649C27.3062 52.2208 26.96 52.3591 26.6622 52.5683C26.3329 52.7352 25.872 52.8117 25.6379 52.5683C25.5555 52.4645 25.5026 52.3424 25.4843 52.2136C25.4369 51.8896 25.4883 51.5596 25.6322 51.2625C25.7761 50.9655 26.0066 50.7138 26.2964 50.5375C26.8597 50.2106 27.6279 50.1758 28.0449 49.689C28.1222 49.5833 28.2078 49.4833 28.301 49.3899C28.4564 49.2859 28.6466 49.2398 28.8354 49.2603C29.0242 49.2808 29.1985 49.3666 29.3253 49.5012C29.4881 49.6788 29.6035 49.8912 29.6618 50.1202L30.1739 50.0784V49.988C30.1629 49.8683 30.1769 49.7477 30.2152 49.6331C30.2534 49.5186 30.3151 49.4123 30.3967 49.3205C30.4783 49.2287 30.5782 49.1532 30.6906 49.0982C30.8031 49.0433 30.9259 49.0101 31.0519 49.0004L35.5075 48.6318C35.7614 48.6125 36.0131 48.6894 36.2077 48.8458C36.4023 49.0021 36.524 49.2252 36.5464 49.4664L36.7512 51.7337C36.7646 51.8604 36.7497 51.9884 36.7075 52.1092C36.6653 52.23 36.5967 52.341 36.5062 52.4349C36.4157 52.5288 36.3054 52.6035 36.1825 52.654C36.0595 52.7046 35.9267 52.7299 35.7928 52.7283H31.2641Z" fill="#FFF3E8"/>
<path d="M35.6539 48.1518L31.191 48.6317C30.9565 48.6569 30.7204 48.6003 30.5266 48.4723C30.3328 48.3444 30.1945 48.1538 30.1375 47.9362L29.9838 47.199L29.5083 47.2894C29.542 47.506 29.5615 47.7243 29.5668 47.9431C29.5937 48.1562 29.5448 48.3717 29.4278 48.5552C29.3991 48.5987 29.3619 48.6365 29.318 48.6665C28.8279 49.0281 28.1475 48.43 27.5256 48.4995C27.1686 48.5973 26.8421 48.7763 26.5745 49.0212C26.4366 49.1397 26.2614 49.2115 26.0761 49.2253C25.8908 49.2391 25.7058 49.1943 25.5502 49.0977C25.4555 49.0053 25.3896 48.8897 25.36 48.7638C25.2709 48.4485 25.2794 48.1154 25.3846 47.8045C25.4897 47.4936 25.6869 47.2182 25.9526 47.0112C26.4721 46.6217 27.2329 46.5104 27.5841 45.9749C27.646 45.8595 27.7195 45.75 27.8036 45.648C27.9449 45.5263 28.1287 45.4589 28.3194 45.4589C28.51 45.4589 28.6939 45.5263 28.8352 45.648C29.0233 45.8024 29.1647 46.0017 29.2449 46.2253L29.7497 46.1279V46.0862C29.6993 45.8504 29.7475 45.6052 29.8841 45.4027C30.0206 45.2001 30.2349 45.0561 30.4813 45.0012L34.871 44.1458C35.1193 44.096 35.3781 44.141 35.5917 44.2711C35.8052 44.4013 35.9563 44.6061 36.0124 44.8413L36.4952 47.0738C36.5203 47.1977 36.518 47.3252 36.4884 47.4483C36.4589 47.5713 36.4028 47.6872 36.3237 47.7885C36.2446 47.8899 36.1442 47.9745 36.0289 48.037C35.9136 48.0996 35.7859 48.1387 35.6539 48.1518Z" fill="#FFF3E8"/>
<path d="M26.7718 42.0595C26.8234 41.9403 26.8871 41.8262 26.962 41.7187C27.092 41.5854 27.2692 41.5024 27.4596 41.4857C27.65 41.469 27.8401 41.5198 27.9936 41.6283C28.189 41.7713 28.3447 41.9575 28.4472 42.1707L28.9374 42.0316V41.9899C28.8646 41.7584 28.8916 41.5089 29.0123 41.2963C29.1331 41.0838 29.3377 40.9255 29.5812 40.8563L33.8685 39.6391C34.113 39.5698 34.3764 39.5953 34.6012 39.7099C34.826 39.8246 34.9939 40.0192 35.0683 40.2512L35.7487 42.435C35.787 42.557 35.7981 42.6853 35.7814 42.8116C35.7647 42.9379 35.7206 43.0596 35.6518 43.1688C35.5829 43.278 35.491 43.3724 35.3817 43.4461C35.2725 43.5197 35.1483 43.5709 35.0171 43.5965L30.6274 44.438C30.3923 44.4841 30.1477 44.4446 29.9418 44.3274C29.7359 44.2102 29.5837 44.0238 29.5153 43.8051L29.2885 43.1096L28.8276 43.2418C28.8784 43.455 28.9151 43.671 28.9374 43.8886C28.9849 44.0976 28.9566 44.3158 28.8569 44.5076C28.8336 44.5525 28.8013 44.5927 28.7618 44.6258C28.3008 45.0292 27.5692 44.4867 26.962 44.6258C26.6147 44.7552 26.304 44.9601 26.0548 45.2239C25.7694 45.4535 25.3231 45.6065 25.0451 45.3909C24.942 45.3058 24.866 45.195 24.8256 45.0709C24.7093 44.7639 24.6881 44.4317 24.7647 44.1136C24.8412 43.7955 25.0122 43.505 25.2573 43.2766C25.7255 42.7967 26.4718 42.6158 26.7718 42.0595Z" fill="#FFF3E8"/>
<path d="M25.3159 38.4221C25.3538 38.2978 25.4027 38.1768 25.4622 38.0604C25.5786 37.9166 25.7467 37.8186 25.9343 37.7852C26.1219 37.7519 26.3159 37.7854 26.4791 37.8796C26.691 38.0004 26.8672 38.1703 26.9913 38.3734L27.4668 38.1925V38.1508C27.4181 38.04 27.393 37.921 27.3932 37.8009C27.3933 37.6807 27.4187 37.5618 27.4677 37.4511C27.5168 37.3404 27.5885 37.2401 27.6788 37.156C27.7691 37.0719 27.8761 37.0058 27.9936 36.9615L32.1199 35.3828C32.2365 35.3364 32.3617 35.3126 32.488 35.3127C32.6144 35.3129 32.7395 35.337 32.856 35.3836C32.9725 35.4302 33.078 35.4984 33.1664 35.5843C33.2549 35.6701 33.3244 35.7718 33.371 35.8835L34.2782 37.97C34.3288 38.0873 34.3531 38.2134 34.3495 38.3401C34.3459 38.4668 34.3146 38.5915 34.2574 38.706C34.2002 38.8206 34.1186 38.9226 34.0176 39.0054C33.9166 39.0882 33.7985 39.1501 33.671 39.1871L29.3764 40.439C29.147 40.5062 28.8996 40.4891 28.6828 40.3913C28.4661 40.2934 28.2959 40.1218 28.2058 39.9104L27.9058 39.2149L27.4595 39.3888C27.5316 39.5967 27.5926 39.8079 27.6424 40.0217C27.7123 40.225 27.7123 40.4443 27.6424 40.6476C27.6183 40.6924 27.5889 40.7344 27.5546 40.7728C27.1449 41.211 26.3548 40.7728 25.7622 40.9189C25.4284 41.0822 25.1419 41.321 24.9281 41.6144C24.6647 41.8647 24.2477 42.0595 23.9331 41.8717C23.8225 41.796 23.7363 41.6924 23.6843 41.5726C23.5347 41.2789 23.4785 40.9499 23.5227 40.6262C23.5668 40.3025 23.7095 39.9982 23.9331 39.7504C24.3501 39.2497 25.0671 39.0063 25.3159 38.4221Z" fill="#FFF3E8"/>
<path d="M23.4356 34.8263C23.838 34.6037 24.3429 34.4855 24.5477 34.0334C24.6648 33.7761 24.6648 33.4422 24.855 33.2475C24.9427 33.1651 25.0609 33.1189 25.1842 33.1189C25.3075 33.1189 25.4258 33.1651 25.5134 33.2475C25.6455 33.3699 25.7457 33.52 25.8061 33.6857L26.1426 33.5535V33.5048C26.0777 33.2488 26.117 32.9789 26.2527 32.7493C26.3884 32.5196 26.6104 32.3473 26.8743 32.2669L31.2201 31.1054C31.3478 31.0749 31.4808 31.0702 31.6106 31.0914C31.7403 31.1127 31.864 31.1596 31.9735 31.229C32.0831 31.2985 32.1761 31.3889 32.2467 31.4946C32.3173 31.6003 32.3639 31.7188 32.3834 31.8426L32.8297 33.783C32.8455 34.088 32.7467 34.3883 32.551 34.6304C32.3554 34.8724 32.0755 35.0405 31.7615 35.1045L27.7083 36.3077C27.4601 36.3416 27.2079 36.281 27.0065 36.139C26.8051 35.997 26.6708 35.7852 26.6328 35.5496L26.4426 34.7428L26.1207 34.8332C26.1891 35.3684 26.1694 35.9104 26.0622 36.4398C26.0561 36.5647 25.9982 36.6822 25.9012 36.7667C25.7256 36.871 25.5427 36.6624 25.3818 36.5302C25.2282 36.4263 25.0462 36.3671 24.8578 36.3597C24.6695 36.3523 24.483 36.397 24.3209 36.4885C23.9845 36.6892 23.6707 36.9222 23.3844 37.184C23.2266 37.3278 23.0327 37.4307 22.8211 37.483C22.7156 37.5017 22.6065 37.4873 22.5103 37.4422C22.414 37.3971 22.3357 37.3236 22.287 37.2327C22.2291 37.0839 22.2115 36.9236 22.2358 36.7667C22.2675 36.3778 22.3921 36.001 22.6 35.6648C22.8079 35.3285 23.0937 35.0418 23.4356 34.8263V34.8263Z" fill="#FFF3E8"/>
<path d="M23.0844 29.5476C23.3786 29.3992 23.6299 29.1842 23.816 28.9216C23.895 28.6732 23.9562 28.4199 23.9989 28.1635C24.0867 27.9201 24.3647 27.6976 24.5769 27.8367C24.6695 27.9184 24.7333 28.0252 24.7598 28.1427C24.8183 28.3235 24.8622 28.5043 24.9061 28.6921L25.367 28.5878V28.5391C25.3448 28.2794 25.4255 28.0212 25.5934 27.8153C25.7613 27.6094 26.0041 27.4706 26.2742 27.4263L30.5615 26.9256C30.6921 26.9159 30.8233 26.9322 30.9469 26.9734C31.0705 27.0145 31.1838 27.0797 31.2794 27.1648C31.3751 27.2498 31.451 27.3528 31.5025 27.4673C31.554 27.5818 31.5799 27.7052 31.5785 27.8297L31.9004 29.8258C31.8645 30.1302 31.7161 30.4126 31.4816 30.6227C31.2471 30.8329 30.9418 30.9571 30.6201 30.9733L26.4205 31.5436C26.1702 31.5382 25.932 31.4398 25.757 31.2695C25.582 31.0992 25.484 30.8706 25.4841 30.6325L25.4402 29.7979L25.1036 29.8953C25.1341 30.2353 25.1463 30.5765 25.1402 30.9177C25.1495 31.0814 25.1061 31.2439 25.0158 31.3836C24.7525 31.7175 24.2257 31.4323 23.8306 31.5714C23.4355 31.7105 23.3697 32.0096 23.2453 32.3087L22.8283 33.2823C22.7112 33.5536 22.5356 33.8735 22.2503 33.8874C22.1418 33.8795 22.0385 33.8398 21.9546 33.7738C21.8708 33.7078 21.8105 33.6187 21.7821 33.5188C21.7207 33.3085 21.7033 33.0887 21.7309 32.872C21.7894 31.634 22.104 30.2778 23.0844 29.5476Z" fill="#FFF3E8"/>
<path d="M22.7039 24.8111C23.0091 24.5957 23.2592 24.3176 23.4355 23.9974C23.5233 23.747 23.5086 23.448 23.6842 23.2602C23.7444 23.2103 23.8157 23.1739 23.8926 23.1537C23.9696 23.1334 24.0504 23.1298 24.129 23.1432C24.2076 23.1565 24.2821 23.1865 24.3469 23.2308C24.4118 23.2751 24.4653 23.3327 24.5036 23.3993C24.6222 23.5909 24.683 23.8099 24.6792 24.0322H24.9353V23.9905C24.9381 23.7337 25.0417 23.4873 25.2257 23.2994C25.4098 23.1115 25.6611 22.9959 25.9303 22.975L29.9542 22.7664C30.0829 22.7652 30.2105 22.7892 30.3289 22.837C30.4474 22.8847 30.5542 22.9552 30.6428 23.0439C30.7314 23.1327 30.7997 23.2378 30.8436 23.3528C30.8875 23.4678 30.9061 23.5902 30.898 23.7123L31.059 25.6596C31.059 26.2369 30.2688 26.7029 29.6981 26.6681L25.7547 26.9602C25.5095 26.9407 25.282 26.8308 25.1208 26.6541C24.9595 26.4775 24.8772 26.2479 24.8914 26.0143V25.2076L24.5622 25.2841C24.511 25.604 24.4524 25.9309 24.3939 26.2508C24.3827 26.3271 24.3553 26.4004 24.3134 26.4664C24.189 26.6194 23.9622 26.5499 23.772 26.5568C23.3184 26.5568 23.0404 27.0784 22.8721 27.5096C22.6906 28.0522 22.3506 28.5346 21.8918 28.9006C21.8222 28.9498 21.7369 28.9743 21.6503 28.9702C21.4455 28.9702 21.4235 28.6433 21.4455 28.4347C21.5772 27.1132 21.7747 25.7014 22.7039 24.8111Z" fill="#FFF3E8"/>
<path d="M21.9724 21.1461C21.9516 20.8647 21.9838 20.5821 22.0675 20.3115C22.1829 20.0875 22.3468 19.8892 22.5486 19.7298C22.7504 19.5704 22.9853 19.4534 23.2381 19.3865C23.2858 19.1212 23.4217 18.8774 23.6259 18.691C23.724 18.6009 23.8552 18.5505 23.9917 18.5505C24.1281 18.5505 24.2593 18.6009 24.3575 18.691C24.4384 18.8102 24.492 18.9443 24.5146 19.0845C24.5373 19.2247 24.5287 19.3679 24.4892 19.5047V19.6786H24.7452V19.6368C24.7758 19.3885 24.9018 19.1597 25.0989 18.9941C25.296 18.8286 25.5504 18.738 25.8134 18.7397L29.6837 18.8023C29.8096 18.8042 29.9336 18.8314 30.0477 18.8821C30.1617 18.9328 30.2632 19.0059 30.3454 19.0965C30.4276 19.1872 30.4887 19.2933 30.5247 19.408C30.5607 19.5227 30.5708 19.6434 30.5543 19.762V21.619C30.4958 22.1615 29.6837 22.5579 29.091 22.4884H25.2866C25.0508 22.4588 24.8366 22.3424 24.6902 22.1642C24.5437 21.986 24.4768 21.7602 24.5038 21.5355L24.5843 20.7705H24.2989L24.1599 21.772C24.16 21.8591 24.1319 21.9441 24.0795 22.0154C23.9331 22.1962 23.6551 22.0572 23.4283 22.078C23.0332 22.078 22.8796 22.6135 22.6967 22.9961C22.5735 23.332 22.3707 23.6366 22.1041 23.8863C21.9731 24.0249 21.7938 24.1139 21.5993 24.1367C21.5002 24.1381 21.4039 24.106 21.3275 24.0461C21.2511 23.9863 21.1996 23.9025 21.1822 23.8098C21.1841 23.6214 21.2598 23.4404 21.3944 23.3021C21.7944 22.6486 21.9946 21.9019 21.9724 21.1461V21.1461Z" fill="#FFF3E8"/>
<path d="M21.6798 17.2095C21.8408 16.827 21.7969 16.3888 21.9651 16.0063C22.0433 15.8389 22.1592 15.6899 22.3046 15.5697C22.4499 15.4496 22.6213 15.3612 22.8065 15.3108C23.0139 15.2793 23.2158 15.2208 23.4064 15.1369C23.6918 14.9631 23.882 14.5597 24.2112 14.6153C24.2949 14.6357 24.3706 14.6788 24.429 14.7393C24.4874 14.7998 24.5262 14.8751 24.5404 14.9561C24.5732 15.1146 24.5732 15.2776 24.5404 15.436V15.5056H24.9136V15.4638C24.9649 15.2226 25.1085 15.0079 25.3166 14.8615C25.5247 14.715 25.7825 14.6472 26.0403 14.671L29.9032 14.9353C30.025 14.9414 30.1441 14.972 30.2526 15.0251C30.361 15.0782 30.4564 15.1526 30.5325 15.2432C30.6085 15.3339 30.6635 15.4389 30.6937 15.5512C30.724 15.6636 30.7289 15.7808 30.708 15.895L30.5909 17.6616C30.4958 18.1762 29.6618 18.5031 29.1277 18.4058L25.3306 18.218C25.2162 18.2037 25.1061 18.1675 25.0068 18.1117C24.9075 18.0559 24.8211 17.9816 24.7527 17.8933C24.6844 17.8049 24.6356 17.7044 24.6091 17.5976C24.5827 17.4909 24.5793 17.3801 24.599 17.2721L24.7307 16.5766H24.3502L24.2624 17.0356C24.2497 17.2934 24.1438 17.5391 23.9625 17.7311C23.6479 17.9746 23.1796 17.8424 22.7772 17.9259C22.1041 18.0719 21.7822 18.7744 21.3872 19.3169C21.2628 19.4838 21.036 19.6576 20.8604 19.5394C20.809 19.4929 20.7711 19.4344 20.7506 19.3698C20.7301 19.3052 20.7276 19.2366 20.7433 19.1708C20.7853 18.8098 20.9129 18.4627 21.1165 18.1554C21.3354 17.8578 21.5241 17.5411 21.6798 17.2095V17.2095Z" fill="#FFF3E8"/>
<path d="M23.3477 11.0891C23.557 11.0746 23.7635 11.0349 23.9623 10.9709C24.2622 10.8318 24.4963 10.4423 24.8183 10.5328C24.8998 10.56 24.971 10.6095 25.0231 10.6751C25.0752 10.7406 25.1057 10.8194 25.1109 10.9014C25.1189 11.0643 25.0941 11.2272 25.0377 11.3813H25.3816V11.3395C25.4518 11.0992 25.6114 10.8912 25.8307 10.7544C26.0501 10.6175 26.3143 10.561 26.5741 10.5953L30.1518 11.0752C30.2738 11.0884 30.3914 11.1263 30.4967 11.1865C30.6019 11.2466 30.6923 11.3276 30.7617 11.424C30.8311 11.5203 30.8779 11.6297 30.8989 11.7447C30.9199 11.8598 30.9146 11.9777 30.8834 12.0906L30.62 13.885C30.4883 14.3997 29.6177 14.6848 29.069 14.5805L25.762 14.1841C25.6494 14.1605 25.543 14.1156 25.4491 14.0519C25.3552 13.9883 25.2758 13.9072 25.2157 13.8137C25.1556 13.7202 25.1159 13.6161 25.0992 13.5076C25.0824 13.3991 25.0889 13.2886 25.1182 13.1826L25.228 12.4871H24.7085C24.6646 12.6401 24.6134 12.8001 24.5695 12.96C24.5268 13.2079 24.3949 13.4341 24.1964 13.5999C23.8598 13.8155 23.4648 13.0574 23.1355 13.2521C22.4944 13.7283 21.9321 14.2933 21.4674 14.9283C21.3284 15.0813 21.0797 15.2343 20.9187 15.0952C20.8723 15.0445 20.841 14.9829 20.8282 14.9169C20.8153 14.8508 20.8213 14.7827 20.8456 14.7196C20.9203 14.3637 21.0834 14.0299 21.3211 13.7459C21.5768 13.4916 21.8094 13.217 22.0161 12.9252C22.2137 12.5636 22.2137 12.1254 22.4185 11.7568C22.5087 11.5849 22.6395 11.4352 22.8007 11.3194C22.9619 11.2035 23.1491 11.1247 23.3477 11.0891V11.0891Z" fill="#FFF3E8"/>
<path d="M25.4403 6.80501C25.6452 6.64505 25.7842 6.40858 25.9963 6.25557C26.2085 6.10256 26.5743 6.0817 26.728 6.31121C26.8816 6.54072 26.728 6.69373 26.6109 6.8676C26.5627 6.94655 26.5187 7.0278 26.4792 7.11102L26.8523 7.20144V7.15971C26.9612 6.93133 27.152 6.74719 27.3906 6.64017C27.6291 6.53315 27.8999 6.51023 28.1546 6.5755L31.2567 7.37531C31.3748 7.40438 31.4848 7.45773 31.5789 7.53161C31.6729 7.60549 31.7488 7.69808 31.8011 7.80287C31.8535 7.90766 31.881 8.02209 31.8817 8.13808C31.8824 8.25407 31.8564 8.36881 31.8054 8.47419L31.2421 10.2129C31.0613 10.4558 30.8009 10.6347 30.5016 10.7215C30.2023 10.8084 29.8812 10.7983 29.5886 10.6928L26.7426 9.99731C26.6346 9.96039 26.536 9.90232 26.4531 9.82686C26.3702 9.7514 26.3049 9.66023 26.2615 9.55926C26.218 9.45829 26.1974 9.34976 26.2009 9.24072C26.2043 9.13167 26.2319 9.02454 26.2817 8.92625L26.3768 8.23076L25.9744 8.12644C25.8316 8.47672 25.7095 8.8343 25.6086 9.1975C25.5977 9.26439 25.5673 9.32705 25.5208 9.37832C25.3745 9.52438 25.1257 9.37832 24.9867 9.21836C24.8477 9.0584 24.5185 8.71761 24.1966 8.76629C23.9885 8.83352 23.8055 8.95675 23.6698 9.12099C23.5259 9.26459 23.3536 9.37969 23.1628 9.45967C22.9719 9.53964 22.7663 9.58291 22.5577 9.58697C22.5222 9.58706 22.4871 9.58033 22.4544 9.56718C22.4217 9.55404 22.3921 9.53474 22.3675 9.51047C22.3495 9.4771 22.3402 9.44015 22.3402 9.40267C22.3402 9.36518 22.3495 9.32823 22.3675 9.29487C22.5256 8.95635 22.7325 8.64036 22.9821 8.35595C23.3022 7.88756 23.7496 7.51025 24.277 7.26403C24.686 7.16498 25.0778 7.01038 25.4403 6.80501V6.80501Z" fill="#FFF3E8"/>
<path d="M26.9985 3.23714C27.3423 3.105 27.5106 2.66684 27.8764 2.60425C28.052 2.60425 28.2642 2.60425 28.3227 2.77117C28.3521 2.88606 28.3365 3.0072 28.2788 3.11196C28.2203 3.25105 28.1617 3.39711 28.0959 3.53621C28.03 3.6753 28.0593 3.63358 28.0374 3.68921L28.4251 3.77267C28.5348 3.56361 28.7169 3.39688 28.9408 3.30059C29.1647 3.20431 29.4167 3.18436 29.6543 3.2441L32.3978 3.93959C32.5095 3.96001 32.6146 4.00489 32.7048 4.07066C32.795 4.13643 32.8679 4.22128 32.9176 4.31849C32.9673 4.41569 32.9925 4.52258 32.9912 4.63065C32.9898 4.73873 32.962 4.84502 32.91 4.9411L32.3027 6.47118C32.1198 6.68254 31.872 6.83434 31.594 6.90541C31.3159 6.97647 31.0214 6.96326 30.7517 6.86761L28.1544 6.27644C28.0532 6.24665 27.96 6.19631 27.8812 6.1289C27.8024 6.06148 27.74 5.97861 27.6983 5.88601C27.6565 5.79341 27.6364 5.6933 27.6394 5.59259C27.6424 5.49188 27.6683 5.39299 27.7155 5.30275L27.9642 4.67681L27.5984 4.60726L27.5106 4.78113C27.335 5.10106 27.0277 5.47662 26.6619 5.36535C26.2961 5.25407 26.5302 4.80895 26.223 4.66986C25.8215 4.60812 25.4099 4.68194 25.0597 4.8785C24.8267 5.04463 24.5823 5.19566 24.3281 5.33057C24.2928 5.34713 24.254 5.35574 24.2147 5.35574C24.1753 5.35574 24.1365 5.34713 24.1013 5.33057C23.9842 5.26798 24.0135 5.10106 24.0647 4.98283C24.2742 4.5661 24.5742 4.1963 24.9449 3.8978C25.3157 3.5993 25.7488 3.37887 26.2156 3.25105C26.7058 3.11196 26.8375 3.29278 26.9985 3.23714Z" fill="#FFF3E8"/>
<path d="M29.7788 -0.727146C29.8666 -0.727146 30.0861 -0.796695 30.1226 -0.727146C30.1371 -0.623278 30.1371 -0.518045 30.1226 -0.414177C30.0715 -0.175777 29.9955 0.0571987 29.8958 0.281314L30.1226 0.350864V0.31609C30.1963 0.116385 30.3463 -0.0496274 30.5429 -0.148874C30.7395 -0.24812 30.9682 -0.273315 31.1835 -0.219438L33.532 0.476053C33.6319 0.51087 33.7231 0.565035 33.7998 0.635116C33.8765 0.705197 33.9371 0.789665 33.9777 0.883167C34.0183 0.976669 34.038 1.07717 34.0356 1.17829C34.0331 1.27941 34.0087 1.37895 33.9637 1.47061L33.4296 3.00764C33.2978 3.22024 33.0906 3.38118 32.8452 3.4615C32.5997 3.54182 32.3322 3.53625 32.0907 3.4458L29.8958 2.87549C29.7132 2.7925 29.572 2.64495 29.5023 2.46432C29.4326 2.2837 29.4399 2.08432 29.5227 1.90876L29.7422 1.27587L29.4349 1.19241C29.4078 1.23262 29.3833 1.27443 29.3618 1.3176C29.2301 1.56797 29.0106 1.83921 28.7252 1.79053C28.4399 1.74185 28.3229 1.42192 28.0741 1.30369C27.6864 1.12286 27.2913 1.48451 26.9108 1.65839C26.5304 1.83226 25.8646 2.1035 25.989 1.72794C26.0876 1.36593 26.2976 1.04015 26.5922 0.792338C26.8868 0.544523 27.2525 0.385957 27.6425 0.336954C27.7995 0.331052 27.956 0.314785 28.1107 0.28827C28.7253 0.0796229 29.113 -0.671507 29.7788 -0.727146Z" fill="#FFF3E8"/>
</g>
<defs>
<clipPath id="clip0_12164_3455">
<rect width="56" height="56" rx="28" fill="white"/>
</clipPath>
</defs>
</svg>
