<svg width="56" height="56" viewBox="0 0 56 56" fill="none" xmlns="http://www.w3.org/2000/svg">
<g clip-path="url(#clip0_12164_1720)">
<rect width="56" height="56" rx="28" fill="#54D1FF"/>
<path d="M59 0H3V56H59V0Z" fill="#54D1FF"/>
<g style="mix-blend-mode:multiply" opacity="0.26">
<path style="mix-blend-mode:multiply" opacity="0.26" d="M59.0001 30.982V56H27.9677L13.8893 37.9092L46.2545 15.6492L59.0001 30.982Z" fill="url(#paint0_linear_12164_1720)"/>
</g>
<path d="M14.858 34.3029C14.606 35.2269 13.584 36.0193 13.5812 36.9993C13.5812 38.2509 14.858 38.6793 15.9164 38.4833C17.1932 38.2621 17.8344 37.1981 18.75 36.3945C19.9596 35.3305 21.6536 35.1793 23.0844 34.4093C24.1451 33.8871 25.0657 33.1191 25.7696 32.1693C26.2148 31.5365 26.3968 30.9289 27.1416 30.5873C28.5416 29.9433 30.5212 30.1141 32.0192 29.7165C33.604 29.2937 35.7572 27.8573 36.6784 26.4573C37.0872 25.8329 37.1376 25.4465 37.6892 24.9873C38.4368 24.3601 39.4644 24.0353 40.226 23.3941C41.4804 22.3357 42.0208 20.8601 43.2332 19.7541C44.1852 18.8945 46.2824 17.3769 46.4224 16.0665C45.63 14.7197 44.4904 16.4949 43.6756 16.8085C40.548 18.0125 37.5156 19.4517 34.3964 20.6809C30.7564 22.1089 26.8504 22.3945 23.2104 23.8813C20.4104 25.0209 16.2944 27.6977 15.81 31.0017L14.858 34.3029Z" fill="#7C2930"/>
<g style="mix-blend-mode:multiply" opacity="0.72">
<path d="M43.6756 16.8252C40.548 18.0292 37.5156 19.4684 34.3964 20.6976C30.7564 22.1256 26.8504 22.4112 23.2104 23.898C20.4104 25.0376 16.2944 27.7144 15.81 31.0184L14.858 34.3028C14.606 35.2268 13.584 36.0192 13.5812 36.9992C13.5784 37.9792 14.3568 38.444 15.2024 38.514C15.2146 38.2445 15.2636 37.9779 15.348 37.7216C15.8436 36.3888 17.308 35.532 18.456 34.7872C19.8728 33.8716 21.4632 33.1464 22.6896 31.9396C24.1652 30.4864 24.6748 29.3692 26.716 28.826C30.1488 27.9132 33.8056 27.426 36.6392 25.2952C38.3052 24.038 39.7416 22.7752 41.3012 21.3416C41.7695 20.9222 42.2714 20.542 42.802 20.2048C42.9364 20.0564 43.082 19.9108 43.2332 19.7708C44.1852 18.9112 46.2824 17.3936 46.4224 16.0832C45.63 14.7364 44.4904 16.52 43.6756 16.8252Z" fill="#9D3E42"/>
</g>
<path d="M29.4712 26.1463C28.7712 25.7907 28.6956 23.5955 28.8412 22.1227C28.9812 20.7227 28.928 19.1911 29.3424 17.8639C30.3784 14.5459 32.8788 14.4031 35.9308 14.8175C37.3784 15.0135 38.8232 15.2711 40.2736 15.3439C41.836 15.4251 43.5272 15.0331 45.0336 15.2319C47.5536 15.5651 46.1844 16.9119 44.6332 17.6483C42.9532 18.4379 41.4972 19.0875 40.5564 20.7451C39.9796 21.7643 39.848 22.4671 38.8764 23.1811C37.5548 24.1443 36.2276 24.4663 34.6764 24.9535C32.9376 25.5051 30.16 26.5047 29.4712 26.1463Z" fill="#9D3E42"/>
<g style="mix-blend-mode:multiply" opacity="0.39">
<path d="M45.0393 15.232C43.5273 15.0332 41.8361 15.4252 40.2793 15.344C40.0945 15.344 39.9069 15.3216 39.7193 15.3076C40.6769 15.8284 41.6793 16.38 40.2793 17.6344C39.5681 18.2784 38.3781 18.4128 37.6249 19.082C36.7681 19.8408 36.8885 20.6108 36.3873 21.5096C35.2673 23.52 32.9825 23.6824 31.0673 23.1896C30.1985 22.9842 29.4248 22.4907 28.8721 21.7896C28.8721 21.9016 28.8553 22.0136 28.8441 22.1228C28.6985 23.5956 28.7741 25.7908 29.4741 26.1464C30.1741 26.502 32.9405 25.5052 34.6849 24.9536C36.2277 24.4664 37.5549 24.1444 38.8849 23.1812C39.8649 22.4672 40.0049 21.7644 40.5649 20.7452C41.5057 19.0876 42.9561 18.438 44.6417 17.6484C46.1901 16.9204 47.5481 15.5652 45.0393 15.232Z" fill="#9D3E42"/>
</g>
<path d="M14.0963 35.6777C14.2727 34.0397 14.7123 32.5389 14.5387 30.8057C14.3774 29.0455 14.3064 27.2783 14.3259 25.5109C14.3259 21.2297 15.7847 17.5169 19.5563 15.0809C21.3763 13.9049 23.5911 13.4373 25.7163 13.4373C26.5563 13.4373 27.2479 13.7173 28.0123 13.9665C28.6675 14.1821 30.1123 14.2465 30.5911 14.7001C31.1931 15.2601 30.3111 16.4725 29.9303 17.3545C29.4848 18.4186 29.2071 19.5455 29.1071 20.6949C28.8887 22.8509 29.9107 25.5417 27.7351 26.9977C25.8479 28.2577 23.8151 27.3897 22.0063 29.0809C20.7743 30.2317 19.8839 31.7297 18.6715 32.9001C17.6439 33.8969 16.3335 34.4093 15.1267 35.1401C14.7235 35.3921 14.1579 35.5097 14.0963 35.6777Z" fill="#9D3E42"/>
<g style="mix-blend-mode:multiply" opacity="0.46">
<path d="M29.1017 20.6949C29.2022 19.5474 29.4799 18.4225 29.9249 17.3601C30.2945 16.4781 31.1876 15.2713 30.5856 14.7057C30.1068 14.2577 28.6621 14.1877 28.0069 13.9721C27.2425 13.7229 26.562 13.4429 25.7108 13.4429C25.0833 13.4427 24.4565 13.4857 23.8349 13.5717C24.4967 13.7532 25.0699 14.1692 25.4477 14.7421C26.2317 15.9937 25.6801 17.3713 25.1677 18.4857C24.5769 19.7597 24.6637 20.7789 24.3277 22.1621C24.1065 23.0721 23.4008 24.6961 22.4824 25.2645C21.1804 26.0737 20.1977 25.3093 19.1505 26.7961C18.3441 27.9413 17.9857 29.6745 16.5325 30.2457C15.7317 30.5593 15.0597 30.2653 14.4661 29.8985C14.4885 30.2009 14.5137 30.5033 14.5445 30.8113C14.7181 32.5445 14.2645 34.0453 14.1021 35.6833C14.1637 35.5153 14.7293 35.4033 15.1269 35.1541C16.3337 34.4149 17.6469 33.9025 18.6717 32.9141C19.8841 31.7437 20.7745 30.2457 22.0065 29.0949C23.8209 27.4149 25.8481 28.2717 27.7353 27.0117C29.9053 25.5417 28.8833 22.8509 29.1017 20.6949Z" fill="#9D3E42"/>
</g>
<g style="mix-blend-mode:screen" opacity="0.34">
<path d="M22.6588 14.7055C19.8868 14.1231 15.6392 19.3647 15.2052 23.3183C14.9896 25.2923 15.362 28.1259 17.8288 26.3983C19.3268 25.3427 20.57 23.2623 21.6704 21.8035C22.6364 20.5127 25.4308 15.2879 22.6588 14.7055Z" fill="#9D3E42"/>
</g>
<g style="mix-blend-mode:screen" opacity="0.34">
<path d="M34.3797 15.834C31.6945 16.142 29.4825 18.4772 30.8069 20.6668C32.4869 23.4472 35.7825 19.5664 37.3085 18.4856C39.2741 17.094 38.0449 15.8928 34.3797 15.834Z" fill="#9D3E42"/>
</g>
<g style="mix-blend-mode:screen" opacity="0.34">
<path d="M19.5509 16.5396C17.1877 17.8836 15.1157 21.14 16.0901 23.2596C17.2101 25.6732 21.2113 20.034 21.8105 18.7796C22.4097 17.5252 21.9169 15.1984 19.5509 16.5396Z" fill="#9D3E42"/>
</g>
<g style="mix-blend-mode:screen" opacity="0.34">
<path d="M35.3484 16.0972C32.6268 15.9824 30.0816 19.2836 33.6012 18.9532C34.4608 18.872 36.0428 18.6284 36.6336 17.878C37.4764 16.814 36.7764 16.2204 35.3484 16.0972Z" fill="#9D3E42"/>
</g>
<g style="mix-blend-mode:screen" opacity="0.77">
<path d="M18.96 16.3716C16.7564 17.5756 14.606 20.2356 15.2276 22.9152C15.233 22.9313 15.2434 22.9454 15.2572 22.9553C15.271 22.9653 15.2876 22.9706 15.3046 22.9706C15.3217 22.9706 15.3382 22.9653 15.3521 22.9553C15.3659 22.9454 15.3762 22.9313 15.3816 22.9152C15.7372 21.6524 15.796 20.4288 16.4456 19.2472C17.0672 18.1272 18.0164 17.234 18.9992 16.422C19.0384 16.3996 19.002 16.3548 18.96 16.3716Z" fill="#9D3E42"/>
</g>
<g style="mix-blend-mode:screen" opacity="0.77">
<path d="M33.3884 15.96C31.686 16.2176 28.7656 18.354 30.3812 20.2496C30.3907 20.2593 30.4032 20.2656 30.4166 20.2675C30.4301 20.2694 30.4438 20.2668 30.4556 20.2601C30.4675 20.2534 30.4768 20.2429 30.482 20.2304C30.4873 20.2178 30.4883 20.2039 30.4848 20.1908C29.796 18.1188 31.5516 16.5788 33.394 15.9908C33.4052 15.9824 33.3996 15.96 33.3884 15.96Z" fill="#9D3E42"/>
</g>
<g style="mix-blend-mode:screen" opacity="0.52">
<path d="M28.3177 22.3301H28.2981C27.9117 23.8925 27.9789 26.1465 26.2065 26.8381C24.7477 27.3981 23.2581 27.0509 21.9561 28.0841C20.6541 29.1173 19.9681 30.5901 18.7837 31.6709C17.5993 32.7517 15.8661 33.2753 14.9981 34.7369C14.9729 34.7789 15.0345 34.8265 15.0625 34.7901C16.2105 33.3201 17.9969 32.7769 19.2625 31.4637C20.5925 30.1001 21.5669 28.0589 23.5661 27.5829C24.8709 27.2749 26.4753 27.5241 27.3797 26.3061C28.1581 25.2701 28.3625 23.5845 28.3177 22.3301Z" fill="#9D3E42"/>
</g>
<g style="mix-blend-mode:screen" opacity="0.77">
<path d="M32.4 25.2644C31.5824 25.41 30.034 26.4236 29.3536 25.5444C28.8804 24.9284 29.1044 23.4668 29.1352 22.7444C29.2332 20.2412 29.7176 17.9592 30.8936 15.7304C30.8995 15.72 30.9011 15.7077 30.898 15.6961C30.8948 15.6846 30.8872 15.6747 30.8768 15.6688C30.8664 15.6628 30.8541 15.6613 30.8425 15.6644C30.831 15.6676 30.8211 15.6752 30.8152 15.6856C29.2612 18.1804 28.7824 21.0532 28.8552 23.9596C28.872 24.6596 28.8244 25.7684 29.6224 26.0736C30.5128 26.4152 31.6384 25.6648 32.4224 25.34C32.4324 25.337 32.4409 25.3302 32.4459 25.321C32.4508 25.3118 32.452 25.301 32.449 25.291C32.446 25.281 32.4392 25.2725 32.43 25.2675C32.4208 25.2626 32.41 25.2614 32.4 25.2644Z" fill="#9D3E42"/>
</g>
<g style="mix-blend-mode:multiply" opacity="0.72">
<path d="M29.9641 17.2675C30.1881 16.5255 30.5689 15.3831 30.0341 14.6859C30.0061 14.6495 29.9445 14.6859 29.9697 14.7251C30.4373 15.5259 30.0229 16.6851 29.7625 17.4887C29.4573 18.4267 29.0485 19.3339 28.7853 20.2887C28.4801 21.3807 28.6733 22.5287 28.7853 23.6291C28.9169 24.8415 29.0653 26.2947 28.0657 27.2047C27.2649 27.9327 26.0721 27.9551 25.0529 28.0447C24.1065 28.1287 23.2133 28.2631 22.4153 28.8147C21.5221 29.4335 20.8837 30.3407 20.2733 31.2199C19.6629 32.0991 19.0413 33.1463 18.0781 33.6895C17.1737 34.2019 16.1573 34.4763 15.2445 34.9635C14.5921 35.3135 13.9229 35.8035 13.8809 36.5987C13.8809 36.6183 13.9089 36.6155 13.9089 36.5987C13.9901 35.5823 15.0933 35.0867 15.9109 34.7339C16.7285 34.3811 17.6329 34.1263 18.3833 33.6307C19.1897 33.0959 19.7441 32.1803 20.2873 31.3907C21.0181 30.3407 21.7881 29.2011 22.9641 28.6131C24.6105 27.7899 26.9849 28.6131 28.3177 27.1123C29.0569 26.2723 29.0485 25.1523 28.9589 24.1079C28.8525 22.8899 28.5585 21.6103 28.8721 20.4035C29.1605 19.3395 29.6421 18.3287 29.9641 17.2675Z" fill="#9D3E42"/>
</g>
<g style="mix-blend-mode:multiply" opacity="0.72">
<path d="M45.8819 15.6268C45.8635 15.6136 45.8409 15.6075 45.8183 15.6095C45.7957 15.6115 45.7745 15.6215 45.7587 15.6377C45.7428 15.6539 45.7332 15.6753 45.7317 15.6979C45.7302 15.7206 45.7368 15.743 45.7503 15.7612C46.5511 16.73 43.6195 17.7968 43.0399 18.116C41.6399 18.8832 40.8615 20.2104 40.0607 21.5348C38.9911 23.3072 37.4595 23.6628 35.6787 24.4468C33.5227 25.3988 31.6243 26.6728 29.1715 26.0764C29.0987 26.0596 29.0483 26.166 29.1183 26.2024C31.1847 27.2356 33.3771 25.9364 35.2475 25.0516C37.2075 24.1248 39.0891 23.8168 40.2875 21.8624C40.9035 20.8628 41.4299 19.8072 42.3371 19.0288C43.0175 18.4464 43.8239 18.1552 44.6023 17.7408C45.2995 17.374 46.8367 16.4976 45.8819 15.6268Z" fill="#9D3E42"/>
</g>
<g style="mix-blend-mode:screen" opacity="0.52">
<path d="M45.6104 15.2489C45.5796 15.1705 45.4508 15.1733 45.4536 15.2713C45.5488 17.3265 42.4072 17.8725 41.0464 18.7881C40.2848 19.2977 39.9068 19.9613 39.5456 20.7985C39.1368 21.7449 38.784 22.6129 37.8376 23.1589C36.9976 23.6489 36.0316 23.6321 35.0852 23.7189C35.0826 23.7178 35.0798 23.7173 35.077 23.7175C35.0743 23.7178 35.0716 23.7187 35.0692 23.7202C35.0669 23.7218 35.065 23.7239 35.0637 23.7263C35.0623 23.7288 35.0616 23.7315 35.0616 23.7343C35.0616 23.7371 35.0623 23.7398 35.0637 23.7423C35.065 23.7447 35.0669 23.7468 35.0692 23.7483C35.0716 23.7499 35.0743 23.7508 35.077 23.751C35.0798 23.7513 35.0826 23.7508 35.0852 23.7497C36.5468 23.8869 38.0448 23.7049 39.0052 22.4617C39.5232 21.7869 39.7332 20.9413 40.1252 20.2021C40.475 19.5856 41.0017 19.0882 41.6372 18.7741C42.8048 18.1357 46.3664 17.2201 45.6104 15.2489Z" fill="#9D3E42"/>
</g>
<g style="mix-blend-mode:screen" opacity="0.52">
<path d="M35.312 26.7959C34.4979 27.6615 33.4806 28.3102 32.3524 28.6831C31.2324 29.0331 30.0536 29.0191 28.9 29.1675C26.8056 29.4475 25.26 30.4472 23.8768 31.9984C23.1208 32.8384 22.3704 33.8155 21.3568 34.3587C20.4104 34.86 19.3464 34.9188 18.4784 35.5852C17.7308 36.1676 17.196 37.0467 16.3 37.4247C15.53 37.7467 14.1776 37.9847 13.78 37.0131H13.7632C13.7436 38.4635 15.7708 38.2591 16.692 37.8531C17.7336 37.3799 18.3132 36.2879 19.324 35.7643C20.4916 35.1567 21.6256 35.0979 22.6504 34.1795C23.6108 33.3199 24.3304 32.2391 25.2908 31.3795C26.5032 30.2595 27.9396 29.8283 29.544 29.6659C31.868 29.4307 34.164 29.1311 35.4408 26.9079C35.4557 26.8909 35.4631 26.8686 35.4615 26.846C35.46 26.8234 35.4495 26.8024 35.4324 26.7875C35.4153 26.7727 35.393 26.7652 35.3705 26.7668C35.3479 26.7684 35.3269 26.7789 35.312 26.7959Z" fill="#9D3E42"/>
</g>
<path d="M26.3941 34.6919C26.1813 33.8071 26.3605 32.7011 25.8341 31.9311C25.4169 31.3263 24.5881 31.1667 24.2689 30.3827C24.0953 29.9543 24.7645 27.6303 23.3085 28.4227C23.5885 29.2179 23.8685 29.9739 23.7145 30.7999C21.1049 29.8451 19.0973 36.3187 21.8021 36.3131C23.1741 36.3131 22.7177 33.5131 23.1153 32.6003C23.7593 31.1359 24.8681 31.4803 25.4085 32.9167C25.9489 34.3531 25.6157 35.9687 26.5145 37.2763C26.8001 37.6851 27.3181 38.5251 26.3941 34.6919Z" fill="#A9C211"/>
<g style="mix-blend-mode:multiply" opacity="0.48">
<g style="mix-blend-mode:multiply" opacity="0.48">
<path d="M23.3112 28.4256C23.4064 28.7056 23.5016 28.9856 23.5912 29.2656C23.8251 29.3076 24.0561 29.3647 24.2828 29.4364C24.3052 28.6888 24.2464 27.916 23.3112 28.4256Z" fill="#3D9999"/>
</g>
</g>
<g style="mix-blend-mode:multiply" opacity="0.48">
<g style="mix-blend-mode:multiply" opacity="0.48">
<path d="M24.6357 31.4385C23.8601 31.0409 22.6197 31.5001 22.2417 32.3233C21.8637 33.1465 22.5077 34.7005 22.1437 35.5573C21.9197 36.0781 21.4941 36.1676 20.8473 35.868C20.9577 36.0158 21.1029 36.134 21.2699 36.2122C21.437 36.2903 21.6207 36.326 21.8049 36.3161C23.1769 36.3161 22.7205 33.5161 23.1181 32.6033C23.7621 31.1389 24.8709 31.4833 25.4113 32.9197C25.4365 32.9841 25.4561 33.0485 25.4757 33.1129C25.4001 32.4409 25.2237 31.7409 24.6357 31.4385Z" fill="#3D9999"/>
</g>
</g>
<g style="mix-blend-mode:multiply" opacity="0.48">
<g style="mix-blend-mode:multiply" opacity="0.48">
<path d="M24.2577 30.3324C24.2577 30.3324 24.2577 30.3184 24.2577 30.31C24.259 30.296 24.259 30.2819 24.2577 30.268C24.2592 30.2587 24.2592 30.2492 24.2577 30.24C24.2591 30.2232 24.2591 30.2063 24.2577 30.1896V30.0692C24.2563 30.0496 24.2563 30.0299 24.2577 30.0104C24.2577 29.7528 24.2969 29.4224 24.2941 29.1144C24.2941 29.0752 24.2941 29.036 24.2941 28.9968V28.882C24.2869 28.8084 24.2748 28.7355 24.2577 28.6636C24.1888 28.7057 24.1327 28.7657 24.0953 28.8372C23.9049 29.1536 24.1905 30.5368 24.3613 30.8336C24.6609 31.3516 25.3777 31.514 25.6969 32.0432C26.0665 32.6536 26.0777 33.4936 26.1449 34.2076C26.2233 35.0168 27.1753 37.5676 26.5341 37.1672L26.4305 37.1084C26.4669 37.17 26.5033 37.2316 26.5453 37.2904C26.8253 37.6964 27.3461 38.5364 26.4221 34.7032C26.2093 33.8184 26.3885 32.7124 25.8621 31.9424C25.4449 31.3376 24.6161 31.178 24.2969 30.394C24.2812 30.3752 24.268 30.3545 24.2577 30.3324Z" fill="#3D9999"/>
</g>
</g>
<g style="mix-blend-mode:screen" opacity="0.48">
<g style="mix-blend-mode:screen" opacity="0.48">
<path d="M22.082 31.5897C21.8216 31.3769 21.522 31.8697 21.158 32.6565C20.794 33.4433 20.486 36.2965 21.438 35.1961C21.746 34.8433 21.6452 33.8829 21.6452 32.9561C21.6452 32.0293 22.3452 31.8053 22.082 31.5897Z" fill="#CAC75B"/>
</g>
</g>
<g style="mix-blend-mode:screen" opacity="0.48">
<path d="M23.692 29.0332C23.692 29.0332 23.6696 29.0332 23.6724 29.0332C23.7879 29.4416 23.8259 29.868 23.7844 30.2904C23.7519 30.3872 23.739 30.4895 23.7462 30.5914C23.7534 30.6933 23.7806 30.7927 23.8264 30.884C23.8311 30.8902 23.8376 30.8948 23.8451 30.8973C23.8525 30.8997 23.8604 30.8999 23.868 30.8978C23.8755 30.8957 23.8822 30.8914 23.8873 30.8854C23.8923 30.8795 23.8955 30.8722 23.8964 30.8644C23.9412 30.2204 24.0196 29.6352 23.692 29.0332Z" fill="#CAC75B"/>
</g>
<g style="mix-blend-mode:screen" opacity="0.48">
<path d="M25.6801 33.0065C25.4785 32.0293 25.0333 31.6065 24.3221 30.9429C24.5489 31.2565 24.8345 31.5029 25.0529 31.8333C25.4505 32.4157 25.5149 33.0961 25.6129 33.7765C25.7641 34.7257 25.8453 35.8485 26.3773 36.6717C26.3796 36.6772 26.3839 36.6817 26.3894 36.6841C26.3949 36.6864 26.4012 36.6865 26.4067 36.6843C26.4123 36.682 26.4168 36.6777 26.4191 36.6722C26.4215 36.6667 26.4216 36.6604 26.4193 36.6549C26.2401 35.4453 25.9237 34.2077 25.6801 33.0065Z" fill="#CAC75B"/>
</g>
</g>
<defs>
<linearGradient id="paint0_linear_12164_1720" x1="16281.7" y1="23228.7" x2="12732.6" y2="18291.4" gradientUnits="userSpaceOnUse">
<stop stop-color="white"/>
<stop offset="0.39" stop-color="#3D4C96"/>
<stop offset="0.86" stop-color="#2A4F90"/>
</linearGradient>
<clipPath id="clip0_12164_1720">
<rect width="56" height="56" rx="28" fill="white"/>
</clipPath>
</defs>
</svg>
