<svg width="56" height="56" viewBox="0 0 56 56" fill="none" xmlns="http://www.w3.org/2000/svg">
<g clip-path="url(#clip0_12164_848)">
<rect width="56" height="56" rx="28" fill="#54D1FF"/>
<path d="M26.5815 42.8586L27.4713 46.9713C27.4713 46.9713 20.4473 55.7342 22.1367 67.0001H45.6976C45.6976 67.0001 47.1204 52.9617 40.9849 46.882L40.4518 43.3947L26.5815 42.8586Z" fill="#386182"/>
<path d="M31.2368 47.1198C33.1236 47.2943 35.0246 47.2383 36.898 46.953C38.2391 46.7451 39.561 46.4269 40.8503 46.0016L40.4518 43.3947L26.5815 42.8586L27.321 46.275C28.6132 46.6337 29.9067 46.995 31.2368 47.1198Z" fill="#234563"/>
<path d="M40.6296 49.6558C40.6296 49.6558 44.0083 56.1835 42.319 66.9134" stroke="#4980A5" stroke-width="1.36" stroke-miterlimit="10" stroke-dasharray="10.86 10.86"/>
<path d="M21.6625 13.2024C21.8357 13.3928 22.0644 13.5234 22.3157 13.5755C22.4395 13.5912 22.5651 13.5678 22.675 13.5085C22.7861 13.4496 22.8874 13.3738 22.9756 13.2838C23.153 13.1017 23.3164 12.9063 23.4642 12.6991L23.9215 12.0802C24.2281 11.6653 24.5686 11.2768 24.9393 10.9187C25.3159 10.5621 25.7371 10.2565 26.1923 10.0094C26.3099 9.95294 26.4248 9.8925 26.5424 9.84126C26.66 9.79001 26.7802 9.73614 26.903 9.69672C27.146 9.60474 27.3969 9.54561 27.6451 9.47597C27.7079 9.46021 27.7758 9.44181 27.8333 9.42736L28.0227 9.39188L28.4042 9.32093C28.5349 9.30647 28.6655 9.29596 28.7962 9.28414C28.8602 9.28414 28.9269 9.26968 28.9896 9.26705H29.1842C29.7086 9.25211 30.2299 9.35256 30.7116 9.56138C31.2073 9.7685 31.6208 10.1349 31.8875 10.6034L31.7307 10.6507C31.6626 10.3296 31.5378 10.0234 31.3623 9.74665C31.1877 9.46584 30.9694 9.21517 30.7155 9.00426C30.196 8.58573 29.5783 8.30838 28.9216 8.1988C28.5929 8.13872 28.26 8.10489 27.926 8.09763C27.5911 8.09368 27.2562 8.10683 26.9226 8.13705C26.253 8.20677 25.5892 8.32534 24.9367 8.49182C25.5836 8.2967 26.2451 8.15433 26.9148 8.06609C27.5879 7.97257 28.271 7.97833 28.9425 8.08317C29.6248 8.18196 30.2694 8.45875 30.8122 8.886C31.3525 9.33082 31.7285 9.94538 31.8796 10.6309L32.0103 11.213L31.7281 10.6769C31.6091 10.4632 31.4519 10.2734 31.2643 10.1172C31.1694 10.0378 31.069 9.9653 30.9638 9.90038C30.9102 9.86885 30.8592 9.83337 30.8044 9.80578L30.6358 9.72694C30.1752 9.53124 29.6789 9.43499 29.179 9.44444H28.9909C28.9282 9.44444 28.8602 9.45495 28.8027 9.46021C28.6721 9.47203 28.5519 9.47992 28.4265 9.49437L28.0541 9.56007L27.8686 9.59423C27.8058 9.60737 27.7457 9.62577 27.6843 9.64153C27.44 9.70723 27.1931 9.76373 26.9566 9.85177C26.8364 9.88856 26.7227 9.94374 26.6051 9.98316C26.4875 10.0226 26.3765 10.0909 26.2628 10.1448C25.8159 10.3812 25.4003 10.673 25.0255 11.0133C24.6521 11.3596 24.3081 11.7367 23.9973 12.1407L23.5256 12.7477C23.37 12.9531 23.1988 13.146 23.0134 13.3246C22.9189 13.4152 22.8109 13.4906 22.6933 13.5479C22.5752 13.6066 22.442 13.6272 22.3118 13.6071C22.058 13.5452 21.8305 13.4034 21.6625 13.2024Z" fill="#230D1E"/>
<path d="M32.6882 11.1158C32.6882 11.1158 29.8439 7.71787 26.5239 10.8175C23.204 13.9171 25.7531 18.9247 21.7224 22.0847C16.8215 25.9268 13.0104 32.9906 21.6048 37.3438C30.1992 41.697 33.5179 31.1445 33.4591 25.1844C33.4003 19.2242 32.6882 11.1158 32.6882 11.1158Z" fill="#230D1E"/>
<path d="M32.3906 11.1867C31.8457 10.6086 31.1749 10.1655 30.4308 9.89242C29.6868 9.61746 28.8737 9.59484 28.1156 9.82803C27.7415 9.94454 27.3849 10.1121 27.056 10.326C26.8888 10.4285 26.7333 10.5494 26.5765 10.6677C26.4197 10.7859 26.2734 10.9173 26.1375 11.0618C25.8543 11.3337 25.6043 11.6385 25.3928 11.9698C25.1779 12.2994 25 12.6519 24.8623 13.021C24.5968 13.7651 24.4128 14.5361 24.3136 15.3204C24.1947 16.1088 24.1085 16.8972 23.9465 17.6855C23.8001 18.4773 23.5358 19.2423 23.1625 19.9548C22.9675 20.308 22.7391 20.6415 22.4805 20.9507C22.2187 21.2566 21.9286 21.5368 21.6143 21.7877C20.3464 22.731 19.2131 23.8447 18.246 25.0976C17.7666 25.7243 17.3533 26.3993 17.0126 27.1119C16.6723 27.823 16.4394 28.5812 16.3215 29.3614C16.2665 29.753 16.249 30.149 16.2692 30.544C16.2692 30.6412 16.2901 30.7398 16.2993 30.837C16.3084 30.9342 16.3162 31.0328 16.3371 31.1287L16.3972 31.4178L16.4273 31.5623C16.4391 31.6096 16.4547 31.6569 16.4691 31.7042C16.6925 32.4624 17.0634 33.1685 17.5601 33.7816C18.0568 34.3976 18.6318 34.9454 19.2703 35.4109C19.9143 35.8726 20.5927 36.2837 21.2994 36.6408C20.5853 36.2962 19.8987 35.8969 19.2455 35.4464C18.5934 34.9895 18.0039 34.4483 17.4921 33.8368C16.9806 33.2182 16.5965 32.5036 16.362 31.7344C16.3463 31.6858 16.3306 31.6385 16.3162 31.5899L16.2849 31.4427L16.2209 31.1484C16.1987 31.0512 16.1934 30.95 16.1791 30.8501C16.1647 30.7503 16.1516 30.6504 16.1451 30.5506C16.1205 30.1489 16.1345 29.7459 16.1869 29.347C16.2968 28.5463 16.5305 27.7678 16.8794 27.0396C17.222 26.3159 17.6384 25.6298 18.1219 24.9925C19.0935 23.7255 20.2329 22.5982 21.5084 21.6419C21.8151 21.3987 22.0982 21.1268 22.3538 20.8298C22.6058 20.5311 22.8285 20.2085 23.0188 19.8667C23.3853 19.1697 23.6452 18.4211 23.7897 17.6461C23.9517 16.8722 24.0405 16.0812 24.1633 15.2941C24.2247 14.8999 24.294 14.5057 24.3828 14.1116C24.4735 13.7207 24.5918 13.337 24.7369 12.9632C24.8814 12.5877 25.0668 12.2294 25.2896 11.8949C25.5096 11.5588 25.7683 11.2501 26.0604 10.9751C26.2015 10.8306 26.3609 10.7123 26.5125 10.5809C26.6641 10.4495 26.8326 10.3405 27.0038 10.238C27.3424 10.0234 27.7086 9.85629 28.0921 9.74131C28.8669 9.51936 29.6924 9.55718 30.4439 9.84906C31.1871 10.1372 31.8536 10.5951 32.3906 11.1867Z" fill="#230D1E"/>
<path d="M32.1879 11.2392C31.549 10.4794 30.6888 9.94075 29.729 9.69919C29.2545 9.58556 28.7628 9.56327 28.2801 9.63349C28.1599 9.64795 28.0423 9.68342 27.9234 9.70708C27.8045 9.73073 27.6908 9.77803 27.5758 9.81613L27.2401 9.96067C27.1839 9.98564 27.1277 10.008 27.0728 10.0343L26.9134 10.1249C26.0553 10.5977 25.358 11.3186 24.9118 12.1944C24.7903 12.4073 24.6962 12.6333 24.5956 12.8514C24.495 13.0695 24.414 13.3073 24.3434 13.5438C24.189 14.0126 24.0581 14.4888 23.9515 14.9708C23.8378 15.4517 23.7437 15.9379 23.6418 16.4241C23.541 16.9124 23.4141 17.3948 23.2616 17.8694C22.9546 18.8168 22.4921 19.7352 21.8061 20.4697C21.4583 20.827 21.0812 21.154 20.6786 21.4473L19.5027 22.3579C18.7153 22.9546 17.9872 23.6265 17.3286 24.3643C17.9631 23.6016 18.6736 22.9064 19.4491 22.2896C19.8306 21.9742 20.22 21.6681 20.6041 21.358C20.9961 21.0621 21.3628 20.7338 21.7003 20.3765C22.3432 19.6337 22.8212 18.7615 23.1022 17.8182C23.2512 17.3484 23.3742 16.8707 23.4707 16.3873C23.57 15.9024 23.6614 15.4123 23.7738 14.9288C23.8818 14.4404 24.0149 13.958 24.1723 13.4834C24.2455 13.2443 24.3421 13.013 24.4336 12.7804C24.5251 12.5479 24.6361 12.3219 24.7602 12.1037C24.9947 11.6581 25.2912 11.2484 25.6408 10.887C25.9876 10.5225 26.3931 10.2195 26.8402 9.99089L27.0062 9.90154C27.0624 9.87395 27.1212 9.85292 27.1786 9.82796L27.5249 9.68605C27.6438 9.64795 27.764 9.61116 27.8855 9.57831C28.007 9.54546 28.1298 9.52312 28.2552 9.50998C28.7517 9.44435 29.2561 9.47558 29.7408 9.60196C30.2269 9.73365 30.687 9.94832 31.1009 10.2366C31.5128 10.5121 31.8795 10.8503 32.1879 11.2392Z" fill="#230D1E"/>
<path d="M32.2727 25.0648C32.2727 25.0648 33.0423 28.9397 31.383 28.9397C29.7237 28.9397 26.4037 27.2105 25.7518 30.0118C25.0998 32.8132 30.6121 34.6015 34.584 34.4228C38.5559 34.2441 42.3488 32.3967 41.2813 29.8923C40.2139 27.3879 36.0656 29.4206 36.0068 26.3761C35.9809 24.4048 36.0795 22.4338 36.3021 20.4751L32.2727 25.0648Z" fill="#FFAFAF"/>
<path d="M32.3575 27.9029C33.7398 27.4654 35.1444 26.7401 36.0002 25.6363C36.0071 23.9117 36.1078 22.1887 36.302 20.4751L32.2726 25.0648C32.2726 25.0648 32.6084 26.7545 32.3575 27.9029Z" fill="#DB8989"/>
<path d="M32.763 12.6664C32.763 12.6664 27.5015 11.4667 26.9698 17.9012C26.438 24.3357 30.4269 25.8822 32.1959 25.7127C34.843 25.4604 36.5885 23.1833 36.7492 19.8905C36.9008 16.7331 36.1822 13.3076 32.763 12.6664Z" fill="#FFAFAF"/>
<path d="M32.4885 22.9257C32.6283 23.7942 32.2272 24.2292 31.6549 24.3225C31.0826 24.4158 30.5652 24.1293 30.4254 23.2608C30.2856 22.3922 30.6332 21.6131 31.2028 21.5211C31.7725 21.4291 32.3487 22.0624 32.4885 22.9257Z" fill="#FF455F"/>
<path d="M32.3291 22.3765C32.0861 21.8089 31.6432 21.4489 31.2028 21.5212C30.6332 21.6131 30.2883 22.3923 30.4255 23.2608C30.5234 23.8679 30.807 24.1898 31.1636 24.2963C31.1754 23.4737 31.553 22.663 32.3291 22.3765Z" fill="#A52F43"/>
<path d="M29.874 18.252C29.9375 18.4809 29.9761 18.7162 29.989 18.9536C30.0044 19.1919 29.9983 19.4312 29.9707 19.6684C29.9441 19.9122 29.8852 20.1512 29.7956 20.3793C29.7065 20.6293 29.5409 20.8446 29.3226 20.9942L29.256 20.7314C29.4141 20.7616 29.5722 20.7984 29.729 20.8378C29.8857 20.8773 30.0425 20.9232 30.198 20.9824C30.0334 21.0047 29.8714 21.01 29.7094 21.0165C29.5473 21.0231 29.3853 21.0165 29.2246 21.0165L28.8862 21.0034L29.1606 20.7616C29.3025 20.6177 29.4086 20.4421 29.4703 20.2492C29.5429 20.0418 29.6001 19.8292 29.6414 19.6132C29.6858 19.3938 29.725 19.1691 29.7603 18.9418C29.7956 18.7145 29.8309 18.4845 29.874 18.252Z" fill="#C16C6C"/>
<path d="M30.5978 17.3322C30.7618 16.9794 31.0173 16.6776 31.3373 16.4584C31.6697 16.2231 32.0626 16.0894 32.4687 16.0734C32.6754 16.0648 32.882 16.0905 33.0802 16.1496C33.2734 16.2059 33.4567 16.2919 33.6237 16.4045C33.9464 16.6183 34.2095 16.9113 34.3881 17.256C34.0803 17.0747 33.7603 16.9153 33.4304 16.779C33.3533 16.7448 33.271 16.7264 33.1952 16.6975C33.1194 16.6686 33.0384 16.6542 32.9587 16.6437C32.8035 16.6123 32.6452 16.5991 32.487 16.6042C32.1617 16.6183 31.8416 16.6918 31.5424 16.821C31.2135 16.9639 30.8975 17.1349 30.5978 17.3322Z" fill="#230D1E"/>
<path d="M29.7734 17.5069C29.7804 17.5276 29.7822 17.5498 29.7786 17.5713C29.7749 17.5929 29.766 17.6132 29.7525 17.6304C29.7256 17.6682 29.6884 17.6974 29.6454 17.7145C29.5665 17.7459 29.482 17.7607 29.3971 17.7579C29.3152 17.7547 29.2344 17.7378 29.1581 17.708C29.0853 17.6802 29.0146 17.6472 28.9464 17.6094C28.6851 17.4609 28.4656 17.2822 28.2422 17.1285C28.0187 16.9748 27.794 16.8368 27.5745 16.8394C27.4551 16.8478 27.3413 16.8938 27.2492 16.9708C27.142 17.0599 27.0452 17.1609 26.9604 17.2717C26.9906 17.1248 27.0497 16.9854 27.1342 16.8618C27.2298 16.7229 27.3724 16.6239 27.5353 16.5832C27.7007 16.5506 27.8719 16.5656 28.0292 16.6266C28.172 16.6808 28.3083 16.7508 28.4355 16.8355C28.6838 16.9945 28.9007 17.1811 29.1175 17.3348C29.169 17.3726 29.2227 17.4073 29.2783 17.4386C29.3317 17.4671 29.3866 17.4926 29.4429 17.5148C29.4988 17.5394 29.557 17.5583 29.6166 17.5713C29.6462 17.5795 29.6776 17.5777 29.706 17.566C29.7343 17.5544 29.7581 17.5336 29.7734 17.5069Z" fill="#230D1E"/>
<path d="M32.5681 18.6264C32.5681 19.0376 32.4374 19.3714 32.2728 19.3714C32.1082 19.3714 31.9762 19.0376 31.9762 18.6264C31.9762 18.2151 32.1069 17.8813 32.2728 17.8813C32.4387 17.8813 32.5681 18.2151 32.5681 18.6264Z" fill="#230D1E"/>
<path d="M28.5377 18.8051C28.5377 19.2177 28.407 19.5501 28.2424 19.5501C28.0778 19.5501 27.9458 19.2177 27.9458 18.8051C27.9458 18.3925 28.0765 18.0601 28.2424 18.0601C28.4083 18.0601 28.5377 18.3938 28.5377 18.8051Z" fill="#230D1E"/>
<path d="M28.6564 29.2972C28.6564 29.2972 26.174 27.8663 24.2703 31.3233C22.3667 34.7803 20.0032 40.8614 20.0032 40.8614C20.0032 40.8614 13.5423 31.3233 11.5224 30.7872C9.50248 30.2511 1.74292 30.5494 8.08488 31.0855C8.08488 31.0855 -0.568359 31.502 7.31402 31.7425C7.31402 31.7425 0.794366 32.5768 7.37412 32.4573C7.37412 32.4573 1.56523 33.1734 7.84839 33.0538C7.84839 33.0538 1.38754 33.4112 10.3308 33.829C10.3308 33.829 18.2145 49.2681 20.8812 48.9698C23.5478 48.6716 27.2832 37.6435 27.2832 37.6435L28.6564 29.2972Z" fill="#FFAFAF"/>
<path d="M11.8831 32.6347C11.8831 32.6347 8.97867 29.1777 9.51174 29.0581C10.0448 28.9385 12.7128 31.6216 12.7128 31.6216L11.8831 32.6347Z" fill="#FFAFAF"/>
<path d="M27.1437 38.0731C27.2404 37.7998 27.294 37.6422 27.294 37.6422L28.6567 29.2972C28.6567 29.2972 26.1743 27.8663 24.2706 31.3233C23.6095 32.5282 22.8922 34.0511 22.2363 35.528C23.8138 36.4856 25.4533 37.3358 27.1437 38.0731Z" fill="#DB8989"/>
<path d="M7.43698 25.5417C7.51861 25.7738 7.54107 26.0227 7.5023 26.2657C7.45359 26.5068 7.34732 26.7322 7.19265 26.9227C6.88953 27.3169 6.48712 27.6007 6.12913 27.924C5.94761 28.0786 5.7857 28.2551 5.64701 28.4495C5.51126 28.6414 5.4382 28.871 5.43796 29.1065C5.45029 29.339 5.51988 29.5648 5.64048 29.7635C5.75779 29.9693 5.90989 30.1529 6.08993 30.3062C6.45472 30.6118 6.89165 30.8177 7.35858 30.904C7.82201 31.0011 8.30296 30.9698 8.75005 30.8134C8.96898 30.7356 9.16996 30.614 9.34085 30.4559C9.51175 30.2978 9.649 30.1065 9.74433 29.8936C9.83809 29.6846 9.86941 29.4527 9.83448 29.2261C9.80499 29.0053 9.71032 28.7984 9.56272 28.6322L9.50654 28.5731C9.48564 28.5547 9.46212 28.5415 9.44121 28.5244C9.39792 28.494 9.35094 28.4693 9.30141 28.4509C9.20194 28.4187 9.09536 28.4159 8.99438 28.443L8.91729 28.4627L8.84412 28.5008L8.76965 28.5376L8.70171 28.5888C8.60873 28.6502 8.52806 28.7287 8.46392 28.8201C8.34479 29.0136 8.28819 29.2394 8.30191 29.4666C8.31359 29.6988 8.37181 29.9263 8.47307 30.1354C8.56894 30.3436 8.72635 30.517 8.92382 30.632C9.13647 30.7378 9.35931 30.8215 9.58885 30.8817C9.70848 30.9201 9.82473 30.9685 9.93639 31.0262C10.0519 31.0873 10.1561 31.1677 10.2447 31.2641C10.2877 31.3135 10.3261 31.3667 10.3597 31.423C10.3767 31.452 10.3937 31.4795 10.4081 31.5085L10.4459 31.5965C10.4986 31.7164 10.5283 31.8452 10.5335 31.9762C10.5464 32.111 10.5225 32.2468 10.4645 32.369C10.4065 32.4912 10.3165 32.5953 10.2042 32.67C10.0846 32.7355 9.94656 32.7586 9.81227 32.7357C9.68519 32.7098 9.56415 32.6598 9.45559 32.5885C9.34421 32.5249 9.24473 32.4422 9.16161 32.3441C9.11648 32.2913 9.08386 32.2289 9.06624 32.1615C9.04858 32.0896 9.05501 32.0138 9.08453 31.946C9.14668 31.8264 9.24506 31.7297 9.36543 31.6701C9.47582 31.6118 9.59301 31.5677 9.71428 31.5387C9.95447 31.4749 10.2032 31.4501 10.4512 31.4651C10.7007 31.4742 10.9443 31.5446 11.1606 31.6701C11.2691 31.7359 11.3612 31.8257 11.4298 31.9329C11.4941 32.0419 11.5313 32.165 11.5382 32.2916C11.5401 32.5401 11.4808 32.7852 11.3658 33.0051V32.9867C11.4222 33.0236 11.4859 33.0478 11.5526 33.0576C11.6197 33.065 11.6873 33.0482 11.7433 33.0103C11.8515 32.9275 11.9406 32.8221 12.0047 32.7015C11.9414 32.8264 11.8523 32.9362 11.7433 33.0235C11.6847 33.065 11.6137 33.0849 11.5421 33.08C11.4716 33.0726 11.4037 33.0492 11.3435 33.0116L11.3318 33.0051V32.9932C11.4372 32.7763 11.4888 32.5369 11.482 32.2955C11.4731 32.1778 11.4354 32.064 11.3723 31.9644C11.3066 31.8669 11.2194 31.7859 11.1175 31.7279C10.9083 31.6154 10.6753 31.555 10.4381 31.5518C10.2005 31.5423 9.9629 31.5703 9.73388 31.6346C9.62099 31.6651 9.51218 31.7092 9.40986 31.766C9.31092 31.815 9.2303 31.8947 9.1799 31.9933C9.1627 32.041 9.15959 32.0927 9.17095 32.1421C9.18231 32.1915 9.20766 32.2366 9.24393 32.2719C9.31903 32.3569 9.40726 32.4292 9.50523 32.486C9.60106 32.547 9.70743 32.5894 9.8188 32.6109C9.92456 32.6279 10.0329 32.608 10.1258 32.5544C10.2147 32.4914 10.2848 32.4053 10.3288 32.3053C10.3727 32.2053 10.3889 32.0952 10.3754 31.9867C10.3697 31.8733 10.3431 31.7619 10.297 31.6582L10.263 31.5794L10.2199 31.5058C10.1908 31.4591 10.1576 31.4151 10.1206 31.3744C9.95653 31.2117 9.7522 31.096 9.52875 31.0394C9.28879 30.9757 9.0559 30.8877 8.83367 30.7766C8.60627 30.6468 8.42388 30.4501 8.31105 30.2129C8.19788 29.9833 8.13253 29.7329 8.11899 29.4771C8.10227 29.2134 8.16806 28.951 8.30713 28.7268C8.38292 28.6186 8.47713 28.5247 8.58543 28.4495L8.66251 28.393C8.69126 28.376 8.72131 28.3615 8.75136 28.3457L8.8402 28.3024L8.93819 28.2748C9.07223 28.238 9.21413 28.2421 9.34584 28.2866C9.41029 28.3105 9.47135 28.3427 9.52745 28.3825C9.55358 28.4036 9.58232 28.422 9.60845 28.4443L9.6777 28.5166C9.85102 28.7136 9.96002 28.9595 9.98996 29.2208C10.0282 29.4795 9.99102 29.7438 9.88282 29.9816C9.77794 30.2143 9.62716 30.4231 9.43963 30.5955C9.2521 30.7678 9.03172 30.9001 8.79186 30.9842C8.31712 31.149 7.80663 31.1804 7.31547 31.0748C6.82424 30.9802 6.36642 30.7573 5.98802 30.4284C5.79995 30.2619 5.64173 30.0641 5.52028 29.8437C5.39243 29.6239 5.32145 29.3755 5.31384 29.121C5.31876 28.8647 5.40176 28.6161 5.55163 28.4088C5.6973 28.2088 5.86814 28.0286 6.05988 27.8727C6.42963 27.5547 6.83597 27.2801 7.143 26.9056C7.30315 26.7232 7.41318 26.5019 7.46221 26.2637C7.51125 26.0254 7.4976 25.7784 7.4226 25.547L7.43698 25.5417Z" fill="#230D1E"/>
<path d="M8.50415 27.2695C8.68166 27.1508 8.87353 27.0554 9.07511 26.9857C9.28136 26.9196 9.49795 26.8925 9.71401 26.9055C9.93283 26.9243 10.1454 26.9882 10.3385 27.0934C10.5288 27.2022 10.7008 27.3406 10.8481 27.5034C10.9978 27.6631 11.1244 27.8431 11.2244 28.0382L11.2975 28.184C11.3211 28.2339 11.3393 28.2852 11.3603 28.3364C11.3833 28.387 11.4013 28.4399 11.4138 28.4941C11.432 28.5483 11.4447 28.6042 11.4517 28.661C11.459 28.7194 11.459 28.7786 11.4517 28.8371L11.4426 28.9277L11.4125 29.0158L11.3968 29.0604L11.372 29.0985C11.3563 29.1248 11.3407 29.1511 11.3224 29.1761C11.2855 29.2231 11.2449 29.2671 11.2009 29.3075C11.031 29.4546 10.852 29.5624 10.7004 29.7016C10.5478 29.8334 10.4206 29.9924 10.3255 30.1707C10.228 30.3375 10.1994 30.5361 10.2458 30.7239C10.2796 30.8133 10.331 30.8949 10.397 30.9638C10.4631 31.0327 10.5423 31.0874 10.6299 31.1247C10.8144 31.2049 11.0144 31.2426 11.2152 31.235C11.4179 31.2287 11.6168 31.1781 11.7979 31.0866C11.8879 31.0452 11.9673 30.9839 12.0302 30.9072C12.0931 30.8305 12.1379 30.7404 12.1612 30.6438C12.1806 30.546 12.1716 30.4447 12.135 30.3521C12.1195 30.3055 12.0941 30.263 12.0608 30.2271C12.0274 30.1913 11.9868 30.1631 11.9417 30.1444C11.8934 30.1347 11.8433 30.1413 11.7991 30.1631C11.7549 30.185 11.7191 30.2209 11.6973 30.2653C11.642 30.3556 11.6022 30.4547 11.5798 30.5583C11.5946 30.4517 11.6268 30.3483 11.6751 30.2522C11.7007 30.2023 11.7385 30.1598 11.7849 30.1287C11.8093 30.1121 11.837 30.1009 11.866 30.0957C11.895 30.0905 11.9248 30.0914 11.9534 30.0985C12.0079 30.1163 12.0579 30.1458 12.1 30.1848C12.1422 30.2237 12.1755 30.2714 12.1977 30.3245C12.2448 30.4289 12.262 30.5445 12.2474 30.6582C12.2261 30.77 12.1797 30.8755 12.1118 30.9665C12.0439 31.0576 11.9562 31.1319 11.8554 31.1838C11.6612 31.2917 11.4458 31.3554 11.2244 31.3704C11.0012 31.3898 10.7767 31.3532 10.5711 31.2639C10.4632 31.2186 10.3656 31.1517 10.2843 31.0672C10.203 30.9827 10.1397 30.8824 10.0981 30.7725C10.0349 30.5436 10.0645 30.2989 10.1804 30.0919C10.2823 29.8921 10.4211 29.7137 10.5894 29.5663C10.754 29.4205 10.9435 29.3035 11.095 29.18C11.1701 29.1251 11.2282 29.0499 11.2627 28.9632C11.2971 28.8765 11.3065 28.7817 11.2897 28.6899C11.2846 28.6408 11.2745 28.5924 11.2597 28.5454C11.2485 28.4956 11.2323 28.4472 11.2113 28.4008C11.193 28.3535 11.176 28.3049 11.1551 28.2576L11.0859 28.117C10.9934 27.9324 10.8789 27.7599 10.7449 27.6032C10.6128 27.4446 10.4562 27.3084 10.281 27.1999C10.1044 27.0937 9.90775 27.0257 9.70356 27.0001C9.49735 26.9745 9.2882 26.9879 9.08687 27.0396C8.88475 27.0942 8.68931 27.1713 8.50415 27.2695Z" fill="#230D1E"/>
<path d="M29.4221 28.5809C29.4221 28.5809 29.541 31.0854 32.4455 31.5019C35.3499 31.9184 38.6685 27.6283 41.4541 28.874C44.2396 30.1196 41.9885 37.8759 39.6759 45.2078C39.6759 45.2078 32.7407 46.5783 26.1022 45.1474C26.1022 45.1474 23.0802 40.856 25.6292 35.7289L22.5458 34.1206C22.5458 34.1206 25.4554 25.9583 29.4221 28.5809Z" fill="#EF8A3D"/>
<path d="M41.8019 29.0908C41.0271 31.9658 38.4754 34.2494 35.9786 35.75C34.2043 36.8169 32.1713 37.8392 30.1083 38.144C28.3379 38.4068 26.548 38.3004 24.7671 38.3201C24.0499 42.2252 26.1077 45.1527 26.1077 45.1527C32.7462 46.5836 40.3634 45.451 40.3634 45.451C42.5714 38.4489 44.04 30.8305 41.8019 29.0908Z" fill="#DB7835"/>
<path d="M24.9158 37.6367H24.9236C25.0125 37.3042 25.1209 36.9679 25.2411 36.6328C25.114 36.961 25.0054 37.2962 24.9158 37.6367Z" fill="#DB7835"/>
<path d="M27.2337 32.5163C26.1506 31.7804 25.4634 30.6767 25.0361 29.6833C23.4931 31.4795 22.5537 34.1245 22.5537 34.1245L25.6019 35.7171C26.0742 34.6147 26.6193 33.5453 27.2337 32.5163Z" fill="#DB7835"/>
<path d="M30.9676 52.8971C30.9511 52.9156 30.9308 52.9305 30.9082 52.9406C30.8855 52.9507 30.861 52.956 30.8362 52.9559C30.8115 52.9559 30.787 52.9506 30.7644 52.9405C30.7417 52.9303 30.7215 52.9154 30.705 52.8968C30.6885 52.8783 30.676 52.8564 30.6684 52.8327C30.6609 52.809 30.6584 52.7839 30.6611 52.7591C30.6638 52.7344 30.6717 52.7104 30.6842 52.6889C30.6967 52.6674 30.7136 52.6488 30.7337 52.6343L32.8072 50.7816L32.6518 50.6069L30.5783 52.4596C30.5429 52.485 30.4995 52.4964 30.4563 52.4916C30.4131 52.4868 30.3732 52.4662 30.3442 52.4336C30.3152 52.401 30.2992 52.3589 30.2992 52.3151C30.2993 52.2714 30.3153 52.2293 30.3444 52.1968L32.4179 50.3441L32.2624 50.168L30.1889 52.0207C30.1536 52.0461 30.1101 52.0576 30.0669 52.0528C30.0237 52.048 29.9838 52.0273 29.9548 51.9947C29.9258 51.9622 29.9098 51.92 29.9099 51.8763C29.9099 51.8326 29.926 51.7904 29.955 51.7579L32.0351 49.8973L31.8796 49.7226L29.8061 51.5753C29.7708 51.6007 29.7273 51.6121 29.6841 51.6073C29.6409 51.6025 29.601 51.5819 29.572 51.5493C29.543 51.5167 29.527 51.4746 29.527 51.4308C29.5271 51.3871 29.5432 51.345 29.5722 51.3125L31.6431 49.4571L31.4889 49.2824L29.4154 51.1351C29.3987 51.1529 29.3785 51.1671 29.3561 51.1767C29.3336 51.1863 29.3094 51.1912 29.285 51.1909C29.2606 51.1906 29.2366 51.1853 29.2143 51.1751C29.1921 51.165 29.1722 51.1504 29.1559 51.1322C29.1396 51.1139 29.1272 51.0925 29.1195 51.0692C29.1119 51.0459 29.1091 51.0213 29.1114 50.9969C29.1137 50.9724 29.121 50.9487 29.1328 50.9273C29.1447 50.9059 29.1608 50.8871 29.1803 50.8723L31.2511 49.017L31.097 48.8422L29.0235 50.6949C28.9883 50.7218 28.9442 50.7345 28.9002 50.7303C28.8561 50.7261 28.8152 50.7054 28.7856 50.6723C28.756 50.6393 28.7399 50.5962 28.7404 50.5517C28.7409 50.5072 28.758 50.4645 28.7883 50.4321L30.8592 48.5768L30.705 48.4007L28.638 50.2534C28.6215 50.2719 28.6012 50.2868 28.5786 50.2969C28.556 50.307 28.5315 50.3123 28.5067 50.3122C28.4819 50.3122 28.4574 50.3069 28.4348 50.2968C28.4122 50.2866 28.3919 50.2717 28.3754 50.2532C28.3589 50.2346 28.3464 50.2127 28.3389 50.189C28.3313 50.1653 28.3288 50.1402 28.3315 50.1154C28.3342 50.0907 28.3421 50.0667 28.3546 50.0452C28.3671 50.0237 28.384 50.0051 28.4042 49.9906L30.4672 48.1353L30.3117 47.9605L28.2461 49.8132C28.2295 49.8318 28.2093 49.8466 28.1866 49.8567C28.164 49.8669 28.1395 49.8721 28.1147 49.8721C28.0899 49.872 28.0654 49.8668 28.0428 49.8566C28.0202 49.8464 28 49.8315 27.9835 49.813C27.9669 49.7944 27.9545 49.7725 27.9469 49.7488C27.9394 49.7251 27.9368 49.7 27.9396 49.6752C27.9423 49.6505 27.9501 49.6266 27.9627 49.6051C27.9752 49.5836 27.9921 49.5649 28.0122 49.5504L30.0857 47.6978L29.9302 47.523L27.8541 49.3731C27.8188 49.3985 27.7753 49.4099 27.7321 49.4051C27.6889 49.4003 27.649 49.3797 27.62 49.3471C27.591 49.3145 27.575 49.2724 27.5751 49.2286C27.5751 49.1849 27.5912 49.1428 27.6203 49.1103L29.6937 47.2576L29.5383 47.0828L27.4622 48.9329C27.4268 48.9583 27.3834 48.9697 27.3402 48.965C27.297 48.9602 27.257 48.9395 27.2281 48.9069C27.1991 48.8744 27.1831 48.8322 27.1831 48.7885C27.1831 48.7448 27.1992 48.7026 27.2283 48.6701L29.3018 46.8174L29.1489 46.6334L27.0702 48.4914C27.0349 48.5168 26.9914 48.5283 26.9482 48.5235C26.905 48.5187 26.8651 48.498 26.8361 48.4654C26.8071 48.4329 26.7911 48.3907 26.7911 48.347C26.7912 48.3033 26.8073 48.2611 26.8363 48.2286L28.915 46.3706L28.7609 46.1959L26.6874 48.0486C26.6707 48.0664 26.6504 48.0806 26.628 48.0902C26.6055 48.0998 26.5814 48.1047 26.557 48.1044C26.5326 48.1041 26.5085 48.0988 26.4863 48.0886C26.464 48.0785 26.4441 48.0639 26.4278 48.0457C26.4115 48.0274 26.3991 48.006 26.3915 47.9827C26.3838 47.9594 26.381 47.9348 26.3833 47.9104C26.3856 47.8859 26.3929 47.8622 26.4048 47.8408C26.4166 47.8194 26.4328 47.8006 26.4522 47.7858L28.5257 45.9331L28.3767 45.7583L26.3033 47.611C26.268 47.638 26.224 47.6506 26.18 47.6464C26.1359 47.6422 26.095 47.6215 26.0654 47.5885C26.0358 47.5554 26.0197 47.5123 26.0201 47.4678C26.0206 47.4233 26.0377 47.3806 26.0681 47.3482L28.1416 45.4955L27.9848 45.3195L25.9113 47.1722C25.8947 47.1907 25.8745 47.2055 25.8518 47.2157C25.8292 47.2258 25.8047 47.231 25.7799 47.231C25.7551 47.231 25.7306 47.2257 25.708 47.2155C25.6854 47.2053 25.6652 47.1905 25.6487 47.1719C25.6321 47.1533 25.6197 47.1315 25.6121 47.1077C25.6046 47.084 25.6021 47.059 25.6048 47.0342C25.6075 47.0094 25.6154 46.9855 25.6279 46.964C25.6404 46.9425 25.6573 46.9239 25.6774 46.9094L27.7483 45.0567L27.5928 44.8767L25.5193 46.7294C25.484 46.7548 25.4405 46.7662 25.3973 46.7614C25.3541 46.7567 25.3142 46.736 25.2852 46.7034C25.2562 46.6708 25.2402 46.6287 25.2403 46.5849C25.2403 46.5412 25.2564 46.4991 25.2855 46.4666L27.3589 44.6139L27.2009 44.4365L25.1274 46.2892C25.092 46.3146 25.0486 46.326 25.0054 46.3213C24.9622 46.3165 24.9223 46.2958 24.8933 46.2632C24.8643 46.2307 24.8483 46.1885 24.8483 46.1448C24.8484 46.1011 24.8644 46.0589 24.8935 46.0264L26.967 44.1737L26.8089 43.9963L24.7406 45.8451C24.7053 45.8705 24.6618 45.8819 24.6186 45.8771C24.5754 45.8724 24.5355 45.8517 24.5065 45.8191C24.4775 45.7866 24.4615 45.7444 24.4616 45.7007C24.4616 45.6569 24.4777 45.6148 24.5068 45.5823L26.5802 43.7296L26.4261 43.5548L24.3526 45.4075C24.3173 45.4385 24.2713 45.4542 24.2246 45.4512C24.1779 45.4483 24.1342 45.4269 24.103 45.3917C24.0876 45.3744 24.0757 45.3542 24.0681 45.3323C24.0604 45.3104 24.0572 45.2871 24.0585 45.2639C24.0598 45.2407 24.0657 45.218 24.0758 45.1971C24.0859 45.1762 24.1001 45.1575 24.1174 45.1421L26.1909 43.2894L26.0367 43.1133L23.9632 44.966C23.9459 44.9816 23.9257 44.9936 23.9038 45.0013C23.8819 45.009 23.8587 45.0123 23.8355 45.0109C23.8123 45.0096 23.7896 45.0036 23.7687 44.9935C23.7478 44.9833 23.7291 44.969 23.7137 44.9516C23.6831 44.9161 23.6674 44.87 23.6701 44.8231C23.6728 44.7763 23.6936 44.7323 23.7281 44.7006L25.8015 42.8479L25.6474 42.6732L23.5739 44.5311C23.5387 44.558 23.4946 44.5707 23.4506 44.5665C23.4065 44.5623 23.3657 44.5416 23.336 44.5085C23.3064 44.4755 23.2903 44.4324 23.2908 44.3879C23.2913 44.3434 23.3084 44.3007 23.3387 44.2683L25.4135 42.4156L25.258 42.2409L23.1845 44.0935C23.168 44.1121 23.1477 44.1269 23.1251 44.137C23.1024 44.1472 23.0779 44.1524 23.0532 44.1524C23.0284 44.1524 23.0039 44.1471 22.9813 44.1369C22.9587 44.1267 22.9384 44.1119 22.9219 44.0933C22.9054 44.0747 22.8929 44.0529 22.8854 44.0291C22.8778 44.0054 22.8753 43.9803 22.878 43.9556C22.8807 43.9308 22.8886 43.9069 22.9011 43.8854C22.9136 43.8639 22.9305 43.8453 22.9507 43.8308L25.0241 41.9781L24.8687 41.8033L22.7952 43.6547C22.7786 43.6732 22.7584 43.688 22.7357 43.6982C22.7131 43.7083 22.6886 43.7135 22.6638 43.7135C22.639 43.7135 22.6145 43.7082 22.5919 43.698C22.5693 43.6879 22.5491 43.673 22.5325 43.6544C22.516 43.6359 22.5036 43.614 22.496 43.5903C22.4885 43.5665 22.4859 43.5415 22.4887 43.5167C22.4914 43.4919 22.4992 43.468 22.5118 43.4465C22.5243 43.425 22.5412 43.4064 22.5613 43.3919L24.6348 41.5392L24.4793 41.3631L22.4058 43.2158C22.3705 43.2413 22.327 43.2527 22.2838 43.2479C22.2406 43.2431 22.2007 43.2225 22.1717 43.1899C22.1427 43.1573 22.1267 43.1151 22.1268 43.0714C22.1268 43.0277 22.1429 42.9855 22.172 42.953L24.2376 41.1069C24.1488 41.0402 24.0399 41.0064 23.9292 41.0112C23.8185 41.016 23.7128 41.0591 23.6301 41.1332L21.8087 42.7612C21.7615 42.8032 21.7229 42.8542 21.6953 42.9113C21.6676 42.9684 21.6515 43.0303 21.6477 43.0937C21.6439 43.1571 21.6527 43.2205 21.6733 43.2805C21.694 43.3405 21.7263 43.3957 21.7682 43.4431L30.479 53.2979C30.5638 53.3937 30.683 53.4517 30.8103 53.4594C30.9376 53.467 31.0628 53.4236 31.1584 53.3386L32.9797 51.7106C33.0708 51.6293 33.1278 51.5161 33.1389 51.3941C33.1501 51.272 33.1147 51.1503 33.0398 51.0536L30.9676 52.8971Z" fill="#FF455F"/>
<path d="M23.6184 43.2462C23.7213 43.4305 23.8573 43.594 24.0195 43.7284C24.1762 43.8633 24.368 43.9503 24.5722 43.9794L24.5382 43.9912C24.6337 43.8704 24.7027 43.7307 24.7407 43.5812C24.7839 43.4314 24.8055 43.2761 24.8048 43.12C24.8132 42.9746 24.7665 42.8314 24.6741 42.7193C24.5826 42.6326 24.4324 42.6615 24.2978 42.7193L24.3331 42.6115C24.4133 42.7344 24.5141 42.8425 24.631 42.9308C24.7483 43.0229 24.8759 43.101 25.0112 43.1634C25.1441 43.2243 25.2864 43.2621 25.4319 43.2751C25.5677 43.2893 25.7041 43.2538 25.816 43.1752H25.8252C25.9269 43.121 26.0117 43.0395 26.0703 42.9398C26.1289 42.8401 26.1589 42.726 26.157 42.6102C26.1541 42.4752 26.1628 42.3403 26.1832 42.2068C26.1988 42.1312 26.2314 42.0602 26.2785 41.9992C26.302 41.9679 26.3303 41.9404 26.3622 41.9178C26.3901 41.893 26.4219 41.8731 26.4562 41.8586C26.4882 41.8417 26.5214 41.8273 26.5555 41.8153L26.6561 41.7877C26.721 41.7695 26.7875 41.7576 26.8547 41.7522C26.9867 41.7291 27.1207 41.7198 27.2545 41.7246C27.3962 41.7272 27.5351 41.7642 27.6595 41.8324C27.7833 41.9066 27.882 42.0165 27.9431 42.1477V42.1411C27.9866 42.2107 28.0155 42.2885 28.028 42.3698C28.0363 42.4501 28.0293 42.5313 28.0071 42.6089C27.9875 42.6838 27.9601 42.7521 27.9378 42.8178C27.9251 42.8436 27.9178 42.8717 27.9165 42.9004C27.9151 42.9292 27.9197 42.9579 27.93 42.9847C27.9754 43.1136 28.0411 43.2342 28.1247 43.3421C28.1625 43.3925 28.2158 43.429 28.2762 43.4459C28.3057 43.4508 28.336 43.4478 28.364 43.4372C28.392 43.4266 28.4167 43.4088 28.4356 43.3855C28.5211 43.277 28.5738 43.1461 28.5872 43.0083C28.6075 42.8686 28.6101 42.7269 28.595 42.5866C28.6216 42.7268 28.63 42.8699 28.6199 43.0123C28.6139 43.1603 28.5648 43.3033 28.4788 43.4236C28.4541 43.4564 28.4214 43.4822 28.3838 43.4983C28.3462 43.5144 28.3051 43.5204 28.2645 43.5155C28.1863 43.5002 28.1155 43.4591 28.0633 43.3986C27.9663 43.2873 27.8898 43.1596 27.8372 43.0215V43.0307C27.8131 42.9913 27.8013 42.9455 27.8033 42.8993C27.8063 42.8592 27.8137 42.8195 27.8255 42.781C27.8477 42.7075 27.8712 42.6418 27.8869 42.5747C27.9028 42.5121 27.906 42.4468 27.896 42.3829C27.8843 42.3207 27.8598 42.2616 27.8242 42.2095C27.7742 42.1035 27.6936 42.0151 27.5929 41.9559C27.4872 41.9033 27.3712 41.875 27.2532 41.8731C27.1293 41.8709 27.0054 41.881 26.8835 41.9033C26.8221 41.9101 26.7613 41.9219 26.7019 41.9388L26.6156 41.9624C26.5884 41.9723 26.5622 41.9846 26.5372 41.9992C26.4894 42.0211 26.4475 42.0542 26.4152 42.0959C26.3829 42.1375 26.3611 42.1864 26.3517 42.2384C26.3364 42.3626 26.3303 42.4877 26.3334 42.6128C26.3328 42.7575 26.2965 42.8998 26.2276 43.0267C26.1507 43.15 26.0436 43.2514 25.9166 43.3211H25.9258C25.7802 43.4241 25.6025 43.4708 25.4254 43.4525C25.2603 43.4374 25.0993 43.3929 24.9498 43.3211C24.8023 43.2509 24.6641 43.1627 24.5382 43.0583C24.4071 42.9569 24.2952 42.8328 24.2077 42.6917L24.1632 42.6155L24.2429 42.5839C24.3253 42.5468 24.414 42.5259 24.5042 42.5222C24.5538 42.5201 24.6032 42.528 24.6496 42.5454C24.6961 42.5627 24.7386 42.5892 24.7747 42.6234C24.8399 42.6906 24.8851 42.7748 24.9054 42.8664C24.9245 42.9504 24.9328 43.0365 24.9302 43.1227C24.9257 43.2902 24.8971 43.4562 24.8453 43.6154C24.7989 43.7785 24.7157 43.9287 24.6022 44.0543L24.5879 44.0687H24.567C24.3524 44.0256 24.1545 43.9221 23.996 43.7704C23.836 43.6233 23.7075 43.4449 23.6184 43.2462Z" fill="#230D1E"/>
<path d="M25.0411 44.5576C25.24 44.5854 25.4322 44.6495 25.6082 44.7468C25.771 44.8429 25.9541 44.8991 26.1426 44.911C26.2305 44.9038 26.3162 44.8793 26.3947 44.8387C26.4689 44.8009 26.5286 44.7395 26.5646 44.664C26.6025 44.5878 26.626 44.4905 26.6717 44.3894C26.7175 44.2827 26.7928 44.1915 26.8886 44.1266C27.0857 44.0104 27.3146 43.9606 27.5419 43.9847C27.7583 44.0253 27.9615 44.1187 28.1337 44.2567C28.3049 44.3789 28.4604 44.5129 28.6302 44.6246C28.7968 44.744 28.9879 44.8244 29.1894 44.8598C28.9783 44.8586 28.7708 44.8044 28.5858 44.7021C28.3976 44.6049 28.2278 44.4813 28.0553 44.3736C27.8964 44.26 27.7135 44.1849 27.521 44.1542C27.3319 44.1407 27.1433 44.1866 26.9814 44.2856C26.9112 44.3315 26.8561 44.3973 26.8233 44.4748C26.7841 44.5549 26.7619 44.6535 26.707 44.7533C26.6524 44.8577 26.5645 44.9405 26.4574 44.9885C26.4079 45.0123 26.3557 45.0299 26.302 45.0411C26.2482 45.0552 26.1928 45.0618 26.1373 45.0608C25.9292 45.0365 25.7307 44.9586 25.5611 44.8348C25.4041 44.7144 25.2284 44.6207 25.0411 44.5576Z" fill="#230D1E"/>
<path d="M42.5854 30.3694C42.5854 30.3694 44.7791 32.8134 45.0155 37.7617C45.252 42.7101 45.7276 47.1802 45.0155 48.4311C44.3035 49.682 21.3671 53.5372 29.4677 51.0301C29.4677 51.0301 24.2415 51.607 28.9816 50.4756C28.9816 50.4756 22.2529 51.6516 29.0039 49.7871C29.0039 49.7871 24.1514 50.8081 28.0631 49.3851C28.7608 49.1315 39.3242 45.5746 39.6796 45.2132C40.035 44.8519 38.0203 34.9643 38.6723 33.3508C39.3242 31.7372 42.5854 30.3694 42.5854 30.3694Z" fill="#FFAFAF"/>
<path d="M43.2819 38.2243C43.8675 38.1571 44.4492 38.0597 45.0249 37.9326C45.0249 37.8761 45.0183 37.8209 45.0157 37.7644C44.7792 32.816 42.5856 30.3721 42.5856 30.3721C42.5856 30.3721 39.3257 31.7438 38.6738 33.3535C38.419 33.9828 38.5719 35.8828 38.8319 37.9839C40.2534 38.4201 41.8892 38.3873 43.2819 38.2243Z" fill="#DB8989"/>
<path d="M30.5273 49.1444C30.5273 49.1444 29.03 47.6846 29.5617 47.4993C30.0935 47.3141 31.7411 49.0997 31.7411 49.0997L30.5273 49.1444Z" fill="#FFAFAF"/>
<path d="M37.8442 37.0417C37.8442 37.0417 36.599 28.4589 40.0378 28.5771C43.4767 28.6954 44.8394 32.8134 45.2536 36.4504C45.2536 36.4504 42.2263 37.8813 37.8442 37.0417Z" fill="#EF8A3D"/>
<path d="M31.0867 12.6662C31.0867 12.6662 30.5536 16.3611 33.8135 17.2559C37.0733 18.1507 36.4265 21.0112 35.2951 23.5143C34.1636 26.0174 32.682 31.2049 36.0659 32.3375C39.4499 33.4702 38.0258 27.5087 42.468 29.4166C42.468 29.4166 43.1788 27.7465 40.9851 26.7335C38.7365 25.6941 43.9496 13.4401 37.4888 10.7623C31.0279 8.0844 31.0867 12.6662 31.0867 12.6662Z" fill="#37142E"/>
<path d="M37.392 11.3196C36.7658 11.0682 36.121 10.8661 35.4636 10.7152C34.8095 10.5577 34.134 10.5106 33.4646 10.5759C33.1331 10.6143 32.8098 10.7057 32.5069 10.8466C32.2071 10.989 31.9401 11.1926 31.723 11.4444C31.3036 11.9651 31.0732 12.614 31.0697 13.284V13.2932C31.0089 13.9447 31.0665 14.6018 31.2395 15.2326C31.4063 15.8625 31.7358 16.4369 32.1946 16.8974C32.4271 17.1221 32.6912 17.3112 32.9785 17.4584C33.2684 17.6029 33.5728 17.7157 33.8866 17.7948C34.5242 17.9722 35.1605 18.2705 35.6191 18.7816C35.8475 19.0368 36.0213 19.3364 36.1299 19.662C36.2365 19.9846 36.292 20.322 36.2946 20.6619C36.289 21.332 36.1788 21.9971 35.9679 22.6328C35.8699 22.9521 35.7563 23.2649 35.6321 23.5736C35.508 23.8824 35.3708 24.1846 35.2467 24.4868C34.9977 25.0955 34.7835 25.7181 34.6052 26.3514C34.4244 26.9833 34.2912 27.6281 34.2067 28.2803C34.1172 28.9295 34.1133 29.5878 34.1949 30.2381C34.2851 30.8793 34.502 31.5179 34.9214 32.0106C35.3503 32.5005 35.9323 32.8291 36.5715 32.9422C36.8841 33.0083 37.2097 32.969 37.4979 32.8305C37.7765 32.6686 38.0077 32.4356 38.1681 32.1551C38.5091 31.598 38.7221 30.9647 39.0239 30.3747C39.1695 30.0745 39.355 29.7956 39.5753 29.5456C39.7988 29.2949 40.0896 29.1146 40.4128 29.0266C40.7359 28.9504 41.0717 28.9464 41.3966 29.0148C41.7191 29.0819 42.0339 29.1823 42.336 29.3143C42.0325 29.1877 41.7169 29.0931 41.394 29.0318C41.0719 28.9693 40.74 28.9787 40.4219 29.0594C40.1071 29.1523 39.8257 29.3348 39.6119 29.585C39.4011 29.8344 39.2253 30.1116 39.0892 30.4089C38.7992 30.9988 38.6006 31.6361 38.2544 32.2103C38.0879 32.5078 37.8457 32.7554 37.5528 32.9277C37.2445 33.0811 36.8943 33.1273 36.5572 33.0591C35.8881 32.9484 35.2768 32.6108 34.8247 32.1026C34.3972 31.5763 34.1284 30.938 34.0499 30.263C33.9617 29.5998 33.9617 28.9277 34.0499 28.2645C34.1327 27.6044 34.2637 26.9514 34.4419 26.3106C34.6199 25.6712 34.834 25.0425 35.0834 24.4277C35.214 24.1189 35.3447 23.8207 35.4662 23.5145C35.5877 23.2084 35.6975 22.9009 35.7941 22.5868C36 21.9676 36.1093 21.32 36.1182 20.6671C36.1162 20.3445 36.0646 20.024 35.9653 19.7172C35.8646 19.4133 35.7032 19.1334 35.491 18.8946C35.0638 18.415 34.4589 18.1246 33.8382 17.9512C33.5144 17.8676 33.2004 17.7495 32.9015 17.599C32.6021 17.4436 32.3269 17.2448 32.0849 17.0091C31.6083 16.5287 31.2689 15.9283 31.1023 15.2707C30.9305 14.6217 30.8782 13.9466 30.9482 13.2787V13.2879C30.9549 12.9415 31.0176 12.5985 31.1337 12.2722C31.2464 11.9453 31.4193 11.6427 31.6433 11.3801C31.8719 11.1182 32.1528 10.9078 32.4677 10.7625C32.7805 10.6226 33.1135 10.5339 33.4541 10.4997C34.1311 10.4451 34.8124 10.5041 35.4701 10.6745C36.1262 10.8398 36.7687 11.0555 37.392 11.3196Z" fill="#37142E"/>
<path d="M31.0863 12.6664C31.1162 12.0257 31.2952 11.401 31.6089 10.8426C31.9248 10.2757 32.3882 9.80604 32.9494 9.48394C33.5185 9.17429 34.1454 8.98724 34.7904 8.9347C35.1105 8.90533 35.4322 8.89831 35.7533 8.91368C36.0779 8.93367 36.3994 8.98873 36.7123 9.07792C37.3436 9.26385 37.9198 9.6032 38.3899 10.066C38.8503 10.5284 39.2274 11.0677 39.5044 11.6599C40.0636 12.8345 40.3157 14.1183 40.4333 15.3915C40.5364 16.6693 40.5053 17.9544 40.3405 19.2257C40.1668 20.4792 40.0426 21.7366 40.1027 22.9889C40.1234 23.6105 40.2343 24.2259 40.432 24.8153C40.5335 25.1042 40.6761 25.3768 40.8553 25.6247C41.0339 25.8713 41.2552 26.0836 41.5086 26.2514C41.5726 26.2961 41.6392 26.3289 41.7059 26.3736L41.8117 26.4393L41.911 26.5155C42.0385 26.6205 42.1526 26.741 42.2507 26.8742C42.4382 27.1402 42.5755 27.4387 42.6557 27.7546C42.8114 28.3754 42.846 29.0206 42.7576 29.6546C42.7779 29.3388 42.7714 29.0219 42.738 28.7072C42.7101 28.3949 42.6488 28.0865 42.5551 27.7874C42.4648 27.4909 42.3213 27.2135 42.1318 26.9688C42.0361 26.8515 41.9264 26.7465 41.8052 26.6561L41.7124 26.5917L41.6157 26.5352C41.5504 26.4971 41.4733 26.459 41.4067 26.4157C41.1266 26.2423 40.8796 26.0198 40.6776 25.7587C40.4774 25.4984 40.3159 25.2103 40.1981 24.9033C39.979 24.2934 39.8491 23.6547 39.8127 23.0072C39.7689 22.3677 39.7689 21.7258 39.8127 21.0862C39.8493 20.449 39.9172 19.8117 39.9969 19.1836C40.1523 17.9362 40.1786 16.6759 40.0753 15.423C39.9682 14.1761 39.7199 12.9265 39.1986 11.8044C38.9471 11.2431 38.601 10.7296 38.1756 10.2868C37.7453 9.85233 37.2174 9.52832 36.6365 9.34203C36.3441 9.25094 36.0427 9.19234 35.7376 9.16727C35.5847 9.15413 35.4306 9.15282 35.2751 9.1515C35.1196 9.15019 34.9654 9.15939 34.8113 9.16333C34.193 9.19622 33.5882 9.35679 33.0344 9.63504C32.4798 9.92304 32.0144 10.3584 31.6886 10.8938C31.5252 11.1612 31.3936 11.447 31.2967 11.7453C31.1901 12.0427 31.1194 12.352 31.0863 12.6664Z" fill="#37142E"/>
<path d="M31.1467 12.427C31.2126 11.9664 31.3282 11.5143 31.4917 11.0789C31.6513 10.6393 31.8645 10.2213 32.1266 9.83459C32.3905 9.44549 32.7205 9.10613 33.1013 8.83204C33.4871 8.55723 33.9245 8.36452 34.387 8.26572C34.8482 8.16156 35.3251 8.14773 35.7915 8.22499C36.0295 8.26373 36.2579 8.34804 36.4644 8.47332C36.6694 8.60314 36.847 8.77237 36.987 8.97132C37.2666 9.36551 37.4312 9.80306 37.6612 10.1959C37.8719 10.5924 38.1852 10.9242 38.5679 11.1564C38.965 11.373 39.4013 11.5071 39.8509 11.5506C40.3049 11.598 40.7622 11.6059 41.2176 11.5743C41.6872 11.5379 42.1595 11.5743 42.6182 11.682C43.0848 11.7933 43.5062 12.046 43.8254 12.406C44.1216 12.7798 44.3153 13.2251 44.3872 13.6976C44.4562 14.1619 44.4646 14.6332 44.4121 15.0996C44.3599 15.5629 44.2726 16.0215 44.1508 16.4714C44.0326 16.9189 43.8846 17.3579 43.7078 17.7854C44.0309 16.9209 44.2396 16.0175 44.3284 15.0983C44.3719 14.64 44.3557 14.178 44.2801 13.7239C44.2038 13.2752 44.0129 12.8541 43.7261 12.5019C43.4181 12.174 43.0202 11.9454 42.5829 11.845C42.1406 11.7431 41.6855 11.7099 41.2332 11.7464C40.7672 11.7817 40.2991 11.7768 39.8339 11.732C39.361 11.6894 38.9015 11.5513 38.483 11.3259C38.0717 11.0781 37.7353 10.7225 37.5096 10.2971C37.2744 9.88715 37.1176 9.44829 36.8563 9.083C36.73 8.90017 36.5693 8.74395 36.3834 8.62312C36.1936 8.50765 35.984 8.42919 35.7654 8.39186C35.5434 8.35215 35.3179 8.33542 35.0925 8.34193C34.9788 8.34193 34.8665 8.35507 34.7528 8.36295C34.6391 8.37084 34.5281 8.39054 34.417 8.41551C33.9703 8.50365 33.5462 8.68249 33.1706 8.9411C32.7945 9.20248 32.4669 9.52799 32.2024 9.90292C31.6727 10.6574 31.3125 11.5186 31.1467 12.427Z" fill="#37142E"/>
</g>
<defs>
<clipPath id="clip0_12164_848">
<rect width="56" height="56" rx="28" fill="white"/>
</clipPath>
</defs>
</svg>
